<svg width="279" height="366" viewBox="0 0 279 366" fill="none" xmlns="http://www.w3.org/2000/svg">
<g clip-path="url(#clip0)">
<path d="M61.1716 272.495L64.8455 352.264H75.2165L79.2419 271.386L61.1716 272.495Z" fill="#FFC38D"/>
<path d="M70.2068 281.544C75.1968 281.544 79.2419 277.492 79.2419 272.494C79.2419 267.497 75.1968 263.445 70.2068 263.445C65.2168 263.445 61.1716 267.497 61.1716 272.494C61.1716 277.492 65.2168 281.544 70.2068 281.544Z" fill="#FFC38D"/>
<path d="M70.031 357.457C72.8949 357.457 75.2166 355.132 75.2166 352.264C75.2166 349.396 72.8949 347.07 70.031 347.07C67.1671 347.07 64.8455 349.396 64.8455 352.264C64.8455 355.132 67.1671 357.457 70.031 357.457Z" fill="#FFC38D"/>
<path d="M83.1049 213.362C84.8109 206.123 80.3343 198.869 73.1062 197.16C65.8781 195.452 58.6355 199.935 56.9295 207.174C55.2236 214.414 59.7001 221.667 66.9282 223.376C74.1564 225.085 81.3989 220.601 83.1049 213.362Z" fill="#FFC38D"/>
<path d="M70.2068 281.544C75.1968 281.544 79.2419 277.492 79.2419 272.494C79.2419 267.497 75.1968 263.445 70.2068 263.445C65.2168 263.445 61.1716 267.497 61.1716 272.494C61.1716 277.492 65.2168 281.544 70.2068 281.544Z" fill="#FFC38D"/>
<path d="M56.5664 209.979L61.1719 272.495H79.2422L83.4434 210.295L56.5664 209.979Z" fill="#FFC38D"/>
<path d="M65.0388 351.278L54.158 355.803C53.931 355.896 53.7366 356.055 53.599 356.258C53.4614 356.462 53.3868 356.701 53.3845 356.947V359.148H74.1794C74.3171 359.148 74.4534 359.12 74.5804 359.067C74.7074 359.014 74.8225 358.936 74.9191 358.837C75.0156 358.739 75.0916 358.623 75.1427 358.494C75.1938 358.366 75.2189 358.229 75.2165 358.092V351.331L65.0388 351.278Z" fill="#754040"/>
<path d="M99.4219 272.495L95.7305 352.264H85.3594L81.334 271.386L99.4219 272.495Z" fill="#FFC38D"/>
<path d="M90.3691 281.544C95.3591 281.544 99.4043 277.492 99.4043 272.494C99.4043 267.497 95.3591 263.445 90.3691 263.445C85.3792 263.445 81.334 267.497 81.334 272.494C81.334 277.492 85.3792 281.544 90.3691 281.544Z" fill="#FFC38D"/>
<path d="M90.5447 357.457C93.4086 357.457 95.7302 355.132 95.7302 352.264C95.7302 349.396 93.4086 347.07 90.5447 347.07C87.6808 347.07 85.3591 349.396 85.3591 352.264C85.3591 355.132 87.6808 357.457 90.5447 357.457Z" fill="#FFC38D"/>
<path d="M100.093 219.815C105.345 214.556 105.345 206.028 100.093 200.769C94.8418 195.509 86.3275 195.509 81.076 200.769C75.8245 206.028 75.8245 214.556 81.076 219.815C86.3275 225.075 94.8418 225.075 100.093 219.815Z" fill="#FFC38D"/>
<path d="M90.3691 281.544C95.3591 281.544 99.4043 277.492 99.4043 272.494C99.4043 267.497 95.3591 263.445 90.3691 263.445C85.3792 263.445 81.334 267.497 81.334 272.494C81.334 277.492 85.3792 281.544 90.3691 281.544Z" fill="#FFC38D"/>
<path d="M104.01 209.979L99.4216 272.495H81.3337L77.1326 210.295L104.01 209.979Z" fill="#FFC38D"/>
<path d="M95.6423 351.278L106.506 355.803C106.735 355.892 106.932 356.05 107.071 356.254C107.209 356.459 107.281 356.7 107.279 356.947V359.148H86.4138C86.1341 359.148 85.8658 359.037 85.668 358.839C85.4702 358.64 85.3591 358.372 85.3591 358.092V351.331L95.6423 351.278Z" fill="#754040"/>
<path d="M105.135 230.91H55.4412C53.8575 230.906 52.34 230.273 51.2202 229.152C50.1004 228.03 49.4692 226.51 49.4646 224.924V145.982C49.4878 137.8 52.7436 129.959 58.5207 124.173C64.2978 118.387 72.1266 115.126 80.2966 115.103C88.4636 115.13 96.2879 118.393 102.061 124.179C107.835 129.964 111.088 137.803 111.111 145.982V224.924C111.106 226.51 110.475 228.03 109.355 229.152C108.236 230.273 106.718 230.906 105.135 230.91V230.91Z" fill="#B8DFFF"/>
<path d="M111.111 145.542H96.8728V229.326H111.111V145.542Z" fill="#FFC38D"/>
<path d="M80.2966 133.218C87.1409 133.218 92.6892 128.733 92.6892 123.201C92.6892 117.669 87.1409 113.184 80.2966 113.184C73.4524 113.184 67.9041 117.669 67.9041 123.201C67.9041 128.733 73.4524 133.218 80.2966 133.218Z" fill="#FFC38D"/>
<path d="M81.0352 83.5195H79.4004C76.0705 83.5195 73.3711 86.2231 73.3711 89.5581V115.42C73.3711 118.755 76.0705 121.459 79.4004 121.459H81.0352C84.365 121.459 87.0645 118.755 87.0645 115.42V89.5581C87.0645 86.2231 84.365 83.5195 81.0352 83.5195Z" fill="#FFC38D"/>
<path d="M87.2224 96.0542V113.202L73.5115 110.015V96.0542C73.5207 94.4525 74.1613 92.9193 75.2939 91.7883C76.4264 90.6574 77.9591 90.0202 79.5583 90.0156H81.1755C82.7748 90.0202 84.3075 90.6574 85.44 91.7883C86.5725 92.9193 87.2131 94.4525 87.2224 96.0542V96.0542Z" fill="#FF935F"/>
<path d="M101.461 210.999H59.115V293.762H101.461V210.999Z" fill="#536397"/>
<path d="M59.115 217.741V293.761H77.7654V224.202L59.115 217.741Z" fill="#6E7EB5"/>
<path d="M80.2969 107.392C72.6074 107.387 65.2337 104.328 59.7931 98.886C54.3526 93.4437 51.2894 86.0623 51.2754 78.3609V70.1569H47.6543C46.6501 70.1569 45.6558 69.9588 44.7281 69.5739C43.8004 69.189 42.9575 68.6249 42.2474 67.9138C41.5374 67.2027 40.9741 66.3584 40.5899 65.4293C40.2056 64.5001 40.0078 63.5043 40.0078 62.4986V60.8965C40.0078 58.8684 40.811 56.9232 42.2412 55.4875C43.6714 54.0518 45.6118 53.2428 47.6367 53.2382H51.2754V39.2948C51.2936 34.6428 52.8156 30.1219 55.6136 26.4087C58.4117 22.6955 62.3352 19.9898 66.7969 18.6966C68.7239 18.1484 70.7174 17.8699 72.7207 17.8691H87.8906C89.8997 17.8698 91.899 18.1483 93.832 18.6966C98.2821 20 102.192 22.7105 104.977 26.4231C107.762 30.1357 109.272 34.6512 109.283 39.2948V53.2382H112.922C113.926 53.2382 114.92 53.4363 115.848 53.8211C116.776 54.206 117.619 54.7701 118.329 55.4812C119.039 56.1924 119.602 57.0366 119.986 57.9658C120.371 58.8949 120.568 59.8908 120.568 60.8965V62.4986C120.568 64.5297 119.763 66.4776 118.329 67.9138C116.895 69.35 114.95 70.1569 112.922 70.1569H109.301V78.3609C109.287 86.0592 106.226 93.4379 100.789 98.8798C95.3525 104.322 87.9833 107.383 80.2969 107.392V107.392Z" fill="#FFC38D"/>
<path d="M87.8904 18.5383C90.6141 18.5337 93.312 19.0673 95.8295 20.1085C98.347 21.1498 100.635 22.6783 102.561 24.6064C104.488 26.5345 106.016 28.8244 107.058 31.3449C108.1 33.8654 108.635 36.567 108.633 39.2949V53.9073H112.939C114.804 53.9073 116.592 54.6493 117.911 55.9699C119.23 57.2906 119.97 59.0818 119.97 60.9495V62.5515C119.97 64.4192 119.23 66.2104 117.911 67.5311C116.592 68.8517 114.804 69.5937 112.939 69.5937H108.633V78.3963C108.727 82.1838 108.063 85.9519 106.681 89.4787C105.299 93.0055 103.226 96.2196 100.585 98.9317C97.9435 101.644 94.7869 103.799 91.3011 105.271C87.8153 106.743 84.0707 107.501 80.2878 107.501C76.505 107.501 72.7604 106.743 69.2746 105.271C65.7888 103.799 62.6322 101.644 59.9908 98.9317C57.3495 96.2196 55.2767 93.0055 53.8946 89.4787C52.5124 85.9519 51.8489 82.1838 51.9431 78.3963V69.5937H47.6541C45.7893 69.5937 44.0008 68.8517 42.6822 67.5311C41.3636 66.2104 40.6228 64.4192 40.6228 62.5515V60.9495C40.6228 59.0818 41.3636 57.2906 42.6822 55.9699C44.0008 54.6493 45.7893 53.9073 47.6541 53.9073H51.9431V39.2949C51.9408 36.5685 52.4753 33.8683 53.516 31.349C54.5567 28.8296 56.0831 26.5405 58.0081 24.6126C59.933 22.6847 62.2186 21.1559 64.734 20.1136C67.2495 19.0713 69.9455 18.536 72.6677 18.5383H87.8904ZM87.8904 17.2003H72.6677C70.5981 17.1955 68.5384 17.486 66.5505 18.063C61.9595 19.4019 57.925 22.1941 55.0509 26.0216C52.1768 29.849 50.6178 34.5059 50.6072 39.2949V52.5693H47.6541C45.4489 52.5693 43.3341 53.4467 41.7748 55.0083C40.2156 56.57 39.3396 58.6881 39.3396 60.8966V62.4987C39.3396 63.5923 39.5547 64.6751 39.9725 65.6854C40.3903 66.6958 41.0028 67.6138 41.7748 68.387C42.5469 69.1603 43.4635 69.7737 44.4723 70.1921C45.481 70.6106 46.5622 70.826 47.6541 70.826H50.6072V78.3611C50.6072 86.2474 53.7352 93.8107 59.303 99.3872C64.8709 104.964 72.4225 108.096 80.2966 108.096C88.1708 108.096 95.7224 104.964 101.29 99.3872C106.858 93.8107 109.986 86.2474 109.986 78.3611V70.826H112.939C114.034 70.8307 115.119 70.6187 116.132 70.2023C117.145 69.7859 118.065 69.1732 118.841 68.3995C119.617 67.6258 120.233 66.7062 120.653 65.6936C121.073 64.681 121.289 63.5952 121.289 62.4987V60.8966C121.289 59.8031 121.074 58.7202 120.656 57.7099C120.238 56.6996 119.626 55.7816 118.854 55.0083C118.082 54.2351 117.165 53.6217 116.156 53.2032C115.147 52.7847 114.066 52.5693 112.974 52.5693H109.986V39.2949C109.972 34.5043 108.409 29.8471 105.532 26.02C102.655 22.1928 98.618 19.4013 94.0251 18.063C92.0317 17.4843 89.9659 17.1939 87.8904 17.2003V17.2003Z" fill="#FFC38D"/>
<path d="M71.0681 67.3223C71.0138 68.5688 71.212 69.8135 71.6508 70.9812C72.0896 72.149 72.76 73.2157 73.6215 74.117C74.4829 75.0183 75.5177 75.7356 76.6634 76.2257C77.8091 76.7157 79.042 76.9683 80.2878 76.9683C81.5336 76.9683 82.7666 76.7157 83.9123 76.2257C85.058 75.7356 86.0928 75.0183 86.9542 74.117C87.8157 73.2157 88.4861 72.149 88.9249 70.9812C89.3637 69.8135 89.5619 68.5688 89.5076 67.3223H71.0681Z" fill="white"/>
<path d="M71.947 49.9287C72.4963 49.9287 73.0333 50.0918 73.49 50.3975C73.9468 50.7032 74.3027 51.1376 74.513 51.6459C74.7232 52.1541 74.7782 52.7134 74.671 53.253C74.5638 53.7926 74.2993 54.2882 73.9109 54.6773C73.5225 55.0663 73.0276 55.3312 72.4889 55.4385C71.9501 55.5459 71.3917 55.4908 70.8842 55.2802C70.3767 55.0697 69.9429 54.7132 69.6378 54.2557C69.3326 53.7983 69.1697 53.2605 69.1697 52.7103C69.1697 51.9726 69.4623 51.2651 69.9831 50.7434C70.504 50.2218 71.2104 49.9287 71.947 49.9287Z" fill="#754040"/>
<path d="M88.6287 49.9287C89.178 49.9287 89.7149 50.0918 90.1717 50.3975C90.6284 50.7032 90.9844 51.1376 91.1946 51.6459C91.4048 52.1541 91.4598 52.7134 91.3526 53.253C91.2455 53.7926 90.981 54.2882 90.5925 54.6773C90.2041 55.0663 89.7092 55.3312 89.1705 55.4385C88.6317 55.5459 88.0733 55.4908 87.5658 55.2802C87.0583 55.0697 86.6246 54.7132 86.3194 54.2557C86.0142 53.7983 85.8513 53.2605 85.8513 52.7103C85.8513 51.9726 86.1439 51.2651 86.6648 50.7434C87.1856 50.2218 87.8921 49.9287 88.6287 49.9287Z" fill="#754040"/>
<g style="mix-blend-mode:multiply" opacity="0.33">
<g style="mix-blend-mode:multiply" opacity="0.33">
<path d="M59.3435 71.3185C60.9356 71.3185 62.2263 70.0258 62.2263 68.4312C62.2263 66.8366 60.9356 65.5439 59.3435 65.5439C57.7514 65.5439 56.4607 66.8366 56.4607 68.4312C56.4607 70.0258 57.7514 71.3185 59.3435 71.3185Z" fill="#FF556D"/>
</g>
</g>
<g style="mix-blend-mode:multiply" opacity="0.33">
<g style="mix-blend-mode:multiply" opacity="0.33">
<path d="M101.232 71.3185C102.825 71.3185 104.115 70.0258 104.115 68.4312C104.115 66.8366 102.825 65.5439 101.232 65.5439C99.6403 65.5439 98.3496 66.8366 98.3496 68.4312C98.3496 70.0258 99.6403 71.3185 101.232 71.3185Z" fill="#FF556D"/>
</g>
</g>
<path d="M77.9809 37.2406C84.8799 30.3309 84.8799 19.1281 77.9809 12.2184C71.0819 5.30876 59.8964 5.30876 52.9974 12.2184C46.0984 19.1281 46.0984 30.3309 52.9974 37.2406C59.8964 44.1502 71.0819 44.1502 77.9809 37.2406Z" fill="#754040"/>
<path d="M87.6094 35.228C95.0167 35.228 101.021 29.2139 101.021 21.7951C101.021 14.3764 95.0167 8.3623 87.6094 8.3623C80.2021 8.3623 74.1973 14.3764 74.1973 21.7951C74.1973 29.2139 80.2021 35.228 87.6094 35.228Z" fill="#754040"/>
<path d="M112.763 29.6996C112.763 31.3674 112.27 32.9979 111.344 34.3846C110.419 35.7714 109.104 36.8523 107.566 37.4906C106.027 38.1288 104.334 38.2958 102.701 37.9705C101.068 37.6451 99.5673 36.8419 98.3897 35.6625C97.2122 34.4832 96.4103 32.9806 96.0854 31.3447C95.7605 29.7089 95.9272 28.0133 96.5645 26.4724C97.2018 24.9315 98.281 23.6144 99.6657 22.6878C101.05 21.7612 102.678 21.2666 104.344 21.2666C105.45 21.2643 106.546 21.4808 107.568 21.9038C108.591 22.3268 109.52 22.9479 110.302 23.7314C111.085 24.5149 111.705 25.4455 112.127 26.4697C112.55 27.4938 112.766 28.5915 112.763 29.6996V29.6996Z" fill="#754040"/>
<path d="M51.8201 29.6992H50.783C49.7442 29.6992 48.9021 30.5426 48.9021 31.583V51.7234C48.9021 52.7638 49.7442 53.6072 50.783 53.6072H51.8201C52.8588 53.6072 53.7009 52.7638 53.7009 51.7234V31.583C53.7009 30.5426 52.8588 29.6992 51.8201 29.6992Z" fill="#754040"/>
<path d="M109.81 29.6992H108.773C107.734 29.6992 106.892 30.5426 106.892 31.583V51.7234C106.892 52.7638 107.734 53.6072 108.773 53.6072H109.81C110.849 53.6072 111.691 52.7638 111.691 51.7234V31.583C111.691 30.5426 110.849 29.6992 109.81 29.6992Z" fill="#754040"/>
<path d="M135.478 208.457L134.735 206.051C131.466 195.462 120.245 189.531 109.671 192.805L14.1144 222.394C3.54095 225.668 -2.38051 236.907 0.888475 247.497L1.63095 249.902C4.89994 260.492 16.1215 266.422 26.6949 263.148L122.252 233.559C132.825 230.285 138.747 219.047 135.478 208.457Z" fill="#92ECFE"/>
<path d="M137.196 210.746L136.453 208.341C133.184 197.751 121.963 191.82 111.389 195.094L15.8327 224.683C5.25919 227.957 -0.662244 239.196 2.60675 249.786L3.34922 252.191C6.61821 262.781 17.8397 268.711 28.4132 265.437L123.97 235.849C134.543 232.574 140.465 221.336 137.196 210.746Z" fill="#7DA8FF"/>
<g style="mix-blend-mode:multiply" opacity="0.65">
<g style="mix-blend-mode:multiply" opacity="0.65">
<path d="M120.193 220.432L117.206 211.148L101.379 216.256L104.365 225.54L120.193 220.432Z" fill="#DAE2EA"/>
</g>
<g style="mix-blend-mode:multiply" opacity="0.65">
<path d="M116.92 232.287L108.311 205.545L105.333 206.507L113.942 233.249L116.92 232.287Z" fill="#B4C2CC"/>
</g>
<g style="mix-blend-mode:multiply" opacity="0.65">
<path d="M112.562 207.026L109.719 198.195L99.9489 201.35L102.792 210.181L112.562 207.026Z" fill="#EED763"/>
</g>
<g style="mix-blend-mode:multiply" opacity="0.65">
<path d="M121.751 235.59L118.908 226.76L109.138 229.915L111.98 238.745L121.751 235.59Z" fill="#EED763"/>
</g>
</g>
<path d="M121.606 219.152L118.618 209.869L102.792 214.98L105.78 224.263L121.606 219.152Z" fill="#DAE2EA"/>
<path d="M118.32 230.975L109.711 204.232L106.733 205.194L115.342 231.937L118.32 230.975Z" fill="#B4C2CC"/>
<path d="M113.95 205.748L111.107 196.918L101.337 200.073L104.18 208.903L113.95 205.748Z" fill="#EED763"/>
<path d="M123.124 234.283L120.283 225.452L110.512 228.605L113.353 237.436L123.124 234.283Z" fill="#EED763"/>
<g style="mix-blend-mode:multiply" opacity="0.65">
<g style="mix-blend-mode:multiply" opacity="0.65">
<path d="M34.869 246.975L31.8823 237.691L16.0548 242.799L19.0415 252.083L34.869 246.975Z" fill="#DAE2EA"/>
</g>
<g style="mix-blend-mode:multiply" opacity="0.65">
<path d="M31.5995 258.834L22.9907 232.092L20.0128 233.053L28.6216 259.796L31.5995 258.834Z" fill="#B4C2CC"/>
</g>
<g style="mix-blend-mode:multiply" opacity="0.65">
<path d="M27.2261 233.555L24.385 224.725L14.6141 227.878L17.4552 236.709L27.2261 233.555Z" fill="#EED763"/>
</g>
<g style="mix-blend-mode:multiply" opacity="0.65">
<path d="M36.9728 262.87L34.1011 254.056L24.3487 257.243L27.2205 266.057L36.9728 262.87Z" fill="#EED763"/>
</g>
</g>
<path d="M36.2524 245.575L33.2642 236.292L17.4375 241.403L20.4258 250.685L36.2524 245.575Z" fill="#DAE2EA"/>
<path d="M32.9491 257.421L24.3403 230.679L21.3624 231.64L29.9712 258.383L32.9491 257.421Z" fill="#B4C2CC"/>
<path d="M28.5795 232.195L25.7368 223.364L15.9665 226.519L18.8091 235.35L28.5795 232.195Z" fill="#EED763"/>
<path d="M37.7858 260.742L34.9431 251.911L25.1728 255.066L28.0154 263.896L37.7858 260.742Z" fill="#EED763"/>
<path d="M62.6133 145.261H49.6055V251.139H62.6133V145.261Z" fill="#FFC38D"/>
<path d="M62.6307 235.258V253.515H52.5057C50.6285 251.443 49.5938 248.743 49.6053 245.945C49.544 243.081 50.6203 240.309 52.5979 238.24C54.5755 236.17 57.2925 234.971 60.1521 234.906C60.991 234.902 61.826 235.021 62.6307 235.258V235.258Z" fill="#FF935F"/>
<path d="M60.1875 259.396C66.0318 259.396 70.7695 254.462 70.7695 248.375C70.7695 242.289 66.0318 237.354 60.1875 237.354C54.3432 237.354 49.6055 242.289 49.6055 248.375C49.6055 254.462 54.3432 259.396 60.1875 259.396Z" fill="#FFC38D"/>
<path d="M80.4375 144.451C76.9109 144.472 73.491 145.664 70.7141 147.842C67.9372 150.019 65.9603 153.058 65.0936 156.481C64.227 159.905 64.5195 163.52 65.9252 166.759C67.331 169.999 69.7706 172.679 72.8613 174.38V177.637C72.8613 178.267 73.1113 178.872 73.5564 179.318C74.0014 179.763 74.605 180.014 75.2344 180.014H75.6738C76.1926 180.011 76.6961 179.838 77.1061 179.519C77.5162 179.201 77.8098 178.756 77.9414 178.253C78.0791 178.756 78.3768 179.2 78.7892 179.517C79.2016 179.835 79.7063 180.009 80.2266 180.014H80.666C81.1848 180.011 81.6883 179.838 82.0983 179.519C82.5083 179.201 82.802 178.756 82.9336 178.253C83.0713 178.756 83.369 179.2 83.7814 179.517C84.1938 179.835 84.6984 180.009 85.2187 180.014H85.6582C86.2876 180.014 86.8912 179.763 87.3362 179.318C87.7812 178.872 88.0312 178.267 88.0312 177.637V174.433C91.1232 172.731 93.5635 170.049 94.969 166.808C96.3744 163.567 96.6655 159.95 95.7966 156.526C94.9277 153.101 92.9479 150.062 90.168 147.886C87.3881 145.711 83.9655 144.521 80.4375 144.504V144.451ZM79.1016 168.165C79.1016 167.62 79.7344 167.162 80.4902 167.162C81.2461 167.162 81.8965 167.62 81.8965 168.165V170.102H79.1016V168.165ZM69.4512 164.504C69.4512 163.685 69.6939 162.884 70.1486 162.203C70.6033 161.523 71.2495 160.992 72.0053 160.68C72.7611 160.367 73.5926 160.286 74.3944 160.447C75.1962 160.608 75.9322 161.004 76.5092 161.584C77.0862 162.165 77.4782 162.904 77.6356 163.707C77.793 164.511 77.7087 165.343 77.3934 166.099C77.078 166.855 76.5458 167.5 75.8642 167.952C75.1826 168.405 74.3822 168.644 73.5644 168.641C73.0184 168.648 72.4764 168.546 71.9701 168.341C71.4638 168.136 71.0033 167.832 70.6155 167.447C70.2277 167.062 69.9204 166.603 69.7114 166.098C69.5024 165.592 69.3961 165.051 69.3984 164.504H69.4512ZM87.3809 169.011C86.5624 169.014 85.7613 168.774 85.0793 168.321C84.3973 167.867 83.8651 167.221 83.5503 166.465C83.2354 165.708 83.1521 164.875 83.311 164.071C83.4698 163.266 83.8636 162.528 84.4424 161.948C85.0211 161.368 85.7588 160.974 86.5617 160.815C87.3647 160.656 88.1967 160.739 88.9522 161.054C89.7078 161.37 90.3527 161.903 90.8053 162.586C91.2579 163.269 91.4976 164.071 91.4941 164.891C91.4895 165.982 91.0547 167.027 90.2843 167.799C89.5139 168.57 88.4703 169.006 87.3809 169.011V169.011Z" fill="#6D88AF"/>
</g>
<g clip-path="url(#clip1)">
<path d="M257.748 36.8123V130.983H192.392V36.8123C192.384 32.6883 193.184 28.6027 194.748 24.7878C195.029 24.0484 195.363 23.309 195.715 22.6048C196.066 21.9006 196.312 21.4956 196.594 20.9499C196.875 20.4041 197.103 20.1048 197.367 19.6823C200.25 15.1038 204.242 11.3296 208.972 8.71024C213.701 6.0909 219.015 4.71149 224.42 4.7002H225.721C232.779 4.72836 239.631 7.08331 245.22 11.4013C250.808 15.7193 254.822 21.7601 256.64 28.5906C256.816 29.2244 256.939 29.8229 257.08 30.4567C257.221 31.0905 257.379 32.1292 257.484 33.0095C257.644 34.2711 257.732 35.5407 257.748 36.8123Z" fill="#EA4277"/>
<path d="M252.773 188.641C252.771 189.936 252.575 191.224 252.193 192.461C252.183 192.526 252.183 192.591 252.193 192.655C252.193 192.655 252.193 192.655 252.193 192.655C251.952 193.388 251.64 194.095 251.262 194.768C250.167 196.706 248.578 198.32 246.657 199.442C244.736 200.565 242.552 201.157 240.328 201.158C238.546 201.162 236.784 200.782 235.161 200.044C233.538 199.306 232.093 198.227 230.924 196.88V196.88C229.514 195.213 228.536 193.224 228.076 191.088V190.877C227.92 190.118 227.843 189.345 227.847 188.571C227.821 188.213 227.821 187.854 227.847 187.497V187.303C227.866 186.977 227.913 186.653 227.988 186.335C228.468 183.695 229.779 181.279 231.73 179.44C233.681 177.601 236.169 176.437 238.829 176.118C241.489 175.799 244.181 176.342 246.51 177.668C248.839 178.993 250.683 181.031 251.771 183.483V183.483C251.813 183.549 251.849 183.62 251.877 183.694C252.235 184.536 252.494 185.416 252.65 186.317C252.71 186.59 252.751 186.866 252.773 187.145V187.145C252.814 187.643 252.814 188.143 252.773 188.641V188.641Z" fill="#FFC38D"/>
<path d="M238.359 362.81C242.398 362.81 245.672 359.531 245.672 355.486C245.672 351.441 242.398 348.162 238.359 348.162C234.321 348.162 231.047 351.441 231.047 355.486C231.047 359.531 234.321 362.81 238.359 362.81Z" fill="#FFC38D"/>
<path d="M252.773 186.405V187.233L252.246 192.162V192.638L252.035 194.68L251.261 200.701L248.677 224.996L245.724 355.469H231.152V354.712L230.01 230.63L228.515 202.197L228.252 197.18L228.111 194.292L227.935 191.141V190.93L227.777 187.55V187.356V186.388L252.773 186.405Z" fill="#FFC38D"/>
<path d="M238.43 362.81C242.449 362.81 245.707 359.531 245.707 355.486C245.707 351.441 242.449 348.162 238.43 348.162C234.411 348.162 231.152 351.441 231.152 355.486C231.152 359.531 234.411 362.81 238.43 362.81Z" fill="#FFC38D"/>
<path d="M238.359 362.81C242.398 362.81 245.672 359.531 245.672 355.486C245.672 351.441 242.398 348.162 238.359 348.162C234.321 348.162 231.047 351.441 231.047 355.486C231.047 359.531 234.321 362.81 238.359 362.81Z" fill="#FFC38D"/>
<path d="M253.125 362.669V364.782H232.33C232.193 364.784 232.057 364.759 231.93 364.707C231.803 364.656 231.688 364.58 231.591 364.483C231.495 364.386 231.418 364.27 231.367 364.143C231.316 364.016 231.29 363.88 231.293 363.743V362.827V357.405V357H240.961L252.404 361.507C252.623 361.611 252.807 361.776 252.934 361.982C253.062 362.188 253.128 362.426 253.125 362.669V362.669Z" fill="#FFC38D"/>
<path d="M254.232 362.475L243.035 356.084H234.914C233.943 356.089 233.013 356.478 232.327 357.168C231.642 357.857 231.258 358.791 231.258 359.764V363.795V364.711C231.271 364.997 231.397 365.267 231.607 365.461C231.818 365.655 232.096 365.759 232.383 365.749H255.058V363.619C255.052 363.367 254.97 363.123 254.822 362.919C254.675 362.715 254.469 362.56 254.232 362.475V362.475Z" fill="#FF449C"/>
<path d="M243.369 359.36L248.185 339.466H231.24V359.36H243.369Z" fill="#FF449C"/>
<path d="M211.658 362.81C215.697 362.81 218.971 359.531 218.971 355.486C218.971 351.441 215.697 348.162 211.658 348.162C207.62 348.162 204.346 351.441 204.346 355.486C204.346 359.531 207.62 362.81 211.658 362.81Z" fill="#FFC38D"/>
<path d="M197.244 186.404L197.349 187.232L197.859 192.161V192.637L198.07 194.679L198.685 200.629L201.269 224.925L204.24 355.398H218.795V354.641L220.008 230.629L221.484 202.196L221.73 197.196L221.888 194.309L222.047 191.158V190.946L222.222 187.566V187.373V186.404H197.244Z" fill="#FFC38D"/>
<path d="M211.605 362.81C215.625 362.81 218.883 359.531 218.883 355.486C218.883 351.441 215.625 348.162 211.605 348.162C207.586 348.162 204.328 351.441 204.328 355.486C204.328 359.531 207.586 362.81 211.605 362.81Z" fill="#FFC38D"/>
<path d="M211.658 362.81C215.697 362.81 218.971 359.531 218.971 355.486C218.971 351.441 215.697 348.162 211.658 348.162C207.62 348.162 204.346 351.441 204.346 355.486C204.346 359.531 207.62 362.81 211.658 362.81Z" fill="#FFC38D"/>
<path d="M196.875 362.669V364.782H217.705C217.98 364.782 218.244 364.672 218.438 364.477C218.633 364.283 218.742 364.018 218.742 363.743V362.827V357.405V357H209.18L197.736 361.507C197.494 361.594 197.283 361.75 197.13 361.957C196.976 362.164 196.888 362.412 196.875 362.669V362.669Z" fill="#FFC38D"/>
<path d="M195.785 362.475L207 356.084H215.103C215.585 356.084 216.062 356.179 216.507 356.364C216.951 356.55 217.355 356.821 217.695 357.163C218.035 357.505 218.304 357.91 218.486 358.357C218.669 358.803 218.762 359.281 218.76 359.764V363.795V364.711C218.755 364.853 218.722 364.994 218.663 365.123C218.604 365.253 218.519 365.37 218.415 365.466C218.31 365.563 218.187 365.638 218.053 365.686C217.919 365.735 217.777 365.756 217.635 365.749H194.976V363.619C194.981 363.369 195.061 363.127 195.205 362.923C195.349 362.719 195.551 362.563 195.785 362.475V362.475Z" fill="#FF449C"/>
<path d="M206.648 359.36L201.832 339.466H218.777V359.36H206.648Z" fill="#FF449C"/>
<path d="M192.252 172.673L191.267 192.655L191.127 195.436L194.01 195.718L195.17 195.824L207.879 197.021L214.558 197.655L217.582 197.936L220.465 198.218H220.588L220.605 196.211V194.82L220.64 193.201L220.711 175.771L192.252 172.673Z" fill="#75CCDD"/>
<path d="M217.74 194.61L216.809 194.539L216.281 194.504H216.264L193.711 192.849L191.268 192.655L189.527 192.532L188.965 200.437L194.59 200.842L195.012 200.895H195.029L217.318 202.514L220.148 202.726L220.465 198.219L220.605 196.212L220.711 194.821H220.605L217.74 194.61Z" fill="#A0EEF9"/>
<path d="M255.357 172.673L256.342 192.655L256.482 195.436L253.582 195.718L252.439 195.824L239.73 197.021L233.033 197.655L230.027 197.936L227.127 198.218H227.021L226.986 196.211V194.82L226.969 193.201L226.898 175.771L255.357 172.673Z" fill="#75CCDD"/>
<path d="M229.869 194.61L230.801 194.539L231.328 194.504H231.345L253.898 192.849L256.342 192.655L258.082 192.532L258.644 200.437L253.019 200.842L252.597 200.895H252.58L230.291 202.514L227.461 202.726L227.127 198.219L226.986 196.212L226.898 194.821H226.986L229.869 194.61Z" fill="#A0EEF9"/>
<path d="M235.547 187.69H211.992C206.481 187.69 201.197 185.498 197.3 181.595C193.404 177.693 191.215 172.4 191.215 166.881H256.342C256.342 169.615 255.804 172.322 254.758 174.848C253.713 177.374 252.181 179.669 250.25 181.602C248.319 183.534 246.026 185.067 243.503 186.111C240.98 187.156 238.277 187.693 235.547 187.69V187.69Z" fill="#75CCDD"/>
<path d="M252.826 171.616H194.818V115.843C194.818 110.456 196.952 105.289 200.752 101.477C204.552 97.6646 209.707 95.5181 215.086 95.5088H232.523C237.908 95.5088 243.072 97.6511 246.879 101.465C250.687 105.278 252.826 110.45 252.826 115.843V171.616Z" fill="#DCF7FE"/>
<path d="M252.351 173.483H195.24C194.599 173.483 193.965 173.356 193.373 173.11C192.781 172.864 192.243 172.503 191.791 172.048C191.338 171.594 190.98 171.054 190.736 170.46C190.493 169.867 190.369 169.23 190.371 168.589C190.376 167.298 190.891 166.062 191.803 165.152C192.716 164.241 193.952 163.73 195.24 163.73H252.351C252.992 163.727 253.627 163.852 254.22 164.096C254.813 164.34 255.352 164.699 255.806 165.152C256.26 165.605 256.62 166.143 256.866 166.736C257.112 167.329 257.238 167.964 257.238 168.606C257.238 169.248 257.112 169.884 256.866 170.476C256.62 171.069 256.26 171.608 255.806 172.061C255.352 172.514 254.813 172.873 254.22 173.117C253.627 173.361 252.992 173.485 252.351 173.483V173.483Z" fill="#DCF7FE"/>
<g style="mix-blend-mode:multiply" opacity="0.12">
<g style="mix-blend-mode:multiply" opacity="0.12">
<path d="M205.664 179.028L207.123 175.507C210.639 167.233 215.068 155.05 213.521 144.892C212.809 138.762 212.809 132.571 213.521 126.441C214.216 120.493 214.216 114.485 213.521 108.537C212.836 104.118 212.08 99.1353 209.496 95.2446C207.747 92.8685 205.683 90.7422 203.361 88.9243C200.255 86.5919 197.668 83.6357 195.768 80.2449C194.453 76.9795 193.744 73.5012 193.676 69.981C193.377 66.1254 193.078 62.4811 191.162 59.5058L193.359 58.3087C195.592 61.8297 195.926 65.9142 196.242 69.8929C196.288 73.1254 196.92 76.3227 198.105 79.3294C199.879 82.4175 202.273 85.1032 205.137 87.2166C207.621 89.1792 209.827 91.4714 211.693 94.0298C214.576 98.3431 215.367 103.607 216.088 108.255C216.8 114.39 216.8 120.588 216.088 126.723C215.402 132.671 215.402 138.679 216.088 144.627C217.512 153.923 214.33 164.627 211.008 172.796C220.711 165.754 232.875 152.321 233.42 141.106C233.578 137.814 233.596 134.416 233.613 131.142C233.613 121.758 233.719 112.04 236.988 102.973C239.359 97.1096 242.397 91.5389 246.041 86.3715C247.5 84.118 249.012 81.7941 250.365 79.4702C254.637 72.2521 258.029 61.1079 256.043 52.4637L258.346 51.9355C260.473 61.2135 256.887 73.0619 252.404 80.6674C250.998 83.0441 249.486 85.3856 248.01 87.7095C244.49 92.7407 241.542 98.1497 239.221 103.836C236.109 112.445 236.057 121.952 236.004 131.142C236.004 134.434 236.004 137.867 235.811 141.194C235.16 154.627 219.498 170.507 209.109 177.021L205.664 179.028Z" fill="#57729F"/>
</g>
</g>
<path d="M205.892 174.944L207.65 171.669C212.22 163.324 211.746 154.064 211.254 144.205L209.408 106.917C209.179 102.48 208.933 97.4277 206.754 93.308C205.255 90.763 203.415 88.4351 201.287 86.3892C198.439 83.752 196.17 80.5504 194.625 76.9879C192.111 69.9458 190.054 62.9037 192.252 51.9004L194.554 52.3581C192.48 62.6748 194.449 69.5233 196.84 76.1957C198.275 79.4497 200.37 82.3694 202.992 84.7695C205.27 86.9647 207.234 89.4649 208.828 92.1989C211.254 96.7939 211.517 102.111 211.763 106.811L213.627 144.099C214.066 152.567 214.506 161.282 211.377 169.293C218.759 164.117 223.523 154.698 225.562 141.23C226.054 137.973 226.406 134.592 226.757 131.335C227.759 121.987 228.797 112.339 232.945 103.73C235.905 98.1318 239.497 92.8922 243.65 88.1145C245.408 86.0371 247.06 83.8716 248.642 81.7062C254.091 74.2943 257.185 63.379 256.166 55.175L258.504 54.8757C259.593 63.6783 256.324 75.245 250.541 83.0442C248.923 85.2624 247.166 87.4455 245.478 89.5405C241.445 94.1799 237.953 99.2656 235.072 104.699C231.099 112.956 230.08 122.304 229.095 131.529C228.744 134.821 228.375 138.219 227.882 141.529C225.457 157.655 219.093 168.324 209.232 173.218L205.892 174.944Z" fill="white"/>
<path d="M267.609 51.2319V52.9924C267.595 54.9695 266.806 56.862 265.412 58.2617C264.018 59.6614 262.13 60.4562 260.156 60.4746H254.232C252.914 70.8794 242.578 79.2243 232.242 81.2489L230.66 81.513H230.484V99.9985C230.486 100.841 230.323 101.675 230.002 102.454C229.681 103.232 229.21 103.94 228.615 104.535C228.021 105.131 227.314 105.603 226.537 105.924C225.76 106.245 224.927 106.409 224.086 106.407H223.857C222.205 106.339 220.642 105.634 219.496 104.44C218.35 103.246 217.708 101.655 217.705 99.9985V81.2489C207.58 79.2243 197.121 70.8618 195.802 60.4746H189.844C187.856 60.4654 185.952 59.6704 184.546 58.2626C183.141 56.8548 182.347 54.9481 182.338 52.9572V51.1967C182.352 49.2121 183.149 47.3135 184.555 45.9151C185.961 44.5167 187.862 43.732 189.844 43.732H195.521V33.1688C195.547 28.7303 196.789 24.384 199.11 20.6031C201.431 16.8221 204.744 13.7515 208.687 11.7256C210.972 25.1584 223.963 35.5103 239.713 35.5103C244.465 35.5182 249.167 34.5474 253.529 32.6583C253.916 32.9224 254.039 32.9752 254.443 33.2217V43.7848H260.156C262.125 43.7986 264.011 44.5871 265.405 45.9802C266.799 47.3733 267.591 49.2595 267.609 51.2319Z" fill="#FFC38D"/>
<path d="M216.633 52.0938C216.459 52.0944 216.287 52.1325 216.13 52.2053C215.972 52.2782 215.832 52.3842 215.718 52.516C215.605 52.6479 215.521 52.8026 215.473 52.9697C215.424 53.1368 215.412 53.3124 215.437 53.4846C215.766 55.7927 216.915 57.9046 218.673 59.4325C220.431 60.9603 222.681 61.8015 225.009 61.8015C227.336 61.8015 229.586 60.9603 231.344 59.4325C233.103 57.9046 234.252 55.7927 234.58 53.4846C234.605 53.3124 234.593 53.1368 234.545 52.9697C234.496 52.8026 234.412 52.6479 234.299 52.516C234.186 52.3842 234.045 52.2782 233.888 52.2053C233.73 52.1325 233.558 52.0944 233.385 52.0938H216.633Z" fill="white"/>
<g style="mix-blend-mode:multiply" opacity="0.33">
<g style="mix-blend-mode:multiply" opacity="0.33">
<path d="M211.641 53.1326C211.641 53.7288 211.464 54.3115 211.133 54.807C210.802 55.3024 210.331 55.6883 209.781 55.9156C209.231 56.143 208.625 56.2015 208.042 56.0839C207.458 55.9663 206.923 55.6779 206.503 55.2551C206.083 54.8323 205.799 54.2942 205.685 53.7091C205.571 53.1239 205.633 52.5181 205.863 51.9683C206.093 51.4185 206.481 50.9496 206.978 50.6209C207.474 50.2922 208.057 50.1186 208.652 50.1221C209.046 50.1221 209.436 50.2001 209.8 50.3516C210.164 50.5031 210.494 50.7252 210.772 51.0049C211.049 51.2847 211.269 51.6167 211.418 51.9819C211.567 52.347 211.643 52.7381 211.641 53.1326Z" fill="#FF556D"/>
</g>
</g>
<g style="mix-blend-mode:multiply" opacity="0.33">
<g style="mix-blend-mode:multiply" opacity="0.33">
<path d="M247.465 53.1326C247.465 53.7281 247.288 54.3101 246.958 54.8052C246.628 55.3003 246.158 55.6861 245.609 55.914C245.06 56.1418 244.455 56.2015 243.872 56.0853C243.289 55.9691 242.754 55.6824 242.333 55.2614C241.913 54.8404 241.627 54.3039 241.511 53.72C241.395 53.136 241.454 52.5307 241.682 51.9806C241.909 51.4305 242.294 50.9603 242.789 50.6295C243.283 50.2987 243.864 50.1221 244.459 50.1221C244.854 50.1198 245.246 50.1961 245.612 50.3465C245.978 50.497 246.31 50.7187 246.589 50.9987C246.869 51.2787 247.09 51.6115 247.241 51.9778C247.391 52.3441 247.467 52.7366 247.465 53.1326V53.1326Z" fill="#FF556D"/>
</g>
</g>
<path d="M217.705 81.5127H230.484V90.509L217.705 86.8823V81.5127Z" fill="#FF935F"/>
<path d="M194.713 52.1121C194.712 52.7453 194.524 53.3642 194.171 53.8896C193.818 54.415 193.317 54.8233 192.732 55.0623C192.146 55.3012 191.503 55.3601 190.884 55.2313C190.265 55.1026 189.698 54.792 189.256 54.3393C188.814 53.8866 188.517 53.3122 188.402 52.6895C188.287 52.0668 188.361 51.424 188.612 50.8431C188.864 50.2622 189.283 49.7696 189.815 49.428C190.347 49.0865 190.969 48.9116 191.601 48.9256C192.433 48.944 193.224 49.2878 193.806 49.8834C194.387 50.4791 194.713 51.2791 194.713 52.1121Z" fill="white"/>
<path d="M264.568 52.4287C264.579 53.0611 264.401 53.6823 264.058 54.2132C263.715 54.7441 263.221 55.1607 262.641 55.4101C262.061 55.6594 261.419 55.73 260.799 55.6131C260.178 55.4962 259.606 55.1969 259.156 54.7535C258.706 54.31 258.398 53.7424 258.27 53.1228C258.143 52.5033 258.203 51.8599 258.442 51.2746C258.682 50.6892 259.089 50.1884 259.614 49.8358C260.138 49.4833 260.755 49.295 261.387 49.2949C262.221 49.2948 263.023 49.6233 263.618 50.2095C264.213 50.7957 264.554 51.5927 264.568 52.4287V52.4287Z" fill="white"/>
<path d="M215.543 0H240.82C244.96 0 248.93 1.6471 251.858 4.57895C254.785 7.5108 256.429 11.4872 256.429 15.6335V24.2073H198.052V17.6053C198.052 12.9513 199.892 8.4866 203.17 5.18749C206.447 1.88838 210.896 0.02327 215.543 0V0Z" fill="#75CCDD"/>
<path d="M194.449 24.2071L186.838 15.5277C185.962 14.5097 185.396 13.2621 185.206 11.9322C185.015 10.6023 185.209 9.24554 185.763 8.02214C186.317 6.79873 187.21 5.75969 188.335 5.02764C189.459 4.29558 190.77 3.90106 192.111 3.89063H215.877C218.145 3.88942 220.387 4.37241 222.455 5.30742C224.522 6.24243 226.366 7.60798 227.865 9.31306L240.82 24.0311L194.449 24.2071Z" fill="#DCF7FE"/>
<path d="M240.082 119.205V164.257L260.051 178.042L272.76 172.672L252.791 161V119.205H240.082Z" fill="#FFC38D"/>
<path d="M276.436 182.253L275.709 179.898C272.518 169.559 261.562 163.769 251.239 166.966L157.932 195.858C147.609 199.054 141.828 210.027 145.02 220.366L145.747 222.721C148.938 233.06 159.894 238.85 170.217 235.653L263.523 206.761C273.847 203.565 279.628 192.592 276.436 182.253Z" fill="#92ECFE"/>
<path d="M277.822 185.416L277.084 183.05C273.842 172.661 262.806 166.871 252.433 170.118L158.675 199.462C148.302 202.709 142.521 213.763 145.763 224.151L146.501 226.518C149.742 236.907 160.779 242.697 171.152 239.45L264.91 210.106C275.283 206.859 281.064 195.805 277.822 185.416Z" fill="#7DA8FF"/>
<g style="mix-blend-mode:multiply" opacity="0.65">
<g style="mix-blend-mode:multiply" opacity="0.65">
<path d="M261.501 193.916L258.584 184.851L243.125 189.84L246.042 198.905L261.501 193.916Z" fill="#DAE2EA"/>
</g>
<g style="mix-blend-mode:multiply" opacity="0.65">
<path d="M258.328 205.508L249.919 179.386L247.024 180.32L255.434 206.443L258.328 205.508Z" fill="#B4C2CC"/>
</g>
<g style="mix-blend-mode:multiply" opacity="0.65">
<path d="M254.059 180.859L251.286 172.246L241.734 175.331L244.506 183.943L254.059 180.859Z" fill="#EED763"/>
</g>
<g style="mix-blend-mode:multiply" opacity="0.65">
<path d="M263.04 208.737L260.267 200.124L250.714 203.209L253.487 211.821L263.04 208.737Z" fill="#EED763"/>
</g>
</g>
<path d="M262.891 192.675L259.973 183.61L244.515 188.602L247.433 197.667L262.891 192.675Z" fill="#DAE2EA"/>
<path d="M259.684 204.227L251.275 178.104L248.381 179.039L256.79 205.162L259.684 204.227Z" fill="#B4C2CC"/>
<path d="M255.415 179.576L252.643 170.964L243.09 174.049L245.862 182.661L255.415 179.576Z" fill="#EED763"/>
<path d="M264.371 207.444L261.6 198.831L252.047 201.914L254.818 210.527L264.371 207.444Z" fill="#EED763"/>
<g style="mix-blend-mode:multiply" opacity="0.65">
<g style="mix-blend-mode:multiply" opacity="0.65">
<path d="M178.203 219.852L175.286 210.786L159.827 215.775L162.743 224.841L178.203 219.852Z" fill="#DAE2EA"/>
</g>
<g style="mix-blend-mode:multiply" opacity="0.65">
<path d="M175 231.435L166.591 205.312L163.696 206.247L172.106 232.37L175 231.435Z" fill="#B4C2CC"/>
</g>
<g style="mix-blend-mode:multiply" opacity="0.65">
<path d="M170.716 206.754L167.945 198.141L158.392 201.224L161.163 209.837L170.716 206.754Z" fill="#EED763"/>
</g>
<g style="mix-blend-mode:multiply" opacity="0.65">
<path d="M179.712 234.662L176.939 226.05L167.386 229.135L170.159 237.747L179.712 234.662Z" fill="#EED763"/>
</g>
</g>
<path d="M179.53 218.501L176.612 209.436L161.153 214.427L164.071 223.492L179.53 218.501Z" fill="#DAE2EA"/>
<path d="M176.323 230.052L167.914 203.93L165.019 204.864L173.429 230.987L176.323 230.052Z" fill="#B4C2CC"/>
<path d="M172.054 205.403L169.281 196.79L159.728 199.875L162.501 208.487L172.054 205.403Z" fill="#EED763"/>
<path d="M181.022 233.297L178.25 224.685L168.697 227.769L171.469 236.382L181.022 233.297Z" fill="#EED763"/>
<path d="M207.633 118.237H194.924V221.633H207.633V118.237Z" fill="#FFC38D"/>
<path d="M207.633 206.105V223.974H197.754C195.925 221.947 194.916 219.311 194.924 216.58C194.896 215.192 195.141 213.813 195.645 212.521C196.149 211.229 196.903 210.048 197.863 209.048C198.823 208.047 199.97 207.246 201.239 206.69C202.508 206.133 203.874 205.833 205.259 205.805C206.06 205.796 206.859 205.897 207.633 206.105V206.105Z" fill="#FF935F"/>
<path d="M215.595 218.922C215.516 220.95 214.843 222.91 213.66 224.559C212.478 226.207 210.837 227.47 208.943 228.192C207.048 228.914 204.984 229.062 203.007 228.618C201.029 228.174 199.225 227.158 197.82 225.695C196.415 224.233 195.47 222.388 195.102 220.392C194.735 218.396 194.962 216.336 195.755 214.468C196.548 212.599 197.871 211.006 199.561 209.885C201.251 208.765 203.233 208.167 205.259 208.165C208.054 208.221 210.712 209.385 212.65 211.401C214.588 213.418 215.647 216.123 215.595 218.922V218.922Z" fill="#FFC38D"/>
<path d="M220.992 40.4922C220.484 40.4922 219.996 40.6944 219.637 41.0542C219.278 41.4141 219.076 41.9022 219.076 42.4112V44.9639C219.122 45.4434 219.344 45.8886 219.7 46.2126C220.056 46.5366 220.52 46.7161 221.001 46.7161C221.482 46.7161 221.945 46.5366 222.301 46.2126C222.657 45.8886 222.88 45.4434 222.926 44.9639V42.3583C222.907 41.857 222.696 41.3824 222.335 41.0343C221.974 40.6862 221.493 40.4919 220.992 40.4922V40.4922Z" fill="#754040"/>
<path d="M229.886 40.4922C229.377 40.4922 228.888 40.6938 228.525 41.0532C228.163 41.4125 227.958 41.9006 227.953 42.4112V44.9639C227.999 45.4434 228.221 45.8886 228.577 46.2126C228.933 46.5366 229.397 46.7161 229.878 46.7161C230.359 46.7161 230.822 46.5366 231.178 46.2126C231.534 45.8886 231.757 45.4434 231.802 44.9639V42.3583C231.789 41.8586 231.581 41.384 231.223 41.0354C230.865 40.6869 230.386 40.492 229.886 40.4922V40.4922Z" fill="#754040"/>
<path d="M257.432 178.746C261.615 182.972 267.644 183.764 270.932 180.507C274.219 177.25 273.48 171.194 269.297 166.969C265.113 162.743 259.066 161.951 255.797 165.208C252.527 168.465 253.248 174.521 257.432 178.746Z" fill="#FFC38D"/>
</g>
<defs>
<clipPath id="clip0">
<rect width="138.111" height="352.053" fill="white" transform="translate(0 7.04199)"/>
</clipPath>
<clipPath id="clip1">
<rect width="134.859" height="365.75" fill="white" transform="translate(144.141)"/>
</clipPath>
</defs>
</svg>
