<svg width="196" height="331" viewBox="0 0 196 331" fill="none" xmlns="http://www.w3.org/2000/svg">
<g clip-path="url(#clip0)">
<path d="M136.584 270.85L140.24 324.268H150.487L154.475 269.743L136.584 270.85Z" fill="#FFC38D"/>
<path d="M154.475 270.923C154.475 275.848 150.469 255.706 145.539 255.706C140.609 255.706 136.584 275.848 136.584 270.923C136.529 269.716 136.72 268.509 137.144 267.377C137.569 266.245 138.219 265.211 139.055 264.337C139.891 263.463 140.896 262.767 142.009 262.292C143.122 261.816 144.319 261.571 145.53 261.571C146.74 261.571 147.937 261.816 149.05 262.292C150.163 262.767 151.168 263.463 152.004 264.337C152.84 265.211 153.49 266.245 153.915 267.377C154.339 268.509 154.53 269.716 154.475 270.923Z" fill="#FFC38D"/>
<path d="M150.487 324.268C150.491 325.283 150.193 326.276 149.631 327.121C149.069 327.967 148.269 328.627 147.331 329.018C146.394 329.409 145.361 329.513 144.364 329.318C143.367 329.122 142.451 328.635 141.731 327.918C141.012 327.202 140.521 326.288 140.321 325.293C140.122 324.298 140.222 323.266 140.61 322.328C140.998 321.39 141.656 320.588 142.501 320.024C143.345 319.459 144.338 319.158 145.354 319.158C146.027 319.156 146.695 319.286 147.317 319.542C147.94 319.798 148.506 320.174 148.983 320.648C149.46 321.123 149.838 321.687 150.096 322.308C150.354 322.929 150.487 323.595 150.487 324.268Z" fill="#FFC38D"/>
<path d="M158.63 209.483C158.63 212.109 157.85 214.677 156.389 216.861C154.928 219.045 152.852 220.747 150.423 221.753C147.994 222.758 145.321 223.021 142.742 222.508C140.164 221.996 137.795 220.731 135.936 218.874C134.076 217.016 132.81 214.65 132.297 212.074C131.784 209.498 132.048 206.827 133.054 204.401C134.06 201.974 135.764 199.9 137.95 198.44C140.136 196.981 142.707 196.202 145.336 196.202C148.862 196.202 152.243 197.601 154.736 200.092C157.229 202.583 158.63 205.961 158.63 209.483Z" fill="#FFC38D"/>
<path d="M154.475 270.923C154.475 275.848 150.469 255.706 145.539 255.706C140.609 255.706 136.584 275.848 136.584 270.923C136.529 269.716 136.72 268.509 137.144 267.377C137.569 266.245 138.219 265.211 139.055 264.337C139.891 263.463 140.896 262.767 142.009 262.292C143.122 261.816 144.319 261.571 145.53 261.571C146.74 261.571 147.937 261.816 149.05 262.292C150.163 262.767 151.168 263.463 152.004 264.337C152.84 265.211 153.49 266.245 153.915 267.377C154.339 268.509 154.53 269.716 154.475 270.923Z" fill="#FFC38D"/>
<path d="M132.042 209.168L136.584 270.849H154.475L158.63 209.482L132.042 209.168Z" fill="#FFC38D"/>
<path d="M140.332 323.309L129.586 327.772C129.359 327.861 129.164 328.015 129.026 328.216C128.887 328.417 128.813 328.654 128.811 328.898V331H149.453C149.724 331 149.984 330.894 150.178 330.704C150.371 330.515 150.482 330.257 150.487 329.986V323.309H140.332Z" fill="#754040"/>
<path d="M174.416 270.85L170.779 324.268H160.513L156.543 269.743L174.416 270.85Z" fill="#FFC38D"/>
<path d="M156.543 270.923C156.543 275.848 160.531 255.706 165.48 255.706C170.428 255.706 174.416 275.848 174.416 270.923C174.416 268.556 173.475 266.285 171.799 264.611C170.123 262.936 167.85 261.996 165.48 261.996C163.11 261.996 160.837 262.936 159.161 264.611C157.485 266.285 156.543 268.556 156.543 270.923Z" fill="#FFC38D"/>
<path d="M165.646 329.395C168.481 329.395 170.779 327.099 170.779 324.267C170.779 321.435 168.481 319.14 165.646 319.14C162.811 319.14 160.513 321.435 160.513 324.267C160.513 327.099 162.811 329.395 165.646 329.395Z" fill="#FFC38D"/>
<path d="M152.389 209.483C152.389 212.11 153.169 214.679 154.631 216.863C156.092 219.047 158.169 220.75 160.6 221.754C163.03 222.759 165.704 223.021 168.283 222.507C170.862 221.993 173.231 220.726 175.089 218.867C176.948 217.008 178.213 214.64 178.723 212.062C179.234 209.485 178.968 206.814 177.959 204.388C176.95 201.961 175.244 199.888 173.055 198.431C170.866 196.974 168.294 196.199 165.664 196.202C163.919 196.202 162.192 196.546 160.58 197.213C158.968 197.881 157.504 198.86 156.271 200.093C155.038 201.327 154.06 202.791 153.394 204.402C152.728 206.013 152.387 207.74 152.389 209.483Z" fill="#FFC38D"/>
<path d="M156.543 270.923C156.543 275.848 160.531 255.706 165.48 255.706C170.428 255.706 174.416 275.848 174.416 270.923C174.416 268.556 173.475 266.285 171.799 264.611C170.123 262.936 167.85 261.996 165.48 261.996C163.11 261.996 160.837 262.936 159.161 264.611C157.485 266.285 156.543 268.556 156.543 270.923Z" fill="#FFC38D"/>
<path d="M178.958 209.168L174.416 270.849H156.543L152.389 209.482L178.958 209.168Z" fill="#FFC38D"/>
<path d="M170.686 323.309L181.469 327.772C181.694 327.862 181.887 328.017 182.022 328.218C182.157 328.419 182.228 328.656 182.226 328.898V331H161.547C161.276 331 161.016 330.894 160.822 330.704C160.629 330.515 160.518 330.257 160.513 329.986V323.309H170.686Z" fill="#754040"/>
<path d="M155.509 115.596C163.591 115.601 171.34 118.811 177.052 124.522C182.765 130.232 185.974 137.975 185.974 146.049V223.925C185.974 225.491 185.352 226.992 184.244 228.099C183.136 229.206 181.633 229.828 180.066 229.828H130.934C129.367 229.828 127.864 229.206 126.756 228.099C125.648 226.992 125.026 225.491 125.026 223.925V146.049C125.026 137.972 128.238 130.226 133.954 124.515C139.671 118.804 147.425 115.596 155.509 115.596Z" fill="#FFDA82"/>
<path d="M167.769 123.582C167.769 129.116 162.23 133.45 155.509 133.45C148.789 133.45 143.231 129.042 143.231 123.582C143.231 118.122 148.77 113.695 155.509 113.695C162.249 113.695 167.769 118.122 167.769 123.582Z" fill="#FFC38D"/>
<path d="M156.248 84.4414H154.623C151.329 84.4414 148.659 87.1088 148.659 90.3992V115.909C148.659 119.2 151.329 121.867 154.623 121.867H156.248C159.541 121.867 162.211 119.2 162.211 115.909V90.3992C162.211 87.1088 159.541 84.4414 156.248 84.4414Z" fill="#FFC38D"/>
<path d="M162.341 96.7996V113.714L148.807 110.578V96.7996C148.812 95.221 149.442 93.7084 150.559 92.5922C151.676 91.4759 153.19 90.8467 154.771 90.8418H156.377C157.957 90.8467 159.471 91.4759 160.589 92.5922C161.706 93.7084 162.336 95.221 162.341 96.7996Z" fill="#FF935F"/>
<path d="M176.447 210.184H134.572V267.678H176.447V210.184Z" fill="#536397"/>
<path d="M134.572 216.823V267.677H152.998V223.205L134.572 216.823Z" fill="#6E7EB5"/>
<path d="M155.509 108.015C147.903 108.005 140.61 104.982 135.231 99.6083C129.853 94.2348 126.827 86.9497 126.817 79.3505V71.253H123.216C122.225 71.253 121.243 71.0579 120.327 70.6788C119.41 70.2996 118.578 69.7439 117.877 69.0434C116.46 67.6286 115.665 65.7097 115.665 63.7089V62.1226C115.665 60.1201 116.46 58.1993 117.875 56.7816C119.291 55.3638 121.212 54.5649 123.216 54.56H126.909V40.8182C126.931 36.2427 128.431 31.7964 131.185 28.1407C133.94 24.485 137.802 21.8152 142.197 20.5284C144.108 19.9906 146.083 19.7175 148.068 19.7168H163.006C164.991 19.7175 166.966 19.9906 168.877 20.5284C173.271 21.8179 177.131 24.4884 179.885 28.1435C182.639 31.7986 184.14 36.2434 184.165 40.8182V54.56H187.747C189.753 54.5649 191.676 55.3632 193.094 56.7804C194.513 58.1976 195.312 60.1184 195.317 62.1226V63.7089C195.312 65.7114 194.512 67.6303 193.093 69.0445C191.674 70.4588 189.751 71.253 187.747 71.253H184.202V79.3505C184.192 86.9497 181.166 94.2348 175.787 99.6083C170.408 104.982 163.116 108.005 155.509 108.015Z" fill="#FFC38D"/>
<path d="M163.005 20.3437C165.698 20.3388 168.365 20.8651 170.854 21.8923C173.343 22.9195 175.604 24.4275 177.508 26.3296C179.412 28.2318 180.922 30.4908 181.95 32.9771C182.978 35.4633 183.505 38.1279 183.5 40.818V55.2238H187.747C189.577 55.2287 191.33 55.957 192.624 57.2497C193.918 58.5424 194.647 60.2942 194.652 62.1223V63.7086C194.642 65.5336 193.911 67.2807 192.618 68.5694C191.324 69.8581 189.573 70.5839 187.747 70.5887H183.5V79.3503C183.312 86.6543 180.276 93.5963 175.039 98.696C169.801 103.796 162.777 106.65 155.463 106.65C148.149 106.65 141.125 103.796 135.887 98.696C130.65 93.5963 127.614 86.6543 127.426 79.3503V70.5887H123.216C121.391 70.5839 119.642 69.8575 118.352 68.5682C117.061 67.279 116.334 65.5319 116.329 63.7086V62.1223C116.334 60.2974 117.061 58.5483 118.351 57.2562C119.641 55.964 121.39 55.2335 123.216 55.2238H127.463V40.818C127.461 38.127 127.99 35.462 129.02 32.9757C130.05 30.4893 131.561 28.2305 133.467 26.3285C135.372 24.4266 137.635 22.9189 140.125 21.892C142.614 20.865 145.282 20.3388 147.976 20.3437H163.005ZM163.005 19.0156H147.976C145.928 19.0174 143.89 19.303 141.92 19.8641C137.367 21.1763 133.362 23.9274 130.506 27.7052C127.65 31.483 126.096 36.0838 126.078 40.818V53.8957H123.216C121.036 53.9006 118.946 54.7695 117.405 56.3118C115.865 57.854 115 59.9437 115 62.1223V63.7086C115.005 65.8841 115.872 67.969 117.412 69.5073C118.952 71.0456 121.039 71.9119 123.216 71.9168H126.078V79.2949C126.078 87.0732 129.171 94.5329 134.677 100.033C140.182 105.533 147.649 108.623 155.435 108.623C163.221 108.623 170.689 105.533 176.194 100.033C181.7 94.5329 184.793 87.0732 184.793 79.2949V71.9168H187.71C189.889 71.9168 191.979 71.052 193.52 69.5127C195.061 67.9734 195.926 65.8856 195.926 63.7086V62.1223C195.926 59.9437 195.061 57.854 193.521 56.3118C191.98 54.7695 189.891 53.9006 187.71 53.8957H184.866V40.818C184.85 36.094 183.306 31.5018 180.465 27.7258C177.623 23.9498 173.636 21.1922 169.098 19.8641C167.116 19.3029 165.066 19.0174 163.005 19.0156Z" fill="#FFC38D"/>
<path d="M146.388 68.4678C146.388 70.8844 147.349 73.2021 149.06 74.9109C150.77 76.6198 153.09 77.5798 155.509 77.5798C157.928 77.5798 160.248 76.6198 161.959 74.9109C163.669 73.2021 164.63 70.8844 164.63 68.4678H146.388Z" fill="white"/>
<path d="M147.256 51.3127C147.802 51.3054 148.339 51.4608 148.796 51.7592C149.254 52.0575 149.612 52.4852 149.826 52.9878C150.039 53.4904 150.098 54.0451 149.994 54.5811C149.891 55.1172 149.63 55.6103 149.245 55.9976C148.86 56.385 148.368 56.6489 147.832 56.7559C147.296 56.8629 146.74 56.808 146.236 56.5983C145.731 56.3886 145.301 56.0335 144.999 55.5783C144.697 55.1232 144.538 54.5886 144.542 54.0427C144.547 53.3233 144.833 52.6345 145.341 52.1241C145.848 51.6137 146.536 51.3224 147.256 51.3127Z" fill="#754040"/>
<path d="M163.744 51.3135C164.289 51.3135 164.822 51.4752 165.274 51.778C165.727 52.0808 166.08 52.5111 166.287 53.0144C166.495 53.5177 166.549 54.0712 166.441 54.6048C166.333 55.1385 166.069 55.6281 165.683 56.0117C165.296 56.3954 164.804 56.6556 164.269 56.7596C163.734 56.8636 163.181 56.8065 162.678 56.5956C162.176 56.3848 161.748 56.0297 161.448 55.5753C161.148 55.1209 160.989 54.5877 160.993 54.0434C160.998 53.3177 161.29 52.6234 161.805 52.1119C162.321 51.6005 163.018 51.3135 163.744 51.3135Z" fill="#754040"/>
<g style="mix-blend-mode:multiply" opacity="0.33">
<g style="mix-blend-mode:multiply" opacity="0.33">
<path d="M134.793 72.397C136.363 72.397 137.637 71.1252 137.637 69.5564C137.637 67.9876 136.363 66.7158 134.793 66.7158C133.223 66.7158 131.95 67.9876 131.95 69.5564C131.95 71.1252 133.223 72.397 134.793 72.397Z" fill="#FF556D"/>
</g>
</g>
<g style="mix-blend-mode:multiply" opacity="0.33">
<g style="mix-blend-mode:multiply" opacity="0.33">
<path d="M176.207 72.397C177.777 72.397 179.05 71.1252 179.05 69.5564C179.05 67.9876 177.777 66.7158 176.207 66.7158C174.637 66.7158 173.364 67.9876 173.364 69.5564C173.364 71.1252 174.637 72.397 176.207 72.397Z" fill="#FF556D"/>
</g>
</g>
<path d="M140.849 43.8985C150.496 43.8985 158.316 36.0862 158.316 26.4493C158.316 16.8123 150.496 9 140.849 9C131.203 9 123.383 16.8123 123.383 26.4493C123.383 36.0862 131.203 43.8985 140.849 43.8985Z" fill="#754040"/>
<path d="M162.729 36.7971C170.05 36.7971 175.985 30.8676 175.985 23.5533C175.985 16.239 170.05 10.3096 162.729 10.3096C155.407 10.3096 149.472 16.239 149.472 23.5533C149.472 30.8676 155.407 36.7971 162.729 36.7971Z" fill="#754040"/>
<path d="M187.618 31.3559C187.618 33.0013 187.129 34.6096 186.214 35.9776C185.299 37.3457 183.999 38.4119 182.477 39.0416C180.956 39.6712 179.281 39.8359 177.666 39.5149C176.051 39.194 174.567 38.4017 173.402 37.2383C172.238 36.0748 171.445 34.5926 171.123 32.9789C170.802 31.3652 170.967 29.6925 171.597 28.1725C172.228 26.6524 173.295 25.3532 174.664 24.4391C176.034 23.525 177.644 23.0371 179.29 23.0371C181.499 23.0371 183.617 23.9136 185.179 25.4736C186.74 27.0337 187.618 29.1497 187.618 31.3559Z" fill="#754040"/>
<path d="M127.334 31.3555H126.318C125.288 31.3555 124.453 32.1896 124.453 33.2184V53.0841C124.453 54.1129 125.288 54.947 126.318 54.947H127.334C128.364 54.947 129.199 54.1129 129.199 53.0841V33.2184C129.199 32.1896 128.364 31.3555 127.334 31.3555Z" fill="#754040"/>
<path d="M184.7 31.3555H183.685C182.655 31.3555 181.82 32.1896 181.82 33.2184V53.0841C181.82 54.1129 182.655 54.947 183.685 54.947H184.7C185.73 54.947 186.565 54.1129 186.565 53.0841V33.2184C186.565 32.1896 185.73 31.3555 184.7 31.3555Z" fill="#754040"/>
<path d="M138.024 145.329H125.155V249.767H138.024V145.329Z" fill="#FFC38D"/>
<path d="M138.024 234.032V252.072H128.017C126.185 250.049 125.166 247.422 125.155 244.694C125.126 243.292 125.373 241.898 125.884 240.593C126.394 239.287 127.157 238.094 128.13 237.083C129.102 236.072 130.265 235.263 131.551 234.702C132.837 234.14 134.221 233.837 135.624 233.811C136.43 233.772 137.238 233.846 138.024 234.032Z" fill="#FF935F"/>
<path d="M146.093 247.056C146.147 249.885 145.075 252.62 143.112 254.661C141.15 256.701 138.456 257.88 135.624 257.938C132.735 257.938 129.964 256.792 127.921 254.751C125.878 252.71 124.73 249.942 124.73 247.056C124.73 244.169 125.878 241.401 127.921 239.36C129.964 237.319 132.735 236.173 135.624 236.173C138.456 236.231 141.15 237.41 143.112 239.45C145.075 241.491 146.147 244.226 146.093 247.056Z" fill="#FFC38D"/>
<path d="M185.586 145.329H172.717V249.767H185.586V145.329Z" fill="#FFC38D"/>
<path d="M172.717 234.033V252.072H182.743C184.568 250.047 185.58 247.42 185.586 244.694C185.618 243.294 185.373 241.9 184.865 240.594C184.356 239.289 183.595 238.096 182.624 237.085C181.653 236.074 180.491 235.264 179.207 234.702C177.922 234.141 176.538 233.838 175.136 233.812C174.323 233.773 173.509 233.848 172.717 234.033Z" fill="#FF935F"/>
<path d="M164.667 247.056C164.751 249.104 165.435 251.083 166.634 252.746C167.834 254.409 169.497 255.683 171.415 256.41C173.334 257.137 175.424 257.285 177.426 256.835C179.428 256.384 181.254 255.356 182.676 253.878C184.098 252.4 185.053 250.537 185.424 248.521C185.795 246.504 185.564 244.424 184.761 242.537C183.958 240.651 182.617 239.042 180.906 237.91C179.195 236.779 177.188 236.175 175.136 236.173C172.304 236.231 169.611 237.41 167.648 239.45C165.685 241.491 164.613 244.226 164.667 247.056Z" fill="#FFC38D"/>
</g>
<g clip-path="url(#clip1)">
<path d="M103 127.652H90.0298C82.878 127.632 76.0257 124.79 70.9755 119.748C65.9253 114.706 63.0893 107.876 63.0894 100.756V74.248H76.0593C83.2127 74.2627 90.0678 77.1034 95.119 82.1462C100.17 87.189 103.005 94.0217 103 101.144V127.652Z" fill="#EA4277"/>
<path d="M19.3065 39.9927C22.0391 35.1614 26.068 31.1822 30.9424 28.5003C37.6312 24.8109 46.1728 23.5381 50.1935 16.8604C49.3412 21.7119 53.8992 25.4012 57.2899 28.8692C60.3828 32.1282 62.6893 36.0458 64.0343 40.3247C59.4393 32.6693 49.5821 30.8799 40.9663 31.1013C32.9435 31.2673 24.4018 32.78 18.5098 38.48L19.3065 39.9927Z" fill="#9D5048"/>
<path d="M42.0967 142.391C58.8072 142.391 72.3537 131.514 72.3537 118.096C72.3537 104.679 58.8072 93.8018 42.0967 93.8018C25.3861 93.8018 11.8396 104.679 11.8396 118.096C11.8396 131.514 25.3861 142.391 42.0967 142.391Z" fill="#F0F0F0"/>
<path d="M40.4847 83.7486C62.2298 83.7486 79.8577 65.0008 79.8577 41.8743C79.8577 18.7478 62.2298 0 40.4847 0C18.7395 0 1.11157 18.7478 1.11157 41.8743C1.11157 65.0008 18.7395 83.7486 40.4847 83.7486Z" fill="#EA4277"/>
<path d="M41.2073 80.6858C58.7467 80.6858 72.9652 65.7784 72.9652 47.3893C72.9652 29.0001 58.7467 14.0928 41.2073 14.0928C23.6679 14.0928 9.44946 29.0001 9.44946 47.3893C9.44946 65.7784 23.6679 80.6858 41.2073 80.6858Z" fill="#FFC38D"/>
<path d="M7.9855 63.6599C11.0759 63.6599 13.5811 61.2565 13.5811 58.2919C13.5811 55.3272 11.0759 52.9238 7.9855 52.9238C4.89513 52.9238 2.38989 55.3272 2.38989 58.2919C2.38989 61.2565 4.89513 63.6599 7.9855 63.6599Z" fill="#FFC38D"/>
<path d="M7.98563 65.8366C5.97578 65.8366 4.04824 65.0417 2.62706 63.6268C1.20588 62.2119 0.407471 60.2928 0.407471 58.2918C0.407471 56.2908 1.20588 54.3718 2.62706 52.9569C4.04824 51.542 5.97578 50.7471 7.98563 50.7471C9.99549 50.7471 11.923 51.542 13.3442 52.9569C14.7654 54.3718 15.5638 56.2908 15.5638 58.2918C15.5638 60.2928 14.7654 62.2119 13.3442 63.6268C11.923 65.0417 9.99549 65.8366 7.98563 65.8366ZM7.98563 55.119C7.14041 55.119 6.32981 55.4532 5.73215 56.0483C5.13449 56.6433 4.79873 57.4503 4.79873 58.2918C4.79873 59.1333 5.13449 59.9403 5.73215 60.5354C6.32981 61.1304 7.14041 61.4647 7.98563 61.4647C8.83085 61.4647 9.64145 61.1304 10.2391 60.5354C10.8368 59.9403 11.1725 59.1333 11.1725 58.2918C11.1725 57.4503 10.8368 56.6433 10.2391 56.0483C9.64145 55.4532 8.83085 55.119 7.98563 55.119Z" fill="#FFC38D"/>
<path d="M72.9652 63.6599C76.0556 63.6599 78.5609 61.2565 78.5609 58.2919C78.5609 55.3272 76.0556 52.9238 72.9652 52.9238C69.8749 52.9238 67.3696 55.3272 67.3696 58.2919C67.3696 61.2565 69.8749 63.6599 72.9652 63.6599Z" fill="#FFC38D"/>
<path d="M72.9652 65.8368C71.4757 65.7969 70.0311 65.3207 68.8119 64.4678C67.5928 63.6149 66.6533 62.4231 66.1109 61.0414C65.5684 59.6598 65.4471 58.1496 65.7621 56.6997C66.0771 55.2497 66.8145 53.9244 67.882 52.8895C68.9495 51.8545 70.2997 51.1559 71.7639 50.8808C73.2281 50.6058 74.7413 50.7666 76.1141 51.3431C77.487 51.9196 78.6588 52.8863 79.4828 54.1222C80.3068 55.3582 80.7466 56.8086 80.7471 58.292C80.7179 60.3192 79.8821 62.252 78.4232 63.6665C76.9643 65.0809 75.0014 65.8614 72.9652 65.8368ZM72.9652 55.1192C72.3462 55.1623 71.7533 55.3843 71.2593 55.7581C70.7652 56.1319 70.3915 56.6412 70.1841 57.2234C69.9766 57.8056 69.9443 58.4354 70.0913 59.0356C70.2382 59.6358 70.5579 60.1803 71.0112 60.6021C71.4645 61.024 72.0317 61.305 72.6431 61.4105C73.2544 61.516 73.8835 61.4416 74.453 61.1963C75.0225 60.951 75.5076 60.5455 75.849 60.0296C76.1903 59.5137 76.3729 58.9098 76.3744 58.292C76.3601 57.8607 76.2605 57.4365 76.0813 57.0436C75.9022 56.6507 75.647 56.2967 75.3304 56.0021C75.0137 55.7074 74.6419 55.4777 74.236 55.3263C73.8302 55.1748 73.3983 55.1044 72.9652 55.1192Z" fill="#FFC38D"/>
<path d="M5.2063 37.336H36.2971C46.8584 37.336 55.4371 29.5146 55.4371 19.8669V14.9785C55.2739 11.8432 53.8745 8.89878 51.5431 6.78489C49.2117 4.671 46.1366 3.55847 42.9859 3.68903H35.2966C18.6209 3.68903 5.2063 15.9931 5.2063 31.1748V37.336Z" fill="#EA4277"/>
<path d="M36.2787 40.583C36.067 40.583 35.8574 40.6245 35.6619 40.7052C35.4663 40.7858 35.2886 40.904 35.1389 41.0531C34.9892 41.2021 34.8705 41.379 34.7895 41.5737C34.7084 41.7684 34.6667 41.9771 34.6667 42.1879V44.918C34.6667 45.3436 34.8366 45.7519 35.1389 46.0528C35.4412 46.3538 35.8512 46.5229 36.2787 46.5229C36.7063 46.5229 37.1163 46.3538 37.4186 46.0528C37.7209 45.7519 37.8907 45.3436 37.8907 44.918V42.2432C37.8982 42.0279 37.862 41.8132 37.7843 41.6121C37.7067 41.4109 37.5891 41.2274 37.4387 41.0725C37.2882 40.9175 37.108 40.7943 36.9087 40.7102C36.7094 40.6262 36.4952 40.5829 36.2787 40.583Z" fill="#754040"/>
<path d="M44.0422 40.583C43.8305 40.583 43.6209 40.6245 43.4253 40.7052C43.2297 40.7858 43.052 40.904 42.9023 41.0531C42.7526 41.2021 42.6339 41.379 42.5529 41.5737C42.4719 41.7684 42.4302 41.9771 42.4302 42.1879V44.918C42.4302 45.3436 42.6 45.7519 42.9023 46.0528C43.2046 46.3538 43.6146 46.5229 44.0422 46.5229C44.4697 46.5229 44.8797 46.3538 45.182 46.0528C45.4843 45.7519 45.6541 45.3436 45.6541 44.918V42.2432C45.6616 42.0279 45.6254 41.8132 45.5478 41.6121C45.4701 41.4109 45.3526 41.2274 45.2021 41.0725C45.0517 40.9175 44.8714 40.7943 44.6722 40.7102C44.4729 40.6262 44.2586 40.5829 44.0422 40.583Z" fill="#754040"/>
<g style="mix-blend-mode:multiply" opacity="0.33">
<g style="mix-blend-mode:multiply" opacity="0.33">
<path d="M27.7925 49.1794C27.7925 49.7202 27.6312 50.2487 27.3291 50.6981C27.0269 51.1474 26.5976 51.4974 26.0954 51.7034C25.5932 51.9095 25.0409 51.9625 24.5085 51.8557C23.9761 51.7488 23.4875 51.4869 23.1047 51.1033C22.722 50.7196 22.4623 50.2314 22.3586 49.7006C22.2549 49.1698 22.3118 48.6203 22.5222 48.1218C22.7326 47.6233 23.087 47.1982 23.5403 46.9004C23.9937 46.6026 24.5257 46.4456 25.0689 46.4493C25.7929 46.4542 26.4857 46.7439 26.9959 47.2554C27.5062 47.7669 27.7926 48.4585 27.7925 49.1794Z" fill="#FF556D"/>
</g>
</g>
<g style="mix-blend-mode:multiply" opacity="0.33">
<g style="mix-blend-mode:multiply" opacity="0.33">
<path d="M58.6797 49.1793C58.6797 49.7193 58.5189 50.2472 58.2176 50.6961C57.9163 51.1451 57.488 51.495 56.9869 51.7017C56.4859 51.9083 55.9345 51.9624 55.4026 51.857C54.8706 51.7517 54.382 51.4917 53.9985 51.1098C53.615 50.728 53.3538 50.2416 53.248 49.712C53.1422 49.1824 53.1965 48.6334 53.4041 48.1346C53.6116 47.6357 53.9631 47.2093 54.414 46.9093C54.865 46.6093 55.3952 46.4492 55.9375 46.4492C56.6633 46.4541 57.358 46.7432 57.8712 47.2542C58.3844 47.7651 58.6749 48.4568 58.6797 49.1793Z" fill="#FF556D"/>
</g>
</g>
<path d="M41.0219 59.9706C39.6361 59.9706 38.3071 59.4225 37.3273 58.4469C36.3474 57.4714 35.7969 56.1482 35.7969 54.7686H37.6497C37.6497 55.6639 38.007 56.5225 38.6428 57.1556C39.2787 57.7887 40.1412 58.1443 41.0404 58.1443C41.9397 58.1443 42.8022 57.7887 43.438 57.1556C44.0739 56.5225 44.4312 55.6639 44.4312 54.7686H46.284C46.2816 55.4541 46.1435 56.1325 45.8778 56.7649C45.612 57.3974 45.2237 57.9715 44.7351 58.4546C44.2465 58.9376 43.6671 59.3201 43.03 59.5803C42.3928 59.8404 41.7105 59.973 41.0219 59.9706Z" fill="#754040"/>
<path d="M51.9168 65.8184H32.2766V108.67H51.9168V65.8184Z" fill="#FFC38D"/>
<path d="M42.0967 114.13C48.8607 114.13 54.3441 109.728 54.3441 104.298C54.3441 98.8678 48.8607 94.4658 42.0967 94.4658C35.3327 94.4658 29.8494 98.8678 29.8494 104.298C29.8494 109.728 35.3327 114.13 42.0967 114.13Z" fill="#FFC38D"/>
<path d="M71.7794 173.253C71.7598 180.806 68.7375 188.044 63.3732 193.384C58.0089 198.725 50.739 201.734 43.1528 201.753H37.7981C30.2279 201.709 22.9817 198.69 17.6374 193.352C12.2931 188.014 9.28358 180.79 9.26416 173.253H71.7794Z" fill="#75CCDD"/>
<path d="M45.2095 194.337L48.3037 315.773H59.9026L68.0922 193.378L45.2095 194.337Z" fill="#FFC38D"/>
<path d="M58.5684 315.772L70.0932 320.532C70.3353 320.631 70.5423 320.8 70.6875 321.017C70.8327 321.233 70.9097 321.489 70.9084 321.749V324H48.6742C48.5291 324.002 48.385 323.976 48.2502 323.922C48.1154 323.869 47.9927 323.789 47.8892 323.688C47.7857 323.586 47.7035 323.465 47.6475 323.332C47.5914 323.199 47.5625 323.056 47.5625 322.911V315.772H58.5684Z" fill="#FF556D"/>
<path d="M71.4274 176.85L72.4835 198.137L72.6503 201.089L69.5375 201.384L68.3146 201.495L54.6962 202.767L47.5441 203.45L44.3017 203.745L41.2074 204.04H41.0777L41.0592 201.919V200.443L41.0221 198.709L40.948 180.152L71.4274 176.85Z" fill="#75CCDD"/>
<path d="M44.1349 200.203L45.1354 200.129L45.6913 200.092H45.7284L69.871 198.321L72.4835 198.137L74.3549 198.008L74.9663 206.401L68.9446 206.844L68.4814 206.881H68.4628L44.5796 208.615L41.5594 208.836L41.2074 204.04L41.0592 201.919L40.948 200.443H41.0592L44.1349 200.203Z" fill="#A0EEF9"/>
<path d="M35.7414 194.337L32.6656 315.773H21.0482L12.8586 193.378L35.7414 194.337Z" fill="#FFC38D"/>
<path d="M22.4008 315.772L10.8575 320.532C10.6154 320.631 10.4084 320.8 10.2632 321.017C10.1179 321.233 10.041 321.489 10.0423 321.749V324H32.2765C32.4216 324.002 32.5657 323.976 32.7005 323.922C32.8353 323.869 32.958 323.789 33.0615 323.688C33.1649 323.586 33.2471 323.465 33.3032 323.332C33.3593 323.199 33.3882 323.056 33.3882 322.911V315.772H22.4008Z" fill="#FF556D"/>
<path d="M9.52345 176.85L8.46732 198.137L8.31909 201.089L11.4134 201.384L12.6548 201.495L26.2547 202.767L33.4252 203.45L36.6492 203.745L39.7434 204.04H39.8731L39.8917 201.919V200.443L39.9287 198.709L40.0028 180.152L9.52345 176.85Z" fill="#75CCDD"/>
<path d="M36.8161 200.203L35.8155 200.129L35.2597 200.092H35.2411L11.08 198.321L8.46744 198.137L6.59606 198.008L5.98462 206.401L12.0249 206.844L12.4696 206.881H12.5067L36.3714 208.615L39.3915 208.836L39.7436 204.04L39.8918 201.919L40.003 200.443H39.8918L36.8161 200.203Z" fill="#A0EEF9"/>
<path d="M37.7979 103.781H43.1527C46.9119 103.781 50.6344 104.518 54.1076 105.951C57.5807 107.383 60.7365 109.482 63.3947 112.129C66.0529 114.775 68.1615 117.917 69.6001 121.375C71.0388 124.833 71.7792 128.539 71.7792 132.282V181.959C71.7792 183.427 71.1936 184.834 70.1512 185.872C69.1087 186.91 67.6949 187.493 66.2207 187.493H14.7114C13.2372 187.493 11.8233 186.91 10.7809 185.872C9.73846 184.834 9.15283 183.427 9.15283 181.959V132.282C9.15283 128.537 9.89389 124.83 11.3337 121.371C12.7734 117.912 14.8837 114.769 17.5439 112.122C20.2041 109.476 23.362 107.377 26.8373 105.945C30.3126 104.514 34.0371 103.779 37.7979 103.781Z" fill="#B8DFFF"/>
<path d="M52.0279 110.681C52.0279 115.367 46.8585 119.148 40.4846 119.148C34.1108 119.148 28.9229 115.459 28.9229 110.681C28.9229 105.903 34.0923 102.232 40.4846 102.232C46.877 102.232 52.0279 105.94 52.0279 110.681Z" fill="#FFC38D"/>
<path d="M71.5013 176.85H9.46787C7.3087 176.85 5.55835 178.592 5.55835 180.742V183.767C5.55835 185.917 7.3087 187.659 9.46787 187.659H71.5013C73.6605 187.659 75.4108 185.917 75.4108 183.767V180.742C75.4108 178.592 73.6605 176.85 71.5013 176.85Z" fill="#DCF2FF"/>
<path d="M59.0151 116.948L59.0933 154.1L78.4555 154.059L78.3774 116.907L59.0151 116.948Z" fill="#DCF7FE"/>
<path d="M68.7036 127.135C66.787 127.139 64.9124 126.577 63.3167 125.52C61.7211 124.462 60.4762 122.958 59.7394 121.197C59.0025 119.435 58.8069 117.496 59.1772 115.623C59.5475 113.751 60.4672 112.03 61.8198 110.679C63.1724 109.327 64.8973 108.405 66.7764 108.029C68.6554 107.653 70.6042 107.84 72.3763 108.567C74.1484 109.294 75.6642 110.528 76.732 112.112C77.7999 113.697 78.3718 115.561 78.3754 117.469C78.3779 118.736 78.1296 119.991 77.6449 121.162C77.1602 122.334 76.4484 123.399 75.5503 124.296C74.6522 125.194 73.5853 125.907 72.4105 126.394C71.2357 126.881 69.9761 127.133 68.7036 127.135Z" fill="#DCF7FE"/>
<path d="M2.58426 116.884L2.5061 154.036L21.8684 154.077L21.9465 116.925L2.58426 116.884Z" fill="#DCF7FE"/>
<path d="M12.2471 127.135C14.1637 127.139 16.0383 126.577 17.6339 125.52C19.2295 124.462 20.4744 122.958 21.2113 121.197C21.9481 119.435 22.1437 117.496 21.7734 115.623C21.4031 113.751 20.4835 112.03 19.1308 110.679C17.7782 109.327 16.0533 108.405 14.1743 108.029C12.2952 107.653 10.3465 107.84 8.57438 108.567C6.80229 109.294 5.28648 110.528 4.21864 112.112C3.1508 113.697 2.57888 115.561 2.57521 117.469C2.57278 118.736 2.82102 119.991 3.30576 121.162C3.7905 122.334 4.50224 123.399 5.40036 124.296C6.29848 125.194 7.36538 125.907 8.54014 126.394C9.71491 126.881 10.9745 127.133 12.2471 127.135Z" fill="#DCF7FE"/>
<path d="M68.5553 137.355C61.848 142.336 54.029 143.203 51.083 139.292C48.1369 135.381 51.1941 128.224 57.92 123.169C64.6458 118.115 72.4463 117.303 75.3738 121.214C78.3013 125.125 75.2997 132.356 68.5553 137.355Z" fill="#C56E53"/>
<path d="M12.9698 147.777C4.79868 145.932 -0.982218 140.675 -0.000206389 135.897C0.981805 131.119 8.52291 128.703 16.6755 130.474C24.828 132.245 30.6274 137.576 29.6454 142.354C28.6634 147.131 21.2149 149.566 12.9698 147.777Z" fill="#C56E53"/>
<path d="M62.8301 173.271C55.4187 169.581 51.083 162.922 53.2879 158.513C55.4928 154.105 63.3489 153.643 70.8344 157.388C78.3199 161.133 82.5815 167.737 80.3766 172.146C78.1717 176.554 70.2971 177.089 62.8301 173.271Z" fill="#C56E53"/>
<path d="M34.4073 180.945C28.9599 187.254 21.4373 189.799 17.7316 186.608C14.0259 183.417 15.4156 175.706 20.8815 169.379C26.3474 163.052 33.8514 160.524 37.5571 163.716C41.2628 166.907 39.8732 174.618 34.4073 180.945Z" fill="#C56E53"/>
<path d="M49.5385 134.699C61.85 126.694 65.3119 110.268 57.2708 98.0103C49.2297 85.7531 32.7307 82.3065 20.4192 90.3121C8.10765 98.3178 4.64579 114.744 12.6869 127.001C20.728 139.259 37.227 142.705 49.5385 134.699Z" fill="#E08E66"/>
<path d="M67.5089 159.298C71.2087 145.74 63.1688 131.763 49.5511 128.08C35.9334 124.396 21.8948 132.401 18.195 145.959C14.4952 159.516 22.5351 173.493 36.1528 177.176C49.7705 180.86 63.8091 172.855 67.5089 159.298Z" fill="#E08E66"/>
<path d="M60.7364 95.6833C59.8825 96.9321 58.6758 97.9008 57.2689 98.4668C55.862 99.0328 54.3181 99.1706 52.8325 98.8629C51.3469 98.5551 49.9864 97.8156 48.923 96.7379C47.8596 95.6602 47.1412 94.2927 46.8586 92.8084C46.576 91.3241 46.7419 89.7897 47.3353 88.3993C47.9288 87.0089 48.9231 85.825 50.1925 84.9973C51.4619 84.1696 52.9493 83.7353 54.4667 83.7494C55.984 83.7634 57.4631 84.2252 58.7168 85.0764C60.3967 86.2168 61.5531 87.9747 61.9318 89.9636C62.3105 91.9526 61.8805 94.0098 60.7364 95.6833Z" fill="#C56E53"/>
<path d="M14.8226 107.564C13.9486 108.838 12.7147 109.826 11.2769 110.402C9.83906 110.978 8.26193 111.117 6.74485 110.801C5.22777 110.485 3.83888 109.728 2.75375 108.626C1.66862 107.525 0.935991 106.127 0.648481 104.611C0.36097 103.094 0.531489 101.527 1.13848 100.108C1.74547 98.6877 2.76168 97.4789 4.05862 96.634C5.35557 95.7891 6.87503 95.346 8.42488 95.3607C9.97474 95.3754 11.4854 95.8474 12.7659 96.7168C13.6185 97.2927 14.3483 98.0307 14.9135 98.8884C15.4787 99.7461 15.868 100.707 16.0591 101.714C16.2503 102.722 16.2394 103.758 16.0272 104.762C15.815 105.766 15.4056 106.718 14.8226 107.564Z" fill="#C56E53"/>
<path d="M28.4412 114.814C28.0985 115.314 27.6148 115.701 27.051 115.928C26.4872 116.154 25.8687 116.209 25.2736 116.085C24.6785 115.962 24.1335 115.666 23.7073 115.234C23.2812 114.803 22.993 114.255 22.8793 113.661C22.7655 113.066 22.8313 112.451 23.0682 111.894C23.3052 111.337 23.7027 110.862 24.2106 110.529C24.7185 110.197 25.3139 110.021 25.9218 110.025C26.5297 110.03 27.1227 110.213 27.6259 110.552C27.963 110.777 28.2519 111.066 28.4757 111.402C28.6995 111.739 28.8539 112.117 28.9298 112.513C29.0056 112.91 29.0015 113.317 28.9176 113.712C28.8337 114.107 28.6718 114.482 28.4412 114.814Z" fill="#C56E53"/>
<path d="M47.1178 110.571C46.777 111.073 46.2941 111.464 45.7302 111.693C45.1663 111.921 44.5468 111.979 43.9503 111.857C43.3537 111.735 42.807 111.439 42.3793 111.008C41.9515 110.576 41.6621 110.028 41.5477 109.432C41.4333 108.837 41.499 108.221 41.7365 107.663C41.974 107.105 42.3726 106.629 42.8819 106.296C43.3911 105.964 43.988 105.789 44.597 105.795C45.2059 105.801 45.7995 105.986 46.3025 106.328C46.637 106.552 46.9236 106.84 47.1458 107.175C47.368 107.51 47.5214 107.886 47.5972 108.28C47.6729 108.675 47.6696 109.08 47.5873 109.473C47.505 109.866 47.3455 110.239 47.1178 110.571Z" fill="#C56E53"/>
<path d="M41.8928 123.207C41.2496 124.147 40.341 124.877 39.2816 125.303C38.2223 125.73 37.0598 125.834 35.9409 125.603C34.8221 125.372 33.7971 124.816 32.9954 124.005C32.1937 123.195 31.6513 122.166 31.4366 121.048C31.222 119.931 31.3448 118.775 31.7895 117.728C32.2342 116.68 32.9808 115.786 33.9351 115.161C34.8894 114.535 36.0085 114.205 37.1511 114.212C38.2938 114.219 39.4086 114.563 40.3549 115.201C40.9848 115.625 41.5243 116.169 41.9426 116.802C42.3609 117.434 42.6498 118.143 42.7926 118.886C42.9355 119.63 42.9296 120.394 42.7751 121.136C42.6207 121.877 42.3209 122.581 41.8928 123.207Z" fill="#754040"/>
<path d="M44.876 181.701C44.2544 181.172 43.4892 180.839 42.6773 180.743C41.8653 180.648 41.0431 180.794 40.3147 181.164C39.5863 181.534 38.9845 182.11 38.5854 182.821C38.1863 183.531 38.008 184.344 38.0729 185.155C38.1377 185.966 38.443 186.74 38.95 187.379C39.4569 188.018 40.1428 188.492 40.9208 188.743C41.6988 188.993 42.5339 189.008 43.3204 188.786C44.1069 188.563 44.8095 188.114 45.3392 187.494C46.048 186.664 46.3973 185.588 46.3105 184.502C46.2237 183.416 45.7078 182.409 44.876 181.701Z" fill="#F6C4A9"/>
<path d="M45.3392 187.494L75.9854 160.211L61.2367 147.704L39.0396 182.163L45.3392 187.494Z" fill="#FFC38D"/>
<path d="M74.8922 146.615C73.4351 145.375 71.6413 144.593 69.7377 144.368C67.8341 144.143 65.9062 144.485 64.198 145.351C62.4897 146.217 61.0778 147.568 60.1409 149.233C59.2041 150.898 58.7843 152.803 58.9347 154.705C59.0851 156.608 59.7989 158.424 60.9859 159.922C62.1728 161.421 63.7796 162.535 65.6029 163.125C67.4262 163.714 69.3841 163.752 71.2289 163.233C73.0737 162.714 74.7226 161.662 75.9668 160.211C77.6293 158.263 78.4495 155.74 78.2481 153.192C78.0467 150.644 76.8401 148.28 74.8922 146.615Z" fill="#F6C4A9"/>
<path d="M39.5211 187.954C38.8989 187.428 38.1339 187.097 37.3228 187.003C36.5118 186.909 35.691 187.057 34.9641 187.427C34.2372 187.797 33.6368 188.374 33.2386 189.083C32.8405 189.793 32.6625 190.604 32.7271 191.415C32.7917 192.225 33.096 192.998 33.6016 193.637C34.1072 194.275 34.7914 194.75 35.5679 195.001C36.3443 195.253 37.1782 195.269 37.9643 195.049C38.7503 194.829 39.4532 194.382 39.9843 193.765C40.3382 193.354 40.6069 192.877 40.7752 192.362C40.9434 191.847 41.0079 191.304 40.9649 190.764C40.9218 190.224 40.7721 189.698 40.5244 189.216C40.2766 188.734 39.9357 188.305 39.5211 187.954Z" fill="#F6C4A9"/>
<path d="M39.0398 182.158L33.6807 188.421L39.971 193.756L45.3302 187.494L39.0398 182.158Z" fill="#F6C4A9"/>
<path d="M44.876 181.701C44.2544 181.172 43.4892 180.839 42.6773 180.743C41.8653 180.648 41.0431 180.794 40.3147 181.164C39.5863 181.534 38.9845 182.11 38.5854 182.821C38.1863 183.531 38.008 184.344 38.0729 185.155C38.1377 185.966 38.443 186.74 38.95 187.379C39.4569 188.018 40.1428 188.492 40.9208 188.743C41.6988 188.993 42.5339 189.008 43.3204 188.786C44.1069 188.563 44.8095 188.114 45.3392 187.494C46.048 186.664 46.3973 185.588 46.3105 184.502C46.2237 183.416 45.7078 182.409 44.876 181.701Z" fill="#F6C4A9"/>
<path d="M68.7407 143.608C66.8233 143.612 64.9501 144.182 63.3582 145.246C61.7663 146.31 60.5271 147.82 59.7976 149.585C59.0681 151.351 58.8811 153.292 59.2601 155.163C59.6391 157.034 60.5671 158.752 61.9268 160.098C63.2865 161.444 65.0166 162.358 66.8983 162.724C68.78 163.091 70.7286 162.893 72.4976 162.157C74.2665 161.421 75.7763 160.178 76.8358 158.587C77.8953 156.996 78.4569 155.128 78.4496 153.219C78.4472 151.953 78.194 150.7 77.7045 149.531C77.2151 148.363 76.4989 147.302 75.5971 146.409C74.6953 145.517 73.6256 144.81 72.449 144.329C71.2725 143.848 70.0123 143.604 68.7407 143.608Z" fill="#DCF7FE"/>
<path d="M36.075 181.701C36.6966 181.172 37.4618 180.839 38.2737 180.743C39.0857 180.648 39.9079 180.794 40.6363 181.164C41.3647 181.534 41.9665 182.11 42.3656 182.821C42.7646 183.531 42.943 184.344 42.8781 185.155C42.8132 185.966 42.508 186.74 42.001 187.379C41.4941 188.018 40.8082 188.492 40.0302 188.743C39.2522 188.993 38.4171 189.008 37.6306 188.786C36.8441 188.563 36.1415 188.114 35.6118 187.494C34.903 186.664 34.5536 185.588 34.6405 184.502C34.7273 183.416 35.2432 182.409 36.075 181.701Z" fill="#FFC38D"/>
<path d="M35.6118 187.494L4.98413 160.211L19.7143 147.704L41.9115 182.163L35.6118 187.494Z" fill="#FFC38D"/>
<path d="M6.05874 146.615C7.51582 145.375 9.30963 144.593 11.2132 144.368C13.1168 144.143 15.0447 144.485 16.753 145.351C18.4612 146.217 19.8731 147.568 20.81 149.233C21.7469 150.898 22.1667 152.803 22.0163 154.705C21.8659 156.608 21.152 158.424 19.9651 159.922C18.7781 161.421 17.1714 162.535 15.3481 163.125C13.5248 163.714 11.5669 163.752 9.72204 163.233C7.87722 162.714 6.22837 161.662 4.98409 160.211C3.32164 158.263 2.50141 155.74 2.7028 153.192C2.90419 150.644 4.11081 148.28 6.05874 146.615Z" fill="#FFC38D"/>
<path d="M41.4483 187.955C42.0723 187.431 42.8383 187.102 43.6496 187.011C44.4608 186.92 45.281 187.07 46.0066 187.443C46.7322 187.816 47.3307 188.394 47.7265 189.105C48.1223 189.816 48.2977 190.627 48.2306 191.437C48.1634 192.247 47.8567 193.02 47.3492 193.656C46.8417 194.293 46.156 194.766 45.3789 195.015C44.6018 195.264 43.7679 195.278 42.9826 195.056C42.1973 194.833 41.4958 194.385 40.9666 193.766C40.6115 193.354 40.3421 192.877 40.1739 192.361C40.0058 191.845 39.9423 191.301 39.9871 190.76C40.0319 190.219 40.1842 189.693 40.435 189.211C40.6858 188.73 41.0303 188.303 41.4483 187.955Z" fill="#F6C4A9"/>
<path d="M41.9056 182.139L35.6152 187.475L40.9744 193.737L47.2647 188.402L41.9056 182.139Z" fill="#FFC38D"/>
<path d="M36.075 181.701C36.6966 181.172 37.4618 180.839 38.2737 180.743C39.0857 180.648 39.9079 180.794 40.6363 181.164C41.3647 181.534 41.9665 182.11 42.3656 182.821C42.7646 183.531 42.943 184.344 42.8781 185.155C42.8132 185.966 42.508 186.74 42.001 187.379C41.4941 188.018 40.8082 188.492 40.0302 188.743C39.2522 188.993 38.4171 189.008 37.6306 188.786C36.8441 188.563 36.1415 188.114 35.6118 187.494C34.903 186.664 34.5536 185.588 34.6405 184.502C34.7273 183.416 35.2432 182.409 36.075 181.701Z" fill="#F6C4A9"/>
<path d="M12.21 143.608C14.1274 143.612 16.0005 144.182 17.5925 145.246C19.1844 146.31 20.4235 147.82 21.153 149.585C21.8825 151.351 22.0696 153.292 21.6906 155.163C21.3116 157.034 20.3835 158.752 19.0238 160.098C17.6642 161.444 15.934 162.358 14.0523 162.724C12.1707 163.091 10.222 162.893 8.45309 162.157C6.68414 161.421 5.17437 160.178 4.11486 158.587C3.05535 156.996 2.49372 155.128 2.50105 153.219C2.50347 151.953 2.75666 150.7 3.24613 149.531C3.73559 148.363 4.45172 147.302 5.35352 146.409C6.25532 145.517 7.3251 144.81 8.50162 144.329C9.67814 143.848 10.9383 143.604 12.21 143.608Z" fill="#DCF7FE"/>
</g>
<defs>
<clipPath id="clip0">
<rect width="81" height="322" fill="white" transform="translate(115 9)"/>
</clipPath>
<clipPath id="clip1">
<rect width="103" height="324" fill="white"/>
</clipPath>
</defs>
</svg>
