<svg width="230" height="400" viewBox="0 0 230 400" fill="none" xmlns="http://www.w3.org/2000/svg">
<g clip-path="url(#clip0)">
<path d="M209.688 114.912H152.875C148.329 114.876 143.98 113.049 140.774 109.827C137.567 106.604 135.761 102.246 135.748 97.7002V97.7002C135.774 93.1627 137.586 88.818 140.791 85.6063C143.997 82.3946 148.338 80.5742 152.875 80.5391H209.688C214.24 80.5522 218.603 82.3629 221.826 85.577C225.05 88.7911 226.873 93.1483 226.9 97.7002V97.7002C226.886 102.261 225.069 106.631 221.844 109.856C218.619 113.081 214.249 114.898 209.688 114.912Z" fill="#EA4277"/>
<path d="M181.282 105.862C203.236 105.862 221.034 87.9218 221.034 65.7914C221.034 43.661 203.236 25.7207 181.282 25.7207C159.327 25.7207 141.53 43.661 141.53 65.7914C141.53 87.9218 159.327 105.862 181.282 105.862Z" fill="#EA4277"/>
<path d="M210.711 354.531L204.325 376.854L200.739 389.406H189.712L189.242 376.854L185.891 278.076H186.695H186.913L190.499 277.842L202.348 277.088L204.996 276.92L205.197 278.11L205.582 280.138L207.258 289.255L212.018 315.382C214.781 328.343 214.333 341.783 210.711 354.531V354.531Z" fill="#FFC38D"/>
<path d="M205.012 278.06C205.012 279.96 204.449 281.817 203.393 283.397C202.337 284.976 200.836 286.207 199.081 286.933C197.325 287.66 195.393 287.849 193.53 287.477C191.667 287.105 189.956 286.189 188.613 284.844C187.271 283.5 186.358 281.787 185.989 279.923C185.62 278.059 185.813 276.128 186.542 274.373C187.272 272.619 188.505 271.12 190.087 270.067C191.668 269.014 193.526 268.454 195.426 268.457C197.97 268.461 200.408 269.475 202.206 271.276C204.003 273.076 205.012 275.516 205.012 278.06Z" fill="#FFC38D"/>
<path d="M200.739 389.406C200.746 389.871 200.684 390.334 200.554 390.78C200.261 391.947 199.592 392.985 198.65 393.734C197.709 394.482 196.547 394.901 195.344 394.923C194.141 394.946 192.964 394.573 191.995 393.86C191.025 393.148 190.317 392.136 189.98 390.982C189.96 390.916 189.96 390.846 189.98 390.78C189.837 390.337 189.769 389.872 189.778 389.406C189.775 388.459 190.023 387.527 190.499 386.708C191.095 385.647 192.025 384.814 193.145 384.339C194.264 383.864 195.51 383.774 196.686 384.082C197.863 384.391 198.904 385.081 199.646 386.044C200.389 387.007 200.791 388.19 200.789 389.406H200.739Z" fill="#FFC38D"/>
<path d="M207.43 220.979C214.125 214.284 214.125 203.429 207.43 196.734C200.735 190.038 189.88 190.038 183.184 196.734C176.489 203.429 176.489 214.284 183.184 220.979C189.88 227.675 200.735 227.675 207.43 220.979Z" fill="#69CDE1"/>
<path d="M204.895 277.641C204.891 278.328 204.818 279.013 204.677 279.686C204.36 281.252 203.653 282.714 202.622 283.935C201.591 285.156 200.269 286.098 198.778 286.674C197.681 287.118 196.509 287.346 195.326 287.345C195.187 287.361 195.046 287.361 194.907 287.345C192.947 287.286 191.057 286.605 189.51 285.401C188.326 284.51 187.366 283.356 186.705 282.029C186.045 280.702 185.703 279.24 185.706 277.758V277.758C185.681 277.401 185.681 277.043 185.706 276.686C185.852 275.404 186.257 274.165 186.897 273.044C187.536 271.923 188.397 270.944 189.427 270.167C190.977 268.969 192.865 268.289 194.823 268.223H195.242C197.777 268.231 200.206 269.243 201.999 271.035C203.792 272.828 204.803 275.257 204.811 277.792L204.895 277.641Z" fill="#FFC38D"/>
<path d="M212.453 208.862L205.281 276.2L205.13 277.641H185.907V277.624L185.79 276.552L185.538 274.256L178.165 208.862H212.453Z" fill="#FFC38D"/>
<path d="M212.99 396.781V399.06H190.818C190.526 399.056 190.247 398.938 190.04 398.731C189.834 398.525 189.716 398.246 189.712 397.954V390.781H200.639L201.108 390.982L204.962 392.574L212.169 395.608C212.404 395.704 212.606 395.866 212.752 396.074C212.897 396.282 212.98 396.527 212.99 396.781V396.781Z" fill="#FFC38D"/>
<path d="M212.99 396.781V399.06H190.818C190.526 399.056 190.247 398.938 190.04 398.731C189.834 398.525 189.716 398.246 189.712 397.954V392.574H204.962L212.169 395.608C212.404 395.704 212.606 395.866 212.752 396.074C212.897 396.282 212.98 396.527 212.99 396.781V396.781Z" fill="#FFE8A4"/>
<path d="M157.87 354.531L164.238 376.854L167.808 389.406H178.852L179.321 376.854L182.673 278.076H181.852H181.651L178.064 277.842L166.216 277.088L163.568 276.92L163.367 278.11L162.981 280.138L161.305 289.255L156.562 315.331C153.79 328.309 154.239 341.767 157.87 354.531V354.531Z" fill="#FFC38D"/>
<path d="M173.154 287.663C178.457 287.663 182.757 283.363 182.757 278.06C182.757 272.756 178.457 268.457 173.154 268.457C167.85 268.457 163.551 272.756 163.551 278.06C163.551 283.363 167.85 287.663 173.154 287.663Z" fill="#FFC38D"/>
<path d="M167.841 389.406C167.834 389.871 167.896 390.334 168.025 390.78C168.319 391.947 168.988 392.985 169.93 393.734C170.871 394.482 172.033 394.901 173.236 394.923C174.439 394.946 175.616 394.573 176.585 393.86C177.555 393.148 178.263 392.136 178.6 390.982C178.62 390.916 178.62 390.846 178.6 390.78C178.743 390.337 178.811 389.872 178.801 389.406C178.805 388.459 178.557 387.527 178.081 386.708C177.485 385.647 176.555 384.814 175.435 384.339C174.316 383.864 173.07 383.774 171.893 384.082C170.717 384.391 169.676 385.081 168.934 386.044C168.191 387.007 167.789 388.19 167.791 389.406H167.841Z" fill="#FFC38D"/>
<path d="M189.105 215.407C192.729 206.66 188.574 196.631 179.827 193.007C171.079 189.384 161.05 193.538 157.426 202.286C153.803 211.033 157.957 221.062 166.705 224.686C175.453 228.309 185.482 224.155 189.105 215.407Z" fill="#69CDE1"/>
<path d="M163.685 277.641C163.689 278.328 163.762 279.013 163.903 279.686C164.22 281.252 164.927 282.714 165.958 283.935C166.989 285.156 168.311 286.098 169.802 286.674C170.898 287.12 172.071 287.347 173.254 287.345C173.393 287.361 173.534 287.361 173.673 287.345C175.633 287.286 177.523 286.605 179.07 285.401C180.254 284.51 181.214 283.356 181.875 282.029C182.535 280.702 182.877 279.24 182.874 277.758V277.758C182.899 277.401 182.899 277.043 182.874 276.686C182.728 275.404 182.323 274.165 181.683 273.044C181.044 271.923 180.183 270.944 179.153 270.167C177.603 268.969 175.715 268.289 173.757 268.223H173.338C170.803 268.231 168.374 269.243 166.581 271.035C164.788 272.828 163.777 275.257 163.769 277.792L163.685 277.641Z" fill="#FFC38D"/>
<path d="M156.127 208.862L163.3 276.2L163.45 277.641H182.673V277.624L182.773 276.552L183.042 274.256L190.416 208.862H156.127Z" fill="#FFC38D"/>
<path d="M155.59 396.781V399.06H177.762C178.054 399.056 178.333 398.938 178.54 398.731C178.746 398.525 178.864 398.246 178.869 397.954V390.781H167.958L167.489 390.982L163.635 392.574L156.412 395.608C156.177 395.704 155.974 395.866 155.829 396.074C155.683 396.282 155.6 396.527 155.59 396.781V396.781Z" fill="#FFC38D"/>
<path d="M155.59 396.781V399.06H177.762C178.054 399.056 178.333 398.938 178.54 398.731C178.746 398.525 178.864 398.246 178.869 397.954V392.574H163.635L156.412 395.608C156.177 395.704 155.974 395.866 155.829 396.074C155.683 396.282 155.6 396.527 155.59 396.781V396.781Z" fill="#FFE8A4"/>
<path d="M152.607 119.504L163.551 116.303C177.422 112.249 192.204 112.547 205.901 117.158L212.839 119.504L219.542 207.237H149.155L152.607 119.504Z" fill="#B8DFFF"/>
<path d="M197.136 112.23L180.276 107.789L164.992 114.057V120.593C164.987 121.51 165.202 122.415 165.621 123.23C166.04 124.046 166.65 124.749 167.398 125.278C168.147 125.808 169.012 126.149 169.921 126.273C170.829 126.397 171.754 126.299 172.617 125.989L182.673 122.319L189.376 125.671C190.269 126.156 191.276 126.392 192.291 126.355C193.306 126.319 194.293 126.011 195.149 125.463C196.005 124.915 196.698 124.148 197.157 123.241C197.615 122.335 197.822 121.322 197.756 120.308L197.136 112.23Z" fill="#DCF7FE"/>
<path d="M188.136 116.789L184.483 120.543C183.988 121.05 183.338 121.376 182.637 121.471C181.935 121.565 181.222 121.421 180.611 121.063L174.561 117.543C174.193 117.323 173.896 117.002 173.704 116.618C173.513 116.233 173.435 115.803 173.481 115.376C173.527 114.949 173.694 114.544 173.963 114.21C174.232 113.875 174.59 113.624 174.997 113.487V97.7676H187.114V111.661C187.585 111.866 187.999 112.182 188.322 112.582C188.644 112.982 188.865 113.454 188.965 113.958C189.066 114.462 189.043 114.982 188.899 115.475C188.754 115.968 188.493 116.419 188.136 116.789Z" fill="#FFC38D"/>
<g style="mix-blend-mode:multiply" opacity="0.54">
<g style="mix-blend-mode:multiply" opacity="0.54">
<path d="M187.114 97.7676V107.27L174.997 105.477V97.7676H187.114Z" fill="#FF935F"/>
</g>
</g>
<path d="M182.974 177.154H185.321C194.503 177.154 203.31 180.802 209.803 187.295C216.297 193.789 219.945 202.595 219.945 211.778V302.277H148.35V211.778C148.35 202.595 151.998 193.789 158.491 187.295C164.985 180.802 173.791 177.154 182.974 177.154V177.154Z" fill="#B8DFFF"/>
<path d="M172.282 244.609C197.236 244.609 217.464 226.534 217.464 204.237C217.464 181.94 197.236 163.864 172.282 163.864C147.329 163.864 127.1 181.94 127.1 204.237C127.1 226.534 147.329 244.609 172.282 244.609Z" fill="#B8DFFF"/>
<path d="M136.753 160.178C136.245 161.752 136.235 163.445 136.724 165.025C137.213 166.606 138.177 167.997 139.485 169.01C140.24 169.597 141.091 170.05 141.999 170.351C144.046 170.999 146.266 170.812 148.175 169.829C150.085 168.846 151.527 167.148 152.188 165.105C152.277 164.73 152.492 164.397 152.797 164.162C153.102 163.927 153.479 163.804 153.864 163.815C154.234 163.767 154.609 163.837 154.937 164.014C155.265 164.192 155.529 164.468 155.691 164.803C155.91 165.289 156.198 165.741 156.546 166.144C157.713 167.611 159.354 168.628 161.187 169.022C163.02 169.417 164.933 169.163 166.601 168.306C167.318 167.962 167.975 167.503 168.545 166.948L169.266 166.01C170.216 164.794 170.795 163.33 170.935 161.794C171.075 160.257 170.769 158.713 170.053 157.346C169.325 155.927 168.399 154.618 167.305 153.458C165.174 151.112 162.461 149.37 159.441 148.407C156.421 147.445 153.201 147.296 150.106 147.976C147.01 148.656 144.148 150.141 141.81 152.28C139.472 154.42 137.739 157.138 136.787 160.161L136.753 160.178Z" fill="#5D8EF0"/>
<path d="M167.271 153.508L156.495 166.144C157.663 167.611 159.303 168.628 161.137 169.023C162.97 169.417 164.883 169.163 166.551 168.306C167.268 167.962 167.925 167.503 168.495 166.948L169.266 166.01C170.216 164.794 170.795 163.33 170.935 161.794C171.075 160.257 170.769 158.713 170.053 157.346C169.31 155.942 168.374 154.651 167.271 153.508Z" fill="#7DA8FF"/>
<path d="M158.64 169.445C158.686 170.391 159.023 171.299 159.605 172.046C160.187 172.794 160.986 173.342 161.892 173.618C162.433 173.791 163 173.865 163.568 173.836C164.792 173.762 165.938 173.209 166.756 172.296C167.575 171.383 168.001 170.184 167.942 168.959C167.921 168.746 167.968 168.533 168.076 168.349C168.185 168.165 168.349 168.021 168.545 167.936C168.733 167.83 168.951 167.788 169.165 167.815C169.379 167.842 169.579 167.938 169.735 168.087C169.954 168.305 170.202 168.491 170.472 168.64C171.395 169.164 172.469 169.356 173.516 169.182C174.562 169.008 175.517 168.479 176.221 167.685C176.537 167.355 176.797 166.976 176.991 166.562L177.209 165.942C177.472 165.096 177.485 164.193 177.247 163.34C177.009 162.487 176.531 161.721 175.869 161.132C175.197 160.524 174.44 160.016 173.623 159.624C172.008 158.798 170.204 158.414 168.393 158.508C166.582 158.603 164.828 159.174 163.308 160.163C161.788 161.153 160.556 162.526 159.737 164.144C158.917 165.761 158.539 167.567 158.64 169.378V169.445Z" fill="#DCF2FF"/>
<path d="M173.623 159.692L170.422 168.642C171.35 169.179 172.435 169.377 173.493 169.203C174.55 169.029 175.515 168.493 176.221 167.686C176.537 167.357 176.798 166.977 176.992 166.564L177.21 165.943C177.472 165.098 177.485 164.194 177.247 163.341C177.009 162.488 176.531 161.722 175.869 161.134C175.192 160.549 174.436 160.064 173.623 159.692V159.692Z" fill="white"/>
<path d="M165.914 114.442C165.917 115.74 165.535 117.009 164.816 118.089C164.098 119.169 163.075 120.012 161.876 120.51C160.678 121.008 159.36 121.139 158.087 120.887C156.814 120.634 155.645 120.01 154.728 119.092C153.81 118.175 153.186 117.006 152.933 115.733C152.681 114.461 152.812 113.142 153.31 111.944C153.808 110.746 154.651 109.722 155.731 109.004C156.811 108.285 158.08 107.903 159.378 107.906C161.111 107.906 162.774 108.595 163.999 109.821C165.225 111.046 165.914 112.709 165.914 114.442Z" fill="#FFC38D"/>
<path d="M159.411 121.632C157.989 121.635 156.597 121.217 155.413 120.429C154.228 119.641 153.304 118.519 152.757 117.205C152.21 115.892 152.066 114.446 152.341 113.05C152.617 111.654 153.3 110.372 154.305 109.365C155.31 108.357 156.591 107.671 157.986 107.392C159.381 107.114 160.827 107.255 162.142 107.799C163.457 108.342 164.581 109.264 165.371 110.446C166.162 111.629 166.584 113.02 166.584 114.443C166.58 116.345 165.823 118.169 164.48 119.516C163.136 120.862 161.314 121.623 159.411 121.632V121.632ZM159.411 108.543C158.245 108.543 157.104 108.889 156.134 109.538C155.164 110.186 154.408 111.107 153.961 112.185C153.515 113.263 153.398 114.449 153.626 115.593C153.853 116.738 154.415 117.789 155.24 118.614C156.065 119.439 157.116 120.001 158.261 120.228C159.405 120.456 160.591 120.339 161.669 119.893C162.747 119.446 163.668 118.69 164.316 117.72C164.965 116.75 165.311 115.609 165.311 114.443C165.306 112.879 164.683 111.381 163.578 110.276C162.473 109.171 160.975 108.548 159.411 108.543V108.543Z" fill="#FFC38D"/>
<g style="mix-blend-mode:multiply" opacity="0.33">
<g style="mix-blend-mode:multiply" opacity="0.33">
<path d="M159.411 117.275C160.976 117.275 162.244 116.007 162.244 114.443C162.244 112.878 160.976 111.61 159.411 111.61C157.847 111.61 156.579 112.878 156.579 114.443C156.579 116.007 157.847 117.275 159.411 117.275Z" fill="#FF556D"/>
</g>
</g>
<path d="M99.4009 132.822L114.641 142.272C117.536 144.066 121.338 143.175 123.133 140.28L123.345 139.938C125.14 137.043 124.248 133.242 121.353 131.447L106.113 121.997C103.218 120.202 99.4161 121.094 97.6212 123.989L97.4093 124.331C95.6144 127.226 96.5061 131.027 99.4009 132.822Z" fill="#7DA8FF"/>
<path d="M100.688 126.124C100.007 127.253 99.6735 128.559 99.7307 129.877C99.7878 131.195 100.233 132.467 101.009 133.533C101.786 134.599 102.86 135.413 104.097 135.872C105.334 136.33 106.678 136.414 107.963 136.112C109.247 135.81 110.413 135.136 111.316 134.174C112.219 133.212 112.818 132.005 113.038 130.704C113.258 129.403 113.089 128.067 112.553 126.861C112.016 125.656 111.136 124.636 110.023 123.928C108.493 122.983 106.651 122.684 104.901 123.095C103.151 123.507 101.636 124.596 100.688 126.124V126.124Z" fill="#BBD3FC"/>
<path d="M97.2022 123.962C96.5187 125.091 96.1839 126.397 96.2399 127.716C96.2959 129.035 96.7401 130.309 97.5169 131.376C98.2936 132.444 99.3683 133.258 100.606 133.717C101.844 134.176 103.19 134.26 104.475 133.957C105.76 133.654 106.927 132.979 107.83 132.015C108.732 131.052 109.33 129.843 109.549 128.541C109.767 127.239 109.596 125.902 109.057 124.696C108.519 123.491 107.636 122.472 106.52 121.766C105.767 121.29 104.926 120.968 104.047 120.821C103.168 120.673 102.268 120.703 101.4 120.907C100.532 121.112 99.7143 121.487 98.9935 122.012C98.2726 122.536 97.6637 123.199 97.2022 123.962V123.962Z" fill="#FFC38D"/>
<path d="M102.934 134.956C101.56 134.959 100.212 134.576 99.0456 133.85C98.2086 133.339 97.4813 132.667 96.9059 131.873C96.3305 131.079 95.9185 130.179 95.6938 129.224C95.4665 128.277 95.431 127.294 95.5893 126.332C95.7476 125.371 96.0965 124.451 96.6155 123.627V123.627C97.2967 122.525 98.254 121.621 99.3925 121.004C100.531 120.387 101.811 120.079 103.106 120.11C104.4 120.14 105.664 120.509 106.772 121.179C107.88 121.849 108.794 122.798 109.422 123.93C110.05 125.063 110.371 126.34 110.353 127.634C110.335 128.929 109.979 130.197 109.32 131.311C108.661 132.426 107.721 133.349 106.595 133.988C105.469 134.627 104.195 134.961 102.9 134.956H102.934ZM102.934 121.381C101.886 121.38 100.855 121.647 99.9393 122.158C99.024 122.668 98.2547 123.405 97.7049 124.297V124.297C96.8681 125.674 96.6064 127.324 96.9764 128.892C97.3465 130.46 98.3185 131.819 99.6824 132.677C101.057 133.552 102.722 133.848 104.315 133.499C105.907 133.151 107.296 132.186 108.179 130.816C108.754 129.886 109.071 128.819 109.097 127.726C109.122 126.632 108.856 125.552 108.325 124.596C107.794 123.64 107.017 122.842 106.076 122.286C105.134 121.73 104.061 121.435 102.967 121.431L102.934 121.381Z" fill="#FFC38D"/>
<path d="M167.24 120.831L151.818 129.981C148.888 131.719 147.923 135.503 149.66 138.432L149.866 138.778C151.604 141.707 155.387 142.673 158.317 140.935L173.739 131.785C176.668 130.047 177.634 126.264 175.896 123.335L175.691 122.989C173.953 120.059 170.169 119.093 167.24 120.831Z" fill="#7DA8FF"/>
<path d="M172.617 125.068C171.931 123.94 170.927 123.041 169.732 122.481C168.536 121.922 167.203 121.728 165.897 121.924C164.592 122.119 163.374 122.696 162.395 123.581C161.416 124.466 160.72 125.621 160.395 126.9C160.069 128.179 160.128 129.525 160.565 130.771C161.002 132.016 161.796 133.105 162.849 133.901C163.902 134.697 165.166 135.164 166.484 135.244C167.801 135.325 169.113 135.014 170.254 134.352C171.026 133.904 171.701 133.307 172.239 132.595C172.777 131.883 173.167 131.071 173.388 130.207C173.608 129.342 173.653 128.442 173.521 127.559C173.388 126.677 173.081 125.83 172.617 125.068V125.068Z" fill="#BBD3FC"/>
<path d="M176.12 122.957C175.432 121.832 174.427 120.935 173.232 120.378C172.036 119.821 170.703 119.629 169.399 119.826C168.095 120.024 166.878 120.601 165.901 121.486C164.923 122.372 164.229 123.526 163.904 124.804C163.579 126.082 163.639 127.428 164.075 128.672C164.511 129.917 165.305 131.005 166.357 131.801C167.409 132.596 168.672 133.064 169.988 133.145C171.304 133.227 172.615 132.918 173.757 132.258C174.531 131.81 175.208 131.212 175.747 130.499C176.287 129.786 176.678 128.972 176.899 128.105C177.119 127.238 177.163 126.336 177.03 125.452C176.896 124.568 176.587 123.719 176.12 122.957Z" fill="#FFC38D"/>
<path d="M170.305 133.849C169.005 133.852 167.726 133.514 166.598 132.868C165.47 132.221 164.531 131.29 163.876 130.167C163.22 129.044 162.871 127.769 162.864 126.469C162.856 125.168 163.19 123.889 163.832 122.758C164.474 121.628 165.402 120.686 166.523 120.026C167.644 119.367 168.918 119.014 170.218 119.001C171.518 118.989 172.799 119.319 173.932 119.957C175.064 120.595 176.01 121.519 176.673 122.638V122.638C177.678 124.331 177.968 126.354 177.481 128.262C176.994 130.17 175.769 131.806 174.076 132.81C172.936 133.492 171.633 133.851 170.305 133.849V133.849ZM170.305 120.275C168.948 120.275 167.63 120.725 166.555 121.553C165.48 122.381 164.709 123.541 164.362 124.852C164.015 126.164 164.112 127.553 164.637 128.804C165.162 130.056 166.085 131.098 167.264 131.77C168.443 132.441 169.811 132.704 171.155 132.517C172.498 132.331 173.743 131.705 174.694 130.737C175.645 129.77 176.25 128.515 176.414 127.169C176.578 125.822 176.292 124.459 175.601 123.291V123.291C175.055 122.369 174.277 121.606 173.345 121.077C172.413 120.548 171.36 120.271 170.288 120.275H170.305Z" fill="#FFC38D"/>
<path d="M131.173 129.878H143.859C147.642 129.878 151.269 131.381 153.944 134.055C156.618 136.73 158.121 140.357 158.121 144.14V156.19C158.121 159.907 156.649 163.473 154.026 166.108C151.404 168.743 147.845 170.233 144.127 170.25H130.971C127.242 170.25 123.666 168.769 121.029 166.132C118.392 163.495 116.911 159.919 116.911 156.19V144.14C116.911 140.357 118.413 136.73 121.088 134.055C123.762 131.381 127.39 129.878 131.173 129.878V129.878Z" fill="#7DA8FF"/>
<g style="mix-blend-mode:multiply" opacity="0.32">
<g style="mix-blend-mode:multiply" opacity="0.32">
<path d="M158.104 144.122V156.188C158.104 159.905 156.635 163.47 154.016 166.107C151.398 168.745 147.843 170.239 144.127 170.266H130.955C129.083 170.269 127.229 169.899 125.503 169.177C123.776 168.454 122.211 167.395 120.899 166.059C121.454 166.138 122.015 166.172 122.575 166.16H135.647C137.493 166.164 139.321 165.804 141.027 165.1C142.733 164.396 144.283 163.361 145.588 162.056C146.893 160.751 147.927 159.202 148.631 157.496C149.335 155.79 149.695 153.962 149.691 152.116V140.05C149.698 138.182 149.335 136.331 148.621 134.605C147.908 132.879 146.859 131.312 145.535 129.994C148.998 130.397 152.193 132.059 154.51 134.664C156.828 137.269 158.107 140.635 158.104 144.122V144.122Z" fill="#7DA8FF"/>
</g>
</g>
<path d="M121.72 160.596C120.683 161.886 120.068 163.464 119.957 165.116C119.846 166.767 120.245 168.413 121.1 169.83C121.599 170.647 122.234 171.373 122.977 171.976C124.655 173.314 126.794 173.933 128.927 173.697C131.059 173.462 133.012 172.391 134.357 170.719C134.569 170.408 134.88 170.179 135.238 170.066C135.597 169.954 135.983 169.965 136.334 170.099C136.722 170.173 137.07 170.383 137.318 170.689C137.567 170.996 137.699 171.38 137.692 171.774C137.74 172.299 137.846 172.816 138.01 173.316C138.581 175.098 139.746 176.63 141.311 177.655C142.876 178.68 144.746 179.136 146.608 178.947C147.405 178.87 148.186 178.666 148.92 178.344L149.943 177.791C151.267 176.998 152.332 175.839 153.011 174.452C153.689 173.066 153.95 171.513 153.764 169.981C153.597 168.402 153.202 166.855 152.59 165.389C151.447 162.435 149.543 159.834 147.073 157.851C144.602 155.867 141.652 154.571 138.519 154.094C135.387 153.616 132.185 153.973 129.235 155.13C126.285 156.286 123.693 158.201 121.72 160.68V160.596Z" fill="#7DA8FF"/>
<path d="M152.591 165.306L138.01 173.233C138.581 175.014 139.746 176.546 141.311 177.571C142.876 178.596 144.746 179.053 146.608 178.864C147.406 178.786 148.186 178.582 148.92 178.26L149.943 177.707C151.267 176.915 152.332 175.755 153.011 174.369C153.689 172.983 153.95 171.429 153.764 169.898C153.597 168.318 153.202 166.771 152.591 165.306V165.306Z" fill="#7DA8FF"/>
<path d="M141.613 179.635C141.661 180.58 141.999 181.487 142.581 182.234C143.162 182.981 143.96 183.53 144.865 183.808C145.407 183.974 145.974 184.042 146.54 184.009C147.75 183.923 148.877 183.365 149.679 182.456C150.482 181.547 150.895 180.359 150.831 179.149C150.809 178.934 150.855 178.718 150.964 178.531C151.072 178.344 151.237 178.197 151.434 178.11C151.625 178.011 151.843 177.974 152.056 178.004C152.269 178.034 152.467 178.129 152.624 178.277C152.844 178.489 153.092 178.669 153.361 178.813C154.284 179.377 155.375 179.599 156.444 179.439C157.513 179.28 158.492 178.75 159.21 177.942C159.527 177.612 159.787 177.233 159.981 176.819L160.199 176.182C160.46 175.339 160.472 174.438 160.234 173.588C159.997 172.738 159.519 171.975 158.858 171.389C158.186 170.781 157.43 170.273 156.613 169.881C154.998 169.055 153.194 168.67 151.383 168.765C149.571 168.86 147.817 169.431 146.297 170.42C144.778 171.41 143.546 172.783 142.726 174.4C141.907 176.018 141.529 177.824 141.63 179.635H141.613Z" fill="#DCF2FF"/>
<path d="M156.596 169.881L153.395 178.813C154.314 179.368 155.398 179.585 156.46 179.426C157.521 179.267 158.494 178.742 159.21 177.942C159.527 177.612 159.787 177.233 159.981 176.819L160.199 176.182C160.46 175.339 160.472 174.438 160.234 173.588C159.996 172.738 159.519 171.975 158.858 171.389C158.181 170.78 157.419 170.272 156.596 169.881V169.881Z" fill="white"/>
<path d="M129.664 93.9463H143.624C147.5 93.9463 151.217 95.486 153.958 98.2266C156.699 100.967 158.238 104.684 158.238 108.56V118.75C158.238 120.799 157.835 122.827 157.051 124.72C156.266 126.613 155.117 128.333 153.668 129.782C152.22 131.231 150.5 132.38 148.607 133.164C146.714 133.949 144.685 134.352 142.636 134.352H130.72C128.671 134.352 126.642 133.949 124.749 133.164C122.856 132.38 121.136 131.231 119.687 129.782C118.239 128.333 117.089 126.613 116.305 124.72C115.521 122.827 115.117 120.799 115.117 118.75V108.577C115.113 104.71 116.641 100.998 119.368 98.2561C122.095 95.5138 125.797 93.964 129.664 93.9463V93.9463Z" fill="#FFC38D"/>
<path d="M142.636 135.006H130.72C126.412 135.006 122.279 133.295 119.231 130.25C116.183 127.205 114.468 123.075 114.464 118.766V108.577C114.468 104.533 116.076 100.657 118.936 97.7979C121.795 94.9388 125.671 93.3306 129.715 93.3262H143.624C147.668 93.3306 151.544 94.9388 154.403 97.7979C157.263 100.657 158.871 104.533 158.875 108.577V118.766C158.871 123.072 157.158 127.2 154.114 130.244C151.069 133.289 146.941 135.001 142.636 135.006V135.006ZM129.664 94.5999C127.825 94.5954 126.003 94.9536 124.303 95.6538C122.602 96.3541 121.056 97.3826 119.753 98.6807C118.451 99.9788 117.417 101.521 116.71 103.219C116.004 104.917 115.639 106.738 115.637 108.577V118.766C115.637 120.742 116.028 122.697 116.787 124.521C117.547 126.344 118.66 127.999 120.062 129.39C121.464 130.782 123.128 131.882 124.957 132.627C126.786 133.372 128.745 133.748 130.72 133.732H142.686C146.633 133.697 150.407 132.105 153.188 129.303C155.968 126.5 157.53 122.714 157.534 118.766V108.577C157.53 104.871 156.056 101.319 153.436 98.6985C150.816 96.0783 147.263 94.6043 143.557 94.5999H129.664Z" fill="#FFC38D"/>
<path d="M133.887 110.252C133.887 110.654 133.769 111.046 133.546 111.379C133.323 111.713 133.006 111.972 132.636 112.126C132.265 112.279 131.857 112.32 131.464 112.241C131.071 112.163 130.709 111.97 130.426 111.686C130.142 111.403 129.949 111.041 129.871 110.648C129.793 110.255 129.833 109.847 129.986 109.476C130.14 109.106 130.4 108.789 130.733 108.566C131.066 108.344 131.459 108.225 131.86 108.225C132.397 108.225 132.913 108.438 133.294 108.819C133.674 109.199 133.887 109.715 133.887 110.252V110.252Z" fill="#754040"/>
<path d="M152.038 110.252C152.041 110.658 151.924 111.054 151.701 111.393C151.479 111.731 151.16 111.996 150.787 112.153C150.414 112.311 150.002 112.354 149.605 112.277C149.207 112.2 148.841 112.006 148.553 111.721C148.266 111.436 148.069 111.071 147.989 110.674C147.909 110.277 147.948 109.865 148.103 109.491C148.257 109.116 148.519 108.796 148.855 108.57C149.192 108.345 149.588 108.225 149.993 108.225C150.532 108.225 151.05 108.438 151.433 108.818C151.816 109.197 152.033 109.713 152.038 110.252V110.252Z" fill="#754040"/>
<path d="M140.172 125.571C142.726 125.571 145.189 124.623 147.084 122.911C148.979 121.199 150.171 118.844 150.429 116.303C150.438 116.168 150.419 116.033 150.373 115.906C150.328 115.779 150.256 115.663 150.163 115.566C150.07 115.468 149.958 115.391 149.833 115.339C149.709 115.287 149.575 115.261 149.44 115.264H130.888C130.753 115.261 130.619 115.287 130.494 115.339C130.37 115.391 130.257 115.468 130.164 115.566C130.071 115.663 130 115.779 129.954 115.906C129.908 116.033 129.889 116.168 129.899 116.303C130.16 118.845 131.355 121.2 133.253 122.912C135.151 124.624 137.616 125.572 140.172 125.571Z" fill="white"/>
<path d="M148.92 93.3258V97.6999H128.206C126.24 97.7077 124.346 96.9643 122.91 95.6218C122.473 95.2407 122.085 94.8073 121.754 94.3313C120.857 93.0243 120.377 91.4756 120.38 89.8902V85.5664H141.11C143.17 85.5751 145.144 86.3938 146.605 87.8457C148.067 89.2975 148.898 91.266 148.92 93.3258V93.3258Z" fill="#F7E184"/>
<path d="M139.569 160.714C138.9 160.714 138.259 160.45 137.785 159.979C137.311 159.508 137.043 158.869 137.038 158.2V139.196C137.042 138.526 137.311 137.885 137.784 137.411C138.258 136.937 138.899 136.669 139.569 136.665V136.665C140.237 136.669 140.876 136.938 141.347 137.412C141.818 137.886 142.083 138.527 142.083 139.196V158.2C142.078 158.866 141.812 159.503 141.341 159.973C140.871 160.444 140.234 160.71 139.569 160.714V160.714Z" fill="#BBD3FC"/>
<path d="M120.43 114.442C120.433 115.74 120.051 117.009 119.333 118.089C118.614 119.169 117.591 120.012 116.393 120.51C115.195 121.008 113.876 121.139 112.603 120.887C111.33 120.634 110.161 120.01 109.244 119.092C108.326 118.175 107.702 117.006 107.45 115.733C107.197 114.461 107.328 113.142 107.826 111.944C108.325 110.746 109.167 109.722 110.247 109.004C111.327 108.285 112.597 107.903 113.894 107.906C115.626 107.911 117.286 108.601 118.511 109.826C119.735 111.05 120.426 112.71 120.43 114.442Z" fill="#FFC38D"/>
<path d="M113.961 121.632C112.538 121.635 111.147 121.217 109.962 120.429C108.778 119.641 107.853 118.519 107.307 117.205C106.76 115.892 106.615 114.446 106.891 113.05C107.166 111.654 107.85 110.372 108.854 109.365C109.859 108.357 111.14 107.671 112.535 107.392C113.931 107.114 115.377 107.255 116.692 107.799C118.006 108.342 119.13 109.264 119.921 110.446C120.712 111.629 121.134 113.02 121.134 114.443C121.129 116.345 120.373 118.169 119.029 119.516C117.685 120.862 115.864 121.623 113.961 121.632V121.632ZM113.961 108.543C112.794 108.543 111.654 108.889 110.684 109.538C109.713 110.186 108.957 111.107 108.511 112.185C108.064 113.263 107.948 114.449 108.175 115.593C108.403 116.738 108.965 117.789 109.79 118.614C110.615 119.439 111.666 120.001 112.81 120.228C113.954 120.456 115.141 120.339 116.219 119.893C117.296 119.446 118.218 118.69 118.866 117.72C119.514 116.75 119.86 115.609 119.86 114.443C119.856 112.879 119.233 111.381 118.127 110.276C117.022 109.171 115.524 108.548 113.961 108.543V108.543Z" fill="#FFC38D"/>
<g style="mix-blend-mode:multiply" opacity="0.33">
<g style="mix-blend-mode:multiply" opacity="0.33">
<path d="M113.894 117.275C115.458 117.275 116.726 116.007 116.726 114.443C116.726 112.878 115.458 111.61 113.894 111.61C112.33 111.61 111.062 112.878 111.062 114.443C111.062 116.007 112.33 117.275 113.894 117.275Z" fill="#FF556D"/>
</g>
</g>
<path d="M147.965 151.446C147.965 151.446 120.329 162.775 119.894 163.01C116.542 164.87 115.57 169.479 117.698 173.3C119.827 177.121 124.251 178.73 127.586 176.87C128.022 176.635 151.166 157.882 151.166 157.882L147.965 151.446Z" fill="#FFC38D"/>
<path d="M146.658 153.407C147.238 153.51 147.834 153.379 148.318 153.043C148.802 152.707 149.132 152.193 149.239 151.614L149.959 147.575C150.062 146.995 149.931 146.398 149.595 145.915C149.259 145.431 148.745 145.1 148.166 144.994C147.586 144.891 146.989 145.022 146.506 145.358C146.022 145.694 145.691 146.208 145.585 146.787L144.865 150.927C144.79 151.491 144.935 152.062 145.268 152.523C145.602 152.985 146.099 153.301 146.658 153.407Z" fill="#FFC38D"/>
<path d="M151.484 150.39C151.659 150.623 151.878 150.818 152.129 150.966C152.379 151.113 152.656 151.21 152.944 151.251C153.232 151.291 153.525 151.275 153.807 151.202C154.088 151.129 154.353 151.001 154.585 150.826L157.937 148.346C158.402 147.99 158.709 147.465 158.79 146.885C158.872 146.304 158.722 145.715 158.372 145.245C158.013 144.778 157.486 144.471 156.903 144.39C156.32 144.308 155.728 144.459 155.255 144.809L151.903 147.29C151.67 147.464 151.474 147.684 151.327 147.935C151.18 148.186 151.084 148.464 151.045 148.752C151.006 149.041 151.024 149.334 151.1 149.615C151.175 149.897 151.306 150.16 151.484 150.39V150.39Z" fill="#FFC38D"/>
<path d="M153.462 152.502C153.568 153.073 153.895 153.58 154.371 153.912C154.848 154.244 155.436 154.376 156.009 154.278L160.082 153.624C160.66 153.526 161.176 153.203 161.518 152.726C161.86 152.249 162.001 151.657 161.908 151.077V151.077C161.81 150.499 161.487 149.982 161.01 149.64C160.533 149.298 159.941 149.158 159.361 149.25L155.289 149.921C154.999 149.969 154.721 150.075 154.473 150.231C154.224 150.387 154.008 150.591 153.838 150.831C153.669 151.071 153.548 151.342 153.483 151.629C153.419 151.915 153.411 152.212 153.462 152.502V152.502Z" fill="#FFC38D"/>
<path d="M152.205 155.754C152.085 156.324 152.193 156.919 152.506 157.411C152.819 157.903 153.313 158.253 153.881 158.385L157.92 159.239C158.491 159.364 159.088 159.258 159.581 158.944C160.074 158.63 160.423 158.134 160.551 157.564V157.564C160.672 156.991 160.564 156.394 160.251 155.899C159.938 155.404 159.444 155.052 158.875 154.916L154.836 154.061C154.263 153.941 153.666 154.051 153.174 154.368C152.681 154.685 152.333 155.182 152.205 155.754Z" fill="#FFC38D"/>
<path d="M148.323 149.295L152.829 147.712L156.428 157.959L151.795 159.586C150.583 160.011 149.251 159.938 148.093 159.382C146.935 158.826 146.046 157.833 145.62 156.621L145.27 155.625C144.829 154.366 144.905 152.984 145.482 151.782C146.059 150.58 147.09 149.657 148.348 149.215L148.323 149.295Z" fill="#FFC38D"/>
<path d="M181.382 102.945C198.098 102.945 211.649 88.6743 211.649 71.0699C211.649 53.4655 198.098 39.1943 181.382 39.1943C164.667 39.1943 151.116 53.4655 151.116 71.0699C151.116 88.6743 164.667 102.945 181.382 102.945Z" fill="#FFC38D"/>
<path d="M147.094 62.6908H183.008C195.225 62.6908 205.113 53.6074 205.113 42.4124V36.7479C205.113 29.4577 198.678 23.5586 190.734 23.5586H181.852C162.646 23.5586 147.094 37.8372 147.094 55.4006V62.6908Z" fill="#EA4277"/>
<path d="M179.019 70.7354C178.506 70.7312 178.015 70.5278 177.649 70.1682C177.283 69.8086 177.072 69.3209 177.059 68.8081V66.1602C177.059 65.6386 177.265 65.1381 177.632 64.7677C177.999 64.3973 178.498 64.187 179.019 64.1826V64.1826C179.544 64.1826 180.047 64.391 180.418 64.7618C180.789 65.1327 180.997 65.6357 180.997 66.1602V68.8081C180.984 69.3238 180.77 69.814 180.4 70.174C180.031 70.5341 179.535 70.7355 179.019 70.7354V70.7354Z" fill="#754040"/>
<path d="M179.019 71.1711C178.389 71.1711 177.785 70.9232 177.336 70.481C176.888 70.0388 176.631 69.4378 176.623 68.808V66.1601C176.595 65.8274 176.636 65.4926 176.745 65.1768C176.853 64.8609 177.025 64.571 177.251 64.3253C177.478 64.0796 177.752 63.8835 178.058 63.7493C178.363 63.6152 178.694 63.5459 179.028 63.5459C179.361 63.5459 179.692 63.6152 179.997 63.7493C180.303 63.8835 180.578 64.0796 180.804 64.3253C181.03 64.571 181.202 64.8609 181.31 65.1768C181.419 65.4926 181.46 65.8274 181.432 66.1601V68.808C181.419 69.4393 181.159 70.0403 180.708 70.4821C180.257 70.9238 179.651 71.1712 179.019 71.1711V71.1711ZM179.019 64.6183C178.613 64.6227 178.225 64.7871 177.94 65.0758C177.654 65.3644 177.494 65.7541 177.494 66.1601V68.808C177.534 69.1871 177.712 69.538 177.996 69.7931C178.279 70.0482 178.646 70.1893 179.028 70.1893C179.409 70.1893 179.776 70.0482 180.059 69.7931C180.343 69.538 180.521 69.1871 180.561 68.808V66.1601C180.561 65.7512 180.399 65.359 180.109 65.0699C179.82 64.7807 179.428 64.6183 179.019 64.6183Z" fill="#FFC38D"/>
<path d="M184.784 70.7354C184.269 70.7355 183.773 70.5341 183.404 70.174C183.034 69.814 182.82 69.3238 182.807 68.8081V66.1602C182.807 65.6357 183.015 65.1327 183.386 64.7618C183.757 64.391 184.26 64.1826 184.784 64.1826V64.1826C185.306 64.187 185.805 64.3973 186.172 64.7677C186.539 65.1381 186.745 65.6386 186.745 66.1602V68.8081C186.732 69.3209 186.52 69.8086 186.155 70.1682C185.789 70.5278 185.297 70.7312 184.784 70.7354V70.7354Z" fill="#754040"/>
<path d="M184.784 71.1711C184.153 71.1712 183.547 70.9238 183.096 70.4821C182.644 70.0403 182.384 69.4393 182.371 68.808V66.1601C182.343 65.8274 182.385 65.4926 182.493 65.1768C182.601 64.8609 182.774 64.571 183 64.3253C183.226 64.0796 183.501 63.8835 183.806 63.7493C184.112 63.6152 184.442 63.5459 184.776 63.5459C185.11 63.5459 185.44 63.6152 185.746 63.7493C186.052 63.8835 186.326 64.0796 186.552 64.3253C186.778 64.571 186.951 64.8609 187.059 65.1768C187.167 65.4926 187.209 65.8274 187.181 66.1601V68.808C187.172 69.4378 186.916 70.0388 186.467 70.481C186.019 70.9232 185.414 71.1711 184.784 71.1711V71.1711ZM184.784 64.6183C184.376 64.6183 183.983 64.7807 183.694 65.0699C183.405 65.359 183.243 65.7512 183.243 66.1601V68.808C183.282 69.1871 183.461 69.538 183.744 69.7931C184.027 70.0482 184.395 70.1893 184.776 70.1893C185.157 70.1893 185.525 70.0482 185.808 69.7931C186.091 69.538 186.27 69.1871 186.31 68.808V66.1601C186.31 65.7541 186.149 65.3644 185.864 65.0758C185.578 64.7871 185.19 64.6227 184.784 64.6183V64.6183Z" fill="#FFC38D"/>
<g style="mix-blend-mode:multiply" opacity="0.33">
<g style="mix-blend-mode:multiply" opacity="0.33">
<path d="M169.266 72.7803C169.269 73.2988 169.118 73.8066 168.832 74.2391C168.546 74.6716 168.138 75.0092 167.659 75.2092C167.181 75.4091 166.654 75.4623 166.145 75.362C165.637 75.2616 165.169 75.0123 164.803 74.6457C164.436 74.279 164.187 73.8117 164.086 73.303C163.986 72.7943 164.039 72.2672 164.239 71.7888C164.439 71.3104 164.777 70.9023 165.209 70.6163C165.642 70.3303 166.149 70.1794 166.668 70.1827C167.357 70.1827 168.018 70.4564 168.505 70.9435C168.992 71.4307 169.266 72.0914 169.266 72.7803V72.7803Z" fill="#FF556D"/>
</g>
</g>
<g style="mix-blend-mode:multiply" opacity="0.33">
<g style="mix-blend-mode:multiply" opacity="0.33">
<path d="M196.114 75.3938C197.558 75.3938 198.728 74.2233 198.728 72.7794C198.728 71.3355 197.558 70.165 196.114 70.165C194.67 70.165 193.499 71.3355 193.499 72.7794C193.499 74.2233 194.67 75.3938 196.114 75.3938Z" fill="#FF556D"/>
</g>
</g>
<path d="M174.88 75.2938C174.614 75.2831 174.35 75.3358 174.108 75.4476C173.867 75.5593 173.655 75.727 173.492 75.9366C173.328 76.1462 173.216 76.3917 173.166 76.653C173.116 76.9142 173.129 77.1836 173.204 77.4389C173.709 79.614 174.943 81.5509 176.7 82.9283C178.458 84.3057 180.633 85.0407 182.866 85.0113C185.099 84.982 187.254 84.19 188.975 82.7669C190.696 81.3438 191.878 79.3751 192.326 77.1875C192.368 76.9449 192.356 76.6959 192.29 76.4585C192.225 76.221 192.108 76.0008 191.948 75.8136C191.788 75.6264 191.589 75.4767 191.365 75.3753C191.14 75.2739 190.896 75.2232 190.65 75.2267L174.88 75.2938Z" fill="white"/>
<path d="M185.589 202.024C186.045 202.598 186.32 203.295 186.38 204.025C186.44 204.756 186.282 205.488 185.925 206.128C185.569 206.769 185.031 207.289 184.379 207.624C183.726 207.958 182.989 208.091 182.261 208.007C181.533 207.922 180.847 207.624 180.288 207.149C179.73 206.674 179.325 206.044 179.125 205.338C178.925 204.633 178.939 203.885 179.165 203.187C179.391 202.49 179.818 201.875 180.394 201.421C181.165 200.818 182.143 200.543 183.115 200.656C184.088 200.769 184.976 201.26 185.589 202.024V202.024Z" fill="#FFC38D"/>
<path d="M180.394 201.422C180.394 201.422 215.185 168.306 215.587 167.904C216.48 167.197 217.503 166.674 218.598 166.362C219.692 166.051 220.838 165.959 221.968 166.09C223.099 166.222 224.193 166.575 225.187 167.129C226.181 167.683 227.056 168.428 227.763 169.32C228.469 170.212 228.993 171.235 229.304 172.33C229.615 173.425 229.708 174.57 229.576 175.701C229.445 176.832 229.092 177.925 228.538 178.919C227.984 179.914 227.239 180.789 226.347 181.495C225.861 181.881 184.902 207.204 184.902 207.204L180.394 201.422Z" fill="#FFC38D"/>
<path d="M222.955 173.386L219.505 174.234L219.773 175.325L223.223 174.477L222.955 173.386Z" fill="#BEB4DD"/>
<path d="M221.501 172.493L220.411 172.763L221.267 176.228L222.357 175.959L221.501 172.493Z" fill="#BEB4DD"/>
<path d="M179.589 206.784C180.073 207.398 180.363 208.142 180.425 208.921C180.486 209.701 180.314 210.481 179.932 211.163C179.551 211.845 178.975 212.398 178.279 212.754C177.582 213.109 176.796 213.25 176.02 213.159C175.244 213.067 174.512 212.748 173.917 212.241C173.322 211.734 172.89 211.062 172.677 210.31C172.463 209.558 172.477 208.76 172.717 208.016C172.957 207.272 173.413 206.616 174.025 206.131C174.433 205.807 174.901 205.568 175.402 205.426C175.902 205.284 176.426 205.242 176.943 205.302C177.46 205.363 177.96 205.525 178.414 205.78C178.868 206.034 179.267 206.375 179.589 206.784V206.784Z" fill="#FFC38D"/>
<path d="M180.214 201.227L174.012 206.137L178.923 212.338L185.124 207.428L180.214 201.227Z" fill="#FFC38D"/>
<path d="M185.79 201.858C186.276 202.471 186.569 203.213 186.632 203.993C186.696 204.772 186.527 205.553 186.148 206.236C185.768 206.919 185.194 207.475 184.499 207.832C183.803 208.19 183.017 208.333 182.241 208.244C181.464 208.155 180.731 207.838 180.134 207.333C179.538 206.827 179.104 206.157 178.889 205.405C178.673 204.654 178.685 203.855 178.923 203.11C179.161 202.366 179.615 201.708 180.226 201.221C180.633 200.897 181.1 200.656 181.6 200.513C182.1 200.369 182.623 200.326 183.14 200.385C183.657 200.444 184.157 200.605 184.612 200.857C185.067 201.11 185.467 201.45 185.79 201.858V201.858Z" fill="#FFC38D"/>
<path d="M218.922 163.144C220.568 162.665 222.318 162.685 223.952 163.201C225.586 163.717 227.03 164.706 228.102 166.043C229.174 167.38 229.825 169.005 229.974 170.712C230.122 172.419 229.761 174.132 228.937 175.634C228.112 177.136 226.86 178.359 225.34 179.15C223.82 179.941 222.099 180.263 220.396 180.076C218.693 179.889 217.083 179.201 215.771 178.099C214.459 176.997 213.502 175.531 213.023 173.886C212.385 171.679 212.648 169.31 213.753 167.296C214.859 165.282 216.718 163.789 218.922 163.144Z" fill="#FFC38D"/>
<path d="M199.687 127.936L213.033 173.901L229.675 169.07L216.329 123.104L199.687 127.936Z" fill="#FFC38D"/>
<path d="M210.56 134.319C212.207 133.842 213.675 132.888 214.78 131.577C215.884 130.266 216.575 128.656 216.764 126.952C216.953 125.248 216.633 123.526 215.843 122.005C215.053 120.483 213.83 119.23 212.328 118.404C210.826 117.577 209.112 117.215 207.404 117.363C205.696 117.511 204.071 118.163 202.733 119.235C201.395 120.308 200.406 121.753 199.89 123.387C199.374 125.022 199.354 126.774 199.834 128.42C200.15 129.512 200.678 130.531 201.389 131.419C202.099 132.306 202.977 133.045 203.974 133.593C204.97 134.141 206.064 134.487 207.194 134.612C208.325 134.736 209.468 134.637 210.56 134.319Z" fill="#FFC38D"/>
</g>
<g clip-path="url(#clip1)">
<path d="M87.2805 163.16V253.659C87.2849 255.441 86.938 257.206 86.2597 258.853C85.5814 260.501 84.5849 261.999 83.3273 263.261C82.0696 264.524 80.5755 265.526 78.9303 266.21C77.2851 266.895 75.5212 267.248 73.7393 267.25H13.7757C10.1915 267.241 6.75664 265.814 4.22223 263.279C1.68781 260.745 0.260071 257.31 0.251221 253.726V163.227C0.254065 155.991 2.05882 148.87 5.50257 142.506C8.94632 136.143 13.9206 130.737 19.9765 126.777C27.2288 121.982 35.7571 119.483 44.45 119.606C53.1429 119.728 61.5974 122.467 68.7116 127.464C70.8073 128.968 72.7698 130.65 74.5772 132.491C78.6077 136.517 81.8044 141.298 83.9842 146.56C86.164 151.823 87.2842 157.464 87.2805 163.16V163.16Z" fill="#B8DFFF"/>
<path d="M87.0461 249.402V253.726C87.0328 257.312 85.6013 260.747 83.0642 263.281C80.5272 265.815 77.0906 267.242 73.5048 267.251H13.5245C9.94029 267.242 6.50542 265.814 3.97101 263.28C1.43659 260.745 0.00884991 257.31 0 253.726L0 249.402H87.0461Z" fill="#FFC38D"/>
<path d="M45.3999 214.024H20.0269V391.653H45.3999V214.024Z" fill="#6E7EB5"/>
<path d="M70.4715 214.024H45.0984V391.653H70.4715V214.024Z" fill="#536397"/>
<path d="M43.5733 391.066V397.283C43.5733 397.819 42.9365 398.255 42.1656 398.255H14.0105V396.278C14.0105 395.808 14.4295 395.406 15.0663 395.205L29.0768 391.216L29.6801 391.049L43.5733 391.066Z" fill="#3F3143"/>
<path d="M46.439 391.065V397.3C46.439 397.836 47.059 398.272 47.8467 398.272H75.9347V396.294C75.9347 395.825 75.5158 395.423 74.8789 395.222L60.8684 391.233L60.2651 391.065H46.439Z" fill="#3F3143"/>
<path d="M20.1108 214.024V247.542C27.6909 252.143 36.3825 254.588 45.2493 254.615H45.5677C54.3912 254.63 63.0524 252.243 70.6224 247.71V214.024H20.1108Z" fill="#6E7EB5"/>
<path d="M44.4113 83.5391H42.6349C38.9974 83.5391 36.0486 86.4878 36.0486 90.1253V118.28C36.0486 121.918 38.9974 124.867 42.6349 124.867H44.4113C48.0488 124.867 50.9976 121.918 50.9976 118.28V90.1253C50.9976 86.4878 48.0488 83.5391 44.4113 83.5391Z" fill="#FFC38D"/>
<path d="M51.1653 92.806V111.475L36.2163 108.006V92.806C36.2207 91.0606 36.9161 89.3879 38.1503 88.1537C39.3845 86.9195 41.0572 86.2242 42.8026 86.2197H44.579C46.3245 86.2242 47.9971 86.9195 49.2313 88.1537C50.4655 89.3879 51.1609 91.0606 51.1653 92.806V92.806Z" fill="#FF935F"/>
<path d="M40.5064 105.979C33.5279 105.975 26.8363 103.202 21.9003 98.2687C16.9642 93.3357 14.1869 86.6459 14.1781 79.6675V72.4108H10.8263C8.74167 72.4108 6.74246 71.5827 5.26844 70.1087C3.79441 68.6347 2.96631 66.6355 2.96631 64.5509V62.875C2.97075 60.7933 3.80081 58.7984 5.27435 57.328C6.7479 55.8576 8.74457 55.0318 10.8263 55.0318H14.1781V41.4235C14.1736 38.5862 14.7295 35.7759 15.8138 33.154C16.898 30.532 18.4893 28.1499 20.4964 26.1444C22.5034 24.1389 24.8868 22.5495 27.5096 21.4672C30.1324 20.385 32.9431 19.8313 35.7804 19.8379H50.9807C53.0097 19.8389 55.0288 20.1209 56.9804 20.6759C61.4726 21.9859 65.42 24.7149 68.2324 28.4547C71.0449 32.1945 72.5711 36.7442 72.583 41.4235V55.0988H75.9348C78.0165 55.0988 80.0132 55.9246 81.4867 57.395C82.9603 58.8654 83.7904 60.8603 83.7948 62.942V64.6179C83.7948 66.7025 82.9667 68.7017 81.4927 70.1757C80.0186 71.6498 78.0194 72.4779 75.9348 72.4779H72.583V79.7345C72.5565 86.7013 69.7714 93.3739 64.8372 98.2924C59.9031 103.211 53.2216 105.975 46.2547 105.979H40.5064Z" fill="#FFC38D"/>
<path d="M50.9808 20.7425C52.9236 20.7446 54.8573 21.0095 56.7291 21.5302C61.0408 22.7768 64.8305 25.3911 67.5269 28.9793C70.2233 32.5674 71.6802 36.9348 71.6781 41.4231V55.9866H75.9684C77.8132 55.991 79.5813 56.7247 80.8874 58.0275C82.1934 59.3304 82.9313 61.0968 82.9401 62.9416V64.6175C82.9357 66.4651 82.1997 68.2359 80.8932 69.5424C79.5868 70.8489 77.816 71.5848 75.9684 71.5892H71.6781V79.7341C71.6603 86.4651 68.974 92.9145 64.2081 97.6678C59.4422 102.421 52.9858 105.09 46.2547 105.09H40.5064C33.7637 105.09 27.2972 102.412 22.5294 97.6441C17.7616 92.8763 15.0831 86.4097 15.0831 79.667V71.5222H10.7928C8.94511 71.5178 7.1744 70.7818 5.8679 69.4753C4.56141 68.1688 3.82547 66.3981 3.82104 64.5505V62.8746C3.82988 61.0298 4.56777 59.2634 5.87379 57.9605C7.17981 56.6576 8.94801 55.924 10.7928 55.9196H15.0831V41.4231C15.0809 36.9348 16.5379 32.5674 19.2342 28.9793C21.9306 25.3911 25.7203 22.7768 30.0321 21.5302C31.9039 21.0095 33.8375 20.7446 35.7804 20.7425H50.9808ZM50.9808 18.9493H35.7804C33.6728 18.9452 31.5748 19.2329 29.546 19.804C24.8665 21.1711 20.7547 24.0152 17.8248 27.9117C14.8949 31.8082 13.304 36.548 13.2899 41.4231V54.1934H10.7928C8.47106 54.1934 6.2442 55.1146 4.60094 56.7547C2.95768 58.3948 2.03227 60.6199 2.02783 62.9416V64.6175C2.03226 66.9407 2.95713 69.1676 4.59992 70.8103C6.2427 72.4531 8.46952 73.378 10.7928 73.3824H13.2899V79.7341C13.3164 86.938 16.1945 93.8383 21.2948 98.926C26.3951 104.014 33.3024 106.875 40.5064 106.884H46.2547C53.4703 106.875 60.3878 104.004 65.49 98.9023C70.5921 93.8001 73.4624 86.8826 73.4713 79.667V73.3154H75.9684C78.2916 73.311 80.5185 72.3861 82.1612 70.7433C83.804 69.1005 84.7289 66.8737 84.7333 64.5505V62.8746C84.7289 60.5529 83.8035 58.3278 82.1602 56.6876C80.517 55.0475 78.2901 54.1264 75.9684 54.1264H73.4713V41.4231C73.4779 38.4685 72.9006 35.5418 71.7725 32.811C70.6444 30.0803 68.9877 27.5994 66.8978 25.511C64.8078 23.4226 62.3257 21.7678 59.5941 20.6417C56.8625 19.5156 53.9353 18.9405 50.9808 18.9493V18.9493Z" fill="#FFC38D"/>
<path d="M74.4769 53.9423C74.1082 54.9645 72.801 54.6126 72.801 54.6126C72.315 47.8085 70.7564 37.619 70.7564 37.619C61.2876 36.4291 54.1818 27.3458 54.1818 27.3458C38.8306 37.9039 20.7812 27.748 20.7812 27.748C17.1445 30.7646 13.5246 53.8249 13.5246 53.8249C13.5246 53.8249 11.6475 54.0428 11.5973 53.8249C6.21764 32.0383 17.2115 18.6311 17.2115 18.6311C16.649 16.3486 16.904 13.9411 17.9322 11.827C26.8982 14.1397 29.6634 12.0951 29.6634 12.0951C27.3339 6.19597 32.5795 0.0957031 32.5795 0.0957031C36.4078 4.64599 41.7766 7.62863 47.6626 8.47518C83.4429 15.6145 77.0913 47.0208 74.4769 53.9423Z" fill="#754040"/>
<g opacity="0.85">
<path opacity="0.85" d="M43.3721 72.1591C40.5984 72.1502 37.9411 71.0433 35.9814 69.0804C34.0216 67.1175 32.919 64.4584 32.9146 61.6847C32.9146 61.4047 33.0258 61.1362 33.2238 60.9382C33.4218 60.7401 33.6903 60.6289 33.9704 60.6289C34.2504 60.6289 34.5189 60.7401 34.7169 60.9382C34.9149 61.1362 35.0262 61.4047 35.0262 61.6847C35.0262 63.9071 35.909 66.0385 37.4805 67.6099C39.0519 69.1814 41.1833 70.0642 43.4057 70.0642C45.628 70.0642 47.7594 69.1814 49.3308 67.6099C50.9023 66.0385 51.7851 63.9071 51.7851 61.6847C51.7851 61.4047 51.8964 61.1362 52.0944 60.9382C52.2924 60.7401 52.5609 60.6289 52.841 60.6289C52.9796 60.6289 53.1169 60.6562 53.245 60.7093C53.3731 60.7623 53.4895 60.8401 53.5875 60.9382C53.6856 61.0362 53.7633 61.1526 53.8164 61.2807C53.8695 61.4088 53.8968 61.5461 53.8968 61.6847C53.8946 63.0638 53.6205 64.429 53.0902 65.7021C52.5599 66.9752 51.7837 68.1312 50.8062 69.1041C49.8287 70.0769 48.669 70.8475 47.3933 71.3717C46.1177 71.8959 44.7513 72.1635 43.3721 72.1591Z" fill="#754040"/>
</g>
<g style="mix-blend-mode:multiply" opacity="0.33">
<g style="mix-blend-mode:multiply" opacity="0.33">
<path d="M26.8144 58.7525C26.8144 59.2762 26.6591 59.7881 26.3681 60.2236C26.0772 60.659 25.6636 60.9984 25.1798 61.1988C24.6959 61.3992 24.1635 61.4517 23.6499 61.3495C23.1362 61.2473 22.6644 60.9951 22.2941 60.6248C21.9238 60.2545 21.6716 59.7827 21.5694 59.269C21.4673 58.7554 21.5197 58.223 21.7201 57.7391C21.9205 57.2553 22.2599 56.8418 22.6954 56.5508C23.1308 56.2598 23.6428 56.1045 24.1665 56.1045C24.5148 56.1023 24.8601 56.1693 25.1824 56.3016C25.5047 56.4339 25.7975 56.6288 26.0438 56.8751C26.2901 57.1215 26.4851 57.4143 26.6174 57.7365C26.7496 58.0588 26.8166 58.4041 26.8144 58.7525Z" fill="#FF556D"/>
</g>
</g>
<g style="mix-blend-mode:multiply" opacity="0.33">
<g style="mix-blend-mode:multiply" opacity="0.33">
<path d="M65.2426 58.7525C65.2426 59.2762 65.0873 59.7881 64.7964 60.2236C64.5054 60.659 64.0919 60.9984 63.608 61.1988C63.1242 61.3992 62.5918 61.4517 62.0781 61.3495C61.5645 61.2473 61.0927 60.9951 60.7223 60.6248C60.352 60.2545 60.0998 59.7827 59.9977 59.269C59.8955 58.7554 59.9479 58.223 60.1483 57.7391C60.3488 57.2553 60.6881 56.8418 61.1236 56.5508C61.559 56.2598 62.071 56.1045 62.5947 56.1045C62.943 56.1023 63.2884 56.1693 63.6106 56.3016C63.9329 56.4339 64.2257 56.6288 64.472 56.8751C64.7183 57.1215 64.9133 57.4143 65.0456 57.7365C65.1779 58.0588 65.2448 58.4041 65.2426 58.7525V58.7525Z" fill="#FF556D"/>
</g>
</g>
<g style="mix-blend-mode:multiply" opacity="0.33">
<g style="mix-blend-mode:multiply" opacity="0.33">
<path d="M79.0019 66.3777C78.4857 66.9451 77.8126 67.3464 77.068 67.5307C76.3234 67.7149 75.5409 67.6738 74.8197 67.4126C74.0985 67.1513 73.4711 66.6817 73.0172 66.0633C72.5634 65.4449 72.3034 64.7057 72.2704 63.9393C72.2374 63.173 72.4328 62.4141 72.8318 61.7589C73.2308 61.1038 73.8155 60.582 74.5115 60.2597C75.2076 59.9374 75.9837 59.8291 76.7414 59.9487C77.4991 60.0682 78.2042 60.4101 78.7673 60.9311C79.5168 61.6245 79.962 62.586 80.0059 63.6061C80.0498 64.6262 79.689 65.6224 79.0019 66.3777V66.3777Z" fill="#FF556D"/>
</g>
</g>
<g style="mix-blend-mode:multiply" opacity="0.33">
<g style="mix-blend-mode:multiply" opacity="0.33">
<path d="M13.5244 66.3777C13.0167 66.9524 12.3498 67.3634 11.6083 67.5585C10.8667 67.7537 10.0839 67.7242 9.35911 67.4739C8.63432 67.2235 8.0002 66.7636 7.53717 66.1523C7.07414 65.5411 6.80306 64.8061 6.75831 64.0406C6.71356 63.2751 6.89715 62.5136 7.2858 61.8525C7.67445 61.1915 8.25065 60.6608 8.94134 60.3277C9.63202 59.9946 10.4061 59.8741 11.1653 59.9815C11.9246 60.0889 12.6348 60.4194 13.206 60.931C13.9634 61.6154 14.4214 62.5701 14.481 63.5891C14.5405 64.6082 14.197 65.6098 13.5244 66.3777V66.3777Z" fill="#FF556D"/>
</g>
</g>
<path d="M39.1488 45.0928C38.6345 45.0927 38.1408 45.2947 37.774 45.6552C37.4072 46.0157 37.1968 46.5058 37.188 47.0201V50.8579C37.188 51.3779 37.3946 51.8766 37.7623 52.2444C38.13 52.6121 38.6287 52.8187 39.1488 52.8187C39.6688 52.8187 40.1676 52.6121 40.5353 52.2444C40.903 51.8766 41.1096 51.3779 41.1096 50.8579V47.0201C41.0966 46.5072 40.8848 46.0195 40.5189 45.6599C40.153 45.3003 39.6618 45.097 39.1488 45.0928V45.0928Z" fill="#754040"/>
<path d="M47.6122 45.0928C47.0992 45.097 46.6079 45.3003 46.242 45.6599C45.8762 46.0195 45.6644 46.5072 45.6514 47.0201V50.8579C45.6514 51.3779 45.858 51.8766 46.2257 52.2444C46.5934 52.6121 47.0921 52.8187 47.6122 52.8187C48.1322 52.8187 48.6309 52.6121 48.9987 52.2444C49.3664 51.8766 49.573 51.3779 49.573 50.8579V47.0201C49.5642 46.5058 49.3537 46.0157 48.9869 45.6552C48.6202 45.2947 48.1264 45.0927 47.6122 45.0928Z" fill="#754040"/>
<path d="M77.745 154.011V232.275C77.7405 234.02 77.0452 235.693 75.811 236.927C74.5768 238.161 72.9041 238.857 71.1587 238.861H16.3736C14.6282 238.857 12.9555 238.161 11.7213 236.927C10.4871 235.693 9.79178 234.02 9.78735 232.275V154.011C9.79127 148.377 11.1964 142.832 13.8762 137.876C16.5559 132.92 20.4262 128.709 25.1386 125.621C25.8089 125.168 26.5128 124.733 27.2167 124.33C32.2262 121.529 37.8675 120.053 43.6069 120.04H43.7075C50.053 120.029 56.2713 121.819 61.6396 125.202C62.1424 125.504 62.6284 125.839 63.0976 126.157C63.8685 126.71 64.5892 127.263 65.3098 127.833C66.0304 128.403 66.9857 129.224 67.6896 129.961C70.8702 133.108 73.3963 136.853 75.1222 140.98C76.848 145.108 77.7394 149.537 77.745 154.011V154.011Z" fill="#8F496E"/>
<path d="M60.9858 125.201L48.9864 146.686L45.7352 152.485C45.5669 152.781 45.3232 153.028 45.0288 153.199C44.7344 153.37 44.3999 153.461 44.0593 153.461C43.7186 153.461 43.3841 153.37 43.0897 153.199C42.7953 153.028 42.5516 152.781 42.3834 152.485L38.0763 144.826L26.5461 124.33C31.8381 121.376 37.8266 119.899 43.8853 120.052C49.9439 120.205 55.85 121.984 60.9858 125.201V125.201Z" fill="#B8DFFF"/>
<path d="M26.8145 124.229L26.8982 124.414C28.5704 127.319 30.9756 129.734 33.8736 131.419C36.7715 133.103 40.0608 133.998 43.4127 134.013C46.7647 134.028 50.0619 133.164 52.9751 131.506C55.8883 129.848 58.3154 127.454 60.014 124.564C60.0169 124.503 60.0169 124.442 60.014 124.38V124.38L50.8971 115.313C48.5393 116.33 45.9987 116.855 43.431 116.855C40.8633 116.855 38.3226 116.33 35.9648 115.313L26.8145 124.229Z" fill="#DCF7FE"/>
<path d="M43.5734 129.341C42.4058 129.337 41.2872 128.871 40.4616 128.045C39.636 127.22 39.1702 126.101 39.1658 124.934V121.314C39.1746 120.149 39.6423 119.035 40.4675 118.213C41.2926 117.391 42.4087 116.927 43.5734 116.923C44.7365 116.927 45.8508 117.391 46.6733 118.214C47.4958 119.036 47.9598 120.151 47.9642 121.314V124.934C47.9642 126.1 47.5022 127.218 46.6792 128.044C45.8562 128.87 44.7394 129.337 43.5734 129.341V129.341Z" fill="#536397"/>
<path d="M48.9865 133.715V146.686L45.7353 152.485C45.5671 152.781 45.3233 153.027 45.0289 153.199C44.7346 153.37 44.4 153.46 44.0594 153.46C43.7187 153.46 43.3842 153.37 43.0898 153.199C42.7954 153.027 42.5517 152.781 42.3835 152.485L38.0764 144.826V133.715C38.0831 132.638 38.4077 131.587 39.0096 130.695C39.6114 129.802 40.4636 129.107 41.4591 128.697C42.4546 128.287 43.5491 128.18 44.605 128.39C45.661 128.6 46.6314 129.117 47.3944 129.877C47.9017 130.378 48.3038 130.976 48.5772 131.635C48.8506 132.294 48.9897 133.001 48.9865 133.715V133.715Z" fill="#536397"/>
</g>
<defs>
<clipPath id="clip0">
<rect width="134.474" height="375.501" fill="white" transform="translate(95.5261 23.5586)"/>
</clipPath>
<clipPath id="clip1">
<rect width="87.2807" height="398.176" fill="white" transform="translate(0 0.0957031)"/>
</clipPath>
</defs>
</svg>
