<svg width="245" height="225" viewBox="0 0 245 225" fill="none" xmlns="http://www.w3.org/2000/svg">
<path d="M133.417 101.352L133.48 131.479L149.124 131.447L149.061 101.319L133.417 101.352Z" fill="#DCF7FE"/>
<path d="M141.301 109.61C139.754 109.613 138.24 109.158 136.952 108.301C135.664 107.444 134.659 106.225 134.064 104.797C133.469 103.369 133.31 101.796 133.609 100.278C133.908 98.7604 134.649 97.365 135.741 96.2687C136.833 95.1725 138.225 94.4245 139.741 94.1194C141.258 93.8143 142.831 93.9659 144.262 94.5548C145.692 95.1438 146.916 96.1437 147.778 97.4282C148.641 98.7126 149.103 100.224 149.106 101.771C149.108 102.798 148.908 103.816 148.517 104.766C148.126 105.715 147.552 106.579 146.827 107.307C146.102 108.035 145.241 108.613 144.293 109.008C143.345 109.403 142.328 109.608 141.301 109.61V109.61Z" fill="#DCF7FE"/>
<path d="M122.006 153.867C121.5 153.432 120.876 153.157 120.214 153.078C119.551 152.998 118.88 153.118 118.285 153.421C117.691 153.724 117.2 154.196 116.875 154.779C116.55 155.362 116.405 156.028 116.46 156.693C116.515 157.359 116.766 157.992 117.182 158.514C117.597 159.036 118.159 159.423 118.795 159.625C119.431 159.827 120.113 159.835 120.754 159.648C121.394 159.462 121.965 159.089 122.393 158.577C122.961 157.899 123.238 157.024 123.166 156.143C123.094 155.261 122.677 154.444 122.006 153.867V153.867Z" fill="#F6C4A9"/>
<path d="M122.393 158.576L147.138 136.439L135.228 126.296L117.313 154.236L122.393 158.576Z" fill="#F6C4A9"/>
<path d="M146.246 125.421C145.068 124.418 143.619 123.787 142.082 123.607C140.545 123.428 138.989 123.709 137.611 124.414C136.234 125.119 135.096 126.217 134.343 127.569C133.589 128.92 133.254 130.465 133.379 132.008C133.504 133.55 134.083 135.021 135.044 136.234C136.005 137.447 137.304 138.348 138.777 138.822C140.25 139.296 141.831 139.323 143.319 138.899C144.807 138.475 146.136 137.619 147.138 136.439C147.804 135.658 148.31 134.753 148.626 133.776C148.942 132.799 149.062 131.769 148.979 130.745C148.896 129.722 148.612 128.725 148.143 127.811C147.674 126.897 147.03 126.085 146.246 125.421V125.421Z" fill="#F6C4A9"/>
<path d="M117.751 158.948C117.246 158.511 116.623 158.233 115.961 158.151C115.299 158.069 114.627 158.186 114.031 158.487C113.435 158.788 112.943 159.259 112.615 159.841C112.288 160.423 112.141 161.088 112.194 161.754C112.246 162.419 112.495 163.054 112.909 163.577C113.323 164.101 113.883 164.489 114.519 164.693C115.154 164.898 115.836 164.908 116.477 164.724C117.119 164.539 117.691 164.168 118.121 163.658C118.69 162.981 118.971 162.108 118.902 161.227C118.832 160.345 118.419 159.527 117.751 158.948V158.948Z" fill="#F6C4A9"/>
<path d="M117.314 154.238L112.983 159.321L118.066 163.652L122.397 158.569L117.314 154.238Z" fill="#F6C4A9"/>
<path d="M122.006 153.867C121.5 153.432 120.876 153.157 120.214 153.078C119.551 152.998 118.88 153.118 118.285 153.421C117.691 153.724 117.2 154.196 116.875 154.779C116.55 155.362 116.405 156.028 116.46 156.693C116.515 157.359 116.766 157.992 117.182 158.514C117.597 159.036 118.159 159.423 118.795 159.625C119.431 159.827 120.113 159.835 120.754 159.648C121.394 159.462 121.965 159.089 122.393 158.577C122.961 157.899 123.238 157.024 123.166 156.143C123.094 155.261 122.677 154.444 122.006 153.867V153.867Z" fill="#F6C4A9"/>
<path d="M141.301 122.965C139.753 122.965 138.24 123.424 136.953 124.284C135.667 125.145 134.664 126.367 134.073 127.797C133.481 129.228 133.327 130.801 133.63 132.319C133.933 133.837 134.68 135.231 135.776 136.324C136.871 137.417 138.267 138.161 139.785 138.461C141.304 138.761 142.877 138.603 144.306 138.009C145.735 137.414 146.955 136.409 147.813 135.12C148.67 133.832 149.126 132.318 149.123 130.77C149.123 129.744 148.92 128.727 148.527 127.779C148.134 126.831 147.557 125.97 146.831 125.245C146.104 124.52 145.242 123.945 144.293 123.554C143.344 123.163 142.327 122.963 141.301 122.965V122.965Z" fill="#DCF7FE"/>
<path d="M216.762 77.7663H209.849C206.003 77.7663 202.315 76.2386 199.595 73.5193C196.876 70.7999 195.348 67.1118 195.348 63.2661V48.9678H202.262C206.108 48.9678 209.796 50.4955 212.515 53.2148C215.235 55.9341 216.762 59.6223 216.762 63.4679V77.7663Z" fill="#EA4277"/>
<path d="M102.611 77.7663H109.542C113.387 77.7663 117.076 76.2386 119.795 73.5193C122.514 70.7999 124.042 67.1118 124.042 63.2661V48.9678H117.111C113.266 48.9678 109.578 50.4955 106.858 53.2148C104.139 55.9341 102.611 59.6223 102.611 63.4679V77.7663Z" fill="#EA4277"/>
<path d="M143.807 48.5311C146.179 44.3021 149.671 40.8096 153.9 38.4382C159.754 35.2589 167.189 34.0983 170.722 28.2275C169.982 32.4834 174.002 35.7131 176.912 38.7578C179.634 41.6202 181.655 45.075 182.816 48.8508C178.796 42.1221 170.2 40.5577 162.63 40.7259C155.616 40.8942 148.164 42.2062 143 47.2359L143.807 48.5311Z" fill="#9D5048"/>
<path d="M159.956 138.339C172.395 138.339 182.48 130.206 182.48 120.172C182.48 110.139 172.395 102.005 159.956 102.005C147.516 102.005 137.432 110.139 137.432 120.172C137.432 130.206 147.516 138.339 159.956 138.339Z" fill="#F0F0F0"/>
<path d="M159.956 86.8999C178.945 86.8999 194.339 70.4591 194.339 50.1785C194.339 29.8978 178.945 13.457 159.956 13.457C140.967 13.457 125.573 29.8978 125.573 50.1785C125.573 70.4591 140.967 86.8999 159.956 86.8999Z" fill="#E5387A"/>
<path d="M160.595 84.2237C175.906 84.2237 188.317 71.1495 188.317 55.0215C188.317 38.8936 175.906 25.8193 160.595 25.8193C145.285 25.8193 132.873 38.8936 132.873 55.0215C132.873 71.1495 145.285 84.2237 160.595 84.2237Z" fill="#FFC38D"/>
<path d="M136.49 64.5781C136.53 65.5538 136.278 66.5193 135.765 67.3504C135.252 68.1815 134.502 68.8402 133.612 69.2419C132.722 69.6435 131.732 69.7697 130.77 69.6042C129.807 69.4388 128.916 68.9892 128.211 68.3134C127.506 67.6375 127.02 66.7663 126.814 65.8116C126.608 64.857 126.692 63.8626 127.056 62.9563C127.42 62.05 128.047 61.2733 128.855 60.726C129.664 60.1786 130.618 59.8857 131.595 59.8849C132.224 59.8715 132.85 59.9823 133.437 60.2109C134.024 60.4395 134.56 60.7815 135.015 61.2174C135.469 61.6532 135.833 62.1743 136.087 62.751C136.34 63.3276 136.477 63.9485 136.49 64.5781V64.5781Z" fill="#FFC38D"/>
<path d="M131.595 71.2049C130.293 71.1686 129.03 70.7492 127.965 69.9991C126.899 69.2491 126.079 68.2018 125.605 66.988C125.132 65.7742 125.027 64.4478 125.303 63.1746C125.579 61.9013 126.225 60.7378 127.159 59.8293C128.092 58.9208 129.273 58.3077 130.554 58.0666C131.834 57.8255 133.157 57.9671 134.357 58.4738C135.558 58.9804 136.582 59.8295 137.302 60.9151C138.023 62.0006 138.407 63.2744 138.408 64.5773C138.381 66.3589 137.649 68.0573 136.372 69.2998C135.095 70.5423 133.377 71.2274 131.595 71.2049ZM131.595 61.7849C131.052 61.8209 130.531 62.0148 130.097 62.3428C129.663 62.6707 129.334 63.1183 129.151 63.6307C128.968 64.143 128.938 64.6977 129.066 65.2267C129.193 65.7556 129.473 66.2357 129.87 66.6079C130.267 66.9801 130.764 67.2283 131.3 67.3219C131.836 67.4155 132.387 67.3504 132.887 67.1347C133.387 66.919 133.812 66.562 134.112 66.1077C134.411 65.6533 134.571 65.1214 134.572 64.5773C134.542 63.8143 134.212 63.0939 133.655 62.5715C133.098 62.0491 132.358 61.7666 131.595 61.7849Z" fill="#FFC38D"/>
<path d="M188.334 69.2872C191.038 69.2872 193.229 67.1785 193.229 64.5772C193.229 61.9759 191.038 59.8672 188.334 59.8672C185.631 59.8672 183.439 61.9759 183.439 64.5772C183.439 67.1785 185.631 69.2872 188.334 69.2872Z" fill="#FFC38D"/>
<path d="M188.401 71.2058C187.095 71.1859 185.823 70.7803 184.747 70.0401C183.67 69.2998 182.836 68.2579 182.35 67.0452C181.864 65.8326 181.747 64.5033 182.014 63.2243C182.281 61.9454 182.92 60.7739 183.851 59.8571C184.782 58.9403 185.963 58.319 187.246 58.0713C188.528 57.8237 189.856 57.9607 191.061 58.4652C192.266 58.9696 193.295 59.819 194.019 60.9067C194.743 61.9943 195.129 63.2716 195.13 64.5781C195.103 66.3451 194.383 68.0307 193.124 69.2708C191.865 70.5109 190.168 71.206 188.401 71.2058V71.2058ZM188.401 61.7857C187.858 61.8218 187.338 62.0157 186.903 62.3436C186.469 62.6715 186.14 63.1192 185.957 63.6315C185.774 64.1438 185.744 64.6986 185.872 65.2275C185.999 65.7564 186.279 66.2365 186.676 66.6087C187.073 66.981 187.57 67.2291 188.106 67.3227C188.642 67.4163 189.194 67.3512 189.693 67.1355C190.193 66.9198 190.618 66.5629 190.918 66.1085C191.217 65.6542 191.377 65.1222 191.378 64.5781C191.348 63.8151 191.018 63.0947 190.461 62.5723C189.904 62.05 189.164 61.7674 188.401 61.7857V61.7857Z" fill="#FFC38D"/>
<path d="M138.038 46.2091H165.171C174.406 46.2091 181.891 39.3459 181.891 30.8847V26.5952C181.765 23.8358 180.55 21.2389 178.514 19.3727C176.477 17.5064 173.785 16.5227 171.025 16.6369H164.296C149.779 16.6369 138.021 27.4195 138.021 40.7421L138.038 46.2091Z" fill="#E5387A"/>
<path d="M153.295 48.7822C152.837 48.7813 152.396 48.9546 152.062 49.2671C151.727 49.5796 151.525 50.0077 151.495 50.4644V52.8699C151.495 53.3472 151.684 53.805 152.022 54.1426C152.359 54.4801 152.817 54.6698 153.295 54.6698C153.772 54.6698 154.23 54.4801 154.567 54.1426C154.905 53.805 155.094 53.3472 155.094 52.8699V50.4644C155.065 50.0077 154.862 49.5796 154.527 49.2671C154.193 48.9546 153.752 48.7813 153.295 48.7822V48.7822Z" fill="#754040"/>
<path d="M167.576 48.7822C167.119 48.7813 166.678 48.9546 166.343 49.2671C166.009 49.5796 165.806 50.0077 165.776 50.4644V52.8699C165.776 53.3472 165.966 53.805 166.304 54.1426C166.641 54.4801 167.099 54.6698 167.576 54.6698C168.054 54.6698 168.511 54.4801 168.849 54.1426C169.187 53.805 169.376 53.3472 169.376 52.8699V50.4644C169.346 50.0077 169.143 49.5796 168.809 49.2671C168.475 48.9546 168.034 48.7813 167.576 48.7822V48.7822Z" fill="#754040"/>
<g style="mix-blend-mode:multiply" opacity="0.33">
<g style="mix-blend-mode:multiply" opacity="0.33">
<path d="M146.465 58.9756C147.784 58.9756 148.854 57.9061 148.854 56.5869C148.854 55.2677 147.784 54.1982 146.465 54.1982C145.146 54.1982 144.076 55.2677 144.076 56.5869C144.076 57.9061 145.146 58.9756 146.465 58.9756Z" fill="#FF556D"/>
</g>
</g>
<g style="mix-blend-mode:multiply" opacity="0.33">
<g style="mix-blend-mode:multiply" opacity="0.33">
<path d="M175.852 56.587C175.856 57.0641 175.717 57.5315 175.454 57.9297C175.191 58.3278 174.815 58.6387 174.375 58.8229C173.935 59.007 173.45 59.0561 172.982 58.9638C172.514 58.8715 172.083 58.6421 171.746 58.3047C171.409 57.9672 171.179 57.5371 171.087 57.0689C170.995 56.6007 171.044 56.1157 171.228 55.6754C171.412 55.2352 171.723 54.8597 172.121 54.5967C172.519 54.3336 172.987 54.195 173.464 54.1983C174.096 54.2027 174.701 54.4558 175.148 54.9028C175.595 55.3498 175.848 55.9548 175.852 56.587V56.587Z" fill="#FF556D"/>
</g>
</g>
<path d="M160.444 66.0401C159.844 66.0423 159.249 65.926 158.694 65.6979C158.139 65.4698 157.634 65.1344 157.209 64.7109C156.784 64.2873 156.447 63.784 156.217 63.2299C155.987 62.6757 155.868 62.0815 155.868 61.4814H157.466C157.435 61.8901 157.489 62.3008 157.625 62.6877C157.76 63.0745 157.974 63.4293 158.252 63.7298C158.531 64.0303 158.869 64.27 159.244 64.434C159.62 64.5979 160.025 64.6825 160.435 64.6825C160.845 64.6825 161.25 64.5979 161.626 64.434C162.002 64.27 162.339 64.0303 162.618 63.7298C162.897 63.4293 163.111 63.0745 163.246 62.6877C163.381 62.3008 163.435 61.8901 163.404 61.4814H165.086C165.086 62.0872 164.966 62.687 164.731 63.2456C164.497 63.8042 164.154 64.3106 163.722 64.735C163.289 65.1594 162.777 65.4934 162.214 65.7175C161.651 65.9416 161.049 66.0513 160.444 66.0401V66.0401Z" fill="#754040"/>
<path d="M167.273 81.0967H152.655V113.142H167.273V81.0967Z" fill="#FFC38D"/>
<path d="M169.073 109.862C169.073 113.933 165.002 117.213 159.956 117.213C154.909 117.213 150.855 113.848 150.855 109.862C150.855 105.875 154.926 102.511 159.956 102.511C164.986 102.511 169.073 105.808 169.073 109.862Z" fill="#FFC38D"/>
<path d="M186.719 138.189C186.701 144.333 184.247 150.218 179.895 154.555C175.543 158.891 169.649 161.324 163.505 161.319H159.182C153.056 161.297 147.188 158.852 142.857 154.519C138.527 150.186 136.087 144.315 136.069 138.189H186.719Z" fill="#75CCDD"/>
<path d="M165.171 152.302L167.66 214.155H177.047L183.641 151.512L165.171 152.302Z" fill="#FFE8A4"/>
<path d="M175.953 214.154L185.256 218.023C185.455 218.101 185.626 218.238 185.746 218.415C185.866 218.592 185.93 218.802 185.929 219.016V220.832H168.047C167.809 220.832 167.581 220.739 167.411 220.572C167.241 220.406 167.143 220.179 167.139 219.941V214.154H175.953Z" fill="#FFE8A4"/>
<path d="M157.517 152.302L155.027 214.155H145.657L139.047 151.512L157.517 152.302Z" fill="#FFE8A4"/>
<path d="M146.734 214.154L137.432 218.023C137.233 218.101 137.062 218.238 136.942 218.415C136.822 218.592 136.758 218.802 136.759 219.016V220.832H154.657C154.774 220.832 154.89 220.809 154.999 220.765C155.107 220.72 155.205 220.654 155.288 220.571C155.371 220.489 155.436 220.39 155.481 220.282C155.526 220.174 155.549 220.058 155.549 219.941V214.154H146.734Z" fill="#FFE8A4"/>
<path d="M160.326 83.1836H161.487C164.91 83.177 168.302 83.8456 171.467 85.1513C174.632 86.4569 177.509 88.374 179.932 90.7926C182.355 93.2113 184.278 96.0842 185.59 99.2467C186.902 102.409 187.577 105.8 187.577 109.223V159.806C187.577 161.144 187.045 162.428 186.099 163.374C185.152 164.321 183.869 164.852 182.53 164.852H139.333C137.994 164.852 136.711 164.321 135.764 163.374C134.818 162.428 134.286 161.144 134.286 159.806V109.223C134.286 102.317 137.03 95.6939 141.913 90.8105C146.796 85.9271 153.42 83.1836 160.326 83.1836V83.1836Z" fill="#B8DFFF"/>
<path d="M170.755 89.86C170.755 94.4186 166.365 98.1193 160.931 98.1193C155.498 98.1193 151.091 94.4186 151.091 89.86C151.091 85.3013 155.498 81.6006 160.931 81.6006C166.365 81.6006 170.755 85.3013 170.755 89.86Z" fill="#FFC38D"/>
<path d="M171.257 101.39L185.037 128.181L198.949 121.025L185.168 94.234L171.257 101.39Z" fill="#DCF7FE"/>
<path d="M181.975 105.168C180.603 105.873 179.053 106.156 177.52 105.981C175.987 105.805 174.541 105.179 173.364 104.182C172.186 103.185 171.331 101.862 170.906 100.379C170.48 98.896 170.504 97.3203 170.973 95.8507C171.443 94.3812 172.337 93.0837 173.543 92.1222C174.75 91.1607 176.214 90.5783 177.752 90.4486C179.289 90.3188 180.83 90.6475 182.181 91.3932C183.531 92.1389 184.63 93.268 185.34 94.6381C185.812 95.5501 186.099 96.5463 186.186 97.5696C186.272 98.593 186.155 99.6233 185.843 100.601C185.53 101.58 185.028 102.487 184.364 103.27C183.701 104.054 182.889 104.699 181.975 105.168V105.168Z" fill="#DCF7FE"/>
<path d="M236.814 191.58C232.491 194.81 227.444 195.382 225.543 192.842C223.642 190.302 225.543 185.625 229.951 182.396C234.358 179.166 239.337 178.594 241.221 181.134C243.105 183.674 241.154 188.401 236.814 191.58Z" fill="#C56E53"/>
<path d="M200.967 198.343C195.685 197.183 191.968 193.734 192.64 190.639C193.313 187.544 198.141 185.979 203.423 187.14C208.705 188.301 212.439 191.732 211.75 194.827C211.06 197.923 206.249 199.504 200.967 198.343Z" fill="#C56E53"/>
<path d="M233.096 214.861C228.268 212.422 225.526 208.132 226.939 205.34C228.352 202.548 233.449 202.178 238.26 204.617C243.071 207.056 245.847 211.345 244.417 214.138C242.987 216.93 237.924 217.3 233.096 214.861Z" fill="#C56E53"/>
<path d="M214.76 219.841C211.245 223.928 206.35 225.577 204.028 223.508C201.707 221.439 202.548 216.443 206.064 212.355C209.579 208.267 214.474 206.602 216.796 208.671C219.117 210.74 218.293 215.736 214.76 219.841Z" fill="#C56E53"/>
<path d="M218.325 192.36C227.643 190.588 233.76 181.597 231.988 172.279C230.215 162.96 221.224 156.843 211.906 158.616C202.588 160.388 196.471 169.379 198.243 178.697C200.016 188.016 209.006 194.133 218.325 192.36Z" fill="#E08E66"/>
<path d="M235.089 208.563C239.001 200.342 235.509 190.506 227.288 186.593C219.067 182.681 209.231 186.174 205.318 194.395C201.406 202.616 204.899 212.452 213.12 216.364C221.341 220.277 231.177 216.784 235.089 208.563Z" fill="#E08E66"/>
<path d="M231.75 164.582C231.198 165.389 230.419 166.014 229.512 166.378C228.604 166.742 227.609 166.829 226.652 166.628C225.696 166.427 224.82 165.947 224.136 165.248C223.452 164.55 222.99 163.664 222.809 162.703C222.628 161.742 222.736 160.75 223.12 159.85C223.503 158.951 224.144 158.185 224.962 157.65C225.78 157.114 226.739 156.834 227.717 156.843C228.694 156.852 229.647 157.151 230.455 157.702C231.519 158.459 232.248 159.598 232.49 160.881C232.731 162.164 232.466 163.49 231.75 164.582V164.582Z" fill="#C56E53"/>
<path d="M202.128 172.269C201.565 173.093 200.771 173.732 199.846 174.106C198.92 174.479 197.905 174.569 196.928 174.365C195.951 174.162 195.056 173.673 194.357 172.961C193.658 172.249 193.186 171.345 193 170.365C192.814 169.384 192.923 168.371 193.314 167.452C193.704 166.534 194.358 165.751 195.192 165.204C196.027 164.657 197.005 164.37 198.003 164.379C199.001 164.388 199.974 164.692 200.799 165.254C201.347 165.627 201.816 166.105 202.179 166.659C202.543 167.214 202.793 167.835 202.917 168.486C203.04 169.137 203.034 169.807 202.898 170.456C202.763 171.105 202.501 171.721 202.128 172.269V172.269Z" fill="#C56E53"/>
<path d="M210.908 176.979C210.772 177.217 210.588 177.424 210.368 177.588C210.148 177.751 209.896 177.867 209.629 177.928C209.361 177.99 209.084 177.995 208.814 177.944C208.545 177.892 208.289 177.786 208.063 177.631C207.837 177.476 207.645 177.275 207.5 177.042C207.355 176.81 207.26 176.549 207.221 176.278C207.181 176.006 207.199 175.729 207.272 175.465C207.345 175.201 207.472 174.954 207.645 174.741C207.789 174.525 207.974 174.339 208.191 174.195C208.408 174.051 208.651 173.952 208.906 173.903C209.162 173.855 209.424 173.858 209.679 173.912C209.933 173.967 210.174 174.071 210.387 174.22C210.602 174.367 210.787 174.555 210.93 174.773C211.072 174.991 211.171 175.235 211.219 175.491C211.268 175.747 211.265 176.011 211.212 176.266C211.158 176.521 211.055 176.763 210.908 176.979V176.979Z" fill="#C56E53"/>
<path d="M222.97 174.237C222.823 174.458 222.634 174.648 222.414 174.796C222.193 174.944 221.946 175.047 221.686 175.099C221.426 175.152 221.158 175.152 220.898 175.101C220.637 175.05 220.39 174.948 220.169 174.801C219.948 174.654 219.758 174.465 219.61 174.245C219.462 174.025 219.359 173.777 219.307 173.517C219.255 173.257 219.254 172.989 219.305 172.729C219.356 172.469 219.458 172.221 219.605 172C219.902 171.554 220.364 171.244 220.889 171.138C221.414 171.033 221.96 171.14 222.406 171.437C222.852 171.733 223.162 172.195 223.268 172.72C223.374 173.246 223.266 173.791 222.97 174.237V174.237Z" fill="#C56E53"/>
<path d="M219.588 182.413C219.166 183.02 218.573 183.488 217.883 183.758C217.194 184.028 216.441 184.086 215.718 183.927C214.996 183.768 214.337 183.397 213.825 182.863C213.314 182.328 212.972 181.654 212.845 180.925C212.717 180.196 212.809 179.446 213.108 178.77C213.407 178.093 213.901 177.52 214.526 177.125C215.151 176.729 215.88 176.528 216.619 176.547C217.359 176.566 218.076 176.805 218.68 177.232C219.08 177.512 219.421 177.869 219.683 178.281C219.945 178.693 220.124 179.153 220.208 179.634C220.292 180.115 220.281 180.608 220.175 181.085C220.068 181.562 219.869 182.013 219.588 182.413Z" fill="#754040"/>
<path d="M199.369 155.011C198.721 155.168 198.134 155.515 197.683 156.006C197.232 156.498 196.938 157.112 196.837 157.772C196.736 158.431 196.833 159.106 197.117 159.709C197.4 160.313 197.856 160.819 198.428 161.163C198.999 161.507 199.66 161.673 200.327 161.641C200.993 161.608 201.634 161.378 202.17 160.98C202.705 160.582 203.11 160.034 203.333 159.406C203.556 158.777 203.587 158.096 203.423 157.45C203.204 156.592 202.656 155.854 201.897 155.398C201.138 154.941 200.229 154.802 199.369 155.011V155.011Z" fill="#F6C4A9"/>
<path d="M203.423 157.45L199.823 124.446L184.65 128.214L196.946 159.065L203.423 157.45Z" fill="#F6C4A9"/>
<path d="M190.353 118.743C188.851 119.113 187.493 119.92 186.45 121.062C185.407 122.204 184.726 123.629 184.493 125.158C184.259 126.686 184.484 128.25 185.139 129.651C185.794 131.052 186.85 132.227 188.173 133.028C189.496 133.829 191.026 134.22 192.571 134.152C194.116 134.084 195.606 133.559 196.853 132.644C198.099 131.729 199.047 130.465 199.576 129.012C200.104 127.559 200.191 125.981 199.823 124.479C199.579 123.48 199.14 122.539 198.531 121.71C197.923 120.881 197.157 120.18 196.277 119.647C195.398 119.114 194.422 118.76 193.405 118.605C192.388 118.45 191.351 118.497 190.353 118.743V118.743Z" fill="#F6C4A9"/>
<path d="M200.984 161.487C200.336 161.644 199.749 161.99 199.298 162.482C198.847 162.974 198.553 163.588 198.452 164.247C198.351 164.907 198.449 165.581 198.732 166.185C199.015 166.789 199.472 167.295 200.043 167.639C200.615 167.983 201.276 168.149 201.942 168.116C202.608 168.084 203.249 167.854 203.785 167.456C204.32 167.058 204.725 166.51 204.948 165.881C205.171 165.253 205.202 164.572 205.038 163.926C204.819 163.067 204.271 162.33 203.512 161.873C202.753 161.417 201.845 161.278 200.984 161.487V161.487Z" fill="#F6C4A9"/>
<path d="M196.949 159.055L198.56 165.536L205.041 163.925L203.43 157.444L196.949 159.055Z" fill="#F6C4A9"/>
<path d="M199.369 155.011C198.721 155.168 198.134 155.515 197.683 156.006C197.232 156.498 196.938 157.112 196.837 157.772C196.736 158.431 196.833 159.106 197.117 159.709C197.4 160.313 197.856 160.819 198.428 161.163C198.999 161.507 199.66 161.673 200.327 161.641C200.993 161.608 201.634 161.378 202.17 160.98C202.705 160.582 203.11 160.034 203.333 159.406C203.556 158.777 203.587 158.096 203.423 157.45C203.204 156.592 202.656 155.854 201.897 155.398C201.138 154.941 200.229 154.802 199.369 155.011V155.011Z" fill="#F6C4A9"/>
<path d="M185.474 121.352C184.576 122.612 184.071 124.11 184.024 125.657C183.977 127.203 184.391 128.729 185.211 130.041C186.032 131.353 187.223 132.393 188.635 133.027C190.046 133.662 191.614 133.864 193.14 133.607C194.666 133.35 196.082 132.647 197.208 131.585C198.334 130.524 199.12 129.152 199.466 127.644C199.813 126.135 199.704 124.558 199.153 123.112C198.603 121.665 197.636 120.415 196.375 119.518C194.686 118.317 192.589 117.836 190.545 118.18C188.502 118.523 186.678 119.664 185.474 121.352Z" fill="#DCF7FE"/>
<g clip-path="url(#clip0)">
<path d="M39.5306 170.15L39.4297 168.216L39.5306 170.15Z" fill="#FFC38D"/>
<path d="M40.0824 168.224L38.8057 168.29L38.9036 170.172L40.1803 170.105L40.0824 168.224Z" fill="#FFC38D"/>
<path d="M39.4465 168.805L39.5306 170.1L41.6502 203.625L42.2389 212.726V213.096H49.6236V212.44L50.145 203.625L52.1468 169.646V168.838L39.4465 168.805Z" fill="#FFC38D"/>
<path d="M50.2291 213.785H41.6501L38.8578 169.898L38.7568 168.216H52.9038L52.8196 169.696L50.2291 213.785ZM42.8613 212.507H49.0348L51.558 169.511H40.1362V169.898L40.4053 170.184L40.1698 170.47L42.8613 212.507Z" fill="#FFC38D"/>
<path d="M39.4129 168.821C39.4129 170.093 39.7902 171.336 40.497 172.393C41.2038 173.45 42.2084 174.274 43.3835 174.76C44.5587 175.246 45.8516 175.372 47.0985 175.122C48.3455 174.873 49.4904 174.259 50.3884 173.359C51.2864 172.459 51.8971 171.312 52.1431 170.065C52.3891 168.817 52.2595 167.524 51.7705 166.351C51.2816 165.177 50.4554 164.174 49.3964 163.47C48.3375 162.766 47.0935 162.392 45.8219 162.396C44.9788 162.396 44.144 162.562 43.3654 162.885C42.5867 163.208 41.8794 163.682 41.2841 164.279C40.6887 164.876 40.217 165.584 39.8959 166.364C39.5748 167.143 39.4107 167.978 39.4129 168.821V168.821Z" fill="#FFC38D"/>
<path d="M45.8219 175.886C44.4246 175.886 43.0586 175.472 41.8968 174.695C40.7349 173.919 39.8294 172.816 39.2946 171.525C38.7599 170.234 38.62 168.813 38.8926 167.443C39.1652 166.072 39.8381 164.813 40.8261 163.825C41.8142 162.837 43.0731 162.164 44.4436 161.892C45.814 161.619 47.2346 161.759 48.5256 162.294C49.8165 162.828 50.9199 163.734 51.6963 164.896C52.4726 166.058 52.8869 167.424 52.8869 168.821C52.8869 170.695 52.1426 172.492 50.8176 173.817C49.4927 175.142 47.6957 175.886 45.8219 175.886V175.886ZM45.8219 163.034C44.6774 163.034 43.5586 163.374 42.607 164.01C41.6554 164.645 40.9137 165.549 40.4758 166.606C40.0378 167.664 39.9232 168.827 40.1465 169.95C40.3697 171.072 40.9209 172.103 41.7301 172.913C42.5394 173.722 43.5705 174.273 44.693 174.496C45.8155 174.72 46.979 174.605 48.0363 174.167C49.0937 173.729 49.9974 172.987 50.6333 172.036C51.2691 171.084 51.6085 169.965 51.6085 168.821C51.6085 168.061 51.4588 167.309 51.168 166.606C50.8772 165.904 50.451 165.266 49.9136 164.729C49.3763 164.192 48.7384 163.766 48.0363 163.475C47.3343 163.184 46.5818 163.034 45.8219 163.034Z" fill="#FFC38D"/>
<path d="M42.2725 213.129C42.2692 213.858 42.4824 214.572 42.8852 215.18C43.2879 215.788 43.8621 216.263 44.535 216.544C45.2078 216.826 45.949 216.901 46.6647 216.761C47.3805 216.621 48.0384 216.271 48.5553 215.757C49.0722 215.242 49.4248 214.586 49.5683 213.871C49.7118 213.156 49.6398 212.414 49.3615 211.74C49.0832 211.066 48.611 210.489 48.0048 210.084C47.3987 209.678 46.6857 209.462 45.9564 209.462C44.9823 209.462 44.0478 209.848 43.3574 210.535C42.667 211.222 42.2769 212.155 42.2725 213.129Z" fill="#FFC38D"/>
<path d="M45.9564 217.453C45.1014 217.453 44.2656 217.199 43.5546 216.724C42.8437 216.249 42.2896 215.574 41.9624 214.784C41.6352 213.994 41.5496 213.125 41.7164 212.286C41.8832 211.448 42.2949 210.677 42.8995 210.073C43.5041 209.468 44.2744 209.057 45.113 208.89C45.9516 208.723 46.8209 208.809 47.6108 209.136C48.4008 209.463 49.076 210.017 49.551 210.728C50.026 211.439 50.2796 212.275 50.2796 213.13C50.2796 214.276 49.8241 215.376 49.0134 216.187C48.2026 216.997 47.103 217.453 45.9564 217.453V217.453ZM45.9564 210.102C45.3528 210.099 44.7619 210.275 44.2586 210.608C43.7553 210.941 43.3625 211.417 43.13 211.974C42.8974 212.531 42.8357 213.144 42.9527 213.736C43.0696 214.329 43.3599 214.873 43.7867 215.299C44.2136 215.726 44.7576 216.017 45.3498 216.134C45.942 216.251 46.5555 216.189 47.1126 215.956C47.6696 215.724 48.1449 215.331 48.4782 214.828C48.8115 214.324 48.9876 213.733 48.9843 213.13C48.9799 212.328 48.6595 211.561 48.0926 210.994C47.5257 210.427 46.7581 210.106 45.9564 210.102V210.102Z" fill="#FFC38D"/>
<path d="M39.4129 168.821C39.4129 170.093 39.7902 171.336 40.497 172.393C41.2038 173.45 42.2084 174.274 43.3835 174.76C44.5587 175.246 45.8516 175.372 47.0985 175.122C48.3455 174.873 49.4904 174.259 50.3884 173.359C51.2864 172.459 51.8971 171.312 52.1431 170.065C52.3891 168.817 52.2595 167.524 51.7705 166.351C51.2816 165.177 50.4554 164.174 49.3964 163.47C48.3375 162.766 47.0935 162.392 45.8219 162.396C44.9788 162.396 44.144 162.562 43.3654 162.885C42.5867 163.208 41.8794 163.682 41.2841 164.279C40.6887 164.876 40.217 165.584 39.8959 166.364C39.5748 167.143 39.4107 167.978 39.4129 168.821V168.821Z" fill="#FFC38D"/>
<path d="M45.8219 175.886C44.4246 175.886 43.0586 175.472 41.8968 174.695C40.7349 173.919 39.8294 172.816 39.2946 171.525C38.7599 170.234 38.62 168.813 38.8926 167.443C39.1652 166.072 39.8381 164.813 40.8261 163.825C41.8142 162.837 43.0731 162.164 44.4436 161.892C45.814 161.619 47.2346 161.759 48.5256 162.294C49.8165 162.828 50.9199 163.734 51.6963 164.896C52.4726 166.058 52.8869 167.424 52.8869 168.821C52.8869 170.695 52.1426 172.492 50.8176 173.817C49.4927 175.142 47.6957 175.886 45.8219 175.886V175.886ZM45.8219 163.034C44.6774 163.034 43.5586 163.374 42.607 164.01C41.6554 164.645 40.9137 165.549 40.4758 166.606C40.0378 167.664 39.9232 168.827 40.1465 169.95C40.3697 171.072 40.9209 172.103 41.7301 172.913C42.5394 173.722 43.5705 174.273 44.693 174.496C45.8155 174.72 46.979 174.605 48.0363 174.167C49.0937 173.729 49.9974 172.987 50.6333 172.036C51.2691 171.084 51.6085 169.965 51.6085 168.821C51.6085 168.061 51.4588 167.309 51.168 166.606C50.8772 165.904 50.451 165.266 49.9136 164.729C49.3763 164.192 48.7384 163.766 48.0363 163.475C47.3343 163.184 46.5818 163.034 45.8219 163.034Z" fill="#FFC38D"/>
<path d="M55.511 136.709L52.2476 168.821H39.4128L36.6372 136.709H55.511Z" fill="#FFC38D"/>
<path d="M52.8195 169.461H38.824L35.9307 136.07H56.2174L52.8195 169.461ZM40.0015 168.216H51.6588L54.7876 137.399H37.3269L40.0015 168.216Z" fill="#FFC38D"/>
<path d="M42.2388 212.439V217.25C42.2432 217.444 42.3231 217.628 42.4614 217.763C42.5997 217.898 42.7855 217.974 42.9789 217.974H57.7987V216.46C57.7956 216.286 57.7435 216.116 57.6483 215.97C57.5531 215.824 57.4186 215.708 57.2604 215.636L53.5933 214.122L49.6571 212.439H49.5393H42.2388Z" fill="#754040"/>
<path d="M49.943 212.591L50.5149 206.938H41.8518L42.2555 213.146L49.943 212.591Z" fill="#FCECE6"/>
<g style="mix-blend-mode:multiply" opacity="0.33">
<g style="mix-blend-mode:multiply" opacity="0.33">
<path d="M43.8872 175.23C43.8872 176.009 44.1181 176.77 44.5506 177.417C44.9831 178.064 45.5979 178.569 46.3171 178.867C47.0364 179.165 47.8278 179.243 48.5914 179.091C49.3549 178.939 50.0563 178.564 50.6068 178.014C51.1573 177.463 51.5322 176.762 51.684 175.998C51.8359 175.235 51.758 174.443 51.4601 173.724C51.1621 173.005 50.6576 172.39 50.0103 171.957C49.363 171.525 48.602 171.294 47.8234 171.294C46.7809 171.298 45.7822 171.715 45.045 172.452C44.3078 173.189 43.8916 174.188 43.8872 175.23V175.23Z" fill="#FF556D"/>
</g>
</g>
<path d="M33.2056 170.15L33.2897 168.266L33.2056 170.15Z" fill="#FFC38D"/>
<path d="M32.6521 168.243L32.5554 170.125L33.8322 170.191L33.9288 168.309L32.6521 168.243Z" fill="#FFC38D"/>
<path d="M33.2729 168.805V170.1L31.1366 203.625L30.5647 212.726V213.096H23.0959V212.44L22.5744 203.625L20.5222 169.646V168.838L33.2729 168.805Z" fill="#FFC38D"/>
<path d="M31.0693 213.785H22.4903V212.541L19.7988 168.216H33.9457L33.8616 169.898L31.0693 213.785ZM23.6846 212.507H29.8581L32.5327 170.453L32.2972 170.201L32.5664 169.898V169.494H21.1277L23.6846 212.507Z" fill="#FFC38D"/>
<path d="M33.3065 168.821C33.3065 170.094 32.9287 171.337 32.2212 172.395C31.5136 173.452 30.508 174.276 29.3319 174.761C28.1558 175.247 26.862 175.372 25.6146 175.121C24.3672 174.871 23.2223 174.255 22.325 173.353C21.4277 172.451 20.8184 171.303 20.5742 170.054C20.3301 168.806 20.4622 167.513 20.9537 166.339C21.4452 165.165 22.2741 164.164 23.3352 163.462C24.3963 162.76 25.642 162.389 26.9143 162.396C27.7566 162.396 28.5906 162.562 29.3683 162.885C30.146 163.209 30.8522 163.683 31.4462 164.28C32.0402 164.877 32.5104 165.585 32.8296 166.365C33.1489 167.144 33.3109 167.979 33.3065 168.821V168.821Z" fill="#FFC38D"/>
<path d="M26.9144 175.886C25.5171 175.886 24.1511 175.472 22.9893 174.695C21.8274 173.919 20.9219 172.816 20.3872 171.525C19.8524 170.234 19.7125 168.813 19.9851 167.443C20.2577 166.072 20.9306 164.813 21.9187 163.825C22.9067 162.837 24.1656 162.164 25.5361 161.892C26.9066 161.619 28.3271 161.759 29.6181 162.294C30.9091 162.828 32.0125 163.734 32.7888 164.896C33.5651 166.058 33.9795 167.424 33.9795 168.821C33.975 170.693 33.2292 172.488 31.9052 173.812C30.5813 175.136 28.7868 175.882 26.9144 175.886V175.886ZM26.9144 163.034C25.7692 163.031 24.6488 163.368 23.695 164.001C22.7412 164.635 21.9969 165.538 21.5563 166.595C21.1158 167.652 20.9988 168.816 21.2201 169.939C21.4415 171.063 21.9913 172.096 22.7999 172.907C23.6085 173.718 24.6395 174.27 25.7625 174.495C26.8854 174.72 28.0498 174.606 29.1081 174.169C30.1665 173.731 31.0712 172.989 31.7078 172.038C32.3444 171.086 32.6842 169.966 32.6842 168.821C32.6842 167.289 32.0769 165.82 30.9953 164.735C29.9137 163.65 28.4462 163.039 26.9144 163.034V163.034Z" fill="#FFC38D"/>
<path d="M30.4469 213.129C30.4502 213.859 30.2366 214.574 29.8331 215.182C29.4296 215.79 28.8544 216.265 28.1805 216.546C27.5067 216.827 26.7646 216.901 26.0484 216.76C25.3323 216.618 24.6743 216.267 24.1581 215.751C23.6419 215.235 23.2907 214.577 23.1491 213.86C23.0075 213.144 23.0818 212.402 23.3627 211.728C23.6437 211.054 24.1184 210.479 24.7268 210.076C25.3352 209.672 26.0498 209.459 26.7798 209.462C27.751 209.466 28.6812 209.854 29.3679 210.541C30.0547 211.228 30.4425 212.158 30.4469 213.129Z" fill="#FFC38D"/>
<path d="M26.7797 217.453C25.9246 217.453 25.0888 217.199 24.3779 216.724C23.6669 216.249 23.1128 215.574 22.7856 214.784C22.4584 213.994 22.3728 213.125 22.5396 212.286C22.7064 211.448 23.1182 210.677 23.7228 210.073C24.3274 209.468 25.0977 209.057 25.9363 208.89C26.7749 208.723 27.6441 208.809 28.4341 209.136C29.224 209.463 29.8992 210.017 30.3742 210.728C30.8493 211.439 31.1028 212.275 31.1028 213.13C31.1028 214.276 30.6473 215.376 29.8366 216.187C29.0259 216.997 27.9262 217.453 26.7797 217.453V217.453ZM26.7797 210.102C26.1761 210.099 25.5851 210.275 25.0818 210.608C24.5786 210.941 24.1857 211.417 23.9532 211.974C23.7207 212.531 23.659 213.144 23.7759 213.736C23.8928 214.329 24.1832 214.873 24.61 215.299C25.0368 215.726 25.5809 216.017 26.173 216.134C26.7652 216.251 27.3788 216.189 27.9358 215.956C28.4928 215.724 28.9682 215.331 29.3014 214.828C29.6347 214.324 29.8109 213.733 29.8076 213.13C29.8031 212.328 29.4827 211.561 28.9158 210.994C28.3489 210.427 27.5814 210.106 26.7797 210.102V210.102Z" fill="#FFC38D"/>
<path d="M33.3065 168.821C33.3065 170.094 32.9287 171.337 32.2212 172.395C31.5136 173.452 30.508 174.276 29.3319 174.761C28.1558 175.247 26.862 175.372 25.6146 175.121C24.3672 174.871 23.2223 174.255 22.325 173.353C21.4277 172.451 20.8184 171.303 20.5742 170.054C20.3301 168.806 20.4622 167.513 20.9537 166.339C21.4452 165.165 22.2741 164.164 23.3352 163.462C24.3963 162.76 25.642 162.389 26.9143 162.396C27.7566 162.396 28.5906 162.562 29.3683 162.885C30.146 163.209 30.8522 163.683 31.4462 164.28C32.0402 164.877 32.5104 165.585 32.8296 166.365C33.1489 167.144 33.3109 167.979 33.3065 168.821V168.821Z" fill="#FFC38D"/>
<path d="M26.9144 175.886C25.5171 175.886 24.1511 175.472 22.9893 174.695C21.8274 173.919 20.9219 172.816 20.3872 171.525C19.8524 170.234 19.7125 168.813 19.9851 167.443C20.2577 166.072 20.9306 164.813 21.9187 163.825C22.9067 162.837 24.1656 162.164 25.5361 161.892C26.9066 161.619 28.3271 161.759 29.6181 162.294C30.9091 162.828 32.0125 163.734 32.7888 164.896C33.5651 166.058 33.9795 167.424 33.9795 168.821C33.975 170.693 33.2292 172.488 31.9052 173.812C30.5813 175.136 28.7868 175.882 26.9144 175.886V175.886ZM26.9144 163.034C25.7692 163.031 24.6488 163.368 23.695 164.001C22.7412 164.635 21.9969 165.538 21.5563 166.595C21.1158 167.652 20.9988 168.816 21.2201 169.939C21.4415 171.063 21.9913 172.096 22.7999 172.907C23.6085 173.718 24.6395 174.27 25.7625 174.495C26.8854 174.72 28.0498 174.606 29.1081 174.169C30.1665 173.731 31.0712 172.989 31.7078 172.038C32.3444 171.086 32.6842 169.966 32.6842 168.821C32.6842 167.289 32.0769 165.82 30.9953 164.735C29.9137 163.65 28.4462 163.039 26.9144 163.034V163.034Z" fill="#FFC38D"/>
<path d="M17.2251 136.709L20.4717 168.821H33.3065L36.082 136.709H17.2251Z" fill="#FFC38D"/>
<path d="M33.8952 169.461H19.8997L16.5354 136.07H36.7885L33.8952 169.461ZM21.0604 168.216H32.7177L35.3251 137.366H17.9316L21.0604 168.216Z" fill="#FFC38D"/>
<path d="M30.4974 212.439V214.811V217.25C30.4931 217.441 30.4155 217.622 30.2808 217.757C30.1461 217.892 29.9646 217.969 29.7741 217.974H14.9207V216.46C14.9237 216.286 14.9758 216.116 15.0711 215.97C15.1663 215.824 15.3007 215.708 15.4589 215.636L19.1092 214.122L23.0455 212.439H23.1632H30.4974Z" fill="#754040"/>
<path d="M22.7763 212.591L22.2043 206.938H30.8674L30.4637 213.146L22.7763 212.591Z" fill="#FCECE6"/>
<g style="mix-blend-mode:multiply" opacity="0.33">
<g style="mix-blend-mode:multiply" opacity="0.33">
<path d="M28.832 175.23C28.832 176.009 28.6011 176.77 28.1686 177.417C27.7361 178.064 27.1213 178.569 26.4021 178.867C25.6828 179.165 24.8914 179.243 24.1278 179.091C23.3642 178.939 22.6629 178.564 22.1124 178.014C21.5619 177.463 21.187 176.762 21.0351 175.998C20.8832 175.235 20.9612 174.443 21.2591 173.724C21.557 173.005 22.0615 172.39 22.7089 171.957C23.3562 171.525 24.1172 171.294 24.8957 171.294C25.9383 171.298 26.9369 171.715 27.6742 172.452C28.4114 173.189 28.8275 174.188 28.832 175.23V175.23Z" fill="#FF556D"/>
</g>
</g>
<path d="M37.0072 130.889H15.1392V134.102C17.1825 139.56 21.0916 144.118 26.1741 146.97C29.2007 148.665 32.5573 149.686 36.0147 149.964V150.065C36.1772 150.074 36.34 150.074 36.5025 150.065C36.665 150.074 36.8278 150.074 36.9903 150.065V149.964C40.4478 149.686 43.8044 148.665 46.8309 146.97C51.9134 144.118 55.8225 139.56 57.8659 134.102V130.889H37.0072Z" fill="#B8DFFF"/>
<path d="M8.41071 138.139C9.01693 138.135 9.61049 138.312 10.1162 138.646C10.6218 138.981 11.0169 139.458 11.2512 140.017C11.4855 140.576 11.5485 141.192 11.4323 141.787C11.316 142.382 11.0258 142.929 10.5983 143.359C10.1708 143.789 9.62535 144.082 9.03102 144.202C8.43669 144.321 7.82026 144.262 7.25986 144.03C6.69946 143.799 6.22032 143.407 5.88316 142.903C5.54601 142.399 5.36602 141.806 5.36601 141.2C5.3638 140.799 5.44091 140.401 5.59293 140.03C5.74495 139.659 5.96887 139.321 6.25182 139.036C6.53476 138.752 6.87116 138.526 7.24166 138.372C7.61216 138.218 8.00946 138.139 8.41071 138.139V138.139Z" fill="#FFC38D"/>
<path d="M8.41061 144.885C7.47441 144.821 6.59718 144.405 5.95642 143.719C5.31567 143.034 4.95923 142.131 4.95923 141.192C4.95923 140.254 5.31567 139.351 5.95642 138.665C6.59718 137.98 7.47441 137.563 8.41061 137.5V137.5C8.89476 137.498 9.37443 137.593 9.82193 137.778C10.2694 137.962 10.6759 138.234 11.0179 138.577C11.54 139.091 11.8967 139.749 12.0426 140.467C12.1885 141.185 12.1169 141.931 11.837 142.608C11.5571 143.285 11.0816 143.864 10.4712 144.269C9.86084 144.675 9.1434 144.889 8.41061 144.885ZM8.41061 138.778C7.80519 138.829 7.24089 139.105 6.82958 139.552C6.41827 139.999 6.18999 140.585 6.18999 141.192C6.18999 141.8 6.41827 142.385 6.82958 142.832C7.24089 143.279 7.80519 143.556 8.41061 143.606V143.606C9.05012 143.602 9.66193 143.345 10.1126 142.891C10.5632 142.437 10.8161 141.823 10.8161 141.184C10.8161 140.546 10.5627 139.934 10.1115 139.483C9.66042 139.032 9.04858 138.778 8.41061 138.778V138.778Z" fill="#FFC38D"/>
<path d="M5.28192 141.201L1.16064 111.157L15.4253 111.141L11.3713 141.184L5.28192 141.201Z" fill="#FFC38D"/>
<path d="M4.72672 141.839L0.42041 110.518H16.1654L11.9432 141.822L4.72672 141.839ZM1.88388 111.796L5.83695 140.544H10.8834L14.7692 111.779L1.88388 111.796Z" fill="#FFC38D"/>
<path d="M8.27618 104.008C9.69156 104.001 11.0771 104.415 12.2572 105.196C13.4372 105.978 14.3588 107.092 14.9051 108.398C15.4513 109.704 15.5977 111.142 15.3257 112.531C15.0536 113.92 14.3754 115.197 13.3769 116.2C12.3785 117.203 11.1047 117.888 9.71697 118.166C8.32926 118.445 6.89008 118.305 5.58178 117.765C4.27349 117.225 3.15495 116.309 2.36789 115.132C1.58083 113.956 1.16068 112.572 1.16066 111.157C1.15845 110.22 1.34075 109.293 1.69714 108.426C2.05353 107.56 2.57704 106.773 3.23778 106.109C3.89851 105.445 4.68354 104.918 5.54803 104.557C6.41252 104.197 7.33954 104.01 8.27618 104.008V104.008Z" fill="#FFC38D"/>
<path d="M8.29297 118.928C6.29217 118.835 4.40415 117.975 3.02113 116.526C1.63812 115.077 0.866455 113.151 0.866455 111.148C0.866455 109.145 1.63812 107.219 3.02113 105.77C4.40415 104.322 6.29217 103.461 8.29297 103.368V103.368C10.3543 103.373 12.3302 104.192 13.7894 105.648C15.2485 107.104 16.0725 109.078 16.0813 111.14C16.0769 113.201 15.2572 115.177 13.8012 116.636C12.3452 118.095 10.3711 118.919 8.30979 118.928H8.29297ZM8.29297 104.007V104.647C6.62585 104.731 5.05502 105.453 3.90505 106.663C2.75508 107.873 2.11385 109.479 2.11385 111.148C2.11385 112.817 2.75508 114.423 3.90505 115.633C5.05502 116.843 6.62585 117.565 8.29297 117.65V117.65C9.14616 117.653 9.99145 117.486 10.7798 117.16C11.5681 116.834 12.2838 116.354 12.8853 115.749C14.093 114.519 14.7696 112.864 14.7693 111.14C14.7693 109.418 14.0852 107.766 12.8675 106.548C11.6498 105.331 9.99823 104.647 8.27615 104.647V104.647L8.29297 104.007Z" fill="#FFC38D"/>
<path d="M8.41061 144.245C9.0128 144.245 9.60146 144.424 10.1022 144.758C10.6029 145.093 10.9931 145.569 11.2235 146.125C11.454 146.681 11.5143 147.293 11.3968 147.884C11.2793 148.475 10.9893 149.017 10.5635 149.443C10.1377 149.869 9.59522 150.159 9.0046 150.276C8.41399 150.394 7.8018 150.333 7.24546 150.103C6.68911 149.873 6.21359 149.482 5.87904 148.982C5.54448 148.481 5.36591 147.892 5.36591 147.29C5.36141 146.889 5.43708 146.491 5.5885 146.12C5.73991 145.748 5.96401 145.411 6.24764 145.127C6.53127 144.843 6.86871 144.619 7.24014 144.468C7.61158 144.316 8.00953 144.241 8.41061 144.245V144.245Z" fill="#FFC38D"/>
<path d="M8.41072 150.973C7.43369 150.973 6.49667 150.585 5.8058 149.894C5.11493 149.203 4.72681 148.266 4.72681 147.289C4.72681 146.312 5.11493 145.375 5.8058 144.684C6.49667 143.994 7.43369 143.605 8.41072 143.605V143.605C9.38776 143.605 10.3248 143.994 11.0156 144.684C11.7065 145.375 12.0946 146.312 12.0946 147.289C12.0946 148.266 11.7065 149.203 11.0156 149.894C10.3248 150.585 9.38776 150.973 8.41072 150.973ZM8.41072 144.884C7.77899 144.889 7.17476 145.143 6.72857 145.59C6.39623 145.928 6.17016 146.356 6.07836 146.82C5.98656 147.285 6.03304 147.767 6.21206 148.205C6.39108 148.644 6.69477 149.02 7.08556 149.288C7.47635 149.556 7.93708 149.703 8.41072 149.712V149.712C9.05024 149.707 9.66205 149.45 10.1127 148.996C10.5633 148.542 10.8162 147.929 10.8162 147.289C10.8126 146.657 10.5585 146.052 10.1097 145.607C9.65785 145.171 9.05584 144.924 8.42755 144.918L8.41072 144.884Z" fill="#FFC38D"/>
<path d="M5.2848 141.213L5.29224 147.303L11.3816 147.295L11.3742 141.206L5.2848 141.213Z" fill="#FFC38D"/>
<path d="M4.65942 147.929V140.562H12.0273V147.946L4.65942 147.929ZM5.92104 141.84V146.651H10.7488V141.823L5.92104 141.84Z" fill="#FFC38D"/>
<path d="M8.41071 138.139C9.01693 138.135 9.61049 138.312 10.1162 138.646C10.6218 138.981 11.0169 139.458 11.2512 140.017C11.4855 140.576 11.5485 141.192 11.4323 141.787C11.316 142.382 11.0258 142.929 10.5983 143.359C10.1708 143.789 9.62535 144.082 9.03102 144.202C8.43669 144.321 7.82026 144.262 7.25986 144.03C6.69946 143.799 6.22032 143.407 5.88316 142.903C5.54601 142.399 5.36602 141.806 5.36601 141.2C5.3638 140.799 5.44091 140.401 5.59293 140.03C5.74495 139.659 5.96887 139.321 6.25182 139.036C6.53476 138.752 6.87116 138.526 7.24166 138.372C7.61216 138.218 8.00946 138.139 8.41071 138.139V138.139Z" fill="#FFC38D"/>
<path d="M8.41061 144.885C7.47441 144.821 6.59718 144.405 5.95642 143.719C5.31567 143.034 4.95923 142.131 4.95923 141.192C4.95923 140.254 5.31567 139.351 5.95642 138.665C6.59718 137.98 7.47441 137.563 8.41061 137.5V137.5C8.89476 137.498 9.37443 137.593 9.82193 137.778C10.2694 137.962 10.6759 138.234 11.0179 138.577C11.54 139.091 11.8967 139.749 12.0426 140.467C12.1885 141.185 12.1169 141.931 11.837 142.608C11.5571 143.285 11.0816 143.864 10.4712 144.269C9.86084 144.675 9.1434 144.889 8.41061 144.885ZM8.41061 138.778C7.80519 138.829 7.24089 139.105 6.82958 139.552C6.41827 139.999 6.18999 140.585 6.18999 141.192C6.18999 141.8 6.41827 142.385 6.82958 142.832C7.24089 143.279 7.80519 143.556 8.41061 143.606V143.606C9.05012 143.602 9.66193 143.345 10.1126 142.891C10.5632 142.437 10.8161 141.823 10.8161 141.184C10.8161 140.546 10.5627 139.934 10.1115 139.483C9.66042 139.032 9.04858 138.778 8.41061 138.778V138.778Z" fill="#FFC38D"/>
<path d="M13.1878 105.236C14.2609 106.156 15.0373 107.373 15.419 108.734C15.8008 110.094 15.7707 111.537 15.3326 112.881C14.8945 114.224 14.0681 115.408 12.9577 116.282C11.8473 117.156 10.5028 117.682 9.09394 117.792C7.6851 117.902 6.27515 117.593 5.04219 116.902C3.80924 116.212 2.80859 115.171 2.16666 113.912C1.52472 112.653 1.27029 111.232 1.43551 109.829C1.60072 108.425 2.17817 107.102 3.09491 106.027C4.32957 104.585 6.08568 103.693 7.97787 103.544C9.87007 103.396 11.7438 104.005 13.1878 105.236Z" fill="#FFC38D"/>
<path d="M8.52843 118.458C7.27287 118.46 6.03542 118.158 4.92152 117.579C3.80763 116.999 2.85031 116.159 2.13117 115.13C1.41202 114.101 0.952357 112.913 0.791353 111.668C0.630348 110.423 0.772774 109.157 1.20649 107.979C1.64021 106.801 2.35237 105.745 3.28227 104.901C4.21217 104.057 5.33224 103.451 6.54705 103.134C7.76185 102.816 9.03536 102.797 10.2591 103.079C11.4827 103.36 12.6203 103.932 13.5749 104.748V104.748C14.749 105.743 15.6012 107.064 16.0236 108.544C16.446 110.024 16.4194 111.596 15.9474 113.061C15.4753 114.525 14.579 115.817 13.372 116.772C12.1651 117.727 10.7018 118.302 9.16765 118.424L8.52843 118.458ZM8.52843 104.176C7.19698 104.17 5.89572 104.573 4.80097 105.33C3.70622 106.088 2.87092 107.164 2.40824 108.413C1.94556 109.661 1.87789 111.022 2.21438 112.31C2.55087 113.598 3.27527 114.752 4.2894 115.615C5.60184 116.733 7.30414 117.284 9.02285 117.149C10.7415 117.013 12.3363 116.201 13.4571 114.891C14.5751 113.579 15.1268 111.877 14.9912 110.158C14.8556 108.439 14.0438 106.845 12.7338 105.724V105.724C11.5697 104.731 10.0918 104.183 8.56208 104.176H8.52843Z" fill="#FFC38D"/>
<path d="M20.9783 85.1074L3.11279 106.04L13.9758 115.311L31.8413 94.3787L20.9783 85.1074Z" fill="#FFDA82"/>
<path d="M21.4977 95.4961C22.5732 96.4129 23.8962 96.9903 25.2997 97.1555C26.7031 97.3208 28.1241 97.0663 29.383 96.4244C30.642 95.7824 31.6824 94.7818 32.373 93.5488C33.0635 92.3159 33.3732 90.9059 33.2628 89.4971C33.1524 88.0883 32.627 86.7437 31.7529 85.6333C30.8788 84.5229 29.6952 83.6965 28.3517 83.2584C27.0081 82.8204 25.5649 82.7903 24.2043 83.172C22.8437 83.5538 21.6267 84.3302 20.7071 85.4032C20.0951 86.1173 19.63 86.9451 19.3385 87.8392C19.047 88.7333 18.9347 89.6761 19.0082 90.6137C19.0816 91.5513 19.3393 92.4651 19.7665 93.3029C20.1937 94.1408 20.782 94.8861 21.4977 95.4961V95.4961Z" fill="#FFDA82"/>
<path d="M0.639179 106.245C0.880108 105.848 1.26756 105.562 1.71773 105.449C2.16789 105.336 2.64457 105.404 3.04466 105.639L15.8459 113.26C16.0511 113.37 16.2311 113.523 16.3743 113.707C16.5176 113.891 16.6209 114.103 16.6779 114.329C16.7348 114.555 16.7441 114.791 16.7051 115.021C16.6661 115.251 16.5797 115.47 16.4514 115.665V115.665C16.3406 115.87 16.1883 116.05 16.0042 116.194C15.82 116.337 15.6081 116.44 15.3819 116.497C15.1557 116.554 14.9201 116.563 14.6901 116.524C14.4601 116.485 14.2408 116.399 14.0459 116.271L1.24475 108.651C1.03949 108.54 0.859521 108.387 0.716282 108.203C0.573043 108.019 0.469664 107.807 0.412715 107.581C0.355765 107.355 0.346489 107.119 0.385476 106.889C0.424462 106.659 0.51086 106.44 0.639179 106.245V106.245Z" fill="#FCECE6"/>
<path d="M95.8826 82.5599C96.345 82.9957 96.9263 83.2846 97.553 83.3901C98.1796 83.4955 98.8234 83.4128 99.4031 83.1523C99.9827 82.8918 100.472 82.4654 100.809 81.9268C101.147 81.3882 101.316 80.7617 101.298 80.1265C101.279 79.4914 101.072 78.876 100.704 78.3584C100.335 77.8407 99.8213 77.4439 99.2272 77.2183C98.6332 76.9926 97.9856 76.9481 97.3663 77.0905C96.747 77.2328 96.1838 77.5556 95.748 78.0181C95.4566 78.3241 95.2287 78.6848 95.0776 79.0794C94.9265 79.474 94.8551 79.8947 94.8676 80.3171C94.8801 80.7394 94.9763 81.1551 95.1505 81.5401C95.3247 81.9251 95.5735 82.2717 95.8826 82.5599V82.5599Z" fill="#FFC38D"/>
<path d="M95.7817 78.0186L70.97 98.0698L81.904 108.381L100.441 82.409L95.7817 78.0186Z" fill="#FFC38D"/>
<path d="M71.2728 108.701C72.3539 109.722 73.7136 110.399 75.1798 110.648C76.646 110.896 78.1528 110.704 79.5099 110.096C80.8669 109.488 82.0132 108.491 82.8038 107.232C83.5944 105.972 83.9938 104.506 83.9514 103.02C83.9091 101.534 83.4269 100.093 82.566 98.8806C81.705 97.6681 80.5038 96.7382 79.1144 96.2083C77.7249 95.6785 76.2095 95.5725 74.7598 95.9039C73.3102 96.2352 71.9913 96.989 70.97 98.0698C70.2916 98.7877 69.7614 99.6321 69.4095 100.555C69.0576 101.478 68.8909 102.461 68.9191 103.448C68.9472 104.435 69.1695 105.407 69.5734 106.309C69.9772 107.21 70.5547 108.023 71.2728 108.701V108.701Z" fill="#FFC38D"/>
<path d="M100.307 77.8841C100.769 78.3199 101.35 78.6088 101.977 78.7143C102.604 78.8197 103.248 78.737 103.827 78.4765C104.407 78.2161 104.896 77.7896 105.233 77.251C105.571 76.7124 105.741 76.0859 105.722 75.4508C105.703 74.8156 105.496 74.2003 105.128 73.6826C104.759 73.1649 104.245 72.7682 103.651 72.5425C103.057 72.3168 102.41 72.2723 101.79 72.4147C101.171 72.557 100.608 72.8799 100.172 73.3423C99.8828 73.6493 99.6567 74.0104 99.5068 74.4048C99.357 74.7993 99.2863 75.2193 99.2988 75.6411C99.3113 76.0628 99.4067 76.478 99.5797 76.8628C99.7526 77.2477 99.9997 77.5947 100.307 77.8841V77.8841Z" fill="#FFC38D"/>
<path d="M100.455 82.4082L104.85 77.7432L100.185 73.3486L95.7902 78.0136L100.455 82.4082Z" fill="#FFC38D"/>
<path d="M95.8826 82.5599C96.345 82.9957 96.9263 83.2846 97.553 83.3901C98.1796 83.4955 98.8234 83.4128 99.4031 83.1523C99.9827 82.8918 100.472 82.4654 100.809 81.9268C101.147 81.3882 101.316 80.7617 101.298 80.1265C101.279 79.4914 101.072 78.876 100.704 78.3584C100.335 77.8407 99.8213 77.4439 99.2272 77.2183C98.6332 76.9926 97.9856 76.9481 97.3663 77.0905C96.747 77.2328 96.1838 77.5556 95.748 78.0181C95.4566 78.3241 95.2287 78.6848 95.0776 79.0794C94.9265 79.474 94.8551 79.8947 94.8676 80.3171C94.8801 80.7394 94.9763 81.1551 95.1505 81.5401C95.3247 81.9251 95.5735 82.2717 95.8826 82.5599V82.5599Z" fill="#FFC38D"/>
<path d="M69.8261 99.9872C69.208 101.34 69.0051 102.846 69.2431 104.314C69.481 105.782 70.149 107.147 71.1627 108.236C72.1763 109.324 73.49 110.088 74.9377 110.429C76.3853 110.771 77.9017 110.676 79.2952 110.156C80.6887 109.636 81.8966 108.714 82.7661 107.507C83.6356 106.3 84.1277 104.863 84.18 103.376C84.2324 101.89 83.8427 100.421 83.0603 99.1561C82.2779 97.8911 81.1378 96.8866 79.7844 96.2696C77.9702 95.4474 75.9042 95.377 74.0382 96.0736C72.1721 96.7702 70.6577 98.1772 69.8261 99.9872V99.9872Z" fill="#FFC38D"/>
<path d="M53.4338 84.2574L47.2092 97.9287L73.5567 109.925L79.7813 96.2536L53.4338 84.2574Z" fill="#FFC38D"/>
<path d="M57.5464 94.4028C56.9294 95.7562 55.9249 96.8963 54.6599 97.6787C53.3949 98.4611 51.9263 98.8508 50.4398 98.7984C48.9533 98.7461 47.5157 98.254 46.309 97.3845C45.1022 96.515 44.1804 95.3071 43.6602 93.9136C43.14 92.5201 43.0447 91.0037 43.3865 89.5561C43.7283 88.1085 44.4917 86.7947 45.5803 85.7811C46.6688 84.7674 48.0335 84.0994 49.5018 83.8615C50.9701 83.6235 52.4759 83.8264 53.8288 84.4445C55.6418 85.2727 57.0518 86.7868 57.7489 88.6541C58.446 90.5215 58.3732 92.5892 57.5464 94.4028V94.4028Z" fill="#FFDA82"/>
<path d="M47.1834 97.9349L63.1511 105.205L69.3757 91.5338L53.408 84.2636L47.1834 97.9349Z" fill="#FFDA82"/>
<path d="M62.0209 105.841C61.8105 105.74 61.6234 105.597 61.4713 105.42C61.3193 105.244 61.2056 105.037 61.1376 104.814C61.0696 104.591 61.0487 104.356 61.0762 104.125C61.1037 103.893 61.1791 103.67 61.2975 103.469L68.2785 90.3148C68.3791 90.1044 68.5223 89.9173 68.6991 89.7653C68.8758 89.6132 69.0823 89.4996 69.3053 89.4316C69.5284 89.3635 69.7631 89.3426 69.9946 89.3702C70.2262 89.3977 70.4494 89.4731 70.6503 89.5915V89.5915C70.8607 89.6921 71.0478 89.8353 71.1999 90.0121C71.3519 90.1888 71.4655 90.3953 71.5336 90.6183C71.6016 90.8414 71.6225 91.0761 71.5949 91.3076C71.5674 91.5392 71.492 91.7624 71.3736 91.9633L64.3927 105.118C64.2921 105.328 64.1489 105.515 63.9721 105.667C63.7953 105.819 63.5889 105.933 63.3658 106.001C63.1428 106.069 62.9081 106.09 62.6765 106.062C62.445 106.035 62.2217 105.96 62.0209 105.841V105.841Z" fill="#FCECE6"/>
<path d="M57.8997 130.872H15.4421L20.0008 92.2831C20.2227 90.4056 20.8935 88.6091 21.9563 87.0456C23.0191 85.4821 24.4428 84.1975 26.107 83.3004C26.7947 82.9271 27.5227 82.6337 28.277 82.4256C28.6808 82.2796 29.0976 82.1726 29.5218 82.106C30.2127 81.9576 30.9177 81.8843 31.6245 81.8874L42.6594 81.736C43.0403 81.7104 43.4224 81.7104 43.8033 81.736C44.2158 81.7649 44.6261 81.8211 45.0312 81.9042L45.805 82.0724C46.563 82.2728 47.3007 82.5431 48.0086 82.8798C49.844 83.7836 51.4151 85.1456 52.5703 86.8341C53.7254 88.5225 54.4254 90.4805 54.6027 92.5186L57.8997 130.872Z" fill="#FFDA82"/>
<path d="M36.6539 86.3113C35.5475 86.3113 34.4864 85.8718 33.7041 85.0895C32.9217 84.3071 32.4822 83.246 32.4822 82.1396V72.585H40.8929V82.1396C40.893 82.6931 40.7829 83.2412 40.5691 83.7518C40.3552 84.2623 40.0419 84.7252 39.6474 85.1135C39.2528 85.5018 38.785 85.8077 38.271 86.0133C37.7571 86.219 37.2074 86.3203 36.6539 86.3113Z" fill="#FFC38D"/>
<path d="M36.654 86.9511C35.3794 86.9467 34.1583 86.4384 33.257 85.5371C32.3557 84.6358 31.8475 83.4147 31.843 82.1401V71.9463H41.4649V82.1401C41.4649 83.4161 40.9581 84.6398 40.0558 85.542C39.1536 86.4442 37.9299 86.9511 36.654 86.9511ZM33.1383 73.2247V82.1401C33.1383 83.0726 33.5087 83.9668 34.168 84.6261C34.8273 85.2854 35.7216 85.6558 36.654 85.6558C37.5864 85.6558 38.4806 85.2854 39.14 84.6261C39.7993 83.9668 40.1697 83.0726 40.1697 82.1401V73.2247H33.1383Z" fill="#FFC38D"/>
<path d="M31.002 78.607C25.7161 78.6048 20.6391 76.543 16.8483 72.8591C13.0576 69.1751 10.8516 64.159 10.6984 58.8753H7.45187C5.65632 58.8756 3.93253 58.1705 2.65192 56.9119C1.37131 55.6533 0.636387 53.942 0.605505 52.1467V50.7001C0.58987 49.7911 0.755409 48.8882 1.09246 48.0439C1.42952 47.1996 1.93134 46.4309 2.56865 45.7826C3.20596 45.1344 3.96599 44.6195 4.80439 44.2681C5.6428 43.9167 6.5428 43.7358 7.45187 43.7359H10.6816V31.3385C10.6936 27.1877 12.0485 23.1522 14.5438 19.8352C17.0391 16.5182 20.5409 14.0978 24.5257 12.9357C26.2525 12.4316 28.0425 12.1767 29.8413 12.1787H43.4668C45.2657 12.1767 47.0556 12.4316 48.7824 12.9357C52.7672 14.0978 56.269 16.5182 58.7643 19.8352C61.2597 23.1522 62.6146 27.1877 62.6265 31.3385V43.7359H65.8563C67.672 43.7359 69.4134 44.4573 70.6974 45.7412C71.9813 47.0251 72.7026 48.7665 72.7026 50.5823V52.1467C72.6718 53.942 71.9368 55.6533 70.6562 56.9119C69.3756 58.1705 67.6518 58.8756 65.8563 58.8753H62.6097C62.4566 64.159 60.2505 69.1751 56.4598 72.8591C52.6691 76.543 47.592 78.6048 42.3061 78.607H31.002Z" fill="#FFC38D"/>
<path d="M43.4668 12.7852C45.8967 12.7852 48.3029 13.2638 50.5478 14.1937C52.7928 15.1236 54.8327 16.4865 56.5509 18.2048C58.2691 19.923 59.6321 21.9628 60.562 24.2078C61.4919 26.4528 61.9705 28.8589 61.9705 31.2889V44.3256H65.8058C67.4596 44.33 69.0444 44.9889 70.2138 46.1583C71.3832 47.3278 72.0422 48.9126 72.0466 50.5664V52.1476C72.0422 53.8014 71.3832 55.3862 70.2138 56.5556C69.0444 57.725 67.4596 58.3839 65.8058 58.3884H62.021C61.9943 63.5996 59.9054 68.5882 56.211 72.2637C52.5167 75.9391 47.5174 78.0024 42.3061 78.0023H31.002C25.7762 78.0023 20.7642 75.9275 17.0675 72.2339C13.3707 68.5403 11.2916 63.5301 11.2872 58.3043H7.45187C5.8125 58.3001 4.24025 57.6527 3.0732 56.5014C1.90615 55.3501 1.23751 53.7867 1.21108 52.1476V50.7009C1.21552 49.0471 1.87445 47.4623 3.04387 46.2929C4.21328 45.1235 5.79807 44.4646 7.45187 44.4601H11.2872V31.3393C11.2872 26.4318 13.2367 21.7254 16.7068 18.2552C20.1769 14.7851 24.8834 12.8356 29.7909 12.8356H43.4163L43.4668 12.7852ZM43.4163 11.6413H29.7909C27.9367 11.6391 26.0912 11.8938 24.3071 12.3983C20.2158 13.6068 16.6232 16.1023 14.0626 19.5144C11.502 22.9265 10.1099 27.0733 10.0929 31.3393V43.1144H7.45187C6.46901 43.1144 5.49585 43.3088 4.58843 43.6864C3.68101 44.0641 2.85727 44.6175 2.16463 45.3148C1.47199 46.0122 0.924136 46.8396 0.552622 47.7496C0.181108 48.6595 -0.00672921 49.634 -7.32508e-05 50.6168V52.1476C0.00436999 54.1226 0.79091 56.0154 2.18746 57.412C3.58401 58.8085 5.47686 59.5951 7.45187 59.5995H10.0929C10.4269 64.916 12.7759 69.905 16.661 73.5495C20.5462 77.194 25.675 79.2196 31.002 79.2134H42.3061C47.641 79.2098 52.773 77.1687 56.6531 73.5074C60.5333 69.8461 62.8686 64.8411 63.1816 59.5154H65.8563C67.8168 59.5112 69.6971 58.7362 71.0913 57.3578C72.4855 55.9793 73.2817 54.108 73.3082 52.1476V50.7009C73.3038 48.7275 72.5167 46.8363 71.1196 45.4425C69.7226 44.0486 67.8297 43.2658 65.8563 43.2658H63.2321V31.4907C63.2517 27.1822 61.8689 22.9844 59.2926 19.531C56.7162 16.0777 53.0862 13.5563 48.9506 12.3478C47.1664 11.8434 45.3209 11.5886 43.4668 11.5908L43.4163 11.6413Z" fill="#FFC38D"/>
<path d="M62.4918 18.1675C59.6977 12.2022 54.866 7.4301 48.8664 4.7103C44.3582 2.57397 39.5809 1.83382 35.2073 0.168486C30.8337 -1.49685 15.4083 10.0932 12.7505 13.693C6.7284 22.1038 7.06483 34.9218 9.3862 44.426C9.3862 44.611 12.0104 44.2409 12.0608 44.426C12.1113 44.611 10.9338 23.3486 16.4681 19.0759C16.4681 19.0759 32.213 28.1764 45.5862 18.7058C45.5862 18.7058 51.7765 26.8475 60.0359 27.924C60.0359 27.924 61.718 39.0263 62.1554 45.1493C62.1554 45.1493 63.2656 45.4521 63.5852 44.5269C66.4809 35.9058 66.0915 26.5192 62.4918 18.1675V18.1675Z" fill="#754040"/>
<path d="M32.8523 34.8203C32.4403 34.8247 32.0467 34.9915 31.7569 35.2844C31.4672 35.5773 31.3047 35.9727 31.3047 36.3847V39.749C31.3047 40.1595 31.4677 40.5531 31.758 40.8433C32.0482 41.1336 32.4418 41.2966 32.8523 41.2966C33.2627 41.2966 33.6563 41.1336 33.9466 40.8433C34.2368 40.5531 34.3999 40.1595 34.3999 39.749V36.3847C34.3999 35.9727 34.2374 35.5773 33.9476 35.2844C33.6579 34.9915 33.2643 34.8247 32.8523 34.8203V34.8203Z" fill="#754040"/>
<path d="M40.4558 34.8203C40.0438 34.8247 39.6502 34.9915 39.3604 35.2844C39.0707 35.5773 38.9082 35.9727 38.9082 36.3847V39.749C38.9082 40.1595 39.0713 40.5531 39.3615 40.8433C39.6517 41.1336 40.0453 41.2966 40.4558 41.2966C40.8662 41.2966 41.2599 41.1336 41.5501 40.8433C41.8403 40.5531 42.0034 40.1595 42.0034 39.749V36.3847C42.0034 35.9727 41.8409 35.5773 41.5511 35.2844C41.2614 34.9915 40.8678 34.8247 40.4558 34.8203V34.8203Z" fill="#754040"/>
<g style="mix-blend-mode:multiply" opacity="0.33">
<g style="mix-blend-mode:multiply" opacity="0.33">
<path d="M19.4287 49.1694C20.7387 49.1694 21.8006 48.1075 21.8006 46.7976C21.8006 45.4877 20.7387 44.4258 19.4287 44.4258C18.1188 44.4258 17.0569 45.4877 17.0569 46.7976C17.0569 48.1075 18.1188 49.1694 19.4287 49.1694Z" fill="#FF556D"/>
</g>
</g>
<g style="mix-blend-mode:multiply" opacity="0.33">
<g style="mix-blend-mode:multiply" opacity="0.33">
<path d="M56.2344 46.7979C56.2344 47.2655 56.0961 47.7227 55.8369 48.112C55.5777 48.5013 55.2093 48.8053 54.7778 48.9857C54.3464 49.1662 53.8712 49.2151 53.4121 49.1263C52.9529 49.0375 52.5303 48.8149 52.1973 48.4865C51.8643 48.1582 51.6358 47.7387 51.5405 47.2809C51.4452 46.823 51.4874 46.3472 51.6618 45.9133C51.8361 45.4793 52.1349 45.1066 52.5205 44.842C52.9061 44.5774 53.3613 44.4327 53.8289 44.426C54.1432 44.4216 54.4553 44.4796 54.7469 44.5968C55.0386 44.714 55.304 44.888 55.5279 45.1087C55.7517 45.3294 55.9294 45.5924 56.0507 45.8824C56.172 46.1723 56.2344 46.4835 56.2344 46.7979V46.7979Z" fill="#FF556D"/>
</g>
</g>
<path d="M26.0565 27.1838C26.1992 27.0613 26.3163 26.9118 26.4011 26.744C26.486 26.5762 26.5369 26.3934 26.5509 26.2059C26.565 26.0184 26.5419 25.8299 26.4831 25.6514C26.4242 25.4728 26.3307 25.3076 26.2079 25.1652L25.7369 24.6269C25.4881 24.3547 25.1456 24.1865 24.7781 24.1559C24.3977 24.1334 24.0236 24.2601 23.7352 24.5091L21.5652 26.3931L23.9034 29.0846L26.0565 27.1838Z" fill="#FCECE6"/>
<path d="M15.7618 31.3897C15.6203 31.5133 15.5046 31.6636 15.4213 31.832C15.3379 32.0004 15.2886 32.1836 15.2761 32.3711C15.2636 32.5585 15.2882 32.7466 15.3484 32.9246C15.4087 33.1026 15.5034 33.2669 15.6272 33.4082L16.0982 33.9465C16.2207 34.0892 16.3701 34.2063 16.5379 34.2911C16.7057 34.376 16.8886 34.4269 17.0761 34.4409C17.2636 34.455 17.452 34.4319 17.6306 34.3731C17.8092 34.3142 17.9744 34.2207 18.1168 34.0979L20.2699 32.2139L17.9317 29.5225L15.7618 31.3897Z" fill="#FCECE6"/>
<path d="M18.8063 24.1392C18.5647 23.8667 18.2273 23.698 17.8643 23.6682V23.6682C17.4842 23.6475 17.1107 23.774 16.8214 24.0215L16.2831 24.4925C16.142 24.6142 16.0275 24.7637 15.9464 24.9315C15.8654 25.0993 15.8197 25.2819 15.8121 25.4681C15.7939 25.6557 15.8144 25.8451 15.8723 26.0244C15.9301 26.2038 16.0242 26.3694 16.1485 26.5111L23.0453 34.4508C23.1695 34.5947 23.3213 34.712 23.4919 34.7959C23.6624 34.8797 23.8481 34.9282 24.0378 34.9387C24.4107 34.9649 24.779 34.8442 25.0639 34.6022L25.6022 34.1312C25.7449 34.0087 25.862 33.8593 25.9468 33.6915C26.0316 33.5237 26.0825 33.3408 26.0966 33.1533C26.1107 32.9658 26.0876 32.7774 26.0288 32.5988C25.9699 32.4202 25.8764 32.255 25.7536 32.1126L18.8063 24.1392Z" fill="#FCECE6"/>
<path d="M26.1743 31.6926L24.2903 29.5226L26.4602 27.6554C26.8704 27.2983 27.122 26.793 27.1598 26.2506C27.1977 25.7081 27.0187 25.1727 26.6621 24.7621L26.1911 24.2407C26.0211 24.0314 25.8089 23.8603 25.5683 23.7385C25.3278 23.6168 25.0642 23.5472 24.7949 23.5342C24.257 23.4994 23.7265 23.6742 23.3146 24.022L21.1446 25.906L19.2775 23.7528C18.9296 23.3527 18.4424 23.1001 17.9149 23.0463V23.0463C17.6468 23.0248 17.3771 23.0585 17.1225 23.1453C16.8679 23.2321 16.6338 23.3702 16.4346 23.551L15.8963 24.0052C15.6837 24.1759 15.5073 24.3873 15.3773 24.6271C15.2473 24.8668 15.1664 25.13 15.1394 25.4014C15.1178 25.6695 15.1515 25.9392 15.2383 26.1938C15.3251 26.4484 15.4632 26.6825 15.644 26.8817L17.5112 29.0516L15.3749 30.9356C15.1699 31.1086 15.0012 31.3204 14.8783 31.5589C14.7555 31.7973 14.681 32.0576 14.6591 32.3249C14.6372 32.5922 14.6684 32.8612 14.7508 33.1165C14.8332 33.3717 14.9653 33.6081 15.1394 33.8121L15.5935 34.3504C15.9432 34.7456 16.4306 34.9924 16.9561 35.0401C17.2256 35.0632 17.497 35.032 17.7542 34.9482C18.0113 34.8644 18.2491 34.7298 18.4532 34.5523L20.6064 32.6683L22.4904 34.8382C22.6594 35.0389 22.8672 35.2034 23.1014 35.3219C23.3355 35.4404 23.5911 35.5105 23.8529 35.5279C24.1251 35.5524 24.3994 35.5218 24.6595 35.438C24.9196 35.3542 25.1602 35.2189 25.3668 35.0401L25.9051 34.5691C26.1125 34.3985 26.2841 34.1885 26.41 33.9513C26.5358 33.7141 26.6135 33.4543 26.6385 33.1869C26.6636 32.9195 26.6354 32.6498 26.5557 32.3934C26.4761 32.1369 26.3464 31.8987 26.1743 31.6926ZM23.7183 24.493C24.0067 24.244 24.3809 24.1172 24.7613 24.1397V24.1397C25.1288 24.1703 25.4713 24.3385 25.7201 24.6107L26.1911 25.149C26.3139 25.2914 26.4074 25.4566 26.4663 25.6352C26.5251 25.8138 26.5482 26.0022 26.5341 26.1897C26.52 26.3772 26.4691 26.5601 26.3843 26.7279C26.2995 26.8957 26.1824 27.0451 26.0397 27.1676L23.8866 29.0685L21.5484 26.377L23.7183 24.493ZM18.1168 34.0981C17.9744 34.2209 17.8092 34.3144 17.6306 34.3732C17.452 34.4321 17.2636 34.4552 17.0761 34.4411C16.8886 34.427 16.7057 34.3761 16.5379 34.2913C16.3701 34.2065 16.2207 34.0894 16.0982 33.9467L15.6272 33.4084C15.5034 33.2671 15.4087 33.1027 15.3484 32.9248C15.2882 32.7468 15.2636 32.5587 15.2761 32.3712C15.2886 32.1838 15.3379 32.0006 15.4213 31.8322C15.5046 31.6638 15.6203 31.5135 15.7617 31.3898L17.9317 29.5226L20.2699 32.2141L18.1168 34.0981ZM25.5687 34.0981L25.0304 34.5691C24.7455 34.8111 24.3772 34.9318 24.0043 34.9055C23.8146 34.8951 23.6289 34.8466 23.4584 34.7627C23.2878 34.6789 23.136 34.5616 23.0118 34.4177L16.115 26.4779C15.9906 26.3363 15.8966 26.1707 15.8388 25.9913C15.7809 25.8119 15.7604 25.6226 15.7786 25.435C15.7862 25.2488 15.8319 25.0662 15.9129 24.8984C15.9939 24.7305 16.1085 24.5811 16.2496 24.4594L16.7879 23.9883C17.0771 23.7409 17.4507 23.6144 17.8308 23.6351V23.6351C18.1997 23.6606 18.544 23.8297 18.7896 24.1061L25.7033 32.0627C25.8323 32.2048 25.9314 32.3714 25.9946 32.5526C26.0579 32.7338 26.084 32.9259 26.0714 33.1174C26.0589 33.3089 26.0079 33.4959 25.9215 33.6673C25.8351 33.8386 25.7152 33.9909 25.5687 34.1149V34.0981Z" fill="#FBEDEF"/>
<path d="M36.5363 150.15L36.7213 134.725H16.7542V158.83H34.77L36.5363 150.15Z" fill="#B8DFFF"/>
<path d="M36.8222 150.67L36.6372 135.245H56.6044V159.334H38.5717L36.8222 150.67Z" fill="#B8DFFF"/>
<g style="mix-blend-mode:multiply" opacity="0.33">
<g style="mix-blend-mode:multiply" opacity="0.33">
<path d="M67.2862 53.2237C66.9331 53.6232 66.4693 53.9089 65.9535 54.0445C65.4378 54.18 64.8935 54.1594 64.3895 53.985C63.8856 53.8107 63.4448 53.4907 63.1231 53.0655C62.8013 52.6402 62.6131 52.129 62.5824 51.5967C62.5516 51.0644 62.6797 50.5349 62.9503 50.0754C63.2209 49.616 63.6219 49.2473 64.1024 49.0161C64.583 48.7849 65.1213 48.7017 65.6492 48.7769C66.1771 48.8522 66.6707 49.0826 67.0675 49.4388C67.5959 49.9132 67.9153 50.5773 67.9563 51.2862C67.9973 51.9951 67.7564 52.6915 67.2862 53.2237Z" fill="#FF556D"/>
</g>
</g>
<g style="mix-blend-mode:multiply" opacity="0.33">
<g style="mix-blend-mode:multiply" opacity="0.33">
<path d="M10.0928 53.2238C9.74036 53.6176 9.27919 53.8982 8.76746 54.0302C8.25572 54.1621 7.71637 54.1395 7.21748 53.9652C6.71859 53.7909 6.28251 53.4727 5.9643 53.0508C5.64608 52.6289 5.45999 52.1221 5.4295 51.5945C5.39902 51.0669 5.52551 50.5421 5.79302 50.0864C6.06053 49.6306 6.45705 49.2643 6.93255 49.0337C7.40805 48.8031 7.94121 48.7185 8.46473 48.7907C8.98825 48.8628 9.47867 49.0884 9.87409 49.439C10.4025 49.9134 10.7219 50.5774 10.7629 51.2864C10.8039 51.9953 10.563 52.6917 10.0928 53.2238Z" fill="#FF556D"/>
</g>
</g>
<path d="M43.6183 47.3701H29.69C29.5897 47.3694 29.4904 47.3901 29.3987 47.4307C29.307 47.4714 29.225 47.5311 29.1582 47.6059C29.0914 47.6806 29.0412 47.7688 29.0111 47.8645C28.981 47.9602 28.9716 48.0612 28.9835 48.1607C29.1627 50.0712 30.0482 51.846 31.4669 53.1379C32.8856 54.4298 34.7354 55.1458 36.6542 55.1458C38.573 55.1458 40.4227 54.4298 41.8414 53.1379C43.2601 51.846 44.1457 50.0712 44.3248 48.1607C44.3367 48.0612 44.3273 47.9602 44.2972 47.8645C44.2671 47.7688 44.217 47.6806 44.1501 47.6059C44.0833 47.5311 44.0013 47.4714 43.9096 47.4307C43.8179 47.3901 43.7186 47.3694 43.6183 47.3701V47.3701Z" fill="white"/>
</g>
<defs>
<clipPath id="clip0">
<rect width="105.707" height="217.974" fill="white"/>
</clipPath>
</defs>
</svg>
