<svg width="200" height="382" viewBox="0 0 200 382" fill="none" xmlns="http://www.w3.org/2000/svg">
<g clip-path="url(#clip0)">
<path d="M37.3 374.188V380.879C37.3 381.448 37.9691 381.916 38.8054 381.916H68.9131V379.775C68.9131 379.29 68.4615 378.855 67.7757 378.638L52.7219 374.372L52.0862 374.188H37.3Z" fill="#3F3143"/>
<path d="M34.189 374.188V380.879C34.189 381.448 33.5199 381.916 32.6836 381.916H2.57593V379.775C2.57593 379.29 3.02754 378.855 3.71333 378.638L18.7672 374.372L19.4028 374.188H34.189Z" fill="#3F3143"/>
<path d="M59.864 209.383V374.908H36.7815V223.467L59.864 209.383Z" fill="#4E5D8B"/>
<path d="M36.1626 374.892H62.8413V366.144H36.1626V374.892Z" fill="#919DCE"/>
<path d="M37.1829 209.383V374.908H14.1003V223.467L37.1829 209.383Z" fill="#57729F"/>
<path d="M10.521 374.892H37.1997V366.144H10.521V374.892Z" fill="#9EA9CE"/>
<path d="M60.8341 248.89H10.939C9.36233 248.864 7.85889 248.22 6.75171 247.097C5.64454 245.974 5.02198 244.462 5.01782 242.885V137.776C5.03987 129.575 8.30658 121.715 14.1045 115.914C19.9023 110.113 27.7602 106.842 35.9618 106.815V106.815C44.162 106.846 52.0174 110.119 57.8143 115.919C63.6112 121.719 66.8793 129.576 66.9058 137.776V242.885C66.9036 243.679 66.7446 244.464 66.4378 245.196C66.1311 245.928 65.6827 246.592 65.1185 247.15C64.5542 247.708 63.8852 248.149 63.1499 248.448C62.4147 248.746 61.6276 248.897 60.8341 248.89V248.89Z" fill="#768CB5"/>
<path d="M18.9511 148.716V247.402H11.5914C10.4973 247.402 9.41847 247.145 8.44216 246.651C7.46585 246.157 6.61945 245.44 5.97135 244.558V244.558C5.10706 243.38 4.64387 241.955 4.64996 240.494V148.716H18.9511Z" fill="#FFC38D"/>
<path d="M19.6033 247.971H11.5914C10.3945 247.978 9.21326 247.699 8.14566 247.158C7.07807 246.617 6.15489 245.829 5.45274 244.86L5.31893 244.659C4.44738 243.408 3.98566 241.918 3.99754 240.394V148.063H19.6033V247.971ZM6.6905 244.207C7.28686 244.966 8.04937 245.578 8.91934 245.995C9.7893 246.413 10.7435 246.625 11.7084 246.616H18.399V149.368H5.3022V240.394C5.29373 241.713 5.71662 243 6.50651 244.057L6.6905 244.207Z" fill="#FFC38D"/>
<g style="mix-blend-mode:multiply">
<g style="mix-blend-mode:multiply">
<path d="M18.9511 230.558V247.285H11.5915C10.4973 247.285 9.41849 247.027 8.44218 246.533C7.46588 246.039 6.61947 245.323 5.97138 244.441V244.441C5.82209 243.658 5.74926 242.863 5.75393 242.066C5.67731 239.05 6.79686 236.126 8.86824 233.932C10.9396 231.739 13.7946 230.454 16.8101 230.357C17.5289 230.347 18.2467 230.415 18.9511 230.558V230.558Z" fill="#F6C4A9"/>
</g>
</g>
<path d="M26.7624 244.107C26.8389 247.126 25.7171 250.052 23.6421 252.246C21.5671 254.44 18.7079 255.724 15.6894 255.815C12.5686 255.815 9.57561 254.576 7.36886 252.369C5.1621 250.162 3.92236 247.169 3.92236 244.048C3.92236 240.928 5.1621 237.934 7.36886 235.728C9.57561 233.521 12.5686 232.281 15.6894 232.281C17.1936 232.329 18.6736 232.673 20.0446 233.293C21.4157 233.913 22.6509 234.798 23.6795 235.897C24.7081 236.995 25.5098 238.286 26.0388 239.695C26.5678 241.103 26.8137 242.603 26.7624 244.107Z" fill="#FFC38D"/>
<path d="M52.5378 148.716V247.402H59.8975C60.9916 247.402 62.0705 247.145 63.0468 246.651C64.0231 246.157 64.8695 245.44 65.5176 244.558V244.558C66.3819 243.38 66.8451 241.955 66.839 240.494V148.716H52.5378Z" fill="#FFC38D"/>
<path d="M59.8975 247.971H51.8521V148.063H67.4579V240.394C67.4697 241.918 67.008 243.408 66.1365 244.659V244.659L66.0027 244.86C65.3029 245.823 64.3848 246.608 63.3237 247.148C62.2626 247.689 61.0885 247.971 59.8975 247.971V247.971ZM53.2069 246.666H59.8975C60.8647 246.678 61.8215 246.466 62.6923 246.045C63.5632 245.624 64.3243 245.006 64.9154 244.241L65.0325 244.057C65.8224 243 66.2453 241.713 66.2368 240.394V149.368H53.1902L53.2069 246.666Z" fill="#FFC38D"/>
<g style="mix-blend-mode:multiply">
<g style="mix-blend-mode:multiply">
<path d="M52.5378 230.558V247.285H59.8975C60.9916 247.285 62.0705 247.027 63.0468 246.533C64.0231 246.039 64.8695 245.323 65.5176 244.441C65.6669 243.658 65.7397 242.863 65.735 242.066C65.8117 239.05 64.6921 236.126 62.6207 233.932C60.5493 231.739 57.6943 230.454 54.6788 230.357C53.96 230.347 53.2423 230.415 52.5378 230.558Z" fill="#F6C4A9"/>
</g>
</g>
<path d="M44.7098 244.107C44.6332 247.126 45.7551 250.052 47.83 252.246C49.905 254.44 52.7643 255.724 55.7827 255.815C58.9035 255.815 61.8965 254.576 64.1033 252.369C66.31 250.162 67.5498 247.169 67.5498 244.048C67.5498 240.928 66.31 237.934 64.1033 235.728C61.8965 233.521 58.9035 232.281 55.7827 232.281C54.2786 232.329 52.7986 232.673 51.4275 233.293C50.0565 233.913 48.8213 234.798 47.7927 235.897C46.7641 236.995 45.9623 238.286 45.4333 239.695C44.9043 241.103 44.6584 242.603 44.7098 244.107V244.107Z" fill="#FFC38D"/>
<path d="M39.9261 81.3584H38.1865C34.593 81.3584 31.6799 84.2715 31.6799 87.865V115.648C31.6799 119.241 34.593 122.154 38.1865 122.154H39.9261C43.5196 122.154 46.4327 119.241 46.4327 115.648V87.865C46.4327 84.2715 43.5196 81.3584 39.9261 81.3584Z" fill="#FFC38D"/>
<path d="M46.4327 87.865V106.264L31.6799 102.919V87.865C31.6843 86.1436 32.369 84.4937 33.5846 83.2749C34.8003 82.0561 36.4484 81.3672 38.1698 81.3584H39.9261C41.6504 81.3628 43.3028 82.0497 44.5221 83.269C45.7413 84.4883 46.4283 86.1407 46.4327 87.865V87.865Z" fill="#FF935F"/>
<path d="M76.6909 51.2007V52.6726C76.6909 54.864 75.8203 56.9657 74.2708 58.5153C72.7212 60.0649 70.6195 60.9355 68.428 60.9355H66.4376V77.8961C66.4331 83.4118 64.2389 88.7 60.3372 92.5986C56.4355 96.4972 51.1455 98.6871 45.6298 98.6871H31.7803C29.0456 98.6915 26.3368 98.1572 23.8086 97.1148C21.2804 96.0723 18.9822 94.5421 17.0454 92.6114C15.1086 90.6808 13.571 88.3876 12.5204 85.8627C11.4698 83.3379 10.9268 80.6308 10.9224 77.8961V60.9355H8.94868C6.7479 60.9356 4.63574 60.0683 3.07019 58.5215C1.50463 56.9747 0.611859 54.8732 0.585449 52.6726V51.2007C0.585449 48.9826 1.46657 46.8554 3.03498 45.287C4.6034 43.7185 6.73062 42.8374 8.94868 42.8374H10.9224V31.5638C10.9167 29.4816 11.2327 27.4109 11.8591 25.4252C13.1634 21.1646 15.8052 17.4373 19.3932 14.7953C22.9812 12.1533 27.3246 10.7369 31.7803 10.7561H45.6633C47.6147 10.7552 49.5568 11.0254 51.4339 11.5589C54.7449 12.5043 57.7674 14.2616 60.2268 16.6714C62.6863 19.0813 64.5049 22.0672 65.5176 25.3583C66.159 27.3639 66.4807 29.4581 66.471 31.5638V42.9043H68.5786C70.7413 42.9692 72.7948 43.8697 74.3075 45.4168C75.8203 46.9638 76.6746 49.037 76.6909 51.2007Z" fill="#FFC38D"/>
<path d="M45.6298 99.3555H31.7803C26.0828 99.3599 20.6166 97.102 16.5831 93.0779C12.5496 89.0539 10.2789 83.593 10.2701 77.8954V61.5871H8.94866C6.58111 61.5871 4.31004 60.6489 2.6328 58.978C0.955559 57.307 0.00885065 55.0394 0 52.6719V51.2C0.00442121 48.828 0.948644 46.5544 2.62589 44.8772C4.30313 43.2 6.57669 42.2557 8.94866 42.2513H10.2701V31.5631C10.2579 29.4134 10.5796 27.2748 11.2235 25.2238C12.2721 21.8143 14.1553 18.7206 16.7023 16.2232C19.2493 13.7259 22.3795 11.9039 25.8089 10.9226C27.7503 10.359 29.759 10.0608 31.7803 10.0361H45.6633C47.6756 10.0455 49.6779 10.3211 51.6179 10.8557C55.0261 11.8357 58.1358 13.6507 60.6652 16.1363C63.1946 18.6219 65.0637 21.6994 66.103 25.09C66.7625 27.1612 67.0954 29.3225 67.0899 31.4962V42.1844H68.5785C70.9301 42.2195 73.1738 43.1773 74.8258 44.8512C76.4779 46.5251 77.406 48.7812 77.4101 51.1331V52.605C77.4101 53.7758 77.1795 54.9351 76.7315 56.0167C76.2835 57.0984 75.6268 58.0812 74.7989 58.909C73.9711 59.7369 72.9883 60.3936 71.9066 60.8416C70.825 61.2896 69.6657 61.5202 68.4949 61.5202H67.1568V77.8285C67.1612 80.6567 66.6074 83.458 65.5271 86.0718C64.4468 88.6855 62.8613 91.0604 60.8615 93.0602C58.8617 95.0601 56.4868 96.6456 53.873 97.7258C51.2593 98.8061 48.458 99.3599 45.6298 99.3555V99.3555ZM8.94866 43.5727C6.92424 43.5727 4.98249 44.3758 3.54945 45.8057C2.1164 47.2356 1.30909 49.1756 1.30466 51.2V52.6719C1.32671 54.6832 2.14232 56.6043 3.57394 58.0171C5.00556 59.4299 6.9373 60.2201 8.94866 60.2155H11.5914V77.8954C11.5936 80.5437 12.1177 83.1655 13.1337 85.6112C14.1497 88.0568 15.6376 90.2782 17.5126 92.1485C19.3875 94.0187 21.6126 95.5012 24.0608 96.5111C26.5089 97.521 29.132 98.0385 31.7803 98.0341H45.6633C50.9785 98.0077 56.0685 95.8846 59.827 92.1261C63.5855 88.3676 65.7087 83.2776 65.735 77.9623V60.2155H68.3778C69.3773 60.2155 70.3669 60.0187 71.2902 59.6362C72.2136 59.2538 73.0526 58.6932 73.7593 57.9865C74.466 57.2798 75.0266 56.4408 75.409 55.5174C75.7915 54.5941 75.9884 53.6044 75.9884 52.605V51.1331C75.9718 49.1589 75.1905 47.2681 73.8086 45.8581C72.4267 44.4481 70.552 43.6289 68.5785 43.5727H65.7852V31.5631C65.7898 29.5248 65.4737 27.4984 64.8485 25.5583C63.8669 22.3709 62.1065 19.4784 59.7264 17.1421C57.3463 14.8058 54.4215 13.0994 51.2165 12.1771C49.3968 11.6733 47.518 11.4146 45.6298 11.4077H31.7803C29.8921 11.4134 28.0131 11.6721 26.1937 12.1771C22.9793 13.0921 20.0444 14.7953 17.655 17.132C15.2657 19.4688 13.4977 22.3651 12.5114 25.5583C11.9141 27.4806 11.6151 29.4832 11.6249 31.4962V43.5058L8.94866 43.5727Z" fill="#FFC38D"/>
<path d="M29.4053 51.1504C29.4053 53.608 30.3816 55.965 32.1194 57.7028C33.8572 59.4406 36.2141 60.4169 38.6717 60.4169C41.1294 60.4169 43.4863 59.4406 45.2241 57.7028C46.9619 55.965 47.9382 53.608 47.9382 51.1504H29.4053Z" fill="white"/>
<g style="mix-blend-mode:multiply" opacity="0.33">
<g style="mix-blend-mode:multiply" opacity="0.33">
<path d="M23.5508 49.0093C23.5475 49.485 23.4034 49.949 23.1368 50.3429C22.8701 50.7368 22.4928 51.0429 22.0524 51.2226C21.612 51.4024 21.1282 51.4477 20.6621 51.3529C20.196 51.2581 19.7684 51.0273 19.4332 50.6898C19.098 50.3523 18.8703 49.9231 18.7787 49.4564C18.6871 48.9896 18.7358 48.5062 18.9186 48.067C19.1014 47.6279 19.4101 47.2527 19.8058 46.9888C20.2015 46.7248 20.6665 46.584 21.1422 46.584C21.4599 46.584 21.7745 46.6468 22.0678 46.7689C22.3611 46.891 22.6274 47.0699 22.8513 47.2954C23.0752 47.5208 23.2522 47.7883 23.3723 48.0825C23.4923 48.3766 23.553 48.6916 23.5508 49.0093V49.0093Z" fill="#FF556D"/>
</g>
</g>
<g style="mix-blend-mode:multiply" opacity="0.33">
<g style="mix-blend-mode:multiply" opacity="0.33">
<path d="M58.5428 49.0093C58.5394 49.485 58.3954 49.949 58.1287 50.3429C57.8621 50.7368 57.4847 51.0429 57.0443 51.2226C56.604 51.4024 56.1202 51.4477 55.6541 51.3529C55.188 51.2581 54.7604 51.0273 54.4252 50.6898C54.09 50.3523 53.8622 49.9231 53.7707 49.4564C53.6791 48.9896 53.7277 48.5062 53.9105 48.067C54.0933 47.6279 54.402 47.2527 54.7977 46.9888C55.1935 46.7248 55.6585 46.584 56.1341 46.584C56.4519 46.584 56.7664 46.6468 57.0598 46.7689C57.3531 46.891 57.6193 47.0699 57.8432 47.2954C58.0671 47.5208 58.2442 47.7883 58.3642 48.0825C58.4843 48.3766 58.545 48.6916 58.5428 49.0093V49.0093Z" fill="#FF556D"/>
</g>
</g>
<path d="M64.397 25.9436C62.8448 23.616 60.8416 21.6234 58.5058 20.0834C56.1701 18.5435 53.5493 17.4876 50.7984 16.9782C50.1547 18.1333 49.3302 19.178 48.3563 20.0726C45.679 22.4215 42.2333 23.707 38.6717 23.6855C36.241 23.7328 33.8406 23.1394 31.712 21.965C29.5833 20.7905 27.8012 19.0764 26.545 16.9949C23.7834 17.5096 21.1542 18.5763 18.8146 20.1311C16.4751 21.686 14.4735 23.6971 12.9297 26.044C12.0938 27.3503 11.4357 28.7622 10.9727 30.2423C11.0635 28.6233 11.3556 27.022 11.8424 25.4753C13.1434 21.2054 15.7851 17.4681 19.3762 14.817C22.9673 12.1658 27.3167 10.7419 31.7804 10.756H45.6634C47.6204 10.754 49.5681 11.0242 51.4507 11.5588C54.7593 12.5052 57.7791 14.2632 60.2357 16.6731C62.6923 19.0829 64.5079 22.0684 65.5177 25.3582C66.0024 26.899 66.2891 28.4953 66.3707 30.1085C65.9003 28.6389 65.2366 27.2383 64.397 25.9436V25.9436Z" fill="#754040"/>
<path d="M40.1136 19.1221C42.087 10.7608 36.9086 2.38269 28.5472 0.409222C20.1858 -1.56425 11.8077 3.61419 9.83427 11.9756C7.8608 20.337 13.0392 28.715 21.4006 30.6885C29.762 32.662 38.1401 27.4835 40.1136 19.1221Z" fill="#754040"/>
<path d="M55.0636 14.7706C55.0636 16.8157 54.4569 18.8149 53.3203 20.5152C52.1837 22.2155 50.5683 23.5404 48.6785 24.3223C46.7887 25.1041 44.7094 25.3079 42.7038 24.9077C40.6982 24.5075 38.8563 23.5213 37.4114 22.074C35.9664 20.6266 34.9832 18.7832 34.5862 16.7769C34.1893 14.7707 34.3964 12.6917 35.1813 10.8032C35.9663 8.91464 37.2938 7.30139 38.9959 6.16756C40.698 5.03374 42.6982 4.4303 44.7433 4.43361C46.1 4.43361 47.4434 4.7011 48.6966 5.22079C49.9498 5.74047 51.0882 6.50215 52.0468 7.46224C53.0053 8.42234 53.7651 9.56201 54.2828 10.816C54.8005 12.0701 55.0658 13.4139 55.0636 14.7706Z" fill="#754040"/>
<path d="M67.9429 20.4737C67.9462 22.2112 67.434 23.9106 66.4711 25.3569C65.5082 26.8032 64.1379 27.9313 62.5336 28.5985C60.9293 29.2657 59.1632 29.442 57.4586 29.1051C55.7541 28.7681 54.1878 27.9331 52.9581 26.7057C51.7283 25.4783 50.8903 23.9136 50.5501 22.2097C50.2099 20.5058 50.3828 18.7393 51.047 17.1338C51.7111 15.5282 52.8366 14.1557 54.2811 13.1901C55.7256 12.2244 57.424 11.709 59.1615 11.709C61.4876 11.709 63.7186 12.6319 65.365 14.2751C67.0114 15.9183 67.9385 18.1476 67.9429 20.4737V20.4737Z" fill="#754040"/>
<path d="M12.712 52.6888C12.1826 52.6888 11.6745 52.4797 11.2986 52.1068C10.9227 51.734 10.7092 51.2278 10.7048 50.6984V22.4808C10.7048 21.9485 10.9163 21.4379 11.2927 21.0615C11.6691 20.6851 12.1797 20.4736 12.712 20.4736V20.4736C13.2443 20.4736 13.7549 20.6851 14.1313 21.0615C14.5077 21.4379 14.7192 21.9485 14.7192 22.4808V50.6984C14.7148 51.2278 14.5014 51.734 14.1254 52.1068C13.7495 52.4797 13.2415 52.6888 12.712 52.6888V52.6888Z" fill="#754040"/>
<path d="M64.6311 52.6888C64.1032 52.6888 63.597 52.4791 63.2237 52.1058C62.8504 51.7325 62.6407 51.2263 62.6407 50.6984V22.4808C62.6385 22.218 62.6883 21.9574 62.7874 21.714C62.8864 21.4705 63.0327 21.2491 63.2177 21.0625C63.4028 20.8759 63.623 20.7278 63.8655 20.6267C64.1081 20.5257 64.3683 20.4736 64.6311 20.4736V20.4736C65.1635 20.4736 65.674 20.6851 66.0504 21.0615C66.4269 21.4379 66.6383 21.9485 66.6383 22.4808V50.6984C66.6339 51.2278 66.4205 51.734 66.0446 52.1068C65.6686 52.4797 65.1606 52.6888 64.6311 52.6888V52.6888Z" fill="#754040"/>
<path d="M34.8079 35.9619C34.2253 35.9663 33.668 36.2009 33.2575 36.6145C32.8471 37.0281 32.6167 37.5871 32.6168 38.1698V41.6656C32.5901 41.9706 32.6272 42.2778 32.7257 42.5676C32.8241 42.8575 32.9818 43.1237 33.1886 43.3494C33.3955 43.5751 33.647 43.7553 33.9272 43.8786C34.2074 44.0019 34.5102 44.0655 34.8163 44.0655C35.1224 44.0655 35.4252 44.0019 35.7054 43.8786C35.9856 43.7553 36.2371 43.5751 36.444 43.3494C36.6508 43.1237 36.8085 42.8575 36.9069 42.5676C37.0053 42.2778 37.0424 41.9706 37.0158 41.6656V38.1698C37.0158 37.8799 36.9587 37.5928 36.8478 37.3249C36.7368 37.057 36.5742 36.8136 36.3691 36.6086C36.1641 36.4036 35.9207 36.2409 35.6529 36.13C35.385 36.019 35.0979 35.9619 34.8079 35.9619V35.9619Z" fill="#754040"/>
<path d="M42.5355 35.9619C41.9528 35.9663 41.3955 36.2009 40.9851 36.6145C40.5746 37.0281 40.3443 37.5871 40.3443 38.1698V41.6656C40.3177 41.9706 40.3548 42.2778 40.4532 42.5676C40.5517 42.8575 40.7093 43.1237 40.9162 43.3494C41.123 43.5751 41.3745 43.7553 41.6547 43.8786C41.9349 44.0019 42.2377 44.0655 42.5438 44.0655C42.85 44.0655 43.1527 44.0019 43.433 43.8786C43.7132 43.7553 43.9647 43.5751 44.1715 43.3494C44.3784 43.1237 44.536 42.8575 44.6344 42.5676C44.7329 42.2778 44.77 41.9706 44.7434 41.6656V38.1698C44.7434 37.5842 44.5107 37.0227 44.0967 36.6086C43.6826 36.1945 43.121 35.9619 42.5355 35.9619V35.9619Z" fill="#754040"/>
</g>
<g clip-path="url(#clip1)">
<path d="M176.13 56.1675C171.714 45.8974 158.617 41.3144 147.829 44.2248C137.04 47.1352 128.694 55.9333 123.575 65.9692C119.266 74.4626 116.91 83.8116 116.678 93.3328C116.447 102.854 118.346 112.307 122.237 120.999L124.997 114.71C126.884 121.222 127.531 128.031 126.904 134.782C126.645 139.685 125.099 144.433 122.421 148.548C121.058 150.581 119.197 152.232 117.016 153.345C114.835 154.457 112.406 154.994 109.96 154.904C112.355 157.522 115.552 159.271 119.048 159.876C122.545 160.481 126.143 159.909 129.279 158.249C128.894 160.482 128.06 162.613 126.826 164.514C125.593 166.414 123.986 168.045 122.103 169.305C137.007 173.721 149.184 167.767 162.247 160.942C193.425 144.667 197.373 110.896 183.372 81.5415C180.261 75.0517 180.679 70.017 180.027 63.293C179.425 57.0707 178.355 57.8569 173.822 54.3443L176.13 56.1675Z" fill="#EA4277"/>
<path d="M191.552 202.926C190.897 203.157 190.325 203.578 189.909 204.134C189.493 204.691 189.252 205.358 189.215 206.052C189.178 206.745 189.348 207.434 189.703 208.032C190.058 208.629 190.582 209.107 191.209 209.407C191.836 209.706 192.537 209.813 193.225 209.714C193.912 209.614 194.555 209.313 195.071 208.849C195.588 208.384 195.955 207.777 196.127 207.104C196.298 206.43 196.266 205.722 196.034 205.067C195.881 204.632 195.643 204.231 195.334 203.888C195.026 203.545 194.653 203.266 194.236 203.068C193.82 202.869 193.369 202.754 192.908 202.73C192.447 202.705 191.986 202.772 191.552 202.926V202.926Z" fill="#FFC38D"/>
<path d="M196.034 205.067C196.034 205.067 183.824 158.635 183.473 158.233C182.188 156.459 180.252 155.267 178.089 154.921C175.926 154.574 173.714 155.101 171.94 156.385C170.165 157.669 168.974 159.606 168.627 161.769C168.28 163.931 168.807 166.143 170.091 167.918C170.443 168.403 189.377 207.509 189.377 207.509L196.034 205.067Z" fill="#FFC38D"/>
<path d="M175.389 161.298L174.862 162.229L177.803 163.893L178.33 162.962L175.389 161.298Z" fill="#BEB4DD"/>
<path d="M176.968 160.844L175.306 163.786L176.238 164.313L177.9 161.371L176.968 160.844Z" fill="#BEB4DD"/>
<path d="M194.027 209.784C193.325 210.033 192.713 210.485 192.268 211.082C191.823 211.68 191.565 212.396 191.527 213.14C191.489 213.884 191.673 214.622 192.055 215.261C192.438 215.901 193.001 216.413 193.674 216.732C194.347 217.051 195.1 217.163 195.837 217.053C196.574 216.944 197.262 216.619 197.814 216.119C198.366 215.618 198.756 214.965 198.937 214.243C199.117 213.52 199.079 212.76 198.828 212.059C198.663 211.593 198.408 211.165 198.077 210.799C197.746 210.432 197.346 210.135 196.9 209.923C196.454 209.712 195.971 209.591 195.478 209.567C194.985 209.543 194.492 209.617 194.027 209.784V209.784Z" fill="#FFC38D"/>
<path d="M189.171 207.5L191.697 214.591L198.787 212.065L196.261 204.974L189.171 207.5Z" fill="#FFC38D"/>
<path d="M191.468 202.691C190.766 202.939 190.153 203.39 189.707 203.986C189.261 204.582 189.002 205.297 188.963 206.041C188.924 206.784 189.106 207.523 189.486 208.163C189.866 208.803 190.428 209.316 191.1 209.636C191.772 209.957 192.524 210.071 193.261 209.965C193.997 209.858 194.686 209.535 195.239 209.037C195.793 208.539 196.186 207.888 196.369 207.166C196.552 206.444 196.517 205.685 196.268 204.983C195.935 204.043 195.243 203.273 194.342 202.844C193.442 202.414 192.408 202.359 191.468 202.691V202.691Z" fill="#FFC38D"/>
<path d="M174.741 152.211C173.12 152.349 171.576 152.965 170.304 153.98C169.033 154.996 168.091 156.365 167.597 157.916C167.104 159.467 167.081 161.129 167.532 162.692C167.984 164.256 168.888 165.65 170.132 166.7C171.375 167.75 172.902 168.407 174.519 168.589C176.136 168.771 177.771 168.469 179.217 167.722C180.662 166.976 181.854 165.817 182.641 164.393C183.429 162.969 183.776 161.343 183.64 159.721C183.549 158.644 183.247 157.595 182.751 156.634C182.254 155.673 181.574 154.82 180.747 154.122C179.921 153.425 178.965 152.897 177.934 152.569C176.904 152.241 175.819 152.12 174.741 152.211V152.211Z" fill="#FFC38D"/>
<path d="M163.39 115.726L167.219 161.044L183.62 159.658L179.791 114.34L163.39 115.726Z" fill="#FFC38D"/>
<path d="M172.283 123.777C170.661 123.913 169.036 123.566 167.612 122.778C166.187 121.991 165.029 120.799 164.282 119.353C163.535 117.908 163.233 116.273 163.415 114.656C163.597 113.039 164.255 111.512 165.304 110.268C166.354 109.025 167.748 108.12 169.312 107.669C170.875 107.218 172.538 107.241 174.088 107.734C175.639 108.227 177.009 109.169 178.024 110.441C179.039 111.713 179.655 113.257 179.793 114.878C179.885 115.956 179.763 117.041 179.435 118.071C179.107 119.102 178.58 120.057 177.882 120.884C177.185 121.71 176.331 122.391 175.37 122.888C174.41 123.384 173.36 123.686 172.283 123.777V123.777Z" fill="#FFC38D"/>
<path d="M109.492 202.926C110.147 203.157 110.718 203.578 111.134 204.134C111.55 204.691 111.792 205.358 111.828 206.052C111.865 206.745 111.695 207.434 111.34 208.032C110.985 208.629 110.461 209.107 109.835 209.407C109.208 209.706 108.506 209.813 107.818 209.714C107.131 209.614 106.488 209.313 105.972 208.849C105.455 208.384 105.088 207.777 104.917 207.104C104.745 206.43 104.777 205.722 105.009 205.067C105.163 204.632 105.401 204.231 105.709 203.888C106.018 203.545 106.391 203.266 106.807 203.068C107.223 202.869 107.674 202.754 108.135 202.73C108.596 202.705 109.057 202.772 109.492 202.926V202.926Z" fill="#FFC38D"/>
<path d="M105.009 205.067C105.009 205.067 117.236 158.635 117.587 158.233C118.223 157.355 119.026 156.61 119.949 156.041C120.873 155.473 121.9 155.092 122.971 154.92C124.042 154.749 125.136 154.79 126.191 155.041C127.246 155.292 128.241 155.749 129.12 156.385C129.999 157.021 130.743 157.824 131.312 158.747C131.88 159.671 132.261 160.698 132.433 161.769C132.604 162.839 132.563 163.934 132.312 164.989C132.061 166.044 131.604 167.039 130.968 167.918C130.55 168.319 111.632 207.409 111.632 207.409L105.009 205.067Z" fill="#FFC38D"/>
<path d="M125.654 161.297L122.712 162.959L123.239 163.891L126.181 162.229L125.654 161.297Z" fill="#BEB4DD"/>
<path d="M124.073 160.861L123.142 161.388L124.804 164.329L125.736 163.802L124.073 160.861Z" fill="#BEB4DD"/>
<path d="M107.049 209.783C107.75 210.035 108.359 210.489 108.802 211.087C109.244 211.685 109.5 212.401 109.535 213.144C109.571 213.887 109.386 214.624 109.003 215.262C108.619 215.9 108.056 216.41 107.383 216.728C106.71 217.046 105.958 217.157 105.223 217.047C104.487 216.938 103.8 216.613 103.248 216.113C102.697 215.613 102.306 214.961 102.126 214.24C101.945 213.518 101.982 212.759 102.232 212.058C102.397 211.591 102.653 211.161 102.985 210.793C103.317 210.425 103.718 210.127 104.166 209.915C104.614 209.704 105.1 209.583 105.595 209.561C106.09 209.538 106.584 209.614 107.049 209.783V209.783Z" fill="#FFC38D"/>
<path d="M104.774 204.982L102.248 212.072L109.338 214.598L111.864 207.508L104.774 204.982Z" fill="#FFC38D"/>
<path d="M109.575 202.691C110.277 202.939 110.89 203.39 111.336 203.986C111.782 204.582 112.041 205.297 112.08 206.041C112.12 206.784 111.938 207.523 111.557 208.163C111.177 208.803 110.615 209.316 109.943 209.636C109.271 209.957 108.519 210.071 107.783 209.965C107.046 209.858 106.357 209.535 105.804 209.037C105.251 208.539 104.857 207.888 104.674 207.166C104.491 206.444 104.526 205.685 104.775 204.983C105.108 204.043 105.801 203.273 106.701 202.844C107.601 202.414 108.635 202.359 109.575 202.691V202.691Z" fill="#FFC38D"/>
<path d="M126.302 152.211C127.927 152.347 129.474 152.963 130.749 153.98C132.023 154.997 132.967 156.37 133.459 157.925C133.952 159.479 133.972 161.145 133.516 162.711C133.061 164.276 132.15 165.671 130.9 166.719C129.651 167.766 128.118 168.419 126.497 168.593C124.875 168.768 123.239 168.457 121.794 167.701C120.35 166.944 119.163 165.775 118.384 164.342C117.606 162.909 117.27 161.278 117.42 159.654C117.628 157.496 118.676 155.507 120.337 154.114C121.999 152.722 124.141 152.038 126.302 152.211V152.211Z" fill="#FFC38D"/>
<path d="M121.252 114.347L117.43 159.665L133.831 161.048L137.652 115.73L121.252 114.347Z" fill="#FFC38D"/>
<path d="M128.794 123.777C130.416 123.913 132.041 123.566 133.465 122.778C134.889 121.991 136.048 120.799 136.795 119.353C137.542 117.908 137.843 116.273 137.661 114.656C137.479 113.039 136.822 111.512 135.773 110.268C134.723 109.025 133.328 108.12 131.765 107.669C130.201 107.218 128.539 107.241 126.989 107.734C125.438 108.227 124.068 109.169 123.053 110.441C122.037 111.713 121.422 113.257 121.284 114.878C121.192 115.956 121.314 117.041 121.642 118.071C121.969 119.102 122.497 120.057 123.195 120.884C123.892 121.71 124.746 122.391 125.706 122.888C126.667 123.384 127.716 123.686 128.794 123.777Z" fill="#FFC38D"/>
<path d="M125.031 270.016L133.394 371.144H145.955L146.34 317.569L146.892 268.661L125.031 270.016Z" fill="#FFC38D"/>
<path d="M144.012 277.798C148.135 273.535 147.883 266.602 143.447 262.311C139.012 258.021 132.074 257.998 127.951 262.26C123.827 266.523 124.08 273.457 128.515 277.747C132.95 282.038 139.888 282.06 144.012 277.798Z" fill="#FFC38D"/>
<path d="M145.955 371.144C145.992 371.957 145.862 372.77 145.574 373.532C145.287 374.294 144.847 374.989 144.282 375.576C143.718 376.163 143.039 376.628 142.289 376.945C141.538 377.261 140.731 377.422 139.917 377.416C138.234 377.401 136.621 376.743 135.409 375.577C134.196 374.41 133.475 372.824 133.394 371.144C133.355 370.329 133.483 369.514 133.769 368.751C134.056 367.987 134.495 367.289 135.06 366.701C135.625 366.112 136.304 365.645 137.056 365.327C137.808 365.01 138.616 364.849 139.432 364.855C141.119 364.866 142.736 365.525 143.95 366.696C145.165 367.866 145.882 369.459 145.955 371.144V371.144Z" fill="#FFC38D"/>
<path d="M144.769 206.341C150.901 199.999 150.527 189.689 143.933 183.312C137.339 176.935 127.022 176.907 120.889 183.249C114.756 189.59 115.131 199.901 121.725 206.278C128.319 212.654 138.636 212.683 144.769 206.341Z" fill="#FFC38D"/>
<path d="M144.012 277.798C148.135 273.535 147.883 266.602 143.447 262.311C139.012 258.021 132.074 257.998 127.951 262.26C123.827 266.523 124.08 273.457 128.515 277.747C132.95 282.038 139.888 282.06 144.012 277.798Z" fill="#FFC38D"/>
<path d="M116.55 194.396L125.03 270.016H146.942L149.133 194.78L116.55 194.396Z" fill="#FFC38D"/>
<path d="M145.972 369.939L146.173 375.81V378.152C146.177 378.317 146.148 378.48 146.088 378.634C146.028 378.787 145.937 378.926 145.821 379.043C145.706 379.16 145.568 379.253 145.415 379.316C145.263 379.378 145.1 379.409 144.935 379.407H119.728L119.628 376.814C119.62 376.631 119.648 376.448 119.711 376.275C119.774 376.103 119.871 375.945 119.996 375.81C120.13 375.637 120.31 375.504 120.514 375.426L133.444 369.939H145.972Z" fill="#FFC38D"/>
<path d="M119.628 376.83L119.728 379.406H145.035C145.199 379.409 145.362 379.378 145.513 379.315C145.665 379.252 145.802 379.16 145.916 379.042C146.03 378.925 146.119 378.785 146.178 378.632C146.236 378.479 146.263 378.316 146.256 378.152V375.81V374.689H122.27L120.598 375.425C120.398 375.504 120.224 375.638 120.096 375.81C119.954 375.94 119.839 376.097 119.758 376.273C119.678 376.448 119.633 376.638 119.628 376.83Z" fill="#FF449C"/>
<path d="M176.013 270.016L167.666 371.144H155.088L154.72 317.569L154.151 268.661L176.013 270.016Z" fill="#FFC38D"/>
<path d="M172.531 277.732C176.967 273.442 177.22 266.509 173.098 262.245C168.975 257.982 162.037 258.004 157.601 262.293C153.165 266.583 152.911 273.517 157.034 277.78C161.157 282.043 168.095 282.022 172.531 277.732Z" fill="#FFC38D"/>
<path d="M155.088 371.144C155.052 371.959 155.182 372.773 155.47 373.536C155.759 374.299 156.2 374.995 156.767 375.582C157.333 376.169 158.013 376.635 158.766 376.95C159.518 377.265 160.327 377.424 161.143 377.416C162.826 377.401 164.439 376.743 165.651 375.577C166.864 374.411 167.585 372.825 167.666 371.144C167.705 370.327 167.577 369.512 167.289 368.747C167.002 367.982 166.561 367.283 165.994 366.695C165.427 366.106 164.746 365.639 163.992 365.323C163.239 365.006 162.429 364.847 161.611 364.855C159.926 364.87 158.311 365.531 157.097 366.7C155.884 367.87 155.165 369.46 155.088 371.144V371.144Z" fill="#FFC38D"/>
<path d="M151.91 194.78C151.812 196.893 152.146 199.003 152.891 200.982C153.636 202.961 154.777 204.767 156.244 206.29C157.711 207.814 159.473 209.022 161.422 209.841C163.372 210.66 165.468 211.073 167.583 211.055C171.95 211.025 176.139 209.32 179.285 206.292C182.432 203.264 184.296 199.143 184.493 194.78C184.593 192.669 184.262 190.559 183.518 188.58C182.775 186.601 181.636 184.795 180.17 183.271C178.705 181.748 176.944 180.539 174.995 179.72C173.046 178.9 170.951 178.487 168.837 178.505C164.47 178.539 160.281 180.245 157.133 183.272C153.984 186.299 152.115 190.417 151.91 194.78V194.78Z" fill="#FFC38D"/>
<path d="M172.531 277.732C176.967 273.442 177.22 266.509 173.098 262.245C168.975 257.982 162.037 258.004 157.601 262.293C153.165 266.583 152.911 273.517 157.034 277.78C161.157 282.043 168.095 282.022 172.531 277.732Z" fill="#FFC38D"/>
<path d="M184.51 194.396L176.013 270.016H154.101L151.91 194.78L184.51 194.396Z" fill="#FFC38D"/>
<path d="M155.071 369.939L154.87 375.81V378.152C154.868 378.316 154.899 378.479 154.96 378.631C155.021 378.783 155.112 378.922 155.227 379.038C155.342 379.155 155.479 379.248 155.631 379.311C155.782 379.374 155.944 379.407 156.108 379.407H181.332L181.432 376.814C181.442 376.442 181.304 376.081 181.047 375.81C180.923 375.635 180.748 375.501 180.546 375.426L167.599 369.939H155.071Z" fill="#FFC38D"/>
<path d="M181.415 376.83L181.315 379.406H156.025C155.86 379.409 155.697 379.378 155.544 379.315C155.392 379.253 155.254 379.16 155.138 379.043C155.023 378.926 154.932 378.786 154.871 378.633C154.811 378.48 154.782 378.316 154.787 378.152V375.81V374.689H178.773L180.445 375.425C180.65 375.504 180.829 375.637 180.964 375.81C181.239 376.08 181.401 376.445 181.415 376.83V376.83Z" fill="#FF449C"/>
<path d="M183.088 184.994L182.938 184.744C180.856 181.045 178.479 177.521 175.829 174.206L175.729 174.072C173.315 171.071 170.7 168.237 167.901 165.592L162.247 160.239L151.124 160.574L140.018 160.256L134.364 165.592C131.578 168.229 128.979 171.057 126.586 174.055V174.055V174.172C123.981 177.445 121.637 180.918 119.578 184.56V184.56L119.427 184.81H119.611C121.133 192.388 134.782 200.316 151.392 200.316C168.001 200.316 181.616 192.388 183.172 184.81H183.356L183.088 184.994Z" fill="#DCF7FE"/>
<path d="M183.807 283.029H117.236V192.02C117.236 187.648 118.097 183.318 119.771 179.278C121.445 175.239 123.898 171.569 126.991 168.478C130.084 165.387 133.755 162.935 137.795 161.263C141.836 159.592 146.166 158.732 150.538 158.734V158.734C159.366 158.734 167.833 162.241 174.075 168.484C180.317 174.726 183.824 183.192 183.824 192.02L183.807 283.029Z" fill="#75CCDD"/>
<path d="M176.765 110.696L170.945 131.989L162.765 161.778L138.696 161.343L129.045 127.523L124.311 110.796C124.103 109.844 124.263 108.849 124.759 108.011C125.256 107.172 126.052 106.554 126.987 106.28L130.333 105.293L133.293 104.44C134.966 103.955 136.639 103.537 138.311 103.202C146.315 101.542 154.566 101.468 162.598 102.985C165.495 103.524 168.35 104.261 171.145 105.193L172.3 105.577H172.45L173.32 105.845L174.19 106.146C175.113 106.44 175.892 107.073 176.369 107.916C176.847 108.76 176.988 109.752 176.765 110.696Z" fill="#DCF7FE"/>
<path d="M124.295 110.696C124.27 110.48 124.27 110.261 124.295 110.044C124.289 110.32 124.317 110.595 124.378 110.864L125.114 113.74L124.295 110.696Z" fill="#DCF7FE"/>
<path d="M167.683 104.875C167.683 111.181 160.139 116.283 150.823 116.283C141.506 116.283 133.962 111.181 133.962 104.875C133.962 98.5693 141.506 93.4678 150.823 93.4678C160.139 93.4678 167.683 98.5693 167.683 104.875Z" fill="#DCF7FE"/>
<path d="M181.884 41.2143V49.7113C181.884 57.2528 178.888 64.4853 173.555 69.8179C168.223 75.1505 160.99 78.1463 153.449 78.1463H146.758C139.217 78.1463 131.984 75.1505 126.651 69.8179C121.319 64.4853 118.323 57.2528 118.323 49.7113V41.2143C118.318 36.4268 119.423 31.7033 121.551 27.4149C121.819 26.863 122.12 26.3277 122.421 25.7423C125.152 20.9787 129.089 17.0188 133.838 14.2615C138.586 11.5041 143.977 10.0468 149.468 10.0361L150.722 10.0361C157.593 10.0546 164.267 12.3374 169.709 16.5313C175.152 20.7253 179.061 26.5963 180.83 33.2357C180.98 33.8379 181.131 34.4233 181.248 35.0255C181.664 37.0623 181.877 39.1354 181.884 41.2143V41.2143Z" fill="#EA4277"/>
<path d="M191.953 59.8811V61.5538C191.944 63.4897 191.171 65.3438 189.803 66.7126C188.434 68.0815 186.58 68.8545 184.644 68.8633H178.973C177.686 78.8991 167.516 87.0617 157.681 89.0354V107.234C157.669 108.843 157.04 110.387 155.922 111.545C154.804 112.703 153.284 113.387 151.676 113.456H151.442C150.625 113.456 149.817 113.295 149.063 112.982C148.309 112.669 147.624 112.211 147.048 111.633C146.471 111.055 146.015 110.368 145.704 109.614C145.393 108.859 145.234 108.05 145.236 107.234V89.303H145.069H144.667L143.53 89.119C133.411 87.1955 123.458 79.0831 122.154 68.9469H116.4C115.434 68.9425 114.479 68.7477 113.588 68.3736C112.698 67.9995 111.89 67.4534 111.211 66.7667C110.532 66.0799 109.996 65.266 109.632 64.3715C109.268 63.477 109.084 62.5195 109.09 61.5538V59.8811C109.095 57.9455 109.867 56.0906 111.237 54.7234C112.607 53.3562 114.464 52.5884 116.4 52.5884H121.919V42.402C122.287 42.1511 122.421 42.1009 122.789 41.85C127.016 43.6703 131.569 44.6094 136.17 44.6099C151.475 44.6099 164.104 34.574 166.278 21.5273C170.132 23.4902 173.371 26.4765 175.64 30.1587C177.909 33.8409 179.12 38.0769 179.141 42.402V52.5884H184.644C186.579 52.5884 188.436 53.3562 189.806 54.7234C191.177 56.0906 191.949 57.9455 191.953 59.8811V59.8811Z" fill="#FFC38D"/>
<path d="M142.56 60.7169C142.369 60.7175 142.18 60.7589 142.007 60.8384C141.833 60.9179 141.678 61.0336 141.553 61.1778C141.428 61.322 141.335 61.4913 141.281 61.6743C141.227 61.8573 141.212 62.0499 141.238 62.239C141.59 64.4479 142.718 66.4589 144.42 67.9108C146.121 69.3627 148.285 70.1602 150.521 70.1602C152.758 70.1602 154.922 69.3627 156.623 67.9108C158.325 66.4589 159.453 64.4479 159.805 62.239C159.834 62.0494 159.821 61.8558 159.768 61.6715C159.715 61.4872 159.622 61.3168 159.496 61.1719C159.371 61.0271 159.215 60.9114 159.04 60.8328C158.865 60.7542 158.675 60.7147 158.483 60.7169H142.56Z" fill="white"/>
<g style="mix-blend-mode:multiply" opacity="0.33">
<g style="mix-blend-mode:multiply" opacity="0.33">
<path d="M133.109 64.6314C134.717 64.6314 136.02 63.3283 136.02 61.7209C136.02 60.1136 134.717 58.8105 133.109 58.8105C131.502 58.8105 130.199 60.1136 130.199 61.7209C130.199 63.3283 131.502 64.6314 133.109 64.6314Z" fill="#FF556D"/>
</g>
</g>
<g style="mix-blend-mode:multiply" opacity="0.33">
<g style="mix-blend-mode:multiply" opacity="0.33">
<path d="M167.934 64.6314C169.541 64.6314 170.844 63.3283 170.844 61.7209C170.844 60.1136 169.541 58.8105 167.934 58.8105C166.326 58.8105 165.023 60.1136 165.023 61.7209C165.023 63.3283 166.326 64.6314 167.934 64.6314Z" fill="#FF556D"/>
</g>
</g>
<path d="M144.651 89.2188H157.63V97.3144L145.203 93.7851L144.651 89.2188Z" fill="#FF935F"/>
<path d="M142.794 54.7458C141.414 54.7458 140.091 54.1977 139.116 53.2222C138.14 52.2466 137.592 50.9235 137.592 49.5439C137.592 49.3043 137.687 49.0746 137.857 48.9052C138.026 48.7358 138.256 48.6406 138.495 48.6406C138.736 48.6406 138.968 48.7352 139.14 48.9041C139.312 49.0731 139.411 49.3028 139.415 49.5439C139.415 50.4311 139.768 51.282 140.395 51.9093C141.022 52.5367 141.873 52.8892 142.761 52.8892C143.648 52.8892 144.499 52.5367 145.126 51.9093C145.753 51.282 146.106 50.4311 146.106 49.5439C146.11 49.3028 146.209 49.0731 146.381 48.9041C146.553 48.7352 146.785 48.6406 147.026 48.6406C147.265 48.6406 147.495 48.7358 147.664 48.9052C147.834 49.0746 147.929 49.3043 147.929 49.5439C147.929 50.912 147.39 52.2251 146.429 53.1987C145.468 54.1724 144.162 54.7282 142.794 54.7458V54.7458Z" fill="#754040"/>
<path d="M157.229 54.7458C155.849 54.7458 154.526 54.1977 153.551 53.2222C152.575 52.2466 152.027 50.9235 152.027 49.5439C152.027 49.3043 152.122 49.0746 152.292 48.9052C152.461 48.7358 152.691 48.6406 152.93 48.6406C153.171 48.6406 153.403 48.7352 153.575 48.9041C153.747 49.0731 153.846 49.3028 153.85 49.5439C153.85 50.4311 154.203 51.282 154.83 51.9093C155.457 52.5367 156.308 52.8892 157.196 52.8892C158.083 52.8892 158.934 52.5367 159.561 51.9093C160.188 51.282 160.541 50.4311 160.541 49.5439C160.541 49.3043 160.636 49.0746 160.805 48.9052C160.975 48.7358 161.205 48.6406 161.444 48.6406C161.684 48.6406 161.913 48.7358 162.083 48.9052C162.252 49.0746 162.347 49.3043 162.347 49.5439C162.348 50.9091 161.811 52.2197 160.853 53.1929C159.896 54.1661 158.594 54.7238 157.229 54.7458V54.7458Z" fill="#754040"/>
<path d="M167.951 116.852H133.109C127.835 116.852 123.559 121.128 123.559 126.402V128.527C123.559 133.801 127.835 138.077 133.109 138.077H167.951C173.225 138.077 177.501 133.801 177.501 128.527V126.402C177.501 121.128 173.225 116.852 167.951 116.852Z" fill="#DCF7FE"/>
<path d="M154.385 123.308C154.385 124.073 154.158 124.821 153.733 125.457C153.308 126.092 152.703 126.588 151.996 126.879C151.289 127.171 150.512 127.247 149.762 127.096C149.012 126.946 148.323 126.576 147.783 126.034C147.244 125.492 146.877 124.802 146.73 124.052C146.583 123.301 146.662 122.524 146.957 121.818C147.252 121.112 147.75 120.51 148.387 120.087C149.025 119.665 149.773 119.441 150.538 119.444C151.56 119.449 152.539 119.858 153.26 120.582C153.981 121.306 154.385 122.286 154.385 123.308V123.308Z" fill="#B8DFFF"/>
<path d="M154.385 140.503C154.379 141.266 154.146 142.011 153.717 142.642C153.288 143.273 152.681 143.763 151.973 144.05C151.266 144.337 150.489 144.408 149.741 144.253C148.994 144.099 148.308 143.727 147.772 143.184C147.236 142.64 146.872 141.95 146.728 141.201C146.583 140.451 146.664 139.675 146.96 138.971C147.256 138.268 147.754 137.667 148.391 137.246C149.028 136.825 149.775 136.602 150.538 136.606C151.047 136.608 151.551 136.71 152.02 136.908C152.489 137.105 152.914 137.393 153.272 137.755C153.629 138.117 153.911 138.546 154.103 139.018C154.294 139.489 154.39 139.994 154.385 140.503V140.503Z" fill="#B8DFFF"/>
</g>
<defs>
<clipPath id="clip0">
<rect width="77.3432" height="381.916" fill="white"/>
</clipPath>
<clipPath id="clip1">
<rect width="96.9968" height="369.371" fill="white" transform="translate(102.031 10.0361)"/>
</clipPath>
</defs>
</svg>
