<svg width="846" height="233" viewBox="0 0 846 233" fill="none" xmlns="http://www.w3.org/2000/svg">
<path d="M72.5002 315.178H812.292C873.613 287.102 842.055 202.62 790.839 185.495C735.707 167.06 823.253 103.304 738.324 82.6105C682.873 69.0982 607.721 84.1931 571.013 55.1057C527.883 20.9303 456.234 -20.668 322.795 11.6569C219.878 36.5878 275.776 84.6527 107.365 99.1232C20.7664 106.56 37.5025 170.225 45.5767 183.381C52.6086 194.839 99.1364 213.015 34.475 238.044C-60.3464 274.746 70.2642 314.502 72.5002 315.178Z" fill="#EAFCFC"/>
<path d="M276.058 185.809C276.058 185.809 351.853 110.063 396.931 110.306C442.009 110.549 491.115 160.198 555.264 202.6C627.153 250.119 533.283 252.114 527.865 252.506C522.447 252.897 335.532 247.687 332.415 245.124C329.299 242.558 279.391 209.704 279.391 209.704L276.058 185.809Z" fill="#C5DDF9"/>
<path d="M664.966 188.087H668.168V160.077H664.966V188.087Z" fill="#355389"/>
<path d="M666.565 105.741L677.022 172.4H656.111L666.565 105.741Z" fill="#3C8F7C"/>
<path d="M673.229 148.224L658.321 158.309L658.893 154.655L672.767 145.271L673.229 148.224Z" fill="#50BFA5"/>
<path d="M670.938 133.613L661.809 136.073L662.237 133.339L670.544 131.097L670.938 133.613Z" fill="#50BFA5"/>
<path d="M228.755 138.771L238.09 198.283H219.421L228.755 138.771Z" fill="#3C8F7C"/>
<path d="M245.198 147.51L252.308 192.834H238.09L245.198 147.51Z" fill="#3C8F7C"/>
<path d="M259.416 161.008L266.526 206.332H252.308L259.416 161.008Z" fill="#3C8F7C"/>
<path d="M211.292 152.061L220.625 211.573H201.956L211.292 152.061Z" fill="#3C8F7C"/>
<path d="M246.585 170.57C327.554 181.199 449.048 276.715 541.584 276.715C634.12 276.715 654.045 253.869 688.748 258.7C723.448 263.53 770.033 276.715 770.033 276.715L82.3848 278.318C82.3874 278.318 165.616 159.94 246.585 170.57Z" fill="#86B1F2"/>
<path d="M539.677 142.731L549.013 202.244H530.344L539.677 142.731Z" fill="#3C8F7C"/>
<path d="M561.907 160.252L569.014 205.576H554.796L561.907 160.252Z" fill="#3C8F7C"/>
<path d="M505.894 184.445L513.002 229.771H498.784L505.894 184.445Z" fill="#3C8F7C"/>
<path d="M522.215 156.021L531.548 215.533H512.879L522.215 156.021Z" fill="#3C8F7C"/>
<path d="M613.591 170.57C532.622 181.199 411.128 276.715 318.592 276.715C226.056 276.715 206.13 253.869 171.428 258.7C136.725 263.53 90.1401 276.715 90.1401 276.715L777.788 278.318C777.786 278.318 694.56 159.94 613.591 170.57Z" fill="#86B1F2"/>
<path d="M585.875 259.742H589.53V227.786H585.875V259.742Z" fill="#355389"/>
<path d="M587.702 165.795L599.629 241.845H575.774L587.702 165.795Z" fill="#3C8F7C"/>
<path d="M595.303 214.262L578.295 225.767L578.948 221.598L594.775 210.893L595.303 214.262Z" fill="#50BFA5"/>
<path d="M592.688 197.593L582.273 200.401L582.762 197.279L592.239 194.724L592.688 197.593Z" fill="#50BFA5"/>
<path d="M627.169 273.366H630.656V225.167H627.169V273.366Z" fill="#355389"/>
<path d="M627.999 139.236L645.182 236.524H610.819L627.999 139.236Z" fill="#3C8F7C"/>
<path d="M644.09 230.35L613.264 222.684L613.729 220.046L643.584 227.469L644.09 230.35Z" fill="#50BFA5"/>
<path d="M638.665 199.616L618.235 194.534L618.7 191.896L638.156 196.735L638.665 199.616Z" fill="#50BFA5"/>
<path d="M82.3872 278.318C82.3872 278.318 171.161 217.483 285.629 213.747C324.067 212.492 481.457 237.651 613.996 257.418C619.567 258.249 631.615 266.384 637.254 267.221C699.998 276.525 758.472 278.491 777.384 279.093L82.3872 278.318Z" fill="#96D9C9"/>
<path d="M796.026 211.406L796.154 206.167C796.154 202.283 792.395 199.132 787.759 199.132C776.075 199.132 766.606 207.07 766.606 216.86V224.019C766.606 227.156 764.495 229.878 761.4 231.244C758.589 232.485 756.87 234.964 756.87 237.629V241.402C756.87 245.488 759.158 249.301 762.962 251.858C765.185 253.354 766.608 255.65 766.608 258.226V263.569C766.608 269.477 772.324 274.265 779.371 274.265H783.394C790.444 274.265 796.157 269.475 796.157 263.569C795 256.107 797.805 251.8 801.039 249.34C805.796 245.721 808.58 240.631 808.58 235.246V234.492C808.58 228.809 805.451 223.488 800.222 219.871C797.912 218.27 796.026 215.663 796.026 211.406Z" fill="#4E9B87"/>
<path d="M809.166 280.467C809.166 280.467 776.577 246.317 756.068 241.08C735.56 235.842 754.888 256.645 754.888 256.645C754.888 256.645 718.508 225.262 705.158 228.092C692.92 230.686 705.158 250.137 705.158 250.137C705.158 250.137 691.373 239.366 674.658 239.366C657.943 239.366 687.578 279.701 687.578 279.701L809.166 280.467Z" fill="#96D9C9"/>
<path d="M705.158 279.701C705.158 279.701 682.881 232.703 655.292 238.138C632.934 242.541 648.829 266.191 647.465 265.115C646.102 264.039 634.112 247.99 614.712 247.99C595.311 247.99 620.667 269.653 620.667 269.653C620.667 269.653 579.33 259.468 576.093 270.164C573.408 279.039 588.431 279.703 588.431 279.703H705.158V279.701Z" fill="#3C8F7C"/>
<path d="M120.136 241.956C114.822 235.407 113.832 227.5 113.934 222.02C114.047 216.071 115.439 211.616 115.452 211.572L115.068 211.465C115.055 211.511 113.65 215.997 113.537 221.985C113.43 227.521 114.433 235.508 119.812 242.137L120.136 241.956Z" fill="#3C8F7C"/>
<path d="M116.761 210.485C116.63 211.83 115.875 212.96 114.786 213.654C113.856 212.716 113.334 211.433 113.464 210.087C113.595 208.741 114.35 207.612 115.439 206.917C116.372 207.853 116.891 209.137 116.761 210.485Z" fill="#3C8F7C"/>
<path d="M113.172 213.592C114.073 214.757 114.352 216.084 114.062 217.236C112.683 216.976 111.346 216.213 110.445 215.049C109.543 213.885 109.264 212.558 109.551 211.406C110.933 211.665 112.27 212.426 113.172 213.592Z" fill="#3C8F7C"/>
<path d="M111.137 217.25C112.537 217.969 113.485 219.078 113.851 220.246C112.521 220.545 110.962 220.366 109.562 219.647C108.162 218.928 107.213 217.819 106.848 216.65C108.177 216.352 109.737 216.531 111.137 217.25Z" fill="#3C8F7C"/>
<path d="M111.763 222.342C112.871 222.913 113.558 223.89 113.746 224.968C112.592 225.355 111.293 225.308 110.186 224.737C109.078 224.166 108.391 223.189 108.203 222.111C109.355 221.724 110.656 221.771 111.763 222.342Z" fill="#3C8F7C"/>
<path d="M116.343 216.308C117.589 215.783 118.984 215.754 120.175 216.133C119.859 217.149 119.02 218.062 117.777 218.587C116.531 219.113 115.136 219.142 113.945 218.762C114.258 217.744 115.097 216.834 116.343 216.308Z" fill="#3C8F7C"/>
<path d="M116.205 219.826C117.451 219.301 118.845 219.272 120.037 219.651C119.721 220.667 118.882 221.58 117.639 222.105C116.393 222.631 114.998 222.66 113.807 222.281C114.12 221.263 114.959 220.352 116.205 219.826Z" fill="#3C8F7C"/>
<path d="M112.566 227.937C113.224 228.059 113.77 228.409 114.102 228.866C113.634 229.176 112.999 229.31 112.341 229.188C111.683 229.066 111.137 228.716 110.805 228.259C111.273 227.949 111.908 227.816 112.566 227.937Z" fill="#3C8F7C"/>
<path d="M117.944 246.585C105.785 244.291 96.5117 237.196 90.8746 231.648C84.7543 225.625 81.4735 220.073 81.4421 220.018L80.9458 220.217C80.9798 220.273 84.2815 225.866 90.441 231.931C96.1329 237.534 105.503 244.701 117.811 247.024L117.944 246.585Z" fill="#3C8F7C"/>
<path d="M81.6067 217.889C82.8866 219.336 83.3176 221.065 82.9572 222.623C81.0477 222.429 79.1826 221.565 77.9026 220.119C76.6227 218.672 76.1917 216.943 76.5522 215.385C78.4616 215.577 80.3267 216.442 81.6067 217.889Z" fill="#3C8F7C"/>
<path d="M81.2825 223.851C83.401 224.294 85.0702 225.394 85.9896 226.773C84.3414 227.614 82.2098 227.921 80.0914 227.478C77.9729 227.034 76.3038 225.934 75.3843 224.555C77.0325 223.713 79.1615 223.408 81.2825 223.851Z" fill="#3C8F7C"/>
<path d="M83.0848 229.12C85.2346 228.72 87.34 229.07 88.9308 229.944C87.9173 231.302 86.175 232.368 84.0252 232.767C81.8754 233.167 79.77 232.817 78.1792 231.943C79.1927 230.585 80.935 229.52 83.0848 229.12Z" fill="#3C8F7C"/>
<path d="M86.4808 225.947C86.3737 224.317 87.0528 222.781 88.2126 221.677C89.5056 222.546 90.3781 223.931 90.4852 225.561C90.5923 227.191 89.9131 228.727 88.7533 229.831C87.4629 228.964 86.5879 227.577 86.4808 225.947Z" fill="#3C8F7C"/>
<path d="M91.5326 230.905C91.3942 229.277 92.042 227.731 93.1835 226.61C94.4922 227.461 95.3908 228.834 95.5319 230.462C95.6703 232.09 95.0225 233.635 93.881 234.756C92.5723 233.905 91.6711 232.533 91.5326 230.905Z" fill="#3C8F7C"/>
<path d="M150.128 260.132L150.653 260.106C149.896 249.134 155.003 238.81 159.417 232.081C164.211 224.78 169.247 220.018 169.299 219.97L168.912 219.657C168.863 219.705 163.79 224.498 158.968 231.842C154.512 238.628 149.363 249.043 150.128 260.132Z" fill="#3C8F7C"/>
<path d="M171.579 219.342C170.378 220.937 168.656 221.926 166.906 222.198C166.611 220.537 167.04 218.668 168.239 217.073C169.44 215.478 171.162 214.489 172.912 214.217C173.209 215.878 172.781 217.747 171.579 219.342Z" fill="#3C8F7C"/>
<path d="M165.161 221.252C165.248 223.179 164.516 224.97 163.294 226.239C161.967 225.174 161.084 223.513 160.998 221.586C160.911 219.659 161.643 217.869 162.865 216.599C164.192 217.665 165.075 219.325 165.161 221.252Z" fill="#3C8F7C"/>
<path d="M160.039 224.681C161.026 226.324 161.209 228.207 160.697 229.85C158.989 229.504 157.398 228.44 156.411 226.798C155.423 225.155 155.24 223.272 155.752 221.629C157.461 221.978 159.049 223.039 160.039 224.681Z" fill="#3C8F7C"/>
<path d="M156.518 233.11C156.991 233.771 157.134 234.554 156.98 235.257C156.251 235.158 155.549 234.758 155.073 234.097C154.601 233.435 154.457 232.652 154.611 231.95C155.34 232.047 156.045 232.448 156.518 233.11Z" fill="#3C8F7C"/>
<path d="M166.549 226.322C168.341 226.342 169.911 227.058 170.937 228.168C169.79 229.254 168.147 229.932 166.353 229.912C164.558 229.891 162.991 229.176 161.964 228.065C163.111 226.977 164.757 226.299 166.549 226.322Z" fill="#3C8F7C"/>
<path d="M163.639 230.598C165.43 230.618 167 231.333 168.027 232.444C166.88 233.53 165.237 234.208 163.443 234.187C161.648 234.167 160.081 233.452 159.054 232.341C160.201 231.253 161.844 230.577 163.639 230.598Z" fill="#3C8F7C"/>
<path d="M104.79 278.122C104.79 276.296 118.77 278.452 119.932 275.963C121.095 273.473 107.958 273.331 107.958 269.966C107.958 266.601 114.653 268.96 118.579 268.96C122.505 268.96 110.829 267.52 110.829 266.329C110.829 265.138 114.925 265.762 114.925 264.497C114.925 263.231 93.411 262.277 95.9291 259.182C98.4472 256.085 110.011 260.085 113.188 258.481C116.364 256.878 96.2216 255.133 95.7253 252.75C95.2264 250.368 110.565 254.793 112.738 253.078C114.912 251.364 88.4844 245.206 89.592 240.681C90.6995 236.155 109.622 246.477 114.353 245.365C119.083 244.254 90.4984 228.366 97.1411 222.175C103.784 215.985 116.466 242.665 120.794 241.713C125.123 240.761 115.374 224.854 119.796 222.086C124.219 219.319 136.909 244.481 137.711 249.647C138.513 254.813 140.122 238.533 147.067 236.629C154.013 234.725 147.268 246.714 148.475 250.368C149.682 254.022 155.319 240.998 162.918 241.952C170.517 242.904 149.178 254.815 151.294 258.31C153.407 261.803 169.885 246.646 175.049 250.721C180.213 254.795 155.202 266.098 156.57 269.193C157.939 272.286 172.943 266.984 177.264 270.392C181.584 273.801 161.144 275.967 158.433 275.967C155.721 275.967 145.364 278.654 155.481 278.126C165.595 277.593 104.79 279.948 104.79 278.122Z" fill="#3C8F7C"/>
<path d="M75.7187 164.353C75.7448 163.634 77.0039 163.077 77.67 163.714C78.3335 164.349 78.3047 163.92 78.9525 165.292C80.8098 169.235 83.5395 173.047 86.7159 176.381C92.8022 182.768 98.8311 185.989 105.672 189.181C102.854 184.169 100.965 178.819 100.725 173.424C100.636 171.458 100.686 169.418 101.751 167.613C102.049 167.108 103.193 167.213 103.308 167.774C103.883 170.558 103.037 172.658 104.181 177.64C106.908 189.533 117.696 202.145 128.106 210.977C126.11 196.024 125.143 179.031 128.712 163.949C129.297 161.476 130.227 159.123 131.094 156.705C131.298 156.137 132.322 156.382 132.196 156.946C132.016 157.75 130.315 168.128 130.214 168.845C128.563 180.332 128.894 193.055 130.177 204.659C138.251 196.033 143.656 185.945 146.182 175.411C146.929 172.297 147.127 169.082 148.175 166.026C148.318 165.606 149.201 165.56 149.311 166.026C150.387 170.605 148.232 178.704 146.662 183.106C143.481 192.024 138.392 200.018 131.436 207.161C131.164 207.439 142.608 277.226 142.303 278.11C141.783 279.6 138.494 280.647 137.982 278.003C137.773 276.927 131.486 234.492 128.649 214.837C127.578 214.371 126.886 213.543 124.13 211.097C117.746 205.436 111.435 198.394 107.216 191.75C104.685 191.637 86.4024 184.62 77.3356 168.641C77.0744 168.182 75.8963 166.018 75.7291 165.536C75.5802 165.119 75.703 164.761 75.7187 164.353Z" fill="#184655"/>
<path d="M134.432 141.726C134.223 139.579 134.116 137.382 134.116 135.146C134.116 110.219 147.527 90.0117 164.069 90.0117C180.612 90.0117 194.023 110.219 194.023 135.146C194.023 137.382 193.916 139.579 193.707 141.726H134.432Z" fill="#50BFA5"/>
<path d="M100.531 130.633C100.322 127.604 100.215 124.506 100.215 121.353C100.215 86.1991 113.626 57.7031 130.169 57.7031C146.712 57.7031 160.123 86.2012 160.123 121.353C160.123 124.504 160.016 127.604 159.807 130.633H100.531Z" fill="#96D9C9"/>
<path d="M111.5 169.639C111.709 167.491 111.816 165.295 111.816 163.059C111.816 138.132 98.4051 117.924 81.8623 117.924C65.3195 117.924 51.9087 138.132 51.9087 163.059C51.9087 165.295 52.0184 167.491 52.2248 169.639H111.5Z" fill="#96D9C9"/>
<path d="M159.438 169.639C159.702 166.61 159.84 163.512 159.84 160.359C159.84 125.205 142.841 96.709 121.867 96.709C100.897 96.709 83.8945 125.207 83.8945 160.359C83.8945 163.51 84.033 166.61 84.2968 169.639H159.438Z" fill="#50BFA5"/>
<path d="M130.281 96.709C140.761 96.709 150.126 105.749 156.306 119.927C159.454 118.625 162.798 117.924 166.261 117.924C184.87 117.924 199.956 138.132 199.956 163.059C199.956 165.293 199.833 167.489 199.6 169.639H96.9451C96.71 166.61 96.5898 163.512 96.5898 160.359C96.5898 125.205 111.675 96.709 130.281 96.709Z" fill="#96D9C9"/>
<path opacity="0.5" d="M390.168 55.0546C388.82 50.4261 383.569 46.9723 377.292 46.9723C376.141 46.9723 375.023 47.0898 373.957 47.3082C370.859 42.0822 364.135 38.4594 356.338 38.4594C354.321 38.4594 352.378 38.7005 350.549 39.1497C346.351 33.6661 338.727 30 330.015 30C319.65 30 310.823 35.189 307.477 42.4531C305.111 41.4124 302.384 40.8169 299.481 40.8169C290.396 40.8169 283.033 46.6261 283.033 53.7934C283.033 54.2179 283.061 54.6383 283.111 55.0525H390.168V55.0546Z" fill="white"/>
<path opacity="0.5" d="M536.111 136.013C536.762 133.783 539.29 132.12 542.313 132.12C542.869 132.12 543.404 132.176 543.919 132.281C545.411 129.765 548.65 128.019 552.403 128.019C553.375 128.019 554.31 128.137 555.19 128.353C557.212 125.713 560.882 123.947 565.078 123.947C570.069 123.947 574.319 126.447 575.931 129.944C577.07 129.443 578.384 129.155 579.781 129.155C584.157 129.155 587.701 131.953 587.701 135.403C587.701 135.607 587.688 135.809 587.665 136.009H536.111V136.013Z" fill="white"/>
<path opacity="0.5" d="M445.598 107.016C444.801 104.277 441.692 102.233 437.978 102.233C437.296 102.233 436.635 102.303 436.003 102.431C434.169 99.3376 430.191 97.1944 425.578 97.1944C424.384 97.1944 423.235 97.3366 422.154 97.6045C419.669 94.3588 415.158 92.1909 410.002 92.1909C403.868 92.1909 398.644 95.2614 396.664 99.5622C395.264 98.946 393.65 98.5937 391.931 98.5937C386.555 98.5937 382.195 102.031 382.195 106.274C382.195 106.525 382.211 106.775 382.242 107.02H445.598V107.016Z" fill="white"/>
<path opacity="0.5" d="M569.014 74.8376C567.935 71.1386 563.74 68.3772 558.722 68.3772C557.8 68.3772 556.907 68.4699 556.055 68.6451C553.579 64.468 548.206 61.5747 541.976 61.5747C540.364 61.5747 538.813 61.7684 537.35 62.127C533.996 57.7458 527.902 54.8154 520.937 54.8154C512.654 54.8154 505.599 58.9637 502.927 64.7688C501.035 63.9363 498.857 63.4603 496.535 63.4603C489.275 63.4603 483.388 68.1031 483.388 73.832C483.388 74.172 483.409 74.5079 483.45 74.8376H569.014V74.8376Z" fill="white"/>
<path opacity="0.5" d="M223.856 120.023C224.395 118.179 226.487 116.802 228.987 116.802C229.446 116.802 229.891 116.85 230.316 116.936C231.552 114.855 234.229 113.41 237.335 113.41C238.137 113.41 238.913 113.507 239.642 113.686C241.314 111.502 244.351 110.041 247.823 110.041C251.953 110.041 255.469 112.108 256.801 115.003C257.744 114.589 258.831 114.352 259.988 114.352C263.608 114.352 266.542 116.666 266.542 119.523C266.542 119.691 266.531 119.858 266.51 120.023H223.856Z" fill="white"/>
</svg>
