<svg width="471" height="470" viewBox="0 0 471 470" fill="none" xmlns="http://www.w3.org/2000/svg">
<mask id="mask0_143_5898" style="mask-type:alpha" maskUnits="userSpaceOnUse" x="0" y="0" width="471" height="470">
<path d="M235.473 469.69C365.115 469.69 470.21 364.636 470.21 235.045C470.21 105.454 365.115 0.399414 235.473 0.399414C105.831 0.399414 0.735725 105.454 0.735725 235.045C0.735725 364.636 105.831 469.69 235.473 469.69Z" fill="url(#paint0_linear_143_5898)"/>
</mask>
<g mask="url(#mask0_143_5898)">
<g opacity="0.6">
<path opacity="0.6" d="M135.828 453.893C185.912 400.732 279.313 302.428 305.39 275.505C307.719 273.093 309.629 271.164 311.102 269.682C318.429 262.377 329.948 250.578 342.673 237.44C371.012 208.161 405.339 172.195 412.999 163.997C416.078 160.691 431.73 143.933 452.752 121.466C452.676 121.342 452.6 121.209 452.515 121.086C419.319 155.893 386.608 189.931 374.548 202.404C364.654 212.626 354.942 222.411 345.704 231.341C342.72 234.229 338.444 238.551 333.131 244.061C297.369 280.996 199.968 384.516 135.03 453.494C135.287 453.627 135.553 453.76 135.828 453.893Z" fill="#D38E2D"/>
<path opacity="0.6" d="M128.035 449.931C143.165 434.01 165.033 410.896 170.478 404.608C178.499 395.364 310.57 256.857 338.7 227.797C340.535 225.888 342.065 224.32 343.262 223.142C349.183 217.262 358.449 207.762 368.674 197.17C391.473 173.629 419.081 144.702 425.23 138.119C427.112 136.105 435.608 127.051 447.839 114.018C447.753 113.894 447.658 113.771 447.582 113.638C423.424 138.841 402.146 160.928 394.325 169.012C386.351 177.239 378.539 185.124 371.117 192.306C368.703 194.614 365.263 198.101 360.986 202.537C318.163 246.768 159.226 415.542 146.339 428.861C140.267 435.13 133.272 442.806 127.256 449.532C127.513 449.665 127.769 449.798 128.035 449.931Z" fill="#D38E2D"/>
<path opacity="0.6" d="M150.103 460.79C196.081 410.592 253.834 347.599 263.955 336.617C280.396 318.739 385.553 203.61 400.131 188.126C404.227 183.775 427.454 159.322 456.848 128.353C456.677 128.058 456.506 127.764 456.335 127.46C405.786 180.412 357.793 230.78 341.466 248.298C297.978 294.932 189.257 412.521 164.795 439.529C160.671 444.089 154.522 451.024 147.157 459.422C148.135 459.878 149.114 460.334 150.103 460.79Z" fill="#D38E2D"/>
<path opacity="0.6" d="M293.787 481.138C321.071 451.385 344.013 426.372 350.038 419.817C365.814 402.67 463.235 296.006 483.981 273.7C483.99 273.102 483.981 272.513 483.99 271.914C458.074 299.122 437.233 321.095 427.549 331.497C396.387 364.927 331.725 434.779 288.569 481.642C290.318 481.48 292.057 481.319 293.787 481.138Z" fill="#D38E2D"/>
<path opacity="0.6" d="M174.764 470.583C200.234 444.041 224.962 418.306 242.363 400.19C244.672 397.758 278.8 365.078 281.289 362.485C336.296 305.666 432.548 210.611 432.548 210.611C419.746 220.776 266.397 372.735 241.745 398.195C230.94 409.367 202.591 439.072 173.054 470.07C173.624 470.251 174.185 470.422 174.764 470.583Z" fill="#D38E2D"/>
<path opacity="0.6" d="M308.289 479.409C308.337 479.399 308.375 479.39 308.432 479.38C317.983 469.681 340.363 447.205 342.35 445.058C387.349 396.399 460.697 320.23 483.306 296.803C483.316 296.575 483.335 296.347 483.344 296.129C451.669 327.108 331.459 451.831 305.362 479.789C306.331 479.656 307.31 479.551 308.289 479.409Z" fill="#D38E2D"/>
<path opacity="0.6" d="M158.561 464.561C173.006 448.468 185.456 434.779 192.802 427.084C221.446 397.036 294.927 317.2 305.048 305.857C305.714 305.106 305.942 304.85 305.742 305.068C303.233 307.662 190.17 427.198 171.799 446.198C168.511 449.589 162.894 455.631 155.805 463.373C156.717 463.782 157.639 464.162 158.561 464.561Z" fill="#D38E2D"/>
<path opacity="0.6" d="M342.188 471.41C368.541 442.92 394.001 415.171 399.666 408.845C400.331 408.094 400.549 407.828 400.359 408.047C399.105 409.348 370.414 439.662 339.67 472.113C340.515 471.866 341.352 471.648 342.188 471.41Z" fill="#D38E2D"/>
<path opacity="0.6" d="M467.739 151.893C467.587 151.38 467.426 150.876 467.264 150.373C448.552 169.468 435.247 183.043 432.757 185.617C422.198 196.552 321.566 299.197 321.566 299.197C321.566 299.197 376.734 228.746 386.209 216.786C390.371 211.542 423.767 175.272 460.64 135.43C460.203 134.584 459.766 133.729 459.319 132.884C425.021 169.705 392.12 205.785 378.511 223.446C347.463 263.753 305.086 317.095 305.086 317.095C305.086 317.095 406.156 214.82 438.05 182.311C441.234 179.091 452.714 167.311 467.739 151.893Z" fill="#D38E2D"/>
<path opacity="0.6" d="M442.422 164.586C448.922 157.499 456.088 149.69 463.605 141.51C463.586 141.472 463.567 141.434 463.548 141.396C450.234 155.779 440.559 166.191 438.326 168.585C436.435 170.608 438.164 168.908 442.422 164.586Z" fill="#D38E2D"/>
<path opacity="0.6" d="M464.052 142.488C454.729 152.045 447.06 159.873 442.422 164.585C420.203 188.828 405.719 204.741 411.497 198.927C416.534 193.854 437.623 172.213 464.85 144.227C464.584 143.638 464.309 143.068 464.052 142.488Z" fill="#D38E2D"/>
<path opacity="0.6" d="M250.612 483C287.989 443.738 328.208 401.872 341.884 387.736C351.777 377.514 361.49 367.72 370.727 358.8C373.721 355.921 377.988 351.599 383.3 346.079C403.087 325.645 441.728 284.844 483.316 240.783C483.278 240.213 483.24 239.643 483.202 239.083C451.773 272.142 423.595 301.668 411.041 314.635C408.722 317.039 406.822 318.986 405.339 320.458C398.002 327.764 386.484 339.563 373.768 352.71C345.429 381.989 311.102 417.965 303.442 426.153C299.755 430.124 277.84 453.56 250.289 483.01C250.393 483 250.498 483 250.612 483Z" fill="#D38E2D"/>
<path opacity="0.6" d="M262.596 483C289.263 455.166 313.592 429.886 322.098 421.109C330.071 412.882 337.883 404.997 345.296 397.815C347.71 395.507 351.14 392.02 355.436 387.603C378.368 363.91 434.563 304.546 483.819 252.439C483.81 252.078 483.8 251.717 483.791 251.356C442.669 294.59 393.621 345.908 377.731 362.333C375.897 364.243 374.358 365.801 373.17 366.979C367.249 372.869 357.983 382.368 347.757 392.961C324.968 416.501 297.341 445.428 291.192 452.012C288.987 454.368 277.773 466.328 262.111 483C262.273 483 262.434 483 262.596 483Z" fill="#D38E2D"/>
<path opacity="0.6" d="M240.937 482.744C298.063 422.923 356.586 361.573 374.966 341.842C399.105 315.955 443.353 268.2 482.118 226.21C481.976 224.71 481.833 223.218 481.662 221.727C467.188 237.515 456.354 249.324 452.477 253.522C436.036 271.392 330.888 386.529 316.301 402.014C311.321 407.306 278.02 442.36 239.75 482.706C240.149 482.706 240.538 482.725 240.937 482.744Z" fill="#D38E2D"/>
<path opacity="0.6" d="M189.229 474.469C248.977 411.904 312.594 345.262 331.896 324.524C363.619 290.477 430.096 218.668 473.213 171.834C472.881 170.466 472.539 169.098 472.197 167.739C442.099 200.571 415.907 229.137 409.397 236.204C392.947 254.064 287.799 369.202 273.23 384.696C267.889 390.367 229.951 430.286 188.259 474.232C188.592 474.317 188.915 474.393 189.229 474.469Z" fill="#D38E2D"/>
<path opacity="0.6" d="M370.851 462.091C399.076 432.47 422.008 408.322 432.301 397.264C443.79 384.933 459.842 367.653 477.69 348.397C478.003 346.621 478.307 344.825 478.592 343.039C441.091 384.021 384.099 446.331 373.635 457.426C372.752 458.376 370.946 460.286 368.37 463.003C369.197 462.699 370.024 462.395 370.851 462.091Z" fill="#D38E2D"/>
<path opacity="0.6" d="M201.46 477.224C270.436 407.686 373.987 301.962 396.814 277.994C409.92 264.21 442.118 230.068 477.509 192.477C477.385 191.802 477.281 191.137 477.157 190.463C446.556 222.8 417.523 253.456 396.415 275.743C393.279 279.087 347.358 324.733 343.946 328.305C302.435 371.9 243.874 432.043 200.006 476.901C200.49 477.015 200.975 477.12 201.46 477.224Z" fill="#D38E2D"/>
<path opacity="0.6" d="M480.189 209.462C450.196 241.79 417.855 277.025 411.383 284.273C410.718 285.014 410.481 285.28 410.69 285.061C412.068 283.636 446.508 247.233 480.436 211.438C480.351 210.782 480.275 210.127 480.189 209.462Z" fill="#D38E2D"/>
<path opacity="0.6" d="M434.981 355.332C434.239 356.168 433.983 356.463 434.201 356.216C435.332 355.038 456.554 332.656 482.821 304.955C482.859 304.394 482.898 303.824 482.936 303.264C459.899 328.134 440.141 349.604 434.981 355.332Z" fill="#D38E2D"/>
<path opacity="0.6" d="M483.981 261.901C451.08 297.241 409.578 342.403 402.146 350.725C401.481 351.475 401.262 351.741 401.462 351.513C403.011 349.908 446.527 303.919 484 264.4C483.99 263.564 483.99 262.728 483.981 261.901Z" fill="#D38E2D"/>
<path opacity="0.6" d="M278.096 421.536C279.988 419.513 278.258 421.223 273.981 425.564C259.754 441.077 242.373 460.001 225.067 478.811C251.496 450.169 274.485 425.403 278.096 421.536Z" fill="#D38E2D"/>
<path opacity="0.6" d="M220.305 480.53C243.095 457.142 264.639 435.055 273.981 425.564C296.22 401.311 310.703 385.38 304.944 391.204C297.978 398.214 260.325 436.898 218.224 480.217C218.918 480.312 219.612 480.435 220.305 480.53Z" fill="#D38E2D"/>
<path opacity="0.6" d="M455.271 342.735C458.825 339.068 468.927 328.666 482.033 315.195C482.109 314.321 482.175 313.447 482.251 312.573C435.807 360.376 394.714 402.689 394.115 403.316L394.106 403.325C394.106 403.335 440.483 358.02 455.271 342.735Z" fill="#D38E2D"/>
<path opacity="0.6" d="M445.568 362.504C439.238 370.132 436.53 373.837 436.53 373.837C436.53 373.837 440.094 369.325 445.568 362.504Z" fill="#D38E2D"/>
<path opacity="0.6" d="M455.185 351.086C452.581 354.107 450.319 356.804 448.305 359.217C454.406 352.045 466.618 338.47 481.329 322.292C481.329 322.273 481.329 322.254 481.339 322.244C467.882 336.931 458.046 347.742 455.185 351.086Z" fill="#D38E2D"/>
<path opacity="0.6" d="M11.1135 117.998C38.7783 88.9099 62.8317 63.7259 74.1504 52.0316C76.4788 49.6092 78.389 47.6807 79.8621 46.1987C86.7046 39.3779 97.1965 28.6431 108.914 16.5498C107.128 17.3288 105.351 18.0888 103.573 18.8203C103.022 19.3902 102.461 19.9697 101.882 20.5587C83.863 39.1689 50.2015 74.6792 12.9287 114.16C12.3299 115.443 11.7217 116.716 11.1135 117.998Z" fill="#D38E2D"/>
<path opacity="0.6" d="M34.1691 387.403C69.9499 349.024 195.511 216.758 226.426 184.839C228.744 182.435 230.655 180.488 232.137 179.015C239.464 171.719 250.983 159.911 263.698 146.773C292.047 117.494 326.374 81.5186 334.025 73.3202C336.961 70.1663 351.435 54.6911 371.069 33.687C370.955 33.5825 370.851 33.4685 370.746 33.3545C338.52 67.1168 307.31 99.6062 295.573 111.728C285.68 121.95 275.958 131.744 266.721 140.664C263.736 143.543 259.469 147.865 254.147 153.385C213.985 194.87 96.0561 320.344 33.7129 386.548C33.8649 386.824 34.0075 387.118 34.1691 387.403Z" fill="#D38E2D"/>
<path opacity="0.6" d="M22.7458 92.8903C46.7422 67.7062 71.0523 42.2562 88.3392 24.2256C87.5599 24.4631 86.7616 24.6721 85.9633 24.8906C67.1653 44.6787 45.3737 67.6777 23.7627 90.5343C23.4301 91.3228 23.0784 92.1113 22.7458 92.8903Z" fill="#D38E2D"/>
<path opacity="0.6" d="M27.431 371.88C69.7218 327.212 147.318 245.932 168.121 224.443C169.946 222.534 171.476 220.966 172.674 219.788C178.594 213.908 187.86 204.408 198.096 193.816C220.885 170.285 248.512 141.348 254.651 134.755C257.968 131.202 281.85 105.762 310.551 75.2295C274.818 112.659 235.112 153.907 223.746 165.658C215.782 173.876 207.96 181.76 200.547 188.952C198.134 191.26 194.693 194.737 190.407 199.174C161.783 228.747 81.3066 313.922 27.222 371.158C27.2885 371.405 27.3645 371.643 27.431 371.88Z" fill="#D38E2D"/>
<path opacity="0.6" d="M359.979 22.667C343.804 39.8522 326.441 58.3103 310.56 75.2295C330.014 54.8429 348.289 35.5962 360.178 22.8665C360.112 22.8 360.045 22.7335 359.979 22.667Z" fill="#D38E2D"/>
<path opacity="0.6" d="M-5.47019 154.744C13.4513 134.119 28.0868 118.16 32.7245 113.134C43.7391 101.155 94.5545 45.5526 131.286 5.48242C129.356 6.5179 127.427 7.55338 125.498 8.57936C119.064 15.3812 113.866 20.9196 110.235 24.805C85.1175 51.7655 38.2176 102.39 -1.63076 145.557C-2.95176 148.597 -4.23473 151.656 -5.47019 154.744Z" fill="#D38E2D"/>
<path opacity="0.6" d="M46.6092 400.922C93.3571 349.851 173.472 262.452 185.56 249.324C202.011 231.454 307.168 116.317 321.737 100.832C325.833 96.4811 349.069 72.0191 378.473 41.0402C378.245 40.8027 378.016 40.5747 377.779 40.3467C327.287 93.2322 279.379 143.505 263.081 161.004C219.612 207.648 110.872 325.227 86.41 352.254C78.332 361.165 62.5466 379.186 44.9271 399.44C45.4783 399.934 46.039 400.437 46.6092 400.922Z" fill="#D38E2D"/>
<path opacity="0.6" d="M401.671 63.9443C377.199 91.0188 330.945 142.755 319.921 155.599C307.852 169.649 262.187 228.348 260.98 230.049C260.952 230.058 260.942 230.068 260.933 230.087C260.961 230.077 260.961 230.077 260.961 230.077C261.845 229.089 279.132 207.563 285.176 200.561C291.534 193.18 362.193 112.783 370.385 103.568C374.386 99.0462 388.898 82.4595 403.533 65.7778C402.906 65.1698 402.289 64.5618 401.671 63.9443Z" fill="#D38E2D"/>
<path opacity="0.6" d="M9.92554 310.16C10.3437 311.357 10.7618 312.545 11.1705 313.732C55.9892 264.808 109.142 206.831 118.817 196.333C135.258 178.455 240.415 63.3169 254.984 47.8322C258.776 43.8042 278.999 22.5056 305.343 -5.24333C304.963 -5.33832 304.592 -5.44282 304.222 -5.52832C256.286 44.6877 211.895 91.2843 196.328 108.004C152.849 154.658 44.1193 272.246 19.6572 299.264C17.1197 302.057 13.8125 305.771 9.92554 310.16Z" fill="#D38E2D"/>
<path opacity="0.6" d="M10.5148 174.721C5.24029 180.174 -4.20622 190.035 -15.9241 202.299C-15.9621 203.192 -15.9811 204.085 -16.0001 204.968C-5.88834 194.433 3.35859 184.81 11.142 176.716C13.4513 174.284 47.5785 141.605 50.078 139.011C97.0634 90.4672 174.137 14.0316 195.606 -7.20996C195.397 -7.20046 195.187 -7.19096 194.969 -7.17196C162.856 22.724 33.0286 151.465 10.5148 174.721Z" fill="#D38E2D"/>
<path opacity="0.6" d="M14.4587 324.021C36.6495 299.815 57.7473 276.845 73.029 260.182C75.2814 257.702 108.667 224.216 111.119 221.575C164.833 163.493 258.947 66.2051 258.947 66.2051C246.364 76.6834 96.4362 232.205 72.3543 258.225C62.8602 268.513 39.5005 294.134 13.8885 322.244C14.0881 322.833 14.2687 323.432 14.4587 324.021Z" fill="#D38E2D"/>
<path opacity="0.6" d="M-13.0445 176.603C20.503 140.627 66.0154 91.1138 73.8273 82.3645C74.4926 81.6235 74.7206 81.3575 74.5211 81.576C72.9055 83.2289 26.3857 132.409 -11.9041 172.774C-12.2937 174.038 -12.6739 175.32 -13.0445 176.603Z" fill="#D38E2D"/>
<path opacity="0.6" d="M19.7902 342.213C20.0753 343.315 20.3699 344.407 20.655 345.509C35.6516 328.799 48.6334 314.521 56.1888 306.589C84.8419 276.541 158.323 196.685 168.454 185.352C169.11 184.601 169.338 184.345 169.148 184.563C166.61 187.166 53.5658 306.703 35.1859 325.702C31.9927 328.989 26.5947 334.794 19.7902 342.213Z" fill="#D38E2D"/>
<path opacity="0.6" d="M169.357 -4.89168C169.338 -4.88218 169.328 -4.88218 169.3 -4.88218C136.247 28.8802 90.3445 75.7143 90.3445 75.7143C90.3445 75.7143 134.108 19.8363 150.369 -0.835255C149.361 -0.58826 148.354 -0.331765 147.337 -0.0657697C147.328 -0.0562701 147.318 -0.0467701 147.299 -0.0277705C116.242 40.2799 73.8653 93.6119 73.8653 93.6119C73.8653 93.6119 129.613 37.2115 171.372 -5.13867C170.697 -5.05317 170.032 -4.97718 169.357 -4.89168Z" fill="#D38E2D"/>
<path opacity="0.6" d="M94.7921 432.28C95.1342 432.47 95.4859 432.66 95.828 432.85C121.345 406.992 147.47 380.506 161.041 366.655C171.695 355.787 276.737 247.936 293.311 230.808C324.055 199.05 356.881 164.974 361.499 160.177L361.49 160.186C353.136 168.641 165.831 359.54 155.729 369.961C150.369 375.528 121.678 404.835 94.7921 432.28Z" fill="#D38E2D"/>
<path opacity="0.6" d="M87.7975 428.376C97.5576 415.94 105.997 405.196 109.199 401.149C118.665 389.217 278.857 217.366 288.294 206.792C297.712 196.181 335.973 150.126 335.973 150.126C335.973 150.126 302.796 187.033 283.456 209.167C264.136 231.283 132.55 367.491 101.521 407.818C96.6453 414.145 91.4849 420.804 86.2579 427.511C86.7711 427.806 87.2843 428.091 87.7975 428.376Z" fill="#D38E2D"/>
<path opacity="0.6" d="M146.197 341.463C138.803 349.081 103.336 385.57 71.1758 418.582C71.6795 418.886 72.1642 419.2 72.6679 419.504C134.07 356.339 206.535 281.699 207.342 280.882L207.352 280.863C207.361 280.863 160.975 326.187 146.197 341.463Z" fill="#D38E2D"/>
<path opacity="0.6" d="M155.89 321.693C162.22 314.064 164.938 310.359 164.938 310.359C164.938 310.359 161.364 314.872 155.89 321.693Z" fill="#D38E2D"/>
<path opacity="0.6" d="M109.589 373.467C97.5576 386.577 83.7395 401.615 69.8263 416.757C82.9127 402.555 96.8069 387.441 109.589 373.467Z" fill="#D38E2D"/>
<path opacity="0.6" d="M146.273 333.121C148.924 330.024 151.243 327.269 153.296 324.818C145.855 333.577 129.024 352.197 109.589 373.467C128.321 353.042 142.709 337.282 146.273 333.121Z" fill="#D38E2D"/>
<path opacity="0.6" d="M-0.290761 280.226C41.4963 236.166 94.526 180.924 110.654 164.252C120.547 154.03 130.269 144.236 139.506 135.306C142.49 132.437 146.767 128.105 152.079 122.586C175.981 97.9054 227.414 43.481 278.277 -10.4875C277.821 -10.5445 277.365 -10.611 276.899 -10.668C236.224 32.1952 195.615 74.8019 179.801 91.1321C177.482 93.545 175.582 95.483 174.09 96.965C166.762 104.27 155.235 116.069 142.519 129.217C114.179 158.486 79.8526 194.462 72.1927 202.66C67.6595 207.524 35.7752 241.638 -0.309769 280.207C-0.290762 280.207 -0.290761 280.216 -0.290761 280.226Z" fill="#D38E2D"/>
<path opacity="0.6" d="M53.5373 406.641C61.0641 398.604 68.6289 390.51 76.0416 382.597C67.9066 391.175 60.2563 399.278 53.4232 406.555C53.4517 406.584 53.4992 406.612 53.5373 406.641Z" fill="#D38E2D"/>
<path opacity="0.6" d="M390.229 52.6777C340.363 105.345 278.686 170.171 258.272 191.252C255.953 193.665 254.043 195.602 252.56 197.084C245.233 204.39 233.715 216.189 220.99 229.327C192.66 258.605 158.323 294.572 150.663 302.779C146.045 307.729 112.991 343.097 76.0321 382.597C118.123 338.185 172.702 281.329 189.105 264.362C198.998 254.14 208.72 244.356 217.958 235.426C220.933 232.547 225.219 228.225 230.531 222.715C259.85 192.439 330.584 117.419 390.903 53.3522C390.685 53.1242 390.457 52.8962 390.229 52.6777Z" fill="#D38E2D"/>
<path opacity="0.6" d="M287.609 -9.04297C245.423 35.5302 167.371 117.286 146.501 138.841C144.667 140.75 143.127 142.308 141.939 143.496C136.018 149.376 126.752 158.885 116.517 169.468C93.7277 193.009 66.1104 221.936 59.9616 228.528C56.6354 232.091 32.6865 257.607 3.9193 288.197C39.6906 250.73 79.4724 209.386 90.8671 197.626C98.8311 189.399 106.643 181.514 114.075 174.332C116.489 172.024 119.91 168.537 124.215 164.11C153.011 134.366 234.285 48.3264 288.37 -8.90047C288.123 -8.94797 287.866 -8.99547 287.609 -9.04297Z" fill="#D38E2D"/>
<path opacity="0.6" d="M193.771 313C209.414 295.758 227.566 275.714 243.798 257.797C221.408 282.059 200.975 304.403 194.921 311.632C194.541 312.088 194.161 312.544 193.771 313Z" fill="#D38E2D"/>
<path opacity="0.6" d="M155.026 355.551C155.719 354.829 159.929 350.544 165.983 344.065C173.481 336.105 183.774 324.847 193.771 313.001C174.147 334.632 158.485 351.846 155.558 354.943C155.358 355.19 155.178 355.389 155.026 355.551Z" fill="#D38E2D"/>
<path opacity="0.6" d="M412.714 74.9824C389.012 100.689 367.021 124.448 358.069 133.967C356.605 135.553 355.37 136.845 354.4 137.824C349.62 142.688 342.169 150.553 333.939 159.331C315.626 178.834 293.473 202.831 288.56 208.312C285.908 211.267 266.787 232.413 243.798 257.797C272.47 226.732 304.355 192.514 313.516 182.777C319.912 175.965 326.213 169.439 332.228 163.53C334.186 161.63 336.961 158.752 340.401 155.085C354.258 140.332 383.139 108.802 413.389 75.6854C413.17 75.4384 412.942 75.2104 412.714 74.9824Z" fill="#D38E2D"/>
<path opacity="0.6" d="M154.902 355.674C154.921 355.627 154.968 355.598 155.025 355.551C154.921 355.627 154.902 355.674 154.902 355.674Z" fill="#D38E2D"/>
<path opacity="0.6" d="M429.849 92.8809C387.254 137.862 311.226 217.49 290.679 238.722C288.845 240.631 287.305 242.189 286.108 243.367C280.178 249.248 270.921 258.757 260.686 269.349C237.896 292.88 210.279 321.817 204.14 328.4C200.814 331.963 176.865 357.47 148.107 388.069C183.878 350.601 223.66 309.258 235.045 297.497C243.019 289.271 250.821 281.386 258.262 274.204C260.667 271.886 264.098 268.409 268.393 263.982C296.79 234.647 376.23 150.564 430.305 93.3463C430.143 93.1944 429.991 93.0424 429.849 92.8809Z" fill="#D38E2D"/>
<path opacity="0.6" d="M102.557 436.518C117.601 420.529 133.471 403.648 148.107 388.078C130.601 406.413 114.075 423.816 102.29 436.375C102.376 436.413 102.471 436.47 102.557 436.518Z" fill="#D38E2D"/>
<path opacity="0.6" d="M-2.79019 272.351C58.0609 208.645 124.025 139.534 143.745 118.359C170.554 89.5841 222.177 33.8391 263.556 -11C261.978 -10.981 260.382 -10.9335 258.804 -10.886C240.196 9.40561 225.836 25.0613 221.246 30.0392C204.796 47.9084 99.6484 163.046 85.07 178.531C79.5959 184.345 39.8522 226.172 -3.0848 271.439C-2.98026 271.734 -2.88523 272.047 -2.79019 272.351Z" fill="#D38E2D"/>
<path opacity="0.6" d="M119.587 445.533C184.22 377.856 259.926 298.59 281.308 275.638C317.698 236.613 399.751 147.913 439.903 104.167C439.124 103.264 438.345 102.362 437.556 101.469C401.205 141.13 366.46 179.025 358.819 187.319C342.378 205.188 237.231 320.326 222.653 335.81C216.513 342.327 167.352 394.054 118.893 445.182C119.121 445.296 119.359 445.41 119.587 445.533Z" fill="#D38E2D"/>
<path opacity="0.6" d="M-14.6316 222.334C36.0888 169.211 84.3002 118.625 100.675 101.05C123.455 76.5879 164.187 32.6513 201.289 -7.52344C199.702 -7.43794 198.115 -7.35244 196.527 -7.26694C187.566 2.50837 180.999 9.65223 178.176 12.7207C161.735 30.5898 56.5879 145.728 42.0095 161.212C37.9135 165.563 14.6393 190.073 -14.8027 221.08C-14.7456 221.498 -14.6981 221.916 -14.6316 222.334Z" fill="#D38E2D"/>
<path opacity="0.6" d="M24.1428 359.598C91.5704 288.995 177.996 198.557 201.08 173.772C234.722 137.682 307.434 59.109 349.943 12.8924C349.088 12.0754 348.242 11.2584 347.396 10.4414C314.827 45.9612 285.528 77.9281 278.581 85.4615C262.14 103.34 156.983 218.468 142.405 233.953C135.648 241.135 76.6689 303.178 23.9337 358.838C24.0098 359.094 24.0858 359.341 24.1428 359.598Z" fill="#D38E2D"/>
<path opacity="0.6" d="M-12.2462 236.052C55.571 167.492 144.619 76.5216 165.593 54.5105C176.057 43.5097 198.704 19.5132 225.418 -8.84375C224.572 -8.78675 223.746 -8.72975 222.909 -8.67275C201.032 14.4403 180.913 35.6724 165.204 52.2686C162.068 55.622 116.137 101.269 112.725 104.831C76.8684 142.488 28.2769 192.514 -12.5788 234.352C-12.4743 234.922 -12.3603 235.492 -12.2462 236.052Z" fill="#D38E2D"/>
<path opacity="0.6" d="M245.471 -10.259C216.513 20.9954 186.378 53.8267 180.153 60.7996C179.478 61.5406 179.26 61.8161 179.459 61.5881C180.818 60.1916 214.223 24.8808 247.637 -10.373C246.915 -10.335 246.193 -10.297 245.471 -10.259Z" fill="#D38E2D"/>
<path opacity="0.6" d="M325.376 0.855469C291.002 37.0973 214.67 119.727 203.769 131.848C203.018 132.684 202.771 132.979 202.99 132.732C205.204 130.442 283.95 47.2811 327.41 1.61545C326.726 1.35896 326.051 1.10246 325.376 0.855469Z" fill="#D38E2D"/>
<path opacity="0.6" d="M419.661 82.0889C417.532 84.3783 415.574 86.4493 413.892 88.2163C381.884 121.789 299.612 210.821 288.256 223.446C287.505 224.273 287.258 224.567 287.467 224.32C289.852 221.86 380.763 125.864 421.077 83.5518C420.611 83.0673 420.136 82.5829 419.661 82.0889Z" fill="#D38E2D"/>
<path opacity="0.6" d="M295.687 -7.46582C290.698 -2.01293 286.421 2.58498 283.171 5.99542C254.518 36.0528 181.046 115.899 170.915 127.232C170.25 127.973 170.032 128.249 170.222 128.021C172.55 125.617 268.821 23.8266 298.244 -6.93383C297.398 -7.11433 296.543 -7.28532 295.687 -7.46582Z" fill="#D38E2D"/>
<path opacity="0.6" d="M-7.3614 256.648C19.5621 227.446 43.2069 201.986 46.8753 198.063C48.7665 196.03 47.0273 197.759 42.7317 202.119C28.1818 217.984 10.3342 237.401 -7.3614 256.648Z" fill="#D38E2D"/>
<path opacity="0.6" d="M-8.03614 254.092C13.6414 231.834 33.7794 211.2 42.7413 202.109C64.9795 177.837 79.4914 161.896 73.7133 167.71C66.9943 174.474 31.7362 210.716 -8.54933 252.154C-8.38777 252.81 -8.2072 253.446 -8.03614 254.092Z" fill="#D38E2D"/>
<path opacity="0.6" d="M214.347 139.03C208.008 146.659 205.299 150.354 205.299 150.354C205.299 150.354 208.863 145.842 214.347 139.03Z" fill="#D38E2D"/>
<path opacity="0.6" d="M301.332 42.959C287.514 57.9402 272.746 74.0044 259.317 88.7101C271.91 74.9734 286.583 59.0042 301.332 42.959Z" fill="#D38E2D"/>
<path opacity="0.6" d="M217.008 135.82C224.316 127.232 240.5 109.306 259.317 88.71C241.232 108.432 227.452 123.546 223.964 127.602C221.332 130.661 219.032 133.388 217.008 135.82Z" fill="#D38E2D"/>
<path opacity="0.6" d="M333.682 4.06641C269.391 70.1281 163.854 178.835 162.885 179.832L162.875 179.851C162.875 179.851 209.253 134.527 224.04 119.252C234.532 108.422 301.646 39.4057 335.479 4.78839C334.88 4.5414 334.281 4.3039 333.682 4.06641Z" fill="#D38E2D"/>
<path opacity="0.6" d="M336.163 5.06445C325.224 16.9772 313.259 29.9825 301.332 42.9687C314.523 28.662 326.84 15.3528 336.315 5.13095C336.258 5.10245 336.21 5.08345 336.163 5.06445Z" fill="#D38E2D"/>
<path opacity="0.6" d="M202.572 276.426C196.242 284.045 193.534 287.75 193.534 287.75C193.534 287.75 197.098 283.228 202.572 276.426ZM151.12 317.237C151.11 317.247 197.487 271.933 212.275 256.647C227.043 241.4 354.144 110.721 342.388 123.289C333.854 132.428 217.055 258.262 202.562 276.436C205.147 273.301 208.331 269.482 212.18 265.007C225.399 249.627 386.342 75.6949 369.235 92.956C352.233 110.065 152.46 315.85 151.12 317.237Z" fill="#D38E2D"/>
</g>
</g>
<defs>
<linearGradient id="paint0_linear_143_5898" x1="235.472" y1="-0.591892" x2="235.472" y2="469.383" gradientUnits="userSpaceOnUse">
<stop stop-color="#EDAD63"/>
<stop offset="1" stop-color="#DE8C1E"/>
</linearGradient>
</defs>
</svg>
