<svg width="181" height="181" viewBox="0 0 181 181" fill="none" xmlns="http://www.w3.org/2000/svg">
<path d="M92.5211 168.994C62.6018 168.994 36.1697 153.476 24.0065 129.132L20.7787 128.872C18.7696 128.709 16.9777 127.557 15.9943 125.795C13.9007 122.036 12.2717 118.127 11.1314 114.127C9.63515 113.143 8.48882 111.635 7.98805 109.825C6.76328 105.421 6.40732 100.932 6.92015 96.4851C7.14338 94.5545 7.53555 92.6238 8.08458 90.7535C8.60948 88.9616 9.78598 87.4653 11.3064 86.506C11.5417 85.7337 11.7951 84.9735 12.0666 84.2254C12.7906 82.2163 14.5282 80.7442 16.6217 80.352L19.1678 79.8754C23.8738 62.433 35.4216 48.4779 52.2425 39.8563L50.9635 36.556C44.8276 35.9708 39.6872 31.3915 38.4745 25.2435C37.2738 19.1257 40.1517 13.0562 45.636 10.118C46.0403 9.89474 46.4687 9.68961 46.897 9.51464C47.7598 9.15868 48.6648 8.88718 49.5818 8.70618C50.4808 8.53121 51.3979 8.44071 52.3029 8.44071C59.018 8.44071 64.8281 13.2251 66.1192 19.8196C66.801 23.3068 66.1373 26.8605 64.3575 29.8108L66.1192 34.3478C74.2159 31.9707 82.8496 30.7701 91.8634 30.764H91.9298C102.108 30.764 111.749 32.2784 120.679 35.2649L123.164 28.8394C121.379 25.8891 120.709 22.3415 121.391 18.8542C122.676 12.2477 128.492 7.45728 135.213 7.45728C136.118 7.45728 137.023 7.54778 137.916 7.71671C138.839 7.89771 139.744 8.16921 140.607 8.52518C141.041 8.70014 141.463 8.89924 141.874 9.12851C147.364 12.0667 150.248 18.1302 149.053 24.242C147.853 30.402 142.718 34.9813 136.583 35.5726L134.35 41.3405C149.518 49.9742 160.058 63.2596 164.553 79.447L167.413 79.984C169.512 80.3761 171.244 81.8483 171.974 83.8513C172.662 85.7398 173.229 87.6825 173.681 89.6494C174.719 90.5664 175.516 91.7671 175.926 93.1547C176.481 95.0251 176.873 96.9557 177.102 98.8864C177.621 103.333 177.271 107.822 176.053 112.226C175.443 114.434 173.881 116.196 171.89 117.107C170.876 119.949 169.615 122.736 168.119 125.433C167.141 127.195 165.349 128.353 163.34 128.516L160.245 128.769C154.713 140.36 145.995 150.128 134.845 157.168C122.609 164.897 107.991 168.994 92.5754 169C92.5754 168.994 92.5211 168.994 92.5211 168.994Z" fill="#3386C0"/>
<path d="M171.117 99.5807C170.912 97.8189 170.556 96.2382 170.152 94.8566C169.947 94.1567 169.265 93.7042 168.541 93.7706C168.481 93.7766 168.414 93.7826 168.354 93.7887C167.89 90.8142 167.147 88.1716 166.321 85.9091C164.095 85.4928 161.862 85.0765 159.636 84.6602C155.69 65.9991 143.473 52.0802 126.79 44.1947L132.613 29.1475C132.963 29.2682 133.325 29.3768 133.699 29.4492C138.067 30.2999 142.296 27.4522 143.147 23.084C143.841 19.5123 142.061 16.0371 139.008 14.4202C138.797 14.2995 138.58 14.1969 138.35 14.1064C137.856 13.9013 137.331 13.7384 136.782 13.6358C132.414 12.7851 128.184 15.6329 127.333 20.001C126.754 22.9875 127.901 25.9076 130.085 27.7297L124.166 43.0182C114.531 38.9396 103.55 36.7797 91.8876 36.7918C81.4138 36.7978 71.4829 38.5535 62.5898 41.8779L57.4735 28.7071C59.6515 26.885 60.7979 23.9589 60.2126 20.9724C59.3559 16.6042 55.1205 13.7625 50.7584 14.6193C50.2094 14.7279 49.6905 14.8847 49.1897 15.0959C48.9605 15.1864 48.7433 15.295 48.5321 15.4096C45.4792 17.0326 43.7054 20.5078 44.4053 24.0795C45.262 28.4477 49.4974 31.2894 53.8595 30.4326C54.2336 30.3602 54.5956 30.2516 54.9455 30.131L59.923 42.9337C41.6601 50.6021 28.2058 65.1665 24.1393 85.0765C22.0096 85.4747 19.8798 85.879 17.744 86.2772C17.1829 87.8217 16.664 89.5472 16.2417 91.4296C15.9883 91.4055 15.7409 91.3874 15.4875 91.3633C14.7575 91.2969 14.0818 91.7494 13.8766 92.4493C13.4724 93.8309 13.1164 95.4116 12.9173 97.1734C12.3985 101.662 13.0501 105.493 13.8042 108.208C14.0033 108.932 14.6972 109.409 15.4453 109.337C15.6806 109.312 15.9099 109.288 16.1452 109.27C17.4061 115.322 19.6988 120.058 21.2675 122.863C23.4636 123.038 25.6597 123.219 27.8559 123.394C27.8498 123.286 27.8498 123.171 27.8438 123.062C38.1849 147.401 63.4525 162.985 92.5694 162.967C121.735 162.949 146.314 147.286 156.263 122.863C156.263 122.924 156.257 122.984 156.257 123.038C158.453 122.857 160.65 122.676 162.846 122.495C164.167 120.118 166.001 116.371 167.298 111.611C167.733 111.653 168.167 111.696 168.607 111.738C169.356 111.81 170.043 111.334 170.249 110.61C170.997 107.901 171.642 104.069 171.117 99.5807Z" fill="url(#paint0_linear_430_3477)"/>
<path fill-rule="evenodd" clip-rule="evenodd" d="M18.293 91.6166C17.3579 91.5321 16.4227 91.4537 15.4875 91.3692C14.7575 91.3029 14.0818 91.7554 13.8766 92.4552C13.4724 93.8369 13.1164 95.4176 12.9173 97.1793C12.3985 101.668 13.0501 105.499 13.8042 108.214C14.0033 108.938 14.6972 109.415 15.4453 109.343C16.5494 109.234 17.6535 109.125 18.7516 109.017C18.4258 106.935 18.1603 104.661 18.0276 102.205C17.8164 98.2593 17.9733 94.6996 18.293 91.6166Z" fill="#F5ECE6"/>
<path fill-rule="evenodd" clip-rule="evenodd" d="M165.736 94.0235C166.671 93.939 167.606 93.8546 168.541 93.7701C169.265 93.7037 169.947 94.1562 170.152 94.8561C170.562 96.2377 170.912 97.8185 171.117 99.5802C171.642 104.069 170.991 107.9 170.242 110.615C170.043 111.339 169.356 111.816 168.601 111.743C167.497 111.635 166.393 111.526 165.289 111.424C165.615 109.342 165.874 107.068 166.001 104.606C166.218 100.666 166.061 97.1065 165.736 94.0235Z" fill="#F5ECE6"/>
<path fill-rule="evenodd" clip-rule="evenodd" d="M157.711 84.304C160.583 84.8409 163.449 85.3779 166.321 85.9149C167.316 88.654 168.203 91.9542 168.614 95.7311C169.953 108.057 165.416 117.879 162.846 122.501C160.65 122.682 158.453 122.863 156.257 123.044C156.74 110.127 157.229 97.2153 157.711 84.304Z" fill="url(#paint1_linear_430_3477)"/>
<path fill-rule="evenodd" clip-rule="evenodd" d="M26.3538 84.6602C23.4879 85.1971 20.616 85.7401 17.7502 86.2771C16.7547 89.0162 15.8738 92.3164 15.4696 96.0993C14.1483 108.425 18.6974 118.242 21.2676 122.857C23.4638 123.032 25.6599 123.213 27.856 123.388C27.3553 110.483 26.8545 97.5715 26.3538 84.6602Z" fill="url(#paint2_linear_430_3477)"/>
<path d="M161 98.0055C161.024 136.154 130.718 162.936 92.5756 162.966C54.4328 162.997 22.8845 136.245 22.8604 98.096C22.8302 59.9532 53.739 36.8154 91.8878 36.7913C130.037 36.7671 160.975 59.8567 161 98.0055Z" fill="#F5ECE6"/>
<path d="M91.9057 72.231C94.2281 72.231 96.1109 70.3483 96.1109 68.0258C96.1109 65.7033 94.2281 63.8206 91.9057 63.8206C89.5832 63.8206 87.7004 65.7033 87.7004 68.0258C87.7004 70.3483 89.5832 72.231 91.9057 72.231Z" fill="url(#paint3_linear_430_3477)"/>
<path fill-rule="evenodd" clip-rule="evenodd" d="M94.7656 68.0257C94.7656 69.6064 93.4865 70.8855 91.9118 70.8855C90.3311 70.8855 89.052 69.6064 89.052 68.0317C89.052 66.451 90.3311 65.1719 91.9058 65.1719C93.4865 65.1659 94.7656 66.4449 94.7656 68.0257Z" fill="#68C0EC"/>
<path d="M93.5769 72.0738C93.5769 72.0738 93.6674 72.0316 93.8243 71.9592C93.9811 71.8808 94.1983 71.7722 94.4397 71.6153C94.681 71.4584 94.9465 71.2593 95.1938 71.018C95.3205 70.8973 95.4352 70.7586 95.5438 70.6198C95.6343 70.4991 95.7791 70.3 95.8515 70.1613C95.942 70.0165 96.0264 69.8415 96.0868 69.6786C96.1531 69.5097 96.2135 69.3407 96.2557 69.1718C96.3462 68.8339 96.3945 68.5021 96.4186 68.2185C96.4608 67.6454 96.4307 67.2351 96.4307 67.2351C96.4307 67.2351 96.6418 67.5911 96.7263 68.2065C96.7746 68.5142 96.7806 68.8762 96.7203 69.2683C96.6841 69.4614 96.6479 69.6665 96.5755 69.8596C96.5031 70.0587 96.4246 70.2457 96.31 70.4388C96.1893 70.6439 96.0928 70.7646 95.948 70.9516C95.8153 71.1145 95.6584 71.2473 95.5076 71.374C95.1999 71.6213 94.868 71.7903 94.5784 71.8928C94.2888 72.0014 94.0354 72.0437 93.8544 72.0618C93.6795 72.0738 93.5769 72.0738 93.5769 72.0738Z" fill="white"/>
<path d="M117.342 141.53C120.649 140.547 123.895 139.388 127.074 138.055C127.871 137.723 128.661 137.379 129.439 137.023C130.218 136.661 131.008 136.311 131.78 135.925C132.558 135.551 133.325 135.165 134.091 134.767C134.863 134.38 135.611 133.958 136.372 133.548C137.12 133.119 137.874 132.709 138.61 132.263C139.352 131.828 140.088 131.382 140.818 130.923C141.554 130.477 142.266 129.994 142.99 129.53C143.702 129.047 144.42 128.57 145.12 128.07C147.937 126.097 150.64 123.961 153.235 121.704L153.162 121.837C153.524 119.472 153.76 117.089 153.874 114.7C153.935 113.505 153.959 112.311 153.953 111.116C153.947 110.519 153.935 109.921 153.923 109.324L153.886 108.437L153.82 107.538L153.693 105.74L153.627 104.841L153.518 103.954C153.361 102.772 153.259 101.583 153.03 100.413L152.722 98.645C152.631 98.0538 152.475 97.4746 152.354 96.8954L151.962 95.1457L151.497 93.4141C151.208 92.2557 150.833 91.1215 150.471 89.9812L150.2 89.1305L149.892 88.2918L149.277 86.6085C149.066 86.0474 148.83 85.5044 148.607 84.9494C148.378 84.4003 148.167 83.8392 147.913 83.3023C147.419 82.2163 146.942 81.1242 146.393 80.0624C145.88 78.9884 145.301 77.9386 144.734 76.8888C144.142 75.8511 143.563 74.8073 142.924 73.7998C142.308 72.7801 141.651 71.7846 140.993 70.7891L139.979 69.317L138.93 67.863L139.231 68.0621C135.816 67.2596 132.371 66.602 128.902 66.0831C127.171 65.8237 125.427 65.6005 123.689 65.4195C122.815 65.3229 121.94 65.2385 121.071 65.1661C120.202 65.0876 119.327 65.0333 118.453 64.967C114.953 64.7437 111.448 64.6653 107.949 64.7317C104.449 64.798 100.95 65.0092 97.4626 65.3652L98.09 64.3335C98.7778 66.053 98.9226 67.9836 98.452 69.7876L98.4038 69.9746L98.3555 70.1255C98.3193 70.228 98.3012 70.3185 98.259 70.4332C98.1745 70.6624 98.09 70.8917 97.9995 71.0968C97.8125 71.5192 97.5893 71.9355 97.3419 72.3216C96.8351 73.0999 96.2137 73.7998 95.4836 74.385L94.4761 73.124C95.0673 72.6534 95.5922 72.0863 96.0146 71.4528C96.2257 71.133 96.4067 70.8012 96.5636 70.4573C96.6481 70.2823 96.7084 70.1134 96.7748 69.9505C96.8049 69.866 96.8411 69.7514 96.8713 69.6549L96.9196 69.504L96.9497 69.3834C97.354 67.9173 97.2514 66.3064 96.6963 64.8885L96.3283 63.9473L97.3178 63.8568C100.847 63.5371 104.389 63.3621 107.924 63.3319C111.466 63.3018 115.008 63.4224 118.537 63.6819C119.418 63.7543 120.299 63.8206 121.186 63.9111C122.073 63.9956 122.947 64.0861 123.822 64.1947C125.584 64.3938 127.334 64.6412 129.083 64.9187C132.577 65.4798 136.046 66.1797 139.479 67.0243L139.672 67.0726L139.78 67.2295L140.824 68.7076L141.838 70.2099C142.495 71.2235 143.147 72.2371 143.762 73.2809C144.396 74.3066 144.969 75.3745 145.56 76.4243C146.121 77.4922 146.695 78.5601 147.201 79.6521C147.744 80.7321 148.215 81.8422 148.704 82.9463C148.957 83.4953 149.162 84.0625 149.391 84.6236C149.609 85.1847 149.844 85.7397 150.049 86.3069L150.652 88.0143L150.954 88.865L151.22 89.7278C151.576 90.8801 151.938 92.0325 152.221 93.203L152.674 94.9526L153.048 96.7204C153.162 97.3116 153.319 97.8969 153.404 98.4942L153.693 100.28C153.91 101.463 154.007 102.675 154.152 103.876L154.254 104.775L154.315 105.674L154.423 107.472L154.478 108.371L154.502 109.282C154.514 109.885 154.52 110.488 154.514 111.092C154.508 112.298 154.472 113.499 154.399 114.706C154.26 117.113 153.989 119.508 153.603 121.885L153.591 121.964L153.53 122.018C150.9 124.257 148.167 126.374 145.313 128.323C144.607 128.818 143.883 129.288 143.159 129.765C142.429 130.223 141.711 130.7 140.969 131.141C140.233 131.593 139.491 132.033 138.743 132.462C138.001 132.896 137.24 133.307 136.48 133.723C135.714 134.121 134.96 134.537 134.187 134.917C133.421 135.31 132.643 135.69 131.865 136.052C131.086 136.432 130.296 136.77 129.512 137.126C128.721 137.476 127.931 137.813 127.128 138.133C123.919 139.461 120.655 140.583 117.342 141.53Z" fill="#D4C6BD"/>
<path d="M154.64 114.41C154.64 114.41 154.658 113.632 154.652 112.281C154.646 110.923 154.586 108.986 154.411 106.676C154.326 105.529 154.158 104.268 154.019 102.947C153.928 102.289 153.814 101.62 153.711 100.926C153.657 100.582 153.608 100.232 153.554 99.8821C153.488 99.5322 153.421 99.1822 153.355 98.8263C153.216 98.1143 153.09 97.3903 152.933 96.6603C152.764 95.9363 152.589 95.2002 152.42 94.4581C152.245 93.716 152.022 92.986 151.823 92.2439C151.63 91.5018 151.388 90.7657 151.153 90.0297C150.93 89.2936 150.7 88.5515 150.435 87.8275C150.176 87.1035 149.946 86.3735 149.657 85.6676C149.379 84.9617 149.114 84.2497 148.83 83.5619C148.534 82.8741 148.245 82.1984 147.961 81.5347C147.352 80.2195 146.779 78.9404 146.175 77.7579C145.886 77.1606 145.584 76.5874 145.289 76.0384C144.993 75.4833 144.721 74.9463 144.426 74.4456C144.142 73.9388 143.871 73.4561 143.605 72.9915C143.34 72.533 143.08 72.1046 142.845 71.6944C142.368 70.8799 141.922 70.186 141.566 69.6068C140.836 68.4665 140.414 67.8149 140.414 67.8149C140.414 67.8149 140.528 67.9718 140.739 68.2674C140.951 68.5631 141.27 68.9914 141.65 69.5525C142.024 70.1197 142.501 70.7894 143.008 71.5918C143.261 71.99 143.533 72.4123 143.822 72.8588C144.094 73.3113 144.384 73.794 144.679 74.2947C144.981 74.7895 145.276 75.3264 145.584 75.8694C145.892 76.4185 146.212 76.9796 146.513 77.5769C147.147 78.7534 147.762 80.0204 148.378 81.3417C148.667 82.0114 148.969 82.6871 149.264 83.3749C149.554 84.0627 149.826 84.7746 150.115 85.4866C150.411 86.1925 150.646 86.9285 150.912 87.6586C151.183 88.3826 151.418 89.1247 151.648 89.8668C151.877 90.6089 152.112 91.351 152.305 92.1051C152.498 92.8533 152.722 93.5954 152.891 94.3435C153.059 95.0916 153.228 95.8337 153.391 96.5638C153.548 97.2998 153.663 98.0299 153.802 98.7478C153.868 99.1038 153.928 99.4598 153.995 99.8157C154.043 100.172 154.091 100.522 154.139 100.872C154.23 101.565 154.326 102.247 154.399 102.911C154.507 104.238 154.646 105.487 154.707 106.658C154.833 108.986 154.791 110.929 154.755 112.287C154.707 113.632 154.64 114.41 154.64 114.41Z" fill="white"/>
<path d="M138.851 67.9955C138.851 67.9955 138.224 67.8869 137.132 67.6999C136.039 67.5068 134.471 67.2655 132.594 66.9759C131.653 66.8371 130.634 66.6923 129.554 66.5535C128.474 66.4268 127.333 66.2881 126.157 66.1493C124.974 66.0105 123.762 65.8838 122.519 65.7813C121.276 65.6666 120.015 65.5701 118.754 65.4917C117.493 65.4012 116.226 65.3227 114.983 65.2684C113.74 65.2081 112.516 65.1659 111.327 65.1417C110.138 65.1176 108.992 65.0935 107.906 65.0874C106.82 65.0754 105.788 65.0814 104.841 65.0935C102.941 65.1176 101.36 65.1538 100.25 65.19C99.1396 65.2262 98.5061 65.2503 98.5061 65.2503C98.5061 65.2503 99.1396 65.19 100.244 65.0874C101.348 65.003 102.935 64.8642 104.835 64.7918C105.788 64.7556 106.82 64.7194 107.906 64.6953C108.998 64.6711 110.15 64.653 111.339 64.6772C112.528 64.6892 113.758 64.7194 115.007 64.7677C116.256 64.8099 117.523 64.8763 118.79 64.9607C120.057 65.0512 121.324 65.1598 122.567 65.2865C123.81 65.4072 125.035 65.546 126.217 65.6968C128.582 65.9864 130.772 66.3605 132.649 66.6923C134.525 67.0241 136.07 67.3741 137.156 67.6094C138.242 67.8386 138.851 67.9955 138.851 67.9955Z" fill="white"/>
<path d="M66.5779 141.566C63.2656 140.625 59.9956 139.503 56.7979 138.206C55.9955 137.88 55.2051 137.548 54.4147 137.198C53.6304 136.842 52.84 136.504 52.0617 136.13C51.2774 135.768 50.5051 135.388 49.7329 134.996C48.9546 134.616 48.2004 134.199 47.4342 133.801C46.68 133.385 45.9198 132.975 45.1717 132.54C44.4235 132.112 43.6814 131.678 42.9454 131.225C42.2033 130.785 41.4793 130.308 40.7492 129.849C40.0313 129.373 39.3012 128.902 38.5953 128.414C35.7416 126.471 33.0024 124.353 30.3719 122.121L30.3116 122.066L30.2995 121.988C29.9073 119.611 29.6358 117.216 29.4971 114.808C29.4247 113.608 29.3824 112.401 29.3764 111.194C29.3704 110.591 29.3764 109.988 29.3885 109.384L29.4126 108.473L29.4669 107.574L29.5755 105.776L29.6298 104.877L29.7263 103.979C29.8711 102.778 29.9616 101.571 30.1788 100.383L30.4684 98.5968C30.5529 97.9995 30.7037 97.4143 30.8244 96.823L31.1985 95.0492L31.651 93.2935C31.9345 92.117 32.2965 90.9707 32.6465 89.8123L32.9119 88.9495L33.2136 88.0928L33.8109 86.3853C34.016 85.8182 34.2513 85.2631 34.4685 84.696C34.6978 84.1349 34.8969 83.5678 35.1503 83.0187C35.633 81.9146 36.1096 80.8045 36.6466 79.7245C37.1534 78.6265 37.7265 77.5646 38.2816 76.4967C38.8668 75.4409 39.44 74.379 40.0735 73.3473C40.6829 72.3035 41.3405 71.2899 41.9921 70.2763L42.9997 68.774L44.0434 67.2898L44.152 67.133L44.3451 67.0847C47.7781 66.234 51.2472 65.5281 54.7405 64.961C56.4902 64.6774 58.2399 64.43 60.0016 64.2309C60.8764 64.1284 61.7513 64.0318 62.6382 63.9474C63.519 63.8569 64.3999 63.7905 65.2868 63.7181C68.8163 63.4526 72.3579 63.3259 75.8994 63.3501C79.441 63.3742 82.9826 63.5492 86.5121 63.8629L87.5015 63.9534L87.1395 64.8946C86.5905 66.3185 86.4879 67.9294 86.8922 69.3894L86.9223 69.5101L86.9706 69.6609C87.0007 69.7575 87.0369 69.8721 87.0671 69.9566C87.1335 70.1255 87.1938 70.2884 87.2783 70.4634C87.4352 70.8073 87.6222 71.1451 87.8273 71.4589C88.2497 72.0924 88.7745 72.6595 89.3658 73.1301L88.3582 74.3911C87.6282 73.8058 87.0068 73.106 86.5 72.3277C86.2466 71.9355 86.0294 71.5252 85.8363 71.1029C85.7398 70.8978 85.6553 70.6685 85.5709 70.4392C85.5286 70.3246 85.5045 70.2341 85.4743 70.1315L85.426 69.9807L85.3778 69.7937C84.9011 67.9897 85.046 66.059 85.7338 64.3395L86.3612 65.3652C82.88 65.0153 79.3807 64.8101 75.8753 64.7438C72.376 64.6834 68.8706 64.7679 65.3713 64.9972C64.4964 65.0635 63.6216 65.1178 62.7528 65.1963C61.884 65.2687 61.0092 65.3531 60.1343 65.4497C58.3967 65.6307 56.6531 65.8599 54.9215 66.1194C51.4524 66.6382 48.0073 67.3019 44.5985 68.1104L44.9002 67.9052L43.8564 69.3593L42.8368 70.8495C42.1791 71.845 41.5215 72.8405 40.9061 73.8662C40.2726 74.8737 39.6934 75.9235 39.1021 76.9552C38.541 78.005 37.9618 79.0548 37.449 80.1288C36.906 81.1906 36.4233 82.2827 35.9346 83.3747C35.6812 83.9117 35.4701 84.4728 35.2408 85.0278C35.0176 85.5829 34.7823 86.1319 34.5711 86.687L33.9617 88.3703L33.654 89.215L33.3825 90.0657C33.0205 91.206 32.6525 92.3402 32.3569 93.4986L31.8923 95.2302L31.5062 96.9799C31.3855 97.5651 31.2286 98.1443 31.1381 98.7356L30.8365 100.503C30.6072 101.68 30.5046 102.862 30.3478 104.045L30.2392 104.932L30.1728 105.831L30.0461 107.629L29.9858 108.528L29.9556 109.415C29.9375 110.012 29.9254 110.609 29.9254 111.206C29.9194 112.401 29.9496 113.596 30.0039 114.79C30.1185 117.179 30.3659 119.563 30.7279 121.928L30.6555 121.795C33.2558 124.045 35.9588 126.181 38.7824 128.154C39.4822 128.655 40.2002 129.125 40.9121 129.608C41.6361 130.073 42.3481 130.555 43.0841 131.002C43.8142 131.46 44.5502 131.907 45.2923 132.341C46.0284 132.782 46.7886 133.198 47.5367 133.62C48.2969 134.025 49.0451 134.447 49.8173 134.833C50.5836 135.231 51.3498 135.617 52.1281 135.985C52.9004 136.371 53.6847 136.715 54.469 137.077C55.2534 137.433 56.0437 137.777 56.8401 138.109C60.0197 139.436 63.2717 140.589 66.5779 141.566Z" fill="#D4C6BD"/>
<path d="M29.2374 114.489C29.2374 114.489 29.1711 113.717 29.1228 112.359C29.0806 111.002 29.0383 109.059 29.165 106.73C29.2193 105.559 29.3581 104.311 29.4667 102.983C29.5391 102.32 29.6356 101.638 29.7261 100.944C29.7744 100.594 29.8227 100.244 29.8649 99.8881C29.9252 99.5382 29.9916 99.1822 30.058 98.8202C30.1907 98.1023 30.3114 97.3722 30.4682 96.6362C30.6311 95.9061 30.8001 95.164 30.969 94.4159C31.1379 93.6678 31.3551 92.9257 31.5482 92.1775C31.7352 91.4234 31.9705 90.6813 32.1998 89.9392C32.4291 89.1971 32.6644 88.455 32.9359 87.731C33.2013 87.007 33.4366 86.2649 33.7323 85.559C34.0158 84.847 34.2873 84.1411 34.5769 83.4473C34.8786 82.7595 35.1742 82.0777 35.4638 81.4141C36.0732 80.0928 36.6886 78.8258 37.3221 77.6432C37.6238 77.0459 37.9435 76.4788 38.2512 75.9358C38.5589 75.3867 38.8485 74.8558 39.1502 74.355C39.4458 73.8543 39.7354 73.3776 40.0069 72.9191C40.2905 72.4726 40.562 72.0503 40.8214 71.6521C41.3282 70.8497 41.8049 70.18 42.1789 69.6128C42.5651 69.0517 42.8788 68.6234 43.09 68.3277C43.3011 68.0321 43.4158 67.8752 43.4158 67.8752C43.4158 67.8752 42.9995 68.5268 42.2694 69.6732C41.9195 70.2524 41.467 70.9402 40.9964 71.7607C40.7551 72.1649 40.5017 72.5993 40.2362 73.0579C39.9768 73.5164 39.7053 74.0051 39.4217 74.5119C39.1321 75.0127 38.8546 75.5496 38.565 76.1047C38.2693 76.6598 37.9677 77.2269 37.6841 77.8303C37.0868 79.0188 36.5076 80.2919 35.9043 81.6132C35.6207 82.2768 35.3311 82.9586 35.0415 83.6404C34.7579 84.3282 34.4985 85.0401 34.221 85.746C33.9314 86.4519 33.7081 87.1819 33.4487 87.9059C33.1832 88.6299 32.96 89.366 32.7368 90.1081C32.5015 90.8442 32.2662 91.5802 32.0731 92.3223C31.874 93.0644 31.6508 93.8005 31.4818 94.5426C31.3069 95.2847 31.1379 96.0208 30.969 96.7448C30.8121 97.4748 30.6854 98.1988 30.5467 98.9107C30.4803 99.2667 30.4139 99.6166 30.3476 99.9666C30.2933 100.316 30.245 100.666 30.1907 101.01C30.0881 101.698 29.9735 102.368 29.883 103.032C29.7503 104.353 29.5753 105.614 29.4969 106.76C29.3219 109.071 29.2616 111.008 29.2616 112.365C29.2193 113.717 29.2374 114.489 29.2374 114.489Z" fill="white"/>
<path d="M44.9604 68.056C44.9604 68.056 45.5759 67.8992 46.6558 67.6518C47.7418 67.4165 49.2864 67.0666 51.1627 66.7287C53.0391 66.3969 55.2292 66.0168 57.5882 65.7272C58.7647 65.5763 59.9955 65.4376 61.2384 65.3169C62.4812 65.1902 63.7482 65.0816 65.0152 64.9851C66.2822 64.9006 67.5492 64.8342 68.7981 64.792C70.047 64.7437 71.2778 64.7136 72.4664 64.6955C73.655 64.6713 74.8073 64.6894 75.8994 64.7075C76.9914 64.7256 78.0231 64.7618 78.9703 64.798C80.8708 64.8704 82.4576 65.0092 83.5617 65.0876C84.6658 65.1902 85.2993 65.2505 85.2993 65.2505C85.2993 65.2505 84.6658 65.2324 83.5557 65.1962C82.4455 65.16 80.8648 65.1299 78.9643 65.1057C78.0171 65.0997 76.9854 65.0937 75.8994 65.1057C74.8134 65.1178 73.661 65.1419 72.4785 65.1661C71.2899 65.1902 70.0651 65.2324 68.8223 65.2988C67.5794 65.3591 66.3124 65.4315 65.0514 65.5281C63.7905 65.6065 62.5235 65.703 61.2866 65.8177C60.0438 65.9263 58.8311 66.059 57.6486 66.1917C56.4721 66.3365 55.3317 66.4693 54.2518 66.602C53.1718 66.7408 52.1522 66.8856 51.217 67.0304C49.3407 67.32 47.772 67.5613 46.68 67.7604C45.5879 67.9474 44.9604 68.056 44.9604 68.056Z" fill="white"/>
<path fill-rule="evenodd" clip-rule="evenodd" d="M63.6395 52.0497C58.0406 54.5596 52.7071 59.1147 53.3889 60.5326C53.5095 60.7799 54.0887 61.5039 60.2789 60.1464C69.9202 58.0348 83.4047 53.015 82.8134 50.5957C82.3187 48.5866 72.0681 48.2728 63.6395 52.0497Z" fill="#D4C6BD"/>
<path fill-rule="evenodd" clip-rule="evenodd" d="M64.0559 53.6963C59.8506 55.5847 55.8385 59.0056 56.3513 60.0675C56.4418 60.2545 56.8762 60.7975 61.5279 59.7779C68.7739 58.1911 78.9099 54.4203 78.4635 52.6043C78.0954 51.0899 70.3909 50.8546 64.0559 53.6963Z" fill="url(#paint4_linear_430_3477)"/>
<path fill-rule="evenodd" clip-rule="evenodd" d="M123.979 51.5662C129.578 54.0701 134.917 58.6132 134.242 60.031C134.121 60.2784 133.548 61.0024 127.352 59.6569C117.71 57.5573 104.22 52.5557 104.805 50.1363C105.288 48.1272 115.538 47.8014 123.979 51.5662Z" fill="#D4C6BD"/>
<path fill-rule="evenodd" clip-rule="evenodd" d="M123.562 53.2138C127.774 55.0962 131.786 58.5111 131.273 59.579C131.183 59.766 130.748 60.309 126.09 59.2954C118.844 57.7147 108.702 53.962 109.143 52.1399C109.517 50.6316 117.221 50.3842 123.562 53.2138Z" fill="url(#paint5_linear_430_3477)"/>
<path d="M119.502 55.0663L122.181 56.098L134.392 24.5497L131.714 23.512L119.502 55.0663Z" fill="url(#paint6_linear_430_3477)"/>
<path d="M135.237 29.5936C139.686 29.5936 143.292 25.9875 143.292 21.5391C143.292 17.0907 139.686 13.4846 135.237 13.4846C130.789 13.4846 127.183 17.0907 127.183 21.5391C127.183 25.9875 130.789 29.5936 135.237 29.5936Z" fill="#F5ECE6"/>
<path d="M136.317 24.7064C139.353 24.7064 141.814 22.2456 141.814 19.21C141.814 16.1744 139.353 13.7136 136.317 13.7136C133.282 13.7136 130.821 16.1744 130.821 19.21C130.821 22.2456 133.282 24.7064 136.317 24.7064Z" fill="#FCF6F0"/>
<path d="M135.659 20.0848C137.632 20.0848 139.231 18.6586 139.231 16.8992C139.231 15.1399 137.632 13.7136 135.659 13.7136C133.687 13.7136 132.088 15.1399 132.088 16.8992C132.088 18.6586 133.687 20.0848 135.659 20.0848Z" fill="white"/>
<path d="M68.0922 56.0314L65.4134 57.0631L53.1597 25.5268L55.8385 24.4951L68.0922 56.0314Z" fill="url(#paint7_linear_430_3477)"/>
<path d="M52.3089 30.5831C56.7573 30.5831 60.3634 26.977 60.3634 22.5286C60.3634 18.0802 56.7573 14.4741 52.3089 14.4741C47.8605 14.4741 44.2544 18.0802 44.2544 22.5286C44.2544 26.977 47.8605 30.5831 52.3089 30.5831Z" fill="#F5ECE6"/>
<path d="M51.229 25.6959C54.2646 25.6959 56.7254 23.2351 56.7254 20.1995C56.7254 17.1639 54.2646 14.7031 51.229 14.7031C48.1935 14.7031 45.7327 17.1639 45.7327 20.1995C45.7327 23.2351 48.1935 25.6959 51.229 25.6959Z" fill="#FCF6F0"/>
<path d="M51.8806 21.0743C53.8532 21.0743 55.4523 19.6481 55.4523 17.8887C55.4523 16.1294 53.8532 14.7031 51.8806 14.7031C49.908 14.7031 48.3088 16.1294 48.3088 17.8887C48.3088 19.6481 49.908 21.0743 51.8806 21.0743Z" fill="white"/>
<path fill-rule="evenodd" clip-rule="evenodd" d="M148.595 95.8756C147.72 90.4155 146.35 84.6838 143.08 80.1105C139.593 75.2356 134.682 73.0153 128.83 72.587C121.891 72.0802 114.941 72.955 107.997 73.6006C106.717 78.0351 100.014 81.4258 91.9117 81.4318C84.1588 81.4379 77.679 78.3428 76.0078 74.1858C66.9397 73.2989 54.1611 72.6895 46.0885 76.5388C45.7386 76.7077 45.3947 76.9008 45.0628 77.112C40.0431 80.3579 37.2919 88.696 35.9042 94.0415C33.9615 101.523 32.9539 110.072 34.0218 117.777C34.951 124.48 41.5997 128.063 47.1262 131.581C59.2351 139.285 73.3049 143.937 87.6461 144.8C107.236 145.976 127.17 140.076 142.96 128.425C153.874 120.377 150.501 107.785 148.595 95.8756Z" fill="url(#paint8_linear_430_3477)"/>
<path fill-rule="evenodd" clip-rule="evenodd" d="M145.699 96.5331C144.872 91.3504 143.569 85.9144 140.468 81.5764C137.162 76.9549 132.504 74.8432 126.947 74.439C120.365 73.9563 113.771 74.7889 107.182 75.3983C105.969 79.6035 99.6103 82.8193 91.9238 82.8253C84.5692 82.8314 78.4212 79.8931 76.8345 75.9534C68.2309 75.1147 56.11 74.5355 48.4476 78.1857C48.1158 78.3426 47.79 78.5296 47.4702 78.7287C42.7099 81.8057 40.0975 89.7154 38.7822 94.7894C36.936 101.885 35.9828 109.999 36.9964 117.306C37.8772 123.665 44.1821 127.062 49.4311 130.404C60.9246 137.717 74.2703 142.127 87.8755 142.941C106.458 144.058 125.379 138.459 140.359 127.406C150.707 119.78 147.509 107.827 145.699 96.5331Z" fill="#051F28"/>
<path fill-rule="evenodd" clip-rule="evenodd" d="M104.739 148.933C104.769 149.47 104.805 150.007 104.835 150.544C103.991 151.032 103.044 151.515 101.994 151.967C99.496 153.041 97.1671 153.584 95.2606 153.868C95.2002 154.435 95.1339 155.008 95.0735 155.575C94.3495 155.865 93.4928 156.142 92.5154 156.336C90.265 156.776 88.3283 156.589 87.013 156.342C86.8561 155.678 86.6932 155.014 86.5364 154.351C85.2513 154.369 83.8214 154.32 82.2708 154.164C80.9254 154.025 79.6885 153.826 78.5724 153.596C78.3491 152.619 78.1259 151.636 77.9087 150.658C80.6659 150.737 83.5438 150.743 86.5364 150.652C93.1428 150.453 99.2365 149.807 104.739 148.933Z" fill="#D6C9C1"/>
<path fill-rule="evenodd" clip-rule="evenodd" d="M105.686 147.889C103.224 148.342 100.534 148.692 97.6255 148.843C88.316 149.337 80.4305 147.66 74.6747 145.826C74.6143 146.544 74.6143 147.714 75.0548 149.048C75.6581 150.876 76.7562 152.028 77.3354 152.553C80.4546 153.259 84.8409 153.88 90.0416 153.494C96.9256 152.975 102.283 150.906 105.589 149.313C105.626 148.843 105.656 148.366 105.686 147.889Z" fill="url(#paint9_linear_430_3477)"/>
<path fill-rule="evenodd" clip-rule="evenodd" d="M99.9061 149.029C97.2816 149.832 93.6194 150.652 89.197 150.713C83.8635 150.791 79.5255 149.741 76.6476 148.8C76.539 148.106 76.4365 147.412 76.3279 146.725C78.9282 147.449 81.8725 148.1 85.1184 148.559C90.7657 149.355 95.7854 149.343 99.9061 149.029Z" fill="#CDE8FF"/>
<path d="M65.3891 126.307C70.1674 126.307 74.0409 118.05 74.0409 107.864C74.0409 97.6773 70.1674 89.4197 65.3891 89.4197C60.6108 89.4197 56.7373 97.6773 56.7373 107.864C56.7373 118.05 60.6108 126.307 65.3891 126.307Z" fill="url(#paint10_linear_430_3477)"/>
<path d="M65.1538 100.871C67.5063 100.871 69.4134 98.9636 69.4134 96.6111C69.4134 94.2586 67.5063 92.3516 65.1538 92.3516C62.8013 92.3516 60.8943 94.2586 60.8943 96.6111C60.8943 98.9636 62.8013 100.871 65.1538 100.871Z" fill="white"/>
<path d="M72.2067 108.545H69.4012C69.4012 108.545 69.184 117.824 66.113 118.398C63.0421 118.971 61.6665 109.348 61.6665 109.348L58.3421 109.577C58.3421 109.577 58.2396 125.04 65.3951 124.926C72.5566 124.817 72.2067 108.545 72.2067 108.545Z" fill="#54FCFF"/>
<path d="M117.234 95.5193C113.475 99.2841 109.716 103.049 105.957 106.808C105.414 107.351 104.871 107.894 104.328 108.437C103.079 109.686 103.303 111.465 104.901 112.286C109.746 114.766 114.585 117.251 119.43 119.731C120.516 120.286 121.934 119.532 122.356 118.476C122.845 117.257 122.187 116.105 121.101 115.55C116.256 113.07 111.417 110.585 106.573 108.105C106.766 109.39 106.953 110.669 107.146 111.954C110.905 108.189 114.663 104.424 118.422 100.666C118.965 100.123 119.508 99.5797 120.051 99.0367C120.908 98.18 121.216 96.8888 120.395 95.8692C119.701 94.9944 118.096 94.6505 117.234 95.5193Z" fill="url(#paint11_linear_430_3477)"/>
<defs>
<linearGradient id="paint0_linear_430_3477" x1="20.5299" y1="88.2239" x2="156.39" y2="88.2239" gradientUnits="userSpaceOnUse">
<stop stop-color="#08529C"/>
<stop offset="0.1548" stop-color="#1B69AC"/>
<stop offset="0.5461" stop-color="#479ED2"/>
<stop offset="0.8397" stop-color="#63BFE9"/>
<stop offset="1" stop-color="#6DCCF2"/>
</linearGradient>
<linearGradient id="paint1_linear_430_3477" x1="169.911" y1="104.158" x2="153.705" y2="103.545" gradientUnits="userSpaceOnUse">
<stop stop-color="#6DCCF2"/>
<stop offset="1" stop-color="#08529C"/>
</linearGradient>
<linearGradient id="paint2_linear_430_3477" x1="15.2328" y1="104.034" x2="27.8452" y2="104.026" gradientUnits="userSpaceOnUse">
<stop stop-color="#6DCCF2"/>
<stop offset="1" stop-color="#08529C"/>
</linearGradient>
<linearGradient id="paint3_linear_430_3477" x1="87.7058" y1="68.0302" x2="96.1111" y2="68.0246" gradientUnits="userSpaceOnUse">
<stop stop-color="#6DCCF2"/>
<stop offset="1" stop-color="#08529C"/>
</linearGradient>
<linearGradient id="paint4_linear_430_3477" x1="56.3061" y1="55.947" x2="78.4842" y2="55.9322" gradientUnits="userSpaceOnUse">
<stop stop-color="#6DCCF2"/>
<stop offset="1" stop-color="#08529C"/>
</linearGradient>
<linearGradient id="paint5_linear_430_3477" x1="109.136" y1="55.4706" x2="131.314" y2="55.4558" gradientUnits="userSpaceOnUse">
<stop stop-color="#6DCCF2"/>
<stop offset="1" stop-color="#08529C"/>
</linearGradient>
<linearGradient id="paint6_linear_430_3477" x1="119.491" y1="39.8113" x2="134.402" y2="39.8014" gradientUnits="userSpaceOnUse">
<stop stop-color="#6DCCF2"/>
<stop offset="1" stop-color="#08529C"/>
</linearGradient>
<linearGradient id="paint7_linear_430_3477" x1="68.0798" y1="40.7741" x2="53.1689" y2="40.784" gradientUnits="userSpaceOnUse">
<stop stop-color="#6DCCF2"/>
<stop offset="1" stop-color="#08529C"/>
</linearGradient>
<linearGradient id="paint8_linear_430_3477" x1="76.0333" y1="67.7625" x2="106.783" y2="143.377" gradientUnits="userSpaceOnUse">
<stop stop-color="#6DCCF2"/>
<stop offset="1" stop-color="#08529C"/>
</linearGradient>
<linearGradient id="paint9_linear_430_3477" x1="90.1674" y1="145.884" x2="90.1728" y2="153.967" gradientUnits="userSpaceOnUse">
<stop stop-color="#6DCEF5"/>
<stop offset="1" stop-color="#034EA1"/>
</linearGradient>
<linearGradient id="paint10_linear_430_3477" x1="56.7378" y1="107.87" x2="74.0369" y2="107.858" gradientUnits="userSpaceOnUse">
<stop stop-color="#6DCCF2"/>
<stop offset="1" stop-color="#08529C"/>
</linearGradient>
<linearGradient id="paint11_linear_430_3477" x1="104.37" y1="109.7" x2="120.578" y2="107.29" gradientUnits="userSpaceOnUse">
<stop stop-color="#08529C"/>
<stop offset="0.1548" stop-color="#1B69AC"/>
<stop offset="0.5461" stop-color="#479ED2"/>
<stop offset="0.8397" stop-color="#63BFE9"/>
<stop offset="1" stop-color="#6DCCF2"/>
</linearGradient>
</defs>
</svg>
