<svg width="265" height="45" viewBox="0 0 265 45" fill="none" xmlns="http://www.w3.org/2000/svg">
<g filter="url(#filter0_b)">
<path d="M0.9425 0.399998H23.8385V8.56H10.5425V15.328H22.1105V23.488H10.5425V34H0.9425V0.399998ZM51.62 8.848V34H45.572L44.132 30.88C43.3 32.032 42.26 32.944 41.012 33.616C39.796 34.256 38.228 34.576 36.308 34.576C33.268 34.576 30.932 33.776 29.3 32.176C27.7 30.576 26.9 28.432 26.9 25.744V8.848H35.924V23.584C35.924 24.64 36.148 25.376 36.596 25.792C37.076 26.208 37.748 26.416 38.612 26.416C40.404 26.416 41.716 25.376 42.548 23.296V8.848H51.62ZM65.6619 34.864C62.9419 34.864 60.9099 34.24 59.5659 32.992C58.2219 31.712 57.5499 29.664 57.5499 26.848V16.624H54.1419V8.848H57.5499V6.64L61.3419 2.224H66.7659V8.848H72.8619V16.624H66.7659V24.832C66.7659 25.472 66.9099 25.952 67.1979 26.272C67.4859 26.56 67.9499 26.704 68.5899 26.704C69.5819 26.704 70.6379 26.528 71.7579 26.176L73.8699 32.512C71.5339 34.08 68.7979 34.864 65.6619 34.864ZM101.682 8.848V34H95.6345L94.1945 30.88C93.3625 32.032 92.3225 32.944 91.0745 33.616C89.8585 34.256 88.2905 34.576 86.3705 34.576C83.3305 34.576 80.9945 33.776 79.3625 32.176C77.7625 30.576 76.9625 28.432 76.9625 25.744V8.848H85.9865V23.584C85.9865 24.64 86.2105 25.376 86.6585 25.792C87.1385 26.208 87.8105 26.416 88.6745 26.416C90.4665 26.416 91.7785 25.376 92.6105 23.296V8.848H101.682ZM106.259 8.848H113.315L114.659 12.592H114.803C115.603 10.832 116.467 9.632 117.395 8.992C118.355 8.32 119.443 7.984 120.659 7.984C121.971 7.984 123.235 8.304 124.451 8.944L122.819 17.104C122.275 16.816 121.827 16.624 121.475 16.528C121.123 16.432 120.755 16.384 120.371 16.384C119.315 16.384 118.371 16.768 117.539 17.536C116.739 18.304 116.067 19.616 115.523 21.472V34H106.259V8.848ZM140.144 27.952C142.608 27.952 144.832 27.248 146.816 25.84L149.792 31.792C147.072 33.84 143.52 34.864 139.136 34.864C134.976 34.864 131.648 33.728 129.152 31.456C126.688 29.184 125.456 25.872 125.456 21.52C125.456 18.96 125.984 16.656 127.04 14.608C128.128 12.528 129.632 10.912 131.552 9.76C133.472 8.576 135.68 7.984 138.176 7.984C140.768 7.984 142.944 8.512 144.704 9.568C146.496 10.624 147.824 12.032 148.688 13.792C149.552 15.552 149.984 17.488 149.984 19.6C149.984 21.168 149.824 22.608 149.504 23.92H134.528C135.2 26.608 137.072 27.952 140.144 27.952ZM138.368 14.56C137.312 14.56 136.464 14.848 135.824 15.424C135.184 16 134.736 17.008 134.48 18.448H141.584C141.488 15.856 140.416 14.56 138.368 14.56ZM153.989 0.399998H163.589V25.36H178.469V34H153.989V0.399998ZM207.107 27.616L206.531 33.568C206.019 34.016 205.347 34.336 204.515 34.528C203.683 34.752 202.835 34.864 201.971 34.864C200.723 34.864 199.635 34.608 198.707 34.096C197.779 33.616 197.091 32.832 196.643 31.744C195.907 32.704 195.011 33.456 193.955 34C192.899 34.576 191.571 34.864 189.971 34.864C188.403 34.864 186.947 34.528 185.603 33.856C184.259 33.184 183.187 32.24 182.387 31.024C181.587 29.776 181.187 28.352 181.187 26.752C181.187 24.352 182.099 22.448 183.923 21.04C185.747 19.6 188.115 18.88 191.027 18.88C192.691 18.88 194.131 19.008 195.347 19.264V18.64C195.347 17.392 195.027 16.512 194.387 16C193.779 15.488 192.819 15.232 191.507 15.232C190.515 15.232 189.475 15.424 188.387 15.808C187.299 16.16 186.307 16.608 185.411 17.152L182.147 11.584C183.491 10.4 185.155 9.504 187.139 8.896C189.123 8.288 191.027 7.984 192.851 7.984C196.755 7.984 199.667 8.832 201.587 10.528C203.507 12.224 204.467 14.608 204.467 17.68V25.936C204.467 27.056 204.851 27.616 205.619 27.616H207.107ZM192.083 28.384C193.651 28.384 194.787 27.712 195.491 26.368V24.4C194.563 24.048 193.491 23.872 192.275 23.872C191.411 23.872 190.739 24.08 190.259 24.496C189.779 24.88 189.539 25.44 189.539 26.176C189.539 26.88 189.779 27.424 190.259 27.808C190.739 28.192 191.347 28.384 192.083 28.384ZM210.322 8.848H216.418L217.858 12.4H218.146C219.298 10.864 220.53 9.744 221.842 9.04C223.186 8.336 224.738 7.984 226.498 7.984C229.25 7.984 231.426 8.768 233.026 10.336C234.626 11.904 235.426 14.08 235.426 16.864V34H226.306V19.936C226.306 17.824 225.554 16.768 224.05 16.768C222.578 16.768 221.042 17.76 219.442 19.744V34H210.322V8.848ZM249.786 7.984C251.354 7.984 252.73 8.304 253.914 8.944C255.098 9.552 256.026 10.336 256.698 11.296H257.034L258.33 8.752H264.762V31.552C264.762 36.096 263.482 39.424 260.922 41.536C258.394 43.68 254.906 44.752 250.458 44.752C248.602 44.752 246.762 44.48 244.938 43.936C243.146 43.424 241.674 42.736 240.522 41.872L243.45 35.248C244.314 35.856 245.386 36.336 246.666 36.688C247.978 37.04 249.274 37.216 250.554 37.216C254.234 37.216 256.074 35.696 256.074 32.656V30.976C254.506 32.352 252.57 33.04 250.266 33.04C248.058 33.04 246.106 32.528 244.41 31.504C242.714 30.48 241.386 29.024 240.426 27.136C239.498 25.248 239.034 23.056 239.034 20.56C239.034 17.968 239.514 15.728 240.474 13.84C241.466 11.92 242.778 10.464 244.41 9.472C246.042 8.48 247.834 7.984 249.786 7.984ZM252.042 16.336C250.89 16.336 249.962 16.704 249.258 17.44C248.554 18.176 248.202 19.2 248.202 20.512C248.202 21.888 248.554 22.96 249.258 23.728C249.994 24.496 250.954 24.88 252.138 24.88C253.834 24.88 255.034 24.208 255.738 22.864V17.92C254.618 16.864 253.386 16.336 252.042 16.336Z" fill="url(#paint0_linear)"/>
</g>
<defs>
<filter id="filter0_b" x="-11.0575" y="-11.5996" width="287.819" height="68.352" filterUnits="userSpaceOnUse" color-interpolation-filters="sRGB">
<feFlood flood-opacity="0" result="BackgroundImageFix"/>
<feGaussianBlur in="BackgroundImage" stdDeviation="6"/>
<feComposite in2="SourceAlpha" operator="in" result="effect1_backgroundBlur"/>
<feBlend mode="normal" in="SourceGraphic" in2="effect1_backgroundBlur" result="shape"/>
</filter>
<linearGradient id="paint0_linear" x1="-2" y1="-13" x2="102.584" y2="157.093" gradientUnits="userSpaceOnUse">
<stop stop-color="white" stop-opacity="0.9"/>
<stop offset="1" stop-color="white" stop-opacity="0.5"/>
</linearGradient>
</defs>
</svg>
