<svg width="168" height="190" viewBox="0 0 168 190" fill="none" xmlns="http://www.w3.org/2000/svg">
<rect x="0.5" y="0.5" width="167" height="189" rx="22.8864" fill="url(#paint0_radial_3009_6303)" stroke="#008DDC"/>
<path d="M75.6753 14.625V26H73.3315L68.7612 18.375V26H66.4175V14.625H68.7612L73.3394 22.2578V14.625H75.6753ZM82.1362 24.0938V20.3281C82.1362 20.0573 82.092 19.8255 82.0034 19.6328C81.9149 19.4349 81.7769 19.2812 81.5894 19.1719C81.4071 19.0625 81.1701 19.0078 80.8784 19.0078C80.6284 19.0078 80.4123 19.0521 80.23 19.1406C80.0477 19.224 79.9071 19.3464 79.8081 19.5078C79.7091 19.6641 79.6597 19.849 79.6597 20.0625H77.4097C77.4097 19.7031 77.493 19.362 77.6597 19.0391C77.8263 18.7161 78.0685 18.4323 78.3862 18.1875C78.7039 17.9375 79.0815 17.7422 79.519 17.6016C79.9618 17.4609 80.4565 17.3906 81.0034 17.3906C81.6597 17.3906 82.243 17.5 82.7534 17.7188C83.2638 17.9375 83.6649 18.2656 83.9565 18.7031C84.2534 19.1406 84.4019 19.6875 84.4019 20.3438V23.9609C84.4019 24.4245 84.4305 24.8047 84.4878 25.1016C84.5451 25.3932 84.6284 25.6484 84.7378 25.8672V26H82.4644C82.355 25.7708 82.2716 25.4844 82.2144 25.1406C82.1623 24.7917 82.1362 24.4427 82.1362 24.0938ZM82.4331 20.8516L82.4487 22.125H81.1909C80.894 22.125 80.6362 22.1589 80.4175 22.2266C80.1987 22.2943 80.019 22.3906 79.8784 22.5156C79.7378 22.6354 79.6336 22.776 79.5659 22.9375C79.5034 23.099 79.4722 23.276 79.4722 23.4688C79.4722 23.6615 79.5164 23.8359 79.605 23.9922C79.6935 24.1432 79.8211 24.263 79.9878 24.3516C80.1545 24.4349 80.3498 24.4766 80.5737 24.4766C80.9123 24.4766 81.2065 24.4089 81.4565 24.2734C81.7065 24.138 81.8993 23.9714 82.0347 23.7734C82.1753 23.5755 82.2482 23.388 82.2534 23.2109L82.8472 24.1641C82.7638 24.3776 82.6493 24.599 82.5034 24.8281C82.3628 25.0573 82.1831 25.2734 81.9644 25.4766C81.7456 25.6745 81.4826 25.8385 81.1753 25.9688C80.868 26.0938 80.5034 26.1562 80.0815 26.1562C79.5451 26.1562 79.0581 26.0495 78.6206 25.8359C78.1883 25.6172 77.8446 25.3177 77.5894 24.9375C77.3394 24.5521 77.2144 24.1146 77.2144 23.625C77.2144 23.1823 77.2977 22.7891 77.4644 22.4453C77.631 22.1016 77.8758 21.8125 78.1987 21.5781C78.5269 21.3385 78.9357 21.1589 79.4253 21.0391C79.9149 20.9141 80.4826 20.8516 81.1284 20.8516H82.4331ZM88.3862 19.2969V26H86.1284V17.5469H88.2456L88.3862 19.2969ZM88.0737 21.4766H87.4487C87.4487 20.888 87.519 20.3464 87.6597 19.8516C87.8055 19.3516 88.0164 18.9193 88.2925 18.5547C88.5737 18.1849 88.9201 17.8984 89.3315 17.6953C89.743 17.4922 90.2196 17.3906 90.7612 17.3906C91.1362 17.3906 91.48 17.4479 91.7925 17.5625C92.105 17.6719 92.3732 17.8464 92.5972 18.0859C92.8263 18.3203 93.0034 18.6276 93.1284 19.0078C93.2534 19.3828 93.3159 19.8333 93.3159 20.3594V26H91.0659V20.6094C91.0659 20.224 91.0138 19.9271 90.9097 19.7188C90.8055 19.5104 90.6571 19.3646 90.4644 19.2812C90.2769 19.1979 90.0503 19.1562 89.7847 19.1562C89.493 19.1562 89.2378 19.2161 89.019 19.3359C88.8055 19.4557 88.6284 19.6224 88.4878 19.8359C88.3472 20.0443 88.243 20.2891 88.1753 20.5703C88.1076 20.8516 88.0737 21.1536 88.0737 21.4766ZM93.105 21.2188L92.3003 21.3203C92.3003 20.7682 92.368 20.2552 92.5034 19.7812C92.644 19.3073 92.8498 18.8906 93.1206 18.5312C93.3966 18.1719 93.7378 17.8932 94.144 17.6953C94.5503 17.4922 95.019 17.3906 95.5503 17.3906C95.9565 17.3906 96.3263 17.4505 96.6597 17.5703C96.993 17.6849 97.2769 17.8698 97.5112 18.125C97.7508 18.375 97.9331 18.7031 98.0581 19.1094C98.1883 19.5156 98.2534 20.013 98.2534 20.6016V26H95.9956V20.6016C95.9956 20.2109 95.9435 19.9141 95.8394 19.7109C95.7404 19.5026 95.5946 19.3594 95.4019 19.2812C95.2144 19.1979 94.9904 19.1562 94.73 19.1562C94.4591 19.1562 94.2222 19.2109 94.019 19.3203C93.8159 19.4245 93.6466 19.5703 93.5112 19.7578C93.3758 19.9453 93.2743 20.1641 93.2065 20.4141C93.1388 20.6589 93.105 20.9271 93.105 21.2188Z" fill="#008DDC"/>
<mask id="mask0_3009_6303" style="mask-type:alpha" maskUnits="userSpaceOnUse" x="36" y="71" width="95" height="118">
<rect x="36.6387" y="71" width="94.325" height="117.906" fill="#D9D9D9"/>
</mask>
<g mask="url(#mask0_3009_6303)">
<path d="M104.586 183.168C105.148 183.483 105.676 183.921 106.215 184.347C108.123 185.852 110.021 187.368 111.908 188.895C112.435 189.322 112.941 189.771 113.457 190.209C114.019 190.681 114.401 191.107 114.827 191.714C115.13 192.152 115.164 192.444 115.052 192.949C114.85 193.915 114.255 194.667 113.278 194.914C113.019 194.981 112.75 194.97 112.48 194.948C111.829 194.869 111.122 194.319 110.538 194.004C109.853 193.634 109.179 193.252 108.516 192.848C106.091 191.377 103.632 190.276 101.509 188.401C100.555 187.559 99.9262 187.031 100.106 185.706C100.286 184.403 101.262 183.078 102.543 182.809C103.317 182.64 103.98 182.831 104.586 183.168Z" fill="#FCEAE7"/>
<path d="M62.151 183.55C61.6232 183.932 61.1629 184.437 60.68 184.92C58.9732 186.649 57.2663 188.378 55.582 190.13C55.1103 190.624 54.6612 191.129 54.2008 191.624C53.6955 192.163 53.3698 192.634 53.0329 193.285C52.7859 193.757 52.7859 194.049 52.9543 194.532C53.2687 195.475 53.965 196.149 54.9531 196.261C55.2226 196.295 55.4809 196.261 55.7392 196.194C56.3792 196.037 57.0081 195.397 57.5471 195.015C58.1759 194.566 58.8047 194.105 59.4111 193.622C61.6345 191.871 63.9365 190.467 65.823 188.356C66.6651 187.401 67.2266 186.806 66.8897 185.504C66.5529 184.235 65.4299 183.033 64.1161 182.932C63.3525 182.865 62.7237 183.134 62.151 183.55Z" fill="#FCEAE7"/>
<path d="M104.8 196.632C104.8 196.632 90.5163 183.684 89.573 181.63C88.641 179.586 88.8881 174.353 94.0086 174.364C99.129 174.376 113.895 184.504 113.895 184.504C113.895 184.504 110.616 191.994 104.8 196.632Z" fill="#3F2359"/>
<path d="M61.6796 196.957C61.6796 196.957 54.4704 190.826 52.1909 185.369C52.1909 185.369 68.4844 174.993 70.3822 174.623C71.4826 174.409 73.5151 175.229 74.4696 176.891C75.1546 178.081 75.615 179.676 75.177 181.282C74.2787 184.628 61.6796 196.957 61.6796 196.957Z" fill="#3F2359"/>
<path d="M81.9256 178.856C86.6418 178.856 89.0785 176.139 89.5277 173.68C89.5277 173.68 86.6081 173.118 82.4196 173.275C79.2418 173.522 76.6928 173.59 75.8281 173.769C76.1987 174.87 77.8606 178.856 81.9256 178.856Z" fill="#188488"/>
<path d="M95.0527 174.162C95.0527 174.162 82.1279 171.973 73.2793 174.376L73.7509 175.678C73.7509 175.678 81.4878 174.387 93.3907 175.487L95.0527 174.162Z" fill="#4B6329"/>
<path d="M86.2376 173.197C85.9232 172.938 85.6312 172.602 85.3617 172.152C85.1596 171.816 84.9575 171.49 84.6992 171.321C84.4297 171.153 84.2276 171.153 83.9693 171.142C82.7566 171.063 81.6336 171.142 80.4434 171.378C80.2637 171.411 80.084 171.434 79.938 171.625C79.8033 171.816 79.8258 172.152 79.7584 172.388C79.444 173.556 78.074 173.792 77.0521 173.983C75.6373 174.23 74.3796 174.544 73.0321 175.038C72.437 175.252 71.8081 175.487 71.3926 175.97C70.8761 176.554 70.7863 177.385 70.6852 178.149C70.3596 180.653 70.1799 182.887 70.4494 185.425C70.6066 186.919 70.7863 188.468 71.5499 189.771C72.5043 191.399 74.2561 192.399 76.0078 193.084C80.2974 194.779 85.1147 195.105 89.5951 193.982C90.4261 193.78 91.2458 193.522 91.9757 193.084C93.705 192.05 94.7269 190.097 95.1086 188.12C95.4904 186.144 95.3108 184.1 95.1199 182.09C94.9402 180.159 94.7381 178.138 93.6938 176.498C91.8185 173.534 88.6182 175.162 86.2376 173.197Z" fill="#FFEAE6"/>
<path d="M95.2436 174.286C94.8506 174.241 89.5841 173.59 89.1798 173.556C89.1574 173.624 89.2135 178.508 82.3525 178.542C77.7373 178.564 76.4572 175.622 75.8171 173.758C75.469 173.826 70.3934 174.612 70.3934 174.612L65.1045 211.735C65.1045 211.735 75.7834 216.541 82.9476 215.969C90.1118 215.396 101.97 212.825 101.97 212.825L95.2436 174.286Z" fill="#6D4392"/>
<path d="M84.0036 199.473C81.2076 199.473 78.9393 197.205 78.9393 194.408C78.9393 191.612 81.2076 189.344 84.0036 189.344C86.7772 189.344 89.0343 191.579 89.068 194.341C89.068 194.319 89.068 194.296 89.068 194.274C89.068 191.062 86.4628 188.457 83.2513 188.457C80.0397 188.457 77.4346 191.062 77.4346 194.274C77.4346 197.485 80.0397 200.09 83.2513 200.09C85.7778 200.09 87.9338 198.473 88.7311 196.216C88.0124 198.114 86.1709 199.473 84.0036 199.473Z" fill="url(#paint1_linear_3009_6303)"/>
<path d="M70.3934 174.623L65.1045 211.735C65.1045 211.735 75.7834 216.542 82.9476 215.969C90.1118 215.396 101.97 212.825 101.97 212.825L101.408 209.512C100.465 209.647 84.7331 211.814 77.0411 205.211C69.1021 198.418 70.3934 174.657 70.3934 174.623Z" fill="#5D3781"/>
<path d="M75.8057 173.77L76.6029 173.691C76.6029 173.691 77.7259 178.216 82.4646 178.014C86.3499 177.846 88.6069 174.814 88.7754 173.624L89.5277 173.567C89.5277 173.567 89.6063 178.497 82.4196 178.845C76.2324 179.137 75.8057 173.77 75.8057 173.77Z" fill="white"/>
<path d="M120.768 152.726C124.861 152.726 128.179 149.156 128.179 144.753C128.179 140.35 124.861 136.78 120.768 136.78C116.675 136.78 113.356 140.35 113.356 144.753C113.356 149.156 116.675 152.726 120.768 152.726Z" fill="#FFEAE6"/>
<path d="M46.2955 152.726C50.3886 152.726 53.7068 149.156 53.7068 144.753C53.7068 140.35 50.3886 136.78 46.2955 136.78C42.2024 136.78 38.8843 140.35 38.8843 144.753C38.8843 149.156 42.2024 152.726 46.2955 152.726Z" fill="#FFEAE6"/>
<path d="M121.677 139.397C121.677 157.049 104.766 171.355 83.9024 171.355C63.0386 171.355 46.1274 157.049 46.1274 139.397C46.1274 129.178 48.5642 114.299 57.3903 108.449C63.8021 104.193 75.3008 98.9717 84.082 98.9717C90.8083 98.9717 103.385 105.844 108.854 108.449C120.352 113.929 121.677 127.438 121.677 139.397Z" fill="#FFEAE6"/>
<path d="M65.767 132.053C68.9336 129.717 73.2007 129.391 76.8726 130.458C77.9506 130.772 78.411 129.088 77.333 128.774C73.2456 127.583 68.4058 127.943 64.8799 130.537C63.9928 131.21 64.8574 132.726 65.767 132.053Z" fill="#8E392F"/>
<path d="M89.9887 131.132C93.4922 129.346 97.7592 129.717 101.207 131.39C102.217 131.884 102.947 130.301 101.936 129.807C98.1074 127.954 93.2676 127.516 89.3598 129.504C88.3829 130.009 88.9893 131.648 89.9887 131.132Z" fill="#8E392F"/>
<path d="M42.8038 143.012C44.6341 142.923 45.6897 144.337 46.1613 145.921V145.932C46.4869 146.92 46.1501 147.987 45.8918 148.975C45.6448 148.2 45.7795 146.662 44.6454 146.707C44.2523 146.639 43.9716 147.268 44.185 147.818C43.3315 147.246 43.3315 145.618 44.7464 145.764C44.286 145.247 44.286 144.427 43.5112 144.304C42.7589 144.416 43.0508 145.427 42.6241 145.943C42.3434 144.944 41.4114 143.102 42.8038 143.012Z" fill="#F9D2CD"/>
<path d="M101.105 159.317C103.871 159.317 106.114 158.151 106.114 156.712C106.114 155.273 103.871 154.107 101.105 154.107C98.3394 154.107 96.0972 155.273 96.0972 156.712C96.0972 158.151 98.3394 159.317 101.105 159.317Z" fill="#F9D2CD"/>
<path d="M66.6991 159.317C69.4651 159.317 71.7073 158.151 71.7073 156.712C71.7073 155.273 69.4651 154.107 66.6991 154.107C63.9332 154.107 61.6909 155.273 61.6909 156.712C61.6909 158.151 63.9332 159.317 66.6991 159.317Z" fill="#F9D2CD"/>
<path d="M71.2134 149.447C75.8895 149.447 79.6802 145.465 79.6802 140.553C79.6802 135.641 75.8895 131.66 71.2134 131.66C66.5373 131.66 62.7466 135.641 62.7466 140.553C62.7466 145.465 66.5373 149.447 71.2134 149.447Z" fill="#42210B"/>
<path d="M68.6416 132.816L68.9336 134.781C68.9336 134.781 72.9985 133.041 76.7041 135.219C76.7154 135.219 72.4146 130.975 68.6416 132.816Z" fill="#190B04"/>
<path d="M65.9916 144.214L64.9023 145.988C64.9023 145.988 67.5187 149.143 72.0216 148.975C72.0216 148.975 67.7433 147.47 65.9916 144.214Z" fill="#683B25"/>
<path d="M96.0972 149.447C100.773 149.447 104.564 145.465 104.564 140.553C104.564 135.641 100.773 131.66 96.0972 131.66C91.4211 131.66 87.6304 135.641 87.6304 140.553C87.6304 145.465 91.4211 149.447 96.0972 149.447Z" fill="#42210B"/>
<path d="M67.5749 139.576C69.0509 139.576 70.2474 138.319 70.2474 136.769C70.2474 135.218 69.0509 133.961 67.5749 133.961C66.0989 133.961 64.9023 135.218 64.9023 136.769C64.9023 138.319 66.0989 139.576 67.5749 139.576Z" fill="white"/>
<path d="M98.6685 132.816L98.3766 134.781C98.3766 134.781 94.3116 133.041 90.606 135.219C90.5947 135.219 94.8955 130.975 98.6685 132.816Z" fill="#190B04"/>
<path d="M99.2639 138.97C100.74 138.97 101.936 137.713 101.936 136.162C101.936 134.612 100.74 133.355 99.2639 133.355C97.7878 133.355 96.5913 134.612 96.5913 136.162C96.5913 137.713 97.7878 138.97 99.2639 138.97Z" fill="white"/>
<path d="M101.319 144.214L102.408 145.988C102.408 145.988 99.7915 149.143 95.2886 148.975C95.2886 148.975 99.5669 147.47 101.319 144.214Z" fill="#683B25"/>
<path d="M87.3162 152.77C87.8665 152.759 88.4055 152.759 88.9557 152.77C89.5621 152.781 90.2021 152.916 90.6401 153.332C91.8865 154.511 90.831 156.779 89.8316 157.733C89.2589 158.284 88.5739 158.733 87.844 159.058C84.4416 160.541 79.7141 160.069 76.8956 157.576C75.7277 156.543 74.5262 153.983 76.5025 153.017C77.2437 152.658 78.3666 152.849 79.1526 152.849C80.4328 152.849 81.7129 152.849 83.0042 152.86C84.4303 152.86 85.8789 152.793 87.3162 152.77Z" fill="#D3471C"/>
<path d="M78.1758 158.508C81.0055 160.17 84.9133 160.338 87.8441 159.069C88.0911 158.957 88.3382 158.834 88.574 158.688C88.3606 156.891 86.1148 155.476 83.3637 155.476C80.7023 155.476 78.5127 156.79 78.1758 158.508Z" fill="#F9785A"/>
<path d="M79.8711 152.849C79.8711 152.849 79.8711 154.892 80.455 154.892C81.0389 154.892 83.2848 154.892 83.2848 154.892L83.3521 152.86L79.8711 152.849Z" fill="white"/>
<path d="M86.8443 152.849C86.8443 152.849 86.8443 154.892 86.2604 154.892C85.6765 154.892 83.4531 154.892 83.4531 154.892L83.3521 152.86L86.8443 152.849Z" fill="white"/>
<path d="M85.7891 146.988C85.7891 147.673 84.9469 148.223 83.9026 148.223C82.8583 148.223 82.0161 147.673 82.0161 146.988C82.0161 146.303 82.8583 144.966 83.9026 144.966C84.9469 144.966 85.7891 146.303 85.7891 146.988Z" fill="#E86262"/>
<path d="M83.9024 171.355C99.0281 171.355 112.065 163.831 118.095 152.973C111.01 160.002 98.781 169.199 83.3185 169.648C61.0959 170.299 51.3603 152.636 46.2959 142.328C48.0364 158.599 64.2064 171.355 83.9024 171.355Z" fill="#F9D2CD"/>
<path d="M123.867 143.596C122.037 143.507 120.981 144.921 120.51 146.505V146.516C120.184 147.504 120.521 148.571 120.779 149.559C121.026 148.784 120.892 147.246 122.026 147.291C122.419 147.223 122.699 147.852 122.486 148.402C123.339 147.83 123.339 146.202 121.925 146.347C122.385 145.831 122.385 145.011 123.16 144.888C123.912 145 123.62 146.011 124.047 146.527C124.328 145.517 125.26 143.675 123.867 143.596Z" fill="#F9D2CD"/>
<path d="M116.018 91.4819C107.978 84.5872 107.798 89.0227 102.397 86.9117C97.2766 84.9129 98.276 78.8828 83.3299 80.1854C28.7674 84.9241 43.2867 129.246 45.8021 135.927C45.7796 136.152 45.7684 136.275 45.7684 136.275L49.2382 141.182L50.8664 141.822C50.8664 135.051 50.7317 129.021 53.9544 122.778C55.0212 120.711 56.6607 118.892 57.1211 116.624C56.7168 118.612 57.1435 124.26 58.8953 125.652C60.6695 127.056 65.6664 125.136 67.8674 124.911C68.878 124.81 71.4607 125.08 72.2243 124.428C73.0665 123.698 73.1451 121.026 73.2686 119.982C73.437 118.511 73.4707 117.006 73.9423 115.613C73.9311 118.544 74.2118 121.486 74.7733 124.361C77.9175 124.069 81.3199 124.35 84.4865 124.417C85.9463 124.451 87.4398 124.586 88.8884 124.507C90.7636 124.417 90.3931 123.901 90.6289 122.093C90.9321 119.779 91.4935 117.511 92.1111 115.254C92.302 114.558 92.4592 112.93 93.3351 113.637C93.9976 114.165 94.5029 115.378 95.0532 116.051C97.6471 119.184 101.016 121.554 104.317 123.867C105.328 124.574 106.338 125.282 107.405 125.899C108.876 126.742 110.437 127.393 111.942 128.168C113.256 128.841 116.4 130.088 116.523 131.66C116.636 132.94 116.523 134.276 116.523 135.568C116.523 137.802 116.523 140.037 116.523 142.271L118.152 141.631L121.61 136.747C121.621 136.769 121.633 136.78 121.633 136.78C121.633 136.78 136.231 108.809 116.018 91.4819Z" fill="#8E392F"/>
<path d="M98.2868 83.7787C98.2868 83.7787 100.521 77.6588 95.2886 74.3687C95.2886 74.3687 102.52 76.7492 100.308 85.6764C100.319 85.6764 98.6686 86.5074 98.2868 83.7787Z" fill="#8E392F"/>
<path d="M100.622 85.3733C100.622 85.3733 102.262 81.8586 105.844 82.6783C105.844 82.6783 101.801 80.6346 98.9717 85.3172C98.9717 85.3172 99.3086 86.3615 100.622 85.3733Z" fill="#8E392F"/>
<path d="M46.2959 111.133C49.2043 88.7984 75.8848 81.1401 78.737 81.2075L78.2317 80.7583C29.6992 87.7653 43.3651 129.459 45.8018 135.927C45.7794 136.152 45.7682 136.275 45.7682 136.275L49.238 141.182L50.8662 141.823C50.8774 141.823 43.0956 135.725 46.2959 111.133Z" fill="#BC524A"/>
<path d="M116.017 91.4819C107.977 84.5872 107.798 89.0227 102.396 86.9116C102.396 86.9116 120.273 95.1426 115.523 129.886C115.883 130.223 116.231 130.537 116.556 130.863V142.271L118.185 141.631L121.643 136.747C121.655 136.769 121.666 136.78 121.666 136.78C121.666 136.78 136.23 108.808 116.017 91.4819Z" fill="#722A25"/>
<path d="M74.7956 124.361C74.7956 124.361 73.8411 117.141 73.9646 115.614L76.7158 124.215L74.7956 124.361Z" fill="#722A25"/>
<path d="M97.6133 152.12C90.6961 152.12 85.0703 146.494 85.0703 139.577C85.0703 132.66 90.6961 127.034 97.6133 127.034C104.53 127.034 110.156 132.66 110.156 139.577C110.156 146.494 104.53 152.12 97.6133 152.12ZM97.6133 128.314C91.4036 128.314 86.3504 133.367 86.3504 139.577C86.3504 145.786 91.4036 150.84 97.6133 150.84C103.823 150.84 108.876 145.786 108.876 139.577C108.876 133.367 103.823 128.314 97.6133 128.314Z" fill="#8C6239"/>
<path d="M67.1704 152.12C60.2533 152.12 54.6274 146.494 54.6274 139.577C54.6274 132.66 60.2533 127.034 67.1704 127.034C74.0876 127.034 79.7134 132.66 79.7134 139.577C79.7022 146.494 74.0764 152.12 67.1704 152.12ZM67.1704 128.314C60.9607 128.314 55.9076 133.367 55.9076 139.577C55.9076 145.786 60.9607 150.84 67.1704 150.84C73.3801 150.84 78.4333 145.786 78.4333 139.577C78.4333 133.367 73.3801 128.314 67.1704 128.314Z" fill="#8C6239"/>
<path d="M85.3059 140.082H79.0737V141.351H85.3059V140.082Z" fill="#8C6239"/>
<path d="M121.857 136.26L109.376 138.953L109.644 140.193L122.124 137.5L121.857 136.26Z" fill="#8C6239"/>
<path d="M45.7211 136.153L45.4595 137.395L54.7441 139.352L55.0058 138.11L45.7211 136.153Z" fill="#8C6239"/>
</g>
<path d="M150 30C144.477 30 140 25.523 140 20C140 14.477 144.477 10 150 10C155.523 10 160 14.477 160 20C160 25.523 155.523 30 150 30ZM149.003 24L156.073 16.929L154.659 15.515L149.003 21.172L146.174 18.343L144.76 19.757L149.003 24Z" fill="#008DDC"/>
<defs>
<radialGradient id="paint0_radial_3009_6303" cx="0" cy="0" r="1" gradientUnits="userSpaceOnUse" gradientTransform="translate(84.4912 144.016) rotate(90) scale(145.027 128.234)">
<stop stop-color="#09A5FC"/>
<stop offset="0.0833333" stop-color="#09A5FC" stop-opacity="0.368056"/>
<stop offset="0.75" stop-color="#09A5FC" stop-opacity="0"/>
</radialGradient>
<linearGradient id="paint1_linear_3009_6303" x1="77.4503" y1="194.27" x2="89.0751" y2="194.27" gradientUnits="userSpaceOnUse">
<stop offset="0.3763" stop-color="#FBDB1C"/>
<stop offset="0.4914" stop-color="#F9D61D"/>
<stop offset="0.6335" stop-color="#F3C71F"/>
<stop offset="0.7898" stop-color="#EAAD22"/>
<stop offset="0.9552" stop-color="#DD8B27"/>
<stop offset="1" stop-color="#D98028"/>
</linearGradient>
</defs>
</svg>
