<svg width="168" height="190" viewBox="0 0 168 190" fill="none" xmlns="http://www.w3.org/2000/svg">
<rect x="0.487216" y="0.487216" width="167.026" height="189.026" rx="22.8991" stroke="#F2F2F2" stroke-width="0.974432"/>
<path d="M77.4141 14.625V26H75.0703L70.5 18.375V26H68.1562V14.625H70.5L75.0781 22.2578V14.625H77.4141ZM83.875 24.0938V20.3281C83.875 20.0573 83.8307 19.8255 83.7422 19.6328C83.6536 19.4349 83.5156 19.2812 83.3281 19.1719C83.1458 19.0625 82.9089 19.0078 82.6172 19.0078C82.3672 19.0078 82.151 19.0521 81.9688 19.1406C81.7865 19.224 81.6458 19.3464 81.5469 19.5078C81.4479 19.6641 81.3984 19.849 81.3984 20.0625H79.1484C79.1484 19.7031 79.2318 19.362 79.3984 19.0391C79.5651 18.7161 79.8073 18.4323 80.125 18.1875C80.4427 17.9375 80.8203 17.7422 81.2578 17.6016C81.7005 17.4609 82.1953 17.3906 82.7422 17.3906C83.3984 17.3906 83.9818 17.5 84.4922 17.7188C85.0026 17.9375 85.4036 18.2656 85.6953 18.7031C85.9922 19.1406 86.1406 19.6875 86.1406 20.3438V23.9609C86.1406 24.4245 86.1693 24.8047 86.2266 25.1016C86.2839 25.3932 86.3672 25.6484 86.4766 25.8672V26H84.2031C84.0938 25.7708 84.0104 25.4844 83.9531 25.1406C83.901 24.7917 83.875 24.4427 83.875 24.0938ZM84.1719 20.8516L84.1875 22.125H82.9297C82.6328 22.125 82.375 22.1589 82.1562 22.2266C81.9375 22.2943 81.7578 22.3906 81.6172 22.5156C81.4766 22.6354 81.3724 22.776 81.3047 22.9375C81.2422 23.099 81.2109 23.276 81.2109 23.4688C81.2109 23.6615 81.2552 23.8359 81.3438 23.9922C81.4323 24.1432 81.5599 24.263 81.7266 24.3516C81.8932 24.4349 82.0885 24.4766 82.3125 24.4766C82.651 24.4766 82.9453 24.4089 83.1953 24.2734C83.4453 24.138 83.638 23.9714 83.7734 23.7734C83.9141 23.5755 83.987 23.388 83.9922 23.2109L84.5859 24.1641C84.5026 24.3776 84.388 24.599 84.2422 24.8281C84.1016 25.0573 83.9219 25.2734 83.7031 25.4766C83.4844 25.6745 83.2214 25.8385 82.9141 25.9688C82.6068 26.0938 82.2422 26.1562 81.8203 26.1562C81.2839 26.1562 80.7969 26.0495 80.3594 25.8359C79.9271 25.6172 79.5833 25.3177 79.3281 24.9375C79.0781 24.5521 78.9531 24.1146 78.9531 23.625C78.9531 23.1823 79.0365 22.7891 79.2031 22.4453C79.3698 22.1016 79.6146 21.8125 79.9375 21.5781C80.2656 21.3385 80.6745 21.1589 81.1641 21.0391C81.6536 20.9141 82.2214 20.8516 82.8672 20.8516H84.1719ZM90.125 19.2969V26H87.8672V17.5469H89.9844L90.125 19.2969ZM89.8125 21.4766H89.1875C89.1875 20.888 89.2578 20.3464 89.3984 19.8516C89.5443 19.3516 89.7552 18.9193 90.0312 18.5547C90.3125 18.1849 90.6589 17.8984 91.0703 17.6953C91.4818 17.4922 91.9583 17.3906 92.5 17.3906C92.875 17.3906 93.2188 17.4479 93.5312 17.5625C93.8438 17.6719 94.112 17.8464 94.3359 18.0859C94.5651 18.3203 94.7422 18.6276 94.8672 19.0078C94.9922 19.3828 95.0547 19.8333 95.0547 20.3594V26H92.8047V20.6094C92.8047 20.224 92.7526 19.9271 92.6484 19.7188C92.5443 19.5104 92.3958 19.3646 92.2031 19.2812C92.0156 19.1979 91.7891 19.1562 91.5234 19.1562C91.2318 19.1562 90.9766 19.2161 90.7578 19.3359C90.5443 19.4557 90.3672 19.6224 90.2266 19.8359C90.0859 20.0443 89.9818 20.2891 89.9141 20.5703C89.8464 20.8516 89.8125 21.1536 89.8125 21.4766ZM94.8438 21.2188L94.0391 21.3203C94.0391 20.7682 94.1068 20.2552 94.2422 19.7812C94.3828 19.3073 94.5885 18.8906 94.8594 18.5312C95.1354 18.1719 95.4766 17.8932 95.8828 17.6953C96.2891 17.4922 96.7578 17.3906 97.2891 17.3906C97.6953 17.3906 98.0651 17.4505 98.3984 17.5703C98.7318 17.6849 99.0156 17.8698 99.25 18.125C99.4896 18.375 99.6719 18.7031 99.7969 19.1094C99.9271 19.5156 99.9922 20.013 99.9922 20.6016V26H97.7344V20.6016C97.7344 20.2109 97.6823 19.9141 97.5781 19.7109C97.4792 19.5026 97.3333 19.3594 97.1406 19.2812C96.9531 19.1979 96.7292 19.1562 96.4688 19.1562C96.1979 19.1562 95.9609 19.2109 95.7578 19.3203C95.5547 19.4245 95.3854 19.5703 95.25 19.7578C95.1146 19.9453 95.013 20.1641 94.9453 20.4141C94.8776 20.6589 94.8438 20.9271 94.8438 21.2188Z" fill="#4F4F4F"/>
<mask id="mask0_3009_6304" style="mask-type:alpha" maskUnits="userSpaceOnUse" x="36" y="71" width="95" height="118">
<rect x="36.6387" y="71" width="94.325" height="117.906" fill="#D9D9D9"/>
</mask>
<g mask="url(#mask0_3009_6304)">
<path d="M104.586 183.168C105.148 183.483 105.676 183.921 106.215 184.347C108.123 185.852 110.021 187.368 111.908 188.895C112.435 189.322 112.941 189.771 113.457 190.209C114.019 190.681 114.401 191.107 114.827 191.714C115.13 192.152 115.164 192.444 115.052 192.949C114.85 193.915 114.255 194.667 113.278 194.914C113.019 194.981 112.75 194.97 112.48 194.948C111.829 194.869 111.122 194.319 110.538 194.004C109.853 193.634 109.179 193.252 108.516 192.848C106.091 191.377 103.632 190.276 101.509 188.401C100.555 187.559 99.9262 187.031 100.106 185.706C100.286 184.403 101.262 183.078 102.543 182.809C103.317 182.64 103.98 182.831 104.586 183.168Z" fill="#FCEAE7"/>
<path d="M62.151 183.55C61.6232 183.932 61.1629 184.437 60.68 184.92C58.9732 186.649 57.2663 188.378 55.582 190.13C55.1103 190.624 54.6612 191.129 54.2008 191.624C53.6955 192.163 53.3698 192.634 53.0329 193.285C52.7859 193.757 52.7859 194.049 52.9543 194.532C53.2687 195.475 53.965 196.149 54.9531 196.261C55.2226 196.295 55.4809 196.261 55.7392 196.194C56.3792 196.037 57.0081 195.397 57.5471 195.015C58.1759 194.566 58.8047 194.105 59.4111 193.622C61.6345 191.871 63.9365 190.467 65.823 188.356C66.6651 187.401 67.2266 186.806 66.8897 185.504C66.5529 184.235 65.4299 183.033 64.1161 182.932C63.3525 182.865 62.7237 183.134 62.151 183.55Z" fill="#FCEAE7"/>
<path d="M104.8 196.632C104.8 196.632 90.5163 183.684 89.573 181.63C88.641 179.586 88.8881 174.353 94.0086 174.364C99.129 174.376 113.895 184.504 113.895 184.504C113.895 184.504 110.616 191.994 104.8 196.632Z" fill="#3F2359"/>
<path d="M61.6796 196.957C61.6796 196.957 54.4704 190.826 52.1909 185.369C52.1909 185.369 68.4844 174.993 70.3822 174.623C71.4826 174.409 73.5151 175.229 74.4696 176.891C75.1546 178.081 75.615 179.676 75.177 181.282C74.2787 184.628 61.6796 196.957 61.6796 196.957Z" fill="#3F2359"/>
<path d="M81.9256 178.856C86.6418 178.856 89.0785 176.139 89.5277 173.68C89.5277 173.68 86.6081 173.118 82.4196 173.275C79.2418 173.522 76.6928 173.59 75.8281 173.769C76.1987 174.87 77.8606 178.856 81.9256 178.856Z" fill="#188488"/>
<path d="M95.0527 174.162C95.0527 174.162 82.1279 171.973 73.2793 174.376L73.7509 175.678C73.7509 175.678 81.4878 174.387 93.3907 175.487L95.0527 174.162Z" fill="#4B6329"/>
<path d="M86.2376 173.197C85.9232 172.938 85.6312 172.602 85.3617 172.152C85.1596 171.816 84.9575 171.49 84.6992 171.321C84.4297 171.153 84.2276 171.153 83.9693 171.142C82.7566 171.063 81.6336 171.142 80.4434 171.378C80.2637 171.411 80.084 171.434 79.938 171.625C79.8033 171.816 79.8258 172.152 79.7584 172.388C79.444 173.556 78.074 173.792 77.0521 173.983C75.6373 174.23 74.3796 174.544 73.0321 175.038C72.437 175.252 71.8081 175.487 71.3926 175.97C70.8761 176.554 70.7863 177.385 70.6852 178.149C70.3596 180.653 70.1799 182.887 70.4494 185.425C70.6066 186.919 70.7863 188.468 71.5499 189.771C72.5043 191.399 74.2561 192.399 76.0078 193.084C80.2974 194.779 85.1147 195.105 89.5951 193.982C90.4261 193.78 91.2458 193.522 91.9757 193.084C93.705 192.05 94.7269 190.097 95.1086 188.12C95.4904 186.144 95.3108 184.1 95.1199 182.09C94.9402 180.159 94.7381 178.138 93.6938 176.498C91.8185 173.534 88.6182 175.162 86.2376 173.197Z" fill="#FFEAE6"/>
<path d="M95.2436 174.286C94.8506 174.241 89.5841 173.59 89.1798 173.556C89.1574 173.624 89.2135 178.508 82.3525 178.542C77.7373 178.564 76.4572 175.622 75.8171 173.758C75.469 173.826 70.3934 174.612 70.3934 174.612L65.1045 211.735C65.1045 211.735 75.7834 216.541 82.9476 215.969C90.1118 215.396 101.97 212.825 101.97 212.825L95.2436 174.286Z" fill="#6D4392"/>
<path d="M84.0036 199.473C81.2076 199.473 78.9393 197.205 78.9393 194.408C78.9393 191.612 81.2076 189.344 84.0036 189.344C86.7772 189.344 89.0343 191.579 89.068 194.341C89.068 194.319 89.068 194.296 89.068 194.274C89.068 191.062 86.4628 188.457 83.2513 188.457C80.0397 188.457 77.4346 191.062 77.4346 194.274C77.4346 197.485 80.0397 200.09 83.2513 200.09C85.7778 200.09 87.9338 198.473 88.7311 196.216C88.0124 198.114 86.1709 199.473 84.0036 199.473Z" fill="url(#paint0_linear_3009_6304)"/>
<path d="M70.3934 174.623L65.1045 211.735C65.1045 211.735 75.7834 216.542 82.9476 215.969C90.1118 215.396 101.97 212.825 101.97 212.825L101.408 209.512C100.465 209.647 84.7331 211.814 77.0411 205.211C69.1021 198.418 70.3934 174.657 70.3934 174.623Z" fill="#5D3781"/>
<path d="M75.8057 173.77L76.6029 173.691C76.6029 173.691 77.7259 178.216 82.4646 178.014C86.3499 177.846 88.6069 174.814 88.7754 173.624L89.5277 173.567C89.5277 173.567 89.6063 178.497 82.4196 178.845C76.2324 179.137 75.8057 173.77 75.8057 173.77Z" fill="white"/>
<path d="M120.768 152.726C124.861 152.726 128.179 149.156 128.179 144.753C128.179 140.35 124.861 136.78 120.768 136.78C116.675 136.78 113.356 140.35 113.356 144.753C113.356 149.156 116.675 152.726 120.768 152.726Z" fill="#FFEAE6"/>
<path d="M46.2955 152.726C50.3886 152.726 53.7068 149.156 53.7068 144.753C53.7068 140.35 50.3886 136.78 46.2955 136.78C42.2024 136.78 38.8843 140.35 38.8843 144.753C38.8843 149.156 42.2024 152.726 46.2955 152.726Z" fill="#FFEAE6"/>
<path d="M121.677 139.397C121.677 157.049 104.766 171.355 83.9024 171.355C63.0386 171.355 46.1274 157.049 46.1274 139.397C46.1274 129.178 48.5642 114.299 57.3903 108.449C63.8021 104.193 75.3008 98.9717 84.082 98.9717C90.8083 98.9717 103.385 105.844 108.854 108.449C120.352 113.929 121.677 127.438 121.677 139.397Z" fill="#FFEAE6"/>
<path d="M65.767 132.053C68.9336 129.717 73.2007 129.391 76.8726 130.458C77.9506 130.772 78.411 129.088 77.333 128.774C73.2456 127.583 68.4058 127.943 64.8799 130.537C63.9928 131.21 64.8574 132.726 65.767 132.053Z" fill="#8E392F"/>
<path d="M89.9887 131.132C93.4922 129.346 97.7592 129.717 101.207 131.39C102.217 131.884 102.947 130.301 101.936 129.807C98.1074 127.954 93.2676 127.516 89.3598 129.504C88.3829 130.009 88.9893 131.648 89.9887 131.132Z" fill="#8E392F"/>
<path d="M42.8038 143.012C44.6341 142.923 45.6897 144.337 46.1613 145.921V145.932C46.4869 146.92 46.1501 147.987 45.8918 148.975C45.6448 148.2 45.7795 146.662 44.6454 146.707C44.2523 146.639 43.9716 147.268 44.185 147.818C43.3315 147.246 43.3315 145.618 44.7464 145.764C44.286 145.247 44.286 144.427 43.5112 144.304C42.7589 144.416 43.0508 145.427 42.6241 145.943C42.3434 144.944 41.4114 143.102 42.8038 143.012Z" fill="#F9D2CD"/>
<path d="M101.105 159.317C103.871 159.317 106.114 158.151 106.114 156.712C106.114 155.273 103.871 154.107 101.105 154.107C98.3394 154.107 96.0972 155.273 96.0972 156.712C96.0972 158.151 98.3394 159.317 101.105 159.317Z" fill="#F9D2CD"/>
<path d="M66.6991 159.317C69.4651 159.317 71.7073 158.151 71.7073 156.712C71.7073 155.273 69.4651 154.107 66.6991 154.107C63.9332 154.107 61.6909 155.273 61.6909 156.712C61.6909 158.151 63.9332 159.317 66.6991 159.317Z" fill="#F9D2CD"/>
<path d="M71.2134 149.447C75.8895 149.447 79.6802 145.465 79.6802 140.553C79.6802 135.641 75.8895 131.66 71.2134 131.66C66.5373 131.66 62.7466 135.641 62.7466 140.553C62.7466 145.465 66.5373 149.447 71.2134 149.447Z" fill="#42210B"/>
<path d="M68.6416 132.816L68.9336 134.781C68.9336 134.781 72.9985 133.041 76.7041 135.219C76.7154 135.219 72.4146 130.975 68.6416 132.816Z" fill="#190B04"/>
<path d="M65.9916 144.214L64.9023 145.988C64.9023 145.988 67.5187 149.143 72.0216 148.975C72.0216 148.975 67.7433 147.47 65.9916 144.214Z" fill="#683B25"/>
<path d="M96.0972 149.447C100.773 149.447 104.564 145.465 104.564 140.553C104.564 135.641 100.773 131.66 96.0972 131.66C91.4211 131.66 87.6304 135.641 87.6304 140.553C87.6304 145.465 91.4211 149.447 96.0972 149.447Z" fill="#42210B"/>
<path d="M67.5749 139.576C69.0509 139.576 70.2474 138.319 70.2474 136.769C70.2474 135.218 69.0509 133.961 67.5749 133.961C66.0989 133.961 64.9023 135.218 64.9023 136.769C64.9023 138.319 66.0989 139.576 67.5749 139.576Z" fill="white"/>
<path d="M98.6685 132.816L98.3766 134.781C98.3766 134.781 94.3116 133.041 90.606 135.219C90.5947 135.219 94.8955 130.975 98.6685 132.816Z" fill="#190B04"/>
<path d="M99.2639 138.97C100.74 138.97 101.936 137.713 101.936 136.162C101.936 134.612 100.74 133.355 99.2639 133.355C97.7878 133.355 96.5913 134.612 96.5913 136.162C96.5913 137.713 97.7878 138.97 99.2639 138.97Z" fill="white"/>
<path d="M101.319 144.214L102.408 145.988C102.408 145.988 99.7915 149.143 95.2886 148.975C95.2886 148.975 99.5669 147.47 101.319 144.214Z" fill="#683B25"/>
<path d="M87.3162 152.77C87.8665 152.759 88.4055 152.759 88.9557 152.77C89.5621 152.781 90.2021 152.916 90.6401 153.332C91.8865 154.511 90.831 156.779 89.8316 157.733C89.2589 158.284 88.5739 158.733 87.844 159.058C84.4416 160.541 79.7141 160.069 76.8956 157.576C75.7277 156.543 74.5262 153.983 76.5025 153.017C77.2437 152.658 78.3666 152.849 79.1526 152.849C80.4328 152.849 81.7129 152.849 83.0042 152.86C84.4303 152.86 85.8789 152.793 87.3162 152.77Z" fill="#D3471C"/>
<path d="M78.1758 158.508C81.0055 160.17 84.9133 160.338 87.8441 159.069C88.0911 158.957 88.3382 158.834 88.574 158.688C88.3606 156.891 86.1148 155.476 83.3637 155.476C80.7023 155.476 78.5127 156.79 78.1758 158.508Z" fill="#F9785A"/>
<path d="M79.8711 152.849C79.8711 152.849 79.8711 154.892 80.455 154.892C81.0389 154.892 83.2848 154.892 83.2848 154.892L83.3521 152.86L79.8711 152.849Z" fill="white"/>
<path d="M86.8443 152.849C86.8443 152.849 86.8443 154.892 86.2604 154.892C85.6765 154.892 83.4531 154.892 83.4531 154.892L83.3521 152.86L86.8443 152.849Z" fill="white"/>
<path d="M85.7891 146.988C85.7891 147.673 84.9469 148.223 83.9026 148.223C82.8583 148.223 82.0161 147.673 82.0161 146.988C82.0161 146.303 82.8583 144.966 83.9026 144.966C84.9469 144.966 85.7891 146.303 85.7891 146.988Z" fill="#E86262"/>
<path d="M83.9024 171.355C99.0281 171.355 112.065 163.831 118.095 152.973C111.01 160.002 98.781 169.199 83.3185 169.648C61.0959 170.299 51.3603 152.636 46.2959 142.328C48.0364 158.599 64.2064 171.355 83.9024 171.355Z" fill="#F9D2CD"/>
<path d="M123.867 143.596C122.037 143.507 120.981 144.921 120.51 146.505V146.516C120.184 147.504 120.521 148.571 120.779 149.559C121.026 148.784 120.892 147.246 122.026 147.291C122.419 147.223 122.699 147.852 122.486 148.402C123.339 147.83 123.339 146.202 121.925 146.347C122.385 145.831 122.385 145.011 123.16 144.888C123.912 145 123.62 146.011 124.047 146.527C124.328 145.517 125.26 143.675 123.867 143.596Z" fill="#F9D2CD"/>
<path d="M116.018 91.4819C107.978 84.5872 107.798 89.0227 102.397 86.9117C97.2766 84.9129 98.276 78.8828 83.3299 80.1854C28.7674 84.9241 43.2867 129.246 45.8021 135.927C45.7796 136.152 45.7684 136.275 45.7684 136.275L49.2382 141.182L50.8664 141.822C50.8664 135.051 50.7317 129.021 53.9544 122.778C55.0212 120.711 56.6607 118.892 57.1211 116.624C56.7168 118.612 57.1435 124.26 58.8953 125.652C60.6695 127.056 65.6664 125.136 67.8674 124.911C68.878 124.81 71.4607 125.08 72.2243 124.428C73.0665 123.698 73.1451 121.026 73.2686 119.982C73.437 118.511 73.4707 117.006 73.9423 115.613C73.9311 118.544 74.2118 121.486 74.7733 124.361C77.9175 124.069 81.3199 124.35 84.4865 124.417C85.9463 124.451 87.4398 124.586 88.8884 124.507C90.7636 124.417 90.3931 123.901 90.6289 122.093C90.9321 119.779 91.4935 117.511 92.1111 115.254C92.302 114.558 92.4592 112.93 93.3351 113.637C93.9976 114.165 94.5029 115.378 95.0532 116.051C97.6471 119.184 101.016 121.554 104.317 123.867C105.328 124.574 106.338 125.282 107.405 125.899C108.876 126.742 110.437 127.393 111.942 128.168C113.256 128.841 116.4 130.088 116.523 131.66C116.636 132.94 116.523 134.276 116.523 135.568C116.523 137.802 116.523 140.037 116.523 142.271L118.152 141.631L121.61 136.747C121.621 136.769 121.633 136.78 121.633 136.78C121.633 136.78 136.231 108.809 116.018 91.4819Z" fill="#8E392F"/>
<path d="M98.2868 83.7787C98.2868 83.7787 100.521 77.6588 95.2886 74.3687C95.2886 74.3687 102.52 76.7492 100.308 85.6764C100.319 85.6764 98.6686 86.5074 98.2868 83.7787Z" fill="#8E392F"/>
<path d="M100.622 85.3733C100.622 85.3733 102.262 81.8586 105.844 82.6783C105.844 82.6783 101.801 80.6346 98.9717 85.3172C98.9717 85.3172 99.3086 86.3615 100.622 85.3733Z" fill="#8E392F"/>
<path d="M46.2959 111.133C49.2043 88.7984 75.8848 81.1401 78.737 81.2075L78.2317 80.7583C29.6992 87.7653 43.3651 129.459 45.8018 135.927C45.7794 136.152 45.7682 136.275 45.7682 136.275L49.238 141.182L50.8662 141.823C50.8774 141.823 43.0956 135.725 46.2959 111.133Z" fill="#BC524A"/>
<path d="M116.017 91.4819C107.977 84.5872 107.798 89.0227 102.396 86.9116C102.396 86.9116 120.273 95.1426 115.523 129.886C115.883 130.223 116.231 130.537 116.556 130.863V142.271L118.185 141.631L121.643 136.747C121.655 136.769 121.666 136.78 121.666 136.78C121.666 136.78 136.23 108.808 116.017 91.4819Z" fill="#722A25"/>
<path d="M74.7956 124.361C74.7956 124.361 73.8411 117.141 73.9646 115.614L76.7158 124.215L74.7956 124.361Z" fill="#722A25"/>
<path d="M97.6133 152.12C90.6961 152.12 85.0703 146.494 85.0703 139.577C85.0703 132.66 90.6961 127.034 97.6133 127.034C104.53 127.034 110.156 132.66 110.156 139.577C110.156 146.494 104.53 152.12 97.6133 152.12ZM97.6133 128.314C91.4036 128.314 86.3504 133.367 86.3504 139.577C86.3504 145.786 91.4036 150.84 97.6133 150.84C103.823 150.84 108.876 145.786 108.876 139.577C108.876 133.367 103.823 128.314 97.6133 128.314Z" fill="#8C6239"/>
<path d="M67.1704 152.12C60.2533 152.12 54.6274 146.494 54.6274 139.577C54.6274 132.66 60.2533 127.034 67.1704 127.034C74.0876 127.034 79.7134 132.66 79.7134 139.577C79.7022 146.494 74.0764 152.12 67.1704 152.12ZM67.1704 128.314C60.9607 128.314 55.9076 133.367 55.9076 139.577C55.9076 145.786 60.9607 150.84 67.1704 150.84C73.3801 150.84 78.4333 145.786 78.4333 139.577C78.4333 133.367 73.3801 128.314 67.1704 128.314Z" fill="#8C6239"/>
<path d="M85.3059 140.082H79.0737V141.351H85.3059V140.082Z" fill="#8C6239"/>
<path d="M121.857 136.26L109.376 138.953L109.644 140.193L122.124 137.5L121.857 136.26Z" fill="#8C6239"/>
<path d="M45.7211 136.153L45.4595 137.395L54.7441 139.352L55.0058 138.11L45.7211 136.153Z" fill="#8C6239"/>
</g>
<path d="M150 30C144.477 30 140 25.523 140 20C140 14.477 144.477 10 150 10C155.523 10 160 14.477 160 20C160 25.523 155.523 30 150 30ZM150 28C152.122 28 154.157 27.1571 155.657 25.6569C157.157 24.1566 158 22.1217 158 20C158 17.8783 157.157 15.8434 155.657 14.3431C154.157 12.8429 152.122 12 150 12C147.878 12 145.843 12.8429 144.343 14.3431C142.843 15.8434 142 17.8783 142 20C142 22.1217 142.843 24.1566 144.343 25.6569C145.843 27.1571 147.878 28 150 28ZM149.003 24L144.76 19.757L146.174 18.343L149.003 21.172L154.659 15.515L156.074 16.929L149.003 24Z" fill="#4F4F4F"/>
<defs>
<linearGradient id="paint0_linear_3009_6304" x1="77.4503" y1="194.27" x2="89.0751" y2="194.27" gradientUnits="userSpaceOnUse">
<stop offset="0.3763" stop-color="#FBDB1C"/>
<stop offset="0.4914" stop-color="#F9D61D"/>
<stop offset="0.6335" stop-color="#F3C71F"/>
<stop offset="0.7898" stop-color="#EAAD22"/>
<stop offset="0.9552" stop-color="#DD8B27"/>
<stop offset="1" stop-color="#D98028"/>
</linearGradient>
</defs>
</svg>
