<svg width="168" height="191" viewBox="0 0 168 191" fill="none" xmlns="http://www.w3.org/2000/svg">
<rect x="0.5" y="0.5" width="167" height="189" rx="22.8864" fill="url(#paint0_radial_3009_6305)" stroke="#FB1576"/>
<path d="M82.8481 14.625V26H80.5044L75.9341 18.375V26H73.5903V14.625H75.9341L80.5122 22.2578V14.625H82.8481ZM92.9497 16.8047H94.2856C94.2856 17.4453 94.1919 17.9818 94.0044 18.4141C93.8169 18.8464 93.5018 19.1745 93.0591 19.3984C92.6216 19.6172 92.0174 19.7266 91.2466 19.7266L91.2544 18.6797C91.7596 18.6797 92.132 18.612 92.3716 18.4766C92.6164 18.3411 92.7726 18.1354 92.8403 17.8594C92.9132 17.5781 92.9497 17.2266 92.9497 16.8047ZM89.7466 23.9766V17.5469H91.9966V26H89.8794L89.7466 23.9766ZM89.9966 22.2422L90.6606 22.2266C90.6606 22.7891 90.5955 23.3125 90.4653 23.7969C90.3351 24.276 90.1398 24.6927 89.8794 25.0469C89.619 25.3958 89.2909 25.6693 88.895 25.8672C88.4992 26.0599 88.033 26.1562 87.4966 26.1562C87.0851 26.1562 86.7049 26.099 86.356 25.9844C86.0122 25.8646 85.7153 25.6797 85.4653 25.4297C85.2205 25.1745 85.0278 24.849 84.8872 24.4531C84.7518 24.0521 84.6841 23.5703 84.6841 23.0078V17.5469H86.9341V23.0234C86.9341 23.2734 86.9627 23.4844 87.02 23.6562C87.0825 23.8281 87.1685 23.9688 87.2778 24.0781C87.3872 24.1875 87.5148 24.2656 87.6606 24.3125C87.8117 24.3594 87.9784 24.3828 88.1606 24.3828C88.6242 24.3828 88.9888 24.2891 89.2544 24.1016C89.5252 23.9141 89.7153 23.6589 89.8247 23.3359C89.9393 23.0078 89.9966 22.6432 89.9966 22.2422ZM90.0122 14.2031L91.3091 14.2891C91.3091 14.6693 91.2336 15.0156 91.0825 15.3281C90.9315 15.6354 90.7231 15.8828 90.4575 16.0703C90.1919 16.2526 89.8872 16.3438 89.5435 16.3438C89.2935 16.3438 89.0773 16.3099 88.895 16.2422C88.7179 16.1745 88.5539 16.0964 88.4028 16.0078C88.2518 15.9141 88.0955 15.8333 87.9341 15.7656C87.7778 15.6979 87.5981 15.6641 87.395 15.6641C87.2127 15.6641 87.0565 15.7292 86.9263 15.8594C86.8013 15.9896 86.7388 16.1771 86.7388 16.4219L85.4341 16.3516C85.4341 15.9766 85.5096 15.6328 85.6606 15.3203C85.8117 15.0078 86.02 14.7578 86.2856 14.5703C86.5513 14.3776 86.8534 14.2812 87.1919 14.2812C87.4054 14.2812 87.6007 14.3177 87.7778 14.3906C87.9549 14.4583 88.1242 14.5365 88.2856 14.625C88.4523 14.7135 88.6216 14.7917 88.7935 14.8594C88.9653 14.9271 89.1476 14.9609 89.3403 14.9609C89.5226 14.9609 89.6789 14.8958 89.8091 14.7656C89.9445 14.6302 90.0122 14.4427 90.0122 14.2031Z" fill="#FB1576"/>
<mask id="mask0_3009_6305" style="mask-type:alpha" maskUnits="userSpaceOnUse" x="16" y="79" width="136" height="111">
<rect x="16.5654" y="79" width="134.462" height="110.111" fill="#D9D9D9"/>
</mask>
<g mask="url(#mask0_3009_6305)">
<path d="M101.981 189.621C102.302 190.176 102.512 190.818 102.746 191.447C103.585 193.704 104.412 195.962 105.213 198.232C105.435 198.861 105.633 199.502 105.843 200.144C106.077 200.835 106.176 201.39 106.225 202.117C106.262 202.648 106.126 202.907 105.781 203.277C105.115 203.993 104.214 204.313 103.277 204.03C103.03 203.956 102.796 203.808 102.586 203.647C102.068 203.24 101.759 202.414 101.439 201.846C101.056 201.18 100.686 200.514 100.328 199.835C99.0331 197.343 97.5281 195.148 96.6892 192.471C96.3191 191.274 96.06 190.497 96.8866 189.473C97.7007 188.461 99.2181 187.845 100.439 188.276C101.18 188.511 101.636 189.017 101.981 189.621Z" fill="#FCEAE7"/>
<path d="M53.2662 183.194C52.637 183.071 51.9586 183.058 51.2924 183.034C48.8869 182.947 46.4814 182.849 44.0758 182.799C43.4097 182.787 42.7312 182.787 42.065 182.787C41.3372 182.787 40.7821 182.861 40.0666 183.034C39.5608 183.17 39.3511 183.367 39.1044 183.811C38.6356 184.675 38.5986 185.624 39.1784 186.426C39.3264 186.636 39.5361 186.809 39.7582 186.957C40.301 187.314 41.1892 187.351 41.8183 187.487C42.5708 187.648 43.3233 187.796 44.0758 187.919C46.8391 188.375 49.405 189.116 52.2053 189.079C53.4636 189.066 54.2778 189.066 54.9933 187.956C55.6964 186.858 55.8198 185.242 55.0179 184.206C54.5615 183.614 53.9447 183.33 53.2662 183.194Z" fill="#FCEAE7"/>
<path d="M41.584 184.317C41.6087 183.872 41.473 183.404 41.1399 183.108C40.9302 182.91 40.5601 182.762 40.2764 182.701C40.042 182.651 39.7212 182.799 39.5362 182.59C39.2525 182.293 39.4622 181.615 39.4252 181.245C39.3635 180.628 39.0181 180.431 38.8454 179.999C37.8708 179.703 37.4884 182.38 37.4884 182.38C37.4884 182.38 34.096 179.493 33.4052 180.554C32.7144 181.615 35.4529 182.602 35.4529 182.602C35.4529 182.602 32.6774 181.541 32.3566 182.799C32.0359 184.045 35.2309 184.058 35.2309 184.058C35.2309 184.058 32.554 184.292 32.8871 185.414C33.0351 185.896 33.4792 186.031 33.9356 185.994C34.4044 185.97 34.8362 185.735 35.2926 185.711C35.2433 185.735 35.1939 185.748 35.1445 185.772C35.0459 185.822 34.9718 185.908 34.8855 185.994C34.6758 186.204 34.5895 186.377 34.6388 186.685C34.6635 186.821 34.7375 186.944 34.8485 187.006C34.9718 187.055 35.1076 187.031 35.2433 186.993C35.8601 186.784 36.3905 186.105 37.0567 186.118C37.8215 186.13 38.4013 186.796 39.1168 186.919C39.6966 187.018 40.5354 186.586 40.9179 186.155C41.0412 186.019 41.1152 185.846 41.2016 185.686C41.3989 185.266 41.5717 184.835 41.6087 184.378C41.584 184.354 41.584 184.341 41.584 184.317Z" fill="#FCEAE7"/>
<path d="M96.7014 201.353C96.7014 201.353 84.427 186.007 83.7855 183.774C83.144 181.541 84.1186 176.212 89.164 176.952C94.2095 177.692 107.335 190.214 107.335 190.214C107.335 190.214 103.079 197.43 96.7014 201.353Z" fill="#0071BC"/>
<path d="M96.7013 201.353C96.7013 201.353 102.252 198.207 107.335 190.201L105.756 188.746C105.756 188.746 98.638 198.516 95.2456 199.688L96.7013 201.353Z" fill="white"/>
<path d="M49.1704 195.629C49.1704 195.629 44.791 187.043 44.7417 180.924C44.7417 180.924 63.6776 176.903 65.5774 177.248C66.6753 177.445 68.242 178.987 68.5134 180.949C68.6984 182.355 68.5257 184.058 67.5264 185.452C65.417 188.351 49.1704 195.629 49.1704 195.629Z" fill="#0071BC"/>
<path d="M44.7295 180.924C44.7295 180.924 45.3956 188.585 49.1581 195.629L51.3046 194.642C51.3046 194.642 46.95 186.994 46.9623 180.456L44.7295 180.924Z" fill="white"/>
<path d="M76.4338 186.056C84.3412 186.105 88.3875 181.381 89.1276 177.088C89.1276 177.088 84.2179 176.076 77.1987 176.323C71.8695 176.718 67.5888 176.816 66.1455 177.125C66.7993 179.049 69.6243 186.007 76.4338 186.056Z" fill="#EDAC0E"/>
<path d="M89.1646 176.878C89.1646 176.878 76.2857 174.547 67.5024 176.989L67.9836 178.346C67.9836 178.346 75.6689 177.051 87.5362 178.247L89.1646 176.878Z" fill="#4B6329"/>
<path d="M81.3182 175.065C80.9975 174.806 80.7138 174.472 80.4547 174.028C80.2573 173.695 80.0599 173.375 79.8009 173.202C79.5418 173.029 79.3321 173.041 79.0854 173.017C77.8888 172.943 76.7662 173.017 75.5943 173.251C75.4092 173.288 75.2365 173.313 75.1008 173.498C74.9651 173.683 74.9898 174.016 74.9281 174.25C74.6197 175.398 73.2628 175.644 72.2512 175.829C70.8572 176.076 69.6113 176.385 68.2666 176.878C67.6745 177.088 67.0577 177.322 66.6506 177.791C66.1448 178.371 66.0461 179.185 65.9475 179.95C65.6267 182.429 65.454 184.637 65.7131 187.142C65.8734 188.622 66.0461 190.152 66.7986 191.435C67.7485 193.051 69.4756 194.025 71.215 194.716C75.4586 196.394 80.2327 196.714 84.6613 195.604C85.4755 195.394 86.2897 195.148 87.0175 194.716C88.7322 193.692 89.7438 191.768 90.1138 189.806C90.4839 187.845 90.3112 185.834 90.1262 183.836C89.9535 181.923 89.7561 179.925 88.7199 178.297C86.8325 175.41 83.6744 177.014 81.3182 175.065Z" fill="#FFEAE6"/>
<path d="M89.2017 176.878C87.4253 176.619 87.4253 176.619 83.9342 176.15C84.292 178.099 86.0067 184.65 78.272 184.749C70.3645 184.847 71.3514 177.68 71.3021 176.064C68.9335 176.298 68.3784 176.298 66.1456 177.137C65.5905 177.248 63.5674 190.497 63.2713 191.768C62.9506 193.162 62.8025 194.63 62.5805 196.048C62.1487 198.701 61.7169 201.365 61.2852 204.018C60.8287 206.818 60.3723 209.63 59.9282 212.431C59.9282 212.431 70.7963 216.859 77.9266 216.304C85.0445 215.749 96.6281 214.516 96.6281 214.516C96.5417 214.528 95.2094 206.016 95.123 205.51C94.6419 202.611 94.1485 199.7 93.6674 196.801C93.4207 195.321 93.2603 193.791 92.9273 192.335C92.5572 190.806 89.5348 176.989 89.2017 176.878Z" fill="#0071BC"/>
<path d="M85.2166 183.502C86.5735 180.85 85.7347 177.507 85.3646 176.335C84.9575 176.286 84.5011 176.224 83.9336 176.138C84.2914 178.087 86.0061 184.637 78.2714 184.736C70.3639 184.835 71.3508 177.667 71.3014 176.051C70.8203 176.101 70.4256 176.138 70.0678 176.175C69.9321 177.063 69.8458 178.124 69.9075 179.444C70.1665 185.094 75.101 186.722 78.8265 186.722C81.3677 186.71 84.0076 185.846 85.2166 183.502Z" fill="white"/>
<path d="M65.6275 177.236L59.9282 212.419C59.9282 212.419 68.4031 216.564 77.9266 216.292C85.5256 216.07 96.6281 214.504 96.6281 214.504L96.0482 210.309C95.1107 210.445 79.4686 212.604 71.7708 205.733C63.8387 198.627 65.6275 177.261 65.6275 177.236Z" fill="#03537F"/>
<path d="M114.046 131.42C112.738 127.262 110.752 123.315 108.063 119.898C104.066 114.828 98.4408 110.954 92.1494 109.511C88.3128 108.635 84.3283 108.66 80.3931 108.857C71.8565 109.264 62.8018 110.658 56.387 116.296C52.4518 119.75 49.8612 124.536 48.2699 129.532C46.2221 135.935 44.6061 143.978 45.6917 150.713C48.2699 166.331 60.2359 171.66 74.6444 174.534C81.4786 175.904 87.2519 174.645 93.9628 172.844C106.052 169.612 110.715 157.486 114.539 146.926C115.033 145.569 115.502 144.2 115.687 142.769C115.921 141.042 115.748 139.29 115.477 137.575C115.156 135.491 114.675 133.43 114.046 131.42Z" fill="#FFEAE6"/>
<path d="M109.593 144.397C108.902 146.877 107.2 166.183 95.1472 170.254C78.8266 175.768 60.1251 173.399 50.3672 159.163C48.2578 156.079 46.4813 145.088 46.284 141.399C45.9262 143.04 45.8276 144.533 45.7412 145.31C45.6549 146.038 45.5685 150.01 45.6795 150.713C48.7018 169.069 69.9816 177.482 86.919 174.448C93.0007 173.35 99.1688 171.253 104.103 167.404C110.308 162.556 114.971 149.492 114.626 149.27C112.726 148.049 110.789 146.285 109.593 144.397Z" fill="#F9D2CD"/>
<path d="M48.2456 158.325C48.2456 158.325 40.9426 143.065 46.0868 142.473C47.3081 146.433 48.1469 151.947 48.1469 151.947C48.0482 150.084 48.6157 147.975 48.8254 146.124C49.1955 142.917 49.1214 139.167 50.3797 136.157C50.8732 134.96 50.6758 142.966 50.6758 142.966C50.6758 142.966 50.2193 135.552 61.5932 133.282C65.2447 132.554 65.9849 121.773 65.9849 121.748C67.1074 126.288 66.7127 130.951 69.365 132.678C72.5723 134.763 78.1482 133.529 81.6887 133.504C87.7951 133.48 93.9014 133.924 99.9338 134.824C102.993 135.281 106.386 136.07 108.076 138.673C108.816 139.808 109.136 141.153 109.371 142.485C109.507 143.25 109.926 153.958 108.729 153.958L113.935 147.247L110.74 158.349C110.74 158.349 119.894 156.894 122.447 151.022C129.54 134.701 134.006 96.089 93.5684 86.9726C53.1307 77.8562 36.2056 109.227 34.7746 130.803C33.3436 152.391 48.2456 158.325 48.2456 158.325Z" fill="#F15A24"/>
<path d="M34.775 130.803C33.6154 148.197 43.0772 155.426 46.7904 157.585C39.9809 150.972 33.122 139.068 38.8583 119.762C46.445 94.2387 67.0586 87.3059 76.3723 85.4678C48.2337 87.3799 35.984 112.582 34.775 130.803Z" fill="#F97F5A"/>
<path d="M46.2592 142.781C46.2592 142.781 44.6802 140.882 41.3371 141.585C37.9941 142.288 36.0079 145.187 37.8707 149.924C39.7334 154.661 44.3595 156.808 46.2099 156.388C48.0726 155.981 47.6656 155.956 47.6656 155.956L46.2592 142.781Z" fill="#F9D2CD"/>
<path d="M46.8888 148.653C46.8888 148.653 45.2234 146.556 43.8171 146.458C42.3985 146.359 41.0168 147.037 41.2512 148.727C41.4856 150.417 45.6429 153.699 47.1479 150.763L46.8888 148.653Z" fill="#E49087"/>
<path d="M81.0352 153.798C81.0352 154.513 80.147 155.093 79.0491 155.093C77.9512 155.093 77.063 154.513 77.063 153.798C77.063 153.082 77.9512 151.676 79.0491 151.676C80.147 151.676 81.0352 153.082 81.0352 153.798Z" fill="#E86262"/>
<path d="M83.2062 158.609C84.5631 158.609 85.9201 158.609 87.2894 158.621C87.3017 160.533 87.3634 162.334 85.8584 163.778C85.2416 164.357 84.5384 164.838 83.7613 165.171C80.1591 166.738 75.1753 166.245 72.19 163.605C70.7837 162.359 70.6974 160.681 70.389 158.954C70.3766 158.905 70.3766 158.855 70.4013 158.806C70.426 158.757 70.4876 158.744 70.537 158.744C71.894 158.535 73.2016 158.596 74.5709 158.596C75.9279 158.596 77.2848 158.596 78.6418 158.609C80.1715 158.633 81.6888 158.621 83.2062 158.609Z" fill="#C1272D"/>
<path d="M73.5469 164.592C76.5322 166.344 80.6648 166.529 83.7612 165.184C84.0202 165.073 84.2793 164.938 84.526 164.789C84.3039 162.89 81.9231 161.397 79.0241 161.397C76.2115 161.385 73.9046 162.779 73.5469 164.592Z" fill="#E86262"/>
<path d="M75.3359 158.621C75.3359 158.621 75.3359 160.78 75.9527 160.78C76.5695 160.78 78.9504 160.78 78.9504 160.78L79.0244 158.633L75.3359 158.621Z" fill="white"/>
<path d="M82.7129 158.621C82.7129 158.621 82.7129 160.78 82.0961 160.78C81.4793 160.78 79.1354 160.78 79.1354 160.78L79.0244 158.633L82.7129 158.621Z" fill="white"/>
<path d="M87.4864 145.977C87.7331 146.001 87.9551 146.038 88.1648 146.088C88.2759 146.112 88.3992 146.088 88.4609 146.174C88.5349 146.26 88.5966 146.384 88.609 146.593L88.5843 146.655C88.4116 146.766 88.2882 146.778 88.1648 146.766C88.0415 146.754 87.9798 146.63 87.8934 146.544C87.7207 146.384 87.5727 146.211 87.437 146.026L87.4864 145.977Z" fill="#540C0F"/>
<path d="M88.1397 144.212C88.2754 144.52 88.4481 144.779 88.6332 145.014C88.7318 145.125 88.8675 145.199 88.9292 145.335C88.9786 145.47 89.0279 145.618 89.0402 145.865L89.0032 145.914C88.7565 145.951 88.5715 145.865 88.4234 145.754C88.2754 145.643 88.2261 145.446 88.1767 145.273C88.0534 144.927 88.0287 144.57 88.078 144.224L88.1397 144.212Z" fill="#540C0F"/>
<path d="M89.4102 142.473C89.4472 142.917 89.5459 143.349 89.6816 143.743C89.7556 143.941 89.879 144.126 89.9037 144.323C89.9283 144.533 89.9407 144.743 89.879 145.026L89.8173 145.051C89.5582 144.94 89.3855 144.743 89.2745 144.533C89.1511 144.323 89.1635 144.064 89.1635 143.83C89.1388 143.361 89.2005 142.892 89.3485 142.46L89.4102 142.473Z" fill="#540C0F"/>
<path d="M90.8661 140.734C90.6193 141.35 90.607 142.004 90.755 142.596C90.8291 142.892 90.9894 143.152 91.0758 143.435C91.1621 143.719 91.2732 144.003 91.3719 144.36L91.3225 144.41C90.9524 144.311 90.6687 144.04 90.4713 143.731C90.2739 143.423 90.2369 143.028 90.2246 142.683C90.1876 141.967 90.385 141.252 90.8044 140.709L90.8661 140.734Z" fill="#540C0F"/>
<path d="M92.2353 140.795C92.0503 141.313 91.9763 141.856 91.9886 142.362C92.001 142.621 92.075 142.868 92.0626 143.127C92.0503 143.386 92.0256 143.645 91.9516 143.953L91.8899 143.978C91.6309 143.781 91.4828 143.497 91.4088 143.201C91.3348 142.905 91.3965 142.596 91.4582 142.313C91.5692 141.733 91.8159 141.19 92.1737 140.758L92.2353 140.795Z" fill="#540C0F"/>
<path d="M93.7403 140.697C93.4813 140.734 93.4566 141.079 93.3949 141.338C93.3333 141.609 93.3209 141.881 93.3333 142.152C93.3456 142.424 93.4319 142.67 93.4319 142.942C93.4319 143.213 93.432 143.472 93.3703 143.805L93.3086 143.83C93.0249 143.633 92.8645 143.349 92.7781 143.04C92.6794 142.732 92.7535 142.411 92.8028 142.115C92.8645 141.807 92.9509 141.523 93.0742 141.239C93.1482 141.104 93.2099 140.98 93.3086 140.845C93.395 140.721 93.5676 140.586 93.7403 140.647V140.697Z" fill="#540C0F"/>
<path d="M95.0115 141.733C94.8758 142.054 94.8018 142.374 94.7771 142.683C94.7648 142.843 94.8141 142.991 94.7647 143.139C94.7031 143.287 94.6414 143.435 94.481 143.62L94.4193 143.633C94.222 143.485 94.1356 143.287 94.1109 143.09C94.0863 142.893 94.1973 142.707 94.2713 142.535C94.4317 142.189 94.6784 141.893 94.9744 141.684L95.0115 141.733Z" fill="#540C0F"/>
<path d="M96.2083 142.189C96.0233 142.485 95.9123 142.806 95.863 143.114C95.8506 143.274 95.8876 143.422 95.8259 143.558C95.7642 143.706 95.6902 143.842 95.5422 144.039L95.4805 144.052C95.2708 143.904 95.1968 143.694 95.1721 143.496C95.1475 143.287 95.2708 143.102 95.3695 142.941C95.5545 142.596 95.8383 142.312 96.159 142.152L96.2083 142.189Z" fill="#540C0F"/>
<path d="M97.5406 142.905C97.5529 143.238 97.5406 143.571 97.4913 143.904C97.4666 144.065 97.4789 144.25 97.3802 144.385C97.2815 144.521 97.1458 144.644 96.9114 144.718L96.8498 144.694C96.7511 144.472 96.7511 144.299 96.7634 144.139C96.7757 143.978 96.8991 143.867 96.9855 143.731L97.4789 142.893L97.5406 142.905Z" fill="#540C0F"/>
<path d="M93.7902 155.524C96.9719 155.524 99.5512 152.829 99.5512 149.504C99.5512 146.18 96.9719 143.484 93.7902 143.484C90.6085 143.484 88.0293 146.18 88.0293 149.504C88.0293 152.829 90.6085 155.524 93.7902 155.524Z" fill="#FEFEFE"/>
<path d="M93.6791 154.464C96.125 154.464 98.1078 152.481 98.1078 150.035C98.1078 147.589 96.125 145.606 93.6791 145.606C91.2333 145.606 89.2505 147.589 89.2505 150.035C89.2505 152.481 91.2333 154.464 93.6791 154.464Z" fill="#540C0F"/>
<path d="M94.4692 149.665C95.1369 149.665 95.6781 149.124 95.6781 148.456C95.6781 147.788 95.1369 147.247 94.4692 147.247C93.8015 147.247 93.2603 147.788 93.2603 148.456C93.2603 149.124 93.8015 149.665 94.4692 149.665Z" fill="white"/>
<path d="M99.3292 147.864C99.3292 147.864 97.7995 144.052 93.7902 143.941C89.3492 143.83 88.0786 148.74 88.0786 148.74C88.0786 148.74 88.239 143.484 93.7902 143.484C98.5643 143.484 99.3292 147.987 99.3292 147.987" fill="#540C0F"/>
<path d="M69.6114 146.038C69.4757 146.223 69.3153 146.395 69.1549 146.556C69.0686 146.642 69.0069 146.765 68.8835 146.778C68.7602 146.79 68.6368 146.778 68.4641 146.667L68.4395 146.605C68.4641 146.383 68.5258 146.272 68.5875 146.186C68.6615 146.099 68.7848 146.112 68.8835 146.099C69.0932 146.05 69.3153 146.013 69.562 145.988L69.6114 146.038Z" fill="#540C0F"/>
<path d="M68.9827 144.212C69.0444 144.545 69.0074 144.915 68.884 145.261C68.8347 145.433 68.7853 145.631 68.6373 145.742C68.4893 145.853 68.3042 145.939 68.0575 145.902L68.0205 145.853C68.0328 145.606 68.0698 145.458 68.1315 145.322C68.1809 145.187 68.3289 145.113 68.4276 145.002C68.6126 144.779 68.7853 144.508 68.921 144.2L68.9827 144.212Z" fill="#540C0F"/>
<path d="M67.7242 142.473C67.8723 142.905 67.934 143.374 67.9093 143.842C67.8969 144.077 67.9093 144.336 67.7983 144.546C67.6749 144.755 67.5145 144.953 67.2555 145.064L67.1938 145.039C67.1321 144.755 67.1445 144.546 67.1691 144.336C67.1938 144.126 67.3172 143.953 67.3912 143.756C67.5269 143.361 67.6132 142.93 67.6626 142.485L67.7242 142.473Z" fill="#540C0F"/>
<path d="M66.2554 140.708C66.6749 141.239 66.8846 141.967 66.8352 142.682C66.8229 143.04 66.7859 143.422 66.5885 143.731C66.3912 144.039 66.1074 144.311 65.7373 144.409L65.688 144.36C65.799 144.002 65.8977 143.731 65.984 143.435C66.0704 143.151 66.2308 142.892 66.3048 142.596C66.4405 142.004 66.4282 141.35 66.1938 140.733L66.2554 140.708Z" fill="#540C0F"/>
<path d="M64.8869 140.771C65.2446 141.202 65.4913 141.745 65.6024 142.325C65.6641 142.609 65.7381 142.917 65.6517 143.213C65.5654 143.497 65.4297 143.781 65.1706 143.99L65.1089 143.966C65.0226 143.645 65.0103 143.398 64.9979 143.139C64.9856 142.892 65.0596 142.646 65.0719 142.374C65.0843 141.856 65.0102 141.326 64.8252 140.808L64.8869 140.771Z" fill="#540C0F"/>
<path d="M63.3081 140.622C63.4808 140.573 63.6412 140.709 63.7399 140.82C63.8386 140.955 63.9002 141.079 63.9743 141.214C64.0976 141.486 64.1963 141.782 64.2457 142.09C64.3073 142.386 64.369 142.719 64.2703 143.015C64.1716 143.312 64.0236 143.608 63.7399 143.805L63.6782 143.78C63.6165 143.447 63.6165 143.188 63.6165 142.917C63.6165 142.658 63.7028 142.399 63.7152 142.127C63.7275 141.856 63.7029 141.584 63.6535 141.313C63.6042 141.054 63.5672 140.709 63.3081 140.672V140.622Z" fill="#540C0F"/>
<path d="M62.099 141.695C62.3951 141.905 62.6418 142.201 62.8022 142.547C62.8885 142.719 62.9996 142.904 62.9626 143.102C62.9379 143.299 62.8515 143.496 62.6542 143.644L62.5925 143.632C62.4321 143.447 62.3704 143.299 62.3087 143.151C62.2594 143.003 62.2964 142.855 62.2964 142.695C62.2717 142.386 62.1977 142.065 62.062 141.745L62.099 141.695Z" fill="#540C0F"/>
<path d="M60.8897 142.14C61.2104 142.3 61.4941 142.584 61.6792 142.929C61.7779 143.102 61.9012 143.287 61.8766 143.484C61.8519 143.682 61.7779 143.891 61.5682 144.039L61.5065 144.027C61.3461 143.83 61.2844 143.694 61.2227 143.546C61.1611 143.41 61.2104 143.25 61.1857 143.102C61.1364 142.793 61.0377 142.485 60.8403 142.177L60.8897 142.14Z" fill="#540C0F"/>
<path d="M59.5826 142.88L60.076 143.719C60.1624 143.854 60.2858 143.965 60.2981 144.126C60.3104 144.286 60.3104 144.459 60.2117 144.681L60.1501 144.706C59.9157 144.632 59.7923 144.508 59.6813 144.373C59.5826 144.237 59.5949 144.052 59.5703 143.891C59.5209 143.558 59.4962 143.225 59.5209 142.892L59.5826 142.88Z" fill="#540C0F"/>
<path d="M63.2707 155.524C66.4524 155.524 69.0317 152.829 69.0317 149.504C69.0317 146.18 66.4524 143.484 63.2707 143.484C60.089 143.484 57.5098 146.18 57.5098 149.504C57.5098 152.829 60.089 155.524 63.2707 155.524Z" fill="#FEFEFE"/>
<path d="M63.3823 154.463C65.8281 154.463 67.8109 152.48 67.8109 150.035C67.8109 147.589 65.8281 145.606 63.3823 145.606C60.9364 145.606 58.9536 147.589 58.9536 150.035C58.9536 152.48 60.9364 154.463 63.3823 154.463Z" fill="#540C0F"/>
<path d="M62.5927 149.664C63.2604 149.664 63.8017 149.123 63.8017 148.456C63.8017 147.788 63.2604 147.247 62.5927 147.247C61.925 147.247 61.3838 147.788 61.3838 148.456C61.3838 149.123 61.925 149.664 62.5927 149.664Z" fill="white"/>
<path d="M57.7324 147.864C57.7324 147.864 59.2621 144.052 63.2713 143.941C67.7123 143.83 68.983 148.74 68.983 148.74C68.983 148.74 68.8226 143.484 63.2713 143.484C58.4973 143.484 57.7324 147.987 57.7324 147.987" fill="#540C0F"/>
<path d="M122.447 151.021C130.244 136.181 133.402 100.48 100.168 88.8599C100.255 88.9832 115.786 110.534 108.076 138.685C108.816 139.82 109.137 141.165 109.371 142.497C109.482 143.163 109.815 151.342 109.112 153.464C109.778 152.6 113.935 147.247 113.935 147.247L110.74 158.349C110.74 158.349 118.821 157.917 122.447 151.021Z" fill="#C93F14"/>
<path d="M109.113 153.464C109.063 153.538 108.718 153.97 108.718 153.97C108.878 153.958 109.014 153.785 109.113 153.464Z" fill="#C93F14"/>
<path d="M113.343 142.781C113.343 142.781 114.922 140.882 118.265 141.585C121.608 142.288 123.594 145.187 121.732 149.924C119.869 154.661 115.243 156.808 113.392 156.388C111.53 155.981 110.888 155.981 110.888 155.981L113.343 142.781Z" fill="#F9D2CD"/>
<path d="M112.714 148.653C112.714 148.653 114.379 146.556 115.785 146.458C117.204 146.359 118.586 147.037 118.351 148.727C118.117 150.417 113.96 153.699 112.455 150.763L112.714 148.653Z" fill="#E49087"/>
<path d="M128.25 129.877C130.112 129.569 130.958 125.309 130.14 120.362C129.323 115.415 127.15 111.654 125.288 111.962C123.426 112.27 122.58 116.53 123.398 121.477C124.216 126.424 126.388 130.185 128.25 129.877Z" fill="#FBD427"/>
<path d="M133.661 116.813C136.819 116.69 139.866 116.739 142.79 118.257C144.702 119.244 146.416 120.872 147.354 123.105C147.983 124.585 148.242 126.275 148.415 127.941C148.822 131.74 148.822 135.712 147.724 139.413C147.342 140.708 146.811 141.991 145.972 142.929C145.133 143.866 143.937 144.446 142.876 144.138C141.827 143.842 141.087 142.806 140.409 141.819C139.743 140.844 139.015 139.894 138.41 138.858C138.41 140.375 138.435 144.742 136.264 143.879C134.759 143.287 134.253 141.091 133.994 139.401C133.772 137.933 133.686 136.415 133.686 134.898C133.686 134.109 133.76 133.615 133.513 132.863C133.254 132.11 132.958 131.37 132.563 130.716C131.872 129.569 130.922 128.705 130.009 127.83C129.097 126.954 128.171 126.016 127.579 124.795C126.987 123.574 126.765 121.982 127.283 120.625C127.814 119.256 128.961 118.392 130.071 117.714C130.503 117.443 130.947 117.184 131.416 117.035C131.909 116.875 132.427 116.85 132.933 116.826C133.143 116.838 133.402 116.826 133.661 116.813Z" fill="#C93F14"/>
<path d="M136.251 143.891C136.251 143.891 134.24 140.77 134.783 138.143C135.326 135.515 134.29 131.284 131.859 128.484C130.761 127.225 129.33 126.325 128.084 125.708C128.627 126.51 129.306 127.201 129.984 127.842C130.897 128.718 131.847 129.582 132.538 130.729C132.933 131.383 133.241 132.123 133.488 132.875C133.734 133.615 133.66 134.109 133.66 134.911C133.66 136.416 133.747 137.945 133.969 139.413C134.24 141.116 134.746 143.312 136.251 143.891Z" fill="#AF310E"/>
<path d="M146.934 141.436L147.748 139.302C148.809 135.638 148.821 131.691 148.414 127.941C148.229 126.263 147.97 124.585 147.353 123.105C146.416 120.872 144.701 119.244 142.789 118.257C139.865 116.739 136.818 116.69 133.66 116.813C133.401 116.826 133.155 116.838 132.896 116.85C132.575 116.863 132.242 116.9 131.921 116.949C131.872 117.023 131.859 117.06 131.859 117.06C131.859 117.06 144.294 117.035 145.996 123.339C147.662 129.52 146.946 141.066 146.922 141.498C146.922 141.473 146.934 141.461 146.934 141.436Z" fill="#F97F5A"/>
<path d="M43.1483 115.914C43.9661 110.967 43.1197 106.707 41.2578 106.399C39.3959 106.091 37.2235 109.852 36.4056 114.8C35.5878 119.747 36.4342 124.007 38.2961 124.315C40.158 124.622 42.3304 120.862 43.1483 115.914Z" fill="#FBD427"/>
<path d="M33.6643 111.262C34.17 111.286 34.6758 111.311 35.1816 111.472C35.6503 111.62 36.0821 111.879 36.5262 112.15C37.6365 112.841 38.7837 113.704 39.3142 115.061C39.8323 116.418 39.6102 117.997 39.0181 119.231C38.426 120.452 37.5131 121.39 36.5879 122.266C35.675 123.141 34.7251 124.005 34.0343 125.152C33.6396 125.806 33.3312 126.546 33.0845 127.299C32.8377 128.039 32.9117 128.532 32.9117 129.334C32.9117 130.839 32.8254 132.369 32.6033 133.837C32.3443 135.539 31.8385 137.723 30.3335 138.315C28.1623 139.166 28.187 134.811 28.187 133.294C27.5826 134.318 26.8547 135.28 26.1886 136.255C25.5101 137.242 24.7699 138.278 23.7214 138.574C22.6481 138.882 21.4639 138.315 20.625 137.365C19.7862 136.415 19.2557 135.144 18.8733 133.849C17.7754 130.148 17.7754 126.176 18.1824 122.377C18.3675 120.699 18.6266 119.021 19.2434 117.541C20.1809 115.308 21.8956 113.68 23.8077 112.693C26.7314 111.175 29.7784 111.126 32.9364 111.249C33.1461 111.237 33.4052 111.249 33.6643 111.262Z" fill="#F15A24"/>
<path d="M30.2969 138.303C30.2969 138.303 32.3077 135.182 31.7649 132.554C31.2221 129.926 32.2583 125.695 34.6885 122.895C35.7864 121.636 37.2174 120.736 38.4634 120.119C37.9206 120.921 37.2421 121.612 36.5636 122.253C35.6508 123.129 34.7009 123.993 34.01 125.14C33.6153 125.794 33.3069 126.534 33.0601 127.286C32.8134 128.027 32.8875 128.52 32.8875 129.322C32.8875 130.827 32.8011 132.357 32.5791 133.825C32.3077 135.527 31.8019 137.71 30.2969 138.303Z" fill="#AF310E"/>
<path d="M19.613 135.848L18.7988 133.714C17.7379 130.05 17.7256 126.103 18.1326 122.353C18.3177 120.675 18.5767 118.997 19.1935 117.517C20.1311 115.284 21.8458 113.656 23.7579 112.669C26.6816 111.152 29.7286 111.102 32.8866 111.226C33.1457 111.238 33.3924 111.25 33.6514 111.263C33.9722 111.275 34.3052 111.312 34.626 111.361C34.6753 111.435 34.6877 111.472 34.6877 111.472C34.6877 111.472 22.2529 111.448 20.5505 117.751C18.8851 123.932 19.6006 135.478 19.6253 135.91C19.6253 135.873 19.613 135.861 19.613 135.848Z" fill="#F97F5A"/>
<path d="M43.4714 125.116C43.4714 125.116 45.0751 108.684 81.9353 107.5C118.796 106.315 120.917 125.177 120.917 125.177C120.917 125.177 122.644 100.246 81.9353 100.9C41.2262 101.554 43.4714 125.116 43.4714 125.116Z" fill="#FBD427"/>
<path d="M115.835 113.274L111.122 109.931L105.731 109.832C105.731 109.832 109.987 118.43 111.172 118.319C112.356 118.208 114.145 116.592 115.835 113.274Z" fill="#3492CF"/>
<path d="M115.835 113.274L111.122 109.931L105.731 109.832C105.731 109.832 106.644 111.682 107.742 113.656C106.558 109.252 113.923 115.951 113.417 116.888C114.206 116.062 115.033 114.865 115.835 113.274Z" fill="#3C99D4"/>
<path d="M115.835 113.274L111.122 109.931L105.731 109.832C105.731 109.832 106.237 110.856 106.953 112.188C106.237 108.586 113.997 115.186 114.021 116.185C114.613 115.433 115.23 114.47 115.835 113.274Z" fill="#2AAFE5"/>
<path d="M119.005 107.858C118.364 106.403 111.135 105.539 107.002 106.723L105.731 109.844C111.418 111.312 114.897 116.864 115.576 116.333C117.525 114.816 119.659 109.375 119.005 107.858Z" fill="#3492CF"/>
<path d="M112.578 106.18C110.629 106.119 108.581 106.267 107.002 106.723L105.731 109.844C111.418 111.312 114.897 116.863 115.576 116.333C116.612 115.531 117.697 113.619 118.401 111.769C117.081 114.31 113.91 113.101 111.936 111.719C108.149 109.067 113.145 110.091 112.356 109.622C110.246 108.376 112.923 108.043 112.257 107.735C109.765 106.587 110.987 106.538 112.578 106.18Z" fill="#3C99D4"/>
<path d="M109.112 106.316C108.359 106.403 107.643 106.538 107.002 106.723L105.731 109.844C110.962 111.325 115.058 116.74 115.576 116.333C116.229 115.827 116.896 114.89 117.475 113.804C116.328 115.359 114.798 114.199 111.776 112.324C104.436 107.76 111.936 109.832 111.073 109.511C107.779 108.278 112.097 107.846 111.295 107.71C106.903 106.958 110.222 106.181 109.112 106.316Z" fill="#2AAFE5"/>
<path d="M119.005 107.858C118.66 107.069 116.39 106.452 113.725 106.242C113.108 106.193 111.48 106.513 112.726 107.698C113.515 108.438 113.047 109.98 113.589 110.498C117.759 114.421 119.659 109.375 119.005 107.858Z" fill="#2AAFE5"/>
<path d="M118.833 108.475C118.734 107.316 115.675 106.699 113.997 106.723C112.652 106.748 116.156 108.191 116.501 109.77C116.859 111.349 119.005 110.375 118.833 108.475Z" fill="#44C2F1"/>
<path d="M112.221 117.172C111.949 117.407 110.95 116.691 109.975 115.581C109.001 114.471 108.433 113.373 108.692 113.138C108.964 112.904 109.963 113.619 110.938 114.73C111.925 115.852 112.492 116.938 112.221 117.172Z" fill="#44C2F1"/>
<path d="M111.036 117.024C110.851 117.16 110.382 116.827 110 116.284C109.605 115.741 109.445 115.198 109.63 115.063C109.815 114.927 110.284 115.26 110.666 115.803C111.049 116.345 111.209 116.888 111.036 117.024Z" fill="#44C2F1"/>
<path d="M106.718 107.414C106.903 106.933 110.95 107.636 110.012 107.871C109.087 108.105 107.68 107.562 107.68 107.562C107.68 107.562 109.543 108.524 109.296 108.759C109.05 108.981 106.583 107.784 106.718 107.414Z" fill="#1C4480"/>
<path d="M106.459 108.056L106.176 108.746C106.213 109.376 107.977 110.227 108.248 109.943C108.483 109.709 106.78 109.252 106.62 108.586C106.706 108.944 107.94 109.24 108.15 109.24C108.853 109.24 107.237 108.302 106.459 108.056Z" fill="#1C4480"/>
<path d="M105.731 109.844C105.731 109.844 105.793 109.869 105.916 109.894C106.04 109.931 106.225 109.98 106.447 110.054C106.891 110.214 107.532 110.449 108.26 110.819C108.988 111.189 109.815 111.67 110.641 112.274C111.468 112.867 112.307 113.57 113.121 114.298C113.516 114.668 113.91 115.038 114.305 115.408C114.502 115.593 114.7 115.766 114.897 115.926C114.996 116.012 115.095 116.086 115.206 116.148C115.304 116.21 115.428 116.271 115.489 116.259C115.502 116.259 115.514 116.259 115.526 116.247L115.6 116.185C115.65 116.148 115.699 116.111 115.748 116.062C115.835 115.975 115.921 115.901 116.007 115.815C116.18 115.642 116.328 115.457 116.464 115.272C116.748 114.902 116.982 114.544 117.192 114.187C117.611 113.496 117.907 112.879 118.104 112.447C118.302 112.015 118.401 111.769 118.401 111.769C118.401 111.769 118.376 111.83 118.339 111.954C118.302 112.077 118.228 112.25 118.142 112.472C117.969 112.916 117.697 113.545 117.303 114.261C117.105 114.618 116.871 115.001 116.6 115.383C116.464 115.568 116.316 115.766 116.143 115.951C116.057 116.049 115.97 116.136 115.872 116.222C115.822 116.271 115.773 116.308 115.724 116.345L115.65 116.407C115.613 116.432 115.563 116.469 115.514 116.469C115.317 116.493 115.206 116.407 115.082 116.333C114.971 116.259 114.86 116.185 114.749 116.099C114.539 115.938 114.342 115.753 114.145 115.581C113.75 115.223 113.355 114.853 112.948 114.483C112.146 113.755 111.332 113.052 110.518 112.447C109.704 111.843 108.914 111.325 108.199 110.942C107.483 110.56 106.866 110.276 106.422 110.103C105.991 109.931 105.731 109.844 105.731 109.844Z" fill="#1C4480"/>
<path d="M119.005 107.858C119.005 107.858 118.993 107.846 118.968 107.809C118.944 107.772 118.907 107.723 118.845 107.673C118.82 107.649 118.783 107.624 118.759 107.587C118.722 107.562 118.685 107.538 118.635 107.501C118.549 107.439 118.438 107.39 118.327 107.328C118.204 107.279 118.08 107.217 117.932 107.168C117.796 107.118 117.636 107.069 117.488 107.02C117.18 106.921 116.834 106.835 116.489 106.761C116.316 106.724 116.143 106.687 115.971 106.65C115.798 106.625 115.638 106.576 115.477 106.551C115.157 106.489 114.848 106.44 114.589 106.391C114.33 106.341 114.108 106.304 113.96 106.279C113.812 106.255 113.726 106.23 113.726 106.23C113.726 106.23 114.083 106.218 114.614 106.242C114.885 106.255 115.194 106.279 115.527 106.329C115.86 106.366 116.205 106.44 116.563 106.514C116.736 106.563 116.908 106.6 117.081 106.65C117.254 106.699 117.414 106.748 117.574 106.81C117.735 106.872 117.883 106.933 118.019 106.995C118.154 107.057 118.29 107.131 118.401 107.205C118.512 107.279 118.623 107.353 118.697 107.427C118.734 107.464 118.771 107.501 118.808 107.538C118.845 107.575 118.87 107.612 118.894 107.636C118.944 107.698 118.968 107.76 118.981 107.797C118.993 107.846 119.005 107.858 119.005 107.858Z" fill="#1C4480"/>
<path d="M105.731 109.844C105.731 109.844 106.163 110.609 106.792 111.769C107.113 112.348 107.496 113.015 107.903 113.73C108.31 114.446 108.754 115.198 109.223 115.938C109.457 116.308 109.691 116.678 109.938 117.024C110.185 117.369 110.444 117.715 110.728 117.986C110.802 118.048 110.876 118.109 110.95 118.159C111.024 118.208 111.11 118.233 111.159 118.233C111.258 118.22 111.357 118.196 111.443 118.183C111.529 118.159 111.616 118.122 111.702 118.097C112.035 117.961 112.344 117.764 112.59 117.567C112.849 117.369 113.071 117.16 113.269 116.987C113.454 116.789 113.614 116.629 113.75 116.481C113.997 116.185 114.145 116.025 114.145 116.025C114.145 116.025 114.009 116.197 113.787 116.506C113.664 116.654 113.515 116.839 113.343 117.036C113.158 117.234 112.948 117.456 112.689 117.665C112.43 117.875 112.134 118.085 111.776 118.257C111.677 118.294 111.591 118.331 111.492 118.368C111.394 118.393 111.307 118.405 111.209 118.43C111.061 118.455 110.95 118.393 110.851 118.344C110.752 118.282 110.678 118.22 110.592 118.146C110.271 117.85 110.012 117.517 109.753 117.16C109.494 116.802 109.247 116.444 109.013 116.074C108.544 115.321 108.112 114.557 107.705 113.841C107.31 113.113 106.965 112.435 106.657 111.843C106.361 111.251 106.126 110.757 105.966 110.412C105.818 110.042 105.731 109.844 105.731 109.844Z" fill="#1C4480"/>
<path d="M95.7887 101.271L100.958 103.849L103.585 108.561C103.585 108.561 93.9999 108.87 93.5312 107.772C93.0871 106.674 93.6669 104.33 95.7887 101.271Z" fill="#3492CF"/>
<path d="M95.7881 101.271L100.957 103.849L103.584 108.561C103.584 108.561 101.524 108.623 99.2669 108.586C103.708 107.55 94.32 104.219 93.7402 105.107C94.1103 104.034 94.7765 102.739 95.7881 101.271Z" fill="#3C99D4"/>
<path d="M95.7885 101.271L100.957 103.849L103.585 108.561C103.585 108.561 102.438 108.598 100.933 108.598C104.436 107.525 94.9743 103.799 94.0737 104.256C94.4561 103.38 95.0236 102.368 95.7885 101.271Z" fill="#2AAFE5"/>
<path d="M99.0701 95.9286C100.661 95.8053 104.831 101.764 105.744 105.97L103.597 108.561C99.6128 104.243 93.0871 103.787 93.2228 102.948C93.6299 100.505 97.417 96.0643 99.0701 95.9286Z" fill="#3492CF"/>
<path d="M103.585 100.789C104.56 102.479 105.399 104.342 105.744 105.958L103.597 108.549C99.6128 104.231 93.0871 103.775 93.2228 102.936C93.4448 101.64 94.6168 99.7777 95.912 98.2974C94.296 100.666 96.8619 102.886 99.0084 103.972C103.141 106.057 99.8719 102.134 100.661 102.615C102.759 103.886 101.796 101.369 102.376 101.813C104.547 103.466 104.017 102.368 103.585 100.789Z" fill="#2AAFE5"/>
<path d="M105.102 103.923C105.374 104.626 105.596 105.317 105.744 105.971L103.597 108.561C99.8223 104.651 93.1115 103.59 93.2226 102.949C93.3582 102.134 93.8763 101.098 94.5548 100.074C93.716 101.826 95.4677 102.628 98.5518 104.404C106.04 108.722 100.661 103.084 101.364 103.701C104.004 106.02 102.351 102.011 102.845 102.652C105.571 106.168 104.695 102.875 105.102 103.923Z" fill="#3C99D4"/>
<path opacity="0.3" d="M99.0699 95.9291C99.9211 95.855 101.537 97.5698 102.993 99.8273C103.326 100.345 103.807 101.937 102.179 101.394C101.155 101.049 100.007 102.183 99.3043 101.949C93.8764 100.123 97.4169 96.0648 99.0699 95.9291Z" fill="white"/>
<path d="M98.6006 96.3609C99.6739 95.9044 101.672 98.31 102.425 99.7903C103.042 100.987 100.106 98.5814 98.5513 99.0255C96.997 99.4696 96.8489 97.1134 98.6006 96.3609Z" fill="#44C2F1"/>
<path d="M94.0607 106.304C93.9866 106.649 95.0846 107.204 96.5279 107.537C97.9712 107.87 99.2048 107.858 99.2788 107.513C99.3528 107.167 98.2549 106.612 96.8116 106.279C95.3683 105.946 94.1347 105.946 94.0607 106.304Z" fill="#44C2F1"/>
<path d="M94.7645 107.278C94.7399 107.5 95.2456 107.759 95.8994 107.845C96.5532 107.932 97.1207 107.821 97.1454 107.599C97.1701 107.377 96.6643 107.118 96.0105 107.031C95.3443 106.945 94.7892 107.056 94.7645 107.278Z" fill="#44C2F1"/>
<path d="M105.262 106.538C105.607 106.143 103.066 102.924 103.3 103.849C103.535 104.774 104.67 105.761 104.67 105.761C104.67 105.761 102.943 104.577 102.856 104.897C102.782 105.231 105.003 106.834 105.262 106.538Z" fill="#1C4480"/>
<path d="M104.831 107.068L104.362 107.636C103.794 107.895 102.215 106.748 102.326 106.365C102.425 106.044 103.622 107.327 104.288 107.167C103.93 107.253 103.091 106.303 102.992 106.131C102.647 105.526 104.226 106.501 104.831 107.068Z" fill="#1C4480"/>
<path d="M103.597 108.561C103.597 108.561 103.4 108.376 103.042 108.068C102.684 107.759 102.142 107.352 101.463 106.908C100.785 106.464 99.958 106.008 99.0452 105.576C98.1323 105.144 97.1208 104.749 96.0969 104.392C95.5911 104.207 95.073 104.034 94.5672 103.849C94.3205 103.763 94.0614 103.664 93.8147 103.565C93.6913 103.516 93.568 103.454 93.457 103.393C93.3459 103.319 93.2102 103.257 93.1362 103.072C93.1239 103.022 93.1239 102.961 93.1362 102.924L93.1609 102.825C93.1732 102.763 93.1855 102.702 93.1979 102.64C93.2349 102.517 93.2719 102.393 93.3089 102.27C93.3953 102.036 93.4939 101.814 93.5926 101.604C93.8023 101.184 94.0244 100.802 94.2464 100.457C94.6905 99.7657 95.1223 99.2353 95.4184 98.8775C95.5787 98.6925 95.7021 98.5568 95.7885 98.4581C95.8748 98.3594 95.9242 98.3101 95.9242 98.3101C95.9242 98.3101 95.7515 98.5198 95.4677 98.9022C95.184 99.2846 94.7892 99.8397 94.3698 100.531C94.1601 100.876 93.9504 101.258 93.7654 101.69C93.679 101.9 93.5803 102.122 93.5063 102.344C93.4693 102.455 93.4323 102.578 93.4076 102.689C93.3953 102.751 93.3829 102.813 93.3706 102.874L93.3459 102.973C93.3459 102.998 93.3459 102.998 93.3459 103.01C93.3706 103.072 93.4693 103.146 93.568 103.207C93.679 103.269 93.79 103.319 93.901 103.368C94.1354 103.467 94.3822 103.553 94.6412 103.639C95.147 103.812 95.6651 103.985 96.1709 104.157C97.1948 104.527 98.2063 104.935 99.1315 105.379C100.057 105.823 100.871 106.329 101.537 106.785C102.203 107.254 102.721 107.698 103.067 108.031C103.239 108.191 103.375 108.327 103.462 108.413C103.548 108.512 103.597 108.561 103.597 108.561Z" fill="#1C4480"/>
<path d="M99.0693 95.9289C99.0693 95.9289 99.094 95.9289 99.131 95.9289C99.168 95.9289 99.2297 95.9165 99.3161 95.9412C99.3531 95.9535 99.4024 95.9535 99.4518 95.9659C99.5011 95.9782 99.5504 96.0029 99.5998 96.0152C99.6985 96.0522 99.8219 96.1016 99.9329 96.1756C100.044 96.2496 100.18 96.3236 100.291 96.4223C100.414 96.5087 100.537 96.6197 100.661 96.7307C100.784 96.8417 100.907 96.9651 101.031 97.0885C101.154 97.2118 101.278 97.3475 101.389 97.4832C101.623 97.7546 101.845 98.0383 102.03 98.3097C102.227 98.5811 102.4 98.8402 102.536 99.0622C102.82 99.5187 102.968 99.8394 102.968 99.8394C102.968 99.8394 102.906 99.7654 102.819 99.6544C102.721 99.531 102.585 99.3583 102.425 99.1486C102.264 98.9389 102.067 98.7045 101.857 98.4454C101.759 98.3097 101.648 98.1864 101.537 98.0507C101.426 97.915 101.315 97.7916 101.191 97.6559C100.957 97.3845 100.722 97.1378 100.488 96.9034C100.365 96.7924 100.254 96.6814 100.143 96.5827C100.032 96.484 99.9205 96.3976 99.8218 96.3113C99.7108 96.2373 99.6121 96.1633 99.5258 96.1139C99.4764 96.0892 99.4394 96.0646 99.3901 96.0399C99.3531 96.0276 99.3037 96.0152 99.279 96.0029C99.205 95.9782 99.1434 95.9659 99.1064 95.9659C99.0817 95.9289 99.0693 95.9289 99.0693 95.9289Z" fill="#1C4480"/>
<path d="M103.597 108.561C103.597 108.561 103.375 108.574 102.993 108.598C102.61 108.611 102.055 108.648 101.401 108.66C100.747 108.672 99.9702 108.697 99.1437 108.685C98.3172 108.672 97.4414 108.648 96.5532 108.598C96.1091 108.561 95.6773 108.524 95.2456 108.463C94.8138 108.401 94.3943 108.327 93.9872 108.191C93.8886 108.154 93.7899 108.117 93.6912 108.055C93.6048 107.994 93.4938 107.932 93.4445 107.784C93.4198 107.685 93.3951 107.599 93.3581 107.5C93.3458 107.402 93.3334 107.303 93.3211 107.204C93.2964 106.81 93.3334 106.452 93.4074 106.119C93.4691 105.786 93.5678 105.502 93.6542 105.243C93.7529 104.996 93.8392 104.774 93.9132 104.601C94.0736 104.256 94.1723 104.059 94.1723 104.059C94.1723 104.059 94.0983 104.268 93.9626 104.626C93.9009 104.811 93.8269 105.033 93.7529 105.28C93.6912 105.539 93.6048 105.823 93.5555 106.156C93.5061 106.476 93.4691 106.834 93.5061 107.192C93.5185 107.278 93.5308 107.365 93.5432 107.463C93.5678 107.55 93.6048 107.648 93.6418 107.747C93.6542 107.796 93.7282 107.858 93.8022 107.895C93.8762 107.944 93.9749 107.981 94.0613 108.006C94.4437 108.13 94.8631 108.204 95.2825 108.253C95.7019 108.302 96.146 108.339 96.5778 108.376C97.4537 108.438 98.3295 108.475 99.1437 108.5C99.9702 108.524 100.735 108.549 101.389 108.549C102.709 108.549 103.597 108.561 103.597 108.561Z" fill="#1C4480"/>
<path d="M105.608 105.403C106.126 104.971 107.779 105.847 107.557 106.575C107.298 107.414 106.188 109.647 105.769 109.881C105.152 110.227 103.684 109.314 103.523 108.561C103.388 107.957 105.201 105.749 105.608 105.403Z" fill="#3492CF"/>
<path d="M106.151 105.304C106.546 105.366 107.015 105.6 107.298 105.896C107.397 105.995 106.62 108.573 105.324 108.018C104.251 107.549 106.04 105.292 106.151 105.304Z" fill="#3C99D4"/>
<path d="M106.755 105.502C106.965 105.613 106.94 107.71 105.941 107.019C105.263 106.538 106.558 105.403 106.755 105.502Z" fill="#44C2F1"/>
<path d="M105.608 105.403C102.771 109.153 105.46 110.856 107.557 106.575C107.298 107.414 106.188 109.647 105.769 109.881C105.152 110.227 103.684 109.314 103.523 108.561C103.388 107.957 105.201 105.749 105.608 105.403Z" fill="#1565B0"/>
<path d="M107.545 106.575C107.545 106.575 107.508 106.736 107.409 107.007C107.31 107.278 107.175 107.661 106.965 108.105C106.866 108.327 106.743 108.574 106.62 108.82C106.484 109.067 106.348 109.339 106.163 109.598C106.064 109.721 105.991 109.857 105.818 109.98C105.67 110.066 105.448 110.091 105.287 110.066C104.942 110.017 104.621 109.881 104.337 109.696C104.054 109.511 103.795 109.289 103.597 109.005C103.499 108.87 103.425 108.697 103.4 108.512C103.412 108.29 103.474 108.154 103.536 108.006C103.671 107.723 103.832 107.463 104.004 107.241C104.165 107.007 104.325 106.797 104.485 106.6C104.794 106.218 105.078 105.921 105.275 105.712C105.472 105.502 105.608 105.403 105.608 105.403C105.608 105.403 105.485 105.514 105.312 105.736C105.127 105.958 104.88 106.279 104.596 106.674C104.461 106.871 104.3 107.093 104.152 107.328C104.004 107.562 103.856 107.821 103.733 108.093C103.671 108.216 103.622 108.389 103.622 108.487C103.634 108.611 103.696 108.746 103.782 108.87C103.955 109.116 104.202 109.326 104.461 109.499C104.72 109.672 105.016 109.807 105.312 109.844C105.46 109.857 105.571 109.857 105.707 109.795C105.805 109.733 105.904 109.598 105.99 109.487C106.336 108.993 106.62 108.5 106.842 108.068C107.064 107.636 107.249 107.266 107.372 107.007C107.495 106.736 107.545 106.575 107.545 106.575Z" fill="#1C4480"/>
<path opacity="0.3" d="M100.834 106.316C99.3905 105.415 97.8855 104.811 96.6025 104.367C96.7876 102.27 97.1823 100.185 97.7374 98.1619C97.9101 97.5081 98.1076 96.8542 98.3173 96.2004C98.601 96.0524 98.8477 95.9537 99.0698 95.9414C99.8593 95.8797 101.278 97.3107 102.623 99.2845C101.685 101.517 101.081 103.898 100.834 106.316ZM117.833 111.497C117.549 110.325 117.451 109.129 117.426 107.92C117.414 107.574 117.426 107.241 117.426 106.896C115.995 106.439 113.787 106.156 111.591 106.168C111.159 108.302 111.097 110.523 111.221 112.718C113.651 114.643 115.156 116.654 115.575 116.333C116.476 115.63 117.426 114.088 118.104 112.484C118.006 112.163 117.919 111.83 117.833 111.497Z" fill="white"/>
<path d="M69.2163 139.562C65.4538 136.799 60.6551 137.564 57.2503 140.45C56.5225 141.067 57.571 142.128 58.3112 141.511C61.2472 139.019 65.2811 138.514 68.4762 140.857C69.241 141.413 69.9935 140.117 69.2163 139.562Z" fill="#F15A24"/>
<path d="M88.5601 140.845C91.7552 138.501 95.7891 139.007 98.7251 141.499C99.4529 142.115 100.514 141.067 99.786 140.438C96.3812 137.551 91.5825 136.786 87.82 139.55C87.0428 140.117 87.783 141.412 88.5601 140.845Z" fill="#F15A24"/>
<path d="M63.2712 162.47C65.5263 162.47 67.3545 161.52 67.3545 160.348C67.3545 159.176 65.5263 158.226 63.2712 158.226C61.0161 158.226 59.188 159.176 59.188 160.348C59.188 161.52 61.0161 162.47 63.2712 162.47Z" fill="#F9D2CD"/>
<path d="M94.0369 162.889C96.292 162.889 98.1201 161.939 98.1201 160.767C98.1201 159.595 96.292 158.646 94.0369 158.646C91.7817 158.646 89.9536 159.595 89.9536 160.767C89.9536 161.939 91.7817 162.889 94.0369 162.889Z" fill="#F9D2CD"/>
</g>
<path d="M150 30C144.477 30 140 25.523 140 20C140 14.477 144.477 10 150 10C155.523 10 160 14.477 160 20C160 25.523 155.523 30 150 30ZM149.003 24L156.073 16.929L154.659 15.515L149.003 21.172L146.174 18.343L144.76 19.757L149.003 24Z" fill="#FB1576"/>
<defs>
<radialGradient id="paint0_radial_3009_6305" cx="0" cy="0" r="1" gradientUnits="userSpaceOnUse" gradientTransform="translate(84.4912 144.016) rotate(90) scale(145.027 128.234)">
<stop stop-color="#FC096F"/>
<stop offset="0.0833333" stop-color="#FC096F" stop-opacity="0.368056"/>
<stop offset="0.75" stop-color="#FC096F" stop-opacity="0"/>
</radialGradient>
</defs>
</svg>
