<svg width="16" height="16" viewBox="0 0 16 16" fill="none" xmlns="http://www.w3.org/2000/svg">
<g clip-path="url(#clip0)">
<path d="M13.4688 0.800191V10.9346C13.4688 11.2283 13.2282 11.4658 12.9344 11.4689C2.53441 11.4689 3.25316 11.4596 3.06879 11.4939V0.290816C3.25629 0.256441 2.50316 0.265816 12.9344 0.265816C13.2282 0.268941 13.4688 0.506441 13.4688 0.800191Z" fill="#FFDC00"/>
<path d="M13.4687 0.8V10.9344C13.4687 11.2281 13.2281 11.4656 12.9343 11.4688H12.1343C12.4281 11.4688 12.6656 11.2281 12.6687 10.9344V0.8C12.6687 0.50625 12.4281 0.26875 12.1343 0.265625H12.9343C13.2281 0.26875 13.4687 0.50625 13.4687 0.8Z" fill="#FEC108"/>
<path d="M13.4688 13.0654V14.1311C13.4688 14.4248 13.2282 14.6623 12.9344 14.6654H12.4001C12.0594 14.1998 11.8719 13.6404 11.8657 13.0654H13.4688Z" fill="#783E22"/>
<path d="M3.06875 0.291016V11.491C2.3 11.6223 1.7375 12.2879 1.73438 13.066V1.86602C1.73438 1.08789 2.3 0.419141 3.06875 0.291016Z" fill="#F44335"/>
<path d="M12.403 14.6656C2.80929 14.6656 3.34366 14.675 3.18429 14.65C2.43429 14.5781 1.83741 13.9937 1.74991 13.2437C1.66241 12.4968 2.11241 11.7875 2.82491 11.5468C3.16554 11.4281 2.81241 11.4656 12.403 11.4656C11.6905 12.4156 11.6905 13.7187 12.403 14.6656Z" fill="#DFC49C"/>
<path d="M11.603 14.6654C2.72491 14.6654 3.33741 14.6717 3.18429 14.6498C2.43429 14.5779 1.83741 13.9935 1.74991 13.2435C1.66241 12.4967 2.11241 11.7873 2.82491 11.5467C3.18741 11.4217 3.03741 11.4654 11.603 11.4654C10.8905 12.4154 10.8905 13.7185 11.603 14.6654Z" fill="#FFE0B2"/>
<path d="M10.9937 5.52207C10.7718 6.04394 10.4093 6.49082 9.94683 6.81894C9.42808 6.64707 8.87183 6.62207 8.33746 6.7377C7.99058 6.83145 7.66871 7.00957 7.40933 7.25644C7.12496 7.17832 6.85621 7.05957 6.60621 6.90332C6.65308 6.75332 6.68746 6.60332 6.71246 6.4502C6.72184 6.22832 6.69996 6.00332 6.65308 5.78769C6.60309 5.32832 6.91871 4.96895 6.95621 4.5252C6.99996 4.04395 6.37809 4.09707 6.02809 3.95332C5.71246 3.8002 5.49371 3.49707 5.44684 3.14707C5.57496 2.85332 5.74996 2.58145 5.96559 2.34082C6.42496 2.34707 6.88433 2.29395 7.33121 2.18457C7.81246 2.09395 8.21558 1.78145 8.41558 1.34082C8.81245 1.36582 9.19995 1.47207 9.5562 1.64707V1.6502L9.55308 1.65332C9.30308 1.9502 8.9812 2.17832 8.62183 2.31582C7.84683 2.6752 7.83746 3.47832 8.7187 3.67207C9.12808 3.7627 9.4937 3.99082 9.49683 4.4502C9.49683 4.92519 9.1812 5.3002 9.17183 5.68457C9.1687 5.81895 9.22808 5.94707 9.33433 6.03145C9.44058 6.11582 9.57808 6.14395 9.7062 6.1127C10.1781 6.04395 10.4031 5.6502 10.9937 5.52207Z" fill="#00BCD4"/>
<path d="M6.68447 5.78417C6.73134 6.20917 6.83135 6.26542 6.64072 6.8998C5.37821 6.10605 4.88759 4.5123 5.48134 3.14355C5.52821 3.49355 5.74384 3.79668 6.06259 3.9498C6.41259 4.09355 7.03135 4.04043 6.99072 4.52168C6.9501 4.96855 6.63447 5.3248 6.68447 5.78417Z" fill="#60A917"/>
<path d="M8.41562 1.34082C8.21562 1.78144 7.8125 2.09394 7.33437 2.18144C6.8875 2.29082 6.42812 2.34394 5.96875 2.33769C6.5875 1.64707 7.4875 1.27832 8.41562 1.34082Z" fill="#549414"/>
<path d="M9.95002 6.81559C9.21253 7.33747 8.28128 7.49684 7.41254 7.25622C7.67504 7.00934 7.99378 6.83122 8.34066 6.73747C8.87503 6.61872 9.42815 6.64684 9.95002 6.81559Z" fill="#549414"/>
<path d="M11.2313 4.35059C11.2313 4.75371 11.15 5.15059 10.9938 5.52246C10.7375 5.58809 10.4938 5.70059 10.2782 5.85684C9.67192 6.31309 9.15629 6.10684 9.16879 5.68184C9.17504 5.29746 9.49379 4.92559 9.49379 4.44746C9.49067 3.98809 9.12504 3.75996 8.71566 3.66934C7.83441 3.47559 7.84066 2.67246 8.61879 2.31309C8.86566 2.20996 9.10004 2.07246 9.30629 1.90059C9.39691 1.82246 9.47817 1.73809 9.55317 1.64746C10.5782 2.16309 11.225 3.20684 11.2313 4.35059Z" fill="#549414"/>
<path d="M6.26882 13.0656V15.4656C6.26882 15.5594 6.22195 15.6438 6.1407 15.6906C6.06258 15.7375 5.96258 15.7438 5.88133 15.7L5.32195 15.4188C5.24695 15.3813 5.15633 15.3813 5.08133 15.4188L4.52196 15.7C4.44383 15.7406 4.35321 15.7375 4.27508 15.6969C4.19696 15.6563 4.14696 15.5781 4.13758 15.4906C4.12821 15.4625 4.13446 15.25 4.13446 13.0625L6.26882 13.0656Z" fill="#F44335"/>
<path d="M5.46882 13.0654C5.46882 15.7342 5.47195 15.4373 5.4657 15.4936L5.88132 15.7029C5.96257 15.7436 6.06257 15.7404 6.1407 15.6936C6.21882 15.6467 6.26882 15.5592 6.26882 15.4686V13.0686L5.46882 13.0654Z" fill="#C81E1E"/>
<path d="M1.71875 1.86602V13.066C1.71875 14.0973 2.55625 14.9316 3.58437 14.9316H4.11875V15.466C4.11875 15.6504 4.21562 15.8223 4.37187 15.9191C4.52812 16.016 4.725 16.0254 4.89062 15.941L5.45 15.6598L6.0125 15.941C6.17812 16.0223 6.375 16.016 6.53125 15.9191C6.6875 15.8223 6.78438 15.6504 6.78438 15.466V14.9316H13.1844C13.625 14.9316 13.9844 14.5723 13.9844 14.1316C13.9844 12.6191 13.9844 11.1098 13.9844 9.59727V9.06289C13.9844 7.81914 13.9844 6.57539 13.9844 5.32852V4.79414C13.9844 3.45977 13.9844 2.12852 13.9844 0.794141C13.9844 0.353516 13.625 -0.00585938 13.1844 -0.00585938H3.58437C2.55625 0.000390625 1.71875 0.837891 1.71875 1.86602ZM2.25312 1.86602C2.25312 1.33789 2.56875 0.856641 3.05312 0.647266V11.2785C2.75 11.3691 2.47187 11.5348 2.25312 11.7629V1.86602ZM5.69063 15.1848C5.54063 15.1098 5.3625 15.1098 5.2125 15.1848L4.65 15.466V13.3316H6.25V15.466L5.69063 15.1848ZM6.78438 13.3348H7.85C7.99687 13.3348 8.11563 13.216 8.11563 13.0691C8.11563 12.9223 7.99687 12.8035 7.85 12.8035H3.31875C3.17187 12.8035 3.05312 12.9223 3.05312 13.0691C3.05312 13.216 3.17187 13.3348 3.31875 13.3348H4.11875V14.4004H3.58437C2.84687 14.4004 2.25 13.8035 2.25 13.066C2.25 12.3285 2.84687 11.7316 3.58437 11.7316H12.1781C11.7406 12.566 11.7406 13.5629 12.1781 14.3973H6.78438V13.3348ZM13.1844 11.7348C13.5219 11.7348 13.8219 11.5191 13.9344 11.2004L13.1844 11.7348ZM13.4531 14.1348C13.4531 14.2816 13.3344 14.4004 13.1875 14.4004H12.7969C12.5844 14.0785 12.45 13.716 12.4031 13.3348L13.4531 11.7348V14.1348ZM12.4 12.8004C12.4219 12.6191 12.4656 12.4379 12.5281 12.266L12.4 12.8004ZM13.9844 10.666V10.1316V10.666ZM13.9844 4.26602V1.60039V4.26602ZM13.4531 0.800391V10.9348C13.4531 11.0816 13.3344 11.2004 13.1875 11.2004H3.58437V0.534766H13.1844C13.3313 0.534766 13.4531 0.653516 13.4531 0.800391Z" fill="black"/>
<path d="M6.5813 6.89139C6.58443 6.89452 6.59068 6.89764 6.5938 6.90077C7.97193 7.78202 9.80005 7.43202 10.7563 6.10389C11.7126 4.77577 11.4688 2.93514 10.2001 1.90389C8.9313 0.872641 7.07818 1.01014 5.97505 2.21952C5.96568 2.22889 5.95318 2.23827 5.94693 2.25077C5.34693 2.92264 5.07193 3.82577 5.1938 4.71952C5.31568 5.61014 5.82505 6.40702 6.5813 6.89139ZM5.6438 3.76014C5.7563 3.91952 5.90943 4.04139 6.08755 4.11639C6.43443 4.26014 6.85943 4.21639 6.84068 4.44764C6.8188 4.60702 6.77193 4.76327 6.7063 4.90702C6.51255 5.40389 6.52193 5.55702 6.5813 5.89452C6.62505 6.05077 6.62818 6.21639 6.59068 6.37577C5.80943 5.75077 5.4438 4.74139 5.6438 3.76014ZM8.00943 6.95077C8.40943 6.74452 8.86568 6.66952 9.31255 6.74139C8.90318 6.91952 8.4563 6.99139 8.00943 6.95077ZM9.86255 6.41639C9.36255 6.27264 8.8313 6.25702 8.32505 6.36639C8.00005 6.45077 7.69693 6.61014 7.4438 6.83202C7.2813 6.77889 7.12505 6.71014 6.97505 6.62889C7.05943 6.36639 7.07193 6.08827 7.00943 5.81952C6.96255 5.54764 6.94693 5.47577 7.11255 5.06014C7.1938 4.87577 7.25005 4.67889 7.27505 4.47889C7.30005 4.23202 7.1563 3.99764 6.92505 3.90389C6.48443 3.71014 6.0313 3.87577 5.85005 3.17577C5.94693 2.96639 6.07193 2.76952 6.2188 2.59139C6.64068 2.58827 7.06255 2.53827 7.47505 2.43514C7.93755 2.34452 8.33755 2.06014 8.57505 1.65389C8.77818 1.67889 8.97505 1.72577 9.1688 1.79452C8.98443 1.94452 8.7813 2.06952 8.55943 2.16014C8.23443 2.29139 7.98755 2.56952 7.90005 2.91014C7.80943 3.41639 8.25005 3.75389 8.69693 3.85389C9.80005 4.09764 8.97505 4.97577 8.96255 5.56014C8.9563 5.73202 9.02193 5.89764 9.1438 6.01639C9.26568 6.13514 9.43443 6.19764 9.6063 6.18827C9.89693 6.16639 10.1751 6.05702 10.4032 5.87264C10.2438 6.08202 10.0626 6.26327 9.86255 6.41639ZM6.70318 2.13827C7.09693 1.85389 7.56568 1.68202 8.05005 1.64452C7.72505 1.99139 7.21255 2.08514 6.70318 2.13827ZM10.7438 5.24139C10.2001 5.40389 10.0063 5.71952 9.65005 5.76639C9.57193 5.78202 9.4938 5.76327 9.4313 5.71639C9.22505 5.52889 9.69068 4.97889 9.69068 4.39452C9.69068 3.91952 9.35943 3.57264 8.78443 3.44452C8.76255 3.43827 8.2563 3.32264 8.31568 2.99139C8.3813 2.79139 8.53443 2.62889 8.73443 2.55389C9.05318 2.42577 9.34068 2.23514 9.58443 1.99139C10.7157 2.63827 11.2094 4.01952 10.7438 5.24139Z" fill="black"/>
<path d="M6.93441 7.71289H6.01254C5.90941 7.71289 5.81879 7.78164 5.79066 7.88164L5.10004 10.4191L5.54379 10.541L5.81254 9.55663H7.13754L7.40629 10.541L7.85004 10.4191L7.15629 7.88476C7.13129 7.78164 7.04066 7.71289 6.93441 7.71289ZM5.93754 9.09726L6.18754 8.17539H6.75629L7.00629 9.09726H5.93754Z" fill="black"/>
<path d="M11.5031 8.07539C11.5749 7.97227 11.5499 7.82852 11.4468 7.75352C11.4093 7.72539 11.3624 7.71289 11.3156 7.71289H9.4718V8.17539H10.8749L9.51555 10.1192C9.44368 10.2223 9.46868 10.366 9.5718 10.441C9.6093 10.4692 9.65618 10.4817 9.70305 10.4817H11.5468V10.0192H10.1437L11.5031 8.07539Z" fill="black"/>
<path d="M8.10938 8.87207H9.2375V9.32207H8.10938V8.87207Z" fill="black"/>
</g>
<defs>
<clipPath id="clip0">
<rect width="16" height="16" fill="white"/>
</clipPath>
</defs>
</svg>
