<svg width="27" height="27" viewBox="0 0 27 27" fill="none" xmlns="http://www.w3.org/2000/svg">
<g clip-path="url(#clip0)">
<path d="M9.84375 19.8136V25.0313C9.84375 25.3958 10.0777 25.7187 10.4242 25.8335C10.5109 25.8616 10.5997 25.8751 10.6875 25.8751C10.9507 25.8751 11.205 25.7513 11.367 25.5308L14.4191 21.3773L9.84375 19.8136Z" fill="white"/>
<path d="M26.6457 0.155559C26.3869 -0.0278158 26.0472 -0.0525658 25.7659 0.0948092L0.453425 13.3136C0.154175 13.4699 -0.02245 13.7894 0.00230004 14.1258C0.028175 14.4633 0.25205 14.7513 0.570425 14.8604L7.6073 17.2657L22.5934 4.45193L10.9969 18.4233L22.7903 22.4542C22.8781 22.4834 22.9703 22.4992 23.0626 22.4992C23.2156 22.4992 23.3674 22.4576 23.5013 22.3766C23.7151 22.2461 23.8602 22.0267 23.8973 21.7803L26.9911 0.967809C27.0372 0.652809 26.9044 0.340059 26.6457 0.155559Z" fill="white"/>
</g>
<defs>
<clipPath id="clip0">
<rect width="27" height="27" fill="white"/>
</clipPath>
</defs>
</svg>
