<svg width="16" height="16" viewBox="0 0 16 16" fill="none" xmlns="http://www.w3.org/2000/svg">
<g clip-path="url(#clip0)">
<path d="M16 8C16 8.20344 15.9925 8.40469 15.9775 8.60437C15.975 8.63562 15.9725 8.66687 15.9697 8.69812C15.9072 9.42437 15.7472 10.1231 15.5028 10.7812C15.4137 11.0222 15.3134 11.2575 15.2019 11.4866C13.9066 14.1581 11.1684 16 8 16C7.93719 16 7.87469 15.9994 7.8125 15.9975C7.69719 15.995 7.58281 15.99 7.46875 15.9825C6.95094 15.9484 6.44625 15.8653 5.96 15.7372C5.94719 15.7338 5.93469 15.7303 5.92188 15.7269C2.51125 14.8125 0 11.6994 0 8C0 3.58187 3.58187 0 8 0C12.0628 0 15.4187 3.02906 15.9319 6.95219C15.9347 6.97344 15.9375 6.995 15.9397 7.01625C15.9716 7.27188 15.9909 7.53125 15.9975 7.79375C15.9984 7.83969 15.9994 7.88562 15.9997 7.93156C16 7.95437 16 7.97719 16 8Z" fill="#FFD400"/>
<path d="M16 8.00036C16 8.20379 15.9925 8.40504 15.9775 8.60473C15.975 8.63598 15.9725 8.66723 15.9697 8.69848C15.9072 9.42473 15.7472 10.1235 15.5028 10.7816C15.4137 11.0225 15.3134 11.2579 15.2019 11.4869C13.9066 14.1585 11.1684 16.0004 8 16.0004C7.93719 16.0004 7.87469 15.9997 7.8125 15.9979C7.69719 15.9954 7.58281 15.9904 7.46875 15.9829C6.95094 15.9488 6.44625 15.8657 5.96 15.7375C5.94719 15.7341 5.93469 15.7307 5.92188 15.7272L2.21875 12.0322L7.66875 4.30254L8.07031 4.7041L12.8438 3.90723L15.9397 7.0166C15.9716 7.27223 15.9909 7.5316 15.9975 7.7941C15.9984 7.84004 15.9994 7.88598 15.9997 7.93192C16 7.95473 16 7.97754 16 8.00036Z" fill="#FDA632"/>
<path d="M13.7812 4.94922H2.21875V12.0326H6.75V12.0504L7.02037 12.7183H8.97962L9.25 12.0504V12.0326H13.7812V4.94922Z" fill="#F1444F"/>
<path d="M8 4.94922V12.7183H8.97962L9.25 12.0504V12.0326H13.7812V4.94922H8Z" fill="#DB2835"/>
<path d="M8 4.94941C7.89609 4.34801 7.35659 3.90723 6.72447 3.90723H3.15625V11.0947H12.8438V3.90723H9.27553C8.64341 3.90723 8.10391 4.34804 8 4.94941Z" fill="#FFF3DC"/>
<path d="M9.27553 3.90723C8.64341 3.90723 8.10394 4.34801 8 4.94941V11.0947H12.8438V3.90723H9.27553Z" fill="#FFE7BB"/>
<path d="M8.9375 9.21973C8.41972 9.21973 8 9.63945 8 10.1572C8 9.63948 7.58028 9.21973 7.0625 9.21973H3.15625V10.1572V11.0947H12.8438V10.1572V9.21973H8.9375Z" fill="#FFD27D"/>
<path d="M8.9375 9.21973C8.41972 9.21973 8 9.63945 8 10.1572V11.0947H12.8438V10.1572V9.21973H8.9375Z" fill="#FFC466"/>
<path d="M8.9375 10.1572C8.41972 10.1572 8 10.5769 8 11.0947C8 10.577 7.58028 10.1572 7.0625 10.1572H3.15625V11.0947H8H12.8438V10.1572H8.9375Z" fill="#FFE7BB"/>
<path d="M8.9375 10.1572C8.41972 10.1572 8 10.5769 8 11.0947H12.8438V10.1572H8.9375Z" fill="#FFD27D"/>
<path d="M4.09375 4.99609H7.0625V5.62109H4.09375V4.99609Z" fill="#3477A6"/>
<path d="M4.09375 6.25098H7.0625V6.87598H4.09375V6.25098Z" fill="#3477A6"/>
<path d="M4.09375 7.50586H7.0625V8.13087H4.09375V7.50586Z" fill="#3477A6"/>
<path d="M8.9375 4.99609H11.9062V5.62109H8.9375V4.99609Z" fill="#185F8D"/>
<path d="M8.9375 6.25098H11.9062V6.87598H8.9375V6.25098Z" fill="#185F8D"/>
<path d="M8.9375 7.50586H11.9062V8.13086H8.9375V7.50586Z" fill="#185F8D"/>
<path d="M11.125 12.7187L10.4219 12.2122L9.71875 12.7187V10.1572H11.125V12.7187Z" fill="#09A1E8"/>
</g>
<defs>
<clipPath id="clip0">
<rect width="16" height="16" fill="white"/>
</clipPath>
</defs>
</svg>
