<svg width="16" height="16" viewBox="0 0 16 16" fill="none" xmlns="http://www.w3.org/2000/svg">
<path d="M7.99988 12.236V4.04936L1.20288 3.77148V12.788L7.17051 13.0654C7.27943 13.0654 7.38728 13.0439 7.48791 13.0023C7.58854 12.9606 7.67998 12.8995 7.757 12.8225C7.83402 12.7455 7.89511 12.654 7.93678 12.5534C7.97846 12.4528 7.9999 12.3449 7.99988 12.236Z" fill="#FFBE40"/>
<path d="M14.797 12.788V3.77148L8 4.04936V12.2369C7.99998 12.3458 8.02142 12.4536 8.0631 12.5543C8.10477 12.6549 8.16586 12.7463 8.24288 12.8234C8.3199 12.9004 8.41134 12.9615 8.51197 13.0031C8.6126 13.0448 8.72046 13.0663 8.82938 13.0662L14.797 12.788Z" fill="#F3963C"/>
<path d="M7.27717 3.18259L2.45142 2.93359V11.8112L7.99992 12.0976V3.94359C7.9998 3.74833 7.92477 3.56055 7.7903 3.41896C7.65583 3.27738 7.47217 3.19277 7.27717 3.18259Z" fill="#FFF5F5"/>
<path d="M13.5485 2.93359L8.72275 3.18259C8.52775 3.19277 8.34409 3.27738 8.20962 3.41896C8.07515 3.56055 8.00012 3.74833 8 3.94359V12.0976L13.5485 11.8112V2.93359Z" fill="#EFE1E1"/>
<path d="M5.95465 10.0442C5.89664 10.0413 5.83981 10.0614 5.79668 10.1003C5.75355 10.1393 5.72764 10.1937 5.72465 10.2517C5.72167 10.3098 5.74186 10.3666 5.78077 10.4097C5.81968 10.4528 5.87414 10.4788 5.93215 10.4817L7.02428 10.5381H7.03578C7.0938 10.5396 7.15001 10.5179 7.19207 10.4779C7.23412 10.4379 7.25857 10.3829 7.26003 10.3249C7.26149 10.2668 7.23984 10.2106 7.19985 10.1686C7.15986 10.1265 7.1048 10.1021 7.04678 10.1006L5.95465 10.0442Z" fill="#292A2D"/>
<path d="M7.04688 8.95072L3.42713 8.76396C3.39841 8.76248 3.36967 8.76667 3.34256 8.77629C3.31545 8.78591 3.2905 8.80077 3.26914 8.82004C3.22599 8.85894 3.20007 8.91339 3.19707 8.9714C3.19407 9.02942 3.21424 9.08625 3.25314 9.1294C3.29204 9.17254 3.34649 9.19847 3.40451 9.20147L7.02501 9.38747H7.03651C7.09452 9.38893 7.15074 9.36728 7.1928 9.32729C7.23485 9.28729 7.2593 9.23223 7.26076 9.17422C7.26222 9.1162 7.24057 9.05998 7.20058 9.01793C7.16058 8.97587 7.10552 8.95142 7.04751 8.94997L7.04688 8.95072Z" fill="#292A2D"/>
<path d="M6.37288 3.35518H6.38438C6.4424 3.35665 6.49863 3.33502 6.54069 3.29504C6.58276 3.25506 6.60722 3.2 6.6087 3.14199C6.61017 3.08397 6.58854 3.02775 6.54856 2.98568C6.50858 2.94361 6.45352 2.91915 6.39551 2.91768L6.27613 2.91143C6.24741 2.90994 6.21867 2.91413 6.19156 2.92375C6.16445 2.93337 6.1395 2.94823 6.11814 2.9675C6.07499 3.0064 6.04907 3.06085 6.04607 3.11886C6.04307 3.17688 6.06324 3.23371 6.10214 3.27686C6.14104 3.32 6.19549 3.34592 6.25351 3.34893L6.37288 3.35518Z" fill="#292A2D"/>
<path d="M7.04688 7.7991L3.42713 7.6126C3.36912 7.6096 3.31228 7.62977 3.26914 7.66867C3.22599 7.70757 3.20007 7.76202 3.19707 7.82003C3.19407 7.87805 3.21424 7.93488 3.25314 7.97803C3.29204 8.02117 3.34649 8.04709 3.40451 8.05009L7.02501 8.23659H7.03651C7.09452 8.23805 7.15074 8.2164 7.1928 8.17641C7.23485 8.13642 7.2593 8.08136 7.26076 8.02334C7.26222 7.96533 7.24057 7.90911 7.20058 7.86706C7.16058 7.825 7.10552 7.80055 7.04751 7.7991H7.04688Z" fill="#292A2D"/>
<path d="M1.20288 10.6788C1.26089 10.6787 1.31651 10.6557 1.35752 10.6147C1.39854 10.5736 1.4216 10.518 1.42163 10.46V10.3643C1.42163 10.3062 1.39858 10.2506 1.35756 10.2096C1.31654 10.1686 1.2609 10.1455 1.20288 10.1455C1.14486 10.1455 1.08922 10.1686 1.0482 10.2096C1.00718 10.2506 0.984131 10.3062 0.984131 10.3643V10.46C0.984164 10.518 1.00722 10.5736 1.04824 10.6147C1.08925 10.6557 1.14487 10.6787 1.20288 10.6788Z" fill="#292A2D"/>
<path d="M0.984131 12.7881C0.984135 12.8444 1.00582 12.8985 1.04467 12.9392C1.08352 12.9799 1.13656 13.004 1.19276 13.0066L7.17051 13.2843C7.33091 13.2841 7.48914 13.2471 7.63296 13.1761C7.77677 13.105 7.90232 13.0018 7.99988 12.8745C8.09893 13.0025 8.22606 13.1061 8.37146 13.1771C8.51687 13.2482 8.67666 13.285 8.83851 13.2845L14.8061 13.0071C14.8623 13.0045 14.9154 12.9804 14.9542 12.9397C14.9931 12.899 15.0148 12.8449 15.0148 12.7886V3.77164C15.0148 3.74217 15.0088 3.713 14.9972 3.6859C14.9857 3.65879 14.9688 3.63429 14.9475 3.61389C14.9261 3.59364 14.901 3.57784 14.8734 3.56741C14.8459 3.55698 14.8166 3.55213 14.7871 3.55314L14.369 3.57014C14.311 3.57251 14.2563 3.59783 14.2169 3.64053C14.1776 3.68323 14.1568 3.73981 14.1592 3.79783C14.1616 3.85584 14.1869 3.91054 14.2296 3.94989C14.2723 3.98924 14.3289 4.01001 14.3869 4.00764L14.5781 3.99951V12.5793L8.82926 12.8468C8.67966 12.8463 8.53547 12.7908 8.42415 12.6909C8.31284 12.591 8.24217 12.4536 8.22563 12.3049L13.5598 12.0299C13.6157 12.027 13.6685 12.0027 13.7071 11.9621C13.7457 11.9214 13.7672 11.8675 13.7671 11.8114V2.93351C13.7671 2.90384 13.7611 2.87448 13.7494 2.84721C13.7377 2.81995 13.7206 2.79535 13.699 2.77492C13.6775 2.75449 13.6521 2.73866 13.6242 2.72838C13.5964 2.7181 13.5668 2.7136 13.5371 2.71514L8.71138 2.96401C8.57395 2.97101 8.43954 3.00692 8.31694 3.06941C8.19433 3.13189 8.0863 3.21955 7.99988 3.32664C7.91345 3.21957 7.80541 3.13194 7.68281 3.06948C7.5602 3.00701 7.4258 2.97112 7.28838 2.96414C7.25945 2.96223 7.23043 2.96609 7.203 2.97549C7.17558 2.9849 7.15029 2.99966 7.12863 3.01893C7.10696 3.03819 7.08933 3.06157 7.07678 3.0877C7.06423 3.11384 7.05699 3.14221 7.0555 3.17116C7.05401 3.20012 7.05829 3.22908 7.06809 3.25637C7.0779 3.28365 7.09302 3.30872 7.1126 3.33011C7.13217 3.35149 7.15581 3.36878 7.18212 3.38095C7.20844 3.39312 7.23691 3.39994 7.26588 3.40101C7.40495 3.40816 7.53597 3.46846 7.63186 3.56944C7.72775 3.67042 7.78119 3.80438 7.78113 3.94364V10.2259C7.78113 10.2839 7.80418 10.3395 7.8452 10.3806C7.88622 10.4216 7.94186 10.4446 7.99988 10.4446C8.0579 10.4446 8.11354 10.4216 8.15456 10.3806C8.19558 10.3395 8.21863 10.2839 8.21863 10.2259V3.94351C8.21858 3.80424 8.27203 3.67026 8.36795 3.56927C8.46386 3.46829 8.59491 3.40801 8.73401 3.40089L13.3296 3.16339V11.6034L7.99988 11.8784L2.67013 11.6034V3.16389L5.47488 3.30851C5.50361 3.30999 5.53234 3.3058 5.55945 3.29617C5.58655 3.28654 5.6115 3.27167 5.63286 3.2524C5.65421 3.23313 5.67157 3.20985 5.68392 3.18387C5.69628 3.1579 5.7034 3.12974 5.70488 3.10101C5.70636 3.07229 5.70216 3.04355 5.69253 3.01645C5.68291 2.98934 5.66803 2.9644 5.64877 2.94304C5.6295 2.92168 5.60621 2.90433 5.58024 2.89197C5.55426 2.87961 5.52611 2.87249 5.49738 2.87101L2.46238 2.71514C2.43275 2.7136 2.40311 2.7181 2.37528 2.72838C2.34744 2.73866 2.32199 2.75449 2.30047 2.77492C2.27896 2.79535 2.26182 2.81995 2.25011 2.84721C2.23841 2.87448 2.23237 2.90384 2.23238 2.93351V3.59476L1.21238 3.55314C1.18294 3.55194 1.15356 3.55671 1.126 3.56715C1.09844 3.57759 1.07328 3.59349 1.05202 3.6139C1.03076 3.63431 1.01385 3.6588 1.00229 3.6859C0.990728 3.71301 0.984765 3.74217 0.984756 3.77164V9.29739C0.984756 9.35541 1.0078 9.41105 1.04883 9.45207C1.08985 9.49309 1.14549 9.51614 1.20351 9.51614C1.26152 9.51614 1.31716 9.49309 1.35819 9.45207C1.39921 9.41105 1.42226 9.35541 1.42226 9.29739V3.99951L2.23326 4.03264V11.8111C2.23321 11.8672 2.25471 11.9211 2.29331 11.9618C2.3319 12.0025 2.38464 12.0268 2.44063 12.0296L7.77488 12.3046C7.75908 12.4519 7.69001 12.5882 7.58068 12.6881C7.47135 12.7879 7.3293 12.8443 7.18126 12.8468L1.42226 12.579V11.2948C1.42226 11.2367 1.39921 11.1811 1.35819 11.1401C1.31716 11.0991 1.26152 11.076 1.20351 11.076C1.14549 11.076 1.08985 11.0991 1.04883 11.1401C1.0078 11.1811 0.984756 11.2367 0.984756 11.2948L0.984131 12.7881Z" fill="#292A2D"/>
<path d="M7.04671 6.64957L3.42695 6.46207C3.36949 6.45987 3.31347 6.48039 3.27102 6.51918C3.22857 6.55797 3.2031 6.61192 3.20012 6.66935C3.19715 6.72678 3.21691 6.78307 3.25513 6.82604C3.29334 6.86901 3.34695 6.8952 3.40433 6.89895L7.02483 7.0862H7.03633C7.06506 7.08692 7.09364 7.08198 7.12046 7.07165C7.14728 7.06132 7.1718 7.04582 7.19262 7.02601C7.21344 7.00621 7.23016 6.9825 7.24182 6.95624C7.25348 6.92998 7.25986 6.90167 7.26058 6.87295C7.2613 6.84422 7.25636 6.81563 7.24603 6.78882C7.23571 6.762 7.2202 6.73748 7.2004 6.71666C7.1806 6.69583 7.15689 6.67911 7.13062 6.66745C7.10436 6.65579 7.07606 6.64942 7.04733 6.6487L7.04671 6.64957Z" fill="#292A2D"/>
<path d="M3.19731 4.36885C3.19432 4.42678 3.21446 4.48353 3.2533 4.52662C3.29214 4.5697 3.34651 4.5956 3.40444 4.5986L7.02494 4.78535H7.03644C7.09445 4.78681 7.15067 4.76516 7.19273 4.72517C7.23478 4.68518 7.25923 4.63012 7.26069 4.5721C7.26215 4.51409 7.2405 4.45787 7.20051 4.41581C7.16052 4.37376 7.10545 4.34931 7.04744 4.34785L3.42706 4.16236C3.3693 4.15962 3.31279 4.17977 3.26978 4.21842C3.22677 4.25708 3.20074 4.31113 3.19731 4.36885Z" fill="#292A2D"/>
<path d="M8.96406 10.5376H8.97556L12.5954 10.3509C12.6534 10.3479 12.7079 10.322 12.7468 10.2788C12.7857 10.2357 12.8059 10.1788 12.8029 10.1208C12.7999 10.0628 12.7739 10.0084 12.7308 9.96945C12.6876 9.93055 12.6308 9.91038 12.5728 9.91338L8.95306 10.1009C8.89505 10.1023 8.83999 10.1268 8.8 10.1688C8.76 10.2109 8.73836 10.2671 8.73982 10.3251C8.74127 10.3832 8.76572 10.4382 8.80777 10.4782C8.84983 10.5182 8.90605 10.5398 8.96406 10.5384V10.5376Z" fill="#292A2D"/>
<path d="M8.96406 8.23663H8.97556L12.5954 8.04913C12.6534 8.04613 12.7079 8.0202 12.7468 7.97706C12.7857 7.93391 12.8059 7.87708 12.8029 7.81906C12.7999 7.76104 12.7739 7.7066 12.7308 7.66769C12.6876 7.62879 12.6308 7.60862 12.5728 7.61162L8.95306 7.79912C8.89505 7.80058 8.83999 7.82503 8.8 7.86708C8.76 7.90914 8.73836 7.96536 8.73982 8.02338C8.74127 8.0814 8.76572 8.13646 8.80777 8.17645C8.84983 8.21644 8.90605 8.23809 8.96406 8.23663Z" fill="#292A2D"/>
<path d="M7.04671 5.49831L3.42695 5.31168C3.36949 5.30948 3.31347 5.33 3.27102 5.36879C3.22857 5.40758 3.2031 5.46153 3.20012 5.51896C3.19715 5.57639 3.21691 5.63268 3.25513 5.67565C3.29334 5.71862 3.34695 5.74481 3.40433 5.74856L7.02483 5.93518H7.03633C7.09435 5.93664 7.15057 5.91499 7.19262 5.875C7.23468 5.83501 7.25912 5.77995 7.26058 5.72193C7.26204 5.66392 7.24039 5.6077 7.2004 5.56564C7.16041 5.52359 7.10535 5.49914 7.04733 5.49768L7.04671 5.49831Z" fill="#292A2D"/>
<path d="M8.96407 7.08742H8.97557L12.5954 6.89992C12.6528 6.89618 12.7064 6.86999 12.7446 6.82702C12.7829 6.78405 12.8026 6.72776 12.7996 6.67033C12.7967 6.6129 12.7712 6.55895 12.7288 6.52016C12.6863 6.48136 12.6303 6.46085 12.5728 6.46305L8.95307 6.64993C8.89505 6.65138 8.83999 6.67583 8.8 6.71788C8.76 6.75994 8.73836 6.81616 8.73982 6.87417C8.74127 6.93219 8.76572 6.98725 8.80778 7.02724C8.84983 7.06723 8.90605 7.08888 8.96407 7.08742Z" fill="#292A2D"/>
<path d="M8.96406 9.38702H8.97556L12.5954 9.19952C12.6534 9.19652 12.7079 9.17059 12.7468 9.12745C12.7857 9.0843 12.8059 9.02747 12.8029 8.96945C12.7999 8.91144 12.7739 8.85699 12.7308 8.81808C12.6876 8.77918 12.6308 8.75901 12.5728 8.76201L8.95306 8.95027C8.89505 8.95172 8.83999 8.97617 8.8 9.01823C8.76 9.06028 8.73836 9.1165 8.73982 9.17452C8.74127 9.23254 8.76572 9.2876 8.80777 9.32759C8.84983 9.36758 8.90605 9.38923 8.96406 9.38777V9.38702Z" fill="#292A2D"/>
<path d="M8.96407 4.78492H8.97557L12.5954 4.59817C12.6528 4.59442 12.7064 4.56823 12.7446 4.52526C12.7829 4.48229 12.8026 4.426 12.7996 4.36857C12.7967 4.31114 12.7712 4.25719 12.7288 4.2184C12.6863 4.17961 12.6303 4.15909 12.5728 4.16129L8.95307 4.34767C8.89505 4.34913 8.83999 4.37357 8.8 4.41563C8.76 4.45768 8.73836 4.5139 8.73982 4.57192C8.74127 4.62993 8.76572 4.68499 8.80778 4.72499C8.84983 4.76498 8.90605 4.78663 8.96407 4.78517V4.78492Z" fill="#292A2D"/>
<path d="M8.21875 11.0647V10.9863C8.21875 10.9283 8.1957 10.8727 8.15468 10.8316C8.11366 10.7906 8.05802 10.7676 8 10.7676C7.94198 10.7676 7.88634 10.7906 7.84532 10.8316C7.8043 10.8727 7.78125 10.9283 7.78125 10.9863V11.0647C7.78125 11.1227 7.8043 11.1784 7.84532 11.2194C7.88634 11.2604 7.94198 11.2835 8 11.2835C8.05802 11.2835 8.11366 11.2604 8.15468 11.2194C8.1957 11.1784 8.21875 11.1227 8.21875 11.0647Z" fill="#292A2D"/>
<path d="M8.96407 5.93628H8.97557L12.5954 5.74953C12.6528 5.74579 12.7064 5.7196 12.7446 5.67663C12.7829 5.63366 12.8026 5.57737 12.7996 5.51994C12.7967 5.46251 12.7712 5.40856 12.7288 5.36977C12.6863 5.33097 12.6303 5.31046 12.5728 5.31266L8.95307 5.49904C8.89505 5.50049 8.83999 5.52494 8.8 5.56699C8.76 5.60905 8.73836 5.66527 8.73982 5.72328C8.74127 5.7813 8.76572 5.83636 8.80778 5.87635C8.84983 5.91634 8.90605 5.93799 8.96407 5.93653V5.93628Z" fill="#292A2D"/>
</svg>
