<svg width="22" height="23" viewBox="0 0 22 23" fill="none" xmlns="http://www.w3.org/2000/svg">
<g clip-path="url(#clip0)">
<path d="M21.8649 0.795941C21.775 0.710768 21.6673 0.667969 21.5415 0.667969C19.1974 0.667969 17.2619 0.986719 15.7351 1.6245C14.2084 2.26238 12.6007 3.42102 10.9122 5.10041C10.1937 5.82795 9.40325 6.7037 8.54109 7.72757L3.43519 7.99691C3.29145 8.01518 3.17471 8.08685 3.08492 8.21256L0.0671447 13.3862C-0.0406783 13.5658 -0.0181228 13.741 0.134481 13.9117L0.99664 14.7738C1.07752 14.8547 1.18072 14.895 1.30652 14.895C1.36045 14.895 1.40075 14.8905 1.4277 14.8815L5.14615 13.7361L8.9319 17.5221L7.78671 21.2402C7.74193 21.402 7.77784 21.5456 7.89453 21.6714L8.75674 22.5337C8.85555 22.6142 8.95893 22.6548 9.06662 22.6548C9.14759 22.6548 9.21941 22.6366 9.28222 22.6008L14.4558 19.583C14.5816 19.4933 14.6533 19.3767 14.6713 19.2329L14.9407 14.1268C15.9646 13.2645 16.8405 12.4742 17.5679 11.7556C19.1671 10.1478 20.3052 8.52905 20.9831 6.89896C21.6613 5.26878 22.0002 3.33542 22.0002 1.09917C22.0001 0.982425 21.9552 0.881444 21.8649 0.795941ZM18.6051 5.89538C18.3538 6.1467 18.0483 6.2726 17.689 6.2726C17.3297 6.2726 17.0245 6.14684 16.7729 5.89538C16.5216 5.64387 16.3957 5.33847 16.3957 4.97914C16.3957 4.62 16.5215 4.31456 16.7729 4.06305C17.0243 3.81168 17.3297 3.68588 17.689 3.68588C18.0483 3.68588 18.3537 3.81154 18.6051 4.06305C18.8565 4.31456 18.9823 4.62 18.9823 4.97914C18.9823 5.33852 18.8569 5.64368 18.6051 5.89538Z" fill="#282830"/>
</g>
<defs>
<clipPath id="clip0">
<rect width="22" height="22" fill="white" transform="translate(0 0.660156)"/>
</clipPath>
</defs>
</svg>
