<svg width="37" height="37" viewBox="0 0 37 37" fill="none" xmlns="http://www.w3.org/2000/svg">
<path d="M1.39378 33.0376C1.79871 33.4413 2.35807 33.6735 2.92837 33.6735H3.19954H4.35596H33.5801C34.1516 33.6735 34.711 33.4413 35.1147 33.0376C35.5184 32.6338 35.7506 32.0745 35.7506 31.503V13.5548H0.757812V31.503C0.757812 32.0745 0.990069 32.6338 1.39378 33.0376ZM28.7051 15.0104H33.7138V19.467H28.7051V15.0104ZM28.7051 20.6988H33.7138V25.1542H28.7051V20.6988ZM22.2263 15.0104H27.2362V19.467H22.2263V15.0104ZM22.2263 20.6988H27.2362V25.1542H22.2263V20.6988ZM22.2263 26.3873H27.2362V30.8427H22.2263V26.3873ZM15.7499 15.0104H20.7598V19.467H15.7499V15.0104ZM15.7499 20.6988H20.7598V25.1542H15.7499V20.6988ZM15.7499 26.3873H20.7598V30.8427H15.7499V26.3873ZM9.27224 15.0104H14.2822V19.467H9.27224V15.0104ZM9.27224 20.6988H14.2822V25.1542H9.27224V20.6988ZM9.27224 26.3873H14.2822V30.8427H9.27224V26.3873ZM2.79461 20.6988H7.80332V25.1542H2.79461V20.6988ZM2.79461 26.3873H7.80332V30.8427H2.79461V26.3873Z" fill="#5A6E7F"/>
<path d="M35.7506 11.4844H0.757812V12.7698H35.7506V11.4844Z" fill="#97D5C9"/>
<path d="M4.35596 5.30807H3.19954H2.92837C2.35685 5.30807 1.79749 5.53911 1.39378 5.94404C0.990069 6.34775 0.757812 6.90711 0.757812 7.47863V10.0006H35.7506V7.47741C35.7506 6.90589 35.5184 6.34775 35.1147 5.94282C34.711 5.53911 34.1516 5.30685 33.5801 5.30685H29.8993V8.14743C29.8993 8.67761 29.4688 9.10685 28.9386 9.10685H26.9152C26.385 9.10685 25.9558 8.67639 25.9558 8.14743V5.30807H10.5539V8.14865C10.5539 8.67882 10.1234 9.10807 9.59448 9.10807H7.56984C7.03967 9.10807 6.61042 8.67761 6.61042 8.14865V5.30807H4.35596Z" fill="#97D5C9"/>
<path d="M35.7506 10H0.757812V11.486H35.7506V10Z" fill="#5CBFAB"/>
<path d="M7.56934 8.14896H9.59397V5.30838V2.80829H7.56934V5.30838V8.14896Z" fill="#5A6E7F"/>
<path d="M26.915 8.14896H28.9385V5.30838V2.80829H26.915V5.30838V8.14896Z" fill="#5A6E7F"/>
<path d="M14.2824 15.0102H9.27246V19.4669H14.2824V15.0102Z" fill="#5CBFAB"/>
<path d="M20.7599 15.0102H15.75V19.4669H20.7599V15.0102Z" fill="#5CBFAB"/>
<path d="M27.2365 15.0102H22.2266V19.4669H27.2365V15.0102Z" fill="#5CBFAB"/>
<path d="M33.7138 15.0102H28.7051V19.4669H33.7138V15.0102Z" fill="#5CBFAB"/>
<path d="M7.80363 20.6992H2.79492V25.1546H7.80363V20.6992Z" fill="#5CBFAB"/>
<path d="M14.2824 20.6992H9.27246V25.1546H14.2824V20.6992Z" fill="#5CBFAB"/>
<path d="M20.7599 20.6992H15.75V25.1546H20.7599V20.6992Z" fill="#5CBFAB"/>
<path d="M27.2365 20.6992H22.2266V25.1546H27.2365V20.6992Z" fill="#97D5C9"/>
<path d="M33.7138 20.6992H28.7051V25.1546H33.7138V20.6992Z" fill="#5CBFAB"/>
<path d="M7.80363 26.3861H2.79492V30.8416H7.80363V26.3861Z" fill="#5CBFAB"/>
<path d="M14.2824 26.3861H9.27246V30.8416H14.2824V26.3861Z" fill="#97D5C9"/>
<path d="M20.7599 26.3861H15.75V30.8416H20.7599V26.3861Z" fill="#5CBFAB"/>
<path d="M27.2365 26.3861H22.2266V30.8416H27.2365V26.3861Z" fill="#5CBFAB"/>
</svg>
