<svg width="37" height="38" viewBox="0 0 37 38" fill="none" xmlns="http://www.w3.org/2000/svg">
<path fill-rule="evenodd" clip-rule="evenodd" d="M34.3982 2.16388C31.5848 -0.663674 27.1019 -0.761731 23.8576 2.26193C24.2384 2.40829 24.6193 2.55318 25.0016 2.69953C27.0518 3.62741 28.9117 4.89337 30.5353 6.50326C32.1088 8.16144 33.3487 10.0626 34.2579 12.1584C34.3037 12.3545 34.3982 12.5477 34.4483 12.7452C37.2116 9.3791 37.1186 4.94167 34.3982 2.16388ZM30.6771 38H26.9573L25.3838 35.1724L27.961 33.0284L30.6771 38ZM5.34915 38H9.06888L10.6438 35.1724L8.06951 33.0284L5.34915 38ZM26.7655 10.5002C24.4775 8.15998 21.4708 6.89109 18.2279 6.89109C15.0336 6.89109 12.0283 8.15998 9.73751 10.5002C7.44669 12.7921 6.20821 15.9123 6.20821 19.1789C6.20821 22.4455 7.44669 25.5673 9.73751 27.8577C12.0269 30.1979 15.0322 31.4668 18.2279 31.4668C21.4708 31.4668 24.4775 30.1979 26.7655 27.8577C29.0076 25.5673 30.2962 22.4455 30.2962 19.1789C30.2962 15.9123 29.0076 12.7935 26.7655 10.5002ZM19.9446 16.7422H19.8959V16.6939L15.7953 12.6955C15.6521 12.5491 15.509 12.5008 15.3658 12.5008C15.2226 12.5008 15.0322 12.5974 14.9362 12.6955L14.5053 13.136C14.4108 13.2824 14.3621 13.4272 14.3621 13.5736C14.3621 13.72 14.4094 13.8663 14.5525 14.0127L18.3195 17.7183L18.5099 24.1564C18.5099 24.4974 18.7977 24.7404 19.1313 24.7404H19.704H19.7498C20.0376 24.6921 20.2753 24.4477 20.2753 24.1067L20.0849 17.1827C20.0877 16.9866 20.0419 16.8402 19.9446 16.7422ZM11.5029 2.69953C11.8837 2.55318 12.2646 2.40829 12.6469 2.26193C9.35666 -0.761731 4.87238 -0.713434 2.10478 2.16388C-0.612713 4.94167 -0.755889 9.37911 2.00885 12.7438C2.10478 12.5477 2.2007 12.353 2.24795 12.1569C3.10844 10.0611 4.3956 8.15998 5.96911 6.50179C7.59273 4.89337 9.40248 3.62741 11.5029 2.69953ZM34.1119 19.0838C34.1119 10.1109 27.006 2.84735 18.2279 2.84735C9.49841 2.84735 2.39256 10.1123 2.39256 19.0838C2.39256 28.2016 9.49841 35.2705 18.2279 35.2705C26.9087 35.2705 34.1119 28.0538 34.1119 19.0838ZM26.2429 30.3457C25.7189 30.6867 25.192 31.0775 24.6193 31.3687C22.7122 32.3917 20.5659 33.0269 18.2279 33.0269C15.9385 33.0269 13.745 32.3917 11.8852 31.3687C11.3139 31.076 10.7397 30.6853 10.263 30.3457C6.9241 27.8109 4.73063 23.7627 4.73063 19.1789C4.73063 11.5729 10.7884 5.37926 18.2293 5.37926C25.7203 5.37926 31.7767 11.5729 31.7767 19.1789C31.7752 23.7627 29.5818 27.8109 26.2429 30.3457Z" fill="#2AB6A9"/>
</svg>
