<svg width="71" height="71" viewBox="0 0 71 71" fill="none" xmlns="http://www.w3.org/2000/svg">
<path d="M36.2928 66.2899C24.5565 66.2899 14.1881 60.2029 9.41695 50.6534L8.15078 50.5516C7.36268 50.4877 6.65978 50.0357 6.27401 49.3446C5.45278 47.8702 4.81378 46.3366 4.36648 44.7675C3.77955 44.3817 3.32988 43.79 3.13345 43.08C2.65301 41.3524 2.51338 39.5916 2.71455 37.8473C2.80211 37.09 2.95595 36.3327 3.17131 35.599C3.37721 34.8961 3.83871 34.3092 4.43511 33.9329C4.52741 33.6299 4.62681 33.3317 4.73331 33.0383C5.01731 32.2502 5.69891 31.6727 6.52015 31.5189L7.51888 31.3319C9.36488 24.4899 13.8947 19.0158 20.4929 15.6338L19.9912 14.3392C17.5843 14.1097 15.5679 12.3134 15.0922 9.90174C14.6212 7.50194 15.7501 5.12107 17.9014 3.9685C18.06 3.88094 18.228 3.80047 18.3961 3.73184C18.7345 3.5922 19.0895 3.4857 19.4492 3.4147C19.8019 3.34607 20.1616 3.31057 20.5166 3.31057C23.1507 3.31057 25.4298 5.18734 25.9363 7.7741C26.2037 9.14204 25.9434 10.536 25.2452 11.6933L25.9363 13.473C29.1123 12.5406 32.499 12.0696 36.0348 12.0672H36.0609C40.0534 12.0672 43.8354 12.6613 47.338 13.8328L48.3131 11.3123C47.6126 10.155 47.3499 8.76337 47.6173 7.39544C48.1214 4.80394 50.4029 2.9248 53.0393 2.9248C53.3943 2.9248 53.7493 2.9603 54.0996 3.02657C54.4617 3.09757 54.8167 3.20407 55.1551 3.3437C55.3255 3.41234 55.4912 3.49044 55.6521 3.58037C57.8058 4.73294 58.9371 7.11144 58.4685 9.50887C57.9975 11.9252 55.9835 13.7215 53.5766 13.9535L52.7009 16.216C58.6507 19.6027 62.7853 24.8141 64.5484 31.1639L65.6702 31.3745C66.4938 31.5283 67.1731 32.1058 67.4594 32.8915C67.7292 33.6323 67.9517 34.3944 68.1292 35.1659C68.5363 35.5256 68.8487 35.9966 69.0096 36.5409C69.2273 37.2746 69.3812 38.0319 69.4711 38.7893C69.6746 40.5335 69.5374 42.2943 69.0593 44.022C68.8203 44.8882 68.2073 45.5792 67.4263 45.9366C67.0287 47.0513 66.5341 48.1447 65.9471 49.2026C65.5637 49.8937 64.8608 50.3481 64.0727 50.412L62.8586 50.5114C60.6884 55.0577 57.2686 58.8894 52.895 61.6513C48.0954 64.683 42.3609 66.2899 36.3141 66.2923C36.3141 66.2899 36.2928 66.2899 36.2928 66.2899Z" fill="#3386C0"/>
<path d="M67.1234 39.0621C67.0429 38.3711 66.9033 37.751 66.7447 37.209C66.6642 36.9345 66.3968 36.757 66.1128 36.783C66.0891 36.7854 66.0631 36.7878 66.0394 36.7901C65.8572 35.6234 65.5661 34.5868 65.2419 33.6993C64.3686 33.536 63.4929 33.3727 62.6196 33.2094C61.0718 25.8893 56.2793 20.4294 49.7355 17.3361L52.0193 11.4337C52.1566 11.481 52.2986 11.5236 52.4453 11.552C54.1588 11.8857 55.8178 10.7686 56.1515 9.05518C56.4237 7.65411 55.7255 6.29091 54.528 5.65664C54.4451 5.60931 54.3599 5.56908 54.27 5.53358C54.0759 5.45311 53.87 5.38921 53.6547 5.34898C51.9412 5.01528 50.2822 6.13234 49.9485 7.84581C49.7213 9.01731 50.1709 10.1628 51.0277 10.8775L48.706 16.8746C44.9264 15.2748 40.6191 14.4275 36.0443 14.4322C31.9358 14.4346 28.0402 15.1233 24.5518 16.4273L22.5448 11.2609C23.3992 10.5462 23.8489 9.39834 23.6193 8.22684C23.2832 6.51338 21.6218 5.39868 19.9107 5.73474C19.6954 5.77734 19.4918 5.83888 19.2954 5.92171C19.2055 5.95721 19.1203 5.99981 19.0374 6.04478C17.8399 6.68141 17.1441 8.04461 17.4186 9.44568C17.7547 11.1591 19.4161 12.2738 21.1272 11.9378C21.2739 11.9094 21.4159 11.8668 21.5532 11.8194L23.5057 16.8415C16.3418 19.8495 11.0641 25.5627 9.469 33.3727C8.63357 33.5289 7.79814 33.6874 6.96034 33.8436C6.74024 34.4495 6.5367 35.1264 6.37104 35.8648C6.27164 35.8553 6.1746 35.8482 6.0752 35.8387C5.78884 35.8127 5.52377 35.9902 5.4433 36.2647C5.28474 36.8067 5.1451 37.4268 5.067 38.1178C4.86347 39.8786 5.11907 41.3815 5.4149 42.4465C5.493 42.7305 5.76517 42.9174 6.05864 42.889C6.15094 42.8796 6.24087 42.8701 6.33317 42.863C6.8278 45.2368 7.72714 47.0946 8.34247 48.1951C9.20394 48.2637 10.0654 48.3347 10.9269 48.4034C10.9245 48.3608 10.9245 48.3158 10.9221 48.2732C14.9786 57.8203 24.8902 63.9334 36.3117 63.9263C47.7522 63.9192 57.394 57.7754 61.2966 48.1951C61.2966 48.2188 61.2943 48.2424 61.2943 48.2637C62.1557 48.1927 63.0172 48.1217 63.8787 48.0507C64.397 47.1183 65.1164 45.6486 65.6253 43.7813C65.7957 43.7978 65.9661 43.8144 66.1388 43.831C66.4323 43.8594 66.7021 43.6724 66.7826 43.3884C67.076 42.3258 67.3293 40.8229 67.1234 39.0621Z" fill="url(#paint0_linear)"/>
<path fill-rule="evenodd" clip-rule="evenodd" d="M7.1757 35.9384C6.80887 35.9053 6.44204 35.8745 6.0752 35.8414C5.78884 35.8154 5.52377 35.9929 5.4433 36.2674C5.28474 36.8094 5.1451 37.4294 5.067 38.1205C4.86347 39.8813 5.11907 41.3841 5.4149 42.4491C5.493 42.7331 5.76517 42.9201 6.05864 42.8917C6.49174 42.8491 6.92484 42.8065 7.35557 42.7639C7.22777 41.9474 7.12364 41.0552 7.07157 40.0919C6.98874 38.5441 7.05027 37.1478 7.1757 35.9384Z" fill="#F5ECE6"/>
<path fill-rule="evenodd" clip-rule="evenodd" d="M65.0123 36.8822C65.3791 36.8491 65.746 36.8159 66.1128 36.7828C66.3968 36.7568 66.6642 36.9343 66.7447 37.2088C66.9056 37.7508 67.0429 38.3708 67.1234 39.0619C67.3293 40.8227 67.0737 42.3255 66.7802 43.3905C66.7021 43.6745 66.4323 43.8615 66.1365 43.8331C65.7034 43.7905 65.2703 43.7479 64.8372 43.7077C64.965 42.8912 65.0667 41.9989 65.1164 41.0333C65.2016 39.4879 65.1401 38.0916 65.0123 36.8822Z" fill="#F5ECE6"/>
<path fill-rule="evenodd" clip-rule="evenodd" d="M61.8647 33.0703C62.9912 33.2809 64.1154 33.4916 65.2419 33.7022C65.6324 34.7767 65.9803 36.0712 66.1412 37.5528C66.6666 42.3879 64.8869 46.2408 63.8787 48.0537C63.0172 48.1247 62.1558 48.1957 61.2943 48.2667C61.4836 43.1996 61.6753 38.135 61.8647 33.0703Z" fill="url(#paint1_linear)"/>
<path fill-rule="evenodd" clip-rule="evenodd" d="M10.3376 33.21C9.21348 33.4206 8.08694 33.6336 6.96278 33.8442C6.57228 34.9187 6.22674 36.2133 6.06818 37.6972C5.54988 42.5323 7.33434 46.3828 8.34254 48.1933C9.20401 48.262 10.0655 48.333 10.9269 48.4016C10.7305 43.3393 10.5341 38.2746 10.3376 33.21Z" fill="url(#paint2_linear)"/>
<path d="M63.1545 38.4448C63.164 53.4093 51.2762 63.9149 36.3141 63.9267C21.3521 63.9385 8.97676 53.4448 8.96729 38.4803C8.95546 23.5183 21.0799 14.4421 36.0443 14.4326C51.0088 14.4232 63.145 23.4804 63.1545 38.4448Z" fill="#F5ECE6"/>
<path d="M36.0515 28.3343C36.9626 28.3343 37.7011 27.5957 37.7011 26.6847C37.7011 25.7737 36.9626 25.0352 36.0515 25.0352C35.1405 25.0352 34.402 25.7737 34.402 26.6847C34.402 27.5957 35.1405 28.3343 36.0515 28.3343Z" fill="url(#paint3_linear)"/>
<path fill-rule="evenodd" clip-rule="evenodd" d="M37.1734 26.6849C37.1734 27.3049 36.6716 27.8067 36.0539 27.8067C35.4339 27.8067 34.9321 27.3049 34.9321 26.6872C34.9321 26.0672 35.4339 25.5654 36.0516 25.5654C36.6716 25.5631 37.1734 26.0648 37.1734 26.6849Z" fill="#68C0EC"/>
<path d="M36.7072 28.2731C36.7072 28.2731 36.7427 28.2565 36.8042 28.2281C36.8657 28.1973 36.9509 28.1547 37.0456 28.0932C37.1403 28.0317 37.2444 27.9536 37.3414 27.8589C37.3911 27.8116 37.4361 27.7571 37.4787 27.7027C37.5142 27.6554 37.571 27.5773 37.5994 27.5228C37.6349 27.466 37.668 27.3974 37.6917 27.3335C37.7177 27.2672 37.7414 27.201 37.758 27.1347C37.7935 27.0022 37.8124 26.872 37.8219 26.7608C37.8384 26.5359 37.8266 26.375 37.8266 26.375C37.8266 26.375 37.9094 26.5146 37.9426 26.756C37.9615 26.8767 37.9639 27.0187 37.9402 27.1726C37.926 27.2483 37.9118 27.3288 37.8834 27.4045C37.855 27.4826 37.8242 27.556 37.7793 27.6317C37.7319 27.7122 37.6941 27.7595 37.6373 27.8329C37.5852 27.8968 37.5237 27.9488 37.4645 27.9985C37.3438 28.0956 37.2136 28.1618 37.1 28.2021C36.9864 28.2447 36.887 28.2612 36.816 28.2683C36.7474 28.2731 36.7072 28.2731 36.7072 28.2731Z" fill="white"/>
<path d="M46.0294 55.5179C47.3263 55.1322 48.5996 54.6778 49.8468 54.1547C50.1592 54.0246 50.4692 53.8897 50.7745 53.75C51.0798 53.608 51.3899 53.4708 51.6928 53.3193C51.9981 53.1726 52.2987 53.0211 52.5992 52.8649C52.9022 52.7134 53.1956 52.5478 53.4938 52.3868C53.7873 52.2188 54.0831 52.0579 54.3719 51.8827C54.663 51.7123 54.9517 51.5372 55.2381 51.3573C55.5268 51.1822 55.8061 50.9929 56.0901 50.8106C56.3693 50.6213 56.651 50.4343 56.9255 50.2379C58.0307 49.464 59.091 48.6262 60.1087 47.7411L60.0803 47.7931C60.2223 46.8654 60.3146 45.9306 60.3595 44.9934C60.3832 44.5248 60.3927 44.0562 60.3903 43.5876C60.3879 43.3533 60.3832 43.119 60.3785 42.8847L60.3643 42.5368L60.3382 42.1841L60.2885 41.4789L60.2625 41.1262L60.2199 40.7783C60.1584 40.3145 60.1181 39.8482 60.0282 39.3891L59.9075 38.6957C59.872 38.4637 59.8105 38.2365 59.7631 38.0093L59.6093 37.323L59.4271 36.6438C59.3135 36.1894 59.1667 35.7444 59.0247 35.2971L58.9182 34.9634L58.7975 34.6345L58.5561 33.9742C58.4733 33.7541 58.381 33.5411 58.2934 33.3233C58.2035 33.108 58.1207 32.8879 58.0213 32.6772C57.8272 32.2512 57.6402 31.8229 57.4249 31.4063C57.2237 30.9851 56.9965 30.5733 56.774 30.1615C56.5421 29.7544 56.3149 29.345 56.064 28.9497C55.8226 28.5498 55.5647 28.1593 55.3067 27.7688L54.9091 27.1913L54.4973 26.6209L54.6156 26.699C53.2761 26.3843 51.9247 26.1263 50.5639 25.9228C49.8847 25.821 49.2007 25.7334 48.5191 25.6624C48.1759 25.6246 47.8328 25.5914 47.492 25.563C47.1512 25.5323 46.808 25.511 46.4648 25.4849C45.0922 25.3974 43.7171 25.3666 42.3445 25.3926C40.9718 25.4187 39.5991 25.5015 38.2312 25.6411L38.4773 25.2364C38.7471 25.9109 38.8039 26.6683 38.6193 27.3759L38.6004 27.4493L38.5815 27.5084C38.5673 27.5487 38.5602 27.5842 38.5436 27.6291C38.5105 27.7191 38.4773 27.809 38.4418 27.8895C38.3685 28.0551 38.2809 28.2184 38.1839 28.3699C37.9851 28.6752 37.7413 28.9497 37.4549 29.1793L37.0597 28.6847C37.2916 28.5001 37.4975 28.2776 37.6632 28.0291C37.746 27.9037 37.817 27.7735 37.8786 27.6386C37.9117 27.57 37.9354 27.5037 37.9614 27.4398C37.9732 27.4067 37.9874 27.3617 37.9993 27.3238L38.0182 27.2647L38.03 27.2173C38.1886 26.6422 38.1484 26.0103 37.9306 25.4542L37.7863 25.085L38.1744 25.0495C39.5589 24.924 40.9481 24.8554 42.335 24.8436C43.7242 24.8317 45.1135 24.8791 46.498 24.9808C46.8435 25.0092 47.189 25.0353 47.5369 25.0708C47.8848 25.1039 48.228 25.1394 48.5712 25.182C49.2622 25.2601 49.9486 25.3571 50.6349 25.466C52.0052 25.6861 53.366 25.9606 54.7127 26.292L54.7884 26.3109L54.831 26.3724L55.2404 26.9523L55.638 27.5416C55.896 27.9392 56.1516 28.3368 56.393 28.7462C56.6415 29.1485 56.8663 29.5674 57.0983 29.9792C57.3184 30.3981 57.5432 30.817 57.742 31.2454C57.955 31.669 58.1396 32.1045 58.3313 32.5376C58.4307 32.753 58.5112 32.9754 58.6011 33.1955C58.6863 33.4156 58.7786 33.6334 58.8591 33.8558L59.0957 34.5256L59.2141 34.8593L59.3182 35.1977C59.4578 35.6498 59.5998 36.1018 59.7111 36.5609L59.8886 37.2473L60.0353 37.9407C60.0803 38.1726 60.1418 38.4022 60.1749 38.6365L60.2885 39.337C60.3737 39.8009 60.4116 40.2766 60.4684 40.7476L60.5086 41.1002L60.5323 41.4528L60.5749 42.1581L60.5962 42.5107L60.6057 42.8681C60.6104 43.1048 60.6128 43.3414 60.6104 43.5781C60.608 44.0514 60.5938 44.5224 60.5654 44.9957C60.511 45.94 60.4045 46.8796 60.253 47.8121L60.2483 47.8428L60.2246 47.8641C59.1928 48.7422 58.1207 49.5729 57.0012 50.3373C56.7243 50.5314 56.4403 50.716 56.1563 50.9029C55.87 51.0828 55.5883 51.2698 55.2972 51.4425C55.0085 51.62 54.7174 51.7928 54.4239 51.9608C54.1328 52.1312 53.8346 52.2922 53.5364 52.4555C53.2359 52.6117 52.94 52.775 52.6371 52.9241C52.3365 53.0779 52.0312 53.227 51.7259 53.369C51.4206 53.5181 51.1106 53.6506 50.8029 53.7903C50.4929 53.9275 50.1829 54.0601 49.8681 54.1855C48.609 54.7062 47.3287 55.1464 46.0294 55.5179Z" fill="#D4C6BD"/>
<path d="M60.6601 44.8803C60.6601 44.8803 60.6672 44.575 60.6648 44.0449C60.6624 43.5124 60.6388 42.7527 60.5701 41.8462C60.537 41.3966 60.4707 40.9019 60.4163 40.3836C60.3808 40.1257 60.3358 39.863 60.2956 39.5908C60.2743 39.4559 60.2554 39.3186 60.2341 39.1814C60.208 39.0441 60.182 38.9068 60.156 38.7672C60.1015 38.4879 60.0518 38.2039 59.9903 37.9176C59.924 37.6336 59.8554 37.3448 59.7891 37.0537C59.7205 36.7626 59.6329 36.4763 59.5548 36.1852C59.4791 35.8941 59.3844 35.6053 59.2921 35.3166C59.2046 35.0279 59.1146 34.7368 59.0105 34.4528C58.9087 34.1688 58.8188 33.8824 58.7052 33.6055C58.5963 33.3286 58.4922 33.0493 58.381 32.7795C58.265 32.5097 58.1514 32.2447 58.0402 31.9843C57.8011 31.4684 57.5763 30.9667 57.3396 30.5028C57.226 30.2685 57.1077 30.0437 56.9917 29.8283C56.8758 29.6106 56.7693 29.3999 56.6533 29.2035C56.5421 29.0047 56.4356 28.8154 56.3314 28.6331C56.2273 28.4533 56.1255 28.2852 56.0332 28.1243C55.8463 27.8048 55.6711 27.5326 55.5315 27.3054C55.2451 26.8581 55.0795 26.6025 55.0795 26.6025C55.0795 26.6025 55.1244 26.6641 55.2073 26.78C55.2901 26.896 55.4155 27.064 55.5646 27.2841C55.7114 27.5066 55.8983 27.7693 56.0971 28.0841C56.1965 28.2403 56.303 28.4059 56.4166 28.5811C56.5231 28.7586 56.6367 28.9479 56.7527 29.1443C56.871 29.3384 56.987 29.549 57.1077 29.762C57.2284 29.9774 57.3538 30.1975 57.4722 30.4318C57.7207 30.8933 57.9621 31.3903 58.2035 31.9086C58.3171 32.1713 58.4354 32.4364 58.5514 32.7062C58.665 32.976 58.7715 33.2552 58.8851 33.5345C59.001 33.8114 59.0933 34.1001 59.1975 34.3865C59.304 34.6705 59.3963 34.9616 59.4862 35.2527C59.5761 35.5438 59.6684 35.8349 59.7442 36.1307C59.8199 36.4242 59.9075 36.7153 59.9737 37.0088C60.04 37.3022 60.1063 37.5933 60.1702 37.8797C60.2317 38.1684 60.2767 38.4548 60.3311 38.7364C60.3571 38.8761 60.3808 39.0157 60.4068 39.1553C60.4258 39.295 60.4447 39.4322 60.4636 39.5695C60.4991 39.8417 60.537 40.1091 60.5654 40.3694C60.608 40.8901 60.6624 41.38 60.6861 41.8391C60.7358 42.7527 60.7192 43.5147 60.705 44.0472C60.6861 44.575 60.6601 44.8803 60.6601 44.8803Z" fill="white"/>
<path d="M54.4664 26.6733C54.4664 26.6733 54.2203 26.6307 53.7919 26.5574C53.3635 26.4816 52.7482 26.387 52.0122 26.2734C51.643 26.2189 51.243 26.1621 50.8194 26.1077C50.3957 26.058 49.9484 26.0036 49.4869 25.9491C49.0231 25.8947 48.5474 25.845 48.0598 25.8048C47.5723 25.7598 47.0777 25.7219 46.583 25.6912C46.0884 25.6557 45.5914 25.6249 45.1039 25.6036C44.6163 25.5799 44.1359 25.5634 43.6697 25.5539C43.2034 25.5444 42.7538 25.535 42.3278 25.5326C41.9018 25.5279 41.4971 25.5302 41.1255 25.535C40.38 25.5444 39.7599 25.5586 39.3245 25.5728C38.889 25.587 38.6405 25.5965 38.6405 25.5965C38.6405 25.5965 38.889 25.5728 39.3221 25.5326C39.7552 25.4995 40.3776 25.445 41.1231 25.4166C41.4971 25.4024 41.9018 25.3882 42.3278 25.3788C42.7561 25.3693 43.2082 25.3622 43.6744 25.3717C44.1406 25.3764 44.6234 25.3882 45.1133 25.4072C45.6032 25.4237 46.1002 25.4498 46.5972 25.4829C47.0942 25.5184 47.5912 25.561 48.0788 25.6107C48.5663 25.658 49.0467 25.7125 49.5106 25.7716C50.4383 25.8852 51.2974 26.032 52.0335 26.1621C52.7695 26.2923 53.3754 26.4296 53.8014 26.5219C54.2274 26.6118 54.4664 26.6733 54.4664 26.6733Z" fill="white"/>
<path d="M26.1163 55.5322C24.817 55.163 23.5342 54.7228 22.2799 54.214C21.9651 54.0862 21.6551 53.956 21.3451 53.8187C21.0374 53.6791 20.7274 53.5466 20.4221 53.3998C20.1144 53.2578 19.8115 53.1087 19.5085 52.9549C19.2032 52.8058 18.9074 52.6425 18.6068 52.4863C18.311 52.323 18.0128 52.1621 17.7193 51.9917C17.4259 51.8236 17.1348 51.6532 16.846 51.4757C16.5549 51.303 16.2709 51.116 15.9846 50.9361C15.7029 50.7492 15.4166 50.5646 15.1397 50.3729C14.0202 49.6108 12.9458 48.7801 11.9139 47.9044L11.8902 47.8831L11.8855 47.8524C11.7317 46.9199 11.6252 45.9803 11.5707 45.036C11.5423 44.5651 11.5258 44.0917 11.5234 43.6184C11.521 43.3817 11.5234 43.1451 11.5281 42.9084L11.5376 42.551L11.5589 42.1984L11.6015 41.4931L11.6228 41.1405L11.6607 40.7879C11.7175 40.3169 11.753 39.8436 11.8382 39.3773L11.9518 38.6768C11.9849 38.4425 12.0441 38.2129 12.0914 37.981L12.2381 37.2852L12.4156 36.5965C12.5269 36.135 12.6689 35.6853 12.8061 35.2309L12.9103 34.8925L13.0286 34.5564L13.2629 33.8867C13.3434 33.6642 13.4357 33.4465 13.5209 33.224C13.6108 33.0039 13.6889 32.7814 13.7883 32.5661C13.9776 32.133 14.1646 31.6975 14.3752 31.2739C14.574 30.8431 14.7989 30.4266 15.0166 30.0077C15.2462 29.5935 15.471 29.177 15.7195 28.7723C15.9585 28.3629 16.2165 27.9653 16.4721 27.5677L16.8673 26.9784L17.2768 26.3962L17.3194 26.3346L17.3951 26.3157C18.7417 25.982 20.1026 25.7051 21.4729 25.4826C22.1592 25.3714 22.8455 25.2744 23.5366 25.1963C23.8798 25.156 24.2229 25.1182 24.5708 25.085C24.9164 25.0495 25.2619 25.0235 25.6098 24.9951C26.9943 24.891 28.3835 24.8413 29.7728 24.8507C31.162 24.8602 32.5512 24.9288 33.9357 25.0519L34.3239 25.0874L34.1819 25.4566C33.9665 26.0151 33.9263 26.647 34.0848 27.2198L34.0967 27.2671L34.1156 27.3263C34.1274 27.3641 34.1416 27.4091 34.1535 27.4422C34.1795 27.5085 34.2032 27.5724 34.2363 27.641C34.2978 27.7759 34.3712 27.9085 34.4517 28.0315C34.6173 28.28 34.8232 28.5025 35.0552 28.6871L34.6599 29.1817C34.3736 28.9522 34.1298 28.6776 33.931 28.3723C33.8316 28.2185 33.7464 28.0576 33.6707 27.8919C33.6328 27.8114 33.5997 27.7215 33.5665 27.6316C33.55 27.5866 33.5405 27.5511 33.5287 27.5109L33.5097 27.4517L33.4908 27.3783C33.3038 26.6707 33.3606 25.9134 33.6304 25.2389L33.8766 25.6412C32.511 25.5039 31.1383 25.4235 29.7633 25.3974C28.3906 25.3738 27.0156 25.4069 25.6429 25.4968C25.2998 25.5229 24.9566 25.5442 24.6158 25.5749C24.275 25.6033 23.9318 25.6365 23.5887 25.6743C22.9071 25.7453 22.2231 25.8353 21.5439 25.937C20.183 26.1406 18.8317 26.4009 17.4945 26.718L17.6128 26.6376L17.2034 27.2079L16.8034 27.7925C16.5455 28.183 16.2875 28.5735 16.0461 28.9758C15.7976 29.3711 15.5704 29.7829 15.3385 30.1876C15.1184 30.5994 14.8912 31.0112 14.69 31.4324C14.477 31.849 14.2877 32.2773 14.096 32.7057C13.9966 32.9163 13.9137 33.1364 13.8238 33.3542C13.7362 33.5719 13.6439 33.7873 13.5611 34.005L13.3221 34.6653L13.2014 34.9966L13.0949 35.3303C12.9529 35.7776 12.8085 36.2226 12.6925 36.677L12.5103 37.3562L12.3588 38.0425C12.3115 38.2721 12.25 38.4993 12.2145 38.7312L12.0961 39.4247C12.0062 39.8862 11.966 40.35 11.9044 40.8139L11.8618 41.1618L11.8358 41.5144L11.7861 42.2197L11.7624 42.5723L11.7506 42.9202C11.7435 43.1545 11.7388 43.3888 11.7388 43.6231C11.7364 44.0917 11.7482 44.5603 11.7695 45.0289C11.8145 45.9661 11.9115 46.901 12.0535 47.8287L12.0251 47.7766C13.0452 48.6594 14.1054 49.4972 15.213 50.2711C15.4876 50.4675 15.7692 50.6521 16.0485 50.8415C16.3325 51.0237 16.6117 51.213 16.9005 51.3882C17.1868 51.568 17.4756 51.7432 17.7667 51.9136C18.0554 52.0863 18.3536 52.2496 18.6471 52.4153C18.9453 52.5739 19.2387 52.7395 19.5417 52.891C19.8422 53.0472 20.1428 53.1987 20.4481 53.343C20.751 53.4945 21.0587 53.6294 21.3664 53.7714C21.674 53.911 21.9841 54.0459 22.2965 54.1761C23.5437 54.6968 24.8193 55.1488 26.1163 55.5322Z" fill="#D4C6BD"/>
<path d="M11.4689 44.9109C11.4689 44.9109 11.4428 44.6079 11.4239 44.0754C11.4073 43.5429 11.3908 42.7808 11.4405 41.8673C11.4618 41.4082 11.5162 40.9183 11.5588 40.3976C11.5872 40.1373 11.6251 39.8698 11.6606 39.5977C11.6795 39.4604 11.6984 39.3231 11.715 39.1835C11.7387 39.0462 11.7647 38.9066 11.7907 38.7646C11.8428 38.483 11.8901 38.1966 11.9517 37.9079C12.0156 37.6215 12.0818 37.3304 12.1481 37.037C12.2144 36.7435 12.2996 36.4524 12.3753 36.1589C12.4487 35.8631 12.541 35.572 12.6309 35.2809C12.7208 34.9898 12.8131 34.6987 12.9196 34.4147C13.0238 34.1307 13.1161 33.8396 13.232 33.5627C13.3433 33.2834 13.4498 33.0065 13.5634 32.7343C13.6817 32.4645 13.7977 32.1971 13.9113 31.9368C14.1503 31.4185 14.3917 30.9215 14.6402 30.4576C14.7585 30.2233 14.884 30.0008 15.0047 29.7878C15.1254 29.5725 15.239 29.3642 15.3573 29.1678C15.4733 28.9713 15.5869 28.7844 15.6934 28.6045C15.8046 28.4294 15.9111 28.2637 16.0129 28.1075C16.2117 27.7927 16.3986 27.53 16.5454 27.3076C16.6968 27.0875 16.8199 26.9194 16.9027 26.8035C16.9856 26.6875 17.0305 26.626 17.0305 26.626C17.0305 26.626 16.8672 26.8816 16.5809 27.3312C16.4436 27.5584 16.2661 27.8282 16.0815 28.1501C15.9868 28.3087 15.8874 28.4791 15.7833 28.6589C15.6815 28.8388 15.575 29.0305 15.4638 29.2293C15.3502 29.4257 15.2413 29.6364 15.1277 29.8541C15.0118 30.0718 14.8934 30.2943 14.7822 30.531C14.5479 30.9972 14.3207 31.4966 14.084 32.0149C13.9728 32.2752 13.8592 32.5426 13.7456 32.8101C13.6344 33.0799 13.5326 33.3591 13.4237 33.636C13.3101 33.9129 13.2226 34.1993 13.1208 34.4833C13.0167 34.7673 12.9291 35.056 12.8415 35.3471C12.7492 35.6359 12.6569 35.9246 12.5812 36.2157C12.5031 36.5068 12.4155 36.7955 12.3493 37.0866C12.2806 37.3777 12.2144 37.6665 12.1481 37.9505C12.0866 38.2369 12.0369 38.5208 11.9824 38.8001C11.9564 38.9397 11.9304 39.077 11.9043 39.2143C11.883 39.3516 11.8641 39.4888 11.8428 39.6237C11.8026 39.8935 11.7576 40.1562 11.7221 40.4166C11.67 40.9349 11.6014 41.4295 11.5706 41.8792C11.502 42.7856 11.4783 43.5453 11.4783 44.0778C11.4618 44.6079 11.4689 44.9109 11.4689 44.9109Z" fill="white"/>
<path d="M17.6365 26.6968C17.6365 26.6968 17.8779 26.6353 18.3015 26.5383C18.7275 26.446 19.3334 26.3087 20.0694 26.1762C20.8054 26.046 21.6645 25.8969 22.5899 25.7833C23.0514 25.7241 23.5342 25.6697 24.0217 25.6224C24.5093 25.5727 25.0063 25.5301 25.5033 25.4922C26.0003 25.4591 26.4973 25.433 26.9872 25.4165C27.4771 25.3975 27.9599 25.3857 28.4261 25.3786C28.8923 25.3691 29.3444 25.3762 29.7727 25.3833C30.2011 25.3904 30.6058 25.4046 30.9774 25.4188C31.7229 25.4472 32.3453 25.5017 32.7784 25.5324C33.2115 25.5727 33.46 25.5963 33.46 25.5963C33.46 25.5963 33.2115 25.5892 32.776 25.575C32.3406 25.5608 31.7205 25.549 30.975 25.5395C30.6034 25.5372 30.1987 25.5348 29.7727 25.5395C29.3467 25.5443 28.8947 25.5537 28.4308 25.5632C27.9646 25.5727 27.4842 25.5892 26.9966 25.6153C26.5091 25.6389 26.0121 25.6673 25.5175 25.7052C25.0228 25.736 24.5258 25.7738 24.0407 25.8188C23.5531 25.8614 23.0774 25.9135 22.6136 25.9655C22.1521 26.0223 21.7048 26.0744 21.2811 26.1265C20.8575 26.1809 20.4575 26.2377 20.0907 26.2945C19.3547 26.4081 18.7393 26.5028 18.311 26.5809C17.8826 26.6542 17.6365 26.6968 17.6365 26.6968Z" fill="white"/>
<path fill-rule="evenodd" clip-rule="evenodd" d="M24.9636 20.4181C22.7673 21.4026 20.6752 23.1895 20.9426 23.7456C20.9899 23.8427 21.2171 24.1267 23.6453 23.5942C27.4273 22.7658 32.7168 20.7968 32.4848 19.8477C32.2908 19.0596 28.2698 18.9366 24.9636 20.4181Z" fill="#D4C6BD"/>
<path fill-rule="evenodd" clip-rule="evenodd" d="M25.1268 21.0644C23.4772 21.8051 21.9034 23.147 22.1046 23.5636C22.1401 23.6369 22.3105 23.8499 24.1352 23.45C26.9775 22.8275 30.9535 21.3484 30.7784 20.636C30.634 20.042 27.6118 19.9497 25.1268 21.0644Z" fill="url(#paint4_linear)"/>
<path fill-rule="evenodd" clip-rule="evenodd" d="M48.6326 20.2285C50.8289 21.2106 52.9234 22.9927 52.6583 23.5489C52.611 23.6459 52.3861 23.9299 49.9556 23.4022C46.1736 22.5786 40.8818 20.6166 41.1113 19.6676C41.3007 18.8795 45.3216 18.7517 48.6326 20.2285Z" fill="#D4C6BD"/>
<path fill-rule="evenodd" clip-rule="evenodd" d="M48.4693 20.8741C50.1212 21.6125 51.695 22.9521 51.4939 23.371C51.4584 23.4443 51.288 23.6573 49.4609 23.2597C46.6185 22.6397 42.6402 21.1676 42.8129 20.4529C42.9597 19.8612 45.9819 19.7642 48.4693 20.8741Z" fill="url(#paint5_linear)"/>
<path d="M46.8766 21.6013L47.9274 22.006L52.7175 9.6307L51.6667 9.22363L46.8766 21.6013Z" fill="url(#paint6_linear)"/>
<path d="M53.0489 11.609C54.7938 11.609 56.2084 10.1945 56.2084 8.44954C56.2084 6.7046 54.7938 5.29004 53.0489 5.29004C51.304 5.29004 49.8894 6.7046 49.8894 8.44954C49.8894 10.1945 51.304 11.609 53.0489 11.609Z" fill="#F5ECE6"/>
<path d="M53.4724 9.69195C54.6632 9.69195 55.6285 8.72666 55.6285 7.53592C55.6285 6.34517 54.6632 5.37988 53.4724 5.37988C52.2817 5.37988 51.3164 6.34517 51.3164 7.53592C51.3164 8.72666 52.2817 9.69195 53.4724 9.69195Z" fill="#FCF6F0"/>
<path d="M53.2144 7.87908C53.9882 7.87908 54.6155 7.31962 54.6155 6.62948C54.6155 5.93935 53.9882 5.37988 53.2144 5.37988C52.4406 5.37988 51.8134 5.93935 51.8134 6.62948C51.8134 7.31962 52.4406 7.87908 53.2144 7.87908Z" fill="white"/>
<path d="M26.7103 21.9799L25.6595 22.3846L20.8528 10.0141L21.9036 9.60938L26.7103 21.9799Z" fill="url(#paint7_linear)"/>
<path d="M20.519 11.9977C22.2639 11.9977 23.6785 10.5832 23.6785 8.83821C23.6785 7.09327 22.2639 5.67871 20.519 5.67871C18.7741 5.67871 17.3595 7.09327 17.3595 8.83821C17.3595 10.5832 18.7741 11.9977 20.519 11.9977Z" fill="#F5ECE6"/>
<path d="M20.0954 10.0806C21.2861 10.0806 22.2514 9.11533 22.2514 7.92459C22.2514 6.73384 21.2861 5.76855 20.0954 5.76855C18.9046 5.76855 17.9393 6.73384 17.9393 7.92459C17.9393 9.11533 18.9046 10.0806 20.0954 10.0806Z" fill="#FCF6F0"/>
<path d="M20.351 8.26775C21.1248 8.26775 21.7521 7.70829 21.7521 7.01815C21.7521 6.32802 21.1248 5.76855 20.351 5.76855C19.5772 5.76855 18.95 6.32802 18.95 7.01815C18.95 7.70829 19.5772 8.26775 20.351 8.26775Z" fill="white"/>
<path fill-rule="evenodd" clip-rule="evenodd" d="M58.2886 37.6088C57.9455 35.467 57.4082 33.2186 56.1255 31.4247C54.7576 29.5124 52.8311 28.6415 50.5354 28.4735C47.8138 28.2747 45.0874 28.6178 42.3633 28.8711C41.8616 30.6106 39.2322 31.9406 36.0538 31.943C33.0126 31.9454 30.4708 30.7313 29.8153 29.1006C26.2582 28.7527 21.2456 28.5137 18.079 30.0236C17.9417 30.0899 17.8068 30.1656 17.6766 30.2485C15.7076 31.5217 14.6284 34.7925 14.084 36.8893C13.322 39.824 12.9267 43.1776 13.3456 46.1998C13.7101 48.8292 16.3182 50.235 18.486 51.6147C23.2359 54.637 28.755 56.4617 34.3806 56.8001C42.0651 57.2616 49.8846 54.947 56.0782 50.377C60.3595 47.2198 59.0365 42.2806 58.2886 37.6088Z" fill="url(#paint8_linear)"/>
<path fill-rule="evenodd" clip-rule="evenodd" d="M57.1526 37.8669C56.8284 35.8339 56.3172 33.7016 55.1007 31.9999C53.8038 30.1871 51.9767 29.3587 49.797 29.2002C47.215 29.0108 44.6282 29.3374 42.0438 29.5765C41.5681 31.226 39.0736 32.4875 36.0585 32.4898C33.1735 32.4922 30.7619 31.3396 30.1395 29.7942C26.7646 29.4652 22.01 29.238 19.0043 30.6699C18.8741 30.7314 18.7463 30.8048 18.6209 30.8829C16.7536 32.0899 15.7288 35.1926 15.2129 37.1829C14.4887 39.9661 14.1148 43.1493 14.5124 46.0153C14.8579 48.5098 17.3311 49.8422 19.3901 51.1534C23.8986 54.0218 29.1336 55.7518 34.4705 56.0713C41.7598 56.5091 49.1817 54.3129 55.0581 49.9771C59.1169 46.9857 57.8626 42.2973 57.1526 37.8669Z" fill="#051F28"/>
<path fill-rule="evenodd" clip-rule="evenodd" d="M41.0855 58.4219C41.0973 58.6325 41.1115 58.8431 41.1233 59.0538C40.792 59.2455 40.4204 59.4348 40.0086 59.6123C39.0288 60.0336 38.1153 60.2466 37.3674 60.3578C37.3438 60.5803 37.3177 60.8051 37.2941 61.0276C37.0101 61.1412 36.674 61.25 36.2906 61.3258C35.4078 61.4985 34.6481 61.4252 34.1322 61.3281C34.0707 61.0678 34.0068 60.8075 33.9452 60.5471C33.4411 60.5542 32.8802 60.5353 32.272 60.4738C31.7442 60.4193 31.2591 60.3412 30.8212 60.2513C30.7337 59.8679 30.6461 59.4821 30.5609 59.0987C31.6425 59.1295 32.7714 59.1319 33.9452 59.0964C36.5367 59.0183 38.9271 58.765 41.0855 58.4219Z" fill="#D6C9C1"/>
<path fill-rule="evenodd" clip-rule="evenodd" d="M41.457 58.0125C40.4914 58.19 39.4358 58.3273 38.2951 58.3865C34.6433 58.5805 31.5501 57.9226 29.2923 57.2031C29.2686 57.4848 29.2686 57.9439 29.4414 58.4669C29.6781 59.184 30.1088 59.6361 30.336 59.842C31.5596 60.1189 33.2801 60.3626 35.3202 60.2112C38.0206 60.0076 40.1222 59.1959 41.4191 58.5711C41.4333 58.3865 41.4451 58.1995 41.457 58.0125Z" fill="url(#paint9_linear)"/>
<path fill-rule="evenodd" clip-rule="evenodd" d="M39.1897 58.4597C38.1602 58.7745 36.7237 59.0964 34.9889 59.12C32.8968 59.1508 31.1951 58.739 30.0662 58.3698C30.0236 58.0976 29.9834 57.8255 29.9408 57.5557C30.9608 57.8397 32.1158 58.0953 33.389 58.2751C35.6042 58.5875 37.5733 58.5828 39.1897 58.4597Z" fill="#CDE8FF"/>
<path d="M25.6499 49.5469C27.5242 49.5469 29.0437 46.3078 29.0437 42.312C29.0437 38.3163 27.5242 35.0771 25.6499 35.0771C23.7756 35.0771 22.2561 38.3163 22.2561 42.312C22.2561 46.3078 23.7756 49.5469 25.6499 49.5469Z" fill="url(#paint10_linear)"/>
<path d="M25.5576 39.5693C26.4804 39.5693 27.2285 38.8212 27.2285 37.8984C27.2285 36.9756 26.4804 36.2275 25.5576 36.2275C24.6348 36.2275 23.8867 36.9756 23.8867 37.8984C23.8867 38.8212 24.6348 39.5693 25.5576 39.5693Z" fill="white"/>
<path d="M28.3242 42.5791H27.2237C27.2237 42.5791 27.1385 46.219 25.9339 46.4439C24.7293 46.6687 24.1897 42.8939 24.1897 42.8939L22.8857 42.9838C22.8857 42.9838 22.8454 49.0496 25.6523 49.0046C28.4615 48.962 28.3242 42.5791 28.3242 42.5791Z" fill="#54FCFF"/>
<path d="M45.9867 37.4692C44.5123 38.946 43.0378 40.4228 41.5634 41.8973C41.3504 42.1103 41.1374 42.3233 40.9244 42.5363C40.4345 43.0262 40.5221 43.7243 41.1492 44.0462C43.0497 45.0189 44.9477 45.994 46.8482 46.9667C47.2742 47.1844 47.8303 46.8886 47.996 46.4744C48.1877 45.9963 47.9297 45.5443 47.5037 45.3266C45.6033 44.3539 43.7052 43.3788 41.8048 42.4061C41.8805 42.9102 41.9539 43.4119 42.0296 43.916C43.5041 42.4392 44.9785 40.9624 46.4529 39.488C46.6659 39.275 46.8789 39.062 47.0919 38.849C47.428 38.5129 47.5487 38.0065 47.2268 37.6065C46.9547 37.2633 46.3251 37.1284 45.9867 37.4692Z" fill="url(#paint11_linear)"/>
<defs>
<linearGradient id="paint0_linear" x1="8.05317" y1="34.6073" x2="61.3463" y2="34.6073" gradientUnits="userSpaceOnUse">
<stop stop-color="#08529C"/>
<stop offset="0.1548" stop-color="#1B69AC"/>
<stop offset="0.5461" stop-color="#479ED2"/>
<stop offset="0.8397" stop-color="#63BFE9"/>
<stop offset="1" stop-color="#6DCCF2"/>
</linearGradient>
<linearGradient id="paint1_linear" x1="66.6503" y1="40.8582" x2="60.2932" y2="40.6179" gradientUnits="userSpaceOnUse">
<stop stop-color="#6DCCF2"/>
<stop offset="1" stop-color="#08529C"/>
</linearGradient>
<linearGradient id="paint2_linear" x1="5.97528" y1="40.8098" x2="10.9227" y2="40.8065" gradientUnits="userSpaceOnUse">
<stop stop-color="#6DCCF2"/>
<stop offset="1" stop-color="#08529C"/>
</linearGradient>
<linearGradient id="paint3_linear" x1="34.4041" y1="26.6864" x2="37.7012" y2="26.6842" gradientUnits="userSpaceOnUse">
<stop stop-color="#6DCCF2"/>
<stop offset="1" stop-color="#08529C"/>
</linearGradient>
<linearGradient id="paint4_linear" x1="22.0868" y1="21.9472" x2="30.7865" y2="21.9414" gradientUnits="userSpaceOnUse">
<stop stop-color="#6DCCF2"/>
<stop offset="1" stop-color="#08529C"/>
</linearGradient>
<linearGradient id="paint5_linear" x1="42.8104" y1="21.7594" x2="51.5101" y2="21.7536" gradientUnits="userSpaceOnUse">
<stop stop-color="#6DCCF2"/>
<stop offset="1" stop-color="#08529C"/>
</linearGradient>
<linearGradient id="paint6_linear" x1="46.8723" y1="15.6173" x2="52.7213" y2="15.6134" gradientUnits="userSpaceOnUse">
<stop stop-color="#6DCCF2"/>
<stop offset="1" stop-color="#08529C"/>
</linearGradient>
<linearGradient id="paint7_linear" x1="26.7054" y1="15.995" x2="20.8564" y2="15.9989" gradientUnits="userSpaceOnUse">
<stop stop-color="#6DCCF2"/>
<stop offset="1" stop-color="#08529C"/>
</linearGradient>
<linearGradient id="paint8_linear" x1="29.8253" y1="26.581" x2="41.8871" y2="56.2419" gradientUnits="userSpaceOnUse">
<stop stop-color="#6DCCF2"/>
<stop offset="1" stop-color="#08529C"/>
</linearGradient>
<linearGradient id="paint9_linear" x1="35.3696" y1="57.2259" x2="35.3717" y2="60.3966" gradientUnits="userSpaceOnUse">
<stop stop-color="#6DCEF5"/>
<stop offset="1" stop-color="#034EA1"/>
</linearGradient>
<linearGradient id="paint10_linear" x1="22.2563" y1="42.3145" x2="29.0421" y2="42.31" gradientUnits="userSpaceOnUse">
<stop stop-color="#6DCCF2"/>
<stop offset="1" stop-color="#08529C"/>
</linearGradient>
<linearGradient id="paint11_linear" x1="40.9406" y1="43.032" x2="47.2988" y2="42.0864" gradientUnits="userSpaceOnUse">
<stop stop-color="#08529C"/>
<stop offset="0.1548" stop-color="#1B69AC"/>
<stop offset="0.5461" stop-color="#479ED2"/>
<stop offset="0.8397" stop-color="#63BFE9"/>
<stop offset="1" stop-color="#6DCCF2"/>
</linearGradient>
</defs>
</svg>
