<svg width="28" height="27" viewBox="0 0 28 27" fill="none" xmlns="http://www.w3.org/2000/svg">
<path d="M25.2372 7.05109C24.0946 5.08758 22.5348 3.53456 20.5713 2.38519C18.6077 1.24266 16.4664 0.667969 14.1402 0.667969C11.8141 0.667969 9.67275 1.24266 7.70923 2.38519C5.74572 3.52772 4.1927 5.08758 3.04333 7.05109C1.9008 9.01461 1.32611 11.156 1.32611 13.4821C1.32611 15.8082 1.9008 17.9496 3.04333 19.9131C4.18586 21.8766 5.74572 23.4297 7.70923 24.579C9.67275 25.7216 11.8141 26.2962 14.1402 26.2962C16.4664 26.2962 18.6077 25.7216 20.5713 24.579C22.5348 23.4365 24.0878 21.8766 25.2372 19.9131C26.3797 17.9496 26.9544 15.8082 26.9544 13.4821C26.9544 11.156 26.3797 9.01461 25.2372 7.05109ZM23.4036 18.7432C22.4527 20.3715 21.1665 21.6577 19.5382 22.6087C17.9099 23.5596 16.1311 24.0317 14.2087 24.0317C12.2794 24.0317 10.5074 23.5596 8.87913 22.6087C7.25085 21.6577 5.96465 20.3715 5.01368 18.7432C4.05587 17.1149 3.58381 15.3362 3.58381 13.4137C3.58381 11.4844 4.05587 9.7056 5.00684 8.08416C5.95781 6.45588 7.24401 5.16968 8.87229 4.21871C10.5006 3.2609 12.2794 2.78884 14.2087 2.78884C16.138 2.78884 17.9168 3.2609 19.5382 4.21187C21.1665 5.16284 22.4527 6.44904 23.4036 8.07732C24.3546 9.7056 24.8267 11.4844 24.8267 13.4069C24.8335 15.3362 24.3546 17.1149 23.4036 18.7432Z" fill="#1D84FF" stroke="white" stroke-miterlimit="10"/>
<path d="M21.016 10.8414H14.1403V7.0923C14.1403 6.92126 14.0787 6.77759 13.9555 6.65445C13.8324 6.5313 13.6887 6.46973 13.5177 6.46973C13.333 6.46973 13.1825 6.5313 13.0661 6.64761L6.81301 12.9007C6.69671 13.017 6.63513 13.1676 6.63513 13.3523C6.63513 13.537 6.69671 13.6875 6.81301 13.8038L13.0456 20.0364C13.203 20.1664 13.3603 20.228 13.5177 20.228C13.7024 20.228 13.8529 20.1664 13.9692 20.0501C14.0855 19.9338 14.1471 19.7833 14.1471 19.5986V15.8494H21.0228C21.1939 15.8494 21.3375 15.7878 21.4607 15.6647C21.5838 15.5416 21.6454 15.391 21.6454 15.2268V11.4777C21.6454 11.3067 21.5838 11.163 21.4607 11.0398C21.3307 10.903 21.1802 10.8414 21.016 10.8414Z" fill="#1D84FF" stroke="white" stroke-miterlimit="10"/>
</svg>
