<svg width="29" height="30" viewBox="0 0 29 30" fill="none" xmlns="http://www.w3.org/2000/svg">
<g clip-path="url(#clip0)">
<path fill-rule="evenodd" clip-rule="evenodd" d="M23.645 29.4396H5.23498C2.34313 29.4396 0 27.0955 0 24.2046V5.79455C0 2.9027 2.34313 0.55957 5.23498 0.55957H23.646C26.5359 0.55957 28.88 2.9027 28.88 5.79455V24.2056C28.88 27.0955 26.5359 29.4396 23.645 29.4396Z" fill="#2AB6A9"/>
<path d="M22.9398 7.96057L11.668 23.0205L17.211 29.4386H23.5338C26.4863 29.4386 28.8795 27.0454 28.8795 24.0929V13.9002L22.9398 7.96057Z" fill="#25A294"/>
<path d="M6.62053 17.8598C8.07897 19.4155 9.53741 20.9712 10.9958 22.5268C12.0143 23.6127 13.674 23.2084 14.4316 22.084C17.2512 17.9031 20.0719 13.7213 22.8915 9.54045C24.4703 7.19924 20.6812 5.00725 19.113 7.33209C16.2934 11.513 13.4728 15.6948 10.6531 19.8756C11.7987 19.7284 12.9443 19.5801 14.0889 19.4328C12.6305 17.8772 11.172 16.3215 9.71357 14.7658C7.78439 12.7067 4.69423 15.8055 6.62053 17.8598Z" fill="white"/>
</g>
<defs>
<clipPath id="clip0">
<rect width="28.88" height="28.88" fill="white" transform="translate(0 0.55957)"/>
</clipPath>
</defs>
</svg>
