<svg width="22" height="18" viewBox="0 0 22 18" fill="none" xmlns="http://www.w3.org/2000/svg">
<path d="M11 5.23577C11 3.5459 9.03409 2.61766 7.72921 3.6914L5.99816 5.1158C5.64017 5.41037 5.19097 5.57143 4.72737 5.57143H3C1.89543 5.57143 1 6.46686 1 7.57143V10.4286C1 11.5331 1.89543 12.4286 3 12.4286H4.72737C5.19097 12.4286 5.64017 12.5896 5.99816 12.8842L7.72921 14.3086C9.03409 15.3823 11 14.4541 11 12.7642V5.23577Z" stroke="#BDBDBD" stroke-width="2" stroke-linecap="round" stroke-linejoin="round"/>
<path d="M17.8263 1C19.8584 3.12195 21 5.99956 21 9C21 12.0004 19.8584 14.878 17.8263 17M14 4.99434C15.016 6.05532 15.5868 7.49412 15.5868 8.99434C15.5868 10.4946 15.016 11.9334 14 12.9943" stroke="#BDBDBD" stroke-width="2" stroke-linecap="round" stroke-linejoin="round"/>
</svg>
