<svg width="23" height="21" viewBox="0 0 23 21" fill="none" xmlns="http://www.w3.org/2000/svg">
<path d="M18.9298 3.91452C18.4815 3.46607 17.9493 3.11034 17.3636 2.86763C16.7778 2.62492 16.15 2.5 15.516 2.5C14.8819 2.5 14.2541 2.62492 13.6683 2.86763C13.0826 3.11034 12.5504 3.46607 12.1022 3.91452L11.1719 4.84476L10.2417 3.91452C9.33627 3.00912 8.10829 2.50047 6.82786 2.50047C5.54743 2.50047 4.31945 3.00912 3.41405 3.91452C2.50865 4.81992 2 6.0479 2 7.32833C2 8.60875 2.50865 9.83674 3.41405 10.7421L4.34429 11.6724L11.1719 18.5L17.9995 11.6724L18.9298 10.7421C19.3782 10.2939 19.734 9.76171 19.9767 9.17596C20.2194 8.5902 20.3443 7.96237 20.3443 7.32833C20.3443 6.69428 20.2194 6.06645 19.9767 5.4807C19.734 4.89494 19.3782 4.36275 18.9298 3.91452V3.91452Z" stroke="#FFB800" stroke-width="4" stroke-linecap="round" stroke-linejoin="round"/>
</svg>
