<svg width="14" height="14" viewBox="0 0 14 14" fill="none" xmlns="http://www.w3.org/2000/svg">
<path d="M4.66667 0.625V1.875H8.66667V0.625H10V1.875H12.6667C12.8435 1.875 13.013 1.94085 13.1381 2.05806C13.2631 2.17527 13.3333 2.33424 13.3333 2.5V12.5C13.3333 12.6658 13.2631 12.8247 13.1381 12.9419C13.013 13.0592 12.8435 13.125 12.6667 13.125H0.666667C0.489856 13.125 0.320286 13.0592 0.195262 12.9419C0.0702379 12.8247 0 12.6658 0 12.5V2.5C0 2.33424 0.0702379 2.17527 0.195262 2.05806C0.320286 1.94085 0.489856 1.875 0.666667 1.875H3.33333V0.625H4.66667ZM12 5H1.33333V11.875H12V5ZM8.69067 6.335L9.63333 7.21875L6.33333 10.3125L3.976 8.1025L4.92 7.21875L6.334 8.545L8.69133 6.335H8.69067Z" fill="white"/>
</svg>
