<svg width="12" height="14" viewBox="0 0 12 14" fill="none" xmlns="http://www.w3.org/2000/svg">
<path d="M9.74505 3.312L10.7137 2.34333L11.6564 3.286L10.6877 4.25467C11.6449 5.45278 12.107 6.97192 11.9791 8.50009C11.8512 10.0283 11.143 11.4495 10 12.4718C8.85704 13.4942 7.36596 14.0401 5.83304 13.9974C4.30012 13.9547 2.84172 13.3267 1.75736 12.2424C0.673004 11.158 0.0449996 9.6996 0.00232589 8.16668C-0.0403479 6.63376 0.505548 5.14268 1.5279 3.99967C2.55025 2.85667 3.97145 2.1485 5.49963 2.02061C7.0278 1.89272 8.54694 2.35482 9.74505 3.312ZM5.99971 12.6667C6.61255 12.6667 7.21938 12.546 7.78557 12.3114C8.35176 12.0769 8.86621 11.7332 9.29955 11.2998C9.73289 10.8665 10.0766 10.352 10.3112 9.78586C10.5457 9.21967 10.6664 8.61284 10.6664 8C10.6664 7.38716 10.5457 6.78033 10.3112 6.21414C10.0766 5.64796 9.73289 5.13351 9.29955 4.70017C8.86621 4.26683 8.35176 3.92308 7.78557 3.68856C7.21938 3.45404 6.61255 3.33333 5.99971 3.33333C4.76204 3.33333 3.57505 3.825 2.69988 4.70017C1.82471 5.57534 1.33305 6.76232 1.33305 8C1.33305 9.23768 1.82471 10.4247 2.69988 11.2998C3.57505 12.175 4.76204 12.6667 5.99971 12.6667ZM5.33305 4.66667H6.66638V8.66667H5.33305V4.66667ZM3.33305 0H8.66638V1.33333H3.33305V0Z" fill="white"/>
</svg>
