<svg width="40" height="40" viewBox="0 0 40 40" fill="none" xmlns="http://www.w3.org/2000/svg">
<g clip-path="url(#clip0)">
<path d="M36.4844 4.76562H12.8906C10.9531 4.76562 9.375 6.34375 9.375 8.28125C9.375 10.2188 10.9531 11.7969 12.8906 11.7969H36.4844C38.4219 11.7969 40 10.2188 40 8.28125C40 6.34375 38.4219 4.76562 36.4844 4.76562Z" fill="#1D84FF" stroke="white" stroke-miterlimit="10"/>
<path d="M36.4844 16.4844H12.8906C10.9531 16.4844 9.375 18.0625 9.375 20C9.375 21.9375 10.9531 23.5156 12.8906 23.5156H36.4844C38.4219 23.5156 40 21.9375 40 20C40 18.0625 38.4219 16.4844 36.4844 16.4844Z" fill="#1D84FF" stroke="white" stroke-miterlimit="10"/>
<path d="M36.4844 28.2031H12.8906C10.9531 28.2031 9.375 29.7812 9.375 31.7188C9.375 33.6562 10.9531 35.2344 12.8906 35.2344H36.4844C38.4219 35.2344 40 33.6562 40 31.7188C40 29.7812 38.4219 28.2031 36.4844 28.2031Z" fill="#1D84FF" stroke="white" stroke-miterlimit="10"/>
<path d="M3.51562 4.76562C1.57812 4.76562 0 6.34375 0 8.28125C0 10.2188 1.57812 11.7969 3.51562 11.7969C5.45312 11.7969 7.03125 10.2188 7.03125 8.28125C7.03125 6.34375 5.45312 4.76562 3.51562 4.76562Z" fill="#1D84FF" stroke="white" stroke-miterlimit="10"/>
<path d="M3.51562 16.4844C1.57812 16.4844 0 18.0625 0 20C0 21.9375 1.57812 23.5156 3.51562 23.5156C5.45312 23.5156 7.03125 21.9375 7.03125 20C7.03125 18.0625 5.45312 16.4844 3.51562 16.4844Z" fill="#1D84FF" stroke="white" stroke-miterlimit="10"/>
<path d="M3.51562 28.2031C1.57812 28.2031 0 29.7812 0 31.7188C0 33.6562 1.57812 35.2344 3.51562 35.2344C5.45312 35.2344 7.03125 33.6562 7.03125 31.7188C7.03125 29.7812 5.45312 28.2031 3.51562 28.2031Z" fill="#1D84FF" stroke="white" stroke-miterlimit="10"/>
</g>
<defs>
<clipPath id="clip0">
<rect width="40" height="40" fill="white"/>
</clipPath>
</defs>
</svg>
