<svg width="31" height="27" viewBox="0 0 31 27" fill="none" xmlns="http://www.w3.org/2000/svg">
<path d="M2 1.5H10C11.4145 1.5 12.771 2.0619 13.7712 3.0621C14.7714 4.06229 15.3333 5.41885 15.3333 6.83333V25.5C15.3333 24.4391 14.9119 23.4217 14.1618 22.6716C13.4116 21.9214 12.3942 21.5 11.3333 21.5H2V1.5Z" stroke="#282830" stroke-width="3" stroke-linecap="round" stroke-linejoin="round"/>
<path d="M28.6666 1.5H20.6666C19.2521 1.5 17.8955 2.0619 16.8953 3.0621C15.8952 4.06229 15.3333 5.41885 15.3333 6.83333V25.5C15.3333 24.4391 15.7547 23.4217 16.5048 22.6716C17.255 21.9214 18.2724 21.5 19.3333 21.5H28.6666V1.5Z" stroke="#282830" stroke-width="3" stroke-linecap="round" stroke-linejoin="round"/>
</svg>
