<svg width="34" height="32" viewBox="0 0 34 32" fill="none" xmlns="http://www.w3.org/2000/svg">
<path d="M16.0604 3.4563C16.0604 2.88886 16.0604 2.60514 15.8848 2.52511C15.7092 2.44509 15.4951 2.6312 15.0668 3.00343L7.30725 9.74734C7.22352 9.8201 7.18166 9.85649 7.13086 9.87548C7.08005 9.89447 7.02459 9.89447 6.91366 9.89447H0.6C0.317157 9.89447 0.175736 9.89447 0.087868 9.98234C0 10.0702 0 10.2116 0 10.4945V20.9263C0 21.2092 0 21.3506 0.087868 21.4385C0.175736 21.5263 0.317157 21.5263 0.6 21.5263H6.91366C7.02459 21.5263 7.08005 21.5263 7.13086 21.5453C7.18166 21.5643 7.22352 21.6007 7.30725 21.6735L15.0668 28.4174C15.4951 28.7896 15.7092 28.9757 15.8848 28.8957C16.0604 28.8157 16.0604 28.532 16.0604 27.9645V3.4563Z" fill="#544F57"/>
<path d="M26.7748 2C30.1202 5.6355 31.9996 10.5656 31.9996 15.7062C31.9996 20.8468 30.1202 25.777 26.7748 29.4125M20.4756 8.84342C22.1483 10.6612 23.088 13.1262 23.088 15.6965C23.088 18.2668 22.1483 20.7319 20.4756 22.5497" stroke="#544F57" stroke-width="4" stroke-linecap="round" stroke-linejoin="round"/>
</svg>
