<svg width="55" height="55" viewBox="0 0 55 55" fill="none" xmlns="http://www.w3.org/2000/svg">
<g clip-path="url(#clip0)" filter="url(#filter0_d)">
<path d="M36.1397 47.0152H18.8601C10.6445 47.0152 3.98462 40.3553 3.98462 32.1397V14.8601C3.98462 6.64452 10.6445 -0.0153809 18.8601 -0.0153809H36.1397C44.3553 -0.0153809 51.0152 6.64452 51.0152 14.8601V32.1397C51.0152 40.3553 44.3553 47.0152 36.1397 47.0152Z" fill="#0071BC"/>
<path d="M27.6879 42.6112C37.298 42.6112 45.0885 34.8207 45.0885 25.2106C45.0885 15.6006 37.298 7.81006 27.6879 7.81006C18.0779 7.81006 10.2874 15.6006 10.2874 25.2106C10.2874 34.8207 18.0779 42.6112 27.6879 42.6112Z" fill="#29ABE2"/>
<path d="M25.1547 25.4541C23.5967 24.688 22.3465 23.2145 21.6814 21.3674C21.6403 22.3321 21.7848 23.3814 22.1785 24.4812C23.0198 25.1921 23.8258 25.7408 24.6107 26.1368C24.7529 26.0357 24.9174 25.9417 25.0983 25.8571C25.1183 25.7232 25.1371 25.588 25.1547 25.4541Z" fill="#391E17"/>
<path d="M33.6922 20.8398C33.0565 23.0418 31.6113 24.7914 29.7806 25.5786C29.7865 25.5951 29.7924 25.6127 29.7983 25.6291C30.1214 25.7631 30.3999 25.9417 30.6125 26.1673C31.4386 25.7631 32.2787 25.1991 33.1517 24.4812C33.6123 23.2451 33.7533 22.0125 33.6922 20.8398Z" fill="#391E17"/>
<path d="M25.097 25.8557C24.9161 25.9415 24.7516 26.0343 24.6094 26.1354C24.5448 26.1812 24.4837 26.2282 24.4285 26.2764L24.9372 26.7323C24.9972 26.4667 25.05 26.1647 25.097 25.8557Z" fill="#910028"/>
<path d="M29.7982 25.6292C29.9392 26.0357 30.0955 26.4105 30.2283 26.7102L30.71 26.2778C30.6795 26.239 30.6466 26.2026 30.6125 26.1673C30.3998 25.9417 30.1225 25.7631 29.7982 25.6292Z" fill="#910028"/>
<path d="M30.2283 26.7102C30.0955 26.4106 29.9404 26.0358 29.7983 25.6292C29.7924 25.6128 29.7865 25.5951 29.7806 25.5787C29.1003 25.8713 28.3659 26.0322 27.601 26.0322C26.7339 26.0322 25.9078 25.8266 25.1535 25.4553C25.1359 25.5893 25.1171 25.7232 25.0959 25.8572C25.0489 26.1662 24.9949 26.4682 24.9349 26.7349L26.9289 28.5256L27.2426 30.3128H27.9159L28.2061 28.5256L30.2283 26.7102Z" fill="#FDCE9F"/>
<path d="M30.7546 30.3114H35.8424C36.0868 30.3114 36.3136 30.3831 36.5039 30.5041C36.1267 29.1611 35.7919 28.2047 35.6133 28.1154C35.1209 27.8698 32.3938 27.2952 31.3351 27.0767C31.3598 27.1613 31.3739 27.2517 31.3739 27.3493C31.375 27.6841 31.0496 29.4537 30.7546 30.3114Z" fill="#EB1C4E"/>
<path d="M37.0562 32.6262L36.2971 41.5268C37.3041 41.1485 38.2065 40.7067 38.3169 40.3072C38.532 39.5293 37.8199 35.7693 37.0562 32.6262Z" fill="#EB1C4E"/>
<path d="M16.3539 40.1673C16.482 40.5069 17.3491 41.0345 18.2257 41.4963L17.6182 34.3699C16.7898 36.9748 16.1142 39.534 16.3539 40.1673Z" fill="#EB1C4E"/>
<path d="M23.7646 27.3492C23.7646 27.3199 23.7658 27.2917 23.7681 27.2646C22.6483 27.408 20.2079 27.7511 19.9341 28.0648C19.8342 28.1788 19.4711 29.0648 19.0117 30.3126H24.385C24.0889 29.4537 23.7646 27.6841 23.7646 27.3492Z" fill="#EB1C4E"/>
<path d="M28.2083 28.5242L27.9181 30.3113H29.952C29.2752 29.6475 28.2083 28.5242 28.2083 28.5242Z" fill="#EB1C4E"/>
<path d="M25.1864 30.3113H27.245L26.9313 28.5242C26.9313 28.5242 25.8632 29.6475 25.1864 30.3113Z" fill="#EB1C4E"/>
<path d="M24.3838 30.3116H25.1864C25.8632 29.6477 26.9301 28.5244 26.9301 28.5244L24.9361 26.7337L24.4273 26.2778C24.0924 26.5645 23.8022 26.8524 23.767 27.2648C23.7646 27.293 23.7634 27.3212 23.7634 27.3494C23.7646 27.6843 24.0889 29.4538 24.3838 30.3116Z" fill="#BB0C3C"/>
<path d="M28.2085 28.5244C28.2085 28.5244 29.2766 29.6477 29.9522 30.3116H30.7547C31.0496 29.4526 31.3751 27.6843 31.3751 27.3494C31.3751 27.2519 31.361 27.1626 31.3363 27.0768C31.2435 26.7595 30.9932 26.5175 30.7112 26.2766L30.2295 26.709L28.2085 28.5244Z" fill="#BB0C3C"/>
<path d="M32.0226 9.27309C32.0226 9.27309 32.5784 9.28249 33.2505 9.76189C33.2798 9.66201 33.3045 9.55979 33.3257 9.45521C33.7052 7.48826 32.3316 5.56949 30.2577 5.16999C28.3578 4.80339 26.5306 5.84091 25.9467 7.53174C27.7515 7.26384 29.8324 7.80199 32.0226 9.27309Z" fill="#462822"/>
<path d="M19.4487 42.7725V42.8007C19.4487 42.9699 19.585 43.1062 19.7542 43.1062H21.3898C21.559 43.1062 21.6953 42.9699 21.6953 42.8007V42.7748H19.4769C19.4675 42.7748 19.4581 42.7736 19.4487 42.7725Z" fill="#ABC7D5"/>
<path d="M33.0083 42.7747V42.8005C33.0083 42.9697 33.1446 43.106 33.3138 43.106H34.9494C35.1186 43.106 35.2549 42.9697 35.2549 42.8005V42.7559C35.1868 42.7676 35.1186 42.7747 35.0481 42.7747H33.0083Z" fill="#ABC7D5"/>
<path d="M18.6839 30.9766H35.8424C36.4416 30.9766 36.9351 31.3996 37.0562 31.9542L37.0808 31.6616C37.122 31.1798 36.8823 30.7439 36.5039 30.5042C36.3124 30.3832 36.0868 30.3115 35.8424 30.3115H30.7546H29.9521H27.9182H27.2449H25.1863H24.3838H19.0105H18.6827C17.9542 30.3115 17.382 30.9355 17.4431 31.6604L17.4677 31.953C17.5899 31.3996 18.0834 30.9766 18.6839 30.9766Z" fill="#C3D8E3"/>
<path d="M37.082 32.3254C37.0926 32.1973 37.0832 32.0728 37.0573 31.9529C36.9363 31.3983 36.4428 30.9753 35.8436 30.9753H18.6839C18.0846 30.9753 17.5911 31.3983 17.4701 31.9529C17.4443 32.0716 17.4349 32.1962 17.4454 32.3254L17.6193 34.3699L18.2268 41.4963L18.2386 41.6361C18.2926 42.2706 18.8167 42.7582 19.4488 42.7723C19.4582 42.7723 19.4676 42.7735 19.477 42.7735H21.6954H33.0083H35.0481C35.1186 42.7735 35.1879 42.7665 35.2549 42.7547C35.8048 42.6619 36.2384 42.2084 36.2865 41.6349L36.2959 41.5257L37.055 32.625L37.082 32.3254ZM27.2626 35.317C28.1227 35.317 28.8206 36.0149 28.8206 36.875C28.8206 37.7351 28.1227 38.4331 27.2626 38.4331C26.4025 38.4331 25.7045 37.7351 25.7045 36.875C25.7057 36.0149 26.4025 35.317 27.2626 35.317Z" fill="white"/>
<path d="M27.2626 38.433C28.1231 38.433 28.8207 37.7354 28.8207 36.8749C28.8207 36.0145 28.1231 35.3169 27.2626 35.3169C26.4022 35.3169 25.7046 36.0145 25.7046 36.8749C25.7046 37.7354 26.4022 38.433 27.2626 38.433Z" fill="#C3D8E3"/>
<path d="M27.6021 26.0308C28.3671 26.0308 29.1003 25.871 29.7818 25.5772C31.6124 24.79 33.0577 23.0404 33.6933 20.8385C33.4736 16.5732 30.5819 13.0894 30.5819 13.0894C30.5819 13.0894 28.199 15.4911 25.6904 15.86C23.7869 16.1408 21.8129 18.3346 21.6825 21.3661C22.3475 23.2132 23.5989 24.6866 25.1558 25.4527C25.909 25.8252 26.735 26.0308 27.6021 26.0308Z" fill="#FDCE9F"/>
<path d="M21.6814 21.3675C21.8118 18.336 23.787 16.1411 25.6893 15.8614C28.1979 15.4925 30.5808 13.0908 30.5808 13.0908C30.5808 13.0908 33.4725 16.5747 33.6922 20.8399C33.7522 22.0137 33.6112 23.2451 33.1517 24.4812C33.1517 24.4812 35.5969 22.573 35.5969 16.9695C35.5981 12.3435 34.2844 10.4976 33.2504 9.76201C32.5772 9.28379 32.0226 9.27321 32.0226 9.27321C29.8312 7.80094 27.7514 7.26396 25.9466 7.53186C22.8435 7.99246 20.5546 10.8371 19.9201 15.4302C18.9166 22.6952 22.1772 24.4812 22.1772 24.4812C21.7848 23.3814 21.6403 22.3322 21.6814 21.3675Z" fill="#59372F"/>
<path d="M32.8239 13.1247C32.7852 13.523 32.6512 13.9131 32.4362 14.2503C32.22 13.0859 31.7476 11.9685 31.0626 11.0015C29.5986 12.2376 27.8936 13.1893 26.0736 13.7874C26.1358 13.4842 26.1981 13.1823 26.2604 12.8791C24.7129 13.6111 23.3863 14.8014 22.491 16.2608C22.6179 15.6368 22.6802 15 22.6778 14.3643C21.3266 15.9247 20.4841 17.9199 20.3067 19.9773C20.2914 20.1524 20.2197 20.3838 20.0446 20.3662C19.9941 20.3615 19.9506 20.3333 19.9119 20.2981C20.4794 23.5493 22.1784 24.4799 22.1784 24.4799C21.7848 23.3801 21.6403 22.3308 21.6814 21.3661C21.8118 18.3346 23.787 16.1397 25.6893 15.8601C28.198 15.4911 30.5809 13.0894 30.5809 13.0894C30.5809 13.0894 33.4725 16.5733 33.6923 20.8386C33.7522 22.0124 33.6112 23.2438 33.1518 24.4799C33.1518 24.4799 34.5477 23.3895 35.2303 20.4402C34.1811 18.1525 34.4055 15.1586 32.8239 13.1247Z" fill="#4F2E26"/>
<path d="M28.2508 8.16501C26.2862 7.48703 23.4897 8.52573 22.5849 10.4492C22.5426 10.5397 22.6495 10.6313 22.7259 10.5585C23.4697 9.85231 24.2158 9.22133 25.184 8.84416C26.1487 8.46816 27.1839 8.42586 28.2061 8.49753C28.4047 8.51046 28.4211 8.22376 28.2508 8.16501Z" fill="#69423A"/>
<path d="M33.4184 10.516C33.342 10.4831 33.261 10.5513 33.3033 10.6312C33.4607 10.9367 33.6981 11.194 33.8637 11.496C34.0658 11.8638 34.1892 12.2633 34.3408 12.6534C34.4089 12.8296 34.6992 12.8214 34.6909 12.6064C34.6592 11.8508 34.1446 10.8286 33.4184 10.516Z" fill="#69423A"/>
<path d="M30.5807 13.0906C30.5807 13.0906 28.1978 15.4923 25.6892 15.8612C23.7857 16.1421 21.8117 18.3358 21.6813 21.3673C21.7529 21.5647 21.8317 21.7574 21.9163 21.9465C21.8317 20.184 22.7693 18.3969 24.2851 17.4851C25.6481 16.6661 27.3436 16.5439 28.7054 15.7226C29.2589 15.3889 29.7394 14.9506 30.2153 14.5147C31.2176 15.3054 31.8074 16.5075 32.221 17.7142C32.6346 18.9221 32.9096 20.1817 33.4466 21.3402C33.4618 21.3743 33.4783 21.4072 33.4936 21.4413C33.5664 21.2451 33.6322 21.0441 33.6921 20.8397C33.4724 16.5744 30.5807 13.0906 30.5807 13.0906Z" fill="#FBBC89"/>
<path d="M26.4801 17.6344C26.4025 17.0857 25.6834 16.9506 25.2263 16.9917C24.7681 17.0328 24.217 17.3031 24.0654 17.7672C24.0314 17.8718 24.143 17.9881 24.2487 17.9505C24.5813 17.8342 24.8597 17.7014 25.2263 17.7508C25.5659 17.7966 25.828 18.0434 26.1746 18.0351C26.4002 18.0293 26.5095 17.8377 26.4801 17.6344Z" fill="#4F2E26"/>
<path d="M25.3897 18.4957C25.3286 18.4699 25.2616 18.4569 25.1864 18.4616C24.2394 18.5192 24.7117 20.5308 25.5295 19.9163C25.9255 19.6178 25.8515 18.6931 25.3897 18.4957Z" fill="#4F2E26"/>
<path d="M25.1559 18.7389C25.0572 18.6813 24.9174 18.7131 24.861 18.8165C24.8586 18.8212 24.8551 18.827 24.8528 18.8317C24.7964 18.9351 24.8269 19.0667 24.9303 19.1278C25.0243 19.1831 25.1771 19.1572 25.2264 19.0503C25.2288 19.0444 25.2311 19.0397 25.2335 19.0338C25.2816 18.9269 25.264 18.8024 25.1559 18.7389Z" fill="white"/>
<path d="M28.8617 17.6344C28.9392 17.0857 29.6583 16.9506 30.1154 16.9917C30.5737 17.0328 31.1247 17.3031 31.2763 17.7672C31.3104 17.8718 31.1988 17.9881 31.093 17.9505C30.7605 17.8342 30.482 17.7014 30.1154 17.7508C29.7758 17.7966 29.5138 18.0434 29.1672 18.0351C28.9416 18.0293 28.8335 17.8377 28.8617 17.6344Z" fill="#4F2E26"/>
<path d="M30.1872 18.4957C30.1261 18.4699 30.0591 18.4569 29.9839 18.4616C29.0369 18.5192 29.5092 20.5308 30.327 19.9163C30.723 19.6178 30.649 18.6931 30.1872 18.4957Z" fill="#4F2E26"/>
<path d="M29.9522 18.7389C29.8535 18.6813 29.7137 18.7131 29.6573 18.8165C29.6549 18.8212 29.6514 18.827 29.649 18.8317C29.5926 18.9351 29.6232 19.0667 29.7266 19.1278C29.8206 19.1831 29.9733 19.1572 30.0227 19.0503C30.025 19.0444 30.0274 19.0397 30.0297 19.0338C30.0791 18.9269 30.0615 18.8024 29.9522 18.7389Z" fill="white"/>
<path d="M27.6903 20.6399C27.6139 20.6305 27.5693 20.7469 27.6269 20.7939C27.762 20.9043 27.8924 20.9854 27.9453 21.164C28.0029 21.3602 27.8184 21.4683 27.6692 21.5306C27.5681 21.5729 27.5058 21.7362 27.6351 21.7961C27.9476 21.9407 28.2566 21.6387 28.2672 21.3238C28.2766 20.9971 28.017 20.6822 27.6903 20.6399Z" fill="#F9A96E"/>
<path d="M26.4648 22.8832C26.6692 22.6411 28.9569 22.6247 29.1684 22.9302C29.3799 23.2357 28.7689 24.2238 27.8043 24.2238C26.8419 24.2238 26.2063 23.1887 26.4648 22.8832Z" fill="#F05C59"/>
<path d="M29.1696 22.9302C28.9581 22.6247 26.6692 22.6411 26.4659 22.8832C26.3355 23.0371 26.4319 23.3755 26.6833 23.6739C27.0217 23.2932 27.5751 23.117 28.0898 23.164C28.4387 23.1957 28.7713 23.3156 29.0791 23.4848C29.2107 23.2627 29.2507 23.0477 29.1696 22.9302Z" fill="#ED2743"/>
<path d="M31.1683 21.378C31.6615 21.378 32.0613 21.1045 32.0613 20.767C32.0613 20.4296 31.6615 20.156 31.1683 20.156C30.6751 20.156 30.2753 20.4296 30.2753 20.767C30.2753 21.1045 30.6751 21.378 31.1683 21.378Z" fill="#F48A75"/>
<path d="M23.9726 21.378C24.4658 21.378 24.8656 21.1045 24.8656 20.767C24.8656 20.4296 24.4658 20.156 23.9726 20.156C23.4794 20.156 23.0796 20.4296 23.0796 20.767C23.0796 21.1045 23.4794 21.378 23.9726 21.378Z" fill="#F48A75"/>
<path d="M29.8239 27.0733L30.2281 26.7102C30.0954 26.4106 29.9403 26.0358 29.7981 25.6292C29.7922 25.6128 29.7863 25.5951 29.7805 25.5787C29.1001 25.8713 28.3658 26.0322 27.6008 26.0322C26.7337 26.0322 25.9077 25.8266 25.1533 25.4553C25.1533 25.4553 25.1533 25.4553 25.1533 25.4565C25.3601 25.7314 25.6527 25.9418 25.9582 26.1063C26.4905 26.3918 27.0756 26.5645 27.6619 26.7137C28.3669 26.89 29.099 27.0357 29.8239 27.0733Z" fill="#FBBC89"/>
<path d="M27.245 30.3114H27.9183L27.9853 29.8967C27.648 29.4478 27.3002 29.0072 26.9407 28.5771L27.245 30.3114Z" fill="#FBBC89"/>
<path d="M30.2283 26.71L28.2073 28.5242C28.2073 28.5242 28.3729 28.6981 28.6138 28.9496C29.4116 28.1647 30.1072 27.274 30.6748 26.3093L30.2283 26.71Z" fill="#CF1244"/>
<path d="M24.4426 26.2896C24.9796 27.125 25.5847 27.9157 26.251 28.6513C26.3414 28.7512 26.4343 28.8499 26.5318 28.9427C26.7691 28.696 26.9313 28.5244 26.9313 28.5244L24.9373 26.7337L24.4426 26.2896Z" fill="#CF1244"/>
<path d="M19.5697 28.858C20.9468 28.2881 22.3474 27.7758 23.7656 27.3199C23.7656 27.3011 23.7668 27.2835 23.768 27.2659C22.6482 27.4092 20.2077 27.7523 19.934 28.066C19.8799 28.126 19.7495 28.4127 19.5697 28.858Z" fill="#ED3F5C"/>
<path d="M35.6134 28.1154C35.121 27.8698 32.3939 27.2952 31.3352 27.0767C31.3387 27.0896 31.3423 27.1025 31.3446 27.1154C32.3563 27.5596 33.3797 27.9755 34.4149 28.3621C34.9389 28.5572 35.4689 28.7452 36.0058 28.9003C35.8437 28.4479 35.7074 28.1624 35.6134 28.1154Z" fill="#ED3F5C"/>
<path d="M30.4398 5.86913C29.9616 5.57068 29.3694 5.63883 28.8383 5.72931C28.4329 5.79863 27.6539 6.03128 27.5411 6.48248C27.5329 6.51421 27.5505 6.54593 27.5822 6.55533C27.9182 6.65051 28.346 6.41551 28.6844 6.35088C29.2354 6.24513 29.7759 6.37438 30.3223 6.30388C30.542 6.27451 30.6525 6.00191 30.4398 5.86913Z" fill="#59372F"/>
<path d="M32.1106 6.67628C32.0401 6.44951 31.8133 6.37901 31.6124 6.29911C31.455 6.23683 31.2341 6.12873 31.0707 6.21803C31.0425 6.23331 31.0167 6.27208 31.0202 6.30498C31.039 6.49181 31.2352 6.60461 31.3762 6.70448C31.5466 6.82668 31.7522 6.98413 31.9731 6.91716C32.073 6.88778 32.1423 6.78086 32.1106 6.67628Z" fill="#59372F"/>
<path d="M29.6936 39.856C26.198 41.6608 22.089 42.2413 18.2268 41.5022L18.2386 41.6373C18.2926 42.2718 18.8167 42.7594 19.4488 42.7735C19.4582 42.7735 19.4676 42.7747 19.477 42.7747H21.6954H33.0083H35.0481C35.1186 42.7747 35.1879 42.7677 35.2549 42.7559C35.8048 42.6631 36.2384 42.2095 36.2866 41.6361L36.296 41.5269L37.0491 32.6956C35.363 35.7282 32.778 38.2627 29.6936 39.856Z" fill="#DAE6ED"/>
<path d="M26.5541 36.2241C26.2686 36.2277 26.117 36.4638 26.0453 36.7129C25.9854 36.9186 25.9842 37.2687 26.2051 37.3827C26.2615 37.4121 26.3485 37.4132 26.392 37.358C26.4848 37.2417 26.4989 37.0866 26.5447 36.9479C26.5976 36.7846 26.7386 36.6812 26.768 36.5038C26.7891 36.3663 26.7092 36.223 26.5541 36.2241Z" fill="#DAE6ED"/>
<path d="M27.6879 35.9479C27.5904 35.8045 27.4176 35.7975 27.2614 35.8398C27.1392 35.8727 26.9829 35.9385 26.93 36.063C26.9042 36.1229 26.9183 36.2146 26.997 36.2275C27.0922 36.244 27.1826 36.2169 27.2778 36.2146C27.3941 36.2111 27.5257 36.2487 27.628 36.1723C27.6961 36.1206 27.7419 36.0278 27.6879 35.9479Z" fill="#DAE6ED"/>
<path d="M34.9494 17.29C34.9764 17.3358 35.0011 17.3969 35.0246 17.4686C35.1115 17.4733 35.2431 17.485 35.3994 17.5156C35.4123 16.0304 34.9799 10.4597 27.7631 10.4597C20.5321 10.4597 20.0245 16.0527 20.0151 17.5238C20.1902 17.4862 20.3383 17.4721 20.4334 17.4674C20.4569 17.3957 20.4828 17.3346 20.5086 17.2888C20.6085 17.1196 20.719 17.0068 20.8329 16.9422C21.1655 15.3595 22.5061 11.6324 27.7936 11.6324C32.9319 11.6324 34.2232 15.222 34.5464 16.9058C34.6874 16.9563 34.826 17.0808 34.9494 17.29Z" fill="#31667A"/>
<path d="M20.4345 17.4685C20.3405 17.4732 20.1925 17.4873 20.0162 17.5249C19.3723 17.6624 18.3689 18.1206 18.3689 19.6434C18.3689 21.3695 19.7366 21.6633 20.3664 21.7056C20.0985 21.0217 20.1455 18.3427 20.4345 17.4685Z" fill="#426677"/>
<path d="M20.5097 17.2901C20.4827 17.3359 20.458 17.397 20.4345 17.4687C20.1454 18.344 20.0984 21.0219 20.3663 21.7057C20.3851 21.7539 20.4063 21.7927 20.4274 21.8197C20.7882 22.2591 21.5437 22.3473 21.6917 21.7762C21.8398 21.2052 22.0043 18.2148 21.7246 17.511C21.5167 16.9881 21.1618 16.7578 20.8328 16.9446C20.7212 17.0069 20.6107 17.1209 20.5097 17.2901Z" fill="#6D8D9D"/>
<path d="M34.0469 22.1228C33.4794 23.3319 31.9201 23.9582 30.9907 24.2331C31.0013 24.259 31.0107 24.2848 31.0177 24.313C31.0636 24.4928 31.0518 24.6479 30.9978 24.783C33.1163 24.4387 34.1397 22.977 34.5627 22.1334C34.3818 22.1898 34.1961 22.1921 34.0469 22.1228Z" fill="#31667A"/>
<path d="M37.0913 19.6423C37.0913 18.0842 36.042 17.6412 35.4005 17.5155C35.2442 17.485 35.1126 17.4732 35.0256 17.4685C35.3147 18.3439 35.3617 21.0217 35.0938 21.7056C35.7236 21.6609 37.0913 21.3683 37.0913 19.6423Z" fill="#426677"/>
<path d="M35.0258 17.4687C35.0023 17.397 34.9764 17.3359 34.9506 17.2901C34.8272 17.081 34.6874 16.9564 34.5464 16.9059C34.2409 16.7954 33.926 17.0293 33.7356 17.5098C33.456 18.2137 33.6205 21.2029 33.7685 21.7751C33.8143 21.9502 33.9166 22.063 34.0482 22.1229C34.1974 22.1911 34.3842 22.1899 34.564 22.1323C34.7402 22.0771 34.9094 21.969 35.034 21.8186C35.0563 21.7916 35.0763 21.7528 35.0951 21.7046C35.3618 21.0219 35.3136 18.3429 35.0258 17.4687Z" fill="#6D8D9D"/>
<path d="M31.0178 24.313C31.0108 24.2848 31.0014 24.259 30.9908 24.2331C30.6876 23.4964 29.0462 23.7443 28.7642 24.1215C28.4728 24.5116 28.4269 24.9663 28.864 25.3094C29.2318 25.5985 30.7111 25.4951 30.9978 24.783C31.0519 24.6479 31.0636 24.4916 31.0178 24.313Z" fill="#6D8D9D"/>
<path d="M21.6272 21.929C20.6496 20.6753 20.2172 19.015 20.4428 17.4429C20.4393 17.4511 20.4369 17.4593 20.4334 17.4687C20.1443 18.3441 20.0973 21.0219 20.3652 21.7058C20.384 21.7539 20.4052 21.7927 20.4263 21.8197C20.7518 22.2134 21.3922 22.3227 21.6272 21.929Z" fill="#457285"/>
<path d="M34.9494 17.2901C34.9223 17.2443 34.8941 17.2031 34.8659 17.1655C34.9165 18.1631 34.9306 19.1713 34.7249 20.1477C34.5828 20.8233 34.3266 21.4872 33.9365 22.0535C33.9706 22.0817 34.007 22.1052 34.0458 22.1228C34.195 22.191 34.3818 22.1898 34.5616 22.1323C34.7379 22.077 34.9071 21.9689 35.0316 21.8185C35.0539 21.7915 35.0739 21.7527 35.0927 21.7046C35.3606 21.0219 35.3136 18.3429 35.0246 17.4675C35.0022 17.3958 34.9764 17.3347 34.9494 17.2901Z" fill="#457285"/>
<path d="M35.9515 20.232C35.747 20.3883 35.5038 20.5352 35.2571 20.554C35.2336 21.0592 35.1807 21.4846 35.0938 21.7043C35.7236 21.6608 37.0913 21.3683 37.0913 19.6422C37.0913 19.446 37.0748 19.2674 37.0443 19.1052C36.7352 19.5306 36.3675 19.9124 35.9515 20.232Z" fill="#2F5464"/>
<path d="M18.4558 18.9326C18.4006 19.1394 18.3689 19.3744 18.3689 19.6423C18.3689 21.3684 19.7366 21.6621 20.3664 21.7044C20.2736 21.4671 20.2183 20.9912 20.1984 20.4331C19.8435 20.3203 19.5086 20.1417 19.2208 19.9043C18.8988 19.64 18.6391 19.3051 18.4558 18.9326Z" fill="#2F5464"/>
<path d="M30.026 24.836C29.5372 24.9711 29.0014 24.9218 28.542 24.7067C28.5408 24.9206 28.636 25.1297 28.864 25.3083C29.2317 25.5974 30.711 25.494 30.9977 24.7819C31.0518 24.648 31.0635 24.4917 31.0177 24.3119C31.0118 24.2908 31.0048 24.272 30.9977 24.2532C30.731 24.5281 30.395 24.7338 30.026 24.836Z" fill="#457285"/>
<path d="M33.9376 22.3261C34.014 22.4753 34.0974 22.6198 34.1914 22.7585C34.3477 22.5317 34.4687 22.3179 34.5615 22.1322C34.3818 22.1898 34.1949 22.191 34.0457 22.1228C34.014 22.1933 33.9776 22.2603 33.9376 22.3261Z" fill="#275669"/>
<path d="M31.8074 24.582C31.6405 24.4257 31.4655 24.2788 31.2822 24.1414C31.1799 24.1754 31.0824 24.206 30.9919 24.233C31.0025 24.2589 31.0119 24.2847 31.019 24.3129C31.0648 24.4927 31.053 24.6478 30.999 24.7829C31.288 24.7347 31.5571 24.6666 31.8074 24.582Z" fill="#275669"/>
<path d="M34.5451 16.9057C34.6861 16.9574 34.8259 17.0819 34.9493 17.2899C34.9763 17.3357 35.001 17.3968 35.0245 17.4685C35.1114 17.4732 35.243 17.485 35.3993 17.5155C35.4028 17.1548 35.3793 16.5532 35.2383 15.8494C34.9645 16.0409 34.699 16.2453 34.4452 16.4615C34.4863 16.6202 34.5192 16.7694 34.5451 16.9057Z" fill="#275669"/>
<path d="M20.1537 16.0986C20.0433 16.7002 20.0186 17.2078 20.0162 17.5239C20.1913 17.4863 20.3394 17.4722 20.4345 17.4675C20.458 17.3958 20.4839 17.3347 20.5097 17.2889C20.6096 17.1197 20.7201 17.0069 20.834 16.9423C20.8528 16.853 20.8752 16.7555 20.901 16.6532C20.6519 16.4688 20.4028 16.2843 20.1537 16.0986Z" fill="#275669"/>
<path d="M46.6571 6.91699H39.0701C38.0867 6.91699 37.283 7.72069 37.283 8.70417V15.6331C37.283 16.6166 38.0867 17.4203 39.0701 17.4203H39.358L38.633 18.5753C38.3957 18.9549 38.8081 19.4061 39.2064 19.2028L42.3484 17.6001C42.4353 17.5554 42.4964 17.492 42.5352 17.4203H46.6571C47.6406 17.4203 48.4443 16.6166 48.4443 15.6331V8.70417C48.4443 7.72069 47.6394 6.91699 46.6571 6.91699Z" fill="white"/>
<path d="M47.073 9.09307H40.3966C40.3109 9.09307 40.2404 9.02257 40.2404 8.93679C40.2404 8.85102 40.3109 8.78052 40.3966 8.78052H47.073C47.1588 8.78052 47.2293 8.85102 47.2293 8.93679C47.2293 9.02374 47.1588 9.09307 47.073 9.09307Z" fill="#C3D8E3"/>
<path d="M47.073 10.8028H38.7305C38.6447 10.8028 38.5742 10.7323 38.5742 10.6465C38.5742 10.5607 38.6447 10.4902 38.7305 10.4902H47.073C47.1588 10.4902 47.2293 10.5607 47.2293 10.6465C47.2293 10.7323 47.1588 10.8028 47.073 10.8028Z" fill="#C3D8E3"/>
<path d="M47.073 12.5123H38.7305C38.6447 12.5123 38.5742 12.4418 38.5742 12.356C38.5742 12.2702 38.6447 12.1997 38.7305 12.1997H47.073C47.1588 12.1997 47.2293 12.2702 47.2293 12.356C47.2293 12.4418 47.1588 12.5123 47.073 12.5123Z" fill="#C3D8E3"/>
<path d="M47.073 14.2208H38.7305C38.6447 14.2208 38.5742 14.1503 38.5742 14.0645C38.5742 13.9787 38.6447 13.9082 38.7305 13.9082H47.073C47.1588 13.9082 47.2293 13.9787 47.2293 14.0645C47.2293 14.1514 47.1588 14.2208 47.073 14.2208Z" fill="#C3D8E3"/>
<path d="M47.073 15.9302H38.7305C38.6447 15.9302 38.5742 15.8597 38.5742 15.774C38.5742 15.6882 38.6447 15.6177 38.7305 15.6177H47.073C47.1588 15.6177 47.2293 15.6882 47.2293 15.774C47.2293 15.8597 47.1588 15.9302 47.073 15.9302Z" fill="#C3D8E3"/>
</g>
<defs>
<filter id="filter0_d" x="0" y="0" width="55" height="55" filterUnits="userSpaceOnUse" color-interpolation-filters="sRGB">
<feFlood flood-opacity="0" result="BackgroundImageFix"/>
<feColorMatrix in="SourceAlpha" type="matrix" values="0 0 0 0 0 0 0 0 0 0 0 0 0 0 0 0 0 0 127 0"/>
<feOffset dy="4"/>
<feGaussianBlur stdDeviation="2"/>
<feColorMatrix type="matrix" values="0 0 0 0 0 0 0 0 0 0 0 0 0 0 0 0 0 0 0.25 0"/>
<feBlend mode="normal" in2="BackgroundImageFix" result="effect1_dropShadow"/>
<feBlend mode="normal" in="SourceGraphic" in2="effect1_dropShadow" result="shape"/>
</filter>
<clipPath id="clip0">
<rect width="47" height="47" fill="white" transform="translate(4)"/>
</clipPath>
</defs>
</svg>
