<svg width="141" height="134" viewBox="0 0 141 134" fill="none" xmlns="http://www.w3.org/2000/svg">
<path d="M138.293 23.0555V56.0448H130.082L113.661 37.769L130.082 19.4932L138.293 23.0555Z" fill="#54D8FF"/>
<path d="M130.083 19.4926V56.0442H86.7031L111.335 11.6934L130.083 19.4926Z" fill="#8DE5FF"/>
<path d="M29.228 11.6934L2.26953 23.0549V56.0442H53.8596L29.228 11.6934Z" fill="#8DE5FF"/>
<path d="M111.335 131.191H103.124L74.3867 69.7335L103.124 8.27637L111.335 11.6932V131.191Z" fill="#43B7D9"/>
<path d="M103.124 8.27648V131.191H29.2285V11.6933L49.4513 3.27832H91.112L103.124 8.27648Z" fill="#54D8FF"/>
<path d="M111.335 56.0439L115.44 106.449H123.65L123.651 68.4149L111.335 56.0439Z" fill="#FFE341"/>
<path d="M111.334 56.0439L99.0181 68.4149L99.0176 106.449H115.439L115.439 68.4149L111.334 56.0439Z" fill="#FFF1A0"/>
<path d="M94.9141 8.99311C94.9141 22.6578 83.8862 33.7351 70.2823 33.7351C56.6784 33.7351 45.6504 22.6578 45.6504 8.99311C45.6504 5.57707 48.4075 2.80762 51.8084 2.80762H88.7562C92.157 2.80762 94.9141 5.57707 94.9141 8.99311Z" fill="#8DE5FF"/>
<path d="M70.282 25.4885C61.9225 25.4885 55.0017 19.1812 53.9883 11.0557H86.5754C85.5622 19.1812 78.6415 25.4885 70.282 25.4885Z" fill="#375798"/>
<path d="M70.282 27.5496C79.5773 27.5496 87.4576 20.5686 88.6125 11.3115C88.6859 10.7246 88.5044 10.1343 88.115 9.69061C87.7252 9.24718 87.1647 8.99316 86.5757 8.99316H53.9883C53.3996 8.99316 52.8388 9.24718 52.4491 9.69061C52.0596 10.134 51.8782 10.7246 51.9515 11.3115C53.1065 20.5686 60.9868 27.5496 70.282 27.5496ZM84.0548 13.1168C82.272 19.1313 76.7123 23.426 70.282 23.426C63.8517 23.426 58.292 19.1313 56.5092 13.1168H84.0548Z" fill="black"/>
<path d="M139.079 21.0043L91.8976 1.37399C90.9291 0.970421 89.8682 0.746094 88.7557 0.746094H51.8079C50.6953 0.746094 49.6345 0.970421 48.6662 1.37482C48.6659 1.37399 1.48495 21.0043 1.48495 21.0043C0.717801 21.3235 0.217773 22.0753 0.217773 22.9091V56.0444C0.217773 57.1834 1.13682 58.1063 2.27043 58.1063H27.1763L27.176 131.191C27.176 131.738 27.3922 132.262 27.7773 132.649C28.1621 133.036 28.6843 133.253 29.2287 133.253H111.334C112.468 133.253 113.387 132.33 113.387 131.191V108.511H123.65C124.784 108.511 125.703 107.588 125.703 106.449L125.704 68.4154C125.704 67.8686 125.487 67.3444 125.102 66.9573L116.291 58.1063H138.293C139.427 58.1063 140.346 57.1834 140.346 56.0444V22.9091C140.346 22.0753 139.846 21.3235 139.079 21.0043ZM88.7557 4.86976C91.0194 4.86976 92.861 6.71963 92.861 8.99342C92.861 21.4991 82.7321 31.6736 70.2818 31.6736C57.8315 31.6736 47.7026 21.4991 47.7026 8.99342C47.7026 6.71963 49.5442 4.86976 51.8079 4.86976H88.7557ZM121.598 104.388H101.071L101.072 69.2696L111.335 58.9604L121.598 69.2696L121.598 104.388ZM136.24 53.9826H113.387L113.388 20.8347C113.388 19.696 112.469 18.7728 111.335 18.7728C110.202 18.7728 109.283 19.696 109.283 20.8347L109.282 55.1905L97.5676 66.9573C97.1825 67.3441 96.9663 67.8683 96.9663 68.4154L96.9658 106.449C96.9658 106.996 97.182 107.52 97.5671 107.907C97.9519 108.294 98.4741 108.511 99.0184 108.511H109.282V129.129H31.2813L31.2816 20.8347C31.2816 19.6957 30.3625 18.7728 29.2289 18.7728C28.0953 18.7728 27.1763 19.6957 27.1763 20.8347V53.9826H4.32309V24.2867L43.6695 7.91577C43.6235 8.26876 43.5973 8.62779 43.5973 8.99315C43.5973 23.7729 55.5678 35.797 70.2818 35.797C84.9958 35.797 96.9663 23.7729 96.9663 8.99315C96.9663 8.62779 96.9401 8.26876 96.8941 7.91577L136.24 24.287V53.9826Z" fill="black"/>
</svg>
