<svg width="26" height="24" viewBox="0 0 26 24" fill="none" xmlns="http://www.w3.org/2000/svg">
<path d="M8.37397 17.7438C9.54171 17.7438 10.4919 16.7937 10.4919 15.6259C10.4919 14.458 9.54171 13.5078 8.37397 13.5078C7.20604 13.5078 6.25586 14.458 6.25586 15.6259C6.25586 16.7937 7.20604 17.7438 8.37397 17.7438ZM8.37397 14.2682C9.12244 14.2682 9.73154 14.8773 9.73154 15.6259C9.73154 16.3746 9.12244 16.9837 8.37397 16.9837C7.62531 16.9837 7.0162 16.3746 7.0162 15.6259C7.0162 14.8773 7.62531 14.2682 8.37397 14.2682Z" fill="white"/>
<path d="M16.1051 10.5899V10.1037C16.1051 9.89368 15.9348 9.72363 15.7248 9.72363C15.515 9.72363 15.3447 9.89368 15.3447 10.1037V10.5899C15.3447 10.7999 15.515 10.9702 15.7248 10.9702C15.9348 10.9702 16.1051 10.7999 16.1051 10.5899Z" fill="white"/>
<path d="M21.4781 10.5899V10.1037C21.4781 9.89368 21.3079 9.72363 21.0978 9.72363C20.888 9.72363 20.7178 9.89368 20.7178 10.1037V10.5899C20.7178 10.7999 20.888 10.9702 21.0978 10.9702C21.3079 10.9702 21.4781 10.7999 21.4781 10.5899Z" fill="white"/>
<path d="M19.3617 10.8062C19.5001 10.6482 19.4838 10.4081 19.3257 10.2698C19.1677 10.1316 18.9276 10.1476 18.7894 10.3058C18.6985 10.4097 18.5612 10.4693 18.4125 10.4693C18.2636 10.4693 18.1263 10.4097 18.0356 10.3058C17.8974 10.1476 17.6573 10.1316 17.4991 10.2698C17.341 10.4079 17.3249 10.6482 17.4631 10.8062C17.6983 11.0752 18.0443 11.2296 18.4125 11.2296C18.7805 11.2296 19.1265 11.0752 19.3617 10.8062Z" fill="white"/>
<path d="M17.4173 19.9595C17.2031 19.9611 16.9879 19.8971 16.8103 19.7607L14.1734 17.7337C14.0069 17.6058 13.7682 17.6371 13.6403 17.8034C13.5124 17.9699 13.5435 18.2086 13.71 18.3365C13.71 18.3365 16.3457 20.3625 16.3469 20.3635C17.1075 20.9481 18.2283 20.8002 18.8116 20.0411C19.3956 19.2813 19.2477 18.1593 18.4894 17.5763L15.8524 15.5495C15.6859 15.4216 15.4472 15.4527 15.3193 15.6191C15.1915 15.7856 15.2225 16.0244 15.389 16.1522C15.389 16.1522 18.024 18.1777 18.026 18.1793C18.4571 18.5107 18.5399 19.1469 18.2089 19.5776C18.02 19.8235 17.7197 19.9569 17.4173 19.9595Z" fill="white"/>
<path d="M12.6166 8.40653C11.3331 7.65054 9.87615 7.25167 8.37427 7.25167C3.75658 7.25167 0 11.0084 0 15.6259C0 20.2434 3.75658 24 8.37427 24H15.719C17.0758 24 18.4125 23.6463 19.5846 22.9772C19.7669 22.873 19.8303 22.6408 19.7262 22.4585C19.622 22.276 19.3898 22.2127 19.2075 22.3168C18.15 22.9206 16.9439 23.2399 15.719 23.2399H9.44183C9.44223 23.2393 9.44282 23.2387 9.44342 23.2381C9.81518 22.8578 10.1349 22.4302 10.4197 21.9823C11.591 20.1401 12.1641 17.9406 12.4834 15.8013C12.6335 14.7953 12.7014 13.7794 12.7461 12.7639C12.7995 11.551 12.6996 10.3079 13.1279 9.14728C13.8297 7.25107 15.656 5.89568 17.7931 5.89568C20.4946 5.89568 22.7656 8.1676 22.7656 10.8681V16.1933C22.7656 16.3829 22.7574 16.5733 22.7424 16.7624C22.5953 18.5764 21.7491 20.2737 20.3699 21.4864C20.2121 21.6251 20.1969 21.8653 20.3355 22.0228C20.474 22.1806 20.7143 22.196 20.8719 22.0575C21.5646 21.4484 22.1357 20.7288 22.5686 19.937C22.5686 19.937 23.1239 20.3638 23.1241 20.364C23.8846 20.9485 25.0054 20.8005 25.5888 20.0417C26.1727 19.2818 26.0249 18.1597 25.2665 17.5768L23.5253 16.2386C23.5255 16.2234 23.5259 16.2083 23.5259 16.1933V10.8681C23.5259 8.99208 22.6203 7.32372 21.2231 6.27733C21.2346 5.39861 21.5814 4.68578 22.2796 4.1032C22.4631 3.94998 22.6692 3.80864 22.8934 3.68077C22.9556 3.7065 23.0195 3.72926 23.0858 3.74767C23.9559 3.98977 24.8866 3.46401 25.1285 2.594C25.2473 2.16721 25.1927 1.71963 24.9749 1.33382C24.757 0.948004 24.4018 0.670076 23.9749 0.551303C23.8294 0.510921 23.6797 0.490333 23.5297 0.490333C22.8521 0.490333 22.2453 0.907423 21.9939 1.52504C21.5747 1.7422 21.1881 1.9936 20.8436 2.2745C20.1431 2.84579 19.2867 3.8132 18.9979 5.26302C18.6093 5.17968 18.2065 5.13533 17.7933 5.13533C17.3266 5.13533 16.8728 5.19175 16.4379 5.29766C16.4767 4.80535 16.6529 4.32887 16.9655 3.87615C17.1011 3.67958 17.2616 3.48816 17.4436 3.30485C17.5103 3.31297 17.5782 3.31772 17.647 3.31772C18.5618 3.31772 19.3059 2.57361 19.3059 1.65886C19.3059 0.744111 18.5618 0 17.647 0C16.7966 0 16.0939 0.643352 15.9993 1.46902C15.6536 1.7903 15.3486 2.13613 15.092 2.49918C14.495 3.34345 13.8701 4.69528 14.1844 6.41729C13.525 6.95315 12.9864 7.63194 12.6166 8.40653ZM0.760343 15.6259C0.760343 11.4277 4.17585 8.01201 8.37427 8.01201C9.77915 8.01201 11.1413 8.39446 12.3322 9.12095C12.328 9.13342 12.3248 9.14609 12.3209 9.15856C12.1956 9.55962 12.1077 9.98126 12.0796 10.4009C12.0566 10.7452 12.0616 11.0906 12.0564 11.4354V11.4394C12.0542 11.5851 12.0509 11.7338 12.0469 11.884C11.0742 10.9291 9.75975 10.3797 8.37427 10.3797C7.36272 10.3797 6.38007 10.6697 5.53204 11.2183C5.35586 11.3323 5.30538 11.5677 5.4194 11.7438C5.53342 11.9202 5.76879 11.9707 5.94497 11.8567C6.66968 11.3879 7.5096 11.1403 8.37427 11.1403C9.80884 11.1403 11.1547 11.829 12.0006 12.9892C11.9343 14.1369 11.8052 15.3621 11.5766 16.5724C11.3954 17.5255 11.1543 18.4692 10.8236 19.3817C10.0939 19.8598 9.24982 20.1118 8.37427 20.1118C5.90082 20.1118 3.88842 18.0994 3.88842 15.6259C3.88842 14.5908 4.25107 13.5801 4.90967 12.7799C5.04309 12.6178 5.01993 12.3783 4.8578 12.2449C4.69568 12.1113 4.45596 12.1346 4.32253 12.2967C3.55229 13.2325 3.12808 14.4148 3.12808 15.6259C3.12808 18.5186 5.48156 20.8721 8.37427 20.8721C9.06671 20.8721 9.74233 20.7365 10.3712 20.4764C10.0652 21.1255 9.70096 21.7497 9.24665 22.3071C8.84639 22.8012 8.49086 23.1021 8.27331 23.2391C4.12121 23.185 0.760343 19.7907 0.760343 15.6259ZM23.4673 17.153C23.4673 17.153 24.8023 18.1791 24.8031 18.1797C25.234 18.5109 25.317 19.1475 24.986 19.5783C24.6546 20.0092 24.0182 20.0924 23.5875 19.7612L22.9087 19.2396C23.1799 18.601 23.3616 17.9347 23.454 17.2488C23.4584 17.2169 23.4633 17.185 23.4673 17.153ZM23.5297 1.25068C24.1142 1.25068 24.5527 1.82692 24.3961 2.3903C24.2882 2.7777 23.9327 3.0483 23.531 3.0483C23.126 3.0483 22.7471 2.74998 22.6547 2.35051C22.6545 2.34913 22.6543 2.34774 22.6541 2.34635C22.5296 1.79367 22.9645 1.25068 23.5297 1.25068ZM21.3241 2.86381C21.5032 2.71772 21.6954 2.58034 21.8995 2.45266C21.9011 2.46097 21.9033 2.46909 21.9048 2.4772C21.9573 2.73632 22.0725 2.98397 22.2382 3.19004C22.0802 3.29357 21.9312 3.40363 21.7924 3.51943C21.0471 4.14141 20.6124 4.91026 20.4948 5.81115C20.249 5.67951 19.994 5.56608 19.7315 5.47186C19.918 4.45041 20.4529 3.57427 21.3241 2.86381ZM17.647 0.760343C18.1425 0.760343 18.5456 1.16358 18.5456 1.65886C18.5456 2.15434 18.1425 2.55737 17.647 2.55737C17.1662 2.55737 16.7491 2.14048 16.7485 1.66005L16.7487 1.65549C16.7505 1.1616 17.1528 0.760343 17.647 0.760343ZM15.7128 2.93824C15.8463 2.74959 15.9947 2.56569 16.157 2.38792C16.1939 2.46335 16.2374 2.53599 16.2853 2.60488C16.3934 2.75968 16.5274 2.89746 16.6808 3.00752C16.5563 3.14946 16.4423 3.29555 16.3396 3.44441C15.8853 4.1028 15.6604 4.80713 15.6691 5.54193C15.3971 5.65041 15.1342 5.77968 14.8822 5.92854C14.7528 4.63055 15.2435 3.60198 15.7128 2.93824Z" fill="white"/>
</svg>
