<svg width="20" height="20" viewBox="0 0 20 20" fill="none" xmlns="http://www.w3.org/2000/svg">
<path d="M11.04 11.8066C11.04 12.1933 10.8333 12.5266 10.52 12.7066V13.8599H9.47996V12.7066C9.16663 12.5266 8.95996 12.1933 8.95996 11.8066C8.95996 11.2333 9.42663 10.7666 9.99996 10.7666C10.5733 10.7666 11.04 11.2333 11.04 11.8066Z" fill="black"/>
<path d="M11.5867 7.30639V8.99306H8.41339V7.30639C8.41339 6.43306 9.12672 5.71973 10.0001 5.71973C10.8734 5.71973 11.5867 6.43306 11.5867 7.30639Z" fill="black"/>
<path d="M10 0C4.48 0 0 4.48 0 10C0 15.52 4.48 20 10 20C15.52 20 20 15.52 20 10C20 4.48 15.52 0 10 0Z" fill="#E8E8E8"/>
<path d="M12.9206 8.82327V7.09405C12.9206 5.25045 11.6088 3.75 9.99706 3.75C8.38529 3.75 7.07353 5.25045 7.07353 7.09405V8.82327C6.60294 8.93765 6.25 9.41537 6.25 9.98729V13.8158C6.25 14.4684 6.71471 15 7.28529 15H12.7088C12.9971 15 13.2559 14.8654 13.4441 14.6501C13.6324 14.4348 13.75 14.1388 13.75 13.8091V9.98056C13.7441 9.41537 13.3912 8.93765 12.9206 8.82327ZM10.4559 12.5441V13.7081H9.53823V12.5441C9.26176 12.3624 9.07941 12.026 9.07941 11.6358C9.07941 11.0571 9.49118 10.5861 9.99706 10.5861C10.5029 10.5861 10.9147 11.0571 10.9147 11.6358C10.9147 12.026 10.7324 12.3624 10.4559 12.5441ZM11.3971 8.79635H8.59706V7.09405C8.59706 6.21262 9.22647 5.49267 9.99706 5.49267C10.7676 5.49267 11.3971 6.21262 11.3971 7.09405V8.79635Z" fill="#878787"/>
</svg>
