<svg width="22" height="22" viewBox="0 0 22 22" fill="none" xmlns="http://www.w3.org/2000/svg">
<path d="M6.23047 15.0947H2.75C2.41914 15.0947 2.14844 15.3611 2.14844 15.6877V21.4025C2.14844 21.7291 2.41914 21.9955 2.75 21.9955H6.23047C6.56133 21.9955 6.83203 21.7291 6.83203 21.4025V15.6877C6.83203 15.3611 6.56133 15.0947 6.23047 15.0947ZM5.62891 20.8139H3.35156V16.285H5.62891V20.8139Z" fill="white"/>
<path d="M12.6888 11.9023H9.20837C8.87751 11.9023 8.60681 12.1687 8.60681 12.4953V21.407C8.60681 21.7336 8.87751 22 9.20837 22H12.6888C13.0197 22 13.2904 21.7336 13.2904 21.407V12.4953C13.2904 12.1687 13.0197 11.9023 12.6888 11.9023ZM12.0916 20.8141H9.80993V13.0883H12.0916V20.8141Z" fill="white"/>
<path d="M19.151 7.07715H15.6705C15.3397 7.07715 15.069 7.34355 15.069 7.67012V21.4072C15.069 21.7338 15.3397 22.0002 15.6705 22.0002H19.151C19.4819 22.0002 19.7526 21.7338 19.7526 21.4072V7.67012C19.7483 7.33926 19.4819 7.07715 19.151 7.07715ZM18.5494 20.8143H16.2678V8.26309H18.5494V20.8143Z" fill="white"/>
<path d="M4.2967 11.541C4.50295 11.541 4.70061 11.4594 4.84241 11.3133L9.19514 6.96484L10.9698 8.73945C11.2705 9.04023 11.7604 9.04023 12.0655 8.73945L16.9295 3.87109V5.61133C16.9295 6.03672 17.2776 6.38477 17.703 6.38477C18.1283 6.38477 18.4764 6.03672 18.4764 5.61133V2.00195C18.4764 1.57656 18.1283 1.22852 17.703 1.22852H14.0936C13.6682 1.22852 13.3201 1.57656 13.3201 2.00195C13.3201 2.42734 13.6682 2.77539 14.0936 2.77539H15.8381L11.5155 7.09805L9.74085 5.32344C9.44006 5.02266 8.95022 5.02266 8.64514 5.32344L3.7467 10.2219C3.44592 10.5227 3.44592 11.0125 3.7467 11.3176C3.8928 11.4594 4.09045 11.541 4.2967 11.541Z" fill="white"/>
</svg>
