<svg width="16" height="16" viewBox="0 0 16 16" fill="none" xmlns="http://www.w3.org/2000/svg">
<path d="M8 16C12.4183 16 16 12.4183 16 8C16 3.58172 12.4183 0 8 0C3.58172 0 0 3.58172 0 8C0 12.4183 3.58172 16 8 16Z" fill="#FFBE40"/>
<path d="M3.51489 6.47557C3.55268 7.16849 3.69126 7.8488 4.00623 8.47872C4.2456 8.93227 4.42197 9.36061 4.66134 9.81415C5.10229 10.6331 5.0015 11.8929 5.0015 11.8929V12.2331L8.75583 12.863L8.70544 11.3386C9.23457 11.6283 10.0535 11.8299 10.1921 11.2504C10.255 10.9858 10.2047 10.7086 10.2424 10.4315C10.2802 10.1921 10.4188 9.94014 10.633 9.86455C10.696 9.85195 10.7212 9.77636 10.6834 9.72597C10.5322 9.53699 9.99048 9.37321 9.7889 9.33541C10.0409 9.19683 10.8724 9.02045 10.8724 8.73069C10.8724 8.6551 10.822 8.31494 10.8472 8.23935C10.8724 8.12597 10.9732 8.07557 11.0865 8.06297C11.2377 8.03778 11.3385 7.874 11.2629 7.73541C10.9732 7.19368 10.4314 7.0803 10.318 6.46297C10.2172 5.93384 10.4314 5.4173 10.444 4.88817C10.444 4.6362 10.3936 4.35904 10.444 4.11967C10.4692 3.98108 10.4188 3.8173 10.2928 3.72912C7.05504 1.25982 3.35111 3.28817 3.51489 6.47557Z" fill="#324A5E"/>
<path d="M11.5654 8.85689C11.7134 9.06791 11.767 9.31988 11.7292 9.5561C11.6946 9.76082 11.5938 9.95295 11.4331 10.0978L11.282 9.9309C11.4048 9.82067 11.4804 9.67264 11.5056 9.51831C11.5339 9.33878 11.4961 9.14665 11.3796 8.98917C11.3575 8.95768 11.3355 8.92933 11.3071 8.90413L11.4678 8.74665C11.4993 8.7813 11.5339 8.81909 11.5623 8.86004L11.5654 8.85689ZM13.0363 7.2002C13.1497 7.31358 13.2536 7.43957 13.3512 7.575C13.8583 8.27736 14.0284 9.1246 13.8993 9.91516C13.7859 10.5955 13.452 11.238 12.9135 11.7293L12.7623 11.5624C13.2631 11.1089 13.5717 10.5104 13.6757 9.88051C13.7985 9.1435 13.6379 8.35925 13.1654 7.70728C13.0741 7.58445 12.9764 7.46791 12.8725 7.36082L13.0363 7.2002ZM12.4536 7.77657C12.5386 7.86161 12.6174 7.95295 12.6867 8.05374C13.0615 8.57342 13.1906 9.19705 13.093 9.78287C13.0111 10.2868 12.7623 10.7624 12.3654 11.1246L12.2142 10.9577C12.5701 10.6301 12.7969 10.2018 12.8694 9.74823C12.9575 9.21909 12.841 8.65531 12.504 8.18602C12.4379 8.09783 12.3686 8.01279 12.293 7.9372L12.4536 7.77657ZM11.9465 8.28051C12.0032 8.34035 12.0568 8.40334 12.1072 8.47264C12.3654 8.83169 12.4536 9.26634 12.3875 9.66949C12.3276 10.0159 12.1575 10.3467 11.8835 10.5955L11.7323 10.4285C11.9686 10.2144 12.1166 9.9309 12.167 9.63169C12.2268 9.28208 12.1481 8.91043 11.9276 8.60177C11.8835 8.54193 11.8394 8.48838 11.789 8.43799L11.9465 8.28051Z" fill="#1972F4"/>
</svg>
