<svg width="45" height="32" viewBox="0 0 45 32" fill="none" xmlns="http://www.w3.org/2000/svg">
<rect x="0.100098" width="44.8" height="32" rx="2" fill="white"/>
<mask id="mask0" mask-type="alpha" maskUnits="userSpaceOnUse" x="0" y="0" width="45" height="32">
<rect x="0.100098" width="44.8" height="32" rx="2" fill="white"/>
</mask>
<g mask="url(#mask0)">
<path fill-rule="evenodd" clip-rule="evenodd" d="M44.9001 0H0.100098V2.13333H44.9001V0ZM44.9001 4.26686H0.100098V6.4002H44.9001V4.26686ZM0.100098 8.53314H44.9001V10.6665H0.100098V8.53314ZM44.9001 12.8H0.100098V14.9333H44.9001V12.8ZM0.100098 17.0669H44.9001V19.2002H0.100098V17.0669ZM44.9001 21.3331H0.100098V23.4665H44.9001V21.3331ZM0.100098 25.6H44.9001V27.7333H0.100098V25.6ZM44.9001 29.8669H0.100098V32.0002H44.9001V29.8669Z" fill="#D02F44"/>
<rect x="0.100098" width="19.2" height="14.9333" fill="#46467F"/>
<g filter="url(#filter0_d)">
<path fill-rule="evenodd" clip-rule="evenodd" d="M4.36673 3.19948C4.36673 3.78858 3.88917 4.26615 3.30007 4.26615C2.71096 4.26615 2.2334 3.78858 2.2334 3.19948C2.2334 2.61038 2.71096 2.13281 3.30007 2.13281C3.88917 2.13281 4.36673 2.61038 4.36673 3.19948ZM8.63341 3.19948C8.63341 3.78858 8.15585 4.26615 7.56674 4.26615C6.97764 4.26615 6.50008 3.78858 6.50008 3.19948C6.50008 2.61038 6.97764 2.13281 7.56674 2.13281C8.15585 2.13281 8.63341 2.61038 8.63341 3.19948ZM11.8334 4.26615C12.4225 4.26615 12.9001 3.78858 12.9001 3.19948C12.9001 2.61038 12.4225 2.13281 11.8334 2.13281C11.2443 2.13281 10.7667 2.61038 10.7667 3.19948C10.7667 3.78858 11.2443 4.26615 11.8334 4.26615ZM17.1667 3.19948C17.1667 3.78858 16.6892 4.26615 16.1001 4.26615C15.511 4.26615 15.0334 3.78858 15.0334 3.19948C15.0334 2.61038 15.511 2.13281 16.1001 2.13281C16.6892 2.13281 17.1667 2.61038 17.1667 3.19948ZM5.43339 6.39928C6.02249 6.39928 6.50005 5.92172 6.50005 5.33262C6.50005 4.74351 6.02249 4.26595 5.43339 4.26595C4.84428 4.26595 4.36672 4.74351 4.36672 5.33262C4.36672 5.92172 4.84428 6.39928 5.43339 6.39928ZM10.7667 5.33262C10.7667 5.92172 10.2892 6.39928 9.70006 6.39928C9.11096 6.39928 8.6334 5.92172 8.6334 5.33262C8.6334 4.74351 9.11096 4.26595 9.70006 4.26595C10.2892 4.26595 10.7667 4.74351 10.7667 5.33262ZM13.9667 6.39928C14.5558 6.39928 15.0334 5.92172 15.0334 5.33262C15.0334 4.74351 14.5558 4.26595 13.9667 4.26595C13.3776 4.26595 12.9001 4.74351 12.9001 5.33262C12.9001 5.92172 13.3776 6.39928 13.9667 6.39928ZM17.1667 7.46634C17.1667 8.05545 16.6892 8.53301 16.1001 8.53301C15.511 8.53301 15.0334 8.05545 15.0334 7.46634C15.0334 6.87724 15.511 6.39967 16.1001 6.39967C16.6892 6.39967 17.1667 6.87724 17.1667 7.46634ZM11.8334 8.53301C12.4225 8.53301 12.9001 8.05545 12.9001 7.46634C12.9001 6.87724 12.4225 6.39967 11.8334 6.39967C11.2443 6.39967 10.7667 6.87724 10.7667 7.46634C10.7667 8.05545 11.2443 8.53301 11.8334 8.53301ZM8.63341 7.46634C8.63341 8.05545 8.15585 8.53301 7.56674 8.53301C6.97764 8.53301 6.50008 8.05545 6.50008 7.46634C6.50008 6.87724 6.97764 6.39967 7.56674 6.39967C8.15585 6.39967 8.63341 6.87724 8.63341 7.46634ZM3.30007 8.53301C3.88917 8.53301 4.36673 8.05545 4.36673 7.46634C4.36673 6.87724 3.88917 6.39967 3.30007 6.39967C2.71096 6.39967 2.2334 6.87724 2.2334 7.46634C2.2334 8.05545 2.71096 8.53301 3.30007 8.53301ZM6.50005 9.59948C6.50005 10.1886 6.02249 10.6661 5.43339 10.6661C4.84428 10.6661 4.36672 10.1886 4.36672 9.59948C4.36672 9.01037 4.84428 8.53281 5.43339 8.53281C6.02249 8.53281 6.50005 9.01037 6.50005 9.59948ZM9.70006 10.6661C10.2892 10.6661 10.7667 10.1886 10.7667 9.59948C10.7667 9.01037 10.2892 8.53281 9.70006 8.53281C9.11096 8.53281 8.6334 9.01037 8.6334 9.59948C8.6334 10.1886 9.11096 10.6661 9.70006 10.6661ZM15.0334 9.59948C15.0334 10.1886 14.5558 10.6661 13.9667 10.6661C13.3776 10.6661 12.9001 10.1886 12.9001 9.59948C12.9001 9.01037 13.3776 8.53281 13.9667 8.53281C14.5558 8.53281 15.0334 9.01037 15.0334 9.59948ZM16.1001 12.7993C16.6892 12.7993 17.1667 12.3217 17.1667 11.7326C17.1667 11.1435 16.6892 10.666 16.1001 10.666C15.511 10.666 15.0334 11.1435 15.0334 11.7326C15.0334 12.3217 15.511 12.7993 16.1001 12.7993ZM12.9001 11.7326C12.9001 12.3217 12.4225 12.7993 11.8334 12.7993C11.2443 12.7993 10.7667 12.3217 10.7667 11.7326C10.7667 11.1435 11.2443 10.666 11.8334 10.666C12.4225 10.666 12.9001 11.1435 12.9001 11.7326ZM7.56674 12.7993C8.15585 12.7993 8.63341 12.3217 8.63341 11.7326C8.63341 11.1435 8.15585 10.666 7.56674 10.666C6.97764 10.666 6.50008 11.1435 6.50008 11.7326C6.50008 12.3217 6.97764 12.7993 7.56674 12.7993ZM4.36673 11.7326C4.36673 12.3217 3.88917 12.7993 3.30007 12.7993C2.71096 12.7993 2.2334 12.3217 2.2334 11.7326C2.2334 11.1435 2.71096 10.666 3.30007 10.666C3.88917 10.666 4.36673 11.1435 4.36673 11.7326Z" fill="url(#paint0_linear)"/>
</g>
</g>
<defs>
<filter id="filter0_d" x="2.2334" y="2.13281" width="14.9333" height="11.6665" filterUnits="userSpaceOnUse" color-interpolation-filters="sRGB">
<feFlood flood-opacity="0" result="BackgroundImageFix"/>
<feColorMatrix in="SourceAlpha" type="matrix" values="0 0 0 0 0 0 0 0 0 0 0 0 0 0 0 0 0 0 127 0"/>
<feOffset dy="1"/>
<feColorMatrix type="matrix" values="0 0 0 0 0 0 0 0 0 0 0 0 0 0 0 0 0 0 0.06 0"/>
<feBlend mode="normal" in2="BackgroundImageFix" result="effect1_dropShadow"/>
<feBlend mode="normal" in="SourceGraphic" in2="effect1_dropShadow" result="shape"/>
</filter>
<linearGradient id="paint0_linear" x1="2.2334" y1="2.13281" x2="2.2334" y2="12.7993" gradientUnits="userSpaceOnUse">
<stop stop-color="white"/>
<stop offset="1" stop-color="#F0F0F0"/>
</linearGradient>
</defs>
</svg>
