<svg width="45" height="32" viewBox="0 0 45 32" fill="none" xmlns="http://www.w3.org/2000/svg">
<rect x="0.100098" width="44.8" height="32" rx="2" fill="white"/>
<mask id="mask0" mask-type="alpha" maskUnits="userSpaceOnUse" x="0" y="0" width="45" height="32">
<rect x="0.100098" width="44.8" height="32" rx="2" fill="white"/>
</mask>
<g mask="url(#mask0)">
<rect x="0.100098" width="44.8" height="32" fill="#F1361D"/>
<path fill-rule="evenodd" clip-rule="evenodd" d="M16.2163 4.96165L17.7658 5.22582L18.928 6.28421L19.1921 4.7347L20.2505 3.57256L18.701 3.30839L17.5389 2.25L17.2747 3.79951L16.2163 4.96165ZM20.3668 10.3813L21.7095 9.56415L23.2809 9.60049L22.4637 8.25775L22.5001 6.68631L21.1573 7.50351L19.5859 7.46716L20.4031 8.8099L20.3668 10.3813ZM18.5453 19.1539L17.2319 20.0175L17.2134 18.4457L16.3498 17.1323L17.9216 17.1138L19.235 16.2502L19.2535 17.822L20.117 19.1354L18.5453 19.1539ZM19.6859 15.0907L21.2482 14.9176L22.657 15.6146L22.4839 14.0523L23.1809 12.6435L21.6186 12.8166L20.2098 12.1196L20.383 13.6819L19.6859 15.0907Z" fill="#FFDC42"/>
<path fill-rule="evenodd" clip-rule="evenodd" d="M10.7667 13.1626L7.00487 15.8443L8.39286 11.4379L4.67994 8.68889L9.29959 8.6473L10.7667 4.2666L12.2338 8.6473L16.8535 8.68889L13.1405 11.4379L14.5285 15.8443L10.7667 13.1626Z" fill="#FFDC42"/>
</g>
</svg>
