<svg width="28" height="28" viewBox="0 0 28 28" fill="none" xmlns="http://www.w3.org/2000/svg">
<g clip-path="url(#clip0)">
<path d="M14 28.0001C21.732 28.0001 28.0001 21.732 28.0001 14C28.0001 6.26803 21.732 0 14 0C6.26803 0 0 6.26803 0 14C0 21.732 6.26803 28.0001 14 28.0001Z" fill="#D42428"/>
<path d="M23.8991 4.09912C29.3664 9.56695 29.3669 18.4316 23.8991 23.8994C18.4317 29.3668 9.56658 29.367 4.09875 23.8994L23.8991 4.09912Z" fill="#CC202D"/>
<path d="M27.7186 16.8036L20.7896 9.87476L12.6174 10.8052L7.67426 18.458L16.911 27.6945C22.3417 26.5457 26.6111 22.25 27.7186 16.8036Z" fill="#BA202E"/>
<path d="M21.3264 11.298C21.3264 10.1243 20.3756 9.1731 19.2027 9.1731H9.23864C8.0659 9.1731 7.1153 10.1246 7.1153 11.298V16.9959C7.1153 18.1696 8.06607 19.1208 9.23864 19.1208H19.2025C20.3757 19.1208 21.3262 18.1693 21.3262 16.9959V11.298H21.3264ZM12.7993 16.5507V11.199L16.8578 13.8749L12.7993 16.5507Z" fill="white"/>
</g>
<defs>
<clipPath id="clip0">
<rect width="28" height="28" fill="white"/>
</clipPath>
</defs>
</svg>
