<svg width="55" height="45" viewBox="0 0 55 45" fill="none" xmlns="http://www.w3.org/2000/svg">
<path d="M27.4597 10.6672C27.4597 7.31319 23.58 5.44851 20.9609 7.54375L14.4111 12.7836C13.7018 13.351 12.8206 13.6601 11.9123 13.6601H6C3.79086 13.6601 2 15.451 2 17.6601V26.6333C2 28.8424 3.79086 30.6333 6 30.6333H11.9123C12.8206 30.6333 13.7018 30.9424 14.4111 31.5098L20.9609 36.7497C23.58 38.8449 27.4597 36.9802 27.4597 33.6262V10.6672Z" stroke="white" stroke-width="4" stroke-linecap="round" stroke-linejoin="round"/>
<path d="M44.4448 2.14648C49.7481 7.45137 52.7273 14.6454 52.7273 22.1465C52.7273 29.6476 49.7481 36.8416 44.4448 42.1465M34.459 12.1323C37.1106 14.7848 38.6002 18.3818 38.6002 22.1323C38.6002 25.8829 37.1106 29.4799 34.459 32.1323" stroke="white" stroke-width="4" stroke-linecap="round" stroke-linejoin="round"/>
</svg>
