<svg width="13" height="18" viewBox="0 0 13 18" fill="none" xmlns="http://www.w3.org/2000/svg">
<path d="M6.09088 1C5.51222 1 4.95727 1.22987 4.5481 1.63904C4.13893 2.04821 3.90906 2.60316 3.90906 3.18182V9C3.90906 9.57865 4.13893 10.1336 4.5481 10.5428C4.95727 10.9519 5.51222 11.1818 6.09088 11.1818C6.66953 11.1818 7.22448 10.9519 7.63365 10.5428C8.04282 10.1336 8.27269 9.57865 8.27269 9V3.18182C8.27269 2.60316 8.04282 2.04821 7.63365 1.63904C7.22448 1.22987 6.66953 1 6.09088 1V1Z" stroke="#BDBDBD" stroke-width="2" stroke-linecap="round" stroke-linejoin="round"/>
<path d="M11.1818 7.54541V8.99996C11.1818 10.3501 10.6455 11.645 9.69072 12.5998C8.73599 13.5545 7.4411 14.0909 6.09091 14.0909C4.74072 14.0909 3.44582 13.5545 2.49109 12.5998C1.53636 11.645 1 10.3501 1 8.99996V7.54541" stroke="#BDBDBD" stroke-width="2" stroke-linecap="round" stroke-linejoin="round"/>
<path d="M6.09094 14.0908V16.9999" stroke="#BDBDBD" stroke-width="2" stroke-linecap="round" stroke-linejoin="round"/>
<path d="M3.18176 17H8.99994" stroke="#BDBDBD" stroke-width="2" stroke-linecap="round" stroke-linejoin="round"/>
</svg>
