<svg width="16" height="14" viewBox="0 0 16 14" fill="none" xmlns="http://www.w3.org/2000/svg">
<path d="M1.2973 0.513245C0.579445 0.513245 0 1.09269 0 1.81054C0 2.52839 0.579445 3.10784 1.2973 3.10784C2.01515 3.10784 2.59459 2.52839 2.59459 1.81054C2.59459 1.09269 2.01515 0.513245 1.2973 0.513245Z" fill="#0066FF"/>
<path d="M1.2973 5.70221C0.579445 5.70221 0 6.28165 0 6.99951C0 7.71736 0.579445 8.2968 1.2973 8.2968C2.01515 8.2968 2.59459 7.71736 2.59459 6.99951C2.59459 6.28165 2.01515 5.70221 1.2973 5.70221Z" fill="#0066FF"/>
<path d="M1.2973 10.8918C0.575148 10.8918 0 11.4756 0 12.1891C0 12.9026 0.583783 13.4864 1.2973 13.4864C2.01081 13.4864 2.59459 12.9026 2.59459 12.1891C2.59459 11.4756 2.01944 10.8918 1.2973 10.8918Z" fill="#0066FF"/>
<path d="M15.9997 11.3243H3.8916V13.0541H15.9997V11.3243Z" fill="#0066FF"/>
<path d="M15.9997 0.945648H3.8916V2.67539H15.9997V0.945648Z" fill="#0066FF"/>
<path d="M15.9997 6.13467H3.8916V7.86442H15.9997V6.13467Z" fill="#0066FF"/>
</svg>
