<svg width="44" height="44" viewBox="0 0 44 44" fill="none" xmlns="http://www.w3.org/2000/svg">
<g clip-path="url(#clip0)">
<path d="M39.801 28.7871C38.8587 28.7871 38.0948 28.0232 38.0948 27.0809V20.2183C38.0948 11.3437 30.8748 4.12367 22.0002 4.12367C13.1256 4.12367 5.90557 11.3437 5.90557 20.2183V27.0809C5.90557 28.0233 5.14167 28.7871 4.19937 28.7871C3.25706 28.7871 2.49316 28.0232 2.49316 27.0809V20.2183C2.49316 15.0078 4.52223 10.1091 8.20663 6.42474C11.891 2.74025 16.7896 0.711182 22.0002 0.711182C27.2108 0.711182 32.1094 2.74025 35.7938 6.42474C39.4782 10.1091 41.5072 15.0078 41.5072 20.2183V27.0809C41.5073 28.0232 40.7433 28.7871 39.801 28.7871Z" fill="#756E78"/>
<path d="M7.75254 33.0929V21.0384C7.75254 20.1765 8.4513 19.4778 9.31316 19.4778H7.58075C4.77094 19.4778 2.49316 21.7556 2.49316 24.5654V29.566C2.49316 32.3758 4.77094 34.6536 7.58075 34.6536H9.31308C8.45121 34.6536 7.75254 33.9548 7.75254 33.0929Z" fill="#665E66"/>
<path d="M12.6618 21.9541V32.1773C12.6618 33.3516 11.7098 34.3036 10.5355 34.3037C10.5355 34.3037 10.5355 34.3037 10.5355 34.3037H9.64895L9.51309 34.1823V20.0536L9.68741 19.8278H10.5355C11.7098 19.8278 12.6618 20.7798 12.6618 21.9541Z" fill="white" stroke="#544F57" stroke-width="0.7"/>
<path d="M35.4171 19.4778H34.4842L34.1006 20.2746V33.8568L34.4842 34.6537H35.4171C35.8556 34.4297 36.1565 33.9747 36.1565 33.4485V20.6829C36.1565 20.1568 35.8557 19.7017 35.4171 19.4778Z" fill="#665E66"/>
<path d="M36.4192 19.4778H34.3711C35.1043 19.4778 35.6987 20.0722 35.6987 20.8054V33.3259C35.6987 34.0591 35.1043 34.6536 34.3711 34.6536H36.4192C39.229 34.6536 41.5067 32.3758 41.5067 29.566V24.5654C41.5068 21.7556 39.229 19.4778 36.4192 19.4778Z" fill="#544F57"/>
<path d="M31.3383 32.1773V21.9541C31.3383 20.7798 32.2903 19.8278 33.4646 19.8278H34.1346V34.3037H33.4646C33.4646 34.3037 33.4646 34.3037 33.4646 34.3037C32.2902 34.3036 31.3383 33.3516 31.3383 32.1773Z" fill="white" stroke="#544F57" stroke-width="0.7"/>
<path d="M33.6513 10.191C33.8427 9.91006 33.8609 9.5444 33.6949 9.24766C32.8259 7.69417 31.7369 6.2511 30.4436 4.95783C28.0703 2.58449 25.1927 0.899518 22.0529 -7.583e-05C22.0515 -0.000247705 22.0502 -0.000505518 22.0488 -0.000677393C16.6303 -0.0131383 11.5342 2.09104 7.7041 5.9211C6.12869 7.49651 4.84899 9.27224 3.88168 11.2216C3.2607 12.4732 3.84172 13.9895 5.13267 14.5239C6.30967 15.0111 7.66139 14.5029 8.229 13.3625C9.3107 11.1894 10.8934 9.30403 12.8852 7.83356C15.5431 5.87135 18.6952 4.83408 22.0006 4.83408C25.3664 4.83408 28.5649 5.90598 31.2504 7.93385C32.1303 8.5984 32.935 9.35766 33.6513 10.191Z" fill="#544F57"/>
<path d="M40.2897 11.5725C39.3057 9.48724 37.9686 7.59387 36.2965 5.92178C32.4778 2.10306 27.4006 0 22 0C21.6909 0 21.383 0.00773438 21.0762 0.0214844C24.4178 0.879227 27.4821 2.6174 29.9857 5.12084C31.4932 6.62836 32.7231 8.33938 33.6508 10.1917C34.5514 11.2394 35.3121 12.4045 35.9046 13.6482C36.457 14.8077 37.8162 15.3368 39.0058 14.8526L39.0107 14.8506C40.2979 14.3267 40.8828 12.8293 40.2897 11.5725Z" fill="#454045"/>
<path d="M9.51529 34.6533V19.4775H8.72664C7.86477 19.4775 7.16602 20.1762 7.16602 21.0382V33.0928C7.16602 33.9547 7.86477 34.6534 8.72664 34.6534H9.51529V34.6533Z" fill="#544F57"/>
</g>
<defs>
<clipPath id="clip0">
<rect width="44" height="44" fill="white"/>
</clipPath>
</defs>
</svg>
