<svg width="17" height="17" viewBox="0 0 17 17" fill="none" xmlns="http://www.w3.org/2000/svg">
<path d="M8.03125 16C12.4495 16 16.0312 12.4183 16.0312 8C16.0312 3.58172 12.4495 0 8.03125 0C3.61297 0 0.03125 3.58172 0.03125 8C0.03125 12.4183 3.61297 16 8.03125 16Z" fill="#FDB556"/>
<path d="M16.0314 8C16.0314 6.64062 15.6907 5.35938 15.0939 4.2375L13.7095 2.84375L2.43445 10.7344L5.25945 13.5719L4.9782 14.3562L6.45321 15.8469C6.96258 15.95 7.49071 16.0031 8.02821 16.0031C12.4501 16 16.0314 12.4187 16.0314 8Z" fill="#FD9126"/>
<path d="M13.8657 12.84H2.1876C1.76885 12.84 1.42822 12.4963 1.42822 12.0807V4.08066C1.42822 3.66191 1.77197 3.32129 2.1876 3.32129H13.8657C14.2845 3.32129 14.6251 3.66504 14.6251 4.08066V12.0807C14.6251 12.4963 14.2845 12.84 13.8657 12.84Z" fill="white"/>
<path d="M14.625 4.09648V12.0621C14.625 12.4902 14.275 12.8402 13.8469 12.8402H8.02502V3.31836H13.8469C14.275 3.31836 14.625 3.66836 14.625 4.09648Z" fill="#EAE1DC"/>
<path d="M2.10645 4.00879H13.9846V11.9182H2.10645V4.00879Z" fill="#5EEFEE"/>
<path d="M8.02502 4.00879H14V11.9182H8.02502V4.00879Z" fill="#54C9FC"/>
<path d="M2.61572 5.1875H13.5532V10.6875H2.61572V5.1875Z" fill="#FF807D"/>
<path d="M8.02502 5.1875H13.5813V10.6875H8.02502V5.1875Z" fill="#FC3E53"/>
<path d="M7.20642 6.75273V8.19648C7.20642 8.38085 7.39704 8.50585 7.56579 8.43085L9.17203 7.70898C9.37203 7.61836 9.37203 7.33398 9.17203 7.24336L7.56579 6.52148C7.39704 6.44649 7.20642 6.56836 7.20642 6.75273Z" fill="white"/>
<path d="M8.37517 7.64062L7.58142 7.99687V6.95312L8.37517 7.3125C8.5158 7.375 8.5158 7.57812 8.37517 7.64062Z" fill="#EAE1DC"/>
<path d="M10.2251 9.62109H13.5532V10.6867H10.2251V9.62109Z" fill="#EAE1DC"/>
<path d="M2.61572 9.62109H8.34386V10.6867H2.61572V9.62109Z" fill="#776D6B"/>
<path d="M8.02502 9.62109H10.6094V10.6867H8.02502V9.62109Z" fill="#57555C"/>
</svg>
