<svg width="51" height="24" viewBox="0 0 51 24" fill="none" xmlns="http://www.w3.org/2000/svg">
<path d="M17.2792 7.56516H0.998047V23.3979H17.2792V7.56516Z" fill="#F15A24"/>
<path d="M34.3244 0.377167H17.1484V23.3976H34.3244V0.377167Z" fill="#009245"/>
<path d="M50.5809 7.56516H34.2998V23.3979H50.5809V7.56516Z" fill="#FFC728"/>
<path d="M13.1716 11.8923L6.00098 20.8603L7.52288 23.3968H17.2794H20.479L13.1716 11.8923Z" fill="#D35616"/>
<path d="M35.3733 23.3967L26.9962 10.205L24.2051 20.6854L25.8448 23.3967H33.4049H35.3733Z" fill="#008345"/>
<path d="M50.5807 22.3277L43.6456 11.4084L40.4137 15.5314H41.7323V19.1756H37.5561L36.665 20.3118L38.5175 23.3974H50.5807V22.3277Z" fill="#FCB829"/>
<path d="M24.2046 12.7552H24.1723L22.1051 13.6767L21.6377 11.5126L24.6416 10.1883H27.0166V20.6858H24.2065V12.7552H24.2046Z" fill="#E8E6D4"/>
<path d="M6.00488 20.862V19.1007L7.45838 17.8239C9.59018 15.9828 10.6732 14.8846 10.6884 13.8187C10.6884 13.0587 10.1868 12.5096 9.12088 12.5096C8.24878 12.5096 7.45648 12.9466 6.87508 13.3665L6.08278 11.2822C6.89028 10.6837 8.21458 10.184 9.70038 10.184C12.14 10.184 13.5935 11.5083 13.5935 13.5755C13.5935 15.2551 12.3984 16.6117 11.1539 17.6301L10.1203 18.4376V18.4699H13.7702V20.8601H6.00488V20.862Z" fill="#E8E6D4"/>
<path d="M37.2102 18.1168C37.6624 18.3429 38.7131 18.7476 39.7144 18.7476C40.748 18.7476 41.4263 18.3752 41.4263 17.6323C41.4263 16.7754 40.5371 16.3726 39.5681 16.3726H38.4851V14.3054H39.5187C40.2464 14.3054 41.166 14.0793 41.166 13.3516C41.166 12.8177 40.6644 12.4643 39.76 12.4643C38.8727 12.4643 37.9341 12.8348 37.5142 13.0628L36.9651 10.9785C37.6282 10.5738 38.9677 10.1862 40.4212 10.1862C42.7468 10.1862 44.1205 11.349 44.1205 12.8519C44.1205 13.9672 43.4897 14.8222 42.1977 15.2744V15.3067C43.4422 15.5176 44.4435 16.4543 44.4435 17.7938C44.4435 19.7318 42.667 21.0409 39.9538 21.0409C38.5155 21.0409 37.3204 20.7008 36.6592 20.298L37.2102 18.1168Z" fill="#E8E6D4"/>
<path d="M27.0318 8.41592L27.1667 10.3387L29.0382 9.87322L27.2503 10.5952L28.2725 12.2311L27.0318 10.7548L25.793 12.2311L26.8133 10.5952L25.0254 9.87322L26.8969 10.3387L27.0318 8.41592Z" fill="white"/>
</svg>
