<svg width="22" height="22" viewBox="0 0 22 22" fill="none" xmlns="http://www.w3.org/2000/svg">
<g clip-path="url(#clip0)">
<path d="M19.3903 15.235C22.8708 11.7544 22.8707 6.09102 19.3903 2.61044C15.9097 -0.870145 10.2464 -0.870145 6.76588 2.61044C3.81309 5.56324 3.36589 9.9548 5.42308 13.3841C5.42308 13.3841 5.57085 13.6321 5.37127 13.8315C4.23272 14.97 0.816842 18.3859 0.816842 18.3859C-0.0896776 19.2924 -0.305482 20.5599 0.498416 21.3639L0.636828 21.5022C1.44073 22.3063 2.70834 22.0905 3.61479 21.184C3.61479 21.184 7.02343 17.7753 8.15965 16.6391C8.36879 16.43 8.61663 16.5778 8.61663 16.5778C12.0459 18.6349 16.4375 18.1878 19.3903 15.235ZM8.41394 13.5868C5.84214 11.015 5.84221 6.83049 8.41401 4.2587C10.9858 1.68698 15.1703 1.68691 17.7421 4.2587C20.3139 6.83042 20.3139 11.015 17.7421 13.5868C15.1703 16.1585 10.9858 16.1585 8.41394 13.5868Z" fill="white"/>
<path d="M8.98333 8.3936C8.86362 8.3936 8.74194 8.37007 8.62464 8.32053C8.15611 8.12223 7.9369 7.58162 8.1352 7.11302C9.38155 4.16766 12.7917 2.78545 15.737 4.0318C16.2055 4.2301 16.4247 4.77071 16.2264 5.23931C16.028 5.70791 15.4876 5.92698 15.0188 5.72875C13.0093 4.87843 10.6825 5.82152 9.83223 7.83102C9.68347 8.18247 9.34229 8.3936 8.98333 8.3936Z" fill="white"/>
</g>
<defs>
<clipPath id="clip0">
<rect width="22" height="22" fill="white"/>
</clipPath>
</defs>
</svg>
