<svg width="36" height="36" viewBox="0 0 36 36" fill="none" xmlns="http://www.w3.org/2000/svg">
<path d="M26.7273 6.36353H9.27273C7.66608 6.36353 6.36364 7.66597 6.36364 9.27262V26.7272C6.36364 28.3338 7.66608 29.6363 9.27273 29.6363H26.7273C28.3339 29.6363 29.6364 28.3338 29.6364 26.7272V9.27262C29.6364 7.66597 28.3339 6.36353 26.7273 6.36353Z" stroke="white" stroke-width="4" stroke-linecap="round" stroke-linejoin="round"/>
<path d="M22.3636 13.6365H13.6364V22.3637H22.3636V13.6365Z" stroke="white" stroke-width="4" stroke-linecap="round" stroke-linejoin="round"/>
<path d="M13.6364 2V6.36364" stroke="white" stroke-width="4" stroke-linecap="round" stroke-linejoin="round"/>
<path d="M22.3636 2V6.36364" stroke="white" stroke-width="4" stroke-linecap="round" stroke-linejoin="round"/>
<path d="M13.6364 29.6365V34.0001" stroke="white" stroke-width="4" stroke-linecap="round" stroke-linejoin="round"/>
<path d="M22.3636 29.6365V34.0001" stroke="white" stroke-width="4" stroke-linecap="round" stroke-linejoin="round"/>
<path d="M29.6364 13.6365H34" stroke="white" stroke-width="4" stroke-linecap="round" stroke-linejoin="round"/>
<path d="M29.6364 20.9092H34" stroke="white" stroke-width="4" stroke-linecap="round" stroke-linejoin="round"/>
<path d="M2 13.6365H6.36364" stroke="white" stroke-width="4" stroke-linecap="round" stroke-linejoin="round"/>
<path d="M2 20.9092H6.36364" stroke="white" stroke-width="4" stroke-linecap="round" stroke-linejoin="round"/>
</svg>
