<svg width="51" height="34" viewBox="0 0 51 34" fill="none" xmlns="http://www.w3.org/2000/svg">
<path d="M49.6936 4.42501V29.4464C49.6936 31.4449 48.0736 33.0648 46.0752 33.0648H4.92476C2.92642 33.0647 1.3064 31.4447 1.3064 29.4463V4.42501C1.3064 2.42666 2.92642 0.806641 4.92476 0.806641H46.0752C48.0736 0.806641 49.6936 2.42666 49.6936 4.42501Z" fill="white"/>
<path d="M17.4353 16.9355C17.4353 21.3895 21.046 25.0001 25.4999 25.0001C29.9538 25.0001 33.5644 21.3895 33.5644 16.9355H17.4353Z" fill="#103B9B"/>
<path d="M25.4999 8.87109C21.046 8.87109 17.4353 12.4816 17.4353 16.9357H33.5643C33.5644 12.4816 29.9538 8.87109 25.4999 8.87109Z" fill="#ED1F34"/>
<path d="M25.4999 8.06445C20.6085 8.06445 16.6289 12.0441 16.6289 16.9355C16.6289 21.8269 20.6085 25.8065 25.4999 25.8065C30.3913 25.8065 34.3709 21.8269 34.3709 16.9355C34.3709 12.0441 30.3913 8.06445 25.4999 8.06445ZM25.4999 24.1936C21.4978 24.1936 18.2418 20.9376 18.2418 16.9355C18.2418 12.9333 21.4978 9.67735 25.4999 9.67735C29.5021 9.67735 32.758 12.9333 32.758 16.9355C32.758 20.9376 29.5021 24.1936 25.4999 24.1936Z" fill="#121B21"/>
<path d="M9.171 11.8851C9.29805 11.9584 9.43672 11.9933 9.57344 11.9933C9.85215 11.9933 10.1232 11.8487 10.2726 11.59L13.2565 6.4218C13.4791 6.03606 13.347 5.54289 12.9613 5.32014C12.5754 5.09739 12.0823 5.22952 11.8597 5.61526L8.87578 10.7834C8.65303 11.1692 8.78525 11.6624 9.171 11.8851Z" fill="#121B21"/>
<path d="M12.8958 14.0354C13.0228 14.1088 13.1615 14.1436 13.2982 14.1436C13.5769 14.1436 13.848 13.999 13.9973 13.7403L16.9812 8.57215C17.2039 8.18641 17.0718 7.69324 16.6861 7.47049C16.3002 7.24783 15.8071 7.37986 15.5845 7.76561L12.6006 12.9338C12.3779 13.3195 12.5101 13.8127 12.8958 14.0354Z" fill="#121B21"/>
<path d="M11.0335 12.9602C11.1606 13.0336 11.2992 13.0684 11.4359 13.0684C11.7147 13.0684 11.9857 12.9238 12.1351 12.6651L15.119 7.49695C15.3416 7.11121 15.2095 6.61805 14.8238 6.39529C14.4378 6.17264 13.9447 6.30467 13.7222 6.69041L10.7383 11.8586C10.5156 12.2443 10.6478 12.7376 11.0335 12.9602Z" fill="#121B21"/>
<path d="M39.7991 25.5017C39.4131 25.2792 38.9201 25.411 38.6975 25.7968L37.7432 27.4498C37.5205 27.8355 37.6526 28.3287 38.0383 28.5513C38.1653 28.6247 38.304 28.6595 38.4407 28.6595C38.7194 28.6595 38.9905 28.5149 39.1399 28.2562L40.0942 26.6033C40.3171 26.2176 40.1849 25.7244 39.7991 25.5017Z" fill="#121B21"/>
<path d="M41.8287 21.9861C41.4426 21.7635 40.9497 21.8955 40.727 22.2812L39.7727 23.9342C39.5501 24.3199 39.6822 24.8131 40.0678 25.0357C40.1949 25.1091 40.3336 25.1439 40.4703 25.1439C40.749 25.1439 41.0201 24.9993 41.1694 24.7406L42.1237 23.0877C42.3466 22.702 42.2144 22.2088 41.8287 21.9861Z" fill="#121B21"/>
<path d="M36.0745 23.3513C35.6886 23.1287 35.1955 23.2607 34.9729 23.6465L34.0186 25.2994C33.7959 25.6851 33.928 26.1783 34.3137 26.4011C34.4407 26.4744 34.5794 26.5093 34.7161 26.5093C34.9948 26.5093 35.2659 26.3646 35.4152 26.1059L36.3695 24.453C36.5924 24.0673 36.4603 23.574 36.0745 23.3513Z" fill="#121B21"/>
<path d="M36.3433 22.8854C36.4704 22.9587 36.6091 22.9936 36.7458 22.9936C37.0245 22.9936 37.2956 22.849 37.4449 22.5903L38.3992 20.9374C38.6218 20.5516 38.4897 20.0584 38.1041 19.8358C37.7181 19.613 37.2251 19.7451 37.0025 20.1309L36.0482 21.7838C35.8254 22.1695 35.9576 22.6627 36.3433 22.8854Z" fill="#121B21"/>
<path d="M37.9371 24.4265C37.551 24.2039 37.058 24.3359 36.8354 24.7216L35.8811 26.3745C35.6585 26.7603 35.7906 27.2535 36.1762 27.4762C36.3033 27.5496 36.442 27.5844 36.5787 27.5844C36.8574 27.5844 37.1285 27.4398 37.2778 27.1811L38.2321 25.5282C38.4548 25.1424 38.3227 24.6493 37.9371 24.4265Z" fill="#121B21"/>
<path d="M38.2058 23.9607C38.3328 24.034 38.4715 24.0689 38.6082 24.0689C38.887 24.0689 39.158 23.9242 39.3074 23.6656L40.2617 22.0126C40.4843 21.6269 40.3522 21.1337 39.9665 20.911C39.5805 20.6882 39.0875 20.8203 38.8649 21.2061L37.9106 22.859C37.688 23.2448 37.8202 23.7379 38.2058 23.9607Z" fill="#121B21"/>
<path d="M38.6976 8.07476C38.8469 8.33345 39.118 8.47808 39.3968 8.47808C39.5336 8.47808 39.6723 8.44321 39.7992 8.36987C40.1849 8.14722 40.3171 7.65396 40.0943 7.26821L39.14 5.61528C38.9174 5.22944 38.4239 5.09741 38.0384 5.32016C37.6526 5.54282 37.5205 6.03608 37.7432 6.42182L38.6976 8.07476Z" fill="#121B21"/>
<path d="M41.17 9.1308C40.9475 8.74505 40.4539 8.61312 40.0684 8.83568C39.6826 9.05834 39.5505 9.5516 39.7733 9.93734L40.7276 11.5903C40.8769 11.849 41.148 11.9936 41.4267 11.9936C41.5635 11.9936 41.7023 11.9587 41.8291 11.8854C42.2149 11.6627 42.347 11.1695 42.1242 10.7837L41.17 9.1308Z" fill="#121B21"/>
<path d="M34.973 10.2251C35.1223 10.4838 35.3934 10.6285 35.6721 10.6285C35.809 10.6285 35.9477 10.5936 36.0746 10.5203C36.4603 10.2976 36.5925 9.80435 36.3697 9.4186L35.4154 7.76567C35.1928 7.37983 34.6994 7.2478 34.3137 7.47055C33.928 7.69321 33.7959 8.18647 34.0186 8.57221L34.973 10.2251Z" fill="#121B21"/>
<path d="M37.0026 13.7397C37.1519 13.9984 37.423 14.143 37.7017 14.143C37.8385 14.143 37.9773 14.1081 38.1041 14.0348C38.4899 13.8121 38.622 13.3189 38.3992 12.9331L37.4449 11.2802C37.2224 10.8945 36.7289 10.7625 36.3433 10.9851C35.9575 11.2077 35.8254 11.701 36.0482 12.0868L37.0026 13.7397Z" fill="#121B21"/>
<path d="M38.8651 12.6652C39.0144 12.9239 39.2855 13.0685 39.5642 13.0685C39.7011 13.0685 39.8398 13.0337 39.9666 12.9603C40.3524 12.7377 40.4845 12.2444 40.2617 11.8586L37.2779 6.69047C37.0553 6.30463 36.5617 6.1726 36.1763 6.39536C35.7906 6.61801 35.6584 7.11128 35.8812 7.49702L38.8651 12.6652Z" fill="#121B21"/>
<path d="M10.2726 22.2813C10.05 21.8954 9.55657 21.7635 9.17092 21.9861C8.78518 22.2088 8.65305 22.7021 8.8758 23.0878L11.8597 28.256C12.009 28.5147 12.2801 28.6593 12.5588 28.6593C12.6956 28.6593 12.8344 28.6244 12.9613 28.5511C13.347 28.3284 13.4791 27.8352 13.2564 27.4495L10.2726 22.2813Z" fill="#121B21"/>
<path d="M13.9974 20.1309C13.7749 19.7451 13.2814 19.613 12.8958 19.8358C12.51 20.0584 12.3779 20.5517 12.6007 20.9374L15.5845 26.1055C15.7339 26.3642 16.005 26.5088 16.2837 26.5088C16.4205 26.5088 16.5593 26.474 16.6861 26.4006C17.0719 26.178 17.204 25.6847 16.9812 25.299L13.9974 20.1309Z" fill="#121B21"/>
<path d="M14.1649 24.7216C13.9424 24.3358 13.4488 24.204 13.0633 24.4265C12.6775 24.6492 12.5454 25.1424 12.7681 25.5282L13.7224 27.1811C13.8718 27.4398 14.1428 27.5844 14.4216 27.5844C14.5584 27.5844 14.6971 27.5496 14.824 27.4762C15.2097 27.2536 15.3419 26.7603 15.1191 26.3746L14.1649 24.7216Z" fill="#121B21"/>
<path d="M11.0335 20.9109C10.6477 21.1336 10.5156 21.6268 10.7384 22.0126L11.6927 23.6655C11.842 23.9242 12.1131 24.0688 12.3918 24.0688C12.5286 24.0688 12.6674 24.034 12.7942 23.9606C13.18 23.738 13.3121 23.2447 13.0893 22.859L12.135 21.206C11.9125 20.8203 11.4189 20.6883 11.0335 20.9109Z" fill="#121B21"/>
</svg>
