<svg width="36" height="35" viewBox="0 0 36 35" fill="none" xmlns="http://www.w3.org/2000/svg">
<circle cx="17.854" cy="17.4927" r="17.4927" fill="#04BC8A"/>
<path d="M18.2408 20.3204C18.2408 22.1268 18.2408 23.0299 17.6739 23.3024C17.1071 23.5748 16.4019 23.0106 14.9914 21.8822L13.7145 20.8607C13.4432 20.6437 13.3076 20.5352 13.1469 20.4788C12.9862 20.4224 12.8125 20.4224 12.4651 20.4224H11.1074C10.1646 20.4224 9.69321 20.4224 9.40032 20.1295C9.10742 19.8366 9.10742 19.3652 9.10742 18.4224V16.3335C9.10742 15.3907 9.10742 14.9193 9.40032 14.6264C9.69321 14.3335 10.1646 14.3335 11.1074 14.3335H12.4651C12.8125 14.3335 12.9862 14.3335 13.1469 14.2772C13.3076 14.2208 13.4432 14.1123 13.7145 13.8953L14.9914 12.8738C16.4019 11.7454 17.1071 11.1812 17.6739 11.4536C18.2408 11.726 18.2408 12.6292 18.2408 14.4355V20.3204Z" fill="#FFFDFD"/>
<path d="M24.3343 24.553C26.2367 22.6499 27.3055 20.0692 27.3055 17.3782C27.3055 14.6873 26.2367 12.1065 24.3343 10.2035M20.752 20.9707C21.7032 20.0191 22.2376 18.7288 22.2376 17.3833C22.2376 16.0378 21.7032 14.7475 20.752 13.7959" stroke="white" stroke-linecap="round" stroke-linejoin="round"/>
</svg>
