<svg width="55" height="55" viewBox="0 0 55 55" fill="none" xmlns="http://www.w3.org/2000/svg">
<g clip-path="url(#clip0)" filter="url(#filter0_d)">
<path d="M36.1551 47.0305H18.8755C10.6599 47.0305 4 40.3706 4 32.155V14.8755C4 6.6599 10.6599 0 18.8755 0H36.1551C44.3707 0 51.0306 6.6599 51.0306 14.8755V32.155C51.0294 40.3706 44.3695 47.0305 36.1551 47.0305Z" fill="#29ABE2"/>
<path d="M33.5723 27.6535C34.3454 26.9767 35.5204 27.0566 36.1984 27.8298L39.4637 31.5651C40.1405 32.3383 40.0606 33.5133 39.2875 34.1901L37.0315 36.1641C35.8071 37.0982 34.7062 36.9689 34.6874 36.9666C34.2209 36.8796 33.2891 37.0488 32.6088 36.8338C29.9533 35.9925 26.1334 34.2946 21.7812 29.3173C17.429 24.34 16.0084 20.0395 15.3222 17.0609C15.1095 16.1338 15.3445 15.0634 15.2858 14.5006C15.2846 14.4818 15.2482 13.3914 16.1929 12.5642C16.2622 12.5031 16.3139 12.4502 16.3538 12.402L17.9178 11.0038L18.5664 10.4891C19.3395 9.81234 20.5157 9.89224 21.1913 10.6654L24.4566 14.4007C25.1334 15.1739 25.0547 16.35 24.2804 17.0268L21.4663 19.4861C22.5437 21.6211 23.707 23.5963 25.7068 25.8828C27.4505 27.8768 28.9205 29.0682 30.5937 30.2597L33.5723 27.6535Z" fill="#F1F2F2"/>
<path d="M37.1538 35.8538L36.8001 36.1629C35.5758 37.097 34.4748 36.9677 34.456 36.9654C33.9895 36.8784 33.0578 37.0476 32.3774 36.8326C29.7219 35.9913 25.9008 34.2934 21.5498 29.3161C17.1976 24.3388 15.777 20.0383 15.0908 17.0597C14.8781 16.1326 15.1131 15.0622 15.0544 14.4994C15.0544 14.4912 15.0473 14.2797 15.1167 13.9753C16.3739 26.3105 27.5811 33.1901 37.1538 35.8538Z" fill="#D5D5D6"/>
<path d="M20.2997 11.0166L22.2419 13.2339C21.3583 12.3432 19.1106 10.6912 16.2765 13.1739L18.8497 10.9203C19.2751 10.5478 19.9272 10.5913 20.2997 11.0166Z" fill="#D5D5D6"/>
<path d="M35.2726 28.3551L37.2148 30.5724C36.3312 29.6817 34.0835 28.0297 31.2494 30.5124L33.8226 28.2588C34.2468 27.8875 34.9001 27.931 35.2726 28.3551Z" fill="#D5D5D6"/>
</g>
<defs>
<filter id="filter0_d" x="0" y="0" width="55" height="55" filterUnits="userSpaceOnUse" color-interpolation-filters="sRGB">
<feFlood flood-opacity="0" result="BackgroundImageFix"/>
<feColorMatrix in="SourceAlpha" type="matrix" values="0 0 0 0 0 0 0 0 0 0 0 0 0 0 0 0 0 0 127 0"/>
<feOffset dy="4"/>
<feGaussianBlur stdDeviation="2"/>
<feColorMatrix type="matrix" values="0 0 0 0 0 0 0 0 0 0 0 0 0 0 0 0 0 0 0.25 0"/>
<feBlend mode="normal" in2="BackgroundImageFix" result="effect1_dropShadow"/>
<feBlend mode="normal" in="SourceGraphic" in2="effect1_dropShadow" result="shape"/>
</filter>
<clipPath id="clip0">
<rect width="47" height="47" fill="white" transform="translate(4)"/>
</clipPath>
</defs>
</svg>
