<svg width="23" height="4" viewBox="0 0 23 4" fill="none" xmlns="http://www.w3.org/2000/svg">
<path d="M2.83021 0C3.43821 0 3.92621 0.178295 4.29421 0.534884C4.67821 0.891473 4.87021 1.37209 4.87021 1.97674C4.87021 2.5814 4.67821 3.06977 4.29421 3.44186C3.92621 3.81395 3.43821 4 2.83021 4C2.22221 4 1.73421 3.81395 1.36621 3.44186C0.998209 3.06977 0.814209 2.5814 0.814209 1.97674C0.814209 1.37209 0.998209 0.891473 1.36621 0.534884C1.73421 0.178295 2.22221 0 2.83021 0Z" fill="#4F4F4F"/>
<path d="M11.488 0C12.096 0 12.584 0.178295 12.952 0.534884C13.336 0.891473 13.528 1.37209 13.528 1.97674C13.528 2.5814 13.336 3.06977 12.952 3.44186C12.584 3.81395 12.096 4 11.488 4C10.88 4 10.392 3.81395 10.024 3.44186C9.65602 3.06977 9.47202 2.5814 9.47202 1.97674C9.47202 1.37209 9.65602 0.891473 10.024 0.534884C10.392 0.178295 10.88 0 11.488 0Z" fill="#4F4F4F"/>
<path d="M20.1458 0C20.7538 0 21.2418 0.178295 21.6098 0.534884C21.9938 0.891473 22.1858 1.37209 22.1858 1.97674C22.1858 2.5814 21.9938 3.06977 21.6098 3.44186C21.2418 3.81395 20.7538 4 20.1458 4C19.5378 4 19.0498 3.81395 18.6818 3.44186C18.3138 3.06977 18.1298 2.5814 18.1298 1.97674C18.1298 1.37209 18.3138 0.891473 18.6818 0.534884C19.0498 0.178295 19.5378 0 20.1458 0Z" fill="#4F4F4F"/>
</svg>
