<svg width="54" height="54" viewBox="0 0 54 54" fill="none" xmlns="http://www.w3.org/2000/svg">
<circle r="27" transform="matrix(-1 0 0 1 27 27)" fill="#C4C4C4"/>
<path d="M6.0823 29.5926C6.1375 29.1126 6.23564 28.6342 6.37363 28.1681C6.47637 27.82 6.6711 27.5149 6.92717 27.2757C7.03603 26.8065 7.1725 26.3434 7.3381 25.888C7.53437 25.3468 8.00203 24.9512 8.5663 24.8454L9.1689 24.7319C9.39277 23.9438 9.6749 23.1817 10.0153 22.4457C10.9537 20.4248 12.3122 18.6553 14.0541 17.1848C14.7978 16.5577 15.6058 15.9919 16.466 15.4936L16.0014 14.2945C14.4788 14.1074 13.2154 12.9559 12.9148 11.4195C12.7308 10.478 12.924 9.52123 13.4592 8.72543C13.8042 8.21176 14.2657 7.80696 14.8024 7.53249C14.8852 7.48956 14.971 7.44969 15.0584 7.41443C15.0906 7.40063 15.1244 7.38836 15.1566 7.37609C15.1612 7.37456 15.1673 7.37149 15.1719 7.36996C15.3574 7.29943 15.5506 7.24423 15.75 7.20589C15.9784 7.16143 16.21 7.13843 16.4415 7.13843C18.1542 7.13843 19.6354 8.35896 19.9651 10.041C20.1384 10.9242 19.9697 11.7952 19.5526 12.5204L20.0832 13.8882C22.2314 13.1859 24.5774 12.8179 27.0215 12.8179C29.185 12.8179 31.2704 13.1062 33.2116 13.6582L33.5658 12.7458C33.1487 12.0221 32.98 11.1496 33.1533 10.2664C33.483 8.58436 34.9642 7.36383 36.6769 7.36383C36.9084 7.36383 37.14 7.38683 37.3684 7.43129C37.5969 7.47576 37.8146 7.54169 38.0232 7.62603C38.1443 7.67356 38.2608 7.72723 38.3728 7.79009C39.7267 8.51383 40.5133 10.0625 40.2036 11.6464C39.903 13.1844 38.6396 14.3344 37.117 14.5214L36.887 15.1133C38.0094 15.7006 39.049 16.3936 39.9889 17.1864C41.7308 18.6568 43.0893 20.4263 44.0277 22.4472C44.3804 23.2078 44.6702 23.9974 44.8971 24.8132L45.423 24.9113C45.9888 25.0171 46.455 25.4142 46.6512 25.954C46.7126 26.1226 46.7708 26.2944 46.8245 26.4661C47.2017 26.7206 47.493 27.1009 47.628 27.5563C47.7644 28.0209 47.8626 28.5008 47.9193 28.9808C48.0481 30.0863 47.9592 31.201 47.6571 32.2943C47.5298 32.7528 47.2477 33.1392 46.8751 33.3998C46.5516 34.5176 46.1115 35.4744 45.6914 36.2273C45.4276 36.7011 44.9446 37.0124 44.4034 37.0568L43.7011 37.1136C42.7826 38.9367 41.5253 40.5927 39.9613 42.0095C36.5082 45.1375 31.8622 46.8594 26.8774 46.8594C21.9048 46.8594 17.3063 45.1314 13.9253 41.9957C12.3858 40.5682 11.1546 38.8938 10.2591 37.0446L9.5875 36.9894C9.04624 36.9449 8.56324 36.6336 8.2995 36.1598C7.98824 35.6017 7.66623 34.9301 7.38717 34.165C6.88883 33.9166 6.5009 33.4658 6.34603 32.9046C6.04243 31.8113 5.9535 30.6966 6.0823 29.5926Z" fill="#29ABE2"/>
<path fill-rule="evenodd" clip-rule="evenodd" d="M44.9903 27.8113C45.2188 27.7914 45.4457 27.7714 45.6742 27.75C45.852 27.7346 46.0176 27.8435 46.0682 28.0152C46.1679 28.3526 46.2538 28.739 46.3028 29.1683C46.4301 30.2646 46.2706 31.1984 46.0882 31.8608C46.0391 32.0372 45.8704 32.1537 45.688 32.1353C45.4181 32.1092 45.1498 32.0832 44.8799 32.0556C44.9596 31.548 45.0225 30.9914 45.0547 30.3919C45.1068 29.4336 45.0685 28.5642 44.9903 27.8113Z" fill="#F5ECE6"/>
<path fill-rule="evenodd" clip-rule="evenodd" d="M9.00874 28.4241C8.78027 28.4042 8.55334 28.3842 8.32487 28.3628C8.147 28.3474 7.9814 28.4563 7.9308 28.628C7.83114 28.9654 7.74527 29.3518 7.6962 29.7811C7.56893 30.8774 7.7284 31.8112 7.91087 32.4736C7.95994 32.65 8.1286 32.7665 8.31107 32.7481C8.58094 32.722 8.84927 32.696 9.11914 32.6684C9.03941 32.1608 8.97654 31.6042 8.94434 31.0047C8.8922 30.0448 8.93054 29.1754 9.00874 28.4241Z" fill="#F5ECE6"/>
<path fill-rule="evenodd" clip-rule="evenodd" d="M10.9658 26.0491C10.2651 26.1809 9.56591 26.3113 8.86518 26.4431C8.62291 27.1117 8.40671 27.9167 8.30704 28.8397C7.98197 31.8481 9.09058 34.2432 9.71771 35.3717C10.2544 35.4162 10.7895 35.4591 11.3262 35.5036C11.2066 32.3511 11.087 29.2001 10.9658 26.0491Z" fill="url(#paint0_linear)"/>
<path fill-rule="evenodd" clip-rule="evenodd" d="M43.023 26.1167C43.7237 26.2486 44.4229 26.3789 45.1237 26.5108C45.3659 27.1793 45.5821 27.9843 45.6818 28.9074C46.0069 31.9158 44.8983 34.3108 44.2711 35.4394C43.7345 35.4838 43.1993 35.5268 42.6627 35.5712C42.7823 32.4172 42.9019 29.2662 43.023 26.1167Z" fill="url(#paint1_linear)"/>
<path d="M10.1666 29.3956C10.1666 38.7044 17.5665 45.2364 26.8754 45.2364C36.1842 45.2364 43.877 38.7044 43.877 29.3956C43.877 20.0867 36.3299 14.4456 27.021 14.4456C17.7122 14.4456 10.1666 20.0867 10.1666 29.3956Z" fill="#F5ECE6"/>
<path d="M27.0211 23.0919C26.4545 23.0919 25.9953 22.6326 25.9953 22.0661C25.9953 21.4995 26.4545 21.0403 27.0211 21.0403C27.5876 21.0403 28.0469 21.4995 28.0469 22.0661C28.0469 22.6326 27.5876 23.0919 27.0211 23.0919Z" fill="url(#paint2_linear)"/>
<path fill-rule="evenodd" clip-rule="evenodd" d="M26.3234 22.0656C26.3234 22.4505 26.6362 22.7633 27.0211 22.7633C27.4059 22.7633 27.7188 22.4505 27.7188 22.0656C27.7188 21.6807 27.4059 21.3679 27.0211 21.3679C26.6362 21.3695 26.3234 21.6807 26.3234 22.0656Z" fill="#68C0EC"/>
<path d="M26.6143 23.0541C26.6143 23.0541 26.5928 23.0434 26.5529 23.0265C26.5146 23.0081 26.4625 22.9805 26.4027 22.9437C26.3444 22.9054 26.2785 22.8579 26.2187 22.7981C26.188 22.7689 26.1604 22.7352 26.1328 22.7015C26.1098 22.6723 26.0745 22.6233 26.0577 22.5895C26.0347 22.5543 26.0147 22.5113 25.9994 22.4715C25.9841 22.4301 25.9687 22.3887 25.958 22.3473C25.9365 22.2645 25.9243 22.1847 25.9181 22.1142C25.9074 21.9731 25.9151 21.875 25.9151 21.875C25.9151 21.875 25.8629 21.9624 25.843 22.1127C25.8323 22.1878 25.8292 22.2767 25.8445 22.3718C25.8522 22.4193 25.8629 22.4684 25.8798 22.5159C25.8967 22.5635 25.9166 22.611 25.9442 22.6585C25.9733 22.7091 25.9979 22.7383 26.0331 22.7827C26.0653 22.8226 26.1037 22.8548 26.1405 22.8855C26.2156 22.9468 26.2969 22.9867 26.3674 23.0127C26.4379 23.0388 26.5008 23.0495 26.5437 23.0541C26.5897 23.0557 26.6143 23.0541 26.6143 23.0541Z" fill="white"/>
<path d="M20.8278 40.01C20.0213 39.7708 19.2286 39.4886 18.4527 39.1636C18.2595 39.0823 18.0663 38.9995 17.8746 38.9121C17.6845 38.8232 17.4913 38.7388 17.3042 38.6453C17.1141 38.5548 16.927 38.4598 16.7415 38.3632C16.5544 38.2696 16.3704 38.1654 16.1849 38.0672C16.0024 37.963 15.8184 37.8618 15.6375 37.7544C15.4566 37.6486 15.2772 37.5398 15.0993 37.4278C14.9199 37.319 14.7451 37.2009 14.5688 37.0874C14.3955 36.9694 14.2192 36.8544 14.049 36.7317C13.3605 36.2502 12.7012 35.7289 12.0679 35.18L12.0863 35.2122C11.9989 34.6341 11.9391 34.053 11.9115 33.4703C11.8977 33.179 11.8916 32.8876 11.8916 32.5948C11.8931 32.4491 11.8946 32.3034 11.8992 32.1578L11.9069 31.9416L11.9222 31.7223L11.9529 31.2838L11.9698 31.0645L11.9958 30.8483C12.0342 30.56 12.0587 30.2702 12.1154 29.9835L12.189 29.5526C12.212 29.4085 12.2504 29.2674 12.2795 29.1248L12.3746 28.6986L12.488 28.2769C12.5586 27.9948 12.649 27.7172 12.738 27.4397L12.8039 27.2312L12.879 27.0257L13.0278 26.6148C13.0784 26.4783 13.1366 26.3449 13.1903 26.21C13.247 26.075 13.2976 25.9386 13.359 25.8067C13.4786 25.5414 13.5966 25.2746 13.73 25.0155C13.8558 24.7533 13.9968 24.4972 14.1333 24.2412C14.2774 23.9882 14.4185 23.7336 14.5734 23.4868C14.7236 23.2368 14.8831 22.9946 15.0441 22.7508L15.291 22.3904L15.5455 22.0362L15.4719 22.0853C16.3045 21.889 17.1463 21.7265 17.9927 21.6008C18.4159 21.5379 18.8406 21.4827 19.2654 21.4382C19.48 21.4152 19.6932 21.3938 19.9048 21.3769C20.1164 21.357 20.331 21.3432 20.5442 21.3278C21.3982 21.2726 22.2523 21.2527 23.1079 21.268C23.962 21.2834 24.816 21.3355 25.667 21.4214L25.5137 21.1699C25.345 21.59 25.3113 22.0608 25.4263 22.5008L25.4386 22.5468L25.4493 22.5836C25.457 22.6097 25.4631 22.6312 25.4738 22.6588C25.4938 22.7155 25.5152 22.7707 25.5382 22.8213C25.5842 22.9256 25.6379 23.0252 25.6992 23.1203C25.8234 23.3104 25.9752 23.4806 26.1531 23.6232L26.3984 23.315C26.2543 23.2016 26.1255 23.062 26.0228 22.9072C25.9722 22.8305 25.9262 22.7477 25.8878 22.6634C25.8679 22.6204 25.8526 22.579 25.8372 22.5392C25.8296 22.5192 25.8219 22.4916 25.8142 22.4671L25.802 22.4303L25.7943 22.4012C25.6962 22.0439 25.7207 21.6514 25.8556 21.3048L25.9446 21.0748L25.7023 21.0534C24.8406 20.9767 23.9773 20.9338 23.1125 20.9261C22.2477 20.92 21.3844 20.9491 20.5227 21.0135C20.308 21.0319 20.0918 21.0472 19.8772 21.0702C19.661 21.0902 19.4463 21.1132 19.2347 21.1392C18.8054 21.1883 18.3776 21.2496 17.9513 21.3171C17.0988 21.4536 16.2524 21.6253 15.4152 21.8338L15.3676 21.8461L15.3416 21.8844L15.087 22.2463L14.8402 22.6128C14.6807 22.8596 14.5212 23.108 14.371 23.3626C14.2161 23.614 14.0766 23.8732 13.934 24.1308C13.7975 24.3914 13.658 24.6521 13.5338 24.9189C13.4019 25.1826 13.2869 25.454 13.1673 25.7224C13.106 25.8558 13.0554 25.9953 13.0002 26.1318C12.9465 26.2698 12.8898 26.4047 12.8392 26.5427L12.692 26.9598L12.6184 27.1683L12.554 27.3799C12.4666 27.662 12.3792 27.9426 12.3102 28.2294L12.1998 28.6572L12.1093 29.0896C12.0817 29.2337 12.0434 29.3763 12.0234 29.522L11.9529 29.9574C11.8992 30.2472 11.8762 30.5416 11.841 30.8345L11.8164 31.0538L11.8026 31.273L11.7766 31.7116L11.7628 31.9308L11.7566 32.1532C11.7536 32.3004 11.7536 32.4476 11.7536 32.5948C11.7551 32.8892 11.7643 33.1836 11.7827 33.4764C11.818 34.0637 11.8839 34.6479 11.9774 35.229L11.9805 35.249L11.9958 35.2612C12.6383 35.8071 13.3053 36.3238 14.0014 36.7992C14.1747 36.9203 14.351 37.0338 14.5274 37.1503C14.7052 37.2622 14.8816 37.3788 15.0625 37.4861C15.2419 37.5965 15.4228 37.7038 15.6053 37.8081C15.7878 37.9139 15.9733 38.0136 16.1573 38.1163C16.3444 38.2129 16.5284 38.3156 16.717 38.4076C16.904 38.5027 17.0942 38.5962 17.2843 38.6836C17.4744 38.7756 17.6676 38.8584 17.8593 38.9458C18.0525 39.0317 18.2457 39.113 18.4404 39.1912C19.2209 39.5055 20.0182 39.7784 20.8278 40.01Z" fill="#D4C6BD"/>
<path d="M11.7198 33.3968C11.7198 33.3968 11.7152 33.2082 11.7167 32.877C11.7167 32.5458 11.7321 32.0735 11.775 31.5092C11.7949 31.2286 11.8363 30.922 11.8701 30.6C11.8915 30.439 11.9191 30.2749 11.9452 30.1078C11.9575 30.0234 11.9713 29.9391 11.9835 29.8532C11.9989 29.7674 12.0157 29.6815 12.0326 29.5956C12.0663 29.4224 12.097 29.2445 12.1353 29.0666C12.1767 28.8888 12.2181 28.7109 12.2611 28.53C12.304 28.349 12.3577 28.1696 12.4067 27.9887C12.4543 27.8062 12.5125 27.6284 12.5693 27.4474C12.6245 27.2665 12.6797 27.0871 12.7441 26.9108C12.8069 26.7344 12.8637 26.555 12.9327 26.3833C13.0001 26.21 13.0645 26.0383 13.1335 25.8696C13.2056 25.7025 13.2761 25.5369 13.3451 25.3744C13.4939 25.0539 13.6334 24.7411 13.7806 24.4528C13.8511 24.3072 13.9247 24.1676 13.9968 24.0327C14.0689 23.8978 14.1363 23.7659 14.2069 23.6448C14.2759 23.5206 14.3433 23.4025 14.4062 23.2906C14.4721 23.1786 14.5335 23.0728 14.5917 22.9747C14.7067 22.7754 14.8171 22.6067 14.903 22.4656C15.0809 22.1866 15.1836 22.0271 15.1836 22.0271C15.1836 22.0271 15.156 22.0654 15.1039 22.1375C15.0533 22.2096 14.9751 22.3138 14.8815 22.4503C14.7895 22.5883 14.673 22.7524 14.5503 22.9471C14.4875 23.0437 14.4215 23.148 14.3525 23.2568C14.2866 23.3688 14.2161 23.4853 14.144 23.6064C14.0704 23.7276 13.9983 23.8579 13.9247 23.9913C13.8496 24.1247 13.7714 24.2627 13.6978 24.4084C13.5429 24.6951 13.3942 25.0048 13.2439 25.3284C13.1734 25.4909 13.1013 25.6565 13.0277 25.8252C12.9572 25.9938 12.8913 26.1671 12.8207 26.3404C12.7487 26.5121 12.6919 26.693 12.626 26.8694C12.5601 27.0472 12.5018 27.2266 12.4466 27.4091C12.3899 27.59 12.3331 27.771 12.2871 27.955C12.2396 28.1374 12.1859 28.3184 12.1445 28.5008C12.1031 28.6833 12.0633 28.8642 12.0234 29.0421C11.9851 29.2215 11.9559 29.3994 11.9237 29.5742C11.9084 29.6616 11.8931 29.749 11.8777 29.8348C11.8655 29.9222 11.8547 30.0081 11.8425 30.0924C11.821 30.2626 11.7965 30.4282 11.7796 30.5908C11.7535 30.9158 11.7198 31.2194 11.706 31.5046C11.6753 32.072 11.6861 32.5473 11.6953 32.877C11.7045 33.2082 11.7198 33.3968 11.7198 33.3968Z" fill="white"/>
<path d="M15.5652 22.0669C15.5652 22.0669 15.717 22.0408 15.9838 21.9948C16.2506 21.9473 16.6324 21.8875 17.0908 21.817C17.3208 21.7817 17.5692 21.7464 17.8314 21.7127C18.0952 21.6805 18.3727 21.6483 18.661 21.613C18.9492 21.5793 19.2452 21.5486 19.5488 21.5226C19.8508 21.495 20.159 21.4704 20.4672 21.452C20.7754 21.429 21.0836 21.4106 21.3872 21.3968C21.6908 21.3815 21.9898 21.3723 22.2796 21.3662C22.5694 21.36 22.8485 21.3539 23.1153 21.3524C23.3806 21.3493 23.632 21.3508 23.8636 21.3539C24.3266 21.36 24.7146 21.3677 24.9844 21.3769C25.2558 21.3861 25.4092 21.3907 25.4092 21.3907C25.4092 21.3907 25.2543 21.3769 24.986 21.3508C24.7161 21.3309 24.3297 21.2972 23.8651 21.2803C23.6336 21.2711 23.3821 21.2619 23.1153 21.2573C22.8485 21.2512 22.5679 21.2481 22.2781 21.2527C21.9883 21.2558 21.6878 21.2634 21.3826 21.2757C21.0775 21.2864 20.7678 21.3018 20.4596 21.3232C20.1498 21.3462 19.8416 21.3723 19.538 21.403C19.2344 21.4321 18.9354 21.4674 18.6472 21.5026C18.0706 21.5732 17.5355 21.6652 17.0786 21.7464C16.6216 21.8277 16.2429 21.9136 15.9792 21.9718C15.7154 22.0301 15.5652 22.0669 15.5652 22.0669Z" fill="white"/>
<path d="M33.2154 40.0096C34.025 39.7781 34.8208 39.5051 35.6012 39.1877C35.796 39.108 35.9907 39.0267 36.1824 38.9424C36.374 38.8565 36.5672 38.7722 36.7574 38.6802C36.949 38.5913 37.1376 38.4993 37.3247 38.4042C37.5133 38.3122 37.6988 38.2095 37.8844 38.1129C38.0684 38.0117 38.2539 37.912 38.4364 37.8047C38.6188 37.7004 38.8013 37.5931 38.9792 37.4827C39.1601 37.3753 39.3364 37.2588 39.5143 37.1469C39.6906 37.0303 39.867 36.9169 40.0402 36.7957C40.7364 36.3204 41.4034 35.8037 42.0458 35.2578L42.0612 35.2455L42.0642 35.2256C42.1593 34.646 42.2252 34.0603 42.259 33.473C42.2758 33.1801 42.2866 32.8857 42.2881 32.5913C42.2881 32.4441 42.2881 32.2969 42.285 32.1497L42.2789 31.9274L42.2651 31.7081L42.239 31.2696L42.2252 31.0503L42.2007 30.8311C42.1654 30.5382 42.1424 30.2438 42.0888 29.954L42.0182 29.5185C41.9968 29.3729 41.96 29.2303 41.9324 29.0861L41.8419 28.6537L41.7315 28.2259C41.6625 27.9392 41.5736 27.6586 41.4877 27.3765L41.4233 27.1649L41.3497 26.9563L41.2025 26.5393C41.1519 26.4013 41.0952 26.2648 41.0415 26.1283C40.9863 25.9919 40.9357 25.8539 40.8744 25.7189C40.7563 25.4491 40.6398 25.1777 40.5079 24.9155C40.3837 24.6487 40.2442 24.3895 40.1077 24.1273C39.9636 23.8697 39.824 23.6106 39.6707 23.3591C39.522 23.1046 39.3625 22.8577 39.2015 22.6093L38.9546 22.2429L38.7001 21.881L38.674 21.8427L38.6265 21.8304C37.7893 21.6234 36.9414 21.4517 36.0904 21.3137C35.6641 21.2447 35.2363 21.1849 34.807 21.1358C34.5938 21.1113 34.3792 21.0867 34.1645 21.0668C33.9483 21.0438 33.7336 21.0285 33.519 21.0101C32.6572 20.9457 31.794 20.9165 30.9292 20.9227C30.0644 20.9303 29.2011 20.9717 28.3394 21.0499L28.0971 21.0714L28.186 21.3014C28.321 21.6479 28.3455 22.042 28.2474 22.3977L28.2397 22.4269L28.2274 22.4637C28.2198 22.4867 28.2121 22.5143 28.2044 22.5357C28.1891 22.5756 28.1738 22.617 28.1538 22.6599C28.1155 22.7443 28.071 22.8255 28.0189 22.9037C27.9162 23.0586 27.7889 23.1981 27.6432 23.3116L27.8886 23.6198C28.0664 23.4757 28.2182 23.307 28.3424 23.1169C28.4038 23.0218 28.4574 22.9221 28.5034 22.8179C28.5264 22.7673 28.5479 22.7121 28.5678 22.6553C28.5786 22.6277 28.5832 22.6047 28.5924 22.5802L28.6031 22.5434L28.6154 22.4974C28.7304 22.0573 28.6966 21.5866 28.528 21.1665L28.3746 21.4179C29.2241 21.3321 30.0782 21.2815 30.9338 21.2646C31.7878 21.2493 32.6434 21.2692 33.4975 21.3244C33.7106 21.3397 33.9238 21.3535 34.1369 21.3735C34.3485 21.3903 34.5616 21.4118 34.7763 21.4348C35.201 21.4793 35.6258 21.5345 36.049 21.5973C36.8954 21.7246 37.7356 21.8856 38.5698 22.0819L38.4962 22.0328L38.7507 22.387L38.9976 22.7473C39.1586 22.9896 39.318 23.2334 39.4683 23.4833C39.6232 23.7302 39.7642 23.9847 39.9084 24.2377C40.0464 24.4938 40.1859 24.7499 40.3116 25.0121C40.445 25.2712 40.5616 25.538 40.6827 25.8033C40.7456 25.9351 40.7962 26.0716 40.8514 26.2065C40.905 26.3415 40.9633 26.4749 41.0139 26.6113L41.1626 27.0223L41.2378 27.2277L41.3037 27.4363C41.3926 27.7138 41.4831 27.9913 41.5536 28.2735L41.6671 28.6951L41.7622 29.1214C41.7913 29.264 41.8296 29.4051 41.8526 29.5492L41.9262 29.9801C41.983 30.2668 42.0075 30.5566 42.0458 30.8449L42.0719 31.0611L42.0888 31.2803L42.1194 31.7189L42.1348 31.9381L42.1424 32.1543C42.147 32.3 42.1486 32.4457 42.1501 32.5913C42.1516 32.8827 42.1455 33.1755 42.1302 33.4669C42.1026 34.0495 42.0428 34.6307 41.9554 35.2087L41.9738 35.1765C41.3405 35.727 40.6812 36.2483 39.9927 36.7283C39.8225 36.8509 39.6462 36.9659 39.4729 37.084C39.2966 37.1975 39.1218 37.3155 38.9424 37.4244C38.7645 37.5363 38.5851 37.6452 38.4042 37.751C38.2232 37.8583 38.0392 37.9595 37.8568 38.0638C37.6712 38.1619 37.4888 38.2662 37.3002 38.3597C37.1146 38.4563 36.926 38.5514 36.7374 38.6419C36.5504 38.7354 36.3572 38.8213 36.167 38.9087C35.9754 38.9961 35.7837 39.0789 35.589 39.1601C34.8146 39.4883 34.0219 39.7689 33.2154 40.0096Z" fill="#D4C6BD"/>
<path d="M42.3236 33.3968C42.3236 33.3968 42.3389 33.2082 42.3512 32.877C42.3619 32.5458 42.3711 32.072 42.3404 31.5046C42.3266 31.2179 42.2929 30.9143 42.2668 30.5908C42.2484 30.4282 42.2254 30.2626 42.204 30.0924C42.1932 30.0081 42.181 29.9222 42.1687 29.8348C42.1534 29.749 42.138 29.6616 42.1227 29.5742C42.089 29.3994 42.0614 29.22 42.023 29.0421C41.9832 28.8627 41.9418 28.6833 41.9019 28.5008C41.8605 28.3184 41.8068 28.1374 41.7593 27.955C41.7133 27.771 41.6566 27.59 41.5998 27.4091C41.5431 27.2282 41.4864 27.0472 41.4204 26.8694C41.3545 26.6915 41.2978 26.5121 41.2257 26.3404C41.1567 26.1671 41.0908 25.9938 41.0187 25.8252C40.9451 25.658 40.873 25.4909 40.8025 25.3284C40.6538 25.0048 40.5035 24.6966 40.3486 24.4084C40.275 24.2627 40.1968 24.1247 40.1217 23.9913C40.0466 23.8579 39.976 23.7276 39.9024 23.6064C39.8288 23.4838 39.7598 23.3672 39.6939 23.2568C39.6234 23.148 39.5574 23.0437 39.4961 22.9471C39.3734 22.7524 39.2554 22.5883 39.1649 22.4503C39.0714 22.3138 38.9932 22.2096 38.9426 22.1375C38.8904 22.0654 38.8628 22.0271 38.8628 22.0271C38.8628 22.0271 38.9656 22.1866 39.1434 22.4656C39.2293 22.6067 39.3397 22.7754 39.4547 22.9747C39.513 23.0744 39.5743 23.1802 39.6402 23.2906C39.7031 23.4025 39.7706 23.5221 39.8396 23.6448C39.9101 23.7674 39.9776 23.8978 40.0496 24.0327C40.1217 24.1676 40.1953 24.3072 40.2658 24.4528C40.413 24.7426 40.5526 25.0539 40.7013 25.3744C40.7703 25.5369 40.8408 25.7025 40.9129 25.8696C40.9819 26.0383 41.0463 26.21 41.1138 26.3833C41.1843 26.555 41.2395 26.7344 41.3024 26.9108C41.3668 27.0871 41.422 27.268 41.4772 27.4474C41.5339 27.6268 41.5922 27.8062 41.6397 27.9887C41.6872 28.1696 41.7424 28.349 41.7854 28.53C41.8268 28.7109 41.8697 28.8903 41.9111 29.0666C41.9494 29.2445 41.9801 29.4208 42.0138 29.5956C42.0307 29.683 42.046 29.7689 42.0629 29.8532C42.0752 29.9391 42.089 30.0234 42.1012 30.1078C42.1273 30.2764 42.1549 30.439 42.1764 30.6C42.2101 30.9235 42.2515 31.2286 42.2714 31.5092C42.3144 32.0735 42.3297 32.5458 42.3297 32.877C42.3282 33.2066 42.3236 33.3968 42.3236 33.3968Z" fill="white"/>
<path d="M38.4775 22.0663C38.4775 22.0663 38.3273 22.0279 38.0635 21.9681C37.7983 21.9099 37.4211 21.8255 36.9641 21.7427C36.5072 21.6615 35.9721 21.5695 35.3955 21.4989C35.1073 21.4621 34.8083 21.4284 34.5047 21.3993C34.2011 21.3686 33.8929 21.3425 33.5831 21.3195C33.2734 21.2996 32.9637 21.2843 32.6601 21.272C32.3549 21.2597 32.0544 21.2521 31.7646 21.249C31.4748 21.2429 31.1927 21.2475 30.9274 21.2536C30.6606 21.2582 30.4091 21.2674 30.1776 21.2766C29.713 21.2935 29.3266 21.3287 29.0567 21.3471C28.7869 21.3717 28.6335 21.387 28.6335 21.387C28.6335 21.387 28.7884 21.3824 29.0583 21.3732C29.3281 21.364 29.7161 21.3563 30.1791 21.3502C30.4107 21.3487 30.6621 21.3471 30.9274 21.3487C31.1927 21.3502 31.4733 21.3563 31.7631 21.3625C32.0529 21.3686 32.3519 21.3793 32.6555 21.3931C32.9591 21.4069 33.2673 21.4253 33.5755 21.4483C33.8837 21.4683 34.1919 21.4913 34.4939 21.5189C34.7975 21.5449 35.0935 21.5771 35.3817 21.6093C35.67 21.6446 35.9475 21.6768 36.2113 21.709C36.475 21.7427 36.7234 21.778 36.9519 21.8133C37.4103 21.8838 37.7921 21.9436 38.0589 21.9911C38.3242 22.0402 38.4775 22.0663 38.4775 22.0663Z" fill="white"/>
<path fill-rule="evenodd" clip-rule="evenodd" d="M33.9179 18.1653C35.2841 18.7771 36.5859 19.8872 36.4203 20.2338C36.3912 20.2936 36.2501 20.4714 34.7382 20.1402C32.3861 19.6266 29.094 18.4045 29.2382 17.8142C29.3578 17.322 31.8586 17.2438 33.9179 18.1653Z" fill="#D4C6BD"/>
<path fill-rule="evenodd" clip-rule="evenodd" d="M33.8169 18.5653C34.8442 19.0253 35.8225 19.8594 35.6983 20.1201C35.6768 20.1661 35.571 20.298 34.4348 20.0496C32.6669 19.6632 30.1921 18.7447 30.301 18.3016C30.3884 17.932 32.2698 17.8738 33.8169 18.5653Z" fill="url(#paint3_linear)"/>
<path fill-rule="evenodd" clip-rule="evenodd" d="M19.1936 18.0558C17.8274 18.6676 16.5256 19.7777 16.6912 20.1242C16.7204 20.184 16.8614 20.3619 18.3733 20.0307C20.7254 19.517 24.0175 18.295 23.8734 17.7046C23.7538 17.214 21.2514 17.1358 19.1936 18.0558Z" fill="#D4C6BD"/>
<path fill-rule="evenodd" clip-rule="evenodd" d="M19.2941 18.4571C18.2667 18.9171 17.2885 19.7513 17.4127 20.0119C17.4341 20.0579 17.5399 20.1898 18.6761 19.9414C20.4441 19.555 22.9189 18.6365 22.81 18.1934C22.7211 17.8239 20.8412 17.7656 19.2941 18.4571Z" fill="url(#paint4_linear)"/>
<path d="M20.2852 18.9088L19.632 19.1618L16.6466 11.4644L17.3013 11.2114L20.2852 18.9088Z" fill="url(#paint5_linear)"/>
<path d="M16.4395 12.6968C15.3539 12.6968 14.4738 11.8168 14.4738 10.7311C14.4738 9.64547 15.3539 8.76538 16.4395 8.76538C17.5252 8.76538 18.4053 9.64547 18.4053 10.7311C18.4053 11.8168 17.5252 12.6968 16.4395 12.6968Z" fill="#F5ECE6"/>
<path d="M16.1769 11.5041C15.4359 11.5041 14.8352 10.9034 14.8352 10.1625C14.8352 9.42149 15.4359 8.8208 16.1769 8.8208C16.9179 8.8208 17.5186 9.42149 17.5186 10.1625C17.5186 10.9034 16.9179 11.5041 16.1769 11.5041Z" fill="#FCF6F0"/>
<path d="M16.3371 10.3756C15.8561 10.3756 15.4661 10.0275 15.4661 9.5982C15.4661 9.16885 15.8561 8.8208 16.3371 8.8208C16.8181 8.8208 17.208 9.16885 17.208 9.5982C17.208 10.0275 16.8181 10.3756 16.3371 10.3756Z" fill="white"/>
<path d="M32.8321 19.1346L33.4853 19.3876L36.4707 11.6903L35.816 11.4373L32.8321 19.1346Z" fill="url(#paint6_linear)"/>
<path d="M36.6778 12.9219C35.5922 12.9219 34.7121 12.0419 34.7121 10.9562C34.7121 9.87057 35.5922 8.99048 36.6778 8.99048C37.7635 8.99048 38.6436 9.87057 38.6436 10.9562C38.6436 12.0419 37.7635 12.9219 36.6778 12.9219Z" fill="#F5ECE6"/>
<path d="M36.9415 11.7305C36.2006 11.7305 35.5999 11.1298 35.5999 10.3888C35.5999 9.6478 36.2006 9.04712 36.9415 9.04712C37.6825 9.04712 38.2832 9.6478 38.2832 10.3888C38.2832 11.1298 37.6825 11.7305 36.9415 11.7305Z" fill="#FCF6F0"/>
<path d="M36.7804 10.6019C36.2994 10.6019 35.9095 10.2539 35.9095 9.82452C35.9095 9.39517 36.2994 9.04712 36.7804 9.04712C37.2614 9.04712 37.6514 9.39517 37.6514 9.82452C37.6514 10.2539 37.2614 10.6019 36.7804 10.6019Z" fill="white"/>
<path fill-rule="evenodd" clip-rule="evenodd" d="M13.1937 28.8735C13.4068 27.5411 13.7396 26.1411 14.5369 25.0264C15.3864 23.8365 16.5839 23.2937 18.013 23.1879C19.7073 23.0622 21.4016 23.2753 23.096 23.4317C23.4088 24.5143 25.0448 25.3392 27.0213 25.3392C28.9134 25.3392 30.4943 24.5833 30.9006 23.5682C33.1148 23.3505 36.2305 23.2002 38.2024 24.1371C38.2882 24.1785 38.3726 24.2245 38.4538 24.2766C39.679 25.0678 40.3521 27.101 40.691 28.4059C41.1663 30.2305 41.4132 32.3174 41.154 34.1973C40.9286 35.8334 39.3064 36.7089 37.957 37.5691C35.0023 39.452 31.5707 40.5882 28.0716 40.8014C23.2922 41.0912 18.4254 39.6544 14.5706 36.8132C11.9088 34.852 12.7306 31.7792 13.1937 28.8735Z" fill="url(#paint7_linear)"/>
<path fill-rule="evenodd" clip-rule="evenodd" d="M13.8986 29.0331C14.0995 27.7696 14.4169 26.4402 15.1728 25.3822C15.9793 24.2537 17.1155 23.7385 18.471 23.6373C20.0779 23.5177 21.6864 23.7201 23.2933 23.8688C23.5908 24.8962 25.1425 25.6797 27.0178 25.6797C28.8133 25.6797 30.3129 24.9621 30.6993 24.0007C32.8 23.7937 35.7563 23.6511 37.6269 24.5404C37.7082 24.5788 37.7879 24.6232 37.8646 24.6738C39.0269 25.4236 39.6647 27.3541 39.9883 28.5915C40.4391 30.3226 40.6737 32.3022 40.4283 34.087C40.2152 35.6387 38.6757 36.4698 37.3954 37.2855C34.5925 39.0718 31.3357 40.1498 28.016 40.3522C23.4804 40.6282 18.8635 39.2635 15.2065 36.5694C12.6811 34.7064 13.4601 31.79 13.8986 29.0331Z" fill="#051F28"/>
<path fill-rule="evenodd" clip-rule="evenodd" d="M23.9037 41.813C23.896 41.9449 23.8884 42.0752 23.8807 42.2071C24.0877 42.3267 24.3192 42.4447 24.5753 42.5536C25.1856 42.8143 25.7529 42.9477 26.219 43.0167C26.2344 43.1562 26.2497 43.2942 26.265 43.4337C26.4414 43.5043 26.6499 43.5717 26.8906 43.6193C27.4396 43.7266 27.9118 43.6806 28.2323 43.6193C28.2706 43.4567 28.309 43.2957 28.3473 43.1332C28.6601 43.1378 29.0097 43.1255 29.3884 43.0872C29.7166 43.0535 30.0186 43.0044 30.2916 42.9477C30.3452 42.7085 30.3989 42.4693 30.4541 42.2301C29.781 42.25 29.0787 42.2515 28.3488 42.2301C26.7327 42.1825 25.2454 42.0261 23.9037 41.813Z" fill="#D6C9C1"/>
<path fill-rule="evenodd" clip-rule="evenodd" d="M23.6722 41.5584C24.2717 41.6688 24.9295 41.7531 25.6395 41.7899C27.9103 41.908 29.8362 41.4986 31.2407 41.0493C31.2545 41.2241 31.2545 41.5093 31.1487 41.8359C31.0015 42.2821 30.7332 42.5642 30.5937 42.6915C29.8316 42.8632 28.7629 43.0166 27.4917 42.9231C25.8112 42.7989 24.5033 42.2929 23.6967 41.9049C23.6875 41.7899 23.6799 41.6749 23.6722 41.5584Z" fill="url(#paint8_linear)"/>
<path fill-rule="evenodd" clip-rule="evenodd" d="M25.0829 41.8361C25.7223 42.0308 26.6177 42.2301 27.6957 42.2455C28.9959 42.2639 30.0555 42.0078 30.7577 41.7778C30.7838 41.6091 30.8099 41.4405 30.8359 41.2703C30.2011 41.4466 29.4835 41.6061 28.6908 41.7195C27.3139 41.9143 26.0872 41.9112 25.0829 41.8361Z" fill="#CDE8FF"/>
<path d="M21.4228 36.2877C20.2567 36.2877 19.3114 34.2721 19.3114 31.7858C19.3114 29.2995 20.2567 27.2839 21.4228 27.2839C22.5889 27.2839 23.5342 29.2995 23.5342 31.7858C23.5342 34.2721 22.5889 36.2877 21.4228 36.2877Z" fill="url(#paint9_linear)"/>
<path d="M21.395 30.4415C20.8208 30.4415 20.3554 29.9761 20.3554 29.4019C20.3554 28.8278 20.8208 28.3623 21.395 28.3623C21.9691 28.3623 22.4346 28.8278 22.4346 29.4019C22.4346 29.9761 21.9691 30.4415 21.395 30.4415Z" fill="white"/>
<path d="M23.0863 31.9536H22.4024C22.4024 31.9536 22.3472 34.2183 21.5989 34.3579C20.8507 34.4974 20.5149 32.1499 20.5149 32.1499L19.7037 32.2051C19.7037 32.2051 19.6761 35.9786 21.4226 35.951C23.1706 35.9234 23.0863 31.9536 23.0863 31.9536Z" fill="#54FCFF"/>
<path d="M33.4999 36.2877C32.3338 36.2877 31.3885 34.2721 31.3885 31.7858C31.3885 29.2995 32.3338 27.2839 33.4999 27.2839C34.666 27.2839 35.6113 29.2995 35.6113 31.7858C35.6113 34.2721 34.666 36.2877 33.4999 36.2877Z" fill="url(#paint10_linear)"/>
<path d="M33.5551 30.0797C32.981 30.0797 32.5155 29.6142 32.5155 29.0401C32.5155 28.4659 32.981 28.0005 33.5551 28.0005C34.1293 28.0005 34.5947 28.4659 34.5947 29.0401C34.5947 29.6142 34.1293 30.0797 33.5551 30.0797Z" fill="white"/>
<path d="M31.8381 31.9536H32.522C32.522 31.9536 32.5772 34.2183 33.3255 34.3579C34.0737 34.4974 34.4095 32.1499 34.4095 32.1499L35.2207 32.2051C35.2207 32.2051 35.2483 35.9786 33.5018 35.951C31.7538 35.9234 31.8381 31.9536 31.8381 31.9536Z" fill="#54FCFF"/>
<defs>
<linearGradient id="paint0_linear" x1="7.99225" y1="30.8973" x2="11.947" y2="30.7452" gradientUnits="userSpaceOnUse">
<stop stop-color="#6DCCF2"/>
<stop offset="1" stop-color="#08529C"/>
</linearGradient>
<linearGradient id="paint1_linear" x1="45.7391" y1="30.8422" x2="42.6612" y2="30.8422" gradientUnits="userSpaceOnUse">
<stop stop-color="#6DCCF2"/>
<stop offset="1" stop-color="#08529C"/>
</linearGradient>
<linearGradient id="paint2_linear" x1="28.0471" y1="22.0667" x2="25.9959" y2="22.0667" gradientUnits="userSpaceOnUse">
<stop stop-color="#6DCCF2"/>
<stop offset="1" stop-color="#08529C"/>
</linearGradient>
<linearGradient id="paint3_linear" x1="35.7079" y1="19.1143" x2="30.2957" y2="19.1143" gradientUnits="userSpaceOnUse">
<stop stop-color="#6DCCF2"/>
<stop offset="1" stop-color="#08529C"/>
</linearGradient>
<linearGradient id="paint4_linear" x1="22.8147" y1="19.0057" x2="17.4025" y2="19.0057" gradientUnits="userSpaceOnUse">
<stop stop-color="#6DCCF2"/>
<stop offset="1" stop-color="#08529C"/>
</linearGradient>
<linearGradient id="paint5_linear" x1="20.2858" y1="15.1868" x2="16.647" y2="15.1868" gradientUnits="userSpaceOnUse">
<stop stop-color="#6DCCF2"/>
<stop offset="1" stop-color="#08529C"/>
</linearGradient>
<linearGradient id="paint6_linear" x1="32.8318" y1="15.4123" x2="36.4706" y2="15.4123" gradientUnits="userSpaceOnUse">
<stop stop-color="#6DCCF2"/>
<stop offset="1" stop-color="#08529C"/>
</linearGradient>
<linearGradient id="paint7_linear" x1="30.8958" y1="22.0004" x2="23.4042" y2="40.4581" gradientUnits="userSpaceOnUse">
<stop stop-color="#6DCCF2"/>
<stop offset="1" stop-color="#08529C"/>
</linearGradient>
<linearGradient id="paint8_linear" x1="27.4591" y1="41.0667" x2="27.4591" y2="43.0392" gradientUnits="userSpaceOnUse">
<stop stop-color="#6DCEF5"/>
<stop offset="1" stop-color="#034EA1"/>
</linearGradient>
<linearGradient id="paint9_linear" x1="23.5343" y1="31.7855" x2="19.3126" y2="31.7855" gradientUnits="userSpaceOnUse">
<stop stop-color="#6DCCF2"/>
<stop offset="1" stop-color="#08529C"/>
</linearGradient>
<linearGradient id="paint10_linear" x1="35.6114" y1="31.7855" x2="31.3898" y2="31.7855" gradientUnits="userSpaceOnUse">
<stop stop-color="#6DCCF2"/>
<stop offset="1" stop-color="#08529C"/>
</linearGradient>
</defs>
</svg>
