<svg width="23" height="23" viewBox="0 0 23 23" fill="none" xmlns="http://www.w3.org/2000/svg">
<path d="M22.2819 10.4847L17.8686 6.07142C17.7599 5.96274 17.6309 5.87654 17.4889 5.81772C17.3469 5.75891 17.1947 5.72864 17.041 5.72864C16.8873 5.72864 16.7352 5.75891 16.5932 5.81772C16.4512 5.87654 16.3222 5.96274 16.2135 6.07142C15.9941 6.29089 15.8708 6.58854 15.8708 6.89891C15.8708 7.20928 15.9941 7.50694 16.2135 7.72641L18.6291 10.142H5.85092C5.54055 10.142 5.24289 10.2653 5.02342 10.4847C4.80396 10.7042 4.68066 11.0019 4.68066 11.3122C4.68066 11.6226 4.80396 11.9203 5.02342 12.1397C5.24289 12.3592 5.54055 12.4825 5.85092 12.4825H18.6291L16.2135 14.898C15.994 15.1175 15.8708 15.4152 15.8708 15.7256C15.8708 16.0359 15.9941 16.3336 16.2135 16.5531C16.433 16.7725 16.7307 16.8958 17.041 16.8958C17.3514 16.8958 17.6491 16.7725 17.8686 16.553L22.2819 12.1397C22.5014 11.9202 22.6246 11.6226 22.6246 11.3122C22.6246 11.0018 22.5014 10.7042 22.2819 10.4847Z" fill="white"/>
<path d="M13.653 17.944C13.3426 17.944 13.045 18.0673 12.8255 18.2867C12.6061 18.5062 12.4828 18.8039 12.4828 19.1142V20.2845H2.34052V2.34052H12.4828V3.51078C12.4828 3.82115 12.6061 4.11881 12.8255 4.33827C13.045 4.55774 13.3426 4.68103 13.653 4.68103C13.9634 4.68103 14.261 4.55774 14.4805 4.33827C14.7 4.11881 14.8233 3.82115 14.8233 3.51078V1.95043C14.8233 1.6943 14.7728 1.44067 14.6748 1.20403C14.5768 0.967396 14.4331 0.752382 14.252 0.571268C14.0709 0.390154 13.8559 0.246486 13.6192 0.148468C13.3826 0.0504494 13.129 0 12.8728 0H1.95043C1.43314 0 0.937045 0.205491 0.571268 0.571268C0.205491 0.937045 0 1.43314 0 1.95043V20.6746C0 21.1919 0.205491 21.688 0.571268 22.0537C0.937045 22.4195 1.43314 22.625 1.95043 22.625H12.8728C13.129 22.625 13.3826 22.5746 13.6192 22.4765C13.8559 22.3785 14.0709 22.2348 14.252 22.0537C14.4331 21.8726 14.5768 21.6576 14.6748 21.421C14.7728 21.1843 14.8233 20.9307 14.8233 20.6746V19.1142C14.8233 18.8039 14.7 18.5062 14.4805 18.2867C14.261 18.0673 13.9634 17.944 13.653 17.944Z" fill="white"/>
</svg>
