<svg width="9" height="10" viewBox="0 0 9 10" fill="none" xmlns="http://www.w3.org/2000/svg">
<path fill-rule="evenodd" clip-rule="evenodd" d="M4.5 1.5C2.567 1.5 1 3.067 1 5C1 6.933 2.567 8.5 4.5 8.5C6.433 8.5 8 6.933 8 5C8 3.067 6.433 1.5 4.5 1.5ZM0 5C0 2.51472 2.01472 0.5 4.5 0.5C6.98528 0.5 9 2.51472 9 5C9 7.48528 6.98528 9.5 4.5 9.5C2.01472 9.5 0 7.48528 0 5ZM4.85941 3.0523C4.76851 2.95833 4.64108 2.8999 4.5 2.8999C4.44724 2.8999 4.39639 2.90807 4.34865 2.92322C4.27465 2.94663 4.20502 2.98768 4.14635 3.04635L2.54635 4.64635C2.35109 4.84161 2.35109 5.15819 2.54635 5.35346C2.74161 5.54872 3.05819 5.54872 3.25346 5.35346L4 4.60691V6.5999C4 6.87604 4.22386 7.0999 4.5 7.0999C4.77614 7.0999 5 6.87604 5 6.5999V4.60711L5.74635 5.35346C5.94161 5.54872 6.25819 5.54872 6.45346 5.35346C6.64872 5.15819 6.64872 4.84161 6.45346 4.64635L4.85941 3.0523Z" fill="url(#paint0_linear)"/>
<defs>
<linearGradient id="paint0_linear" x1="0" y1="0.5" x2="10.8639" y2="5.03216" gradientUnits="userSpaceOnUse">
<stop stop-color="white"/>
<stop offset="1" stop-color="white" stop-opacity="0.25"/>
</linearGradient>
</defs>
</svg>
