<svg width="22" height="22" viewBox="0 0 22 22" fill="none" xmlns="http://www.w3.org/2000/svg">
<path d="M6.23047 15.0947H2.75C2.41914 15.0947 2.14844 15.3611 2.14844 15.6877V21.4025C2.14844 21.7291 2.41914 21.9955 2.75 21.9955H6.23047C6.56133 21.9955 6.83203 21.7291 6.83203 21.4025V15.6877C6.83203 15.3611 6.56133 15.0947 6.23047 15.0947ZM5.62891 20.8139H3.35156V16.285H5.62891V20.8139Z" fill="#282830"/>
<path d="M12.6885 11.9023H9.20801C8.87715 11.9023 8.60645 12.1687 8.60645 12.4953V21.407C8.60645 21.7336 8.87715 22 9.20801 22H12.6885C13.0193 22 13.29 21.7336 13.29 21.407V12.4953C13.29 12.1687 13.0193 11.9023 12.6885 11.9023ZM12.0912 20.8141H9.80957V13.0883H12.0912V20.8141Z" fill="#282830"/>
<path d="M19.1514 7.07715H15.6709C15.34 7.07715 15.0693 7.34355 15.0693 7.67012V21.4072C15.0693 21.7338 15.34 22.0002 15.6709 22.0002H19.1514C19.4822 22.0002 19.7529 21.7338 19.7529 21.4072V7.67012C19.7486 7.33926 19.4822 7.07715 19.1514 7.07715ZM18.5498 20.8143H16.2682V8.26309H18.5498V20.8143Z" fill="#282830"/>
<path d="M4.29707 11.541C4.50332 11.541 4.70098 11.4594 4.84277 11.3133L9.19551 6.96484L10.9701 8.73945C11.2709 9.04023 11.7607 9.04023 12.0658 8.73945L16.9299 3.87109V5.61133C16.9299 6.03672 17.2779 6.38477 17.7033 6.38477C18.1287 6.38477 18.4768 6.03672 18.4768 5.61133V2.00195C18.4768 1.57656 18.1287 1.22852 17.7033 1.22852H14.0939C13.6686 1.22852 13.3205 1.57656 13.3205 2.00195C13.3205 2.42734 13.6686 2.77539 14.0939 2.77539H15.8385L11.5158 7.09805L9.74121 5.32344C9.44043 5.02266 8.95059 5.02266 8.64551 5.32344L3.74707 10.2219C3.44629 10.5227 3.44629 11.0125 3.74707 11.3176C3.89316 11.4594 4.09082 11.541 4.29707 11.541Z" fill="#282830"/>
</svg>
