<svg width="334" height="49" viewBox="0 0 334 49" fill="none" xmlns="http://www.w3.org/2000/svg">
<path d="M333.029 12.5003V15.0003C332.529 14.167 330.429 12.5003 326.029 12.5003C320.529 12.5003 315.529 16.5003 315.529 23.5003C315.529 30.5003 322.029 35.0003 327.029 34.5003C331.029 34.1003 332.696 32.667 333.029 32.0003V37.5003V48L322.029 48.0003H13.0293C8.0293 48.0003 5.5293 46.5003 3.5293 44.0003C1.9293 42.0003 1.19591 38.8336 1.02922 37.5003V13.0003C0.862551 11.0003 1.32922 6.40029 4.52922 4.00029C7.72922 1.60029 10.8626 1.00029 12.0292 1.00029H322.029L333.029 1V12.5003Z" stroke="#FF556D"/>
</svg>
