<?xml version="1.0" encoding="utf-8"?>
<!-- Generator: Adobe Illustrator 24.0.1, SVG Export Plug-In . SVG Version: 6.00 Build 0)  -->
<svg version="1.1" id="Capa_1" xmlns="http://www.w3.org/2000/svg" xmlns:xlink="http://www.w3.org/1999/xlink" x="0px" y="0px"
	 viewBox="0 0 512 512" style="enable-background:new 0 0 512 512;" xml:space="preserve">
<style type="text/css">
	.st0{fill:#FFD400;}
	.st1{fill:#68B5E4;}
	.st2{fill:#00B9ED;}
	.st3{fill:#FF5959;}
	.st4{fill:#E63A57;}
	.st5{fill:#0097D8;}
	.st6{fill:#00A4E6;}
</style>
<g>
	<circle class="st0" cx="259.6" cy="256" r="245.8"/>
	<g>
		<path class="st1" d="M398.1,336.7c2,5,3.1,10.4,3.1,16c0,29.1-29.2,52.6-65.3,52.6c-0.4,0-0.8,0-1.2,0
			c-4.5,20.8-27.1,36.6-54.2,36.6c-8.5,0-16.6-1.6-23.8-4.3h0c-7.2,2.8-15.3,4.3-23.8,4.3c-27.2,0-49.7-15.8-54.2-36.6
			c-0.4,0-0.8,0-1.2,0c-36.1,0-65.3-23.5-65.3-52.6c0-5.6,1.1-10.9,3.1-16c-14.6-11.5-23.7-27.6-23.7-45.3c0-20,11.5-37.8,29.5-49.5
			c-3.7-6.4-5.8-13.5-5.8-21c0-18.2,12.2-34.1,30.4-42.7c0,0,0,0,0,0c5.7-2.7,12-4.7,18.8-5.8c2-0.3,4-0.6,6-0.7
			c0-0.5-0.1-1.1-0.1-1.6c0-24.5,24.7-44.4,55.1-44.4c11.6,0,22.4,2.9,31.3,7.9c0,0,0,0,0,0c8.9-4.9,19.7-7.9,31.3-7.9
			c30.4,0,55.1,19.9,55.1,44.4c0,0.5,0,1.1-0.1,1.6c31,2.6,55.1,23.7,55.1,49.3c0,7.5-2.1,14.6-5.8,21c18,11.6,29.5,29.5,29.5,49.5
			C421.8,309.2,412.7,325.2,398.1,336.7z"/>
	</g>
	<path class="st2" d="M404.3,333.7c2,5,3.1,10.4,3.1,16c0,29.1-29.8,52.6-66.6,52.6c-0.4,0-0.8,0-1.2,0
		c-4.6,20.8-27.6,36.6-55.3,36.6c-8.7,0-16.9-1.6-24.3-4.3h0V130.5c0,0,0,0,0,0c9.1-4.9,20.1-7.9,31.9-7.9c31,0,56.2,19.9,56.2,44.4
		c0,0.5,0,1.1-0.1,1.6c31.6,2.6,56.2,23.7,56.2,49.3c0,7.5-2.1,14.6-5.9,21c18.3,11.6,30.1,29.5,30.1,49.5
		C428.5,306.2,419.2,322.2,404.3,333.7L404.3,333.7z"/>
	<g>
		<path class="st3" d="M272.6,31.8v31.8c0,8.3-5.2,15-11.6,15c-6.4,0-11.6-6.7-11.6-15V31.8c0-8.3,5.2-15,11.6-15
			C267.5,16.8,272.6,23.5,272.6,31.8z"/>
	</g>
	<g>
		<g>
			<path class="st4" d="M345.3,97c-2.8,0-5.6-1.5-7.8-4.4c-4.3-5.9-4.3-15.4,0-21.2L354,48.9c4.3-5.9,11.3-5.9,15.6,0
				c4.3,5.9,4.3,15.4,0,21.2l-16.5,22.5C350.9,95.5,348.1,97,345.3,97L345.3,97z"/>
		</g>
	</g>
	<g>
		<path class="st3" d="M174.9,97c-2.9,0-5.9-1.4-8.1-4.2l-17.2-21.7c-4.5-5.7-4.5-14.8,0-20.5c4.5-5.7,11.7-5.7,16.2,0L183,72.3
			c4.5,5.7,4.5,14.8,0,20.5C180.8,95.6,177.9,97,174.9,97z"/>
	</g>
	<path class="st4" d="M435.9,121.4l-10.5-4.1l12.7-11.8c3.4-3.2,4.1-9.2,1.5-13.4c-2.6-4.2-7.5-5-10.9-1.8l-24.6,23
		c-5,4.7-3.6,14.4,2.3,16.8l10.5,4.1l-12.7,11.8c-3.4,3.2-4.1,9.2-1.5,13.4c2.6,4.2,7.5,5,10.9,1.8c0.5-0.4,24.2-22.6,24.7-23.1
		C443.2,133.4,441.9,123.8,435.9,121.4L435.9,121.4z"/>
	<g>
		<path class="st5" d="M438.1,288.4c0-19.9-9.4-38.8-26.1-52.8c2.1-5.7,3.1-11.6,3.1-17.7c0-28.1-22.6-52-54.2-59.2
			c-4.8-27.1-33.1-48-67.1-47.9c-10.7,0-21,2.1-30.4,6h0c-9.4-3.9-19.7-6-30.4-6c-34,0-62.2,20.9-67,48c-6.2,1.4-12.1,3.5-17.6,6.2
			c-0.1,0-0.2,0.1-0.2,0.1c-22.4,11-36.3,31.3-36.3,52.9c0,6.1,1.1,12,3.1,17.7c-16.7,14-26.1,32.8-26.1,52.8
			c0,18,7.6,35.1,21.5,48.6c-8.9,37.1,22.4,71.9,66.3,76.5c12.7,29.4,51.9,44.3,86.9,33.8h0c34.8,10.5,74.1-4.3,86.9-33.8
			c43.9-4.7,75.2-39.5,66.3-76.6C430.5,323.4,438.1,306.4,438.1,288.4L438.1,288.4z M249.2,225.4C233.7,214.7,219,211.2,218,211
			c-7.6-1.7-15.5,2-17.5,8.3c-2.1,6.3,2.4,12.8,10,14.5c0.3,0.1,25.2,6.3,38.6,29.2l0,163.2c-21.8,4.2-43.5-7.6-47.4-26
			c-1.2-5.8-7.3-9.9-14.4-9.8l-0.8,0c-27.1,0-49.2-18.3-49.2-40.7c0-3.9,0.7-7.8,2-11.6c2.8-7.8,16.2-18.8,29-25.9
			c3.6,5.3,8.5,10.4,15.1,15c6,4.2,15,3.6,20.1-1.4c5.1-5,4.3-12.5-1.7-16.7c-19.8-13.8-13.6-37-13.3-38.1
			c1.8-6.3-2.9-12.7-10.5-14.3c-7.7-1.5-15.4,2.3-17.3,8.7c-0.2,0.8-3,10.8-1.3,23.5c-11.3,5.4-24.8,14-34.8,23.9
			c-4.9-7.4-7.4-15.8-7.4-24.5c0-15.7,8.5-30.4,23.3-40.2c5.1-3.4,6.8-9.3,4-14.3c-2.8-5-4.3-10.4-4.3-16c0-13.3,8.6-25.8,22.4-32.5
			c0,0,0,0,0,0c0.1,0,0.1-0.1,0.2-0.1c0,0,0,0,0,0c15.9-7.7,32-5.5,47.9-2.2c7.6,1.6,15.4-2.3,17.3-8.6c1.9-6.3-2.8-12.8-10.4-14.4
			c-10.2-2.1-16.2-3.1-21.9-3.5c5.2-12.9,19.9-22.2,37.2-22.2c5.6,0,11.1,1,16.1,2.9L249.2,225.4z M390.9,325.2
			c-3.9,3.1-5.3,7.8-3.6,12.1c1.5,4,2.3,8.2,2.3,12.4c0,22.5-22,40.8-49.1,40.8l-0.8,0c-7.1-0.2-13.2,4-14.4,9.8
			c-3.9,18.4-25.6,30.2-47.4,26l0-103.6c4.2-5.9,17.4-22.2,36.3-22.2l0.4,0c7.8,0,14.2-5.2,14.3-11.7c0.1-6.5-6.2-11.9-14.1-12
			c-14.9-0.1-27.2,4.5-36.9,10.5l0-150c5-1.9,10.5-2.9,16.1-2.9c22.4,0,40.1,15.6,39.2,33.7c-0.3,6.3,5.3,11.6,12.8,12.3
			c24.2,2.1,42.3,19.6,40.6,40.1c-14-5.5-29.8-8.1-45.5-7.2c-7.9,0.5-13.8,6.1-13.2,12.6c0.5,6.5,7.4,11.4,15.2,11
			c35.9-2.1,66.6,21.5,66.6,51.4C409.6,302.3,402.9,315.4,390.9,325.2L390.9,325.2z"/>
	</g>
	<path class="st6" d="M434.3,288.4c0-19.9-9.4-38.8-26.1-52.8c2.1-5.7,3.1-11.6,3.1-17.7c0-28.1-22.5-52-54.1-59.2
		c-4.8-27.1-33-48-66.9-48c-10.6,0-21,2-30.3,6h0v330.7h0c34.8,10.5,74-4.3,86.7-33.8c43.8-4.7,75-39.5,66.1-76.6
		C426.7,323.5,434.3,306.5,434.3,288.4L434.3,288.4z M393.8,325.3c-4,3.1-5.5,7.8-3.8,12.1c1.6,4,2.4,8.2,2.4,12.4
		c0,22.5-23.2,40.8-51.6,40.8l-0.9,0c-7.4-0.2-13.9,4-15.1,9.8c-4.1,18.4-26.9,30.2-49.8,26V322.7c4.4-5.9,18.2-22.2,38.1-22.2h0.5
		c8.2,0,14.9-5.2,15-11.7c0.1-6.5-6.5-11.9-14.8-12c-15.6-0.1-28.5,4.5-38.8,10.5v-150c5.3-1.9,11-2.9,16.9-2.9
		c23.5,0,42.1,15.6,41.1,33.7c-0.3,6.3,5.6,11.6,13.4,12.3c25.4,2.1,44.4,19.6,42.7,40.2c-14.7-5.5-31.2-8.1-47.8-7.2
		c-8.3,0.4-14.5,6.1-13.9,12.6c0.6,6.5,7.7,11.4,16,11c37.7-2.1,70,21.5,70,51.5C413.5,302.4,406.5,315.5,393.8,325.3L393.8,325.3z"
		/>
	<path class="st4" d="M272.7,31.8v31.8c0,8.3-5.4,15-12.2,15V16.8C267.3,16.8,272.7,23.5,272.7,31.8z"/>
</g>
<path class="st4" d="M80.8,130.2c-6,2.4-7.3,12.1-2.4,16.7c0.4,0.4,24.2,22.6,24.7,23.1c3.4,3.2,8.3,2.4,10.9-1.8
	c2.6-4.2,1.9-10.2-1.5-13.4l-12.7-11.8l10.5-4.1c6-2.3,7.4-12.1,2.3-16.8L88,99c-3.4-3.2-8.3-2.4-10.9,1.8
	c-2.6,4.2-1.9,10.2,1.5,13.4l12.7,11.8L80.8,130.2L80.8,130.2z"/>
</svg>
