<svg width="22" height="28" viewBox="0 0 22 28" fill="none" xmlns="http://www.w3.org/2000/svg">
<path d="M5.15282 4.64812L5.15553 4.64818C6.70715 4.68249 8.20743 4.092 9.31937 3.00934C10.6441 1.71262 12.4351 1.00392 14.2884 1.04305C15.7165 1.031 17.114 1.4464 18.3021 2.23367V2.04431C18.3021 1.24246 18.9521 0.592383 19.754 0.592383C20.5559 0.592383 21.206 1.2424 21.206 2.04431V26.3789C21.206 27.1808 20.5559 27.8308 19.754 27.8308C18.9522 27.8308 18.3021 27.1808 18.3021 26.3789V14.7486C18.1677 14.7218 18.0408 14.6642 17.9317 14.5798C16.8773 13.8036 15.5983 13.393 14.2891 13.4103L14.2891 13.4104L14.2855 13.4103C12.731 13.3746 11.2274 13.9651 10.1127 15.0491C8.79048 16.344 7.00303 17.0525 5.15281 17.0154C3.73571 17.0316 2.34581 16.6259 1.15992 15.8499L1.1599 15.85L1.15771 15.8485C0.880028 15.656 0.718111 15.3365 0.72711 14.9988V4.74882C0.722383 4.38643 0.913847 4.04968 1.22776 3.86845C1.50229 3.70886 1.8413 3.70873 2.11588 3.86808C3.04431 4.38477 4.09031 4.65345 5.15282 4.64812ZM5.1526 5.74941C3.99821 5.75726 2.85916 5.4916 1.82841 4.97521L1.82846 14.9635C2.82207 15.5925 3.97594 15.9227 5.1526 15.9142V15.9142L5.15553 15.9142C6.70716 15.9485 8.20746 15.3581 9.3194 14.2754C10.6441 12.9787 12.4351 12.27 14.2883 12.3091C15.7155 12.2942 17.1131 12.7067 18.3021 13.4912V3.6301C17.1998 2.64769 15.767 2.11673 14.2896 2.14429L14.2896 2.14438L14.2855 2.14428C12.731 2.10856 11.2274 2.69911 10.1127 3.78316C8.7904 5.07801 7.00288 5.78659 5.1526 5.74941ZM19.4035 26.3789C19.4035 26.5726 19.5604 26.7295 19.7541 26.7295C19.9477 26.7295 20.1047 26.5726 20.1047 26.3789V2.04431C20.1047 1.85064 19.9477 1.69368 19.7541 1.69368C19.5604 1.69368 19.4035 1.85064 19.4035 2.04431V26.3789Z" fill="black" stroke="black" stroke-width="0.2"/>
</svg>
