<svg width="20" height="18" viewBox="0 0 20 18" fill="none" xmlns="http://www.w3.org/2000/svg">
<path d="M17.8713 6.68061C14.4344 6.68061 10.9975 6.68061 7.5608 6.68061C8.43649 5.76686 9.31225 4.85302 10.1879 3.93894C12.208 1.83103 9.061 -1.42847 7.03587 0.685044C4.90112 2.91261 2.76668 5.14018 0.631925 7.36774C-0.224869 8.26179 -0.201792 9.75167 0.648758 10.6392C2.78351 12.8664 4.91795 15.094 7.0527 17.3212C9.07278 19.4292 12.1965 16.1453 10.171 14.0321C9.30063 13.1239 8.43024 12.2157 7.55986 11.3078C10.9865 11.3078 14.413 11.3078 17.8393 11.3078C20.7021 11.3078 20.7275 6.68061 17.8713 6.68061Z" fill="#0066FF"/>
</svg>
