<svg width="25" height="25" viewBox="0 0 25 25" fill="none" xmlns="http://www.w3.org/2000/svg">
<g clip-path="url(#clip0)">
<path d="M15.2538 9.74498C14.9577 9.44708 14.6293 9.18302 14.2748 8.95762C13.3359 8.35641 12.2444 8.03694 11.1295 8.03694C9.58212 8.03406 8.09757 8.64889 7.00529 9.74498L1.70624 15.0482C0.615809 16.1407 0.00293072 17.621 0.00195433 19.1645C-9.60804e-05 22.3856 2.6094 24.9985 5.8305 25.0005C7.37553 25.0059 8.85871 24.394 9.95061 23.3008L14.3248 18.9266C14.4043 18.8478 14.4487 18.7403 14.448 18.6284C14.4467 18.3984 14.2591 18.2129 14.029 18.2143H13.8624C12.9485 18.2175 12.0428 18.042 11.1962 17.6977C11.0403 17.6335 10.861 17.6697 10.7422 17.7893L7.59688 20.9388C6.6202 21.9155 5.03669 21.9155 4.06001 20.9388C3.08333 19.9621 3.08333 18.3786 4.06001 17.4019L9.37991 12.0862C10.3558 11.1115 11.9367 11.1115 12.9126 12.0862C13.5703 12.7052 14.5962 12.7052 15.2539 12.0862C15.5368 11.803 15.7084 11.4274 15.7371 11.0281C15.7675 10.5508 15.5915 10.0835 15.2538 9.74498Z" fill="white"/>
<path d="M23.2894 1.70857C21.0117 -0.569197 17.3187 -0.569197 15.0409 1.70857L10.6709 6.07443C10.5509 6.19502 10.5162 6.37638 10.5834 6.5327C10.6497 6.68946 10.8048 6.79008 10.975 6.78681H11.1291C12.0419 6.78515 12.9462 6.96202 13.7911 7.30756C13.9471 7.37176 14.1263 7.33554 14.2452 7.21593L17.3821 4.08314C18.3588 3.10646 19.9423 3.10646 20.919 4.08314C21.8956 5.05982 21.8956 6.64333 20.919 7.62001L17.0113 11.5235L16.978 11.5609L15.6116 12.9191C14.6357 13.8937 13.0548 13.8937 12.0789 12.9191C11.4212 12.3001 10.3953 12.3001 9.73763 12.9191C9.45287 13.2044 9.28117 13.5833 9.25437 13.9855C9.2239 14.4627 9.3999 14.9301 9.73763 15.2686C10.2198 15.7529 10.784 16.1478 11.404 16.4351C11.4915 16.4767 11.5789 16.5101 11.6664 16.5476C11.7539 16.585 11.8456 16.6142 11.933 16.6475C12.0205 16.6809 12.1122 16.71 12.1996 16.735L12.4454 16.8017C12.6121 16.8433 12.7787 16.8766 12.9495 16.9058C13.1552 16.9364 13.3624 16.9558 13.5702 16.9641H13.8618H13.8868L14.1368 16.935C14.2284 16.9308 14.3243 16.91 14.4326 16.91H14.5742L14.8617 16.8683L14.995 16.8434L15.2366 16.7934H15.2824C16.3057 16.5363 17.2401 16.0065 17.9861 15.2603L23.2893 9.95709C25.5672 7.67932 25.5672 3.98633 23.2894 1.70857Z" fill="white"/>
</g>
<defs>
<clipPath id="clip0">
<rect width="25" height="25" fill="white"/>
</clipPath>
</defs>
</svg>
