<svg width="16" height="16" viewBox="0 0 16 16" fill="none" xmlns="http://www.w3.org/2000/svg">
<g clip-path="url(#clip0)">
<path d="M16 8C16 9.78125 15.4187 11.4281 14.4312 12.7563C14.0687 13.2438 13.6531 13.6906 13.1906 14.0844C11.7937 15.2812 9.98125 16 8 16C6.85313 16 5.7625 15.7594 4.775 15.3219C4.35 15.1344 3.94375 14.9094 3.55938 14.6531C3.29688 14.4781 3.04688 14.2875 2.80938 14.0844C2.34687 13.6906 1.93125 13.2438 1.56875 12.7563C0.58125 11.4281 0 9.78125 0 8C0 6.21875 0.58125 4.57188 1.56875 3.24375C2.1875 2.40625 2.96875 1.69375 3.8625 1.15313C5.06875 0.421875 6.48438 0 8 0C8.00937 0 8.02188 0 8.03125 0C9.53438 0.00625 10.9375 0.425 12.1375 1.15C13.0312 1.69375 13.8125 2.40625 14.4312 3.24375C15.4187 4.57188 16 6.21875 16 8Z" fill="#FDA632"/>
<path d="M14.8938 6.89375C14.8938 8.42813 14.3906 9.84687 13.5437 10.9937C13.2312 11.4156 12.8719 11.8 12.475 12.1406C11.2719 13.1687 9.70938 13.7906 8 13.7906C7.00938 13.7906 6.07188 13.5813 5.22188 13.2063C4.85313 13.0437 4.50313 12.85 4.175 12.6313C3.95 12.4813 3.73438 12.3156 3.52813 12.1406C3.13125 11.8 2.77187 11.4156 2.45937 10.9937C1.60937 9.84687 1.10938 8.42813 1.10938 6.89375C1.10938 5.35938 1.6125 3.94063 2.45937 2.79375C2.99375 2.07188 3.66563 1.45938 4.4375 0.990625C5.475 0.3625 6.69375 0 8 0C8.00938 0 8.01875 0 8.02812 0C9.32187 0.00625 10.5344 0.365625 11.5656 0.99375C12.3375 1.45937 13.0094 2.075 13.5437 2.79688C14.3906 3.94062 14.8938 5.35938 14.8938 6.89375Z" fill="#DB2835"/>
<path d="M14.4313 2.34082V12.7564C14.0688 13.2439 13.6532 13.6908 13.1907 14.0846C11.7938 15.2814 9.98135 16.0002 8.0001 16.0002C6.85322 16.0002 5.7626 15.7596 4.7751 15.3221C4.3501 15.1346 3.94385 14.9096 3.55947 14.6533C3.29697 14.4783 3.04697 14.2877 2.80947 14.0846C2.34697 13.6908 1.93135 13.2439 1.56885 12.7564V2.34082C1.56885 1.68457 2.1001 1.15332 2.75635 1.15332H13.2438C13.9001 1.15332 14.4313 1.68457 14.4313 2.34082Z" fill="#3F57E0"/>
<path d="M13.1907 4.57812V14.0875C11.7938 15.2812 9.98132 16 8.00007 16C6.8532 16 5.76257 15.7594 4.77507 15.3219C4.35007 15.1344 3.94382 14.9094 3.55945 14.6531C3.29695 14.4781 3.04695 14.2875 2.80945 14.0844V4.57812C2.80945 4.16563 3.14382 3.82812 3.55945 3.82812H12.4438C12.8563 3.82812 13.1907 4.16563 13.1907 4.57812Z" fill="#F0F0F0"/>
<path d="M11.1843 1.47187V3.575C11.1843 3.96875 10.8656 4.2875 10.4718 4.2875H5.52805C5.1343 4.2875 4.81555 3.96875 4.81555 3.575V1.47187C4.81555 1.07812 5.1343 0.759375 5.52805 0.759375H6.7718C6.9968 0.309375 7.46243 0 7.99993 0C8.0843 0 8.16555 0.00625 8.24368 0.021875C8.61868 0.090625 8.94368 0.309375 9.14368 0.61875C9.1468 0.621875 9.14993 0.625 9.14993 0.63125C9.16868 0.6625 9.18743 0.690625 9.20305 0.721875C9.2093 0.734375 9.21868 0.75 9.2218 0.759375H10.4656C10.8656 0.759375 11.1843 1.07812 11.1843 1.47187Z" fill="#F2AE5A"/>
<path d="M11.1843 1.47187V3.575C11.1843 3.96875 10.8655 4.2875 10.4718 4.2875H6.01865C5.6249 4.2875 5.30615 3.96875 5.30615 3.575V1.47187C5.30615 1.07812 5.6249 0.759375 6.01865 0.759375H6.77491C6.99678 0.309375 7.46241 0 7.99991 0C8.08428 0 8.16553 0.00625 8.24366 0.021875C8.61866 0.090625 8.94366 0.309375 9.14366 0.61875C9.14679 0.621875 9.14991 0.625 9.14991 0.63125C9.17179 0.665625 9.19054 0.696875 9.20304 0.721875C9.20929 0.734375 9.21866 0.75 9.22179 0.759375H10.4655C10.8655 0.759375 11.1843 1.07812 11.1843 1.47187Z" fill="#F9DF73"/>
<path d="M8.46265 1.2287C8.52294 0.973391 8.36484 0.717555 8.10954 0.657271C7.85423 0.596986 7.5984 0.755081 7.53811 1.01039C7.47783 1.26569 7.63592 1.52153 7.89123 1.58181C8.14653 1.6421 8.40237 1.484 8.46265 1.2287Z" fill="#343A6E"/>
<path d="M9.76243 3.24023H6.23743C6.0468 3.24023 5.89368 3.08711 5.89368 2.89648C5.89368 2.70586 6.0468 2.55273 6.23743 2.55273H9.76243C9.95305 2.55273 10.1062 2.70586 10.1062 2.89648C10.1062 3.08711 9.95305 3.24023 9.76243 3.24023Z" fill="#F2AE5A"/>
<path d="M5.94375 8.26875H3.8875C3.70625 8.26875 3.5625 8.12187 3.5625 7.94375V5.8875C3.5625 5.70625 3.70938 5.5625 3.8875 5.5625H5.94375C6.125 5.5625 6.26875 5.70937 6.26875 5.8875V7.94375C6.26875 8.125 6.12187 8.26875 5.94375 8.26875ZM4.2125 7.61562H5.61562V6.2125H4.2125V7.61562Z" fill="#5897D1"/>
<path d="M9.24063 6.60605H7.18437C7.00312 6.60605 6.85938 6.45918 6.85938 6.28105C6.85938 6.10293 7.00625 5.95605 7.18437 5.95605H9.24063C9.42188 5.95605 9.56563 6.10293 9.56563 6.28105C9.56563 6.45918 9.42188 6.60605 9.24063 6.60605Z" fill="#484B7F"/>
<path d="M11.7875 7.87754H7.18437C7.00312 7.87754 6.85938 7.73066 6.85938 7.55254C6.85938 7.37441 7.00625 7.22754 7.18437 7.22754H11.7875C11.9688 7.22754 12.1125 7.37441 12.1125 7.55254C12.1125 7.73066 11.9688 7.87754 11.7875 7.87754Z" fill="#484B7F"/>
<path d="M5.94375 11.7971H3.8875C3.70625 11.7971 3.5625 11.6502 3.5625 11.4721V9.41582C3.5625 9.23457 3.70938 9.09082 3.8875 9.09082H5.94375C6.125 9.09082 6.26875 9.2377 6.26875 9.41582V11.4689C6.26875 11.6502 6.12187 11.7971 5.94375 11.7971ZM4.2125 11.1439H5.61562V9.74082H4.2125V11.1439Z" fill="#5897D1"/>
<path d="M9.24063 10.1314H7.18437C7.00312 10.1314 6.85938 9.98457 6.85938 9.80645C6.85938 9.62832 7.00625 9.48145 7.18437 9.48145H9.24063C9.42188 9.48145 9.56563 9.62832 9.56563 9.80645C9.56563 9.98457 9.42188 10.1314 9.24063 10.1314Z" fill="#484B7F"/>
<path d="M11.7875 11.4068H7.18438C7.00313 11.4068 6.85938 11.26 6.85938 11.0818C6.85938 10.9037 7.00625 10.7568 7.18438 10.7568H11.7875C11.9688 10.7568 12.1125 10.9037 12.1125 11.0818C12.1156 11.26 11.9688 11.4068 11.7875 11.4068Z" fill="#484B7F"/>
<path d="M5.94375 12.6123H3.8875C3.70625 12.6123 3.5625 12.7592 3.5625 12.9373V14.6561C3.94688 14.9123 4.35312 15.1373 4.77812 15.3248H5.94688C6.12813 15.3248 6.27187 15.1779 6.27187 14.9998V12.9436C6.26875 12.7592 6.12187 12.6123 5.94375 12.6123ZM5.61562 14.6686H4.2125V13.2654H5.61562V14.6686Z" fill="#5897D1"/>
<path d="M9.24063 13.6559H7.18437C7.00312 13.6559 6.85938 13.509 6.85938 13.3309C6.85938 13.1527 7.00625 13.0059 7.18437 13.0059H9.24063C9.42188 13.0059 9.56563 13.1527 9.56563 13.3309C9.56563 13.509 9.42188 13.6559 9.24063 13.6559Z" fill="#484B7F"/>
<path d="M11.7875 14.9312H7.18438C7.00313 14.9312 6.85938 14.7844 6.85938 14.6062C6.85938 14.4281 7.00625 14.2812 7.18438 14.2812H11.7875C11.9688 14.2812 12.1125 14.4281 12.1125 14.6062C12.1156 14.7844 11.9688 14.9312 11.7875 14.9312Z" fill="#484B7F"/>
<path d="M4.89694 11.5028C4.78757 11.5028 4.68757 11.4496 4.62507 11.3559L3.58132 9.78714C3.48132 9.63714 3.52194 9.43401 3.67194 9.33401C3.82194 9.23401 4.02507 9.27464 4.12507 9.42464L4.85007 10.5121L5.77819 8.55276C5.85632 8.39026 6.05007 8.32151 6.21257 8.39651C6.37507 8.47464 6.44382 8.66839 6.36882 8.83089L5.19382 11.3121C5.14382 11.4184 5.04069 11.4903 4.92194 11.4965C4.91257 11.5028 4.90632 11.5028 4.89694 11.5028Z" fill="#EF487D"/>
</g>
<defs>
<clipPath id="clip0">
<rect width="16" height="16" fill="white"/>
</clipPath>
</defs>
</svg>
