<svg width="26" height="25" viewBox="0 0 26 25" fill="none" xmlns="http://www.w3.org/2000/svg">
<path d="M11.9983 1.5999C12.2977 0.678593 13.6011 0.678592 13.9004 1.5999L16.1212 8.43456C16.255 8.84658 16.639 9.12554 17.0722 9.12554H24.2586C25.2273 9.12554 25.6301 10.3652 24.8464 10.9346L19.0325 15.1586C18.682 15.4132 18.5353 15.8646 18.6692 16.2766L20.8899 23.1113C21.1893 24.0326 20.1348 24.7987 19.3511 24.2293L13.5372 20.0053C13.1867 19.7506 12.7121 19.7506 12.3616 20.0053L6.5477 24.2293C5.76399 24.7987 4.70951 24.0326 5.00886 23.1113L7.22957 16.2766C7.36345 15.8646 7.21679 15.4132 6.8663 15.1586L1.0524 10.9346C0.268686 10.3652 0.67146 9.12554 1.64018 9.12554H8.82656C9.25979 9.12554 9.64375 8.84658 9.77762 8.43456L11.9983 1.5999Z" fill="#FFCC00"/>
</svg>
