<svg width="30" height="44" viewBox="0 0 30 44" fill="none" xmlns="http://www.w3.org/2000/svg">
<path d="M14.727 2C13.2804 2 11.893 2.57467 10.8701 3.5976C9.84713 4.62053 9.27246 6.00791 9.27246 7.45455V22C9.27246 23.4466 9.84713 24.834 10.8701 25.8569C11.893 26.8799 13.2804 27.4545 14.727 27.4545C16.1736 27.4545 17.561 26.8799 18.584 25.8569C19.6069 24.834 20.1816 23.4466 20.1816 22V7.45455C20.1816 6.00791 19.6069 4.62053 18.584 3.5976C17.561 2.57467 16.1736 2 14.727 2V2Z" stroke="white" stroke-width="4" stroke-linecap="round" stroke-linejoin="round"/>
<path d="M27.4545 18.3633V21.9996C27.4545 25.3751 26.1136 28.6124 23.7268 30.9992C21.34 33.386 18.1028 34.7269 14.7273 34.7269C11.3518 34.7269 8.11456 33.386 5.72773 30.9992C3.34091 28.6124 2 25.3751 2 21.9996V18.3633" stroke="white" stroke-width="4" stroke-linecap="round" stroke-linejoin="round"/>
<path d="M14.7275 34.7275V42.0003" stroke="white" stroke-width="4" stroke-linecap="round" stroke-linejoin="round"/>
<path d="M7.4541 42H21.9996" stroke="white" stroke-width="4" stroke-linecap="round" stroke-linejoin="round"/>
</svg>
