<svg width="28" height="28" viewBox="0 0 28 28" fill="none" xmlns="http://www.w3.org/2000/svg">
<path d="M25.27 1.75H2.73C2.18794 1.75 1.75 2.18794 1.75 2.73V25.27C1.75 25.8121 2.18794 26.25 2.73 26.25H25.27C25.8121 26.25 26.25 25.8121 26.25 25.27V2.73C26.25 2.18794 25.8121 1.75 25.27 1.75ZM22.4403 8.90094H20.4833C18.949 8.90094 18.6519 9.62981 18.6519 10.7017V13.0629H22.3147L21.8369 16.7593H18.6519V26.25H14.833V16.7624H11.6388V13.0629H14.833V10.3372C14.833 7.17369 16.7654 5.4495 19.5891 5.4495C20.9427 5.4495 22.1034 5.55056 22.4433 5.5965V8.90094H22.4403Z" fill="#0066FF"/>
</svg>
