<svg width="52" height="137" viewBox="0 0 52 137" fill="none" xmlns="http://www.w3.org/2000/svg">
<g clip-path="url(#clip0)">
<path d="M44.85 131.42H6.62V136.01H44.85V131.42Z" fill="#4C230F"/>
<path d="M44.85 131.43H6.62L8.18 128.5H43.28L44.85 131.43Z" fill="#881D08"/>
<path d="M43.2801 116.4H8.18005V128.49H43.2801V116.4Z" fill="#881D08"/>
<path d="M43.2801 106.31H8.18005V107.12H43.2801V106.31Z" fill="#771003"/>
<path d="M43.2801 98.5898H8.18005V106.31H43.2801V98.5898Z" fill="#DB1905"/>
<path d="M43.2801 114.55H8.18005V116.41H43.2801V114.55Z" fill="#4C230F"/>
<path d="M43.28 107.12H8.18L0 112.29H51.47L43.28 107.12Z" fill="#3D3D3D"/>
<path d="M43.28 114.55H8.18L0 112.29H51.47L43.28 114.55Z" fill="#707070"/>
<path d="M19.48 116.4H10.23V128.49H19.48V116.4Z" fill="#DB1905"/>
<path d="M41.23 116.4H31.98V128.49H41.23V116.4Z" fill="#DB1905"/>
<path d="M30 119.26H21.46V128.5H30V119.26Z" fill="#3D3D3D"/>
<path d="M25.7799 119.26H25.6799V128.5H25.7799V119.26Z" fill="black"/>
<path d="M30 116.4H21.46V119.25H30V116.4Z" fill="#DB1905"/>
<path d="M25.23 124C25.23 124.063 25.2047 124.124 25.1597 124.169C25.1147 124.214 25.0537 124.24 24.99 124.24C24.9263 124.24 24.8653 124.214 24.8203 124.169C24.7753 124.124 24.75 124.063 24.75 124C24.75 123.936 24.7753 123.875 24.8203 123.83C24.8653 123.785 24.9263 123.76 24.99 123.76C25.0537 123.76 25.1147 123.785 25.1597 123.83C25.2047 123.875 25.23 123.936 25.23 124Z" fill="black"/>
<path d="M26.72 124C26.72 124.047 26.7059 124.094 26.6795 124.133C26.6532 124.173 26.6157 124.203 26.5718 124.221C26.528 124.24 26.4797 124.244 26.4332 124.235C26.3866 124.226 26.3439 124.203 26.3103 124.169C26.2767 124.136 26.2539 124.093 26.2446 124.047C26.2353 124 26.2401 123.952 26.2583 123.908C26.2764 123.864 26.3072 123.827 26.3467 123.8C26.3861 123.774 26.4325 123.76 26.48 123.76C26.5436 123.76 26.6047 123.785 26.6497 123.83C26.6947 123.875 26.72 123.936 26.72 124Z" fill="black"/>
<path d="M13.6 106.31C13.52 102.56 12.47 99.5898 11.19 99.5898C9.91003 99.5898 8.86003 102.59 8.78003 106.31H13.6Z" fill="#723519"/>
<path d="M12.35 106.31C12.35 104.04 11.8 101.7 11.19 101.7C10.58 101.7 10.08 104 10 106.31H12.35Z" fill="white"/>
<path d="M19.42 106.31C19.34 102.56 18.29 99.5898 17.01 99.5898C15.73 99.5898 14.68 102.59 14.6 106.31H19.42Z" fill="#723519"/>
<path d="M18.17 106.31C18.12 104.04 17.62 101.7 17.01 101.7C16.4 101.7 15.9 104.04 15.85 106.31H18.17Z" fill="white"/>
<path d="M25.2299 106.31C25.1499 102.56 24.0999 99.5898 22.8199 99.5898C21.5399 99.5898 20.4999 102.59 20.4199 106.31H25.2299Z" fill="#723519"/>
<path d="M23.9999 106.31C23.9999 104.04 23.4499 101.7 22.8399 101.7C22.2299 101.7 21.7299 104.04 21.6799 106.31H23.9999Z" fill="white"/>
<path d="M31.05 106.31C30.97 102.56 29.92 99.5898 28.64 99.5898C27.36 99.5898 26.31 102.59 26.23 106.31H31.05Z" fill="#723519"/>
<path d="M29.8 106.31C29.75 104.04 29.25 101.7 28.64 101.7C28.03 101.7 27.53 104.04 27.48 106.31H29.8Z" fill="white"/>
<path d="M36.87 106.31C36.79 102.56 35.74 99.5898 34.46 99.5898C33.18 99.5898 32.13 102.59 32.05 106.31H36.87Z" fill="#723519"/>
<path d="M35.62 106.31C35.62 104.04 35.07 101.7 34.46 101.7C33.85 101.7 33.35 104.04 33.3 106.31H35.62Z" fill="white"/>
<path d="M42.6801 106.31C42.6001 102.56 41.5501 99.5898 40.2701 99.5898C38.9901 99.5898 37.9501 102.59 37.8701 106.31H42.6801Z" fill="#723519"/>
<path d="M41.4301 106.31C41.4301 104.04 40.8801 101.7 40.2701 101.7C39.6601 101.7 39.1601 104.04 39.1101 106.31H41.4301Z" fill="white"/>
<path d="M43.2801 82.6396H8.18005V90.3596H43.2801V82.6396Z" fill="#DB1905"/>
<path d="M13.6 90.3599C13.52 86.5999 12.47 83.6299 11.19 83.6299C9.91003 83.6299 8.86003 86.6299 8.78003 90.3599H13.6Z" fill="#723519"/>
<path d="M12.35 90.3602C12.35 88.0902 11.8 85.7402 11.19 85.7402C10.58 85.7402 10.08 88.0902 10 90.3602H12.35Z" fill="white"/>
<path d="M19.42 90.3599C19.34 86.5999 18.29 83.6299 17.01 83.6299C15.73 83.6299 14.68 86.6299 14.6 90.3599H19.42Z" fill="#723519"/>
<path d="M18.17 90.3602C18.12 88.0902 17.62 85.7402 17.01 85.7402C16.4 85.7402 15.9 88.0902 15.85 90.3602H18.17Z" fill="white"/>
<path d="M25.2299 90.3599C25.1499 86.5999 24.0999 83.6299 22.8199 83.6299C21.5399 83.6299 20.4999 86.6299 20.4199 90.3599H25.2299Z" fill="#723519"/>
<path d="M23.9999 90.3602C23.9999 88.0902 23.4499 85.7402 22.8399 85.7402C22.2299 85.7402 21.7299 88.0902 21.6799 90.3602H23.9999Z" fill="white"/>
<path d="M31.05 90.3599C30.97 86.5999 29.92 83.6299 28.64 83.6299C27.36 83.6299 26.31 86.6299 26.23 90.3599H31.05Z" fill="#723519"/>
<path d="M29.8 90.3602C29.75 88.0902 29.25 85.7402 28.64 85.7402C28.03 85.7402 27.53 88.0902 27.48 90.3602H29.8Z" fill="white"/>
<path d="M36.87 90.3599C36.79 86.5999 35.74 83.6299 34.46 83.6299C33.18 83.6299 32.13 86.6299 32.05 90.3599H36.87Z" fill="#723519"/>
<path d="M35.62 90.3602C35.62 88.0902 35.07 85.7402 34.46 85.7402C33.85 85.7402 33.35 88.0902 33.3 90.3602H35.62Z" fill="white"/>
<path d="M42.6801 90.3599C42.6001 86.5999 41.5501 83.6299 40.2701 83.6299C38.9901 83.6299 37.9501 86.6299 37.8701 90.3599H42.6801Z" fill="#723519"/>
<path d="M41.4301 90.3602C41.4301 88.0902 40.8801 85.7402 40.2701 85.7402C39.6601 85.7402 39.1601 88.0902 39.1101 90.3602H41.4301Z" fill="white"/>
<path d="M43.2801 66.6904H8.18005V74.4104H43.2801V66.6904Z" fill="#DB1905"/>
<path d="M13.6 74.4097C13.52 70.6497 12.47 67.6797 11.19 67.6797C9.91003 67.6797 8.86003 70.6797 8.78003 74.4097H13.6Z" fill="#723519"/>
<path d="M12.35 74.41C12.35 72.14 11.8 69.79 11.19 69.79C10.58 69.79 10.08 72.14 10 74.41H12.35Z" fill="white"/>
<path d="M19.42 74.4097C19.34 70.6497 18.29 67.6797 17.01 67.6797C15.73 67.6797 14.68 70.6797 14.6 74.4097H19.42Z" fill="#723519"/>
<path d="M18.17 74.41C18.12 72.14 17.62 69.79 17.01 69.79C16.4 69.79 15.9 72.14 15.85 74.41H18.17Z" fill="white"/>
<path d="M25.2299 74.4097C25.1499 70.6497 24.0999 67.6797 22.8199 67.6797C21.5399 67.6797 20.4999 70.6797 20.4199 74.4097H25.2299Z" fill="#723519"/>
<path d="M23.9999 74.41C23.9999 72.14 23.4499 69.79 22.8399 69.79C22.2299 69.79 21.7299 72.14 21.6799 74.41H23.9999Z" fill="white"/>
<path d="M31.05 74.4097C30.97 70.6497 29.92 67.6797 28.64 67.6797C27.36 67.6797 26.31 70.6797 26.23 74.4097H31.05Z" fill="#723519"/>
<path d="M29.8 74.41C29.75 72.14 29.25 69.79 28.64 69.79C28.03 69.79 27.53 72.14 27.48 74.41H29.8Z" fill="white"/>
<path d="M36.87 74.4097C36.79 70.6497 35.74 67.6797 34.46 67.6797C33.18 67.6797 32.13 70.6797 32.05 74.4097H36.87Z" fill="#723519"/>
<path d="M35.62 74.41C35.62 72.14 35.07 69.79 34.46 69.79C33.85 69.79 33.35 72.14 33.3 74.41H35.62Z" fill="white"/>
<path d="M42.6801 74.4097C42.6001 70.6497 41.5501 67.6797 40.2701 67.6797C38.9901 67.6797 37.9501 70.6797 37.8701 74.4097H42.6801Z" fill="#723519"/>
<path d="M41.4301 74.41C41.4301 72.14 40.8801 69.79 40.2701 69.79C39.6601 69.79 39.1601 72.14 39.1101 74.41H41.4301Z" fill="white"/>
<path d="M43.2801 90.3604H8.18005V91.1703H43.2801V90.3604Z" fill="#771003"/>
<path d="M43.28 91.1699H8.18L0 96.3299H51.47L43.28 91.1699Z" fill="#3D3D3D"/>
<path d="M43.28 98.5901H8.18L0 96.3301H51.47L43.28 98.5901Z" fill="#707070"/>
<path d="M43.2801 74.4102H8.18005V75.2202H43.2801V74.4102Z" fill="#771003"/>
<path d="M41.4001 49.3604H10.0601V58.4604H41.4001V49.3604Z" fill="#DB1905"/>
<path d="M43.28 75.2197H8.18L0 80.3797H51.47L43.28 75.2197Z" fill="#3D3D3D"/>
<path d="M43.28 82.6399H8.18L0 80.3799H51.47L43.28 82.6399Z" fill="#707070"/>
<path d="M41.41 59.2695H10.06L0 64.4295H51.47L41.41 59.2695Z" fill="#3D3D3D"/>
<path d="M43.28 66.6897H8.18L0 64.4297H51.47L43.28 66.6897Z" fill="#707070"/>
<path d="M30.35 33.71H21.12L2.77002 46.18H48.7L30.35 33.71Z" fill="#3D3D3D"/>
<path d="M41.39 49.3597H10.07L2.77002 46.1797H48.7L41.39 49.3597Z" fill="#707070"/>
<path d="M7.63 48.29L10.07 49.36H41.39L43.83 48.29H7.63Z" fill="#771003"/>
<path d="M14.3 55.7895C14.24 53.9395 13.58 52.0195 12.77 52.0195C11.96 52.0195 11.31 53.9395 11.24 55.7895H14.3Z" fill="#A5A5A5"/>
<path d="M18.6201 55.79C18.5601 53.94 17.9001 52 17.0901 52C16.2801 52 15.6301 53.92 15.5601 55.77L18.6201 55.79Z" fill="#A5A5A5"/>
<path d="M22.9399 55.7895C22.8799 53.9395 22.2199 52.0195 21.4099 52.0195C20.5999 52.0195 19.9999 53.9395 19.8799 55.7895H22.9399Z" fill="#A5A5A5"/>
<path d="M27.26 55.79C27.2 53.94 26.5399 52 25.7299 52C24.9199 52 24.27 53.92 24.2 55.77L27.26 55.79Z" fill="#A5A5A5"/>
<path d="M31.58 55.7895C31.52 53.9395 30.86 52.0195 30.05 52.0195C29.24 52.0195 28.59 53.9395 28.52 55.7895H31.58Z" fill="#A5A5A5"/>
<path d="M35.9001 55.7895C35.8401 53.9395 35.1801 52.0195 34.3701 52.0195C33.5601 52.0195 32.9101 53.9395 32.8401 55.7895H35.9001Z" fill="#A5A5A5"/>
<path d="M40.2199 55.79C40.1599 53.94 39.4999 52 38.6899 52C37.8799 52 37.2299 53.92 37.1599 55.77L40.2199 55.79Z" fill="#A5A5A5"/>
<path d="M41.4001 57.6699H10.0601V59.2699H41.4001V57.6699Z" fill="#771003"/>
<path d="M25.7301 0.299805L21.1201 33.7098H30.3501L25.7301 0.299805Z" fill="#96512F"/>
<path d="M31.6001 29.1504C31.6001 29.8404 28.9601 30.4004 25.7101 30.4004C22.4601 30.4004 19.8201 29.8404 19.8201 29.1504C19.8201 28.4604 22.4601 27.9004 25.7101 27.9004C28.9601 27.9004 31.6001 28.4604 31.6001 29.1504Z" fill="#DBA472"/>
<path d="M31.0801 24.5C31.0801 25.19 28.6801 25.75 25.7101 25.75C22.7401 25.75 20.3401 25.19 20.3401 24.5C20.3401 23.81 22.7401 23.25 25.7101 23.25C28.6801 23.25 31.0801 23.81 31.0801 24.5Z" fill="#DBA472"/>
<path d="M30.64 19.8496C30.64 20.5396 28.43 21.0996 25.71 21.0996C22.99 21.0996 20.78 20.5396 20.78 19.8496C20.78 19.1596 23 18.5996 25.71 18.5996C28.42 18.5996 30.64 19.1596 30.64 19.8496Z" fill="#DBA472"/>
<path d="M29.71 15.2C29.71 15.89 27.92 16.45 25.71 16.45C23.5 16.45 21.71 15.89 21.71 15.2C21.71 14.51 23.5 14 25.71 14C27.92 14 29.71 14.51 29.71 15.2Z" fill="#DBA472"/>
<path d="M28.9 10.5498C28.9 11.2398 27.47 11.7998 25.71 11.7998C23.95 11.7998 22.51 11.2398 22.51 10.5498C22.51 9.8598 23.94 9.2998 25.71 9.2998C27.48 9.2998 28.9 9.8598 28.9 10.5498Z" fill="#DBA472"/>
<path d="M28.17 5.90039C28.17 6.59039 27.07 7.15039 25.71 7.15039C24.35 7.15039 23.24 6.59039 23.24 5.90039C23.24 5.21039 24.35 4.65039 25.71 4.65039C27.07 4.65039 28.17 5.21039 28.17 5.90039Z" fill="#DBA472"/>
<path d="M27.2399 1.24967C27.1695 1.60363 26.9785 1.92221 26.6995 2.15114C26.4206 2.38008 26.0708 2.50521 25.7099 2.50521C25.349 2.50521 24.9993 2.38008 24.7203 2.15114C24.4413 1.92221 24.2504 1.60363 24.1799 1.24967C24.2504 0.895722 24.4413 0.57714 24.7203 0.348204C24.9993 0.119267 25.349 -0.00585937 25.7099 -0.00585938C26.0708 -0.00585938 26.4206 0.119267 26.6995 0.348204C26.9785 0.57714 27.1695 0.895722 27.2399 1.24967Z" fill="#DBA472"/>
</g>
<defs>
<clipPath id="clip0">
<rect width="51.46" height="136.01" fill="white"/>
</clipPath>
</defs>
</svg>
