<svg width="81" height="89" viewBox="0 0 81 89" fill="none" xmlns="http://www.w3.org/2000/svg">
<g clip-path="url(#clip0)">
<path d="M0 79C1.45 84.43 18.9 88.72 40.28 88.72C61.66 88.72 79.1 84.46 80.55 79H0Z" fill="#92D7FF"/>
<path d="M71.77 20.6201H8.78003V26.7801H71.77V20.6201Z" fill="#DB1905"/>
<path d="M34.01 56.3896H1.47998V61.8396H34.01V56.3896Z" fill="#DB1905"/>
<path d="M34.01 70.9199H1.47998V76.3699H34.01V70.9199Z" fill="#DB1905"/>
<path d="M72.4401 12.2098C51.0617 14.5699 29.4885 14.5699 8.11011 12.2098C8.33011 10.2098 8.56011 8.12984 8.78011 6.08984C29.7165 8.40057 50.8437 8.40057 71.7801 6.08984C72.0001 8.12984 72.2201 10.1698 72.4401 12.2098Z" fill="#DB1905"/>
<path d="M20.4001 7.98047H15.0801V80.9005H20.4001V7.98047Z" fill="#DB1905"/>
<path d="M65.4699 7.98047H60.1499V80.9005H65.4699V7.98047Z" fill="#DB1905"/>
<path d="M43.81 13.9805H36.74V20.6205H43.81V13.9805Z" fill="#3D3D3D"/>
<path d="M9.73992 51.54H4.41992V80.9H9.73992V51.54Z" fill="#C10E05"/>
<path d="M10.63 49.6299H3.54004V51.5499H10.63V49.6299Z" fill="#DB1905"/>
<path d="M11.3101 49.7702H2.86011C2.86011 49.7702 3.00011 47.2002 7.08011 47.2002C11.1601 47.2002 11.3101 49.7702 11.3101 49.7702Z" fill="#3D3D3D"/>
<path d="M31.06 51.54H25.74V80.9H31.06V51.54Z" fill="#C10E05"/>
<path d="M31.9501 49.6299H24.8601V51.5499H31.9501V49.6299Z" fill="#DB1905"/>
<path d="M32.6299 49.7702H24.1799C24.1799 49.7702 24.2699 47.2002 28.3999 47.2002C32.5299 47.2002 32.6299 49.7702 32.6299 49.7702Z" fill="#3D3D3D"/>
<path d="M79.0801 56.3896H46.55V61.8396H79.0801V56.3896Z" fill="#DB1905"/>
<path d="M79.0801 70.9199H46.55V76.3699H79.0801V70.9199Z" fill="#DB1905"/>
<path d="M54.81 51.54H49.49V80.9H54.81V51.54Z" fill="#C10E05"/>
<path d="M55.6901 49.6299H48.6001V51.5499H55.6901V49.6299Z" fill="#DB1905"/>
<path d="M56.3699 49.7702H47.9199C47.9199 49.7702 47.9999 47.2002 52.1499 47.2002C56.2999 47.2002 56.3699 49.7702 56.3699 49.7702Z" fill="#3D3D3D"/>
<path d="M76.1301 51.54H70.8101V80.9H76.1301V51.54Z" fill="#C10E05"/>
<path d="M77.0199 49.6299H69.9299V51.5499H77.0199V49.6299Z" fill="#DB1905"/>
<path d="M77.69 49.7702H69.24C69.24 49.7702 69.33 47.2002 73.47 47.2002C77.61 47.2002 77.69 49.7702 77.69 49.7702Z" fill="#3D3D3D"/>
<path d="M74.1499 9.05969C51.5886 10.3597 28.9712 10.3597 6.40991 9.05969C6.63991 7.92969 6.87991 6.80969 7.11991 5.67969C29.205 6.94969 51.3448 6.94969 73.4299 5.67969L74.1499 9.05969Z" fill="#664131"/>
<path d="M78.1499 5.56C52.9457 7.70999 27.6041 7.70999 2.3999 5.56C2.6599 3.71 2.9299 1.85 3.1899 0C27.8686 2.1 52.6812 2.1 77.3599 0C77.6199 1.85 77.8899 3.71 78.1499 5.56Z" fill="#536D50"/>
</g>
<defs>
<clipPath id="clip0">
<rect width="80.55" height="88.75" fill="white"/>
</clipPath>
</defs>
</svg>
