<svg width="141" height="341" viewBox="0 0 141 341" fill="none" xmlns="http://www.w3.org/2000/svg">
<g clip-path="url(#clip0)">
<path d="M61.4629 137.961C35.2699 126.241 16.1842 91.2417 15.9713 49.7344H4.4187C4.73813 100.527 28.8814 142.855 61.4629 155.103V137.961Z" fill="#E5F4F2"/>
<path d="M86.9371 117.405C86.9371 117.405 89.599 61.5597 67.7449 66.3744C46.2901 61.5597 47.7009 117.405 47.7009 117.405H86.9371Z" fill="#BDE2DD"/>
<path d="M74.9054 104.284H60.7175V116.4H74.9054V104.284Z" fill="#7DC6BC"/>
<path d="M98.5429 192.563H37.08L36.9469 172.855L13.895 129.787L32.6613 106.903L40.8067 116.03H98.5429L101.684 162.061L107.38 178.701L98.5429 192.563Z" fill="#ADDBD5"/>
<path d="M99.9511 190.742L88.0161 213.258L117.125 228.498L129.06 205.981L99.9511 190.742Z" fill="#7DC6BC"/>
<path d="M111.893 168.193L99.9624 190.711L129.074 205.946L141.005 183.427L111.893 168.193Z" fill="#7DC6BC"/>
<path d="M98.9616 188.71L87.0305 211.229L116.142 226.463L128.073 203.945L98.9616 188.71Z" fill="#BDE2DD"/>
<path d="M110.88 166.199L98.949 188.717L128.06 203.952L139.992 181.433L110.88 166.199Z" fill="#D4ECE9"/>
<path d="M120.77 328.751H14.8533V340.999H120.77V328.751Z" fill="#7DC6BC"/>
<path d="M116.218 320.127H19.4316L15.1194 328.698H120.53L116.218 320.127Z" fill="#D9EEEC"/>
<path d="M105.544 226.188H30.1058L19.3784 320.128H116.244L105.544 226.188Z" fill="#C3E5E0"/>
<path d="M99.0753 226.188H36.5477L27.6836 320.128H107.966L99.0753 226.188Z" fill="#ADDBD5"/>
<path d="M91.6487 226.188H43.9743L37.2131 320.128H98.4099L91.6487 226.188Z" fill="#C3E5E0"/>
<path d="M85.2336 226.188H50.3896L45.4385 320.128H90.1847L85.2336 226.188Z" fill="#ADDBD5"/>
<path d="M78.073 226.188H57.5765L54.675 320.128H80.9745L78.073 226.188Z" fill="#C3E5E0"/>
<path d="M71.3917 226.188H64.2312L63.2197 320.128H72.4032L71.3917 226.188Z" fill="#ADDBD5"/>
<path d="M67.8248 110.369C76.2192 110.369 83.0242 100.455 83.0242 88.2265C83.0242 75.9975 76.2192 66.084 67.8248 66.084C59.4305 66.084 52.6255 75.9975 52.6255 88.2265C52.6255 100.455 59.4305 110.369 67.8248 110.369Z" fill="#E5F4F2"/>
<path d="M62.3947 87.0088H57.55V88.3315H62.3947V87.0088Z" fill="#7DC6BC"/>
<path d="M61.5161 88.7822C61.4666 89.1578 61.2813 89.5027 60.9948 89.7526C60.7083 90.0024 60.3401 90.1402 59.9589 90.1402C59.5777 90.1402 59.2096 90.0024 58.9231 89.7526C58.6365 89.5027 58.4513 89.1578 58.4017 88.7822C58.3727 88.5619 58.3913 88.3381 58.4563 88.1256C58.5212 87.9131 58.6311 87.7168 58.7785 87.5499C58.9259 87.383 59.1074 87.2492 59.311 87.1576C59.5146 87.0659 59.7355 87.0186 59.9589 87.0186C60.1824 87.0186 60.4033 87.0659 60.6069 87.1576C60.8104 87.2492 60.992 87.383 61.1394 87.5499C61.2868 87.7168 61.3966 87.9131 61.4616 88.1256C61.5266 88.3381 61.5452 88.5619 61.5161 88.7822Z" fill="#7DC6BC"/>
<path d="M77.7536 87.0088H72.9089V88.3315H77.7536V87.0088Z" fill="#7DC6BC"/>
<path d="M76.9019 88.7822C76.8524 89.1578 76.6671 89.5027 76.3806 89.7526C76.094 90.0024 75.7259 90.1402 75.3447 90.1402C74.9635 90.1402 74.5953 90.0024 74.3088 89.7526C74.0223 89.5027 73.837 89.1578 73.7875 88.7822C73.7584 88.5619 73.777 88.3381 73.842 88.1256C73.907 87.9131 74.0168 87.7168 74.1642 87.5499C74.3116 87.383 74.4932 87.2492 74.6967 87.1576C74.9003 87.0659 75.1212 87.0186 75.3447 87.0186C75.5682 87.0186 75.7891 87.0659 75.9926 87.1576C76.1962 87.2492 76.3777 87.383 76.5251 87.5499C76.6725 87.7168 76.7824 87.9131 76.8474 88.1256C76.9123 88.3381 76.9309 88.5619 76.9019 88.7822Z" fill="#7DC6BC"/>
<path d="M87.6027 84.654C87.6027 84.654 77.5407 86.7439 71.1788 81.744C64.8169 76.744 64.6572 66.4796 64.6572 66.4796C64.6572 66.4796 74.7191 64.3897 81.0544 69.4161C87.3897 74.4425 87.6027 84.654 87.6027 84.654Z" fill="#BDE2DD"/>
<path d="M47.9138 84.654C47.9138 84.654 58.0024 86.7439 64.3376 81.744C70.6729 76.744 70.8859 66.4796 70.8859 66.4796C70.8859 66.4796 60.7973 64.3897 54.4621 69.4161C48.1268 74.4425 47.9138 84.654 47.9138 84.654Z" fill="#BDE2DD"/>
<path d="M74.5328 57.486C81.9063 38.6503 86.4581 23.095 85.9523 22.804C85.4466 22.513 77.9667 37.3541 70.6465 56.1897L74.5328 57.486Z" fill="#E5F4F2"/>
<path d="M75.3844 63.8354C89.1464 48.333 99.0752 34.9469 98.6759 34.7353C98.2766 34.5237 85.9787 46.0314 72.1902 61.5338L75.3844 63.8354Z" fill="#E5F4F2"/>
<path d="M70.6197 63.3329C91.3026 57.2748 107.54 51.0844 107.38 50.5818C107.221 50.0791 90.0781 53.6769 69.3687 59.6821L70.6197 63.3329Z" fill="#E5F4F2"/>
<path d="M61.037 57.486C53.637 38.6503 49.0852 23.095 49.5909 22.804C50.0967 22.513 57.5766 37.3541 64.8968 56.1897L61.037 57.486Z" fill="#E5F4F2"/>
<path d="M60.2385 63.8354C46.5032 48.333 36.5477 34.9469 36.9736 34.7353C37.3995 34.5237 49.6442 46.0314 63.4327 61.5338L60.2385 63.8354Z" fill="#E5F4F2"/>
<path d="M65.0299 63.3329C44.3204 57.2748 28.1095 51.0844 28.2692 50.5818C28.4289 50.0791 45.5715 53.6769 66.2543 59.6821L65.0299 63.3329Z" fill="#E5F4F2"/>
<path d="M69.8745 52.4598C69.8745 30.8992 68.3572 13.5186 67.8248 13.5186C67.2924 13.5186 65.7752 30.8992 65.7485 52.4598H69.8745Z" fill="#E5F4F2"/>
<path d="M52.865 70.8987H82.7579L87.8421 56.3222C81.774 52.7221 74.8386 50.8213 67.7715 50.8213C60.7044 50.8213 53.769 52.7221 47.7009 56.3222L52.865 70.8987Z" fill="#7DC6BC"/>
<path d="M67.8248 53.8612C74.5449 53.8476 81.1519 55.5803 86.9903 58.8876L87.8954 56.2421C81.8272 52.642 74.8919 50.7412 67.8248 50.7412C60.7576 50.7412 53.8223 52.642 47.7542 56.2421L48.6326 58.8876C54.4802 55.5793 61.096 53.8466 67.8248 53.8612Z" fill="#E5F4F2"/>
<path d="M70.3802 62.3533C70.3802 65.9247 69.2355 68.7818 67.7183 68.7818C66.201 68.7818 65.0564 65.9247 65.0564 62.3533C65.0564 58.7819 66.201 55.9248 67.7183 55.9248C69.2355 55.9248 70.3802 58.8084 70.3802 62.3533Z" fill="#BDE2DD"/>
<path d="M63.2464 62.9884C63.6457 65.9513 62.8205 68.5174 61.4364 68.729C60.0522 68.9407 58.5615 66.7185 58.1889 63.7556C57.8162 60.7927 58.6148 58.2266 59.9989 58.0149C61.3831 57.8033 62.8472 60.0255 63.2464 62.9884Z" fill="#BDE2DD"/>
<path d="M56.8045 64.2049C57.3369 66.5858 56.8045 68.7551 55.7398 69.0461C54.675 69.3371 53.2376 67.6176 52.7318 65.2102C52.2261 62.8028 52.7318 60.6336 53.7966 60.369C54.8613 60.1045 56.2988 61.7976 56.8045 64.2049Z" fill="#BDE2DD"/>
<path d="M72.3766 62.9884C72.0039 65.9513 72.8025 68.5174 74.1867 68.729C75.5709 68.9407 77.0349 66.7185 77.4342 63.7556C77.8335 60.7927 77.0349 58.2266 75.6241 58.0149C74.2133 57.8033 72.7759 60.0255 72.3766 62.9884Z" fill="#BDE2DD"/>
<path d="M78.8185 64.2049C78.2861 66.5858 78.8185 68.7551 79.9098 69.0461C81.0012 69.3371 82.3854 67.6176 82.9178 65.2102C83.4501 62.8028 82.9178 60.6336 81.8264 60.369C80.735 60.1045 79.3508 61.7976 78.8185 64.2049Z" fill="#BDE2DD"/>
<path d="M23.3713 256.08L107.966 228.276L92.74 113.913H80.9745C80.9745 113.913 70.327 162.933 33.38 171.611C31.9426 187.351 23.3713 256.08 23.3713 256.08Z" fill="#E5F4F2"/>
<path d="M15.2792 15.3174H4.49854V27.3542H15.2792V15.3174Z" fill="#BDE2DD"/>
<path d="M19.3518 18.9941H0.39917V28.6765H19.3518V18.9941Z" fill="#7DC6BC"/>
<path d="M19.3518 28.6768H0.39917L2.58191 32.2746H17.1957L19.3518 28.6768Z" fill="#BDE2DD"/>
<path d="M17.1958 32.2744H2.58203V36.031H17.1958V32.2744Z" fill="#7DC6BC"/>
<path d="M13.8951 36.0312H5.8562V56.1103H13.8951V36.0312Z" fill="#BDE2DD"/>
<path d="M9.87569 0C9.87569 0 2.66198 8.41257 2.66198 11.0845C2.57742 11.8873 2.70193 12.6983 3.02357 13.4395C3.3452 14.1807 3.85316 14.8273 4.49868 15.3172H15.2793C15.9248 14.8273 16.4328 14.1807 16.7544 13.4395C17.0761 12.6983 17.2006 11.8873 17.116 11.0845C17.116 8.41257 9.87569 0 9.87569 0Z" fill="#E5F4F2"/>
<path d="M9.87554 4.3916C8.52302 6.89843 7.49449 9.565 6.81437 12.328C6.71383 13.3917 6.98656 14.4572 7.58631 15.3438H12.1648C12.7645 14.4572 13.0372 13.3917 12.9367 12.328C12.2566 9.565 11.228 6.89843 9.87554 4.3916Z" fill="#9BD3CC"/>
<path d="M10.1684 41.3491C10.1684 41.5992 10.1188 41.8469 10.0225 42.078C9.92619 42.3091 9.78502 42.519 9.60705 42.6959C9.42908 42.8728 9.2178 43.0131 8.98528 43.1088C8.75275 43.2045 8.50353 43.2538 8.25184 43.2538H1.91656C1.66487 43.2538 1.41565 43.2045 1.18312 43.1088C0.950595 43.0131 0.739315 42.8728 0.561346 42.6959C0.383378 42.519 0.242205 42.3091 0.145889 42.078C0.0495732 41.8469 0 41.5992 0 41.3491H0C0 40.8439 0.201922 40.3594 0.561346 40.0022C0.92077 39.645 1.40825 39.4443 1.91656 39.4443H8.25184C8.76014 39.4443 9.24763 39.645 9.60705 40.0022C9.96647 40.3594 10.1684 40.8439 10.1684 41.3491Z" fill="#E5F4F2"/>
<path d="M19.1123 48.5962C19.1657 49.0406 19.0426 49.4882 18.7692 49.8439C18.4959 50.1995 18.0937 50.4353 17.6483 50.501H12.8036C12.3582 50.4353 11.956 50.1995 11.6827 49.8439C11.4093 49.4882 11.2862 49.0406 11.3396 48.5962C11.3396 47.538 11.9784 46.665 12.8036 46.665H17.6483C18.4734 46.665 19.1123 47.538 19.1123 48.5962Z" fill="#E5F4F2"/>
<path d="M10.1684 44.7612C10.1684 45.0113 10.1188 45.259 10.0225 45.4901C9.92619 45.7212 9.78502 45.9312 9.60705 46.108C9.42908 46.2849 9.2178 46.4252 8.98528 46.5209C8.75275 46.6166 8.50353 46.6659 8.25184 46.6659H1.91656C1.40825 46.6659 0.92077 46.4652 0.561346 46.108C0.201922 45.7508 0 45.2663 0 44.7612H0C0 44.256 0.201922 43.7715 0.561346 43.4143C0.92077 43.0571 1.40825 42.8564 1.91656 42.8564H8.25184C8.76014 42.8564 9.24763 43.0571 9.60705 43.4143C9.96647 43.7715 10.1684 44.256 10.1684 44.7612Z" fill="#E5F4F2"/>
<path d="M10.1684 48.2006C10.1684 48.7058 9.96647 49.1903 9.60705 49.5475C9.24763 49.9047 8.76014 50.1054 8.25184 50.1054H1.91656C1.40825 50.1054 0.92077 49.9047 0.561346 49.5475C0.201922 49.1903 0 48.7058 0 48.2006H0C0 47.6955 0.201922 47.211 0.561346 46.8538C0.92077 46.4966 1.40825 46.2959 1.91656 46.2959H8.25184C8.76014 46.2959 9.24763 46.4966 9.60705 46.8538C9.96647 47.211 10.1684 47.6955 10.1684 48.2006Z" fill="#E5F4F2"/>
<path d="M10.1684 51.6127C10.1684 52.1179 9.96647 52.6024 9.60705 52.9596C9.24763 53.3168 8.76014 53.5175 8.25184 53.5175H1.91656C1.40825 53.5175 0.92077 53.3168 0.561346 52.9596C0.201922 52.6024 0 52.1179 0 51.6127H0C0 51.1076 0.201922 50.6231 0.561346 50.2659C0.92077 49.9087 1.40825 49.708 1.91656 49.708H8.25184C8.76014 49.708 9.24763 49.9087 9.60705 50.2659C9.96647 50.6231 10.1684 51.1076 10.1684 51.6127Z" fill="#E5F4F2"/>
<path d="M137.806 197.748C137.675 197.965 137.501 198.154 137.296 198.304C137.091 198.454 136.857 198.562 136.609 198.621C136.361 198.68 136.104 198.69 135.852 198.649C135.601 198.608 135.36 198.517 135.144 198.383L129.82 195.076C129.604 194.944 129.416 194.77 129.268 194.565C129.119 194.359 129.014 194.127 128.957 193.881C128.9 193.635 128.893 193.38 128.936 193.131C128.979 192.882 129.071 192.644 129.208 192.431C129.339 192.213 129.512 192.024 129.718 191.874C129.923 191.724 130.157 191.617 130.405 191.557C130.653 191.498 130.91 191.489 131.161 191.53C131.413 191.571 131.654 191.661 131.87 191.796L137.194 195.103C137.41 195.235 137.598 195.409 137.746 195.614C137.894 195.819 138 196.052 138.057 196.298C138.114 196.544 138.121 196.799 138.078 197.048C138.035 197.297 137.942 197.535 137.806 197.748Z" fill="#E5F4F2"/>
<path d="M135.996 200.658C135.865 200.875 135.691 201.065 135.486 201.215C135.28 201.364 135.047 201.472 134.799 201.531C134.551 201.59 134.294 201.6 134.042 201.559C133.791 201.518 133.55 201.428 133.334 201.293L128.01 197.986C127.791 197.856 127.601 197.684 127.45 197.48C127.299 197.275 127.191 197.043 127.132 196.797C127.072 196.551 127.063 196.295 127.104 196.045C127.145 195.795 127.236 195.555 127.371 195.341C127.502 195.123 127.676 194.934 127.881 194.784C128.087 194.634 128.32 194.527 128.568 194.468C128.816 194.409 129.073 194.399 129.325 194.44C129.576 194.481 129.817 194.571 130.033 194.706L135.357 198.013C135.573 198.145 135.761 198.319 135.909 198.524C136.058 198.729 136.163 198.962 136.22 199.208C136.277 199.454 136.284 199.709 136.241 199.958C136.198 200.207 136.106 200.445 135.969 200.658H135.996Z" fill="#E5F4F2"/>
<path d="M134.212 203.7C133.943 204.134 133.512 204.444 133.013 204.562C132.514 204.681 131.989 204.6 131.55 204.335L126.227 201.028C126.008 200.898 125.818 200.726 125.667 200.522C125.516 200.317 125.408 200.085 125.348 199.839C125.289 199.593 125.279 199.337 125.32 199.087C125.361 198.837 125.452 198.597 125.588 198.383C125.719 198.165 125.892 197.976 126.098 197.826C126.303 197.676 126.537 197.569 126.785 197.51C127.032 197.451 127.29 197.441 127.541 197.482C127.793 197.523 128.034 197.613 128.25 197.748L133.573 201.055C133.792 201.185 133.982 201.357 134.133 201.561C134.284 201.766 134.393 201.998 134.452 202.244C134.511 202.49 134.521 202.746 134.48 202.996C134.439 203.246 134.348 203.485 134.212 203.7Z" fill="#E5F4F2"/>
<path d="M132.402 206.479C132.271 206.697 132.098 206.886 131.892 207.036C131.687 207.186 131.453 207.293 131.205 207.353C130.957 207.412 130.7 207.421 130.449 207.38C130.197 207.339 129.956 207.249 129.74 207.114L124.416 203.808C124.198 203.677 124.007 203.505 123.856 203.301C123.706 203.097 123.597 202.865 123.538 202.618C123.478 202.372 123.469 202.116 123.51 201.866C123.551 201.616 123.642 201.377 123.777 201.162C123.909 200.945 124.082 200.756 124.287 200.606C124.493 200.456 124.726 200.348 124.974 200.289C125.222 200.23 125.479 200.22 125.731 200.261C125.983 200.302 126.223 200.393 126.439 200.527L131.763 203.834C131.982 203.964 132.172 204.136 132.323 204.341C132.474 204.545 132.582 204.777 132.642 205.023C132.701 205.27 132.711 205.525 132.669 205.775C132.628 206.025 132.537 206.265 132.402 206.479Z" fill="#E5F4F2"/>
</g>
<defs>
<clipPath id="clip0">
<rect width="141" height="341" fill="white"/>
</clipPath>
</defs>
</svg>
