<svg width="633" height="638" viewBox="0 0 633 638" fill="none" xmlns="http://www.w3.org/2000/svg">
<path fill-rule="evenodd" clip-rule="evenodd" d="M464.233 508.931C419.072 532.817 366.365 497.113 315.324 494.116C275.857 491.798 233.472 513.893 199.635 493.392C165.94 472.977 166.11 425.192 145.823 391.417C121.364 350.696 69.5038 323.114 68.8491 275.65C68.1744 226.735 99.0782 175.412 142.535 153.039C184.48 131.445 233.109 172.162 280.019 166.936C327.363 161.661 369.145 102.668 412.277 122.988C454.524 142.891 438.105 209.685 459.209 251.353C482.047 296.447 539.059 324.754 540.044 375.26C541.069 427.803 510.647 484.383 464.233 508.931Z" fill="#E5EFFF"/>
</svg>
