<svg width="77" height="93" viewBox="0 0 77 93" fill="none" xmlns="http://www.w3.org/2000/svg">
<g filter="url(#filter0_d_344_2097)">
<path d="M18.722 55.5936V73.7025L38.3065 85.0001L57.9058 73.7025V55.5936H18.722Z" fill="url(#paint0_radial_344_2097)"/>
<path d="M20.436 74.6862L25.8761 77.8311V55.5936H20.436V74.6862Z" fill="white"/>
<path d="M50.7516 77.8311L56.1769 74.6862V55.5936H50.7516V77.8311Z" fill="white"/>
<path d="M15.1599 14.7554V41.4939L38.3064 54.8632L61.4679 41.4939V14.7554L38.3064 1.401L15.1599 14.7554Z" fill="#6DAAFB"/>
<path d="M14.4296 14.1443V17.2742V14.189L16.1883 13.2202C16.4318 13.7103 16.8282 14.1077 17.3176 14.3524C17.807 14.5971 18.3628 14.6758 18.9009 14.5765C19.1711 14.5428 19.4334 14.4621 19.6759 14.3381C19.9293 14.2188 20.1231 14.0996 20.3615 13.9655L21.688 13.2202L26.994 10.2393C28.7676 9.24075 30.5264 8.22725 32.2851 7.25846L33.6116 6.49833C33.8351 6.36419 34.0438 6.27477 34.2823 6.11082C34.523 5.94926 34.7389 5.75344 34.9232 5.52955C35.2559 5.11445 35.4601 4.61108 35.5104 4.08144C35.5607 3.55179 35.455 3.019 35.2064 2.54866L38.2767 0.775031L41.4066 2.56356C41.1541 3.03285 41.0462 3.5664 41.0966 4.0969C41.147 4.62741 41.3534 5.13111 41.6898 5.54445C41.8649 5.77148 42.0764 5.9679 42.3158 6.12572C42.5691 6.28967 42.7629 6.3791 42.9865 6.51324L44.313 7.27337C46.0717 8.28687 47.8304 9.30037 49.604 10.2543L54.9249 13.2351L56.2514 13.9804C56.4681 14.1165 56.692 14.2409 56.9221 14.353C57.1655 14.4748 57.4274 14.5554 57.6971 14.5914C58.2156 14.6547 58.7411 14.557 59.2022 14.3118C59.6634 14.0665 60.0381 13.6855 60.2756 13.2202L62.1238 14.189V17.2742V14.1443L60.3203 12.9669H60.216V13.0712C60.0043 13.5064 59.658 13.8617 59.2285 14.0846C58.7989 14.3074 58.3089 14.3858 57.8313 14.3083C57.602 14.27 57.3804 14.1945 57.1755 14.0847L56.5197 13.7121L55.2081 12.9371L49.9021 9.77731C48.1583 8.734 46.3996 7.7205 44.6409 6.69209L43.3293 5.96177L42.748 5.54445C42.5648 5.4235 42.4036 5.2723 42.2711 5.09732C41.9952 4.75019 41.839 4.32323 41.8255 3.88007C41.8121 3.43691 41.9422 3.00128 42.1965 2.63809L42.4052 2.3549L42.0922 2.17605L38.4853 0.104331L38.2767 0L38.1276 0.0894266L34.5506 2.17605L34.2376 2.3549L34.4462 2.63809C34.7067 2.99517 34.847 3.42573 34.847 3.8677C34.847 4.30968 34.7067 4.74024 34.4462 5.09732C34.3084 5.27279 34.1422 5.42393 33.9544 5.54445L33.2986 5.96177L31.9721 6.7219C30.2283 7.75031 28.4546 8.76381 26.7108 9.80712L21.4645 12.8774L20.1529 13.6525C19.9442 13.7717 19.7206 13.9207 19.512 14.0251C19.3026 14.1369 19.0759 14.2125 18.8413 14.2486C18.3638 14.3238 17.8748 14.2443 17.4458 14.0217C17.0167 13.7992 16.6701 13.4452 16.4566 13.0116V12.9072H16.3522L14.4296 14.0847V14.1443Z" fill="url(#paint1_linear_344_2097)"/>
<path d="M62.1237 41.6431V14.1444L60.2607 13.0712C60.2581 13.1259 60.2581 13.1806 60.2607 13.2352C59.9398 13.7878 59.4128 14.1907 58.7954 14.3555C58.178 14.5204 57.5204 14.4337 56.9668 14.1146L42.6585 5.96183C42.1034 5.64342 41.6973 5.11762 41.5296 4.49998C41.3619 3.88235 41.4463 3.2234 41.7642 2.66795C41.8025 2.6208 41.8374 2.571 41.8686 2.51891L38.2766 0.387573V55.3998L62.1237 41.6431Z" fill="white"/>
<path d="M34.8486 2.59343C35.0206 2.87003 35.1345 3.17875 35.1833 3.50078C35.2321 3.8228 35.2148 4.1514 35.1326 4.46654C35.0503 4.78168 34.9047 5.07677 34.7047 5.33385C34.5047 5.59092 34.2545 5.80459 33.9693 5.96183L19.7355 14.1146C19.4619 14.2746 19.1593 14.3788 18.8451 14.4212C18.531 14.4636 18.2116 14.4433 17.9053 14.3615C17.599 14.2798 17.312 14.1381 17.0608 13.9448C16.8096 13.7515 16.5991 13.5103 16.4417 13.2352C16.4328 13.1809 16.4328 13.1255 16.4417 13.0712L14.4296 14.1444V41.6431L38.2767 55.3998V0.387573L34.7443 2.44439C34.7755 2.49648 34.8104 2.54628 34.8486 2.59343Z" fill="white"/>
<path d="M19.3928 17.1103L19.4971 21.0749C19.4971 22.3865 19.4971 23.713 19.6312 25.0395C19.6312 23.713 19.7207 22.3865 19.7505 21.0749L19.8548 17.2445C22.9748 15.5454 26.0799 13.8164 29.1701 12.0577L33.8054 9.40472L38.2767 6.84116L42.748 9.40472L47.4429 12.0577C50.5281 13.8164 53.6283 15.5304 56.7433 17.2445L56.8476 21.0749C56.8476 22.3865 56.9221 23.713 56.9818 25.0395C56.9818 23.713 57.0712 22.3865 57.101 21.0749L57.2053 17.1103V16.9762L57.0712 16.9017C54.0009 15.0436 50.9156 13.2004 47.8155 11.3721L43.1951 8.6446L38.5301 5.9618L38.2767 5.79785L38.0829 5.9618L33.4178 8.6446L28.7677 11.3721C25.6675 13.1905 22.5823 15.0336 19.512 16.9017L19.3928 16.9762V17.1103Z" fill="url(#paint2_linear_344_2097)"/>
<path d="M19.6312 17.1103V38.677L38.3064 49.4678L56.9966 38.677V17.1103L38.3064 6.31946L19.6312 17.1103Z" fill="url(#paint3_linear_344_2097)"/>
<path d="M68.2346 27.1709L68.0558 22.6995L38.4109 14.0401L38.2767 14.0103L8.81065 22.6846H8.55727L8.39332 27.156C8.39332 27.8565 7.79714 44.4302 14.3551 56.9648C21.1813 69.9317 35.2213 76.0723 35.8622 76.3406L38.2767 77.3839L40.7061 76.3406C41.3023 76.0872 55.3721 69.9466 62.1983 56.9648C68.8308 44.4153 68.2644 27.8714 68.2346 27.1709Z" fill="#7C3600"/>
<path d="M67.9066 27.1857L67.7427 23.0423L38.366 14.3977L8.9745 23.0423L8.82545 27.1857C8.82545 27.8713 8.22927 44.3556 14.7872 56.771C21.5389 69.6186 35.5044 75.7146 36.0857 76.0126L38.366 76.9963L40.6315 76.0126C41.2277 75.7593 55.1782 69.6634 61.9598 56.8157C68.5028 44.3556 67.9364 27.8713 67.9066 27.1857Z" fill="url(#paint4_linear_344_2097)"/>
<g style="mix-blend-mode:overlay" opacity="0.55">
<path d="M38.3958 22.327V14.4127L9.0788 23.0424L15.6964 28.3335L38.3958 22.327Z" fill="white"/>
</g>
<path opacity="0.33" d="M67.9067 27.1857L67.7576 23.0423L38.3661 14.3977L67.7427 23.0423L62.1238 27.3646H38.3661V76.9516L40.6316 76.0126C41.2277 75.7593 55.1783 69.6634 61.9598 56.8157C68.5029 44.3556 67.9365 27.8713 67.9067 27.1857Z" fill="#7C3600"/>
<g style="mix-blend-mode:overlay" opacity="0.2">
<path d="M67.7576 23.0721L67.7427 23.0423L38.3661 14.3977V27.3646H62.1387L67.7576 23.0721Z" fill="white"/>
</g>
<path d="M65.4027 27.2751L65.3133 24.9351L38.3661 17.006L11.4487 24.9351L11.3294 27.2751C11.3294 27.9458 10.7631 43.7743 16.9931 55.5936C23.3722 67.6811 36.5179 73.4193 37.0843 73.6577L38.3661 74.2092L39.6479 73.6726C40.1993 73.4193 53.3749 67.7109 59.7391 55.6085C65.9691 43.7744 65.4325 27.9458 65.4027 27.2751Z" fill="#D46200"/>
<path d="M65.4623 27.2752L65.3729 24.9352L58.6361 22.938L51.8993 20.8663L45.1774 18.8244L38.4555 16.8123H38.2767C36.0261 17.4681 33.8053 18.1089 31.5398 18.7796L24.8627 20.7768L11.4487 24.8159H11.3592V24.9054C11.1204 29.9424 11.39 34.9908 12.1641 39.9738C12.5121 42.4607 13.0098 44.9244 13.6545 47.3514C14.321 49.786 15.1936 52.1595 16.2628 54.446C18.4757 59.0146 21.612 63.0746 25.4737 66.3695C27.3771 68.0146 29.4052 69.5095 31.5398 70.8408C33.6656 72.2756 35.921 73.5081 38.2767 74.5222H38.381H38.4853C40.7365 73.6041 42.9013 72.4868 44.9538 71.1836C47.0463 69.9049 49.0392 68.47 50.9156 66.8912C52.7759 65.3191 54.4963 63.5886 56.0576 61.7193C57.614 59.8431 58.9632 57.8043 60.0818 55.6383C61.1874 53.4758 62.0905 51.2156 62.7795 48.8866C63.4661 46.5382 64.0038 44.1487 64.3892 41.7325C64.7916 39.3478 65.0748 36.9482 65.2686 34.5336C65.4597 32.1192 65.5244 29.6964 65.4623 27.2752ZM65.1046 34.5187C64.9301 36.9378 64.6266 39.3458 64.1955 41.7325C63.3518 46.4868 61.8152 51.0916 59.6347 55.3998C58.5061 57.5227 57.1573 59.521 55.6105 61.3616C54.0611 63.1991 52.361 64.9041 50.5281 66.4589C48.6864 68.0104 46.7337 69.4252 44.6856 70.6918C42.6869 71.9631 40.5826 73.0602 38.3959 73.9708C36.1141 73.0274 33.9197 71.8853 31.8379 70.5577C29.7398 69.2211 27.7467 67.7263 25.8762 66.0863C22.0203 62.8611 18.874 58.8724 16.6354 54.3714C14.5107 49.8145 13.0742 44.9674 12.3727 39.9887C11.9827 37.5201 11.724 35.0325 11.5977 32.5364C11.4487 31.2994 11.4487 29.958 11.4487 28.706C11.4487 27.454 11.4487 26.2617 11.5828 25.0246L24.9968 21.1793L31.7336 19.197C33.9693 18.5561 36.2049 17.8854 38.4108 17.2296L45.1029 19.1523L51.8546 21.0749L58.6063 23.0125L65.3282 24.965L65.4176 27.2752C65.4402 29.6935 65.3357 32.1114 65.1046 34.5187Z" fill="white"/>
<path d="M63.9719 27.2901V25.9487L38.4704 18.4965H38.366L12.7006 25.9487V27.2901C12.7006 27.9459 12.1342 43.4018 18.2003 54.9229C24.2664 66.444 37.0694 72.1226 37.5761 72.3611L38.3213 72.6741L39.0666 72.3611C39.6031 72.1226 52.3315 66.5633 58.4423 54.9229C64.5531 43.2825 64.0017 27.9459 63.9719 27.2901Z" fill="#461400"/>
<path d="M63.6141 27.3049V26.2318L38.3809 18.7795L13.1328 26.2318V27.3049C13.1328 27.9607 12.5963 43.3271 18.6027 54.7439C24.6092 66.1607 37.2333 71.7797 37.7698 72.0182L38.366 72.2716L38.9622 72.0182C39.4839 71.7797 52.1079 66.28 58.174 54.7439C64.2401 43.2079 63.6141 27.9607 63.6141 27.3049Z" fill="#7D2D00"/>
<path d="M63.6142 26.2318L38.381 18.7795V72.2716L38.9772 72.0182C39.4988 71.7797 52.1229 66.28 58.189 54.7439C64.2551 43.2079 63.6142 27.9607 63.6142 27.3049V26.2318Z" fill="#601F00"/>
<path opacity="0.51" d="M38.3959 18.8094V27.3646H62.1684L63.644 26.2468V26.2319L38.3959 18.8094Z" fill="#E97E0B"/>
<path opacity="0.75" d="M38.3065 18.8243L13.1329 26.2318L15.607 28.3334L38.3065 22.3269V18.8243Z" fill="#FF9D31"/>
<path d="M64.6128 30.3007L40.7657 23.3105L17.0527 30.3007C17.0527 30.3007 16.4416 45.7864 22.3438 56.9797C28.2459 68.1729 40.8253 73.5683 40.8253 73.5683C40.8253 73.5683 53.4195 68.1729 59.3068 56.9797C65.194 45.7864 64.6128 30.3007 64.6128 30.3007Z" fill="#7D2D00"/>
<path d="M17.7234 28.1844C17.2167 29.2575 15.7858 35.6366 15.7858 35.6366C15.9088 32.9031 16.2678 30.1854 16.8589 27.5137C17.008 27.1858 17.1272 26.8579 17.2614 26.5449L15.1449 27.1709C14.9959 29.5854 14.8767 32.7899 14.9512 36.3371C15.4912 42.4808 17.1425 48.4753 19.8249 54.0287C20.4306 55.1889 21.1179 56.3046 21.8817 57.3673C21.5091 48.6631 20.8831 35.4429 20.3913 33.7438C19.8249 31.1802 18.2451 27.0964 17.7234 28.1844ZM20.3019 39.5118C20.2124 42.5821 19.5119 37.0227 18.8114 35.5025C18.1109 33.9822 16.6056 36.2179 16.0094 38.379C15.8753 39.1243 15.8007 39.6012 15.8007 39.5118C15.8341 39.1284 15.904 38.7491 16.0094 38.379C16.4267 36.0987 17.3955 31.1951 18.26 31.5081C19.3927 31.9105 20.3913 36.4415 20.3019 39.5118Z" fill="url(#paint5_linear_344_2097)"/>
<path d="M48.4713 23.3553L38.3065 20.3744L36.2646 20.9706C36.2646 21.2538 36.2646 21.4326 36.2646 21.4773C36.1155 22.1033 37.0545 23.1466 37.0545 23.1466C37.0545 23.1466 37.2035 37.5294 38.217 48.663C38.6494 52.9595 38.6494 57.2886 38.217 61.5852C38.3959 56.3984 36.7266 39.616 36.6223 39.0496C36.5179 38.4833 35.1765 23.7428 35.1765 22.3567C35.1765 22.1927 35.1765 21.7903 35.1765 21.2687L32.5832 22.0288C32.8664 25.0097 33.3731 30.9714 33.2986 31.8359C33.1793 33.073 32.9707 40.3314 32.9707 40.3314C32.9707 40.3314 32.613 30.569 32.3745 28.706C32.0991 26.5962 31.716 24.5019 31.2269 22.4312L19.6461 25.8443C19.8995 26.5448 20.1827 27.4689 20.5255 28.6464C21.1813 30.9863 21.7178 47.575 22.0159 57.5311C24.4522 60.8246 27.3892 63.7163 30.7201 66.1012C30.4816 57.6057 30.3177 50.4217 30.3177 50.4217C30.3177 50.4217 30.9735 57.874 31.8081 66.8166C33.8495 68.2737 36.0139 69.5504 38.2767 70.6321C42.9781 68.4253 47.2677 65.4311 50.9603 61.7789C50.6175 48.8121 50.3493 35.4279 50.3493 34.5485C49.9121 30.7882 49.2853 27.0524 48.4713 23.3553ZM43.8658 46.6509C44.1043 49.3039 44.462 60.8846 44.462 60.8846C43.4649 56.6333 42.8267 52.3058 42.5542 47.9476C42.0773 40.5848 44.0447 36.6351 45.088 36.4712C46.1313 36.3072 46.5784 37.7679 46.5784 37.7679C46.5784 37.7679 45.7438 36.8736 44.4471 38.0809C43.1504 39.2881 43.5677 43.983 43.8062 46.6509H43.8658ZM45.8779 51.9122C44.924 49.3188 45.401 35.6365 47.5472 43.1037C48.3223 45.9802 46.7722 54.5056 45.8183 51.9122H45.8779Z" fill="url(#paint6_linear_344_2097)"/>
<path d="M61.3338 27.1409L59.6049 26.6342C59.739 29.615 59.8881 33.0133 59.8284 32.8046C59.7688 32.5959 59.2472 29.0785 58.8746 26.4255L56.3557 25.6803C56.3557 26.5 56.4749 27.3198 56.5197 27.7669C56.5197 27.3794 56.3855 26.4851 56.311 25.6654L51.8397 24.3389C51.9738 25.5759 52.1527 27.3198 52.1527 28.1842C52.1527 29.9578 52.2719 49.1249 52.1527 52.9256C52.1527 53.954 52.1527 56.9051 52.1527 60.661C54.0079 58.6694 55.5962 56.4449 56.8774 54.0434C57.3394 53.164 57.7716 52.2549 58.1591 51.3308C58.2193 50.5122 58.2193 49.6902 58.1591 48.8716C57.8611 46.0099 58.2635 47.3811 58.6212 50.1534C59.3098 48.3384 59.8822 46.4816 60.3352 44.594C60.3352 42.2689 60.4544 40.2568 60.6929 40.5996C60.8411 41.0819 60.9066 41.5859 60.8867 42.0901C60.991 41.5833 61.0804 41.0915 61.1698 40.5996C61.1501 40.2916 61.0636 39.9916 60.9165 39.7202C60.5439 39.3029 59.7986 44.8623 59.8135 44.7579C60.1265 41.4044 60.9016 38.1404 61.304 38.8856C61.3402 38.9452 61.3655 39.0108 61.3785 39.0794C61.5275 38.0659 61.6617 37.0822 61.7511 36.0985C61.6915 32.7897 61.5126 29.5852 61.3338 27.1409ZM57.2351 34.0268C57.2351 34.5186 57.3394 34.8316 57.3394 34.8763C57.3394 34.921 57.2947 34.5782 57.2351 34.0268Z" fill="url(#paint7_linear_344_2097)"/>
<path d="M14.9215 34.1461C14.9215 34.1461 15.2494 28.8252 15.309 28.1844C15.3228 27.9645 15.4049 27.7544 15.5438 27.5834C15.6827 27.4124 15.8716 27.289 16.084 27.2305C16.376 27.1095 16.6745 27.005 16.9783 26.9175C16.8024 27.4045 16.658 27.9024 16.546 28.4079C16.8971 27.8351 17.2155 27.243 17.4999 26.6343C17.4999 26.6343 17.7086 26.5002 16.7845 26.7833C16.0527 26.9793 15.3115 27.1385 14.5637 27.2603L13.0733 26.3064C13.6343 26.8569 14.1341 27.4666 14.5637 28.1247C14.4296 28.3185 14.9215 34.1461 14.9215 34.1461Z" fill="#FF9D31"/>
<path d="M19.661 26.1721C19.661 26.1721 20.3168 28.5568 20.6745 30.8521C21.0322 33.1474 21.1664 35.3235 21.1664 35.3235C21.2784 32.9693 21.1786 30.6099 20.8683 28.2737C20.3764 26.7832 20.0783 25.6952 20.0783 25.6952L19.661 25.7995V26.1721Z" fill="#FF9D31"/>
<path d="M20.0336 26.2319L30.9288 23.0871C31.2774 23.3259 31.5224 23.6881 31.6144 24.1006C31.7485 24.7564 31.361 22.4313 31.361 22.4313L19.9442 25.7848L20.0336 26.2319Z" fill="#FF9D31"/>
<path d="M33.2688 30.3306L32.5981 22.0437L35.2809 21.2836L35.1915 22.8783L34.8934 21.7605L33.1197 22.4312C33.1197 22.4312 33.7457 29.7344 33.552 32.3278C33.3582 34.9211 33.0899 36.9779 33.0899 36.9779C33.0899 36.9779 33.1197 31.046 33.2688 30.3306Z" fill="#FF9D31"/>
<path d="M36.0559 21.1643C36.122 21.6384 36.242 22.1035 36.4136 22.5504C36.6546 23.033 36.8637 23.5309 37.0396 24.0408L37.5016 38.6174C37.5016 38.6174 38.2021 24.2793 38.0233 23.5639C37.8444 22.8485 37.2632 22.759 37.0545 22.297C36.9211 21.8734 36.8705 21.4281 36.9055 20.9854L38.3959 20.6128L48.1136 23.5937L48.993 25.8741L48.7098 23.3999L38.6344 20.2551L38.3512 18.7646L38.0978 20.1657L36.1006 20.896L36.0559 21.1643Z" fill="#FF9D31"/>
<path d="M52.1527 50.3173C52.1527 50.3173 52.1527 35.8153 52.1527 32.1786C52.0913 29.5467 51.8473 26.9221 51.4224 24.324C52.3363 24.3267 53.2451 24.4623 54.1201 24.7264C55.059 25.099 59.0236 26.2168 59.0236 26.2168L59.59 31.2993C59.59 31.2993 59.0981 26.8279 58.5765 26.6044C58.0548 26.3808 56.9221 26.1274 56.9221 26.1274L56.5495 27.6179C56.5444 27.055 56.5096 26.4928 56.4452 25.9337C56.4452 25.9337 52.9277 24.9202 52.6594 24.8605C52.3912 24.8009 52.2421 25.1735 52.2421 25.1735C52.2421 25.1735 52.6147 31.3738 52.6743 35.7557C52.734 40.1376 52.1527 50.3173 52.1527 50.3173Z" fill="#FF9D31"/>
<path d="M47.0554 42.1795C47.4696 44.1416 47.5101 46.1642 47.1746 48.1413C46.6232 51.2116 46.2208 52.6126 46.2208 52.6126C46.2208 52.6126 48.8588 48.663 48.7843 45.6225C48.7616 44.7269 48.5398 43.8477 48.135 43.0485C47.7303 42.2494 47.1528 41.5503 46.4443 41.0021L47.0554 42.1795Z" fill="#FF9D31"/>
<path d="M61.9896 27.1111L59.6049 26.6342C59.6049 26.6342 59.8433 32.4767 59.8433 32.596L60.0818 27.0366C60.0818 27.0366 61.6617 27.4539 61.8852 27.8713C62.0573 29.1356 62.137 30.4109 62.1237 31.6868L62.392 27.5881C62.392 27.5881 63.4204 26.4553 63.6291 26.2765C63.3608 26.4255 61.9896 27.1111 61.9896 27.1111Z" fill="#FF9D31"/>
<path d="M30.1388 49.1847L31.6292 66.2801C31.8425 63.6364 31.8425 60.9797 31.6292 58.336C31.3013 55.8917 30.1388 49.1847 30.1388 49.1847Z" fill="#FF9D31"/>
<path d="M46.5188 41.9709C45.8907 44.2379 45.5699 46.5789 45.5649 48.9313C45.5498 50.1597 45.7725 51.3794 46.2207 52.5233C46.2207 52.5233 44.0596 50.064 44.7303 45.071C45.401 40.078 46.6977 40.242 46.5188 41.9709Z" fill="#471100"/>
<path d="M33.9395 20.1061L35.1468 21.5667L37.457 48.4394L36.0559 20.9556L33.9395 20.1061Z" fill="#471100"/>
<path d="M30.3922 67.7258L30.7052 66.1161L30.3326 51.316L31.3163 66.5186L30.3922 67.7258Z" fill="#471100"/>
<path d="M42.748 42.5074C42.5915 45.1122 42.6663 47.7257 42.9715 50.3173C43.4783 54.5502 44.3428 60.8846 44.3428 60.8846C43.2767 57.0623 42.5976 53.1426 42.3158 49.1846C42.1187 46.0443 42.3747 42.8919 43.0759 39.8246L42.748 42.5074Z" fill="#471100"/>
<path d="M50.6771 29.302C50.1554 26.5149 49.8126 23.7427 49.8126 23.7427L48.9929 21.9243L48.665 23.4148C48.665 23.4148 50.3343 33.0877 50.4237 37.3355C50.5131 41.5833 50.9901 61.7937 50.9901 61.7937L51.6161 63.2841V60.8845C51.6161 60.8845 51.2136 32.0891 50.6771 29.302Z" fill="#471100"/>
<path opacity="0.3" d="M72.4673 45.8162H72.2438C72.1832 45.6296 72.1033 45.4497 72.0053 45.2797L67.1316 36.5755C66.8366 36.0432 66.4047 35.5995 65.8806 35.2903C65.3565 34.981 64.7592 34.8176 64.1507 34.8168H12.4472C11.8386 34.8176 11.2414 34.981 10.7173 35.2903C10.1932 35.5995 9.76126 36.0432 9.46629 36.5755L4.60744 45.2797C4.51559 45.4528 4.4359 45.6321 4.36897 45.8162H4.14541V47.0384C4.14119 47.6552 4.30062 48.2621 4.60744 48.7971L9.07877 56.6816C9.4192 57.3017 9.91937 57.8195 10.5274 58.1812C11.1354 58.5429 11.8291 58.7353 12.5366 58.7384H64.1358C64.8481 58.7325 65.5455 58.534 66.1542 58.1641C66.763 57.7941 67.2603 57.2664 67.5936 56.6369L72.0649 48.7524C72.3717 48.2173 72.5312 47.6105 72.527 46.9937L72.4673 45.8162Z" fill="black"/>
<path d="M72.4674 44.8474H72.2439C72.1833 44.6607 72.1033 44.4809 72.0054 44.3108L67.1316 35.6066C66.8367 35.0744 66.4048 34.6306 65.8806 34.3214C65.3565 34.0122 64.7593 33.8487 64.1507 33.8479H12.4473C11.8387 33.8487 11.2415 34.0122 10.7173 34.3214C10.1932 34.6306 9.76133 35.0744 9.46636 35.6066L4.60752 44.3108C4.51566 44.4839 4.43598 44.6632 4.36905 44.8474H4.14548V46.0695C4.14285 46.6908 4.30208 47.3021 4.60752 47.8432L9.07885 55.7127C9.41927 56.3329 9.91945 56.8507 10.5275 57.2123C11.1355 57.574 11.8292 57.7664 12.5367 57.7695H64.1358C64.8436 57.768 65.538 57.5762 66.1463 57.2144C66.7546 56.8526 67.2545 56.3339 67.5937 55.7127L72.065 47.8432C72.3704 47.3021 72.5297 46.6908 72.527 46.0695L72.4674 44.8474Z" fill="#0071BC"/>
<path d="M64.6426 32.6108H11.9852C11.526 32.6115 11.0752 32.7348 10.6795 32.968C10.2839 33.2012 9.95766 33.5358 9.73466 33.9373L4.32435 43.5954C4.11163 43.9784 4 44.4093 4 44.8474C4 45.2855 4.11163 45.7164 4.32435 46.0994L9.73466 55.7574C9.95766 56.1589 10.2839 56.4936 10.6795 56.7268C11.0752 56.96 11.526 57.0833 11.9852 57.0839H64.6426C65.1 57.0838 65.5489 56.9605 65.9423 56.7271C66.3356 56.4937 66.6589 56.1588 66.8783 55.7574L72.2886 46.0994C72.5083 45.7187 72.624 45.2869 72.624 44.8474C72.624 44.4078 72.5083 43.9761 72.2886 43.5954L66.8783 33.9373C66.6589 33.536 66.3356 33.201 65.9423 32.9676C65.5489 32.7342 65.1 32.611 64.6426 32.6108Z" fill="#FFA01D"/>
<path opacity="0.1" d="M9.48119 55.3103C9.77544 55.8443 10.2068 56.2902 10.7308 56.602C11.2547 56.9138 11.8524 57.0801 12.4621 57.084H64.1805C64.7902 57.0801 65.3878 56.9138 65.9118 56.602C66.4358 56.2902 66.8671 55.8443 67.1614 55.3103L72.0351 46.6061C72.3419 46.0711 72.5014 45.4642 72.4972 44.8474H4.14541C4.14119 45.4642 4.30062 46.0711 4.60744 46.6061L9.48119 55.3103Z" fill="url(#paint8_linear_344_2097)"/>
<path d="M64.1657 34.0268C64.5306 34.03 64.8882 34.1296 65.2022 34.3154C65.5163 34.5012 65.7757 34.7667 65.9542 35.085L70.828 43.7892C71.0041 44.1141 71.0963 44.4778 71.0963 44.8474C71.0963 45.217 71.0041 45.5807 70.828 45.9056L65.9542 54.6098C65.7757 54.9281 65.5163 55.1936 65.2022 55.3794C64.8882 55.5652 64.5306 55.6648 64.1657 55.668H12.4473C12.0839 55.6668 11.7276 55.5679 11.4156 55.3817C11.1036 55.1956 10.8473 54.9289 10.6737 54.6098L5.78501 45.9056C5.6089 45.5807 5.51667 45.217 5.51667 44.8474C5.51667 44.4778 5.6089 44.1141 5.78501 43.7892L10.6737 35.085C10.8473 34.7658 11.1036 34.4992 11.4156 34.313C11.7276 34.1269 12.0839 34.028 12.4473 34.0268H64.1657ZM64.1657 32.6108H12.4473C11.8369 32.6115 11.238 32.7766 10.7135 33.0887C10.189 33.4008 9.75819 33.8484 9.4664 34.3845L4.60756 43.0887C4.30733 43.6262 4.14972 44.2317 4.14972 44.8474C4.14972 45.4631 4.30733 46.0686 4.60756 46.6061L9.48131 55.3103C9.77555 55.8443 10.2069 56.2902 10.7309 56.602C11.2548 56.9137 11.8525 57.0801 12.4622 57.0839H64.1806C64.7903 57.0801 65.3879 56.9137 65.9119 56.602C66.4359 56.2902 66.8672 55.8443 67.1615 55.3103L72.0352 46.6061C72.3354 46.0686 72.4931 45.4631 72.4931 44.8474C72.4931 44.2317 72.3354 43.6262 72.0352 43.0887L67.1615 34.3845C66.8697 33.8484 66.4389 33.4008 65.9144 33.0887C65.3898 32.7766 64.7909 32.6115 64.1806 32.6108H64.1657Z" fill="white"/>
<path opacity="0.5" d="M67.5936 44.8474H9.03412V45.5479H67.5936V44.8474Z" fill="url(#paint9_linear_344_2097)"/>
<path d="M12.9258 49.7659C10.3175 49.7659 9.78092 48.7226 9.78092 47.8283V47.1725L9.51264 47.098C9.19859 46.9996 8.92593 46.8 8.7372 46.5304C8.54847 46.2608 8.45428 45.9363 8.46933 45.6075C8.46311 45.367 8.52394 45.1295 8.64502 44.9215C8.7661 44.7136 8.94266 44.5434 9.15494 44.4301C9.23596 44.3814 9.32869 44.3557 9.42322 44.3556H9.84054V43.5805C9.81011 43.2765 9.87386 42.9705 10.0232 42.7039C10.1724 42.4373 10.4001 42.223 10.6752 42.0901C11.4002 41.8072 12.1794 41.69 12.9556 41.7473C13.4804 41.7253 14.0042 41.8118 14.4941 42.0016C14.9839 42.1914 15.4293 42.4803 15.8023 42.8502C16.4887 43.6228 16.8423 44.6352 16.786 45.6672C16.8184 46.2279 16.7389 46.7895 16.5521 47.3191C16.3653 47.8488 16.075 48.336 15.698 48.7524C15.3288 49.1005 14.8926 49.3699 14.4161 49.5441C13.9395 49.7183 13.4324 49.7938 12.9258 49.7659Z" fill="white"/>
<path d="M20.9592 49.6914C20.5153 49.7214 20.0756 49.589 19.7222 49.3188C19.4999 49.1163 19.344 48.8513 19.275 48.5587H19.0366C18.9315 48.9109 18.708 49.2161 18.4038 49.4225C18.0996 49.6289 17.7334 49.7239 17.3673 49.6914C17.1345 49.7048 16.9015 49.6693 16.6833 49.5871C16.4651 49.505 16.2665 49.378 16.1004 49.2145C15.9302 49.0559 15.8152 48.847 15.7725 48.6183C15.7656 48.5489 15.7656 48.479 15.7725 48.4096C16.0344 46.6881 16.4078 44.9854 16.8903 43.3123C16.9796 43.0736 17.1165 42.8555 17.2927 42.6714C17.1146 42.5705 16.9675 42.4227 16.8677 42.244C16.7678 42.0652 16.7189 41.8625 16.7264 41.6579C16.7644 41.3833 16.8648 41.121 17.0198 40.891C17.1748 40.6611 17.3803 40.4697 17.6206 40.3314C17.8029 40.2158 17.9921 40.1112 18.187 40.0184C18.0872 39.7985 18.0364 39.5595 18.038 39.3179C18.038 38.7665 18.4106 38.2448 19.1856 37.753C19.4926 37.5686 19.8113 37.4043 20.1395 37.2611H20.378C20.6375 37.2889 20.8873 37.3755 21.1083 37.5145C21.342 37.6526 21.5335 37.8519 21.6622 38.091C21.7909 38.33 21.8519 38.5996 21.8386 38.8708C21.8527 39.2015 21.7564 39.5274 21.5648 39.7973C21.3732 40.0671 21.0972 40.2656 20.7804 40.3612C21.1146 40.5748 21.4202 40.8302 21.6896 41.1214C21.7949 41.2408 21.8531 41.3944 21.8535 41.5536C21.8529 41.7363 21.8141 41.9168 21.7397 42.0836C21.6653 42.2505 21.5568 42.3999 21.4213 42.5224C21.3754 42.5757 21.3256 42.6255 21.2722 42.6714C21.473 42.8906 21.6253 43.1496 21.7194 43.4315C22.3013 45.0118 22.6478 46.669 22.7478 48.35C22.7478 48.5736 22.6285 49.6914 20.9592 49.6914Z" fill="white"/>
<path d="M25.4901 49.766C25.0336 49.8367 24.5668 49.8003 24.1267 49.6597C23.6866 49.5191 23.2852 49.2781 22.9542 48.9558C22.6232 48.6335 22.3717 48.2386 22.2194 47.8024C22.0672 47.3662 22.0185 46.9006 22.077 46.4423V43.1633C22.077 42.7907 22.241 41.9561 23.8209 41.9561C25.4007 41.9561 25.5796 42.6715 25.5945 43.1186C25.5945 42.7311 25.818 41.9561 27.234 41.9561C28.6499 41.9561 28.9033 42.7907 28.9033 43.1633V46.4125C28.9378 46.8668 28.8727 47.3233 28.7125 47.7499C28.5524 48.1765 28.301 48.563 27.9759 48.8823C27.6509 49.2017 27.2601 49.4462 26.8307 49.5989C26.4013 49.7515 25.9438 49.8085 25.4901 49.766ZM25.5945 46.7851V43.6403V46.7851Z" fill="white"/>
<path d="M33.4491 49.6913C31.8543 49.6913 31.6755 48.8417 31.6755 48.484V45.0709C31.4695 45.0856 31.2628 45.0545 31.0702 44.98C30.8776 44.9054 30.7039 44.7892 30.5615 44.6397C30.4191 44.4901 30.3114 44.3109 30.2464 44.1149C30.1813 43.9189 30.1603 43.711 30.185 43.506C30.1646 43.0372 30.3246 42.5785 30.6322 42.2242C30.6898 42.1583 30.7608 42.1057 30.8405 42.0697C30.9202 42.0337 31.0067 42.0152 31.0942 42.0155H35.3271C35.5214 42.0201 35.7126 42.0656 35.8882 42.1489C36.0638 42.2322 36.2199 42.3516 36.3464 42.4992C36.4729 42.6467 36.567 42.8193 36.6224 43.0056C36.6779 43.1919 36.6936 43.3877 36.6685 43.5805C36.6947 43.8545 36.6446 44.1305 36.5236 44.3778C36.4025 44.6251 36.2154 44.8341 35.9829 44.9815C35.8892 45.0405 35.7806 45.0715 35.6699 45.0709H35.178V48.5437C35.178 48.8417 35.029 49.6913 33.4491 49.6913Z" fill="white"/>
<path d="M40.9461 49.6913C40.6779 49.7247 40.4057 49.6993 40.1483 49.6169C39.891 49.5346 39.6546 49.3972 39.4556 49.2144C39.3984 49.1672 39.3482 49.112 39.3066 49.0504C39.1128 49.3783 38.6657 49.6913 37.6969 49.6913C36.1021 49.6913 35.9233 48.8418 35.9233 48.4841V43.4762C35.923 43.1777 36.0123 42.886 36.1798 42.6388C36.3472 42.3917 36.5849 42.2005 36.8623 42.0901C37.5274 41.884 38.2239 41.7982 38.9191 41.8367C39.8875 41.7795 40.8429 42.082 41.6019 42.6863C41.9336 42.9614 42.1985 43.3083 42.3767 43.7007C42.5548 44.0931 42.6415 44.5209 42.6303 44.9517C42.6454 45.6035 42.4465 46.2422 42.0639 46.7701L42.6601 48.1115C42.6744 48.2053 42.6744 48.3008 42.6601 48.3947C42.6404 48.6735 42.5245 48.9369 42.3322 49.1399C42.1544 49.3261 41.9386 49.4718 41.6994 49.567C41.4601 49.6622 41.2032 49.7046 40.9461 49.6913Z" fill="white"/>
<path d="M45.3578 49.7659C44.9012 49.8367 44.4344 49.8003 43.9943 49.6597C43.5542 49.5191 43.1528 49.2781 42.8218 48.9558C42.4908 48.6334 42.2393 48.2386 42.0871 47.8024C41.9348 47.3662 41.8861 46.9005 41.9446 46.4422V43.1633C41.9446 42.7907 42.1086 41.956 43.6885 41.956C45.2683 41.956 45.4621 42.7012 45.4621 43.1484C45.4621 42.7907 45.626 41.956 47.1016 41.956C47.0889 41.8302 47.1022 41.703 47.1407 41.5826C47.1791 41.4621 47.2419 41.3507 47.3251 41.2555C47.4278 41.1104 47.5598 40.9885 47.7127 40.8978C47.8097 40.8323 47.9235 40.7961 48.0406 40.7935H48.2194C48.6414 40.9408 49.0064 41.2172 49.2627 41.5834C49.5447 41.9141 49.712 42.3272 49.7397 42.7608C49.7496 43.0145 49.6994 43.2669 49.5932 43.4974C49.487 43.7279 49.3278 43.9301 49.1286 44.0873C49.0165 44.1766 48.8906 44.247 48.756 44.296V46.3826C48.7905 46.837 48.7254 47.2934 48.5653 47.72C48.4051 48.1466 48.1537 48.5331 47.8287 48.8525C47.5036 49.1718 47.1128 49.4164 46.6834 49.569C46.2541 49.7216 45.7965 49.7787 45.3429 49.7361L45.3578 49.7659ZM45.4621 46.785V43.1186V46.785Z" fill="white"/>
<path d="M51.7219 49.7809C51.1969 49.8103 50.6722 49.7179 50.1887 49.5111C49.7053 49.3043 49.2761 48.9885 48.9348 48.5885C48.3263 47.8023 48.0196 46.8241 48.0704 45.8312C48.0107 44.7859 48.3518 43.7572 49.0242 42.9546C49.4017 42.532 49.8855 42.2181 50.4253 42.0455C50.1029 41.9553 49.8202 41.7593 49.6228 41.4889C49.4255 41.2185 49.3249 40.8896 49.3372 40.555C49.3268 40.2809 49.3923 40.0092 49.5264 39.7699C49.6605 39.5306 49.8581 39.333 50.0974 39.1987C50.3071 39.0616 50.548 38.9796 50.7979 38.9603C50.8718 38.9468 50.9475 38.9468 51.0214 38.9603C51.5133 39.154 52.9143 39.7204 53.123 40.7637C53.2009 40.7413 53.2835 40.7413 53.3614 40.7637H53.5403C53.9623 40.9111 54.3273 41.1874 54.5836 41.5536C54.8656 41.8843 55.0329 42.2974 55.0605 42.7311C55.0759 43.0042 55.0193 43.2766 54.8966 43.521C55.2281 44.2081 55.3916 44.9642 55.3735 45.7269C55.4567 46.7394 55.165 47.7472 54.5538 48.5587C54.2085 48.9677 53.7731 49.2909 53.2817 49.503C52.7903 49.7151 52.2564 49.8102 51.7219 49.7809ZM51.7219 44.922C51.6524 45.2199 51.6223 45.5255 51.6325 45.8312C51.6041 46.208 51.6445 46.5867 51.7518 46.949C51.7518 46.8447 51.7518 46.5317 51.7518 45.8163C51.7834 45.5187 51.7784 45.2184 51.7368 44.922H51.7219Z" fill="white"/>
<path d="M59.5617 49.6913C59.3073 49.7055 59.0526 49.6693 58.8122 49.5849C58.5718 49.5005 58.3504 49.3695 58.1607 49.1995C58.0143 49.0535 57.8889 48.888 57.7881 48.7076C57.6688 49.2293 57.2366 49.6913 56.2976 49.6913C55.3586 49.6913 54.8072 49.0355 54.8072 48.4095V43.655C54.7778 43.3838 54.8235 43.1098 54.9391 42.8628C55.0547 42.6157 55.2359 42.4052 55.463 42.254C55.9223 42.0177 56.4385 41.9145 56.9534 41.9559C57.4955 41.918 58.0308 42.0947 58.4439 42.4478C58.5548 42.5607 58.6455 42.6917 58.7121 42.8353C58.8217 42.5397 59.0297 42.2909 59.3011 42.1308C59.5726 41.9706 59.8909 41.9089 60.2026 41.9559C61.3204 41.9559 61.693 42.6266 61.693 43.2377V47.9177C61.7113 48.1625 61.6753 48.4082 61.5877 48.6375C61.5001 48.8668 61.3631 49.0739 61.1863 49.2442C60.7217 49.5952 60.1405 49.7551 59.5617 49.6913Z" fill="white"/>
<path d="M64.5695 49.7658C64.0881 49.7848 63.6081 49.7017 63.1612 49.5219C62.7142 49.342 62.3103 49.0696 61.9762 48.7225C61.2906 47.9554 60.9369 46.9478 60.9925 45.9205C60.956 45.3653 61.0294 44.8083 61.2085 44.2815C61.3875 43.7546 61.6686 43.2683 62.0358 42.8502C62.3944 42.5045 62.8203 42.2361 63.2869 42.0618C63.7535 41.8875 64.2509 41.8108 64.7484 41.8367C65.4918 41.8078 66.233 41.9348 66.9244 42.2093C67.0081 42.2488 67.083 42.3048 67.1445 42.3739C67.2059 42.4431 67.2528 42.524 67.2822 42.6117C67.3715 42.967 67.4017 43.3346 67.3716 43.6997C67.3687 43.9466 67.3045 44.1889 67.1849 44.4048C67.0652 44.6207 66.8938 44.8035 66.686 44.9368C66.9304 44.9876 67.1508 45.1188 67.312 45.3094C67.6058 45.6749 67.7496 46.1385 67.7144 46.6061C67.7964 47.4477 67.5685 48.2903 67.0735 48.9759C66.7336 49.2738 66.3355 49.4978 65.9044 49.6337C65.4734 49.7697 65.0189 49.8147 64.5695 49.7658ZM64.7782 45.0709C64.6888 45.0709 64.5845 45.22 64.5845 45.8013C64.5845 45.9056 64.5845 46.0099 64.5845 46.0994V45.7715C64.5853 45.5979 64.655 45.4317 64.7782 45.3094C64.8704 45.2231 64.9761 45.1526 65.0912 45.1008L64.7782 45.0709Z" fill="white"/>
<path d="M10.372 45.2613C10.0764 45.2711 9.76115 45.281 9.42619 45.3007C9.18975 45.4287 9.07153 45.6455 9.07153 45.9312C9.07153 46.3548 9.27841 46.6307 9.69219 46.7784C9.85967 46.8376 10.0863 46.8868 10.372 46.9164V48.0986C10.372 48.9754 11.2094 49.4089 12.894 49.4089C13.8595 49.4089 14.6181 49.133 15.1797 48.5715C15.7806 47.9705 16.086 47.0839 16.086 45.9312C16.086 44.8967 15.82 44.0987 15.2782 43.547C14.7363 42.9855 13.9285 42.7096 12.8743 42.7096C11.899 42.7096 11.2291 42.7983 10.8646 42.9855C10.5394 43.153 10.372 43.4485 10.372 43.8722V45.2613ZM12.5886 44.6209C12.6576 44.5913 12.7857 44.5716 12.9827 44.5716C13.2586 44.5716 13.4556 44.6702 13.5837 44.8672C13.7314 45.1036 13.8103 45.5273 13.8103 46.1282C13.8103 47.1331 13.5443 47.6356 13.0123 47.6356C12.8349 47.6356 12.697 47.6159 12.5886 47.5863V46.9558C12.7561 46.9558 12.9334 46.9459 13.1206 46.9361C13.3571 46.7883 13.4753 46.5716 13.4753 46.2859C13.4753 45.8425 13.2684 45.547 12.8546 45.4189C12.7758 45.3893 12.6871 45.3696 12.5886 45.3499V44.6209ZM19.7962 48.4336C19.8455 48.7587 19.9539 48.9853 20.1017 49.1133C20.2691 49.2611 20.5548 49.3301 20.9391 49.3301C21.7174 49.3301 22.1016 49.0542 22.1016 48.4927C22.1016 47.4188 21.7666 45.8425 21.0967 43.7638C20.8898 43.1037 20.279 42.7687 19.2642 42.7687C18.2791 42.7687 17.6781 43.1037 17.4712 43.7638C17.1264 44.8475 16.7619 46.5223 16.3678 48.7882C16.3777 48.8769 16.4269 48.9656 16.5156 49.0542C16.6929 49.2414 16.9688 49.3301 17.3333 49.3301C18.0131 49.3301 18.3874 49.0247 18.4564 48.4237L18.486 48.1971H19.7568L19.7962 48.4336ZM19.0968 44.6209C19.1953 44.6209 19.2642 44.7884 19.3135 45.1135L19.4022 45.7933C19.4514 46.1578 19.4908 46.4927 19.5401 46.7982H18.683C18.7224 46.5223 18.7618 46.1873 18.8111 45.7933C18.8505 45.4484 18.88 45.2219 18.8997 45.1135C18.949 44.7884 19.0081 44.6209 19.0968 44.6209ZM18.949 41.754C19.2347 42.2565 19.678 42.5126 20.2593 42.5126C20.545 42.5126 20.7716 42.4141 20.9588 42.2269C21.1262 42.0594 21.2051 41.8821 21.2051 41.6949C20.5647 41.0053 19.9046 40.6605 19.2347 40.6605C18.7815 40.6605 18.3382 40.8082 17.8948 41.1136C17.4712 41.3993 17.2643 41.6752 17.2643 41.9215C17.2643 42.3156 17.5402 42.5126 18.0919 42.5126L18.949 41.754ZM19.0081 40.2959C19.3726 40.2664 19.7371 40.1974 20.1017 40.0891C20.8307 39.8625 21.1952 39.5275 21.1952 39.0842C21.1952 38.7098 21.0474 38.4339 20.7519 38.2566C20.6041 38.1679 20.4465 38.1088 20.2987 38.099C20.013 38.2172 19.7273 38.365 19.4416 38.5423C18.8603 38.9068 18.5746 39.2516 18.5746 39.5768C18.5746 39.961 18.7224 40.1974 19.0081 40.2959ZM28.2622 43.419C28.2622 43.0347 27.9174 42.8476 27.2179 42.8476C26.5381 42.8476 26.2032 43.0347 26.2032 43.419L26.213 46.9065C26.213 47.2612 26.1638 47.5075 26.0554 47.6553C25.9569 47.7833 25.7992 47.8523 25.5727 47.8523C25.3461 47.8523 25.1884 47.7833 25.0998 47.6553C25.0012 47.5173 24.952 47.2809 24.952 46.9361V43.419C24.952 43.0347 24.5678 42.8476 23.7993 42.8476C23.0506 42.8476 22.6762 43.0347 22.6762 43.419L22.6861 46.7095C22.6861 48.5124 23.6121 49.4089 25.4741 49.4089C26.4101 49.4089 27.1194 49.1429 27.6021 48.6109C28.0455 48.1281 28.2622 47.4878 28.2622 46.6799V43.419ZM35.6965 44.6505C35.9428 44.5027 36.0709 44.2071 36.0709 43.7835C36.0709 43.1628 35.8147 42.8476 35.2926 42.8476H31.0563C30.8691 43.0545 30.7706 43.35 30.7706 43.7145C30.7706 44.3352 31.0563 44.6505 31.6178 44.6505H32.2878V48.7488C32.2878 49.1429 32.672 49.3399 33.4306 49.3399C34.1892 49.3399 34.5635 49.1429 34.5635 48.7488V44.6505H35.6965ZM38.9628 42.7293C38.0663 42.7293 37.4555 42.7983 37.1304 42.9362C36.7757 43.0742 36.5984 43.3402 36.5984 43.7342V48.7488C36.5984 49.1429 36.9826 49.3399 37.7412 49.3399C38.4998 49.3399 38.8742 49.1429 38.8742 48.7488V47.5666C39.0022 47.5764 39.1599 47.5863 39.3274 47.5863C39.5244 48.3449 39.7313 48.8375 39.948 49.0542C40.1352 49.2414 40.4603 49.3399 40.9233 49.3399C41.3765 49.3399 41.7016 49.2217 41.8987 48.9853C42.0071 48.867 42.0563 48.7488 42.0662 48.6306L41.3273 46.9164C41.7706 46.4927 41.9873 45.9213 41.9873 45.2219C41.9873 44.4534 41.7411 43.8525 41.2386 43.419C40.7066 42.9559 39.948 42.7293 38.9628 42.7293ZM39.0416 46.207C38.9825 46.207 38.9234 46.207 38.8643 46.1972V44.4436C39.5047 44.4436 39.8298 44.7194 39.8298 45.2711C39.8298 45.8918 39.5638 46.207 39.0416 46.207ZM48.139 44.0298C48.3656 44.079 48.5627 44.0396 48.74 43.8919C49.006 43.6751 49.1341 43.4091 49.1242 43.084C49.1144 42.8082 48.9962 42.5323 48.7794 42.2663C48.5233 41.9412 48.277 41.754 48.0504 41.685C47.9617 41.7343 47.8928 41.8033 47.8238 41.8919C47.6957 42.0594 47.6957 42.217 47.8238 42.3648C47.8533 42.4141 47.9223 42.4732 48.011 42.5422L48.208 42.7096C48.3361 42.8377 48.3262 42.9658 48.1982 43.0742C48.1588 43.1037 48.0898 43.1136 48.0011 43.084C47.8435 42.9264 47.5381 42.8476 47.0948 42.8476C46.415 42.8476 46.08 43.0347 46.08 43.419L46.0899 46.9065C46.0899 47.2612 46.0406 47.5075 45.9322 47.6553C45.8337 47.7833 45.6761 47.8523 45.4495 47.8523C45.2229 47.8523 45.0653 47.7833 44.9766 47.6553C44.8781 47.5173 44.8288 47.2809 44.8288 46.9361V43.419C44.8288 43.0347 44.4446 42.8476 43.6762 42.8476C42.9274 42.8476 42.5531 43.0347 42.5531 43.419L42.5629 46.7095C42.5629 48.5124 43.489 49.4089 45.351 49.4089C46.2869 49.4089 46.9962 49.1429 47.479 48.6109C47.9223 48.1281 48.139 47.4878 48.139 46.6799V44.0298ZM52.2436 44.749C52.3716 45.0051 52.4308 45.4484 52.4308 46.079C52.4308 46.7587 52.3716 47.2415 52.2436 47.5173C52.1352 47.7439 51.9677 47.8621 51.7411 47.8621C51.485 47.8621 51.3076 47.7538 51.2091 47.5272C51.0811 47.271 51.0219 46.7883 51.0219 46.0888C51.0219 44.9756 51.2584 44.414 51.7214 44.414C51.9677 44.414 52.1352 44.5224 52.2436 44.749ZM54.1942 43.8229C54.4011 43.616 54.4996 43.3697 54.4898 43.084C54.4799 42.8082 54.3617 42.5323 54.145 42.2663C53.8888 41.9412 53.6425 41.754 53.4159 41.685C53.3273 41.7343 53.2583 41.8033 53.1893 41.8919C53.0613 42.0594 53.0613 42.217 53.1893 42.3648C53.2189 42.4141 53.2879 42.4732 53.3765 42.5422L53.5736 42.7096C53.7016 42.8377 53.6918 42.9658 53.5637 43.0742C53.5243 43.1037 53.4553 43.1037 53.347 43.0742C52.9233 42.8476 52.4111 42.7293 51.8199 42.7293C50.7953 42.7293 50.0171 43.0347 49.4752 43.6357C48.9531 44.217 48.6871 45.0445 48.6871 46.0987C48.6871 47.0937 48.9235 47.872 49.4062 48.4533C49.9382 49.0936 50.7067 49.4187 51.7116 49.4187C52.7165 49.4187 53.4948 49.0838 54.0465 48.4237C54.5489 47.8227 54.805 47.0247 54.805 46.0494C54.805 45.1332 54.5982 44.3845 54.1942 43.8229ZM52.1352 42.0791C52.4209 41.9806 52.5687 41.7442 52.5687 41.3599C52.5687 40.8378 51.9973 40.3452 50.8446 39.8822C50.6968 39.892 50.5491 39.9511 50.4013 40.0398C50.0959 40.2171 49.9481 40.493 49.9481 40.8673C49.9481 41.3107 50.3126 41.6456 51.0416 41.8722C51.4062 41.9806 51.7707 42.0496 52.1352 42.0791ZM58.4909 44.1874C58.2742 43.6259 58.0969 43.281 57.9688 43.153C57.7619 42.9461 57.4072 42.8476 56.8851 42.8476C56.3432 42.8476 55.9689 42.9165 55.762 43.0446C55.5157 43.1924 55.3975 43.4879 55.3975 43.9116V48.6799C55.3975 49.1232 55.693 49.3399 56.2743 49.3399C56.8851 49.3399 57.1905 49.1232 57.1905 48.6799C57.1905 47.2513 57.1314 46.1775 57.0033 45.4484L58.0279 48.0198C58.2151 48.5025 58.4023 48.8375 58.5895 49.0148C58.8161 49.2316 59.1313 49.3399 59.5549 49.3399C60.1165 49.3399 60.5007 49.2414 60.7273 49.0444C60.9243 48.867 61.0229 48.5813 61.0229 48.1774V43.5076C61.0229 43.0643 60.7273 42.8476 60.146 42.8476C59.5451 42.8476 59.2495 43.0643 59.2495 43.5076C59.2495 44.877 59.3086 45.9213 59.4367 46.6504L58.4909 44.1874ZM64.7899 44.6505C64.8982 44.6505 65.0756 44.6702 65.3317 44.6997C65.578 44.7391 65.7849 44.7588 65.9425 44.7588C66.445 44.7588 66.711 44.4731 66.7602 43.9017C66.7898 43.616 66.7602 43.3303 66.6814 43.0446C66.1987 42.8377 65.5583 42.7293 64.7505 42.7293C63.785 42.7293 63.0363 43.0052 62.4944 43.5569C61.9131 44.1579 61.6176 45.0347 61.6176 46.1873C61.6176 47.2021 61.8934 47.9902 62.4353 48.5616C62.9574 49.1232 63.6766 49.4089 64.5731 49.4089C65.5879 49.4089 66.2775 49.2118 66.6223 48.8178C66.9376 48.473 67.0952 47.8227 67.0952 46.8671C67.0952 46.4632 67.0164 46.1676 66.8588 45.9903C66.711 45.8228 66.4647 45.744 66.1199 45.744C65.6962 45.744 65.4007 45.8228 65.2332 45.9706V47.6159C65.184 47.6257 65.1051 47.6257 65.0066 47.6257C64.6618 47.6257 64.4057 47.5075 64.2382 47.2809C64.0608 47.0247 63.9722 46.6011 63.9722 46.0002C63.9722 45.4879 64.0411 45.1332 64.1791 44.9263C64.2973 44.7391 64.5042 44.6505 64.7899 44.6505Z" fill="#ED1C24"/>
<path fill-rule="evenodd" clip-rule="evenodd" d="M26.3531 23.8472L25.891 23.7279C25.8337 23.7132 25.773 23.7204 25.7207 23.7479C25.6684 23.7754 25.6282 23.8214 25.6078 23.877C25.4882 24.115 25.3933 24.3648 25.3247 24.6222C25.166 25.2248 25.1256 25.8524 25.2054 26.4704C25.2124 26.5298 25.2401 26.5848 25.2838 26.6257C25.3274 26.6667 25.3841 26.6908 25.4439 26.6939H25.9954C25.9954 26.3362 25.9954 25.9636 25.9954 25.5463C26.0723 24.9718 26.1919 24.4039 26.3531 23.8472Z" fill="#F5ECE6"/>
<path fill-rule="evenodd" clip-rule="evenodd" d="M50.6622 27.8861H51.1243C51.184 27.8892 51.2407 27.9134 51.2844 27.9543C51.328 27.9952 51.3558 28.0503 51.3627 28.1097C51.386 28.3725 51.386 28.6368 51.3627 28.8996C51.3401 29.5219 51.1985 30.1341 50.9454 30.703C50.9222 30.7597 50.8791 30.8061 50.8243 30.8335C50.7695 30.8609 50.7066 30.8675 50.6473 30.8521L50.2002 30.7478C50.3157 30.3859 50.4103 30.0176 50.4834 29.6448C50.5859 29.0637 50.6457 28.4759 50.6622 27.8861Z" fill="#F5ECE6"/>
<path fill-rule="evenodd" clip-rule="evenodd" d="M49.5743 26.0828L50.9455 26.5597C51.0677 27.1375 51.1178 27.7283 51.0945 28.3184C51.0074 29.8707 50.4455 31.3587 49.4848 32.5811H48.3819L49.5743 26.0828Z" fill="url(#paint10_linear_344_2097)"/>
<path fill-rule="evenodd" clip-rule="evenodd" d="M27.8436 22.923H26.3531C25.8563 23.8564 25.5707 24.8876 25.5166 25.9436C25.4626 26.9996 25.6413 28.0545 26.0402 29.0338L27.1133 29.2872L27.8436 22.923Z" fill="url(#paint11_linear_344_2097)"/>
<path d="M49.7828 28.4228C48.8438 34.7274 43.1951 38.3939 36.8905 37.4698C30.5859 36.5457 26.055 31.2994 26.9939 25.0544C27.9329 18.8095 33.5817 15.7093 39.8863 16.6334C46.1909 17.5575 50.7069 22.1331 49.7828 28.4228Z" fill="#F5ECE6"/>
<path d="M39.1113 22.4909C39.4982 22.4909 39.8118 22.1772 39.8118 21.7904C39.8118 21.4035 39.4982 21.0898 39.1113 21.0898C38.7245 21.0898 38.4108 21.4035 38.4108 21.7904C38.4108 22.1772 38.7245 22.4909 39.1113 22.4909Z" fill="url(#paint12_linear_344_2097)"/>
<path fill-rule="evenodd" clip-rule="evenodd" d="M39.5882 21.8647C39.5663 21.9873 39.4987 22.0969 39.3992 22.1716C39.2996 22.2463 39.1754 22.2804 39.0516 22.2672C38.9887 22.2581 38.9282 22.2365 38.8737 22.2038C38.8191 22.171 38.7717 22.1276 38.7343 22.0762C38.6968 22.0248 38.6699 21.9665 38.6553 21.9045C38.6407 21.8426 38.6386 21.7784 38.6492 21.7157C38.6542 21.65 38.6728 21.586 38.7038 21.5279C38.7347 21.4697 38.7774 21.4186 38.8291 21.3777C38.8808 21.3369 38.9405 21.3072 39.0042 21.2905C39.068 21.2739 39.1345 21.2706 39.1996 21.2809C39.2646 21.2913 39.3269 21.315 39.3823 21.3505C39.4378 21.3861 39.4853 21.4328 39.5218 21.4877C39.5583 21.5425 39.5831 21.6043 39.5945 21.6692C39.6059 21.7341 39.6038 21.8007 39.5882 21.8647Z" fill="#68C0EC"/>
<path d="M39.2902 22.4907H39.3945C39.4473 22.4664 39.4973 22.4365 39.5435 22.4013V22.3267V22.2522V22.0883V21.9243C39.5488 21.9838 39.5488 22.0437 39.5435 22.1032C39.5502 22.1576 39.5502 22.2127 39.5435 22.2671V22.3714L39.7671 22.3565H39.6926H39.5286H39.3498L39.2902 22.4907Z" fill="white"/>
<path d="M41.5109 34.5337C42.0764 34.4792 42.6386 34.3946 43.1951 34.2803L43.6125 34.1611L44.0298 34.0419L44.4322 33.9077L44.8346 33.7587L45.237 33.6096L45.6395 33.4457L46.027 33.2668L46.4145 33.0731C46.9272 32.8187 47.4248 32.5351 47.9049 32.2235C48.0093 31.8509 48.1136 31.4634 48.1881 31.061C48.2626 30.6586 48.2626 30.6735 48.2924 30.4797V30.1816V29.809V29.5109V29.2128C48.2924 29.0191 48.2924 28.8104 48.2924 28.6167V28.3186C48.2924 28.2142 48.2924 28.1248 48.2924 28.0205V27.7224V27.4243C48.2924 27.2305 48.2924 27.0219 48.203 26.8281V26.6791V26.5449V26.2468C48.203 26.1425 48.203 26.0531 48.203 25.9488C48.203 25.8444 48.203 25.755 48.203 25.6656C48.203 25.5761 48.0987 25.2781 48.0242 25.0992C47.9496 24.9204 47.9049 24.7117 47.8304 24.5328C47.7559 24.354 47.6963 24.1602 47.6068 23.9814C47.5174 23.8025 47.4578 23.6088 47.3684 23.4299L47.2342 23.1616L47.1001 22.8933L45.2668 22.3568L44.4173 22.1183L44 22.014L43.5677 21.9246C43.0014 21.8053 42.4201 21.701 41.8388 21.6265C41.2605 21.5472 40.6784 21.4975 40.095 21.4774L40.2291 21.3135C40.3238 21.6091 40.3238 21.927 40.2291 22.2226V22.3568C40.2243 22.3914 40.2243 22.4265 40.2291 22.4611C40.1878 22.5272 40.1376 22.5873 40.0801 22.64C39.9789 22.7592 39.8579 22.8601 39.7224 22.9381L39.5883 22.7145C39.6967 22.6471 39.7968 22.5671 39.8863 22.476L39.7671 22.3568V22.2823C39.85 22.0408 39.85 21.7785 39.7671 21.537V21.3731H39.9311C40.5272 21.3731 41.1085 21.4625 41.6898 21.537C42.2711 21.6116 42.8523 21.7308 43.4336 21.8649L43.8658 21.9693L44.2981 22.0736L45.1476 22.327C45.6991 22.5058 46.2654 22.6996 46.802 22.9232L46.9361 23.1914L47.0703 23.4597L47.3088 24.0112C47.3982 24.2049 47.4578 24.3987 47.5323 24.5775C47.6068 24.7564 47.6665 24.9651 47.7261 25.1588C47.7857 25.3526 47.8453 25.5463 47.89 25.7401C47.9347 25.9339 47.89 25.9338 47.89 26.0233C47.9078 26.1243 47.9327 26.2239 47.9646 26.3214V26.6195V26.7685V26.9175C47.9646 27.1113 47.9646 27.32 48.0391 27.5137V27.8118V28.1099C48.0391 28.2142 48.0391 28.3186 48.0391 28.4229V28.721C48.0391 28.9147 48.0391 29.1234 48.0391 29.3172V29.6301V29.9282V30.2263V30.5244C48.0391 30.7182 48.0391 30.9119 47.9347 31.1206C47.8304 31.3293 47.741 31.8956 47.6217 32.2831C47.1413 32.5896 46.6437 32.8683 46.1313 33.1178L45.7438 33.3115L45.3414 33.4755L44.939 33.6394L44.5365 33.8034L44.1341 33.9375L43.7168 34.0717L43.2995 34.1909L43.1951 34.2803C42.6386 34.3947 42.0764 34.4793 41.5109 34.5337Z" fill="#D4C6BD"/>
<path d="M48.3222 30.9715C48.3279 30.8573 48.3279 30.7429 48.3222 30.6287C48.3222 30.4051 48.3222 30.0772 48.4116 29.6897C48.5011 29.3022 48.4116 29.2873 48.4116 29.0786V28.3185C48.4116 28.1993 48.4116 28.08 48.4116 27.9459V27.5733C48.4189 27.4492 48.4189 27.3248 48.4116 27.2007C48.4198 27.0716 48.4198 26.9422 48.4116 26.8131C48.4116 26.679 48.4116 26.5598 48.3371 26.4256C48.3195 26.3001 48.2946 26.1757 48.2626 26.053C48.2626 25.9338 48.2626 25.8145 48.1881 25.6953L48.0241 25.3376C48.0241 25.0991 47.9049 24.8756 47.8304 24.6669C47.7558 24.4582 47.7558 24.4582 47.726 24.3539L47.6217 24.0707L47.5174 23.8472L47.4279 23.6087L47.2193 23.2659L47.0851 22.938V23.0274C47.0851 23.0274 47.1597 23.1616 47.2044 23.2659C47.2699 23.3821 47.3296 23.5014 47.3832 23.6236L47.4876 23.8621L47.5919 24.1154C47.5919 24.2049 47.6664 24.2943 47.7111 24.3986C47.7558 24.503 47.7857 24.5924 47.8155 24.6967C47.8453 24.801 47.9645 25.1438 48.0241 25.3674L48.1285 25.7251L48.2179 26.0977C48.2179 26.217 48.2179 26.3511 48.2924 26.4703C48.3669 26.5896 48.2924 26.7237 48.3669 26.8579V27.2454V27.618V28.0055C48.3595 28.1296 48.3595 28.254 48.3669 28.3781V29.0786C48.3669 29.2972 48.3669 29.5059 48.3669 29.7046C48.3669 30.0921 48.2775 30.4051 48.2328 30.6287C48.1881 30.8522 48.3222 30.9715 48.3222 30.9715Z" fill="white"/>
<path d="M46.8616 22.9379L46.5784 22.8485L45.8481 22.61L45.3562 22.4759L44.8047 22.3566L44.2235 22.2076L43.6124 22.0734L42.9864 21.9393L42.3902 21.835L41.8239 21.7455L41.2575 21.6263L40.4974 21.522H40.2142H40.4974H41.2724H41.7791L42.3455 21.6114L42.9417 21.7157L43.5677 21.835L44.1788 21.984L44.7749 22.1331L45.8033 22.461L46.5337 22.7292L46.8616 22.9379Z" fill="white"/>
<path d="M33.1346 33.2965C32.6129 33.058 32.0913 32.7897 31.6441 32.5066L31.2715 32.283L30.8244 32.0445L30.4667 31.806L30.1239 31.5527L29.8258 31.2993L29.483 31.031L29.1551 30.7478L28.8421 30.4497C28.4248 30.0622 28.0224 29.6449 27.6348 29.2127C27.6051 28.8108 27.6051 28.4073 27.6348 28.0054C27.6348 27.7968 27.6348 27.603 27.6348 27.4092V27.1111V26.9621V26.8131V26.515V26.3659V26.2169C27.6756 26.0195 27.7304 25.8252 27.7988 25.6356L27.8882 25.3524L27.9926 25.0692L28.0969 24.7861L28.2161 24.5029L28.4546 23.9663L28.5291 23.8173V23.6831L28.6632 23.4298L28.8123 23.1615C28.8676 23.0753 28.9174 22.9857 28.9613 22.8932C29.0791 22.7299 29.1886 22.5608 29.2892 22.3864L29.6469 21.8946C29.7662 21.7455 29.8854 21.5816 30.0196 21.4326C30.1406 21.2719 30.2699 21.1177 30.4071 20.9705L30.6157 20.747L30.8244 20.5234C31.4206 20.5234 32.0018 20.434 32.598 20.434H33.4774H33.9245H34.3716C34.9529 20.434 35.5491 20.5532 36.1304 20.6426C36.7116 20.732 37.2929 20.8513 37.8593 20.9854H38.0232L37.9487 21.1196C37.8139 21.3433 37.7563 21.6051 37.7848 21.8648V21.9393C37.7848 21.9393 37.7848 21.9393 37.7848 22.0287C37.7848 22.1182 37.7848 22.148 37.7848 22.2076C37.8419 22.3233 37.9174 22.429 38.0083 22.5206L37.7997 22.7143C37.7016 22.5946 37.6166 22.4647 37.5463 22.3268C37.5148 22.2547 37.4899 22.1799 37.4718 22.1033C37.4718 22.1033 37.4718 22.1033 37.4718 21.984V21.8797C37.441 21.5687 37.5088 21.2558 37.6655 20.9854V21.1643C37.0992 21.0301 36.5328 20.9109 35.9515 20.8066C35.3702 20.7022 34.8039 20.6426 34.2226 20.5979H33.7755H33.3432H33.0601C32.4788 20.5979 31.8975 20.5979 31.3162 20.5979L31.1076 20.8215L30.9138 21.0301L30.5114 21.4922C30.3922 21.6412 30.258 21.7903 30.1388 21.9542C30.0162 22.107 29.9017 22.2662 29.796 22.4312C29.6782 22.5944 29.5688 22.7636 29.4681 22.9379C29.4681 22.9379 29.3638 23.1019 29.3041 23.1913L29.1551 23.4447L29.021 23.7129L28.9464 23.8322L28.8719 23.9663C28.7825 24.1452 28.708 24.324 28.6185 24.5178L28.4993 24.7861L28.395 25.0692C28.395 25.1587 28.395 25.2481 28.2906 25.3524L28.2012 25.6356C28.2012 25.8145 28.082 26.0082 28.0373 26.202V26.351V26.5001V26.7832V26.9323V27.0813C28.0288 27.1805 28.0288 27.2802 28.0373 27.3794C28.0373 27.5732 28.0373 27.7669 27.9627 27.9607C27.9404 28.3628 27.9404 28.7658 27.9627 29.168C28.3354 29.6002 28.7229 30.0175 29.1402 30.4199L29.4681 30.7031L29.7811 30.9863L30.1239 31.2695L30.4518 31.5378L30.8095 31.7911C30.9177 31.879 31.0323 31.9588 31.1523 32.0296L31.51 32.2681L31.8826 32.5066C32.2865 32.7906 32.7044 33.0542 33.1346 33.2965Z" fill="#D4C6BD"/>
<path d="M27.6349 27.916C27.6349 27.916 27.6349 27.7819 27.6349 27.5583C27.6349 27.3348 27.6349 27.0218 27.7839 26.6343C27.933 26.2467 27.8734 26.2467 27.933 26.0232L28.0224 25.6953V25.5164V25.3525L28.1416 24.9948L28.2758 24.652L28.4248 24.2943C28.4856 24.1779 28.5403 24.0585 28.5888 23.9366L28.7676 23.5938L28.9465 23.251C29.0165 23.145 29.0812 23.0355 29.1402 22.9231L29.334 22.6101L29.7364 22.0288L29.9302 21.7754C29.9992 21.6996 30.0639 21.62 30.1239 21.5369L30.3028 21.3283L30.4667 21.1345L30.8244 20.8662L31.0033 20.6725H31.0778L30.8244 20.8662L30.5562 21.1792L30.4071 21.373L30.2283 21.5966L30.0494 21.835L29.8706 22.1033C29.7364 22.2822 29.6172 22.4759 29.483 22.6846L29.2893 22.9976C29.2303 23.1101 29.1656 23.2195 29.0955 23.3255L28.9167 23.6683C28.8532 23.7781 28.7983 23.8927 28.7527 24.0111C28.692 24.1224 28.6373 24.2368 28.5888 24.3539L28.4248 24.7116L28.2907 25.0544C28.2907 25.1736 28.2162 25.2929 28.1714 25.4121V25.576V25.74C28.1714 25.8592 28.0969 25.9636 28.0671 26.0679C28.0373 26.1722 27.9479 26.4852 27.9032 26.679C27.8585 26.8727 27.769 27.3646 27.7392 27.5881C27.7094 27.8117 27.6349 27.916 27.6349 27.916Z" fill="white"/>
<path d="M31.3759 20.6426H31.659H32.4341C32.7471 20.6426 33.1197 20.6426 33.5072 20.6426H34.1183H34.7592H35.3851H35.9962L36.5626 20.732L37.0693 20.8214L37.8146 20.9854H38.0978H37.8146L37.0544 20.8512L36.5477 20.8661H35.9813H35.3702H34.7443H34.1183H33.5072H31.3759V20.6426Z" fill="white"/>
<path fill-rule="evenodd" clip-rule="evenodd" d="M34.8486 18.4666C33.865 18.7349 32.8664 19.3609 32.9409 19.5993C33.0154 19.8378 33.0303 19.7782 34.0885 19.7186C35.728 19.5993 38.0829 19.1075 38.0382 18.6902C37.9935 18.2728 36.3242 18.0493 34.8486 18.4666Z" fill="#D4C6BD"/>
<path fill-rule="evenodd" clip-rule="evenodd" d="M34.8784 18.735C34.1332 18.9436 33.3879 19.4206 33.3879 19.5994C33.3879 19.7783 33.3879 19.7336 34.2524 19.6888C35.4746 19.5994 37.2333 19.2268 37.2333 18.9138C37.2333 18.6008 35.9813 18.422 34.8784 18.735Z" fill="url(#paint13_linear_344_2097)"/>
<path fill-rule="evenodd" clip-rule="evenodd" d="M44.8048 19.8676C45.6693 20.4041 46.4443 21.358 46.2953 21.507C46.1462 21.6561 46.1611 21.6561 45.1625 21.2835C43.6721 20.6873 41.5259 19.5397 41.6749 19.1521C41.8239 18.7646 43.5081 19.0329 44.8048 19.8676Z" fill="#D4C6BD"/>
<path fill-rule="evenodd" clip-rule="evenodd" d="M44.7004 20.121C45.3562 20.5383 45.9226 21.1941 45.8183 21.3581C45.7139 21.522 45.7139 21.4624 44.9687 21.1941C43.8062 20.747 42.2263 19.8825 42.3455 19.5844C42.4648 19.2864 43.7168 19.495 44.7004 20.121Z" fill="url(#paint14_linear_344_2097)"/>
<path d="M43.985 20.3296L44.4024 20.5681L47.1895 15.6645L46.7722 15.426L43.985 20.3296Z" fill="url(#paint15_linear_344_2097)"/>
<path d="M47.3981 16.5291C48.1389 16.5291 48.7395 15.9285 48.7395 15.1877C48.7395 14.4469 48.1389 13.8463 47.3981 13.8463C46.6573 13.8463 46.0567 14.4469 46.0567 15.1877C46.0567 15.9285 46.6573 16.5291 47.3981 16.5291Z" fill="#F5ECE6"/>
<path d="M47.6366 15.7539C48.147 15.7539 48.5607 15.3402 48.5607 14.8298C48.5607 14.3195 48.147 13.9058 47.6366 13.9058C47.1262 13.9058 46.7125 14.3195 46.7125 14.8298C46.7125 15.3402 47.1262 15.7539 47.6366 15.7539Z" fill="#FCF6F0"/>
<path d="M48.1797 14.5039C48.2231 14.2108 47.9942 13.9341 47.6685 13.8859C47.3428 13.8376 47.0436 14.0362 47.0002 14.3293C46.9568 14.6225 47.1857 14.8992 47.5114 14.9474C47.8371 14.9956 48.1363 14.7971 48.1797 14.5039Z" fill="white"/>
<path d="M35.4895 19.2267L35.0125 19.331L33.7606 13.8313L34.2375 13.7269L35.4895 19.2267Z" fill="url(#paint16_linear_344_2097)"/>
<path d="M33.701 14.6511C34.4419 14.6511 35.0424 14.0505 35.0424 13.3097C35.0424 12.5688 34.4419 11.9683 33.701 11.9683C32.9602 11.9683 32.3596 12.5688 32.3596 13.3097C32.3596 14.0505 32.9602 14.6511 33.701 14.6511Z" fill="#F5ECE6"/>
<path d="M33.5817 13.8313C34.0921 13.8313 34.5058 13.4176 34.5058 12.9072C34.5058 12.3969 34.0921 11.9832 33.5817 11.9832C33.0714 11.9832 32.6577 12.3969 32.6577 12.9072C32.6577 13.4176 33.0714 13.8313 33.5817 13.8313Z" fill="#FCF6F0"/>
<path d="M34.3385 12.6168C34.3819 12.3237 34.153 12.047 33.8273 11.9988C33.5016 11.9506 33.2024 12.1491 33.159 12.4422C33.1156 12.7354 33.3445 13.0121 33.6702 13.0603C33.9959 13.1085 34.2951 12.91 34.3385 12.6168Z" fill="white"/>
<path fill-rule="evenodd" clip-rule="evenodd" d="M47.7857 27.7668C47.8007 26.827 47.6073 25.8955 47.2194 25.0393C47.002 24.6254 46.693 24.2665 46.3159 23.9901C45.9388 23.7138 45.5035 23.5272 45.0433 23.4446C43.9024 23.2331 42.7457 23.1184 41.5855 23.1018C41.2528 23.5159 40.8047 23.822 40.2979 23.9812C39.7911 24.1404 39.2485 24.1456 38.7387 23.996C38.2275 23.9667 37.734 23.7985 37.3112 23.5096C36.8884 23.2208 36.5523 22.8221 36.3391 22.3565C34.7273 21.8389 33.0136 21.7212 31.3461 22.0137H31.1673C30.2626 22.6408 29.5875 23.5462 29.2446 24.5922C28.7027 25.81 28.3991 27.1204 28.3503 28.4525C28.3503 29.5852 29.3489 30.3304 30.1687 31.0607C32.3193 32.9409 34.9912 34.1218 37.8293 34.4466C40.6673 34.7714 43.537 34.2247 46.0568 32.8791C48.054 31.9401 47.8006 29.8088 47.7857 27.7668Z" fill="url(#paint17_linear_344_2097)"/>
<path fill-rule="evenodd" clip-rule="evenodd" d="M47.2938 27.8117C47.3295 26.9196 47.1559 26.0315 46.787 25.2184C46.5854 24.8287 46.296 24.4913 45.9416 24.2326C45.5873 23.974 45.1777 23.8012 44.7451 23.7279C43.6589 23.5222 42.5567 23.4125 41.4513 23.4C41.1532 24.0558 39.9608 24.4284 38.7536 24.2496C38.2684 24.2306 37.7972 24.0824 37.3884 23.8204C36.9797 23.5584 36.6483 23.192 36.4285 22.7591C34.9098 22.2423 33.2879 22.1042 31.7038 22.3567H31.5249C30.6631 22.9492 30.0191 23.8078 29.6917 24.801C29.1786 25.9583 28.8903 27.2026 28.8421 28.4675C28.8421 29.5407 29.796 30.2561 30.5859 30.9268C32.6218 32.739 35.1615 33.888 37.8667 34.2209C40.5719 34.5537 43.3144 34.0545 45.7288 32.7898C47.5472 31.7614 47.3087 29.7195 47.2938 27.8117Z" fill="#051F28"/>
<path fill-rule="evenodd" clip-rule="evenodd" d="M39.2455 35.4428V35.7707L38.7387 35.9496C38.3577 36.0391 37.9676 36.0842 37.5762 36.0837L37.5017 36.3669C37.3581 36.3845 37.213 36.3845 37.0694 36.3669C36.7606 36.3804 36.452 36.3349 36.1603 36.2327V35.8899C35.9225 35.8714 35.6875 35.8264 35.4598 35.7558C35.2573 35.7093 35.0582 35.6495 34.8636 35.5769V35.0702C35.3564 35.1657 35.8539 35.2354 36.354 35.2789C37.3132 35.3968 38.2791 35.4515 39.2455 35.4428Z" fill="#D6C9C1"/>
<path fill-rule="evenodd" clip-rule="evenodd" d="M39.4243 35.2937C38.9776 35.3228 38.5295 35.3228 38.0829 35.2937C36.7885 35.1614 35.5274 34.8032 34.3568 34.2355C34.3317 34.4134 34.3317 34.5941 34.3568 34.772C34.396 35.0044 34.4992 35.2211 34.6548 35.398C36.1684 35.9984 37.8431 36.0563 39.3945 35.562L39.4243 35.2937Z" fill="url(#paint18_linear_344_2097)"/>
<path fill-rule="evenodd" clip-rule="evenodd" d="M38.4405 35.3534C37.8418 35.4302 37.2358 35.4302 36.6371 35.3534C35.9323 35.2544 35.248 35.043 34.6101 34.7275V34.3698C35.0669 34.5824 35.5405 34.7569 36.026 34.8914C36.8132 35.1265 37.6222 35.2813 38.4405 35.3534Z" fill="#CDE8FF"/>
<path d="M35.1963 27.9151C35.4446 26.2377 35.0056 24.7831 34.2158 24.6662C33.4259 24.5493 32.5844 25.8143 32.3361 27.4917C32.0878 29.1691 32.5268 30.6237 33.3166 30.7406C34.1065 30.8575 34.9481 29.5925 35.1963 27.9151Z" fill="url(#paint19_linear_344_2097)"/>
<path d="M33.9991 26.5597C34.3942 26.5597 34.7145 26.2394 34.7145 25.8443C34.7145 25.4492 34.3942 25.1289 33.9991 25.1289C33.604 25.1289 33.2837 25.4492 33.2837 25.8443C33.2837 26.2394 33.604 26.5597 33.9991 26.5597Z" fill="white"/>
<path d="M34.8785 27.9905L34.4015 27.916C34.4015 27.916 34.1481 29.4064 33.6265 29.4064C33.1048 29.4064 33.1197 27.7968 33.1197 27.7968H32.5534C32.5534 27.7968 32.1659 30.3454 33.3433 30.4945C34.5208 30.6435 34.8785 27.9905 34.8785 27.9905Z" fill="#54FCFF"/>
<path d="M43.3293 27.752L40.244 28.8252L39.8118 28.9891C39.7533 29.0032 39.7011 29.0366 39.6639 29.0839C39.6266 29.1312 39.6063 29.1897 39.6063 29.2499C39.6063 29.3102 39.6266 29.3687 39.6639 29.416C39.7011 29.4633 39.7533 29.4967 39.8118 29.5108L42.584 30.6137L42.9865 30.7776C43.0207 30.7866 43.0564 30.7887 43.0915 30.7838C43.1265 30.7789 43.1603 30.7671 43.1908 30.749C43.2212 30.731 43.2478 30.7072 43.2691 30.6788C43.2903 30.6505 43.3057 30.6182 43.3144 30.5839C43.3335 30.5147 43.3257 30.4409 43.2925 30.3772C43.2593 30.3136 43.2032 30.2649 43.1355 30.2411L40.3633 29.1382L39.9609 28.9891V29.5108L43.0461 28.4377L43.4783 28.2737C43.8062 28.1694 43.6721 27.6328 43.3293 27.752Z" fill="url(#paint20_linear_344_2097)"/>
</g>
<defs>
<filter id="filter0_d_344_2097" x="0" y="0" width="76.624" height="93.0001" filterUnits="userSpaceOnUse" color-interpolation-filters="sRGB">
<feFlood flood-opacity="0" result="BackgroundImageFix"/>
<feColorMatrix in="SourceAlpha" type="matrix" values="0 0 0 0 0 0 0 0 0 0 0 0 0 0 0 0 0 0 127 0" result="hardAlpha"/>
<feOffset dy="4"/>
<feGaussianBlur stdDeviation="2"/>
<feComposite in2="hardAlpha" operator="out"/>
<feColorMatrix type="matrix" values="0 0 0 0 0 0 0 0 0 0 0 0 0 0 0 0 0 0 0.25 0"/>
<feBlend mode="normal" in2="BackgroundImageFix" result="effect1_dropShadow_344_2097"/>
<feBlend mode="normal" in="SourceGraphic" in2="effect1_dropShadow_344_2097" result="shape"/>
</filter>
<radialGradient id="paint0_radial_344_2097" cx="0" cy="0" r="1" gradientUnits="userSpaceOnUse" gradientTransform="translate(37.755 55.7278) scale(21.0898 21.0898)">
<stop offset="0.22" stop-color="#C7FFDF"/>
<stop offset="1" stop-color="#56A7FF"/>
</radialGradient>
<linearGradient id="paint1_linear_344_2097" x1="62.1983" y1="8.62967" x2="14.4147" y2="8.62967" gradientUnits="userSpaceOnUse">
<stop stop-color="#C3CCD1"/>
<stop offset="0.21" stop-color="#B4BEC5"/>
<stop offset="0.34" stop-color="#D2DADE"/>
<stop offset="0.49" stop-color="#747D83"/>
<stop offset="0.65" stop-color="#D2DADE"/>
<stop offset="0.8" stop-color="#B4BEC5"/>
<stop offset="1" stop-color="#C3CCD1"/>
</linearGradient>
<linearGradient id="paint2_linear_344_2097" x1="38.3065" y1="23.0721" x2="38.3065" y2="1.95251" gradientUnits="userSpaceOnUse">
<stop stop-color="#404547"/>
<stop offset="0.64" stop-color="#96A2AB"/>
<stop offset="1" stop-color="#C3CCD1"/>
</linearGradient>
<linearGradient id="paint3_linear_344_2097" x1="38.3064" y1="39.3328" x2="38.3064" y2="9.25563" gradientUnits="userSpaceOnUse">
<stop offset="0.22" stop-color="#C7FFDF"/>
<stop offset="1" stop-color="#56A7FF"/>
</linearGradient>
<linearGradient id="paint4_linear_344_2097" x1="38.366" y1="76.9516" x2="38.366" y2="14.3977" gradientUnits="userSpaceOnUse">
<stop stop-color="#E87D00"/>
<stop offset="1" stop-color="#FFE600"/>
</linearGradient>
<linearGradient id="paint5_linear_344_2097" x1="18.409" y1="63.5377" x2="18.409" y2="27.8863" gradientUnits="userSpaceOnUse">
<stop stop-color="#984400"/>
<stop offset="0.98" stop-color="#CB6C00"/>
</linearGradient>
<linearGradient id="paint6_linear_344_2097" x1="35.3256" y1="63.5376" x2="35.3256" y2="27.8862" gradientUnits="userSpaceOnUse">
<stop stop-color="#984400"/>
<stop offset="0.98" stop-color="#CB6C00"/>
</linearGradient>
<linearGradient id="paint7_linear_344_2097" x1="56.7581" y1="63.5375" x2="56.7581" y2="27.8861" gradientUnits="userSpaceOnUse">
<stop stop-color="#984400"/>
<stop offset="0.98" stop-color="#CB6C00"/>
</linearGradient>
<linearGradient id="paint8_linear_344_2097" x1="38.3064" y1="57.084" x2="38.3064" y2="44.8474" gradientUnits="userSpaceOnUse">
<stop stop-color="white"/>
<stop offset="0.14" stop-color="white"/>
<stop offset="1" stop-color="white"/>
</linearGradient>
<linearGradient id="paint9_linear_344_2097" x1="9.03412" y1="45.2051" x2="67.5936" y2="45.2051" gradientUnits="userSpaceOnUse">
<stop stop-color="white"/>
<stop offset="0.43" stop-color="white"/>
<stop offset="0.5" stop-color="white"/>
<stop offset="0.55" stop-color="white"/>
<stop offset="1" stop-color="white"/>
</linearGradient>
<linearGradient id="paint10_linear_344_2097" x1="51.0833" y1="29.6753" x2="48.4299" y2="29.177" gradientUnits="userSpaceOnUse">
<stop stop-color="#6DCCF2"/>
<stop offset="1" stop-color="#08529C"/>
</linearGradient>
<linearGradient id="paint11_linear_344_2097" x1="25.5831" y1="25.8554" x2="27.6619" y2="26.1631" gradientUnits="userSpaceOnUse">
<stop stop-color="#6DCCF2"/>
<stop offset="1" stop-color="#08529C"/>
</linearGradient>
<linearGradient id="paint12_linear_344_2097" x1="38.4176" y1="21.6985" x2="39.8035" y2="21.9036" gradientUnits="userSpaceOnUse">
<stop stop-color="#6DCCF2"/>
<stop offset="1" stop-color="#08529C"/>
</linearGradient>
<linearGradient id="paint13_linear_344_2097" x1="33.5371" y1="18.942" x2="37.1935" y2="19.4833" gradientUnits="userSpaceOnUse">
<stop stop-color="#6DCCF2"/>
<stop offset="1" stop-color="#08529C"/>
</linearGradient>
<linearGradient id="paint14_linear_344_2097" x1="42.2616" y1="20.1581" x2="45.9181" y2="20.6993" gradientUnits="userSpaceOnUse">
<stop stop-color="#6DCCF2"/>
<stop offset="1" stop-color="#08529C"/>
</linearGradient>
<linearGradient id="paint15_linear_344_2097" x1="44.356" y1="17.8162" x2="46.8182" y2="18.1807" gradientUnits="userSpaceOnUse">
<stop stop-color="#6DCCF2"/>
<stop offset="1" stop-color="#08529C"/>
</linearGradient>
<linearGradient id="paint16_linear_344_2097" x1="37.5476" y1="23.993" x2="35.0835" y2="23.6196" gradientUnits="userSpaceOnUse">
<stop stop-color="#6DCCF2"/>
<stop offset="1" stop-color="#08529C"/>
</linearGradient>
<linearGradient id="paint17_linear_344_2097" x1="36.4927" y1="21.3681" x2="39.7182" y2="34.5921" gradientUnits="userSpaceOnUse">
<stop stop-color="#6DCCF2"/>
<stop offset="1" stop-color="#08529C"/>
</linearGradient>
<linearGradient id="paint18_linear_344_2097" x1="36.9147" y1="34.5991" x2="36.7161" y2="35.9408" gradientUnits="userSpaceOnUse">
<stop stop-color="#6DCEF5"/>
<stop offset="1" stop-color="#034EA1"/>
</linearGradient>
<linearGradient id="paint19_linear_344_2097" x1="32.3361" y1="27.4917" x2="35.1963" y2="27.9151" gradientUnits="userSpaceOnUse">
<stop stop-color="#6DCCF2"/>
<stop offset="1" stop-color="#08529C"/>
</linearGradient>
<linearGradient id="paint20_linear_344_2097" x1="39.633" y1="29.2574" x2="43.4336" y2="29.2574" gradientUnits="userSpaceOnUse">
<stop stop-color="#08529C"/>
<stop offset="0.15" stop-color="#1B69AC"/>
<stop offset="0.55" stop-color="#479ED2"/>
<stop offset="0.84" stop-color="#63BFE9"/>
<stop offset="1" stop-color="#6DCCF2"/>
</linearGradient>
</defs>
</svg>
