<svg width="201" height="201" viewBox="0 0 201 201" fill="none" xmlns="http://www.w3.org/2000/svg">
<path d="M102.744 187.667C69.5192 187.667 40.1665 170.435 26.6593 143.4L23.0748 143.112C20.8437 142.931 18.8538 141.652 17.7617 139.695C15.4368 135.521 13.6278 131.179 12.3615 126.737C10.6999 125.645 9.42686 123.97 8.87076 121.96C7.51066 117.069 7.11536 112.084 7.68486 107.147C7.93276 105.003 8.36826 102.859 8.97796 100.782C9.56086 98.7917 10.8674 97.1301 12.5558 96.0648C12.8171 95.2072 13.0985 94.363 13.4 93.5322C14.204 91.3011 16.1336 89.6663 18.4585 89.2308L21.2859 88.7015C26.5119 69.3318 39.3357 53.8347 58.0153 44.2604L56.5949 40.5955C49.781 39.9456 44.0726 34.8603 42.7259 28.033C41.3926 21.2392 44.5885 14.499 50.6788 11.2361C51.1277 10.9882 51.6034 10.7604 52.0791 10.5661C53.0372 10.1708 54.0422 9.86927 55.0606 9.66827C56.0589 9.47397 57.0773 9.37347 58.0823 9.37347C65.5394 9.37347 71.9915 14.6866 73.4253 22.0097C74.1824 25.8823 73.4454 29.8286 71.4689 33.1049L73.4253 38.1433C82.4167 35.5035 92.0043 34.1702 102.014 34.1635H102.088C113.391 34.1635 124.097 35.8452 134.013 39.1617L136.774 32.0262C134.791 28.7499 134.047 24.8103 134.804 20.9377C136.231 13.6012 142.69 8.28137 150.154 8.28137C151.159 8.28137 152.164 8.38187 153.155 8.56947C154.18 8.77047 155.185 9.07197 156.143 9.46727C156.626 9.66157 157.095 9.88267 157.55 10.1373C163.647 13.4002 166.85 20.1337 165.523 26.9208C164.19 33.7615 158.488 38.8468 151.675 39.5034L149.196 45.9086C166.039 55.4963 177.744 70.2497 182.736 88.2258L185.912 88.8221C188.243 89.2576 190.166 90.8924 190.977 93.1168C191.741 95.2139 192.37 97.3713 192.873 99.5555C194.025 100.574 194.91 101.907 195.365 103.448C195.982 105.525 196.417 107.669 196.672 109.813C197.248 114.751 196.859 119.736 195.506 124.627C194.829 127.079 193.094 129.035 190.883 130.047C189.757 133.203 188.357 136.298 186.695 139.293C185.61 141.25 183.62 142.536 181.389 142.717L177.952 142.998C171.808 155.869 162.127 166.716 149.745 174.535C136.157 183.118 119.923 187.667 102.805 187.674C102.805 187.667 102.744 187.667 102.744 187.667Z" fill="#3386C0"/>
<path d="M190.025 110.584C189.798 108.628 189.402 106.872 188.953 105.338C188.726 104.561 187.969 104.058 187.165 104.132C187.098 104.139 187.024 104.145 186.957 104.152C186.441 100.849 185.617 97.9145 184.699 95.402C182.227 94.9397 179.748 94.4774 177.275 94.0151C172.894 73.292 159.326 57.8351 140.801 49.0782L147.266 32.3684C147.655 32.5024 148.057 32.623 148.472 32.7034C153.323 33.6481 158.02 30.4857 158.964 25.6349C159.735 21.6685 157.758 17.8093 154.368 16.0137C154.134 15.8797 153.892 15.7658 153.638 15.6653C153.088 15.4375 152.505 15.2566 151.896 15.1427C147.045 14.198 142.348 17.3604 141.404 22.2112C140.76 25.5277 142.033 28.7705 144.459 30.7939L137.886 47.7717C127.186 43.2425 114.992 40.8439 102.041 40.8573C90.4099 40.864 79.3817 42.8137 69.5059 46.5054L63.8243 31.8793C66.243 29.8559 67.516 26.6064 66.8661 23.2899C65.9147 18.4391 61.2113 15.2834 56.3672 16.2348C55.7575 16.3554 55.1813 16.5296 54.6252 16.7641C54.3706 16.8646 54.1294 16.9852 53.8949 17.1125C50.5047 18.9148 48.5349 22.774 49.3121 26.7404C50.2635 31.5912 54.9669 34.7469 59.811 33.7955C60.2264 33.7151 60.6284 33.5945 61.017 33.4605L66.5445 47.6779C46.2636 56.1936 31.3226 72.3674 26.8068 94.4774C24.4417 94.9196 22.0766 95.3685 19.7048 95.8107C19.0817 97.5259 18.5055 99.4421 18.0365 101.532C17.7551 101.506 17.4804 101.486 17.199 101.459C16.3883 101.385 15.6379 101.888 15.4101 102.665C14.9612 104.199 14.5659 105.954 14.3448 107.911C13.7686 112.896 14.4922 117.15 15.3297 120.165C15.5508 120.969 16.3213 121.498 17.1521 121.418C17.4134 121.391 17.668 121.364 17.9293 121.344C19.3296 128.064 21.8756 133.324 23.6176 136.439C26.0564 136.634 28.4952 136.835 30.934 137.029C30.9273 136.908 30.9273 136.781 30.9206 136.661C42.4044 163.688 70.464 180.994 102.798 180.974C135.186 180.954 162.482 163.561 173.53 136.439C173.53 136.506 173.523 136.573 173.523 136.634C175.962 136.433 178.401 136.232 180.84 136.031C182.307 133.391 184.344 129.23 185.784 123.944C186.267 123.991 186.749 124.038 187.238 124.085C188.069 124.165 188.833 123.636 189.061 122.832C189.891 119.823 190.608 115.569 190.025 110.584Z" fill="url(#paint0_linear_4_829)"/>
<path fill-rule="evenodd" clip-rule="evenodd" d="M20.3145 101.74C19.276 101.646 18.2375 101.559 17.199 101.465C16.3883 101.392 15.6379 101.894 15.4101 102.671C14.9612 104.206 14.5659 105.961 14.3448 107.917C13.7686 112.902 14.4922 117.157 15.3297 120.172C15.5508 120.976 16.3213 121.505 17.1521 121.425C18.3782 121.304 19.6043 121.183 20.8237 121.063C20.4619 118.751 20.1671 116.225 20.0197 113.499C19.7852 109.117 19.9594 105.164 20.3145 101.74Z" fill="#F5ECE6"/>
<path fill-rule="evenodd" clip-rule="evenodd" d="M184.049 104.413C185.088 104.319 186.126 104.225 187.165 104.132C187.969 104.058 188.726 104.56 188.953 105.338C189.409 106.872 189.798 108.627 190.025 110.584C190.608 115.568 189.885 119.823 189.054 122.838C188.833 123.642 188.069 124.171 187.232 124.091C186.006 123.97 184.779 123.85 183.553 123.736C183.915 121.424 184.203 118.898 184.344 116.165C184.585 111.79 184.411 107.837 184.049 104.413Z" fill="#F5ECE6"/>
<path fill-rule="evenodd" clip-rule="evenodd" d="M175.138 93.6195C178.327 94.2158 181.51 94.8121 184.699 95.4084C185.804 98.4502 186.789 102.115 187.245 106.309C188.732 119.997 183.694 130.905 180.84 136.037C178.401 136.238 175.962 136.439 173.523 136.64C174.059 122.296 174.602 107.958 175.138 93.6195Z" fill="url(#paint1_linear_4_829)"/>
<path fill-rule="evenodd" clip-rule="evenodd" d="M29.2658 94.0151C26.0833 94.6114 22.8941 95.2144 19.7116 95.8107C18.6061 98.8525 17.6279 102.517 17.179 106.718C15.7117 120.406 20.7635 131.307 23.6177 136.433C26.0565 136.627 28.4953 136.828 30.9341 137.022C30.378 122.691 29.8219 108.353 29.2658 94.0151Z" fill="url(#paint2_linear_4_829)"/>
<path d="M178.79 108.835C178.816 151.199 145.162 180.94 102.805 180.974C60.4475 181.007 25.4132 151.299 25.3864 108.935C25.3529 66.578 59.677 40.8835 102.041 40.8567C144.405 40.8299 178.763 66.4708 178.79 108.835Z" fill="#F5ECE6"/>
<path d="M102.061 80.2125C104.64 80.2125 106.731 78.1217 106.731 75.5426C106.731 72.9635 104.64 70.8727 102.061 70.8727C99.4822 70.8727 97.3915 72.9635 97.3915 75.5426C97.3915 78.1217 99.4822 80.2125 102.061 80.2125Z" fill="url(#paint3_linear_4_829)"/>
<path fill-rule="evenodd" clip-rule="evenodd" d="M105.237 75.5425C105.237 77.2979 103.817 78.7182 102.068 78.7182C100.313 78.7182 98.8923 77.2979 98.8923 75.5492C98.8923 73.7938 100.313 72.3734 102.061 72.3734C103.817 72.3667 105.237 73.7871 105.237 75.5425Z" fill="#68C0EC"/>
<path d="M103.917 80.038C103.917 80.038 104.018 79.9911 104.192 79.9107C104.366 79.8236 104.607 79.703 104.875 79.5288C105.143 79.3546 105.438 79.1335 105.713 78.8655C105.854 78.7315 105.981 78.5774 106.101 78.4233C106.202 78.2893 106.363 78.0682 106.443 77.9141C106.544 77.7533 106.637 77.559 106.704 77.3781C106.778 77.1905 106.845 77.0029 106.892 76.8153C106.993 76.4401 107.046 76.0716 107.073 75.7567C107.12 75.1202 107.086 74.6646 107.086 74.6646C107.086 74.6646 107.321 75.0599 107.415 75.7433C107.468 76.085 107.475 76.487 107.408 76.9225C107.368 77.1369 107.328 77.3647 107.247 77.5791C107.167 77.8002 107.08 78.0079 106.952 78.2223C106.818 78.4501 106.711 78.5841 106.55 78.7918C106.403 78.9727 106.229 79.1201 106.061 79.2608C105.72 79.5355 105.351 79.7231 105.029 79.837C104.708 79.9576 104.426 80.0045 104.225 80.0246C104.031 80.038 103.917 80.038 103.917 80.038Z" fill="white"/>
<path d="M130.309 157.169C133.98 156.077 137.585 154.79 141.116 153.31C142 152.941 142.878 152.559 143.742 152.164C144.606 151.762 145.484 151.373 146.342 150.945C147.206 150.529 148.057 150.1 148.908 149.658C149.765 149.229 150.596 148.76 151.44 148.305C152.271 147.829 153.109 147.373 153.926 146.878C154.75 146.395 155.568 145.899 156.378 145.39C157.196 144.894 157.986 144.358 158.79 143.843C159.581 143.307 160.378 142.777 161.155 142.221C164.284 140.03 167.286 137.658 170.167 135.153L170.086 135.3C170.488 132.674 170.75 130.027 170.877 127.374C170.944 126.047 170.971 124.721 170.964 123.394C170.957 122.731 170.944 122.068 170.931 121.404L170.89 120.419L170.817 119.421L170.676 117.424L170.602 116.426L170.482 115.441C170.308 114.128 170.194 112.808 169.939 111.508L169.597 109.545C169.497 108.889 169.323 108.245 169.189 107.602L168.753 105.659L168.237 103.736C167.916 102.45 167.5 101.19 167.098 99.924L166.797 98.9793L166.455 98.048L165.772 96.1788C165.537 95.5557 165.276 94.9527 165.028 94.3363C164.773 93.7266 164.539 93.1035 164.257 92.5072C163.708 91.3012 163.179 90.0885 162.569 88.9093C162 87.7167 161.356 86.5509 160.727 85.3851C160.07 84.2327 159.427 83.0736 158.717 81.9547C158.033 80.8224 157.303 79.7169 156.573 78.6114L155.447 76.9766L154.281 75.3619L154.616 75.583C150.824 74.6919 146.998 73.9616 143.146 73.3854C141.223 73.0973 139.287 72.8494 137.357 72.6484C136.385 72.5412 135.414 72.4474 134.449 72.367C133.484 72.2799 132.513 72.2196 131.541 72.1459C127.655 71.898 123.763 71.8109 119.877 71.8846C115.991 71.9583 112.105 72.1928 108.232 72.5881L108.929 71.4424C109.693 73.3519 109.853 75.4959 109.331 77.4992L109.277 77.7069L109.224 77.8744C109.183 77.9883 109.163 78.0888 109.116 78.2161C109.023 78.4707 108.929 78.7253 108.828 78.9531C108.621 79.4221 108.373 79.8844 108.098 80.3132C107.535 81.1775 106.845 81.9547 106.034 82.6046L104.916 81.2043C105.572 80.6817 106.155 80.0519 106.624 79.3484C106.859 78.9933 107.06 78.6248 107.234 78.2429C107.328 78.0486 107.395 77.861 107.468 77.6801C107.502 77.5863 107.542 77.459 107.575 77.3518L107.629 77.1843L107.663 77.0503C108.111 75.4222 107.998 73.6333 107.381 72.0588L106.972 71.0136L108.071 70.9131C111.991 70.558 115.924 70.3637 119.85 70.3302C123.783 70.2967 127.716 70.4307 131.635 70.7188C132.613 70.7992 133.592 70.8729 134.576 70.9734C135.561 71.0672 136.533 71.1677 137.504 71.2883C139.461 71.5094 141.404 71.7841 143.347 72.0923C147.226 72.7154 151.079 73.4926 154.891 74.4306L155.105 74.4842L155.226 74.6584L156.385 76.2999L157.511 77.9682C158.241 79.0938 158.964 80.2194 159.648 81.3785C160.351 82.5175 160.988 83.7034 161.644 84.8692C162.268 86.0551 162.904 87.241 163.467 88.4537C164.07 89.653 164.592 90.8857 165.135 92.1118C165.417 92.7215 165.644 93.3513 165.899 93.9744C166.14 94.5975 166.401 95.214 166.629 95.8438L167.299 97.7399L167.634 98.6845L167.929 99.6426C168.324 100.922 168.726 102.202 169.041 103.502L169.544 105.445L169.959 107.408C170.086 108.065 170.261 108.714 170.354 109.378L170.676 111.361C170.917 112.674 171.024 114.021 171.185 115.354L171.299 116.352L171.366 117.351L171.487 119.347L171.547 120.346L171.574 121.357C171.587 122.027 171.594 122.697 171.587 123.367C171.581 124.707 171.54 126.041 171.46 127.381C171.306 130.054 171.004 132.714 170.576 135.354L170.562 135.441L170.495 135.501C167.574 137.987 164.539 140.338 161.37 142.503C160.586 143.052 159.782 143.575 158.978 144.104C158.167 144.613 157.37 145.142 156.546 145.631C155.728 146.134 154.904 146.623 154.073 147.099C153.249 147.581 152.405 148.037 151.561 148.499C150.71 148.941 149.873 149.404 149.015 149.826C148.164 150.261 147.3 150.683 146.435 151.085C145.571 151.507 144.693 151.883 143.822 152.278C142.945 152.666 142.067 153.042 141.176 153.397C137.612 154.871 133.987 156.117 130.309 157.169Z" fill="#D4C6BD"/>
<path d="M171.728 127.053C171.728 127.053 171.748 126.188 171.741 124.688C171.734 123.18 171.667 121.029 171.473 118.463C171.379 117.19 171.192 115.79 171.038 114.323C170.937 113.592 170.81 112.849 170.696 112.078C170.636 111.696 170.582 111.308 170.522 110.919C170.448 110.53 170.374 110.142 170.301 109.747C170.147 108.956 170.006 108.152 169.832 107.341C169.644 106.537 169.45 105.72 169.262 104.896C169.068 104.072 168.82 103.261 168.599 102.437C168.384 101.613 168.116 100.795 167.855 99.9779C167.607 99.1605 167.353 98.3364 167.058 97.5324C166.77 96.7284 166.515 95.9177 166.194 95.1338C165.885 94.3499 165.591 93.5593 165.276 92.7955C164.947 92.0317 164.626 91.2813 164.311 90.5443C163.634 89.0837 162.998 87.6633 162.328 86.3501C162.006 85.6868 161.671 85.0503 161.343 84.4406C161.014 83.8242 160.713 83.2279 160.385 82.6718C160.07 82.109 159.768 81.573 159.473 81.0571C159.179 80.5479 158.891 80.0722 158.629 79.6166C158.1 78.7121 157.604 77.9416 157.209 77.2984C156.398 76.0321 155.929 75.3085 155.929 75.3085C155.929 75.3085 156.056 75.4827 156.291 75.811C156.525 76.1393 156.881 76.615 157.303 77.2381C157.718 77.8679 158.247 78.6116 158.81 79.5027C159.092 79.9449 159.393 80.4139 159.715 80.9097C160.016 81.4122 160.338 81.9482 160.666 82.5043C161.001 83.0537 161.329 83.65 161.671 84.253C162.013 84.8627 162.368 85.4858 162.703 86.1491C163.406 87.4556 164.09 88.8626 164.773 90.3299C165.095 91.0736 165.43 91.824 165.758 92.5878C166.08 93.3516 166.381 94.1422 166.703 94.9328C167.031 95.7167 167.292 96.5341 167.587 97.3448C167.889 98.1488 168.15 98.9729 168.405 99.797C168.659 100.621 168.92 101.445 169.135 102.283C169.349 103.114 169.597 103.938 169.785 104.768C169.972 105.599 170.16 106.423 170.341 107.234C170.515 108.051 170.642 108.862 170.796 109.659C170.87 110.055 170.937 110.45 171.011 110.845C171.064 111.241 171.118 111.629 171.172 112.018C171.272 112.788 171.379 113.545 171.46 114.282C171.58 115.756 171.734 117.143 171.801 118.443C171.942 121.029 171.895 123.187 171.855 124.694C171.801 126.188 171.728 127.053 171.728 127.053Z" fill="white"/>
<path d="M154.194 75.5091C154.194 75.5091 153.497 75.3885 152.284 75.1808C151.072 74.9664 149.33 74.6984 147.246 74.3768C146.201 74.2227 145.068 74.0619 143.869 73.9078C142.67 73.7671 141.404 73.613 140.097 73.4589C138.784 73.3048 137.437 73.1641 136.057 73.0502C134.677 72.9229 133.276 72.8157 131.876 72.7286C130.476 72.6281 129.069 72.541 127.689 72.4807C126.308 72.4137 124.948 72.3668 123.628 72.34C122.309 72.3132 121.036 72.2864 119.83 72.2797C118.624 72.2663 117.478 72.273 116.426 72.2864C114.315 72.3132 112.56 72.3534 111.327 72.3936C110.094 72.4338 109.391 72.4606 109.391 72.4606C109.391 72.4606 110.094 72.3936 111.321 72.2797C112.547 72.1859 114.309 72.0318 116.419 71.9514C117.478 71.9112 118.624 71.871 119.83 71.8442C121.042 71.8174 122.322 71.7973 123.642 71.8241C124.962 71.8375 126.329 71.871 127.715 71.9246C129.102 71.9715 130.509 72.0452 131.916 72.139C133.323 72.2395 134.73 72.3601 136.111 72.5008C137.491 72.6348 138.851 72.7889 140.164 72.9564C142.79 73.278 145.223 73.6934 147.306 74.0619C149.39 74.4304 151.105 74.819 152.311 75.0803C153.517 75.3349 154.194 75.5091 154.194 75.5091Z" fill="white"/>
<path d="M73.9347 157.209C70.2564 156.164 66.625 154.918 63.074 153.477C62.1829 153.115 61.3052 152.747 60.4275 152.358C59.5565 151.963 58.6788 151.588 57.8145 151.172C56.9435 150.77 56.0859 150.348 55.2283 149.913C54.364 149.491 53.5265 149.028 52.6756 148.586C51.8381 148.124 50.9939 147.668 50.1631 147.186C49.3323 146.71 48.5082 146.228 47.6908 145.725C46.8667 145.236 46.0627 144.707 45.252 144.198C44.4547 143.668 43.644 143.146 42.8601 142.603C39.691 140.446 36.6492 138.094 33.728 135.615L33.661 135.555L33.6476 135.468C33.2121 132.828 32.9106 130.168 32.7565 127.495C32.6761 126.161 32.6292 124.821 32.6225 123.481C32.6158 122.811 32.6225 122.141 32.6359 121.471L32.6627 120.46L32.723 119.461L32.8436 117.465L32.9039 116.466L33.0111 115.468C33.1719 114.135 33.2724 112.795 33.5136 111.475L33.8352 109.492C33.929 108.828 34.0965 108.179 34.2305 107.522L34.6459 105.552L35.1484 103.602C35.4633 102.296 35.8653 101.023 36.2539 99.7365L36.5487 98.7784L36.8837 97.827L37.547 95.9309C37.7748 95.3011 38.0361 94.6847 38.2773 94.0549C38.5319 93.4318 38.753 92.802 39.0344 92.1923C39.5704 90.9662 40.0997 89.7334 40.696 88.5341C41.2588 87.3147 41.8953 86.1355 42.5117 84.9496C43.1616 83.7771 43.7981 82.5979 44.5016 81.4522C45.1783 80.2931 45.9086 79.1675 46.6322 78.0419L47.7511 76.3736L48.9102 74.7254L49.0308 74.5512L49.2452 74.4976C53.0575 73.5529 56.91 72.769 60.7893 72.1392C62.7323 71.8243 64.6753 71.5496 66.6317 71.3285C67.6032 71.2146 68.5747 71.1074 69.5596 71.0136C70.5378 70.9131 71.516 70.8394 72.5009 70.759C76.4204 70.4642 80.3533 70.3235 84.2862 70.3503C88.2191 70.3771 92.152 70.5714 96.0715 70.9198L97.1703 71.0203L96.7683 72.0655C96.1586 73.6467 96.0447 75.4356 96.4936 77.057L96.5271 77.191L96.5807 77.3585C96.6142 77.4657 96.6544 77.593 96.6879 77.6868C96.7616 77.8744 96.8286 78.0553 96.9224 78.2496C97.0966 78.6315 97.3043 79.0067 97.5321 79.3551C98.0011 80.0586 98.584 80.6884 99.2406 81.211L98.1217 82.6113C97.311 81.9614 96.6209 81.1842 96.0581 80.3199C95.7767 79.8844 95.5355 79.4288 95.3211 78.9598C95.2139 78.732 95.1201 78.4774 95.0263 78.2228C94.9794 78.0955 94.9526 77.995 94.9191 77.8811L94.8655 77.7136L94.8119 77.5059C94.2826 75.5026 94.4434 73.3586 95.2072 71.4491L95.904 72.5881C92.0381 72.1995 88.1521 71.9717 84.2594 71.898C80.3734 71.831 76.4807 71.9248 72.5947 72.1794C71.6232 72.2531 70.6517 72.3134 69.6869 72.4005C68.7221 72.4809 67.7506 72.5747 66.7791 72.6819C64.8495 72.8829 62.9132 73.1375 60.9903 73.4256C57.1378 74.0018 53.3121 74.7388 49.5266 75.6366L49.8616 75.4088L48.7025 77.0235L47.5702 78.6784C46.8399 79.7839 46.1096 80.8894 45.4262 82.0284C44.7227 83.1473 44.0795 84.3131 43.4229 85.4588C42.7998 86.6246 42.1566 87.7904 41.5871 88.983C40.9841 90.1622 40.4481 91.3749 39.9054 92.5876C39.624 93.1839 39.3895 93.807 39.1349 94.4234C38.887 95.0398 38.6257 95.6495 38.3912 96.2659L37.7145 98.1352L37.3728 99.0732L37.0713 100.018C36.6693 101.284 36.2606 102.544 35.9323 103.83L35.4164 105.753L34.9876 107.696C34.8536 108.346 34.6794 108.989 34.5789 109.646L34.2439 111.609C33.9893 112.915 33.8754 114.229 33.7012 115.542L33.5806 116.527L33.5069 117.525L33.3662 119.522L33.2992 120.52L33.2657 121.505C33.2456 122.168 33.2322 122.831 33.2322 123.495C33.2255 124.821 33.259 126.148 33.3193 127.475C33.4466 130.128 33.7213 132.774 34.1233 135.401L34.0429 135.253C36.9306 137.752 39.9322 140.124 43.0678 142.315C43.845 142.871 44.6423 143.394 45.4329 143.93C46.2369 144.446 47.0275 144.982 47.8449 145.477C48.6556 145.987 49.473 146.482 50.2971 146.965C51.1145 147.454 51.9587 147.916 52.7895 148.385C53.6337 148.834 54.4645 149.303 55.3221 149.732C56.173 150.174 57.0239 150.603 57.8882 151.012C58.7458 151.44 59.6168 151.822 60.4878 152.224C61.3588 152.62 62.2365 153.002 63.1209 153.37C66.6518 154.844 70.2631 156.124 73.9347 157.209Z" fill="#D4C6BD"/>
<path d="M32.4683 127.14C32.4683 127.14 32.3946 126.282 32.341 124.774C32.2941 123.267 32.2472 121.11 32.3879 118.523C32.4482 117.224 32.6023 115.837 32.7229 114.363C32.8033 113.626 32.9105 112.869 33.011 112.098C33.0646 111.709 33.1182 111.321 33.1651 110.926C33.2321 110.537 33.3058 110.142 33.3795 109.74C33.5269 108.942 33.6609 108.132 33.8351 107.314C34.016 106.504 34.2036 105.679 34.3912 104.849C34.5788 104.018 34.82 103.194 35.0344 102.363C35.2421 101.525 35.5034 100.701 35.758 99.8773C36.0126 99.0532 36.2739 98.2291 36.5754 97.4251C36.8702 96.6211 37.1315 95.797 37.4598 95.0131C37.7747 94.2225 38.0762 93.4386 38.3978 92.6681C38.7328 91.9043 39.0611 91.1472 39.3827 90.4102C40.0594 88.9429 40.7428 87.5359 41.4463 86.2227C41.7813 85.5594 42.1364 84.9296 42.4781 84.3266C42.8198 83.7169 43.1414 83.1273 43.4764 82.5712C43.8047 82.0151 44.1263 81.4858 44.4278 80.9766C44.7427 80.4808 45.0442 80.0118 45.3323 79.5696C45.8951 78.6785 46.4244 77.9348 46.8398 77.305C47.2686 76.6819 47.617 76.2062 47.8515 75.8779C48.086 75.5496 48.2133 75.3754 48.2133 75.3754C48.2133 75.3754 47.751 76.099 46.9403 77.372C46.5517 78.0152 46.0492 78.779 45.5266 79.6902C45.2586 80.1391 44.9772 80.6215 44.6824 81.1307C44.3943 81.6399 44.0928 82.1826 43.7779 82.7454C43.4563 83.3015 43.1481 83.8978 42.8265 84.5142C42.4982 85.1306 42.1632 85.7604 41.8483 86.4304C41.185 87.7503 40.5418 89.164 39.8718 90.6313C39.5569 91.3683 39.2353 92.1254 38.9137 92.8825C38.5988 93.6463 38.3107 94.4369 38.0025 95.2208C37.6809 96.0047 37.433 96.8154 37.1449 97.6194C36.8501 98.4234 36.6022 99.2408 36.3543 100.065C36.093 100.882 35.8317 101.7 35.6173 102.524C35.3962 103.348 35.1483 104.165 34.9607 104.989C34.7664 105.813 34.5788 106.631 34.3912 107.435C34.217 108.246 34.0763 109.05 33.9222 109.84C33.8485 110.235 33.7748 110.624 33.7011 111.013C33.6408 111.401 33.5872 111.79 33.5269 112.172C33.413 112.936 33.2857 113.679 33.1852 114.416C33.0378 115.884 32.8435 117.284 32.7564 118.557C32.5621 121.123 32.4951 123.274 32.4951 124.781C32.4482 126.282 32.4683 127.14 32.4683 127.14Z" fill="white"/>
<path d="M49.9286 75.5763C49.9286 75.5763 50.612 75.4021 51.8113 75.1274C53.0173 74.8661 54.7325 74.4775 56.8162 74.1023C58.8999 73.7338 61.332 73.3117 63.9517 72.9901C65.2582 72.8226 66.625 72.6685 68.0052 72.5345C69.3854 72.3938 70.7924 72.2732 72.1994 72.166C73.6064 72.0722 75.0134 71.9985 76.4003 71.9516C77.7872 71.898 79.154 71.8645 80.4739 71.8444C81.7938 71.8176 83.0735 71.8377 84.2862 71.8578C85.4989 71.8779 86.6446 71.9181 87.6965 71.9583C89.807 72.0387 91.5691 72.1928 92.7952 72.2799C94.0213 72.3938 94.7248 72.4608 94.7248 72.4608C94.7248 72.4608 94.0213 72.4407 92.7885 72.4005C91.5557 72.3603 89.8003 72.3268 87.6898 72.3C86.6379 72.2933 85.4922 72.2866 84.2862 72.3C83.0802 72.3134 81.8005 72.3402 80.4873 72.367C79.1674 72.3938 77.8073 72.4407 76.4271 72.5144C75.0469 72.5814 73.6399 72.6618 72.2396 72.769C70.8393 72.8561 69.4323 72.9633 68.0588 73.0906C66.6786 73.2112 65.3319 73.3586 64.0187 73.506C62.7122 73.6668 61.4459 73.8142 60.2466 73.9616C59.0473 74.1157 57.915 74.2765 56.8765 74.4373C54.7928 74.7589 53.0508 75.0269 51.8381 75.248C50.6254 75.4557 49.9286 75.5763 49.9286 75.5763Z" fill="white"/>
<path fill-rule="evenodd" clip-rule="evenodd" d="M70.6717 57.8011C64.4541 60.5883 58.5313 65.6468 59.2884 67.2213C59.4224 67.496 60.0656 68.3 66.9398 66.7925C77.6464 64.4475 92.6209 58.8731 91.9643 56.1864C91.4149 53.9553 80.0316 53.6069 70.6717 57.8011Z" fill="#D4C6BD"/>
<path fill-rule="evenodd" clip-rule="evenodd" d="M71.134 59.6296C66.4641 61.7267 62.0086 65.5256 62.5781 66.7048C62.6786 66.9125 63.161 67.5155 68.3267 66.3832C76.3734 64.6211 87.6294 60.4336 87.1336 58.4169C86.7249 56.7352 78.169 56.4739 71.134 59.6296Z" fill="url(#paint4_linear_4_829)"/>
<path fill-rule="evenodd" clip-rule="evenodd" d="M137.678 57.2643C143.896 60.0448 149.826 65.0899 149.075 66.6644C148.941 66.9391 148.305 67.7431 141.424 66.249C130.717 63.9174 115.736 58.3631 116.386 55.6764C116.922 53.4453 128.305 53.0835 137.678 57.2643Z" fill="#D4C6BD"/>
<path fill-rule="evenodd" clip-rule="evenodd" d="M137.216 59.0938C141.893 61.1842 146.348 64.9764 145.779 66.1623C145.678 66.37 145.196 66.973 140.023 65.8474C131.977 64.092 120.714 59.9246 121.203 57.9012C121.618 56.2262 130.174 55.9515 137.216 59.0938Z" fill="url(#paint5_linear_4_829)"/>
<path d="M132.707 61.1512L135.682 62.2969L149.243 27.2626L146.268 26.1102L132.707 61.1512Z" fill="url(#paint6_linear_4_829)"/>
<path d="M150.181 32.8637C155.12 32.8637 159.125 28.8592 159.125 23.9192C159.125 18.9793 155.12 14.9747 150.181 14.9747C145.241 14.9747 141.236 18.9793 141.236 23.9192C141.236 28.8592 145.241 32.8637 150.181 32.8637Z" fill="#F5ECE6"/>
<path d="M151.38 27.4365C154.751 27.4365 157.484 24.7038 157.484 21.3328C157.484 17.9618 154.751 15.2291 151.38 15.2291C148.009 15.2291 145.276 17.9618 145.276 21.3328C145.276 24.7038 148.009 27.4365 151.38 27.4365Z" fill="#FCF6F0"/>
<path d="M150.649 22.3043C152.84 22.3043 154.616 20.7204 154.616 18.7667C154.616 16.8129 152.84 15.2291 150.649 15.2291C148.459 15.2291 146.683 16.8129 146.683 18.7667C146.683 20.7204 148.459 22.3043 150.649 22.3043Z" fill="white"/>
<path d="M75.6164 62.2228L72.6416 63.3685L59.0339 28.3476L62.0087 27.2019L75.6164 62.2228Z" fill="url(#paint7_linear_4_829)"/>
<path d="M58.0891 33.9627C63.029 33.9627 67.0336 29.9581 67.0336 25.0182C67.0336 20.0783 63.029 16.0737 58.0891 16.0737C53.1492 16.0737 49.1446 20.0783 49.1446 25.0182C49.1446 29.9581 53.1492 33.9627 58.0891 33.9627Z" fill="#F5ECE6"/>
<path d="M56.8899 28.5355C60.2609 28.5355 62.9936 25.8027 62.9936 22.4317C62.9936 19.0608 60.2609 16.328 56.8899 16.328C53.5189 16.328 50.7862 19.0608 50.7862 22.4317C50.7862 25.8027 53.5189 28.5355 56.8899 28.5355Z" fill="#FCF6F0"/>
<path d="M57.6134 23.4032C59.804 23.4032 61.5798 21.8194 61.5798 19.8656C61.5798 17.9119 59.804 16.328 57.6134 16.328C55.4228 16.328 53.647 17.9119 53.647 19.8656C53.647 21.8194 55.4228 23.4032 57.6134 23.4032Z" fill="white"/>
<path fill-rule="evenodd" clip-rule="evenodd" d="M165.014 106.47C164.043 100.406 162.522 94.0411 158.891 88.9625C155.018 83.5489 149.564 81.0833 143.065 80.6076C135.36 80.0448 127.642 81.0163 119.93 81.7332C118.51 86.6577 111.066 90.4231 102.068 90.4298C93.4584 90.4365 86.2626 86.9994 84.4067 82.3831C74.3366 81.3982 60.146 80.7215 51.1814 84.9961C50.7928 85.1837 50.4109 85.3981 50.0424 85.6326C44.468 89.2372 41.4128 98.4966 39.8718 104.433C37.7144 112.741 36.5955 122.235 37.7814 130.791C38.8132 138.234 46.1966 142.214 52.3338 146.12C65.7807 154.676 81.4051 159.842 97.331 160.8C119.086 162.106 141.223 155.554 158.757 142.616C170.877 133.678 167.132 119.695 165.014 106.47Z" fill="url(#paint8_linear_4_829)"/>
<path fill-rule="evenodd" clip-rule="evenodd" d="M161.798 107.2C160.88 101.445 159.433 95.4079 155.989 90.5906C152.318 85.4584 147.145 83.1133 140.975 82.6644C133.665 82.1284 126.342 83.0531 119.026 83.7298C117.679 88.3997 110.617 91.9708 102.081 91.9775C93.914 91.9842 87.0867 88.7213 85.3246 84.3462C75.7704 83.4149 62.3101 82.7716 53.8011 86.8251C53.4326 86.9993 53.0708 87.2071 52.7157 87.4282C47.4294 90.8452 44.5283 99.6289 43.0677 105.264C41.0175 113.143 39.9589 122.154 41.0845 130.268C42.0627 137.33 49.0642 141.102 54.8932 144.814C67.6567 152.934 82.4771 157.832 97.5855 158.736C118.222 159.976 139.233 153.758 155.869 141.484C167.359 133.015 163.808 119.742 161.798 107.2Z" fill="#051F28"/>
<path fill-rule="evenodd" clip-rule="evenodd" d="M116.312 165.389C116.346 165.986 116.386 166.582 116.42 167.178C115.482 167.721 114.43 168.257 113.264 168.759C110.49 169.952 107.904 170.555 105.787 170.87C105.72 171.5 105.646 172.136 105.579 172.766C104.775 173.088 103.824 173.396 102.738 173.61C100.239 174.099 98.0883 173.892 96.6277 173.617C96.4535 172.88 96.2726 172.143 96.0984 171.406C94.6713 171.426 93.0834 171.372 91.3615 171.198C89.8674 171.044 88.4939 170.823 87.2544 170.568C87.0065 169.483 86.7586 168.391 86.5174 167.306C89.5793 167.393 92.7752 167.399 96.0984 167.299C103.435 167.078 110.202 166.361 116.312 165.389Z" fill="#D6C9C1"/>
<path fill-rule="evenodd" clip-rule="evenodd" d="M117.364 164.231C114.631 164.733 111.642 165.122 108.413 165.289C98.0748 165.839 89.3179 163.976 82.9261 161.939C82.8591 162.737 82.8591 164.036 83.3482 165.517C84.0182 167.547 85.2376 168.827 85.8808 169.41C89.3447 170.194 94.2156 170.884 99.991 170.455C107.636 169.879 113.585 167.581 117.257 165.812C117.297 165.289 117.331 164.76 117.364 164.231Z" fill="url(#paint9_linear_4_829)"/>
<path fill-rule="evenodd" clip-rule="evenodd" d="M110.946 165.497C108.031 166.388 103.964 167.299 99.0531 167.366C93.1303 167.453 88.313 166.287 85.1171 165.242C84.9965 164.472 84.8826 163.701 84.762 162.937C87.6497 163.741 90.9193 164.465 94.5239 164.974C100.795 165.859 106.369 165.845 110.946 165.497Z" fill="#CDE8FF"/>
<path d="M72.6146 140.264C77.9208 140.264 82.2224 131.094 82.2224 119.782C82.2224 108.471 77.9208 99.3005 72.6146 99.3005C67.3083 99.3005 63.0068 108.471 63.0068 119.782C63.0068 131.094 67.3083 140.264 72.6146 140.264Z" fill="url(#paint10_linear_4_829)"/>
<path d="M72.3533 112.017C74.9658 112.017 77.0836 109.899 77.0836 107.287C77.0836 104.674 74.9658 102.556 72.3533 102.556C69.7409 102.556 67.6231 104.674 67.6231 107.287C67.6231 109.899 69.7409 112.017 72.3533 112.017Z" fill="white"/>
<path d="M80.1855 120.539H77.0701C77.0701 120.539 76.8289 130.844 73.4186 131.48C70.0083 132.117 68.4807 121.43 68.4807 121.43L64.789 121.685C64.789 121.685 64.6751 138.857 72.6213 138.73C80.5741 138.609 80.1855 120.539 80.1855 120.539Z" fill="#54FCFF"/>
<path d="M130.188 106.074C126.014 110.255 121.84 114.436 117.666 118.61C117.063 119.213 116.46 119.816 115.857 120.419C114.47 121.806 114.718 123.782 116.493 124.693C121.873 127.447 127.247 130.207 132.627 132.961C133.833 133.578 135.407 132.74 135.876 131.568C136.419 130.214 135.689 128.935 134.483 128.318C129.102 125.564 123.729 122.804 118.349 120.05C118.563 121.477 118.771 122.898 118.985 124.325C123.16 120.144 127.334 115.963 131.508 111.789C132.111 111.186 132.714 110.583 133.317 109.98C134.268 109.029 134.61 107.595 133.699 106.463C132.928 105.491 131.146 105.109 130.188 106.074Z" fill="url(#paint11_linear_4_829)"/>
<defs>
<linearGradient id="paint0_linear_4_829" x1="22.7986" y1="97.9726" x2="173.671" y2="97.9726" gradientUnits="userSpaceOnUse">
<stop stop-color="#08529C"/>
<stop offset="0.1548" stop-color="#1B69AC"/>
<stop offset="0.5461" stop-color="#479ED2"/>
<stop offset="0.8397" stop-color="#63BFE9"/>
<stop offset="1" stop-color="#6DCCF2"/>
</linearGradient>
<linearGradient id="paint1_linear_4_829" x1="188.686" y1="115.667" x2="170.689" y2="114.987" gradientUnits="userSpaceOnUse">
<stop stop-color="#6DCCF2"/>
<stop offset="1" stop-color="#08529C"/>
</linearGradient>
<linearGradient id="paint2_linear_4_829" x1="16.916" y1="115.53" x2="30.922" y2="115.521" gradientUnits="userSpaceOnUse">
<stop stop-color="#6DCCF2"/>
<stop offset="1" stop-color="#08529C"/>
</linearGradient>
<linearGradient id="paint3_linear_4_829" x1="97.3974" y1="75.5475" x2="106.731" y2="75.5412" gradientUnits="userSpaceOnUse">
<stop stop-color="#6DCCF2"/>
<stop offset="1" stop-color="#08529C"/>
</linearGradient>
<linearGradient id="paint4_linear_4_829" x1="62.5278" y1="62.129" x2="87.1566" y2="62.1126" gradientUnits="userSpaceOnUse">
<stop stop-color="#6DCCF2"/>
<stop offset="1" stop-color="#08529C"/>
</linearGradient>
<linearGradient id="paint5_linear_4_829" x1="121.196" y1="61.5999" x2="145.825" y2="61.5835" gradientUnits="userSpaceOnUse">
<stop stop-color="#6DCCF2"/>
<stop offset="1" stop-color="#08529C"/>
</linearGradient>
<linearGradient id="paint6_linear_4_829" x1="132.695" y1="44.2106" x2="149.253" y2="44.1995" gradientUnits="userSpaceOnUse">
<stop stop-color="#6DCCF2"/>
<stop offset="1" stop-color="#08529C"/>
</linearGradient>
<linearGradient id="paint7_linear_4_829" x1="75.6027" y1="45.2796" x2="59.0442" y2="45.2907" gradientUnits="userSpaceOnUse">
<stop stop-color="#6DCCF2"/>
<stop offset="1" stop-color="#08529C"/>
</linearGradient>
<linearGradient id="paint8_linear_4_829" x1="84.435" y1="75.25" x2="118.582" y2="159.22" gradientUnits="userSpaceOnUse">
<stop stop-color="#6DCCF2"/>
<stop offset="1" stop-color="#08529C"/>
</linearGradient>
<linearGradient id="paint9_linear_4_829" x1="100.131" y1="162.004" x2="100.137" y2="170.98" gradientUnits="userSpaceOnUse">
<stop stop-color="#6DCEF5"/>
<stop offset="1" stop-color="#034EA1"/>
</linearGradient>
<linearGradient id="paint10_linear_4_829" x1="63.0073" y1="119.79" x2="82.2179" y2="119.777" gradientUnits="userSpaceOnUse">
<stop stop-color="#6DCCF2"/>
<stop offset="1" stop-color="#08529C"/>
</linearGradient>
<linearGradient id="paint11_linear_4_829" x1="115.903" y1="121.822" x2="133.902" y2="119.145" gradientUnits="userSpaceOnUse">
<stop stop-color="#08529C"/>
<stop offset="0.1548" stop-color="#1B69AC"/>
<stop offset="0.5461" stop-color="#479ED2"/>
<stop offset="0.8397" stop-color="#63BFE9"/>
<stop offset="1" stop-color="#6DCCF2"/>
</linearGradient>
</defs>
</svg>
